<?xml version="1.0" encoding="us-ascii" standalone="no"?><svg xmlns="http://www.w3.org/2000/svg" xmlns:xlink="http://www.w3.org/1999/xlink" contentStyleType="text/css" height="753px" preserveAspectRatio="none" style="width:1235px;height:753px;background:#FFFFFF;" version="1.1" viewBox="0 0 1235 753" width="1235px" zoomAndPan="magnify"><defs/><g><text fill="#000000" font-family="FG Virgil" font-size="20" font-weight="bold" lengthAdjust="spacing" textLength="240" x="498.5" y="36.582">Sequence Diagram - 1016</text><rect fill="#FFFFFF" height="518.9473" style="stroke:#181818;stroke-width:1.0;" width="10" x="76.5" y="141.2227"/><rect fill="#FFFFFF" height="495.6563" style="stroke:#181818;stroke-width:1.0;" width="10" x="403.5" y="164.5137"/><rect fill="#FFFFFF" height="455.3652" style="stroke:#181818;stroke-width:1.0;" width="10" x="579.5" y="205.8047"/><rect fill="#FFFFFF" height="371.832" style="stroke:#181818;stroke-width:1.0;" width="10" x="1015.5" y="289.3379"/><rect fill="#FFFFFF" height="157.7949" style="stroke:#181818;stroke-width:1.0;" width="10" x="1163.5" y="503.375"/><rect fill="none" height="223.668" style="stroke:#000000;stroke-width:1.5;" width="1218" x="10" y="429.502"/><line style="stroke:#181818;stroke-width:0.5;stroke-dasharray:5.0,5.0;" x1="81" x2="81" y1="131.2227" y2="670.1699"/><line style="stroke:#181818;stroke-width:0.5;stroke-dasharray:5.0,5.0;" x1="408" x2="408" y1="131.2227" y2="670.1699"/><line style="stroke:#181818;stroke-width:0.5;stroke-dasharray:5.0,5.0;" x1="584" x2="584" y1="213.6348" y2="670.1699"/><line style="stroke:#181818;stroke-width:0.5;stroke-dasharray:5.0,5.0;" x1="1020" x2="1020" y1="131.2227" y2="670.1699"/><line style="stroke:#181818;stroke-width:0.5;stroke-dasharray:5.0,5.0;" x1="1168" x2="1168" y1="131.2227" y2="670.1699"/><text fill="#000000" font-family="FG Virgil" font-size="14" lengthAdjust="spacing" textLength="117" x="20" y="127.709">CustomerManager</text><ellipse cx="81.5" cy="61.1016" fill="#ADD8E6" rx="8" ry="8" style="stroke:#181818;stroke-width:0.5;"/><path d="M81.5,69.1016 L81.5,96.1016 M68.5,77.1016 L94.5,77.1016 M81.5,96.1016 L68.5,111.1016 M81.5,96.1016 L94.5,111.1016 " fill="none" style="stroke:#181818;stroke-width:0.5;"/><text fill="#000000" font-family="FG Virgil" font-size="14" lengthAdjust="spacing" textLength="117" x="20" y="684.2773">CustomerManager</text><ellipse cx="81.5" cy="696.291" fill="#ADD8E6" rx="8" ry="8" style="stroke:#181818;stroke-width:0.5;"/><path d="M81.5,704.291 L81.5,731.291 M68.5,712.291 L94.5,712.291 M81.5,731.291 L68.5,746.291 M81.5,731.291 L94.5,746.291 " fill="none" style="stroke:#181818;stroke-width:0.5;"/><rect fill="#E2E2F0" height="51.2422" rx="2.5" ry="2.5" style="stroke:#181818;stroke-width:0.5;" width="115" x="351" y="78.9805"/><text fill="#000000" font-family="FG Virgil" font-size="14" font-style="italic" lengthAdjust="spacing" textLength="95" x="361" y="101.0879">&#171;presentation&#187;</text><text fill="#000000" font-family="FG Virgil" font-size="14" lengthAdjust="spacing" textLength="101" x="358" y="119.709">:NotifyByEmailUI</text><rect fill="#E2E2F0" height="51.2422" rx="2.5" ry="2.5" style="stroke:#181818;stroke-width:0.5;" width="115" x="351" y="669.1699"/><text fill="#000000" font-family="FG Virgil" font-size="14" font-style="italic" lengthAdjust="spacing" textLength="95" x="361" y="691.2773">&#171;presentation&#187;</text><text fill="#000000" font-family="FG Virgil" font-size="14" lengthAdjust="spacing" textLength="101" x="358" y="709.8984">:NotifyByEmailUI</text><rect fill="#E2E2F0" height="51.2422" rx="2.5" ry="2.5" style="stroke:#181818;stroke-width:0.5;" width="165" x="502" y="669.1699"/><text fill="#000000" font-family="FG Virgil" font-size="14" font-style="italic" lengthAdjust="spacing" textLength="84" x="542.5" y="691.2773">&#171;application&#187;</text><text fill="#000000" font-family="FG Virgil" font-size="14" lengthAdjust="spacing" textLength="151" x="509" y="709.8984">:NotifyByEmailController</text><rect fill="#E2E2F0" height="51.2422" rx="2.5" ry="2.5" style="stroke:#181818;stroke-width:0.5;" width="177" x="932" y="78.9805"/><text fill="#000000" font-family="FG Virgil" font-size="14" font-style="italic" lengthAdjust="spacing" textLength="79" x="981" y="101.0879">&#171;repository&#187;</text><text fill="#000000" font-family="FG Virgil" font-size="14" lengthAdjust="spacing" textLength="163" x="939" y="119.709">:JobApplicationRepository</text><rect fill="#E2E2F0" height="51.2422" rx="2.5" ry="2.5" style="stroke:#181818;stroke-width:0.5;" width="177" x="932" y="669.1699"/><text fill="#000000" font-family="FG Virgil" font-size="14" font-style="italic" lengthAdjust="spacing" textLength="79" x="981" y="691.2773">&#171;repository&#187;</text><text fill="#000000" font-family="FG Virgil" font-size="14" lengthAdjust="spacing" textLength="163" x="939" y="709.8984">:JobApplicationRepository</text><rect fill="#E2E2F0" height="51.2422" rx="2.5" ry="2.5" style="stroke:#181818;stroke-width:0.5;" width="99" x="1119" y="78.9805"/><text fill="#000000" font-family="FG Virgil" font-size="14" font-style="italic" lengthAdjust="spacing" textLength="60" x="1138.5" y="101.0879">&#171;service&#187;</text><text fill="#000000" font-family="FG Virgil" font-size="14" lengthAdjust="spacing" textLength="85" x="1126" y="119.709">:EmailService</text><rect fill="#E2E2F0" height="51.2422" rx="2.5" ry="2.5" style="stroke:#181818;stroke-width:0.5;" width="99" x="1119" y="669.1699"/><text fill="#000000" font-family="FG Virgil" font-size="14" font-style="italic" lengthAdjust="spacing" textLength="60" x="1138.5" y="691.2773">&#171;service&#187;</text><text fill="#000000" font-family="FG Virgil" font-size="14" lengthAdjust="spacing" textLength="85" x="1126" y="709.8984">:EmailService</text><rect fill="#FFFFFF" height="518.9473" style="stroke:#181818;stroke-width:1.0;" width="10" x="76.5" y="141.2227"/><rect fill="#FFFFFF" height="495.6563" style="stroke:#181818;stroke-width:1.0;" width="10" x="403.5" y="164.5137"/><rect fill="#FFFFFF" height="455.3652" style="stroke:#181818;stroke-width:1.0;" width="10" x="579.5" y="205.8047"/><rect fill="#FFFFFF" height="371.832" style="stroke:#181818;stroke-width:1.0;" width="10" x="1015.5" y="289.3379"/><rect fill="#FFFFFF" height="157.7949" style="stroke:#181818;stroke-width:1.0;" width="10" x="1163.5" y="503.375"/><polygon fill="#181818" points="391.5,160.5137,401.5,164.5137,391.5,168.5137,395.5,164.5137" style="stroke:#181818;stroke-width:1.0;"/><line style="stroke:#181818;stroke-width:1.0;" x1="86.5" x2="397.5" y1="164.5137" y2="164.5137"/><text fill="#000000" font-family="FG Virgil" font-size="13" lengthAdjust="spacing" textLength="298" x="93.5" y="159.251">Notify Candidates About Application State by Email</text><polygon fill="#181818" points="490,191.8047,500,195.8047,490,199.8047,494,195.8047" style="stroke:#181818;stroke-width:1.0;"/><line style="stroke:#181818;stroke-width:1.0;" x1="413.5" x2="496" y1="195.8047" y2="195.8047"/><text fill="#000000" font-family="FG Virgil" font-size="13" lengthAdjust="spacing" textLength="44" x="420.5" y="190.542">create()</text><rect fill="#E2E2F0" height="51.2422" rx="2.5" ry="2.5" style="stroke:#181818;stroke-width:0.5;" width="165" x="502" y="172.5137"/><text fill="#000000" font-family="FG Virgil" font-size="14" font-style="italic" lengthAdjust="spacing" textLength="84" x="542.5" y="194.6211">&#171;application&#187;</text><text fill="#000000" font-family="FG Virgil" font-size="14" lengthAdjust="spacing" textLength="151" x="509" y="213.2422">:NotifyByEmailController</text><polygon fill="#181818" points="567.5,254.0469,577.5,258.0469,567.5,262.0469,571.5,258.0469" style="stroke:#181818;stroke-width:1.0;"/><line style="stroke:#181818;stroke-width:1.0;" x1="413.5" x2="573.5" y1="258.0469" y2="258.0469"/><text fill="#000000" font-family="FG Virgil" font-size="13" lengthAdjust="spacing" textLength="142" x="420.5" y="252.7842">findVerifiedApplications()</text><polygon fill="#181818" points="1003.5,285.3379,1013.5,289.3379,1003.5,293.3379,1007.5,289.3379" style="stroke:#181818;stroke-width:1.0;"/><line style="stroke:#181818;stroke-width:1.0;" x1="589.5" x2="1009.5" y1="289.3379" y2="289.3379"/><text fill="#000000" font-family="FG Virgil" font-size="13" lengthAdjust="spacing" textLength="407" x="596.5" y="284.0752">findVerifiedApplications(List.of(State.CONFIRMED, State.REJECTED))</text><polygon fill="#181818" points="600.5,316.6289,590.5,320.6289,600.5,324.6289,596.5,320.6289" style="stroke:#181818;stroke-width:1.0;"/><line style="stroke:#181818;stroke-width:1.0;stroke-dasharray:2.0,2.0;" x1="594.5" x2="1014.5" y1="320.6289" y2="320.6289"/><text fill="#000000" font-family="FG Virgil" font-size="13" lengthAdjust="spacing" textLength="88" x="606.5" y="315.3662">jobApplications</text><polygon fill="#181818" points="424.5,347.9199,414.5,351.9199,424.5,355.9199,420.5,351.9199" style="stroke:#181818;stroke-width:1.0;"/><line style="stroke:#181818;stroke-width:1.0;stroke-dasharray:2.0,2.0;" x1="418.5" x2="578.5" y1="351.9199" y2="351.9199"/><text fill="#000000" font-family="FG Virgil" font-size="13" lengthAdjust="spacing" textLength="88" x="430.5" y="346.6572">jobApplications</text><polygon fill="#181818" points="97.5,379.2109,87.5,383.2109,97.5,387.2109,93.5,383.2109" style="stroke:#181818;stroke-width:1.0;"/><line style="stroke:#181818;stroke-width:1.0;stroke-dasharray:2.0,2.0;" x1="91.5" x2="402.5" y1="383.2109" y2="383.2109"/><text fill="#000000" font-family="FG Virgil" font-size="13" lengthAdjust="spacing" textLength="217" x="103.5" y="377.9482">Asks if wants to notify the candidates</text><polygon fill="#181818" points="391.5,410.502,401.5,414.502,391.5,418.502,395.5,414.502" style="stroke:#181818;stroke-width:1.0;"/><line style="stroke:#181818;stroke-width:1.0;" x1="86.5" x2="397.5" y1="414.502" y2="414.502"/><text fill="#000000" font-family="FG Virgil" font-size="13" lengthAdjust="spacing" textLength="58" x="93.5" y="409.2393">Responds</text><path d="M10,429.502 L71,429.502 L71,438.793 L61,448.793 L10,448.793 L10,429.502 " fill="#EEEEEE" style="stroke:#000000;stroke-width:1.5;"/><rect fill="none" height="223.668" style="stroke:#000000;stroke-width:1.5;" width="1218" x="10" y="429.502"/><text fill="#000000" font-family="FG Virgil" font-size="13" font-weight="bold" lengthAdjust="spacing" textLength="16" x="25" y="444.5303">alt</text><text fill="#000000" font-family="FG Virgil" font-size="11" font-weight="bold" lengthAdjust="spacing" textLength="108" x="86" y="443.3721">[response is "yes"]</text><polygon fill="#181818" points="567.5,468.084,577.5,472.084,567.5,476.084,571.5,472.084" style="stroke:#181818;stroke-width:1.0;"/><line style="stroke:#181818;stroke-width:1.0;" x1="413.5" x2="573.5" y1="472.084" y2="472.084"/><text fill="#000000" font-family="FG Virgil" font-size="13" lengthAdjust="spacing" textLength="104" x="420.5" y="466.8213">notifyCandidates()</text><polygon fill="#181818" points="1151.5,499.375,1161.5,503.375,1151.5,507.375,1155.5,503.375" style="stroke:#181818;stroke-width:1.0;"/><line style="stroke:#181818;stroke-width:1.0;" x1="589.5" x2="1157.5" y1="503.375" y2="503.375"/><text fill="#000000" font-family="FG Virgil" font-size="13" lengthAdjust="spacing" textLength="330" x="596.5" y="498.1123">sendEmailMessage(String to, String subject, String msg)</text><polygon fill="#181818" points="600.5,530.666,590.5,534.666,600.5,538.666,596.5,534.666" style="stroke:#181818;stroke-width:1.0;"/><line style="stroke:#181818;stroke-width:1.0;stroke-dasharray:2.0,2.0;" x1="594.5" x2="1162.5" y1="534.666" y2="534.666"/><text fill="#000000" font-family="FG Virgil" font-size="13" lengthAdjust="spacing" textLength="37" x="606.5" y="529.4033">isSent</text><polygon fill="#181818" points="424.5,561.957,414.5,565.957,424.5,569.957,420.5,565.957" style="stroke:#181818;stroke-width:1.0;"/><line style="stroke:#181818;stroke-width:1.0;stroke-dasharray:2.0,2.0;" x1="418.5" x2="578.5" y1="565.957" y2="565.957"/><text fill="#000000" font-family="FG Virgil" font-size="13" lengthAdjust="spacing" textLength="110" x="430.5" y="560.6943">Candidates notified</text><polygon fill="#181818" points="97.5,593.248,87.5,597.248,97.5,601.248,93.5,597.248" style="stroke:#181818;stroke-width:1.0;"/><line style="stroke:#181818;stroke-width:1.0;stroke-dasharray:2.0,2.0;" x1="91.5" x2="402.5" y1="597.248" y2="597.248"/><text fill="#000000" font-family="FG Virgil" font-size="13" lengthAdjust="spacing" textLength="110" x="103.5" y="591.9854">Candidates notified</text><line style="stroke:#000000;stroke-width:1.0;stroke-dasharray:2.0,2.0;" x1="10" x2="1228" y1="606.248" y2="606.248"/><text fill="#000000" font-family="FG Virgil" font-size="11" font-weight="bold" lengthAdjust="spacing" textLength="102" x="15" y="618.1182">[response is "no"]</text><polygon fill="#181818" points="97.5,641.1699,87.5,645.1699,97.5,649.1699,93.5,645.1699" style="stroke:#181818;stroke-width:1.0;"/><line style="stroke:#181818;stroke-width:1.0;stroke-dasharray:2.0,2.0;" x1="91.5" x2="402.5" y1="645.1699" y2="645.1699"/><text fill="#000000" font-family="FG Virgil" font-size="13" lengthAdjust="spacing" textLength="137" x="103.5" y="639.9072">"Notification cancelled."</text><!--SRC=[VLJ1Sjem4BtxAtReeKccGD933nw6cPH0Xqn9Pg3aBkorKI9BhhHEXdvzrpAnHGBuP6dVUzfzgnL9KWWh_5kXJX3kfCYjAA0F3uPajeFD3gQ5a2eY3nmv-G_ZxzVZ8uoRwviVes4D64VHrorH6G-7fHAQga8D4bCCtOlKfM3qO4k5Yjeb54QRP6jDWP09vJ08bI9v4JckQCV7MqmeYAMOYKhHp6Xw4CoT_O8dQNCPIhkjICsRrFbUEH896GkJoX4VPnT2ixe5uU3M1xuecMzfeogCM81a8akk07fnOyZFdRTZFU_LbFKSHgFIeaDDWgJHu_4vreGJjKOfj9xTBLb5bAMIoN6HUxEvxS9BB8sJdElEgvmAigPj5vyaVJuhjAyoGIyJRZ3LDN_CgmsJhuAmCIXgREgFkVZu_PPCX4vboXXsSMCgWY0ZM55DRYzIfxUUHy0VcyXgdHbNLp4a5XbnSHbvHCleGD5HQWoPrEaJMfb9J8Ca74l1_WjiP_8f-yv8_PQE1YQxy8KD9eyFi_boCRtxrbGwM4xlfvC_qxlBxiYsW5EdjSXJW7v_79RvV01pHsfZGjsWKy3rd06-bJ7SkXS7CeCtlXeEo81kkafRXAJjR4lrh4PzYQuqEkrYGX4FQRtf4AI3tWvThuqURrbpMdU5WbPzRbTuJMFWkKlzpWATupdcbjXwrCdKpV2_hjeyywlHhWkN7-gtlGcbemF8mMpqFwGltOgd_sJAVb0W3aV45yoNwfClZDstv1mQ-HaxD5cRtXcjdX_IzsdaXYR8gQM3ZiCkDWMd-74uWnqlzny0]--></g></svg>