<?xml version="1.0" encoding="us-ascii" standalone="no"?><svg xmlns="http://www.w3.org/2000/svg" xmlns:xlink="http://www.w3.org/1999/xlink" contentStyleType="text/css" height="3308px" preserveAspectRatio="none" style="width:1130px;height:3308px;background:#FFFFFF;" version="1.1" viewBox="0 0 1130 3308" width="1130px" zoomAndPan="magnify"><defs/><g><text fill="#000000" font-family="sans-serif" font-size="30" font-weight="bold" lengthAdjust="spacing" textLength="265" x="425.5" y="42.373">Use Case Diagram</text><!--cluster BackOffice--><g id="cluster_BackOffice"><rect fill="none" height="2763" rx="2.5" ry="2.5" style="stroke:#181818;stroke-width:1.0;" width="458" x="171" y="539.9023"/><text fill="#000000" font-family="sans-serif" font-size="14" font-weight="bold" lengthAdjust="spacing" textLength="76" x="362" y="557.0098">BackOffice</text></g><!--cluster CandidateApp--><g id="cluster_CandidateApp"><rect fill="none" height="220" rx="2.5" ry="2.5" style="stroke:#181818;stroke-width:1.0;" width="366" x="707.5" y="345.9023"/><text fill="#000000" font-family="sans-serif" font-size="14" font-weight="bold" lengthAdjust="spacing" textLength="98" x="841.5" y="363.0098">CandidateApp</text></g><!--cluster ApplicationsFileBot--><g id="cluster_ApplicationsFileBot"><rect fill="none" height="135" rx="2.5" ry="2.5" style="stroke:#181818;stroke-width:1.0;" width="416" x="192" y="67.9023"/><text fill="#000000" font-family="sans-serif" font-size="14" font-weight="bold" lengthAdjust="spacing" textLength="136" x="332" y="85.0098">ApplicationsFileBot</text></g><!--cluster CustomerApp--><g id="cluster_CustomerApp"><rect fill="none" height="145" rx="2.5" ry="2.5" style="stroke:#181818;stroke-width:1.0;" width="467" x="657" y="176.9023"/><text fill="#000000" font-family="sans-serif" font-size="14" font-weight="bold" lengthAdjust="spacing" textLength="95" x="843" y="194.0098">CustomerApp</text></g><g id="elem_1000.1"><ellipse cx="399.9945" cy="1265.7012" fill="#ADD8E6" rx="74.4945" ry="17.2989" style="stroke:#000000;stroke-width:0.5;"/><text fill="#000000" font-family="sans-serif" font-size="14" lengthAdjust="spacing" textLength="93" x="350.4945" y="1270.5049">Register Users</text></g><g id="elem_1000.2"><ellipse cx="399.9511" cy="593.7926" fill="#ADD8E6" rx="72.4511" ry="16.8902" style="stroke:#000000;stroke-width:0.5;"/><text fill="#000000" font-family="sans-serif" font-size="14" lengthAdjust="spacing" textLength="87" x="353.4511" y="598.5963">Disable Users</text></g><g id="elem_1000.3"><ellipse cx="399.7869" cy="662.8597" fill="#ADD8E6" rx="72.7869" ry="16.9574" style="stroke:#000000;stroke-width:0.5;"/><text fill="#000000" font-family="sans-serif" font-size="14" lengthAdjust="spacing" textLength="84" x="352.7869" y="667.6634">Enable Users</text></g><g id="elem_1000.4"><ellipse cx="399.7644" cy="731.8056" fill="#ADD8E6" rx="56.2644" ry="16.4033" style="stroke:#000000;stroke-width:0.5;"/><text fill="#000000" font-family="sans-serif" font-size="14" lengthAdjust="spacing" textLength="62" x="365.7644" y="736.6093">List Users</text></g><g id="elem_1001"><ellipse cx="399.8754" cy="2936.0774" fill="#ADD8E6" rx="86.3754" ry="19.6751" style="stroke:#000000;stroke-width:0.5;"/><text fill="#000000" font-family="sans-serif" font-size="14" lengthAdjust="spacing" textLength="125" x="334.3754" y="2940.8811">Register Customers</text></g><g id="elem_1002"><ellipse cx="400.1672" cy="3011.0358" fill="#ADD8E6" rx="91.1672" ry="20.6334" style="stroke:#000000;stroke-width:0.5;"/><text fill="#000000" font-family="sans-serif" font-size="14" lengthAdjust="spacing" textLength="137" x="328.6672" y="3015.8395">Register Job Opening</text></g><g id="elem_2000a"><ellipse cx="400.2022" cy="904.8428" fill="#ADD8E6" rx="85.2022" ry="19.4404" style="stroke:#000000;stroke-width:0.5;"/><text fill="#000000" font-family="sans-serif" font-size="14" lengthAdjust="spacing" textLength="122" x="336.2022" y="909.6465">Register Candidate</text></g><g id="elem_2002.1"><ellipse cx="400.2329" cy="990.0489" fill="#ADD8E6" rx="138.7329" ry="30.1466" style="stroke:#000000;stroke-width:0.5;"/><text fill="#000000" font-family="sans-serif" font-size="14" lengthAdjust="spacing" textLength="243" x="278.7329" y="993.8458">Register an Application of a Candidate</text></g><g id="elem_2002.2"><ellipse cx="400.0286" cy="1076.1081" fill="#ADD8E6" rx="94.0286" ry="21.2057" style="stroke:#000000;stroke-width:0.5;"/><text fill="#000000" font-family="sans-serif" font-size="14" lengthAdjust="spacing" textLength="144" x="325.0286" y="1080.9118">Import all files received</text></g><g id="elem_1005"><ellipse cx="399.9506" cy="1347.8925" fill="#ADD8E6" rx="135.4506" ry="29.4901" style="stroke:#000000;stroke-width:0.5;"/><text fill="#000000" font-family="sans-serif" font-size="14" lengthAdjust="spacing" textLength="236" x="281.9506" y="1351.6893">List all applications for a Job Opening</text></g><g id="elem_1006"><ellipse cx="399.8379" cy="1445.6699" fill="#ADD8E6" rx="154.3379" ry="33.2676" style="stroke:#000000;stroke-width:0.5;"/><text fill="#000000" font-family="sans-serif" font-size="14" lengthAdjust="spacing" textLength="276" x="261.8379" y="1449.4668">Display all the personal data of a Candidate</text></g><g id="elem_1008.1"><ellipse cx="400.1034" cy="3196.123" fill="#ADD8E6" rx="76.6034" ry="17.7207" style="stroke:#000000;stroke-width:0.5;"/><text fill="#000000" font-family="sans-serif" font-size="14" lengthAdjust="spacing" textLength="99" x="347.6034" y="3200.9267">Deploy a Plugin</text></g><g id="elem_1008.2"><ellipse cx="399.7712" cy="3267.9566" fill="#ADD8E6" rx="83.2712" ry="19.0542" style="stroke:#000000;stroke-width:0.5;"/><text fill="#000000" font-family="sans-serif" font-size="14" lengthAdjust="spacing" textLength="117" x="338.2712" y="3272.7603">Configure a Plugin</text></g><g id="elem_1009.1"><ellipse cx="399.9506" cy="1543.8925" fill="#ADD8E6" rx="135.4506" ry="29.4901" style="stroke:#000000;stroke-width:0.5;"/><text fill="#000000" font-family="sans-serif" font-size="14" lengthAdjust="spacing" textLength="236" x="281.9506" y="1547.6893">Select one Requirement Specification</text></g><g id="elem_1009.2"><ellipse cx="399.9493" cy="1630.6922" fill="#ADD8E6" rx="96.9493" ry="21.7899" style="stroke:#000000;stroke-width:0.5;"/><text fill="#000000" font-family="sans-serif" font-size="14" lengthAdjust="spacing" textLength="151" x="322.4009" y="1635.2063">Select one Job Opening</text></g><g id="elem_1009.3"><ellipse cx="399.8671" cy="1726.0758" fill="#ADD8E6" rx="176.3671" ry="37.6734" style="stroke:#000000;stroke-width:0.5;"/><text fill="#000000" font-family="sans-serif" font-size="14" lengthAdjust="spacing" textLength="322" x="238.8671" y="1729.8726">Associate the Job Opening with the Interview Model</text></g><g id="elem_1011.1"><ellipse cx="399.9684" cy="2063.896" fill="#ADD8E6" rx="142.9684" ry="30.9937" style="stroke:#000000;stroke-width:0.5;"/><text fill="#000000" font-family="sans-serif" font-size="14" lengthAdjust="spacing" textLength="252" x="273.9684" y="2067.6929">Select one Interview Model Specification</text></g><g id="elem_1012"><ellipse cx="399.9309" cy="1835.6885" fill="#ADD8E6" rx="171.9309" ry="36.7862" style="stroke:#000000;stroke-width:0.5;"/><text fill="#000000" font-family="sans-serif" font-size="14" lengthAdjust="spacing" textLength="265" x="262.4309" y="1831.1817">Generate and Export a Template Text File</text><text fill="#000000" font-family="sans-serif" font-size="14" lengthAdjust="spacing" textLength="193" x="300.4309" y="1849.8028">for Requirements Specification</text></g><g id="elem_2003"><ellipse cx="399.8594" cy="1172.9742" fill="#ADD8E6" rx="190.8594" ry="40.5719" style="stroke:#000000;stroke-width:0.5;"/><text fill="#000000" font-family="sans-serif" font-size="14" lengthAdjust="spacing" textLength="352" x="223.8594" y="1176.7711">Generate and Export a Template Text File for Interviews</text></g><g id="elem_B1013"><ellipse cx="400.1133" cy="2364.925" fill="#ADD8E6" rx="140.6133" ry="30.5227" style="stroke:#000000;stroke-width:0.5;"/><text fill="#000000" font-family="sans-serif" font-size="14" lengthAdjust="spacing" textLength="247" x="276.6133" y="2368.7219">Rank the candidates for a Job Opening</text></g><g id="elem_B1010.1"><ellipse cx="399.8399" cy="2465.7703" fill="#ADD8E6" rx="164.8399" ry="35.368" style="stroke:#000000;stroke-width:0.5;"/><text fill="#000000" font-family="sans-serif" font-size="14" lengthAdjust="spacing" textLength="298" x="250.8399" y="2469.5672">Setup phases of the process for a Job Opening</text></g><g id="elem_B1010.2"><ellipse cx="399.8439" cy="2577.0711" fill="#ADD8E6" rx="191.3439" ry="40.6688" style="stroke:#000000;stroke-width:0.5;"/><text fill="#000000" font-family="sans-serif" font-size="14" lengthAdjust="spacing" textLength="353" x="223.3439" y="2580.868">Open or Close phases of the process for a Job Opening</text></g><g id="elem_B1015"><ellipse cx="399.793" cy="2677.0609" fill="#ADD8E6" rx="108.793" ry="24.1586" style="stroke:#000000;stroke-width:0.5;"/><text fill="#000000" font-family="sans-serif" font-size="14" lengthAdjust="spacing" textLength="178" x="310.793" y="2680.8578">Verification of Requirements</text></g><g id="elem_B1016"><ellipse cx="399.9965" cy="2755.0017" fill="#ADD8E6" rx="80.9965" ry="18.5993" style="stroke:#000000;stroke-width:0.5;"/><text fill="#000000" font-family="sans-serif" font-size="14" lengthAdjust="spacing" textLength="111" x="341.4965" y="2759.8054">Notify Candidates</text></g><g id="elem_B1017"><ellipse cx="400.1951" cy="2844.9414" fill="#ADD8E6" rx="168.1951" ry="36.039" style="stroke:#000000;stroke-width:0.5;"/><text fill="#000000" font-family="sans-serif" font-size="14" lengthAdjust="spacing" textLength="305" x="247.6951" y="2848.7382">Upload a Text File with the Candidate responses</text></g><g id="elem_B1018"><ellipse cx="399.7766" cy="3105.0577" fill="#ADD8E6" rx="178.7766" ry="38.1553" style="stroke:#000000;stroke-width:0.5;"/><text fill="#000000" font-family="sans-serif" font-size="14" lengthAdjust="spacing" textLength="327" x="236.2766" y="3108.8545">Evaluates (grades) the Interviews for a Job Opening</text></g><g id="elem_B1019"><ellipse cx="400.2478" cy="2163.7519" fill="#ADD8E6" rx="157.2478" ry="33.8496" style="stroke:#000000;stroke-width:0.5;"/><text fill="#000000" font-family="sans-serif" font-size="14" lengthAdjust="spacing" textLength="232" x="281.2478" y="2159.2451">Ordered list of Candidates, using the</text><text fill="#000000" font-family="sans-serif" font-size="14" lengthAdjust="spacing" textLength="182" x="308.2478" y="2177.8662">Job Interview Points (grades)</text></g><g id="elem_B1020"><ellipse cx="400.1676" cy="2265.8359" fill="#ADD8E6" rx="152.6676" ry="32.9335" style="stroke:#000000;stroke-width:0.5;"/><text fill="#000000" font-family="sans-serif" font-size="14" lengthAdjust="spacing" textLength="216" x="287.1676" y="2261.329">Publish the results of the selection</text><text fill="#000000" font-family="sans-serif" font-size="14" lengthAdjust="spacing" textLength="209" x="292.6676" y="2279.9501">og Candidates for a Job Opening</text></g><g id="elem_B2004"><ellipse cx="399.9361" cy="816.7896" fill="#ADD8E6" rx="152.4361" ry="32.8872" style="stroke:#000000;stroke-width:0.5;"/><text fill="#000000" font-family="sans-serif" font-size="14" lengthAdjust="spacing" textLength="272" x="263.9361" y="820.5864">Text File with the data fields (requirements)</text></g><g id="elem_B4000"><ellipse cx="399.7919" cy="1952.8607" fill="#ADD8E6" rx="212.7919" ry="44.9584" style="stroke:#000000;stroke-width:0.5;"/><text fill="#000000" font-family="sans-serif" font-size="14" lengthAdjust="spacing" textLength="364" x="217.7919" y="1947.347">Top 20 of the most referenced words in the files uploaded</text><text fill="#000000" font-family="sans-serif" font-size="14" lengthAdjust="spacing" textLength="324" x="239.7919" y="1965.9681">by a candidate and where they are in the document</text></g><g id="elem_B3000"><ellipse cx="890.4506" cy="412.8925" fill="#ADD8E6" rx="135.4506" ry="29.4901" style="stroke:#000000;stroke-width:0.5;"/><text fill="#000000" font-family="sans-serif" font-size="14" lengthAdjust="spacing" textLength="236" x="772.4506" y="416.6893">List all my applications and their state</text></g><g id="elem_B3001"><ellipse cx="890.5842" cy="513.7192" fill="#ADD8E6" rx="167.0842" ry="35.8168" style="stroke:#000000;stroke-width:0.5;"/><text fill="#000000" font-family="sans-serif" font-size="14" lengthAdjust="spacing" textLength="253" x="759.0842" y="509.2124">Notified in my Application when the state</text><text fill="#000000" font-family="sans-serif" font-size="14" lengthAdjust="spacing" textLength="215" x="780.0842" y="527.8335">of one of my applications changes</text></g><g id="elem_2001"><ellipse cx="399.8284" cy="145.668" fill="#ADD8E6" rx="191.8284" ry="40.7657" style="stroke:#000000;stroke-width:0.5;"/><text fill="#000000" font-family="sans-serif" font-size="14" lengthAdjust="spacing" textLength="354" x="222.8284" y="149.4649">Process the files produced by the Applications Email Bot</text></g><g id="elem_B3002"><ellipse cx="890.7344" cy="259.8492" fill="#ADD8E6" rx="217.7344" ry="45.9469" style="stroke:#000000;stroke-width:0.5;"/><text fill="#000000" font-family="sans-serif" font-size="14" lengthAdjust="spacing" textLength="375" x="703.2344" y="254.3356">List all my Job Openings, including Job Reference, Position,</text><text fill="#000000" font-family="sans-serif" font-size="14" lengthAdjust="spacing" textLength="243" x="771.2344" y="272.9567">Active Since and Number of Applicants</text></g><!--entity Admin--><g id="elem_Admin"><ellipse cx="66.5" cy="666.9023" fill="#F1F1F1" rx="8" ry="8" style="stroke:#181818;stroke-width:0.5;"/><path d="M66.5,674.9023 L66.5,701.9023 M53.5,682.9023 L79.5,682.9023 M66.5,701.9023 L53.5,716.9023 M66.5,701.9023 L79.5,716.9023 " fill="none" style="stroke:#181818;stroke-width:0.5;"/><text fill="#000000" font-family="sans-serif" font-size="14" lengthAdjust="spacing" textLength="39" x="47" y="733.5098">Admin</text></g><!--entity Operator--><g id="elem_Operator"><ellipse cx="66.5" cy="1001.9023" fill="#F1F1F1" rx="8" ry="8" style="stroke:#181818;stroke-width:0.5;"/><path d="M66.5,1009.9023 L66.5,1036.9023 M53.5,1017.9023 L79.5,1017.9023 M66.5,1036.9023 L53.5,1051.9023 M66.5,1036.9023 L79.5,1051.9023 " fill="none" style="stroke:#181818;stroke-width:0.5;"/><text fill="#000000" font-family="sans-serif" font-size="14" lengthAdjust="spacing" textLength="57" x="38" y="1068.5098">Operator</text></g><!--entity CustomerManager--><g id="elem_CustomerManager"><ellipse cx="66.5" cy="2132.9023" fill="#F1F1F1" rx="8" ry="8" style="stroke:#181818;stroke-width:0.5;"/><path d="M66.5,2140.9023 L66.5,2167.9023 M53.5,2148.9023 L79.5,2148.9023 M66.5,2167.9023 L53.5,2182.9023 M66.5,2167.9023 L79.5,2182.9023 " fill="none" style="stroke:#181818;stroke-width:0.5;"/><text fill="#000000" font-family="sans-serif" font-size="14" lengthAdjust="spacing" textLength="117" x="8" y="2199.5098">CustomerManager</text></g><!--entity LanguageEngineer--><g id="elem_LanguageEngineer"><ellipse cx="66.5" cy="3200.9023" fill="#F1F1F1" rx="8" ry="8" style="stroke:#181818;stroke-width:0.5;"/><path d="M66.5,3208.9023 L66.5,3235.9023 M53.5,3216.9023 L79.5,3216.9023 M66.5,3235.9023 L53.5,3250.9023 M66.5,3235.9023 L79.5,3250.9023 " fill="none" style="stroke:#181818;stroke-width:0.5;"/><text fill="#000000" font-family="sans-serif" font-size="14" lengthAdjust="spacing" textLength="121" x="6" y="3267.5098">LanguageEngineer</text></g><!--entity Candidate--><g id="elem_Candidate"><ellipse cx="66.5" cy="431.9023" fill="#F1F1F1" rx="8" ry="8" style="stroke:#181818;stroke-width:0.5;"/><path d="M66.5,439.9023 L66.5,466.9023 M53.5,447.9023 L79.5,447.9023 M66.5,466.9023 L53.5,481.9023 M66.5,466.9023 L79.5,481.9023 " fill="none" style="stroke:#181818;stroke-width:0.5;"/><text fill="#000000" font-family="sans-serif" font-size="14" lengthAdjust="spacing" textLength="65" x="34" y="498.5098">Candidate</text></g><!--entity Customer--><g id="elem_Customer"><ellipse cx="66.5" cy="228.9023" fill="#F1F1F1" rx="8" ry="8" style="stroke:#181818;stroke-width:0.5;"/><path d="M66.5,236.9023 L66.5,263.9023 M53.5,244.9023 L79.5,244.9023 M66.5,263.9023 L53.5,278.9023 M66.5,263.9023 L79.5,278.9023 " fill="none" style="stroke:#181818;stroke-width:0.5;"/><text fill="#000000" font-family="sans-serif" font-size="14" lengthAdjust="spacing" textLength="61" x="36" y="295.5098">Customer</text></g><!--entity ProductOwner--><g id="elem_ProductOwner"><ellipse cx="66.5" cy="114.9023" fill="#F1F1F1" rx="8" ry="8" style="stroke:#181818;stroke-width:0.5;"/><path d="M66.5,122.9023 L66.5,149.9023 M53.5,130.9023 L79.5,130.9023 M66.5,149.9023 L53.5,164.9023 M66.5,149.9023 L79.5,164.9023 " fill="none" style="stroke:#181818;stroke-width:0.5;"/><text fill="#000000" font-family="sans-serif" font-size="14" lengthAdjust="spacing" textLength="90" x="21.5" y="181.5098">ProductOwner</text></g><!--link Admin to 1000.1--><g id="link_Admin_1000.1"><path d="M76.96,737.7823 C89.52,791.6123 111.87,890.6123 127,975.9023 C136.99,1032.2523 122.67,1190.2923 163,1230.9023 C207.73,1275.9423 283.48,1279.6023 337.08,1275.2823 " fill="none" id="Admin-1000.1" style="stroke:#000000;stroke-width:1.0;"/></g><!--link Admin to 1000.2--><g id="link_Admin_1000.2"><path d="M86.24,679.7523 C104.34,663.3723 133.31,640.0323 163,627.9023 C215.5,606.4523 279.4,598.2223 327.46,595.2123 " fill="none" id="Admin-1000.2" style="stroke:#000000;stroke-width:1.0;"/></g><!--link Admin to 1000.3--><g id="link_Admin_1000.3"><path d="M86.27,695.9223 C132.98,690.9923 256.19,677.9823 333.28,669.8423 " fill="none" id="Admin-1000.3" style="stroke:#000000;stroke-width:1.0;"/></g><!--link Admin to 1000.4--><g id="link_Admin_1000.4"><path d="M86.27,699.8323 C135.72,704.9023 270.91,718.7623 346.34,726.5023 " fill="none" id="Admin-1000.4" style="stroke:#000000;stroke-width:1.0;"/></g><!--link CustomerManager to 1000.1--><g id="link_CustomerManager_1000.1"><path d="M69.08,2124.3823 C75.89,1963.1723 105.08,1361.0123 163,1300.9023 C207.26,1254.9723 283.67,1251.6323 337.54,1256.2723 " fill="none" id="CustomerManager-1000.1" style="stroke:#000000;stroke-width:1.0;"/></g><!--link Operator to 1000.1--><g id="link_Operator_1000.1"><path d="M75.09,1072.7223 C86.07,1118.6323 111.05,1192.6823 163,1230.9023 C210.88,1266.1223 279.23,1272.8623 330.07,1271.9723 " fill="none" id="Operator-1000.1" style="stroke:#000000;stroke-width:1.0;"/></g><!--link CustomerManager to 1001--><g id="link_CustomerManager_1001"><path d="M69.91,2203.6023 C79.1,2349.2823 113.98,2848.5823 163,2898.9023 C204.09,2941.0923 272.21,2947.8623 324.73,2945.5223 " fill="none" id="CustomerManager-1001" style="stroke:#000000;stroke-width:1.0;"/></g><!--link CustomerManager to 1002--><g id="link_CustomerManager_1002"><path d="M69.41,2203.5423 C77.26,2358.3723 109.11,2916.6923 163,2972.9023 C202.49,3014.0923 267.64,3022.0023 319.5,3020.4923 " fill="none" id="CustomerManager-1002" style="stroke:#000000;stroke-width:1.0;"/></g><!--link Operator to 2000a--><g id="link_Operator_2000a"><path d="M95.13,997.5923 C112.46,977.9823 136.51,954.9723 163,941.9023 C210.05,918.6823 268.22,909.3823 315.04,905.9023 " fill="none" id="Operator-2000a" style="stroke:#000000;stroke-width:1.0;"/></g><!--link Operator to 2002.1--><g id="link_Operator_2002.1"><path d="M95.19,1029.3123 C135.81,1024.0423 213.96,1013.9023 280.83,1005.2323 " fill="none" id="Operator-2002.1" style="stroke:#000000;stroke-width:1.0;"/></g><!--link Operator to 2002.2--><g id="link_Operator_2002.2"><path d="M95.19,1036.4923 C143.74,1042.7923 245.94,1056.0523 318.37,1065.4423 " fill="none" id="Operator-2002.2" style="stroke:#000000;stroke-width:1.0;"/></g><!--link CustomerManager to 1005--><g id="link_CustomerManager_1005"><path d="M69.74,2124.2523 C78.54,1974.4723 112.8,1448.9123 163,1394.9023 C189.1,1366.8323 226.8,1352.8423 264.44,1346.4423 " fill="none" id="CustomerManager-1005" style="stroke:#000000;stroke-width:1.0;"/></g><!--link CustomerManager to 1006--><g id="link_CustomerManager_1006"><path d="M67.47,2124.2323 C68.22,1994.9323 77.47,1588.6923 163,1496.9023 C185.15,1473.1323 215.51,1459.0823 247.09,1451.0423 " fill="none" id="CustomerManager-1006" style="stroke:#000000;stroke-width:1.0;"/></g><!--link LanguageEngineer to 1008.1--><g id="link_LanguageEngineer_1008.1"><path d="M127.15,3225.4223 C184.38,3219.2123 270.71,3209.8323 330.68,3203.3223 " fill="none" id="LanguageEngineer-1008.1" style="stroke:#000000;stroke-width:1.0;"/></g><!--link LanguageEngineer to 1008.2--><g id="link_LanguageEngineer_1008.2"><path d="M127.15,3238.3823 C182.42,3244.3823 264.84,3253.3323 324.44,3259.8023 " fill="none" id="LanguageEngineer-1008.2" style="stroke:#000000;stroke-width:1.0;"/></g><!--link CustomerManager to 1009.1--><g id="link_CustomerManager_1009.1"><path d="M68.7,2124.3823 C72.84,2009.6523 90.54,1682.6823 163,1607.9023 C192.8,1577.1523 236.57,1563.4923 278.35,1557.0723 " fill="none" id="CustomerManager-1009.1" style="stroke:#000000;stroke-width:1.0;"/></g><!--link CustomerManager to 1009.1--><g id="link_CustomerManager_1009.1"><path d="M68.24,2124.0123 C71.4,2003.6323 87.38,1650.9423 163,1572.9023 C199.2,1535.5523 256,1523.4123 304.81,1522.8723 " fill="none" id="CustomerManager-1009.1-1" style="stroke:#000000;stroke-width:1.0;"/></g><!--link CustomerManager to 1009.2--><g id="link_CustomerManager_1009.2"><path d="M69.52,2124.3323 C75.74,2018.7423 98.3,1734.1023 163,1670.9023 C200.98,1633.8023 259.82,1623.7723 309.25,1623.0323 " fill="none" id="CustomerManager-1009.2" style="stroke:#000000;stroke-width:1.0;"/></g><!--link CustomerManager to 1009.3--><g id="link_CustomerManager_1009.3"><path d="M73.4,2124.2123 C85.45,2038.9323 115.82,1844.3623 163,1797.9023 C189.08,1772.2223 224.69,1757.6423 260.34,1748.9223 " fill="none" id="CustomerManager-1009.3" style="stroke:#000000;stroke-width:1.0;"/></g><!--link CustomerManager to 1009.3--><g id="link_CustomerManager_1009.3"><path d="M71.1,2124.1623 C81.21,2032.3723 112.46,1812.6723 163,1762.9023 C179.94,1746.2223 200.89,1734.2323 223.27,1725.8523 " fill="none" id="CustomerManager-1009.3-1" style="stroke:#000000;stroke-width:1.0;"/></g><!--link CustomerManager to 1012--><g id="link_CustomerManager_1012"><path d="M69.66,2124.2823 C75.13,2064.3623 94.5,1951.2223 163,1889.9023 C184.53,1870.6323 211.52,1857.8123 239.48,1849.3723 " fill="none" id="CustomerManager-1012" style="stroke:#000000;stroke-width:1.0;"/></g><!--link Operator to 2003--><g id="link_Operator_2003"><path d="M95.04,1062.2823 C112.88,1079.6723 137.47,1100.8023 163,1113.9023 C190.52,1128.0323 221.62,1138.9023 251.98,1147.2223 " fill="none" id="Operator-2003" style="stroke:#000000;stroke-width:1.0;"/></g><!--link CustomerManager to B1013--><g id="link_CustomerManager_B1013"><path d="M81.99,2203.6823 C96.86,2238.7523 123.46,2288.4223 163,2315.9023 C192.9,2336.6723 229.73,2348.9923 265.33,2356.1923 " fill="none" id="CustomerManager-B1013" style="stroke:#000000;stroke-width:1.0;"/></g><!--link CustomerManager to B1010.1--><g id="link_CustomerManager_B1010.1"><path d="M71.27,2203.6923 C78.71,2259.1223 100.47,2358.8623 163,2412.9023 C186.03,2432.8123 214.95,2445.6923 244.57,2453.9323 " fill="none" id="CustomerManager-B1010.1" style="stroke:#000000;stroke-width:1.0;"/></g><!--link CustomerManager to B1010.2--><g id="link_CustomerManager_B1010.2"><path d="M73.03,2203.5123 C85.41,2286.5123 117.84,2474.7123 163,2518.9023 C181.4,2536.9023 204.42,2549.6123 228.83,2558.5423 " fill="none" id="CustomerManager-B1010.2" style="stroke:#000000;stroke-width:1.0;"/></g><!--link CustomerManager to B1015--><g id="link_CustomerManager_B1015"><path d="M69.94,2203.5423 C77.08,2305.8123 101.44,2574.7923 163,2634.9023 C197.32,2668.4123 248.57,2680.2623 294.55,2683.1623 " fill="none" id="CustomerManager-B1015" style="stroke:#000000;stroke-width:1.0;"/></g><!--link CustomerManager to B1016--><g id="link_CustomerManager_B1016"><path d="M68.52,2203.4323 C72.32,2318.0423 89.55,2646.8323 163,2718.9023 C206.19,2761.2823 276.88,2767.0323 329.65,2764.1523 " fill="none" id="CustomerManager-B1016" style="stroke:#000000;stroke-width:1.0;"/></g><!--link CustomerManager to B1017--><g id="link_CustomerManager_B1017"><path d="M67.92,2203.7523 C70.08,2327.9823 83.2,2704.9823 163,2790.9023 C183.09,2812.5323 209.93,2826.3623 238.3,2835.0423 " fill="none" id="CustomerManager-B1017" style="stroke:#000000;stroke-width:1.0;"/></g><!--link CustomerManager to B1018--><g id="link_CustomerManager_B1018"><path d="M69.12,2203.4623 C76.15,2366.9823 106.31,2984.6123 163,3048.9023 C181.1,3069.4323 205.23,3083.1423 231.15,3092.1823 " fill="none" id="CustomerManager-B1018" style="stroke:#000000;stroke-width:1.0;"/></g><!--link CustomerManager to B1019--><g id="link_CustomerManager_B1019"><path d="M125.24,2163.9023 C158.08,2163.9023 200.93,2163.9023 242.94,2163.9023 " fill="none" id="CustomerManager-B1019" style="stroke:#000000;stroke-width:1.0;"/></g><!--link CustomerManager to B1020--><g id="link_CustomerManager_B1020"><path d="M125.15,2197.9723 C137.36,2204.2523 150.38,2210.2723 163,2214.9023 C199.2,2228.1823 239.87,2238.5123 277.11,2246.2823 " fill="none" id="CustomerManager-B1020" style="stroke:#000000;stroke-width:1.0;"/></g><!--link Operator to B2004--><g id="link_Operator_B2004"><path d="M79.92,993.1323 C93.92,955.0323 120.46,898.8823 163,867.9023 C190.11,848.1623 223.32,835.7723 256.17,828.0823 " fill="none" id="Operator-B2004" style="stroke:#000000;stroke-width:1.0;"/></g><!--link CustomerManager to B4000--><g id="link_CustomerManager_B4000"><path d="M82.98,2124.3823 C98.3,2090.3723 124.98,2042.5523 163,2014.9023 C183.3,2000.1423 206.84,1988.8823 231.04,1980.3123 " fill="none" id="CustomerManager-B4000" style="stroke:#000000;stroke-width:1.0;"/></g><!--link Candidate to B3000--><g id="link_Candidate_B3000"><path d="M99.22,460.9723 C207.21,454.4023 564.64,432.6623 759.71,420.7923 " fill="none" id="Candidate-B3000" style="stroke:#000000;stroke-width:1.0;"/></g><!--link Candidate to B3001--><g id="link_Candidate_B3001"><path d="M99.22,464.8723 C201.9,471.2423 530.09,491.6023 729.8,503.9923 " fill="none" id="Candidate-B3001" style="stroke:#000000;stroke-width:1.0;"/></g><!--link ProductOwner to 2001--><g id="link_ProductOwner_2001"><path d="M111.52,145.9023 C137.23,145.9023 171.66,145.9023 207.74,145.9023 " fill="none" id="ProductOwner-2001" style="stroke:#000000;stroke-width:1.0;"/></g><!--link Customer to B3002--><g id="link_Customer_B3002"><path d="M97.24,259.9023 C188.63,259.9023 471.33,259.9023 672.93,259.9023 " fill="none" id="Customer-B3002" style="stroke:#000000;stroke-width:1.0;"/></g><!--SRC=[dLVBSjme5DttLr1PpAFATbcIdqjtnvdoL69tkUrPUOCbr4sP1WqWTvpK_FjSa428bkGaMJWjkDnpxeC3QAePGO-Ae0M6FnyfNakydSqOAJNI0acwtcXKK4boJGMVpN2kXKHNnPRozlTTHII67-tdebPQR8dyWZbU4pVw6VDr3T_NV4qvySCBp0jQO4sYnUtdKegYplNTZiFGJBrGNc6WXsf5SaFt-mp1lpdENzPIrBnO26Qm3ESvgucTlP9Ix9g9EGFBPecG1P7nw2V1zT3OYduZA3cP_HToq3Ppt_j6sR4nCic2U67QKBihIveRIslw-sfvVtFxWERDr-CA9SV7n_R3HVNXdgofqaIQkaZr0M5bZOwIljb7gl1pKxtGAkrRNVFE27LMMT_gCm36ZauQnhRMwF0mvD0VImV6ie6n4piMDKZasNLJC1ncAXd9b7FgwRVBXi7wFjCHdt-BPqE7KxvsNjCfhsddDGNcU8ogwtdhjB7S2pqORlsDiSGSNLKLepas6nI94k5zY3JkdPjj9QH6c35KKaOKWfubz9KKtOfqY5GwKARMEapfwK1t6IpSCLMeXELuACkdKra-xG6TxMs9Yk4tYwKt105B9JXc29A1XtBZNGo3dLcm5kiYmY8L4m25bgm6KNFkBk9KBmGlwRgMPC2qpLgiZYswSpKwtK_wPHztHHZe41ASe7loRmqIlYLSerL5SbgsHN1CBeyczukV7d8-KC3BetJQNHgvkr9Av1IAOgiMU4GxgZTsy0TYoAP1iw2OIPFPaP1kEEoiLqfsw8ie21l4InANbFVJzfEXHl1x0RuRemioqeo_23Ux5XgH5-ZwQwC0w85iOS_0w0Fvgj4dK0FqnCtU33AkXbCmLMKp6UfNzejS31EV4ENaAPiDQgOPxXspYp0T4OLxp5zildCd2MEQDFUB1q9j9aESutYlwBf2rGO-bD4WAqnIv4HDuUqTzyO0cJiI4_3vy-x6YnN2ZKxtj2Q91FuV8drp64vXwtWAfvC4UhgUHBf-ApGjtphjxfoUJJezwpazxpjz1Ft6XUqwrsn-2teaE1XL1QTL07a-2NdUWupEZEjNp6hRQ7_0FRiWwi_-Xf-guCKax4KFDZeAxinjbnI8cNCOojFbyG2CZFO0YoTkOJlnMGfgThvZwebSJXAv38caqLPOri_0eKan9BPcshUmil9h-kU9YtL0SJmbu7s2YPjjzUUapsIWvlQEK5B22WXQ1XtSXcwTxAbEC6oGJlPkym-Y0dmNvbP02IGfeHuyXvBiu2MY45oIpMHp5QjjNv822l9ixXTUdgnMxZQmr5Z35FneLnOYhmtNXgabCPgQPXRUAS53nQSRxfBnKwNJq6mlE7-psxxrBtU6AX2Z4YdjBblppFEot7nSXuPMDzb29GCQG25b43AWXPTUo4cJ1ejb6gYqvpZy5_FADn2msyoPVmeCyqdYD0MWoZJFNEYzXntwBSXOkXV6ifNghjwLVUL2O51jCng2eEijfWpUgzgTV8sxy6NSddqDsQ2aRUdVgsWwNj5Wpu5IK9wpkZ1gOSRlNGyVW50eQjWUGCTUmHv-9MW5nas_tjRRP-08fMZZyaT2vfzCOQVwvASGply0]--></g></svg>