<?xml version="1.0" encoding="us-ascii" standalone="no"?><svg xmlns="http://www.w3.org/2000/svg" xmlns:xlink="http://www.w3.org/1999/xlink" contentStyleType="text/css" height="4110px" preserveAspectRatio="none" style="width:968px;height:4110px;background:#FFFFFF;" version="1.1" viewBox="0 0 968 4110" width="968px" zoomAndPan="magnify"><defs/><g><text fill="#000000" font-family="sans-serif" font-size="30" font-weight="bold" lengthAdjust="spacing" textLength="284" x="335" y="39.0039">Use Case Diagram</text><!--cluster BackOffice--><g id="cluster_BackOffice"><rect fill="none" height="3099" rx="2.5" ry="2.5" style="stroke:#181818;stroke-width:1.0;" width="520" x="340.5" y="1005.332"/><text fill="#000000" font-family="sans-serif" font-size="14" font-weight="bold" lengthAdjust="spacing" textLength="77" x="562" y="1020.8672">BackOffice</text></g><!--cluster CandidateApp--><g id="cluster_CandidateApp"><rect fill="none" height="262" rx="2.5" ry="2.5" style="stroke:#181818;stroke-width:1.0;" width="575" x="313" y="719.332"/><text fill="#000000" font-family="sans-serif" font-size="14" font-weight="bold" lengthAdjust="spacing" textLength="100" x="550.5" y="734.8672">CandidateApp</text></g><!--cluster ApplicationsFileBot--><g id="cluster_ApplicationsFileBot"><rect fill="none" height="261" rx="2.5" ry="2.5" style="stroke:#181818;stroke-width:1.0;" width="441" x="380" y="63.332"/><text fill="#000000" font-family="sans-serif" font-size="14" font-weight="bold" lengthAdjust="spacing" textLength="140" x="530.5" y="78.8672">ApplicationsFileBot</text></g><!--cluster CustomerApp--><g id="cluster_CustomerApp"><rect fill="none" height="347" rx="2.5" ry="2.5" style="stroke:#181818;stroke-width:1.0;" width="723" x="239" y="348.332"/><text fill="#000000" font-family="sans-serif" font-size="14" font-weight="bold" lengthAdjust="spacing" textLength="98" x="551.5" y="363.8672">CustomerApp</text></g><g id="elem_BO1"><ellipse cx="600.7483" cy="1057.5817" fill="#ADD8E6" rx="71.7483" ry="16.7497" style="stroke:#000000;stroke-width:0.5;"/><text fill="#000000" font-family="sans-serif" font-size="14" lengthAdjust="spacing" textLength="98" x="550.8633" y="1061.1089">Register Users</text></g><g id="elem_BO2"><ellipse cx="600.44" cy="1130.42" fill="#ADD8E6" rx="93.44" ry="21.088" style="stroke:#000000;stroke-width:0.5;"/><text fill="#000000" font-family="sans-serif" font-size="14" lengthAdjust="spacing" textLength="145" x="525.94" y="1133.711">Disable/Enable Users</text></g><g id="elem_BO3"><ellipse cx="600.4115" cy="1201.0904" fill="#ADD8E6" rx="57.9115" ry="14.7584" style="stroke:#000000;stroke-width:0.5;"/><text fill="#000000" font-family="sans-serif" font-size="14" lengthAdjust="spacing" textLength="65" x="564.9115" y="1205.108">List Users</text></g><g id="elem_BO4"><ellipse cx="600.334" cy="1922.0988" fill="#ADD8E6" rx="86.834" ry="19.7668" style="stroke:#000000;stroke-width:0.5;"/><text fill="#000000" font-family="sans-serif" font-size="14" lengthAdjust="spacing" textLength="134" x="533.334" y="1925.3899">Register Customers</text></g><g id="elem_BO5"><ellipse cx="600.6645" cy="1998.5649" fill="#ADD8E6" rx="91.6645" ry="20.7329" style="stroke:#000000;stroke-width:0.5;"/><text fill="#000000" font-family="sans-serif" font-size="14" lengthAdjust="spacing" textLength="145" x="528.1645" y="2001.856">Register Job Opening</text></g><g id="elem_BO6"><ellipse cx="600.3912" cy="2072.3103" fill="#ADD8E6" rx="80.3912" ry="18.4782" style="stroke:#000000;stroke-width:0.5;"/><text fill="#000000" font-family="sans-serif" font-size="14" lengthAdjust="spacing" textLength="119" x="540.8912" y="2075.6013">List Job Openings</text></g><g id="elem_BO7"><ellipse cx="600.666" cy="1282.1652" fill="#ADD8E6" rx="139.666" ry="30.3332" style="stroke:#000000;stroke-width:0.5;"/><text fill="#000000" font-family="sans-serif" font-size="14" lengthAdjust="spacing" textLength="206" x="497.666" y="1277.2121">Register Candidate and create</text><text fill="#000000" font-family="sans-serif" font-size="14" lengthAdjust="spacing" textLength="162" x="521.666" y="1293.7004">the corresponding User</text></g><g id="elem_BO8"><ellipse cx="600.5182" cy="1367.2357" fill="#ADD8E6" rx="82.5182" ry="18.9036" style="stroke:#000000;stroke-width:0.5;"/><text fill="#000000" font-family="sans-serif" font-size="14" lengthAdjust="spacing" textLength="124" x="538.5182" y="1370.5267">List all Candidates</text></g><g id="elem_BO10"><ellipse cx="600.5458" cy="1453.5412" fill="#ADD8E6" rx="146.5458" ry="31.7092" style="stroke:#000000;stroke-width:0.5;"/><text fill="#000000" font-family="sans-serif" font-size="14" lengthAdjust="spacing" textLength="263" x="469.0458" y="1456.8322">Register an Application of a Candidate</text></g><g id="elem_BO11"><ellipse cx="600.719" cy="2157.2758" fill="#ADD8E6" rx="142.719" ry="30.9438" style="stroke:#000000;stroke-width:0.5;"/><text fill="#000000" font-family="sans-serif" font-size="14" lengthAdjust="spacing" textLength="255" x="473.219" y="2160.5668">List all applications for a Job Opening</text></g><g id="elem_BO12"><ellipse cx="600.4043" cy="2258.3129" fill="#ADD8E6" rx="162.9043" ry="34.9809" style="stroke:#000000;stroke-width:0.5;"/><text fill="#000000" font-family="sans-serif" font-size="14" lengthAdjust="spacing" textLength="297" x="451.9043" y="2261.6039">Display all the personal data of a Candidate</text></g><g id="elem_BO13"><ellipse cx="600.3865" cy="2367.2093" fill="#ADD8E6" rx="179.8865" ry="38.3773" style="stroke:#000000;stroke-width:0.5;"/><text fill="#000000" font-family="sans-serif" font-size="14" lengthAdjust="spacing" textLength="301" x="449.8865" y="2362.2562">Display all the personal data of a Candidate,</text><text fill="#000000" font-family="sans-serif" font-size="14" lengthAdjust="spacing" textLength="207" x="498.8865" y="2378.7445">including his/her Applications</text></g><g id="elem_BO14"><ellipse cx="600.7235" cy="2480.2767" fill="#ADD8E6" rx="185.2235" ry="39.4447" style="stroke:#000000;stroke-width:0.5;"/><text fill="#000000" font-family="sans-serif" font-size="14" lengthAdjust="spacing" textLength="343" x="429.2235" y="2483.5677">Setup the phases of the process for a Job Opening</text></g><g id="elem_BO15"><ellipse cx="600.5339" cy="1840.1388" fill="#ADD8E6" rx="119.5339" ry="26.3068" style="stroke:#000000;stroke-width:0.5;"/><text fill="#000000" font-family="sans-serif" font-size="14" lengthAdjust="spacing" textLength="206" x="497.5339" y="1843.4298">Deploy and configure a Plugin</text></g><g id="elem_BO16"><ellipse cx="600.6968" cy="2586.3714" fill="#ADD8E6" rx="143.1968" ry="31.0394" style="stroke:#000000;stroke-width:0.5;"/><text fill="#000000" font-family="sans-serif" font-size="14" lengthAdjust="spacing" textLength="256" x="472.6968" y="2589.6624">Select the Requirements Specification</text></g><g id="elem_BO17"><ellipse cx="600.4926" cy="2680.3305" fill="#ADD8E6" rx="127.9926" ry="27.9985" style="stroke:#000000;stroke-width:0.5;"/><text fill="#000000" font-family="sans-serif" font-size="14" lengthAdjust="spacing" textLength="224" x="488.4926" y="2683.6216">Select the Interview Model to use</text></g><g id="elem_BO18"><ellipse cx="600.6149" cy="2777.155" fill="#ADD8E6" rx="157.1149" ry="33.823" style="stroke:#000000;stroke-width:0.5;"/><text fill="#000000" font-family="sans-serif" font-size="14" lengthAdjust="spacing" textLength="285" x="458.1149" y="2780.446">Generate and Export a Template Text File</text></g><g id="elem_BO19"><ellipse cx="600.6149" cy="1554.155" fill="#ADD8E6" rx="157.1149" ry="33.823" style="stroke:#000000;stroke-width:0.5;"/><text fill="#000000" font-family="sans-serif" font-size="14" lengthAdjust="spacing" textLength="285" x="458.1149" y="1557.446">Generate and Export a Template Text File</text></g><g id="elem_BO20"><ellipse cx="600.5458" cy="2878.5412" fill="#ADD8E6" rx="146.5458" ry="31.7092" style="stroke:#000000;stroke-width:0.5;"/><text fill="#000000" font-family="sans-serif" font-size="14" lengthAdjust="spacing" textLength="263" x="469.0458" y="2881.8322">Rank the candidates for a Job Opening</text></g><g id="elem_BO21"><ellipse cx="600.3047" cy="2964.493" fill="#ADD8E6" rx="83.8047" ry="19.1609" style="stroke:#000000;stroke-width:0.5;"/><text fill="#000000" font-family="sans-serif" font-size="14" lengthAdjust="spacing" textLength="127" x="536.8047" y="2967.784">Edit a Job Opening</text></g><g id="elem_BO22"><ellipse cx="600.625" cy="1648.557" fill="#ADD8E6" rx="111.625" ry="24.725" style="stroke:#000000;stroke-width:0.5;"/><text fill="#000000" font-family="sans-serif" font-size="14" lengthAdjust="spacing" textLength="189" x="506.125" y="1651.8481">Enable/Disable a Candidate</text></g><g id="elem_BO23"><ellipse cx="600.3309" cy="3061.4982" fill="#ADD8E6" rx="201.3309" ry="42.6662" style="stroke:#000000;stroke-width:0.5;"/><text fill="#000000" font-family="sans-serif" font-size="14" lengthAdjust="spacing" textLength="376" x="412.3309" y="3064.7892">Open or Close phases of the process for a Job Opening</text></g><g id="elem_BO24"><ellipse cx="600.6515" cy="3172.4623" fill="#ADD8E6" rx="156.1515" ry="33.6303" style="stroke:#000000;stroke-width:0.5;"/><text fill="#000000" font-family="sans-serif" font-size="14" lengthAdjust="spacing" textLength="283" x="459.1515" y="3175.7534">Record the time and date for an interview</text></g><g id="elem_BO25"><ellipse cx="600.4064" cy="3266.1133" fill="#ADD8E6" rx="114.4064" ry="25.2813" style="stroke:#000000;stroke-width:0.5;"/><text fill="#000000" font-family="sans-serif" font-size="14" lengthAdjust="spacing" textLength="195" x="502.9064" y="3269.4043">Verification of Requirements</text></g><g id="elem_BO26"><ellipse cx="600.7394" cy="3345.4799" fill="#ADD8E6" rx="81.2394" ry="18.6479" style="stroke:#000000;stroke-width:0.5;"/><text fill="#000000" font-family="sans-serif" font-size="14" lengthAdjust="spacing" textLength="121" x="540.2394" y="3348.7709">Notify Candidates</text></g><g id="elem_BO27"><ellipse cx="600.3842" cy="3437.1089" fill="#ADD8E6" rx="179.3842" ry="38.2768" style="stroke:#000000;stroke-width:0.5;"/><text fill="#000000" font-family="sans-serif" font-size="14" lengthAdjust="spacing" textLength="331" x="434.8842" y="3440.3999">Upload a Text File with the Candidate responses</text></g><g id="elem_BO28"><ellipse cx="600.647" cy="3551.3614" fill="#ADD8E6" rx="188.147" ry="40.0294" style="stroke:#000000;stroke-width:0.5;"/><text fill="#000000" font-family="sans-serif" font-size="14" lengthAdjust="spacing" textLength="349" x="426.147" y="3554.6524">Evaluates (grades) the Interviews for a Job Opening</text></g><g id="elem_BO29"><ellipse cx="600.6412" cy="3676.3603" fill="#ADD8E6" rx="238.1412" ry="50.0282" style="stroke:#000000;stroke-width:0.5;"/><text fill="#000000" font-family="sans-serif" font-size="14" lengthAdjust="spacing" textLength="451" x="375.1412" y="3679.6513">Ordered list of Candidates, using the Job Interview Points (grades)</text></g><g id="elem_BO30"><ellipse cx="600.5506" cy="3812.5422" fill="#ADD8E6" rx="244.0506" ry="51.2101" style="stroke:#000000;stroke-width:0.5;"/><text fill="#000000" font-family="sans-serif" font-size="14" lengthAdjust="spacing" textLength="463" x="369.0506" y="3815.8332">Publish the results of the selection og Candidates for a Job Opening</text></g><g id="elem_BO31"><ellipse cx="600.5466" cy="3928.4414" fill="#ADD8E6" rx="136.0466" ry="29.6093" style="stroke:#000000;stroke-width:0.5;"/><text fill="#000000" font-family="sans-serif" font-size="14" lengthAdjust="spacing" textLength="241" x="480.0466" y="3931.7324">Display all the data of a Application</text></g><g id="elem_BO33"><ellipse cx="600.3707" cy="1743.5062" fill="#ADD8E6" rx="163.8707" ry="35.1741" style="stroke:#000000;stroke-width:0.5;"/><text fill="#000000" font-family="sans-serif" font-size="14" lengthAdjust="spacing" textLength="299" x="450.8707" y="1746.7972">Text File with the data fields (requirements)</text></g><g id="elem_BO34"><ellipse cx="600.42" cy="4040.116" fill="#ADD8E6" rx="224.42" ry="47.284" style="stroke:#000000;stroke-width:0.5;"/><text fill="#000000" font-family="sans-serif" font-size="14" lengthAdjust="spacing" textLength="399" x="400.92" y="4035.1629">Top 20 of the most referenced words in the files uploaded</text><text fill="#000000" font-family="sans-serif" font-size="14" lengthAdjust="spacing" textLength="350" x="427.42" y="4051.6512">by a candidate and where they are in the document</text></g><g id="elem_BO35"><ellipse cx="600.6748" cy="785.467" fill="#ADD8E6" rx="143.6748" ry="31.135" style="stroke:#000000;stroke-width:0.5;"/><text fill="#000000" font-family="sans-serif" font-size="14" lengthAdjust="spacing" textLength="257" x="472.1748" y="788.758">List all my applications and their state</text></g><g id="elem_BO36"><ellipse cx="600.6808" cy="908.5682" fill="#ADD8E6" rx="271.6808" ry="56.7362" style="stroke:#000000;stroke-width:0.5;"/><text fill="#000000" font-family="sans-serif" font-size="14" lengthAdjust="spacing" textLength="519" x="341.1808" y="911.8592">Notified in my Application when the state of one of my applications changes</text></g><g id="elem_BO9"><ellipse cx="600.2664" cy="142.0853" fill="#ADD8E6" rx="204.2664" ry="43.2533" style="stroke:#000000;stroke-width:0.5;"/><text fill="#000000" font-family="sans-serif" font-size="14" lengthAdjust="spacing" textLength="382" x="409.2664" y="145.3763">Process the files produced by the Applications Email Bot</text></g><g id="elem_BO32"><ellipse cx="600.2664" cy="264.0853" fill="#ADD8E6" rx="204.2664" ry="43.2533" style="stroke:#000000;stroke-width:0.5;"/><text fill="#000000" font-family="sans-serif" font-size="14" lengthAdjust="spacing" textLength="382" x="409.2664" y="267.3763">Process the files produced by the Applications Email Bot</text></g><g id="elem_BO37"><ellipse cx="600.4896" cy="455.33" fill="#ADD8E6" rx="345.4896" ry="71.4979" style="stroke:#000000;stroke-width:0.5;"/><text fill="#000000" font-family="sans-serif" font-size="14" lengthAdjust="spacing" textLength="668" x="266.4896" y="458.621">List all my Job Openings, including Job Reference, Position, Active Since and Number of Applicants</text></g><g id="elem_BO38"><ellipse cx="600.5889" cy="620.1498" fill="#ADD8E6" rx="279.5889" ry="58.3178" style="stroke:#000000;stroke-width:0.5;"/><text fill="#000000" font-family="sans-serif" font-size="14" lengthAdjust="spacing" textLength="535" x="333.0889" y="623.4408">Notified in my Application when the state (phase) of my Job Openings changes</text></g><!--entity Admin--><g id="elem_Admin"><ellipse cx="70" cy="1100.832" fill="#F1F1F1" rx="8" ry="8" style="stroke:#181818;stroke-width:0.5;"/><path d="M70,1108.832 L70,1135.832 M57,1116.832 L83,1116.832 M70,1135.832 L57,1150.832 M70,1135.832 L83,1150.832 " fill="none" style="stroke:#181818;stroke-width:0.5;"/><text fill="#000000" font-family="sans-serif" font-size="14" lengthAdjust="spacing" textLength="45" x="47.5" y="1165.8672">Admin</text></g><!--entity Operator--><g id="elem_Operator"><ellipse cx="70" cy="1474.832" fill="#F1F1F1" rx="8" ry="8" style="stroke:#181818;stroke-width:0.5;"/><path d="M70,1482.832 L70,1509.832 M57,1490.832 L83,1490.832 M70,1509.832 L57,1524.832 M70,1509.832 L83,1524.832 " fill="none" style="stroke:#181818;stroke-width:0.5;"/><text fill="#000000" font-family="sans-serif" font-size="14" lengthAdjust="spacing" textLength="62" x="39" y="1539.8672">Operator</text></g><!--entity LanguageEngineer--><g id="elem_LanguageEngineer"><ellipse cx="70" cy="1810.832" fill="#F1F1F1" rx="8" ry="8" style="stroke:#181818;stroke-width:0.5;"/><path d="M70,1818.832 L70,1845.832 M57,1826.832 L83,1826.832 M70,1845.832 L57,1860.832 M70,1845.832 L83,1860.832 " fill="none" style="stroke:#181818;stroke-width:0.5;"/><text fill="#000000" font-family="sans-serif" font-size="14" lengthAdjust="spacing" textLength="128" x="6" y="1875.8672">LanguageEngineer</text></g><!--entity CustomerManager--><g id="elem_CustomerManager"><ellipse cx="70" cy="2898.832" fill="#F1F1F1" rx="8" ry="8" style="stroke:#181818;stroke-width:0.5;"/><path d="M70,2906.832 L70,2933.832 M57,2914.832 L83,2914.832 M70,2933.832 L57,2948.832 M70,2933.832 L83,2948.832 " fill="none" style="stroke:#181818;stroke-width:0.5;"/><text fill="#000000" font-family="sans-serif" font-size="14" lengthAdjust="spacing" textLength="127" x="6.5" y="2963.8672">CustomerManager</text></g><!--entity Candidate--><g id="elem_Candidate"><ellipse cx="70" cy="817.832" fill="#F1F1F1" rx="8" ry="8" style="stroke:#181818;stroke-width:0.5;"/><path d="M70,825.832 L70,852.832 M57,833.832 L83,833.832 M70,852.832 L57,867.832 M70,852.832 L83,867.832 " fill="none" style="stroke:#181818;stroke-width:0.5;"/><text fill="#000000" font-family="sans-serif" font-size="14" lengthAdjust="spacing" textLength="70" x="35" y="882.8672">Candidate</text></g><!--entity Customer--><g id="elem_Customer"><ellipse cx="70" cy="508.832" fill="#F1F1F1" rx="8" ry="8" style="stroke:#181818;stroke-width:0.5;"/><path d="M70,516.832 L70,543.832 M57,524.832 L83,524.832 M70,543.832 L57,558.832 M70,543.832 L83,558.832 " fill="none" style="stroke:#181818;stroke-width:0.5;"/><text fill="#000000" font-family="sans-serif" font-size="14" lengthAdjust="spacing" textLength="67" x="36.5" y="573.8672">Customer</text></g><!--entity ApplicationFileBot--><g id="elem_ApplicationFileBot"><ellipse cx="70" cy="173.832" fill="#F1F1F1" rx="8" ry="8" style="stroke:#181818;stroke-width:0.5;"/><path d="M70,181.832 L70,208.832 M57,189.832 L83,189.832 M70,208.832 L57,223.832 M70,208.832 L83,223.832 " fill="none" style="stroke:#181818;stroke-width:0.5;"/><text fill="#000000" font-family="sans-serif" font-size="14" lengthAdjust="spacing" textLength="124" x="8" y="238.8672">ApplicationFileBot</text></g><!--link Admin to BO1--><g id="link_Admin_BO1"><path d="M92.79,1123.942 C123.38,1115.212 180.94,1099.692 231,1091.332 C334.45,1074.052 455.81,1064.982 530.17,1060.682 " fill="none" id="Admin-BO1" style="stroke:#000000;stroke-width:1.0;"/></g><!--link Admin to BO2--><g id="link_Admin_BO2"><path d="M92.7,1130.332 C161.9,1130.332 380.16,1130.332 506.55,1130.332 " fill="none" id="Admin-BO2" style="stroke:#000000;stroke-width:1.0;"/></g><!--link Admin to BO3--><g id="link_Admin_BO3"><path d="M92.8,1136.562 C123.4,1145.072 180.98,1160.192 231,1168.332 C340.68,1186.172 470.41,1194.972 543,1198.802 " fill="none" id="Admin-BO3" style="stroke:#000000;stroke-width:1.0;"/></g><!--link CustomerManager to BO4--><g id="link_CustomerManager_BO4"><path d="M70.73,2889.922 C70.48,2724.312 79.3,2074.602 231,1960.332 C317.95,1894.842 451,1899.332 531.19,1909.902 " fill="none" id="CustomerManager-BO4" style="stroke:#000000;stroke-width:1.0;"/></g><!--link CustomerManager to BO5--><g id="link_CustomerManager_BO5"><path d="M71.36,2890.092 C73.74,2733.102 91.94,2141.492 231,2036.332 C316.8,1971.452 447.77,1975.132 528.28,1985.472 " fill="none" id="CustomerManager-BO5" style="stroke:#000000;stroke-width:1.0;"/></g><!--link CustomerManager to BO6--><g id="link_CustomerManager_BO6"><path d="M72.3,2890.032 C78.18,2741.972 107.75,2210.212 231,2109.332 C318.57,2037.662 459.91,2047.052 539.69,2059.912 " fill="none" id="CustomerManager-BO6" style="stroke:#000000;stroke-width:1.0;"/></g><!--link CustomerManager to BO11--><g id="link_CustomerManager_BO11"><path d="M73.63,2889.972 C83.8,2753.882 125.4,2297.432 231,2206.332 C297.46,2148.992 397.31,2138.752 476.31,2141.742 " fill="none" id="CustomerManager-BO11" style="stroke:#000000;stroke-width:1.0;"/></g><!--link CustomerManager to BO12--><g id="link_CustomerManager_BO12"><path d="M75.25,2890.192 C89.72,2767.802 141.17,2388.482 231,2311.332 C290.45,2260.272 376.25,2245.692 450.11,2244.482 " fill="none" id="CustomerManager-BO12" style="stroke:#000000;stroke-width:1.0;"/></g><!--link CustomerManager to BO13--><g id="link_CustomerManager_BO13"><path d="M70.46,2890.082 C71.39,2794.762 88.05,2545.552 231,2423.332 C284.61,2377.492 359.37,2360.542 427.56,2356.182 " fill="none" id="CustomerManager-BO13" style="stroke:#000000;stroke-width:1.0;"/></g><!--link CustomerManager to BO14--><g id="link_CustomerManager_BO14"><path d="M74.55,2889.982 C84.11,2810.482 117.89,2627.722 231,2538.332 C283.34,2496.972 353.21,2479.502 418.04,2473.402 " fill="none" id="CustomerManager-BO14" style="stroke:#000000;stroke-width:1.0;"/></g><!--link CustomerManager to BO16--><g id="link_CustomerManager_BO16"><path d="M79.99,2889.832 C97.22,2825.422 141.41,2696.832 231,2635.332 C298.84,2588.762 390.51,2576.422 465.45,2575.772 " fill="none" id="CustomerManager-BO16" style="stroke:#000000;stroke-width:1.0;"/></g><!--link CustomerManager to BO17--><g id="link_CustomerManager_BO17"><path d="M89.5,2889.962 C114.48,2842.742 163.74,2764.182 231,2726.332 C305.31,2684.522 401.18,2673.632 476.51,2672.872 " fill="none" id="CustomerManager-BO17" style="stroke:#000000;stroke-width:1.0;"/></g><!--link CustomerManager to BO18--><g id="link_CustomerManager_BO18"><path d="M120.81,2889.992 C151.06,2868.692 191.38,2843.672 231,2829.332 C299.5,2804.552 379.14,2791.512 446.83,2784.672 " fill="none" id="CustomerManager-BO18" style="stroke:#000000;stroke-width:1.0;"/></g><!--link CustomerManager to BO20--><g id="link_CustomerManager_BO20"><path d="M133.78,2918.322 C153.07,2915.472 174.38,2912.542 194,2910.332 C282.07,2900.422 381.24,2892.542 459.47,2887.072 " fill="none" id="CustomerManager-BO20" style="stroke:#000000;stroke-width:1.0;"/></g><!--link CustomerManager to BO21--><g id="link_CustomerManager_BO21"><path d="M133.96,2932.622 C230.31,2939.182 414.22,2951.712 519.75,2958.902 " fill="none" id="CustomerManager-BO21" style="stroke:#000000;stroke-width:1.0;"/></g><!--link CustomerManager to BO23--><g id="link_CustomerManager_BO23"><path d="M133.71,2961.652 C162.63,2975.772 197.84,2991.262 231,3001.332 C291.63,3019.732 359.68,3032.832 420.65,3041.992 " fill="none" id="CustomerManager-BO23" style="stroke:#000000;stroke-width:1.0;"/></g><!--link CustomerManager to BO24--><g id="link_CustomerManager_BO24"><path d="M90.92,2966.452 C116.72,3011.602 166.17,3085.232 231,3121.332 C295.47,3157.232 375.79,3171.242 444.97,3175.762 " fill="none" id="CustomerManager-BO24" style="stroke:#000000;stroke-width:1.0;"/></g><!--link CustomerManager to BO25--><g id="link_CustomerManager_BO25"><path d="M79.67,2966.722 C96.52,3031.622 140.29,3161.942 231,3223.332 C309.54,3276.492 419.65,3282.722 499.02,3278.422 " fill="none" id="CustomerManager-BO25" style="stroke:#000000;stroke-width:1.0;"/></g><!--link CustomerManager to BO26--><g id="link_CustomerManager_BO26"><path d="M74.49,2966.652 C83.9,3045.512 117.39,3225.572 231,3309.332 C320.64,3375.422 457.72,3368.542 536.98,3357.192 " fill="none" id="CustomerManager-BO26" style="stroke:#000000;stroke-width:1.0;"/></g><!--link CustomerManager to BO27--><g id="link_CustomerManager_BO27"><path d="M71.9,2966.812 C76.24,3055.672 100.35,3275.612 231,3381.332 C285.08,3425.092 358.72,3441.972 425.95,3446.832 " fill="none" id="CustomerManager-BO27" style="stroke:#000000;stroke-width:1.0;"/></g><!--link CustomerManager to BO28--><g id="link_CustomerManager_BO28"><path d="M76.45,2966.722 C93.61,3082.012 150.24,3421.712 231,3493.332 C281.64,3538.232 352.33,3556.142 418.28,3561.612 " fill="none" id="CustomerManager-BO28" style="stroke:#000000;stroke-width:1.0;"/></g><!--link CustomerManager to BO29--><g id="link_CustomerManager_BO29"><path d="M74.53,2966.392 C87.38,3096.282 135.92,3518.972 231,3609.332 C266.82,3643.372 313.85,3663.112 362.28,3674.032 " fill="none" id="CustomerManager-BO29" style="stroke:#000000;stroke-width:1.0;"/></g><!--link CustomerManager to BO30--><g id="link_CustomerManager_BO30"><path d="M72.93,2966.602 C81.12,3112.792 117.9,3633.372 231,3744.332 C265.13,3777.822 310.04,3797.682 356.73,3808.982 " fill="none" id="CustomerManager-BO30" style="stroke:#000000;stroke-width:1.0;"/></g><!--link CustomerManager to BO31--><g id="link_CustomerManager_BO31"><path d="M71.49,2966.762 C74.4,3128.852 94.46,3754.232 231,3881.332 C299.1,3944.722 407.45,3951.592 489.08,3945.522 " fill="none" id="CustomerManager-BO31" style="stroke:#000000;stroke-width:1.0;"/></g><!--link CustomerManager to BO34--><g id="link_CustomerManager_BO34"><path d="M70.75,2966.802 C70.51,3138.972 79.03,3836.342 231,3975.332 C270.55,4011.502 322.88,4031.112 375.64,4041.072 " fill="none" id="CustomerManager-BO34" style="stroke:#000000;stroke-width:1.0;"/></g><!--link Operator to BO7--><g id="link_Operator_BO7"><path d="M94.24,1466.192 C121.5,1425.162 170.71,1361.602 231,1330.332 C301.59,1293.722 389.62,1281.242 461.94,1278.132 " fill="none" id="Operator-BO7" style="stroke:#000000;stroke-width:1.0;"/></g><!--link Operator to BO8--><g id="link_Operator_BO8"><path d="M101.28,1479.392 C131.93,1455.672 181.72,1421.172 231,1404.332 C325.91,1371.892 441.99,1365.252 518.19,1365.012 " fill="none" id="Operator-BO8" style="stroke:#000000;stroke-width:1.0;"/></g><!--link Operator to BO10--><g id="link_Operator_BO10"><path d="M101.31,1500.692 C126.19,1497.752 162.36,1493.572 194,1490.332 C283.84,1481.122 384.99,1471.892 463.8,1464.952 " fill="none" id="Operator-BO10" style="stroke:#000000;stroke-width:1.0;"/></g><!--link Operator to BO19--><g id="link_Operator_BO19"><path d="M101.31,1507.202 C168.59,1513.562 334.08,1529.222 455.94,1540.752 " fill="none" id="Operator-BO19" style="stroke:#000000;stroke-width:1.0;"/></g><!--link Operator to BO22--><g id="link_Operator_BO22"><path d="M101.24,1529.632 C131.87,1553.732 181.63,1588.842 231,1606.332 C314.15,1635.792 413.84,1645.752 488.55,1648.642 " fill="none" id="Operator-BO22" style="stroke:#000000;stroke-width:1.0;"/></g><!--link Operator to BO33--><g id="link_Operator_BO33"><path d="M92.24,1542.572 C118.66,1586.162 168.07,1655.822 231,1690.332 C293.06,1724.362 369.44,1738.982 436.55,1744.562 " fill="none" id="Operator-BO33" style="stroke:#000000;stroke-width:1.0;"/></g><!--link LanguageEngineer to BO15--><g id="link_LanguageEngineer_BO15"><path d="M134.49,1840.332 C219.92,1840.332 373.52,1840.332 480.72,1840.332 " fill="none" id="LanguageEngineer-BO15" style="stroke:#000000;stroke-width:1.0;"/></g><!--link Candidate to BO35--><g id="link_Candidate_BO35"><path d="M105.27,843.312 C178.35,834.742 352.68,814.292 473.44,800.122 " fill="none" id="Candidate-BO35" style="stroke:#000000;stroke-width:1.0;"/></g><!--link Candidate to BO36--><g id="link_Candidate_BO36"><path d="M105.27,851.292 C157.76,857.342 262.5,869.432 362.1,880.932 " fill="none" id="Candidate-BO36" style="stroke:#000000;stroke-width:1.0;"/></g><!--link ApplicationFileBot to BO9--><g id="link_ApplicationFileBot_BO9"><path d="M132.4,196.242 C202.44,188.162 320.18,174.572 419.92,163.062 " fill="none" id="ApplicationFileBot-BO9" style="stroke:#000000;stroke-width:1.0;"/></g><!--link ApplicationFileBot to BO32--><g id="link_ApplicationFileBot_BO32"><path d="M132.4,210.422 C202.44,218.502 320.18,232.092 419.92,243.602 " fill="none" id="ApplicationFileBot-BO32" style="stroke:#000000;stroke-width:1.0;"/></g><!--link Customer to BO37--><g id="link_Customer_BO37"><path d="M103.66,533.202 C149.06,526.072 235.68,512.472 323.97,498.602 " fill="none" id="Customer-BO37" style="stroke:#000000;stroke-width:1.0;"/></g><!--link Customer to BO38--><g id="link_Customer_BO38"><path d="M103.66,543.402 C157.79,551.802 270.47,569.282 374.75,585.462 " fill="none" id="Customer-BO38" style="stroke:#000000;stroke-width:1.0;"/></g><!--SRC=[hLXDSnif4BthLr2v9Acoonf6riVHSfIjR2MsoxBtb0kQGH9b15fWx7XJ-z-tOGOD88sdDhi-s18qhvlczQEnOOPJzAWfkYRmwnCZ6qLsWm6dQuECH8fjjWQLJD72C2a60r8OgT1LkMEY-Noxfuh0X-RhLo8s5TdGXTWmGQaVlgwqaJkglX41auTH8afM4aCJA-zcl-Ui8DRpPyRfN9h1G3yniISG9AeqBMpGFmS8VkQaUDeeMOdoMd8RXurypYlgPg-KaY_rn9o3PRr4gfAgTFIp5ERKs9BzHL4s6lmTnc1S_dx6HldG6jcKGIvWsePskrwpmbewq_VBk_ilDmzeNdzxNA9iE1owBtvNx-xfXcb3bJqTfTyXej7yDejjFZ5DLfnUB8JzKrkYnXJ7fby1B8BA1w7phCEvFn6_QXIjmXshVfShoml1nAPPTncjoq_45gpnpiRj8Wpv8LqnUXOX-80AHU7ZTu7Cbg92AaNrNeA1sBZjDz2J6Beu4H3Xl8Ns8KsZTLtx9oBaBf9hH5eeVvJ3A2MN7H6G5aUZDR2IdCXkbaLOuoEMx3bvTN0sAL2mMWh24KH3EeB3CU3grn7Fu2YOA7ZbZc3BzCMMHgLzu7RCo4diSabDjQ-TRM50Mo_kcv85rM-a9cRiDDa8tNFvMlD6YZNRL0fOXEvu1Uhb4MBkpjAuE1Iw2-MU_bc1KkweC1ejzxHWwsQB7caS8cLP9z8N0InwPlG5VPCbvLQ9mSoZJ2AKX8E_KM7rkAw5nO-zLC0Zz41tS60m-a1_66J5r8F5XCx_6zXi4ElRTHXeWdrFn5DTeuSQwpn47DVAA4PQbCoSNfR5LPwmk5RDYqP4JrG1ZgeWImJQ-aBsqk9I_rjMueZhsIZL4T2jqW4Pjgkpx_JDmTboQkZXqIAEPucK_47LWOWslf2c7Y2YU9RenuqqRFrwh8KufdDIi8zGMQHqT6bOWbwOsRfTjOfTgxDkCMDo9-MwU2QySapv07rAIVN7k5pUIFWqmasA-DOs0hH4tAekfAZTwXaOMTsoRYngMvbtajawzu5uFxFG3queSrUjm4MT0zXvnSs1CTfLlpkYJU2_SqDvL18uUrkWMrqEXDSZnLMISF74wJcmDQEyXEshW4q-2Nd0xj5HO_CWz-37xtid8UMAhY7_ee0ZU07cQs2ucro3NuqgnoHQmaMoWYsrWk4AumMk4sgjOGe-D2jBMLGs9X_Hg54crmpQxXMTdvyV6gfq59ySpGECf9zjB4OzyvSzy-EU-IphCy1z1dcVGTyUijuW9tq6qnw3fcpUCEZB0-xR9kxR9kuxAzoN1zoN1zoRXrcFGTwNgBmlKL5X-ATSCpVfcfXsJMJ3pfbPrmp6NJDvM73fkzBZmiqLFROEqWb2bpwtsdOaFrAbGyEzUurxRgine2XC8MtQrY0FRipywFdaRam6QWRQ0NZXMm3agbOeXsPLK0ht9_LRR653Xtin7uVYSn309b6NtLFZ93zXuzqyghjVfVXePtTDOzEgCxGwPMML6xJPZeOEq69768U7jjVXMTU1M4-h_zLLZaF9F_fFGfEVMR-91OefrbHI7yDmDyF2n-vPy3oou_V-CZo37aCp6z0PkeBUu9cY9PZMrzvDjLj15G1nci3RRYwVHDpCVvMR7rnF-x4XPnXoIixfYPlHPs_IEJErUVq7]--></g></svg>