<?xml version="1.0" encoding="us-ascii" standalone="no"?><svg xmlns="http://www.w3.org/2000/svg" xmlns:xlink="http://www.w3.org/1999/xlink" contentStyleType="text/css" height="2111px" preserveAspectRatio="none" style="width:698px;height:2111px;background:#FFFFFF;" version="1.1" viewBox="0 0 698 2111" width="698px" zoomAndPan="magnify"><defs/><g><text fill="#000000" font-family="sans-serif" font-size="30" font-weight="bold" lengthAdjust="spacing" textLength="265" x="209.5" y="42.373">Use Case Diagram</text><!--cluster BackOffice--><g id="cluster_BackOffice"><rect fill="none" height="1667" rx="2.5" ry="2.5" style="stroke:#181818;stroke-width:1.0;" width="521" x="171" y="226.9023"/><text fill="#000000" font-family="sans-serif" font-size="14" font-weight="bold" lengthAdjust="spacing" textLength="76" x="393.5" y="244.0098">BackOffice</text></g><!--cluster ApplicationsFileBot--><g id="cluster_ApplicationsFileBot"><rect fill="none" height="135" rx="2.5" ry="2.5" style="stroke:#181818;stroke-width:1.0;" width="416" x="223.5" y="67.9023"/><text fill="#000000" font-family="sans-serif" font-size="14" font-weight="bold" lengthAdjust="spacing" textLength="136" x="363.5" y="85.0098">ApplicationsFileBot</text></g><g id="elem_1000.1"><ellipse cx="431.4945" cy="681.7012" fill="#ADD8E6" rx="74.4945" ry="17.2989" style="stroke:#000000;stroke-width:0.5;"/><text fill="#000000" font-family="sans-serif" font-size="14" lengthAdjust="spacing" textLength="93" x="381.9945" y="686.5049">Register Users</text></g><g id="elem_1000.2"><ellipse cx="431.4511" cy="280.7926" fill="#ADD8E6" rx="72.4511" ry="16.8902" style="stroke:#000000;stroke-width:0.5;"/><text fill="#000000" font-family="sans-serif" font-size="14" lengthAdjust="spacing" textLength="87" x="384.9511" y="285.5963">Disable Users</text></g><g id="elem_1000.3"><ellipse cx="431.2869" cy="349.8597" fill="#ADD8E6" rx="72.7869" ry="16.9574" style="stroke:#000000;stroke-width:0.5;"/><text fill="#000000" font-family="sans-serif" font-size="14" lengthAdjust="spacing" textLength="84" x="384.2869" y="354.6634">Enable Users</text></g><g id="elem_1000.4"><ellipse cx="431.2644" cy="418.8056" fill="#ADD8E6" rx="56.2644" ry="16.4033" style="stroke:#000000;stroke-width:0.5;"/><text fill="#000000" font-family="sans-serif" font-size="14" lengthAdjust="spacing" textLength="62" x="397.2644" y="423.6093">List Users</text></g><g id="elem_1001"><ellipse cx="431.3754" cy="1462.0774" fill="#ADD8E6" rx="86.3754" ry="19.6751" style="stroke:#000000;stroke-width:0.5;"/><text fill="#000000" font-family="sans-serif" font-size="14" lengthAdjust="spacing" textLength="125" x="365.8754" y="1466.8811">Register Customers</text></g><g id="elem_1002"><ellipse cx="431.6672" cy="1537.0358" fill="#ADD8E6" rx="91.1672" ry="20.6334" style="stroke:#000000;stroke-width:0.5;"/><text fill="#000000" font-family="sans-serif" font-size="14" lengthAdjust="spacing" textLength="137" x="360.1672" y="1541.8395">Register Job Opening</text></g><g id="elem_2000a"><ellipse cx="431.7022" cy="753.8428" fill="#ADD8E6" rx="85.2022" ry="19.4404" style="stroke:#000000;stroke-width:0.5;"/><text fill="#000000" font-family="sans-serif" font-size="14" lengthAdjust="spacing" textLength="122" x="367.7022" y="758.6465">Register Candidate</text></g><g id="elem_2002.1"><ellipse cx="431.7329" cy="839.0489" fill="#ADD8E6" rx="138.7329" ry="30.1466" style="stroke:#000000;stroke-width:0.5;"/><text fill="#000000" font-family="sans-serif" font-size="14" lengthAdjust="spacing" textLength="243" x="310.2329" y="842.8458">Register an Application of a Candidate</text></g><g id="elem_2002.2"><ellipse cx="431.5286" cy="492.1081" fill="#ADD8E6" rx="94.0286" ry="21.2057" style="stroke:#000000;stroke-width:0.5;"/><text fill="#000000" font-family="sans-serif" font-size="14" lengthAdjust="spacing" textLength="144" x="356.5286" y="496.9118">Import all files received</text></g><g id="elem_1005"><ellipse cx="431.4506" cy="1181.8925" fill="#ADD8E6" rx="135.4506" ry="29.4901" style="stroke:#000000;stroke-width:0.5;"/><text fill="#000000" font-family="sans-serif" font-size="14" lengthAdjust="spacing" textLength="236" x="313.4506" y="1185.6893">List all applications for a Job Opening</text></g><g id="elem_1006"><ellipse cx="431.3379" cy="1279.6699" fill="#ADD8E6" rx="154.3379" ry="33.2676" style="stroke:#000000;stroke-width:0.5;"/><text fill="#000000" font-family="sans-serif" font-size="14" lengthAdjust="spacing" textLength="276" x="293.3379" y="1283.4668">Display all the personal data of a Candidate</text></g><g id="elem_1008.1"><ellipse cx="431.6034" cy="1787.123" fill="#ADD8E6" rx="76.6034" ry="17.7207" style="stroke:#000000;stroke-width:0.5;"/><text fill="#000000" font-family="sans-serif" font-size="14" lengthAdjust="spacing" textLength="99" x="379.1034" y="1791.9267">Deploy a Plugin</text></g><g id="elem_1008.2"><ellipse cx="431.2712" cy="1858.9566" fill="#ADD8E6" rx="83.2712" ry="19.0542" style="stroke:#000000;stroke-width:0.5;"/><text fill="#000000" font-family="sans-serif" font-size="14" lengthAdjust="spacing" textLength="117" x="369.7712" y="1863.7603">Configure a Plugin</text></g><g id="elem_1009.1"><ellipse cx="431.4506" cy="1377.8925" fill="#ADD8E6" rx="135.4506" ry="29.4901" style="stroke:#000000;stroke-width:0.5;"/><text fill="#000000" font-family="sans-serif" font-size="14" lengthAdjust="spacing" textLength="236" x="313.4506" y="1381.6893">Select one Requirement Specification</text></g><g id="elem_1009.2"><ellipse cx="431.4493" cy="1614.6922" fill="#ADD8E6" rx="96.9493" ry="21.7899" style="stroke:#000000;stroke-width:0.5;"/><text fill="#000000" font-family="sans-serif" font-size="14" lengthAdjust="spacing" textLength="151" x="353.9009" y="1619.2063">Select one Job Opening</text></g><g id="elem_1009.3"><ellipse cx="431.3671" cy="942.0758" fill="#ADD8E6" rx="176.3671" ry="37.6734" style="stroke:#000000;stroke-width:0.5;"/><text fill="#000000" font-family="sans-serif" font-size="14" lengthAdjust="spacing" textLength="322" x="270.3671" y="945.8726">Associate the Job Opening with the Interview Model</text></g><g id="elem_1011.1"><ellipse cx="431.4684" cy="1702.896" fill="#ADD8E6" rx="142.9684" ry="30.9937" style="stroke:#000000;stroke-width:0.5;"/><text fill="#000000" font-family="sans-serif" font-size="14" lengthAdjust="spacing" textLength="252" x="305.4684" y="1706.6929">Select one Interview Model Specification</text></g><g id="elem_1012"><ellipse cx="431.5288" cy="1065.7081" fill="#ADD8E6" rx="244.5288" ry="51.3058" style="stroke:#000000;stroke-width:0.5;"/><text fill="#000000" font-family="sans-serif" font-size="14" lengthAdjust="spacing" textLength="462" x="200.5288" y="1069.505">Generate and Export a Template Text File for Requirements Specification</text></g><g id="elem_2003"><ellipse cx="431.3594" cy="588.9742" fill="#ADD8E6" rx="190.8594" ry="40.5719" style="stroke:#000000;stroke-width:0.5;"/><text fill="#000000" font-family="sans-serif" font-size="14" lengthAdjust="spacing" textLength="352" x="255.3594" y="592.7711">Generate and Export a Template Text File for Interviews</text></g><g id="elem_2001"><ellipse cx="431.3284" cy="145.668" fill="#ADD8E6" rx="191.8284" ry="40.7657" style="stroke:#000000;stroke-width:0.5;"/><text fill="#000000" font-family="sans-serif" font-size="14" lengthAdjust="spacing" textLength="354" x="254.3284" y="149.4649">Process the files produced by the Applications Email Bot</text></g><!--entity Admin--><g id="elem_Admin"><ellipse cx="66.5" cy="353.9023" fill="#F1F1F1" rx="8" ry="8" style="stroke:#181818;stroke-width:0.5;"/><path d="M66.5,361.9023 L66.5,388.9023 M53.5,369.9023 L79.5,369.9023 M66.5,388.9023 L53.5,403.9023 M66.5,388.9023 L79.5,403.9023 " fill="none" style="stroke:#181818;stroke-width:0.5;"/><text fill="#000000" font-family="sans-serif" font-size="14" lengthAdjust="spacing" textLength="39" x="47" y="420.5098">Admin</text></g><!--entity Operator--><g id="elem_Operator"><ellipse cx="66.5" cy="650.9023" fill="#F1F1F1" rx="8" ry="8" style="stroke:#181818;stroke-width:0.5;"/><path d="M66.5,658.9023 L66.5,685.9023 M53.5,666.9023 L79.5,666.9023 M66.5,685.9023 L53.5,700.9023 M66.5,685.9023 L79.5,700.9023 " fill="none" style="stroke:#181818;stroke-width:0.5;"/><text fill="#000000" font-family="sans-serif" font-size="14" lengthAdjust="spacing" textLength="57" x="38" y="717.5098">Operator</text></g><!--entity CustomerManager--><g id="elem_CustomerManager"><ellipse cx="66.5" cy="1248.9023" fill="#F1F1F1" rx="8" ry="8" style="stroke:#181818;stroke-width:0.5;"/><path d="M66.5,1256.9023 L66.5,1283.9023 M53.5,1264.9023 L79.5,1264.9023 M66.5,1283.9023 L53.5,1298.9023 M66.5,1283.9023 L79.5,1298.9023 " fill="none" style="stroke:#181818;stroke-width:0.5;"/><text fill="#000000" font-family="sans-serif" font-size="14" lengthAdjust="spacing" textLength="117" x="8" y="1315.5098">CustomerManager</text></g><!--entity LanguageEngineer--><g id="elem_LanguageEngineer"><ellipse cx="66.5" cy="1781.9023" fill="#F1F1F1" rx="8" ry="8" style="stroke:#181818;stroke-width:0.5;"/><path d="M66.5,1789.9023 L66.5,1816.9023 M53.5,1797.9023 L79.5,1797.9023 M66.5,1816.9023 L53.5,1831.9023 M66.5,1816.9023 L79.5,1831.9023 " fill="none" style="stroke:#181818;stroke-width:0.5;"/><text fill="#000000" font-family="sans-serif" font-size="14" lengthAdjust="spacing" textLength="121" x="6" y="1848.5098">LanguageEngineer</text></g><!--entity Candidate--><g id="elem_Candidate"><ellipse cx="66.5" cy="1921.9023" fill="#F1F1F1" rx="8" ry="8" style="stroke:#181818;stroke-width:0.5;"/><path d="M66.5,1929.9023 L66.5,1956.9023 M53.5,1937.9023 L79.5,1937.9023 M66.5,1956.9023 L53.5,1971.9023 M66.5,1956.9023 L79.5,1971.9023 " fill="none" style="stroke:#181818;stroke-width:0.5;"/><text fill="#000000" font-family="sans-serif" font-size="14" lengthAdjust="spacing" textLength="65" x="34" y="1988.5098">Candidate</text></g><!--entity Customer--><g id="elem_Customer"><ellipse cx="66.5" cy="2035.9023" fill="#F1F1F1" rx="8" ry="8" style="stroke:#181818;stroke-width:0.5;"/><path d="M66.5,2043.9023 L66.5,2070.9023 M53.5,2051.9023 L79.5,2051.9023 M66.5,2070.9023 L53.5,2085.9023 M66.5,2070.9023 L79.5,2085.9023 " fill="none" style="stroke:#181818;stroke-width:0.5;"/><text fill="#000000" font-family="sans-serif" font-size="14" lengthAdjust="spacing" textLength="61" x="36" y="2102.5098">Customer</text></g><!--entity ApplicationFileBot--><g id="elem_ApplicationFileBot"><ellipse cx="431.5" cy="1921.9023" fill="#F1F1F1" rx="8" ry="8" style="stroke:#181818;stroke-width:0.5;"/><path d="M431.5,1929.9023 L431.5,1956.9023 M418.5,1937.9023 L444.5,1937.9023 M431.5,1956.9023 L418.5,1971.9023 M431.5,1956.9023 L444.5,1971.9023 " fill="none" style="stroke:#181818;stroke-width:0.5;"/><text fill="#000000" font-family="sans-serif" font-size="14" lengthAdjust="spacing" textLength="113" x="375" y="1988.5098">ApplicationFileBot</text></g><!--entity ProductOwner--><g id="elem_ProductOwner"><ellipse cx="66.5" cy="114.9023" fill="#F1F1F1" rx="8" ry="8" style="stroke:#181818;stroke-width:0.5;"/><path d="M66.5,122.9023 L66.5,149.9023 M53.5,130.9023 L79.5,130.9023 M66.5,149.9023 L53.5,164.9023 M66.5,149.9023 L79.5,164.9023 " fill="none" style="stroke:#181818;stroke-width:0.5;"/><text fill="#000000" font-family="sans-serif" font-size="14" lengthAdjust="spacing" textLength="90" x="21.5" y="181.5098">ProductOwner</text></g><!--link Admin to 1000.1--><g id="link_Admin_1000.1"><path d="M69.64,424.5923 C75.09,483.2223 94.44,591.9423 163,646.9023 C220.47,692.9623 308.27,695.6423 367.45,690.8623 " fill="none" id="Admin-1000.1" style="stroke:#000000;stroke-width:1.0;"/></g><!--link Admin to 1000.2--><g id="link_Admin_1000.2"><path d="M86.2,366.6423 C104.27,350.1723 133.21,326.7823 163,314.9023 C226.05,289.7523 303.5,282.1923 358.8,280.3523 " fill="none" id="Admin-1000.2" style="stroke:#000000;stroke-width:1.0;"/></g><!--link Admin to 1000.3--><g id="link_Admin_1000.3"><path d="M86,383.1223 C136.5,378.2523 278.58,364.5523 363.68,356.3423 " fill="none" id="Admin-1000.3" style="stroke:#000000;stroke-width:1.0;"/></g><!--link Admin to 1000.4--><g id="link_Admin_1000.4"><path d="M86,386.6323 C139.31,391.6323 294.72,406.1823 377.37,413.9223 " fill="none" id="Admin-1000.4" style="stroke:#000000;stroke-width:1.0;"/></g><!--link CustomerManager to 1000.1--><g id="link_CustomerManager_1000.1"><path d="M68.34,1240.1423 C71.67,1124.0823 87.74,789.3623 163,716.9023 C217.91,664.0323 311.12,664.2423 371.74,671.4023 " fill="none" id="CustomerManager-1000.1" style="stroke:#000000;stroke-width:1.0;"/></g><!--link Operator to 1000.1--><g id="link_Operator_1000.1"><path d="M95.08,681.9023 C150.26,681.9023 275.87,681.9023 356.74,681.9023 " fill="none" id="Operator-1000.1" style="stroke:#000000;stroke-width:1.0;"/></g><!--link CustomerManager to 1001--><g id="link_CustomerManager_1001"><path d="M82.5,1319.4823 C97.5,1353.3023 124,1400.2923 163,1424.9023 C218.11,1459.6823 292.24,1467.6023 348.48,1467.5723 " fill="none" id="CustomerManager-1001" style="stroke:#000000;stroke-width:1.0;"/></g><!--link CustomerManager to 1002--><g id="link_CustomerManager_1002"><path d="M72.94,1319.4623 C82.08,1369.7323 105.56,1455.2023 163,1498.9023 C215.27,1538.6623 290.37,1546.3023 347.7,1545.0623 " fill="none" id="CustomerManager-1002" style="stroke:#000000;stroke-width:1.0;"/></g><!--link Operator to 2000a--><g id="link_Operator_2000a"><path d="M95.01,693.7623 C113.83,701.4323 139.53,711.0523 163,716.9023 C225.32,732.4423 297.55,741.9423 351.23,747.4223 " fill="none" id="Operator-2000a" style="stroke:#000000;stroke-width:1.0;"/></g><!--link Operator to 2002.1--><g id="link_Operator_2002.1"><path d="M92.09,721.5423 C109.05,745.4423 133.76,774.3723 163,790.9023 C203.05,813.5423 251.39,825.8923 295.91,832.5223 " fill="none" id="Operator-2002.1" style="stroke:#000000;stroke-width:1.0;"/></g><!--link Operator to 2002.2--><g id="link_Operator_2002.2"><path d="M81.54,642.1623 C96.17,606.9123 122.67,557.0823 163,530.9023 C215.16,497.0423 284.98,487.7823 340.22,486.7323 " fill="none" id="Operator-2002.2" style="stroke:#000000;stroke-width:1.0;"/></g><!--link CustomerManager to 1005--><g id="link_CustomerManager_1005"><path d="M125.02,1245.4423 C137.24,1239.2023 150.3,1233.2823 163,1228.9023 C209.69,1212.7923 262.96,1202.0023 309.6,1194.8623 " fill="none" id="CustomerManager-1005" style="stroke:#000000;stroke-width:1.0;"/></g><!--link CustomerManager to 1006--><g id="link_CustomerManager_1006"><path d="M125.02,1279.9023 C166,1279.9023 223.14,1279.9023 276.92,1279.9023 " fill="none" id="CustomerManager-1006" style="stroke:#000000;stroke-width:1.0;"/></g><!--link LanguageEngineer to 1008.1--><g id="link_LanguageEngineer_1008.1"><path d="M127.04,1808.6423 C190.29,1804.1023 290.34,1796.9423 358.11,1792.0823 " fill="none" id="LanguageEngineer-1008.1" style="stroke:#000000;stroke-width:1.0;"/></g><!--link LanguageEngineer to 1008.2--><g id="link_LanguageEngineer_1008.2"><path d="M127.04,1820.4423 C190.29,1828.4623 290.34,1841.1423 358.11,1849.7323 " fill="none" id="LanguageEngineer-1008.2" style="stroke:#000000;stroke-width:1.0;"/></g><!--link CustomerManager to 1009.1--><g id="link_CustomerManager_1009.1"><path d="M105.72,1319.5223 C122.7,1330.6023 143.28,1341.1023 163,1347.9023 C205.23,1362.4723 252.85,1372.6923 296.08,1378.9323 " fill="none" id="CustomerManager-1009.1" style="stroke:#000000;stroke-width:1.0;"/></g><!--link CustomerManager to 1009.1--><g id="link_CustomerManager_1009.1"><path d="M125.02,1296.7523 C137.24,1302.6023 150.3,1308.5223 163,1312.9023 C222.84,1333.5523 293.48,1345.4623 347.14,1354.7223 " fill="none" id="CustomerManager-1009.1-1" style="stroke:#000000;stroke-width:1.0;"/></g><!--link CustomerManager to 1009.2--><g id="link_CustomerManager_1009.2"><path d="M67.88,1319.4923 C70.81,1383.7723 86.62,1510.1623 163,1574.9023 C212.17,1616.5723 285.5,1625.0623 342.96,1623.9623 " fill="none" id="CustomerManager-1009.2" style="stroke:#000000;stroke-width:1.0;"/></g><!--link CustomerManager to 1009.3--><g id="link_CustomerManager_1009.3"><path d="M69.94,1240.1823 C75.87,1181.3623 95.9,1073.2423 163,1013.9023 C195.41,985.2423 238.7,970.0223 281,961.5423 " fill="none" id="CustomerManager-1009.3" style="stroke:#000000;stroke-width:1.0;"/></g><!--link CustomerManager to 1009.3--><g id="link_CustomerManager_1009.3"><path d="M68.31,1240.2123 C71.57,1174.3623 87.45,1045.7123 163,978.9023 C190.35,954.7223 225.45,940.1023 261.16,931.9823 " fill="none" id="CustomerManager-1009.3-1" style="stroke:#000000;stroke-width:1.0;"/></g><!--link CustomerManager to 1012--><g id="link_CustomerManager_1012"><path d="M83.83,1240.0923 C99.39,1207.0523 125.97,1161.3623 163,1134.9023 C185.24,1119.0123 210.84,1106.7723 237.2,1097.3523 " fill="none" id="CustomerManager-1012" style="stroke:#000000;stroke-width:1.0;"/></g><!--link Operator to 2003--><g id="link_Operator_2003"><path d="M95.16,670.6123 C114.05,663.1923 139.77,653.6423 163,646.9023 C203.39,635.1823 247.82,624.6323 288.68,615.8523 " fill="none" id="Operator-2003" style="stroke:#000000;stroke-width:1.0;"/></g><!--link ProductOwner to 2001--><g id="link_ProductOwner_2001"><path d="M111.65,145.9023 C144.34,145.9023 191.34,145.9023 239.25,145.9023 " fill="none" id="ProductOwner-2001" style="stroke:#000000;stroke-width:1.0;"/></g><!--SRC=[hLTBSzis4BxhLs1oKJBZXqZAidsq5ANZJc9fBBkdNY0Ib30c0PO0hRYP_FSkG88485BkAmT711RVxdxx0YIL6K7FWg05XZ-VATwLE1-DCf9A93agwMulKK9B4alAsMY4OybBT9Vab3M_LmKfCVneFXULa3mdvJVCy8wOrQ-OxIhuNh8TPQHTNc2Mq0HBuXqsQeeYep5Mch_GZCovR3RM9K-gMAuE36H7ueMo0eFTg18aLdxy627uDyVnowxa5KiMF5D6A6VcMKNqxbrPyaEzCSz0iZx2ouIK_keNpcJVseR-IL0m7VsqRP2QqX-kK3HHGef580AsbMchDAMnajIYuytwyVxX2Sthh-SD2YQJYVumNdru93ig92bLm4hn0M6XXIu2L-mp5NXRXzMM2bsf9Uk4K2SLkL9VGQ4FDAqjrac0pizj6zori6SjwbcRwZKlSpnaasRMiirKCC2K0MtDRuxrAtCnmm7CN_bMcSCesndKy1HgsA66O3aUCjKKWmQj9OzSjvORl24hCRFh1_4KuMCLePyxztd1Iubmbg4KIauWo5b2NqdIdGZxZ0fxmjH8svHUzMINqeKxImLAuJZkO_dg5CjNZgBPKKaK6NxJkkIU8B1IS8Op16JWFcvQY7vbCwsiqNNZwI95na4LMcSLT3i3T-DJlU0ifRkg93sY3Mj-ssoq6wZ1RPVqMrVlXcJGXn1d13sIFohexJbX4cqA4jEq2OAnvFRYPBsqsttWFG6ylGXFmuKUt9qGFAOG51qr2n4TgDphnR_XGtHQQMG5CwYP7N3fda5blL9oGDzuGh9UVK5WI7cVjd_eggV-oC5tVJHEUZtZ5y9KrK8YiWGjlzST03sH76e6Lf_8TudK0DQLQV4j-Wau5MErQNUlw3zOqj8XJ7EAHhqT4vICt2cxiDceRHXtBHIp5yrtR5h2K4-QhyA9KsfJ3sgPKDb_Bd27mjO_gAVpfHdbVdi20AV6WubtNcb3waQLSVWizh0eL9_JpQ_aCH4dV7AJHViqjYTC3BSaZIHfNeTA6LRZCKHDM0pSr86xyYpzZPHj1YaBxVmo24vl3sOUmWEND7th66gFpPnZrwEnaslFqAPnejFBP5LRQIqMp3zHm53gG06c1cfWRppOvIlEAfqp7-4kdH3noQtT4xpVUD2t7lHANKv9WZ8rDe6gpkCp45AjmhIEhbEiELM5QcmngcvTLP36hgfrjGKjDHb0GPN9Dds4xeSwMZlBX46tuExhwWeyNVvmxcQoTO4nO84D5ggASy5wWgdnKago17WehVGoR4IH3JfLzsuFb1UWon2GSw2_92d4WiKGZWEKWu2qrvlrhQdIkKMItndQggj0sqbqjHpsS5H9mnRyQ4ucFAwKMSOeA1juCroEhMT3opOGupySkfOM7JqSsdjM_kPUjPGre9kMICYkjqHMlKL7TsjTRXJy1hi1pxvaWcErBnfDyQMc9lpdwuttu51RKz5ir0umg_JEeNjhOmQtPegYyQNzihBC4SsZSVY95HuvjsvwOnVAGhyrmLq8f5gr5Q1bZca6hqPf9b0DPxzFcndKzFlByN6yrExsVpG3Y0arApfzhEnf1l9xoHCE9uzLtT1pA8kpAb5zHwq_ceeuWwOZgBBi3Dr1ftWbQ0EYTUu_LFaMI86SQ3pesdnqxQHTz6_JxgCUTv-QlBDDzlFkniwxXXsJMzU3Et3g9z3x5m00]--></g></svg>