<?xml version="1.0" encoding="us-ascii" standalone="no"?><svg xmlns="http://www.w3.org/2000/svg" xmlns:xlink="http://www.w3.org/1999/xlink" contentStyleType="text/css" height="508px" preserveAspectRatio="none" style="width:948px;height:508px;background:#FFFFFF;" version="1.1" viewBox="0 0 948 508" width="948px" zoomAndPan="magnify"><defs/><g><text fill="#000000" font-family="FG Virgil" font-size="20" font-weight="bold" lengthAdjust="spacing" textLength="240" x="353" y="33.1055">Sequence Diagram - 1005</text><rect fill="#FFFFFF" height="276.4688" style="stroke:#181818;stroke-width:1.0;" width="10" x="61.5" y="133.9844"/><rect fill="#FFFFFF" height="255.9453" style="stroke:#181818;stroke-width:1.0;" width="10" x="317.5" y="154.5078"/><rect fill="#FFFFFF" height="85.5703" style="stroke:#181818;stroke-width:1.0;" width="10" x="529.5" y="296.3594"/><rect fill="#FFFFFF" height="28.5234" style="stroke:#181818;stroke-width:1.0;" width="10" x="848.5" y="324.8828"/><line style="stroke:#181818;stroke-width:0.5;stroke-dasharray:5.0,5.0;" x1="66" x2="66" y1="123.9844" y2="428.4531"/><line style="stroke:#181818;stroke-width:0.5;stroke-dasharray:5.0,5.0;" x1="322.5" x2="322.5" y1="123.9844" y2="428.4531"/><line style="stroke:#181818;stroke-width:0.5;stroke-dasharray:5.0,5.0;" x1="534.5" x2="534.5" y1="257.6953" y2="428.4531"/><line style="stroke:#181818;stroke-width:0.5;stroke-dasharray:5.0,5.0;" x1="853" x2="853" y1="123.9844" y2="428.4531"/><text fill="#000000" font-family="FG Virgil" font-size="14" lengthAdjust="spacing" textLength="117" x="5" y="121.0176">CustomerManager</text><ellipse cx="66.5" cy="56.8438" fill="#ADD8E6" rx="8" ry="8" style="stroke:#181818;stroke-width:0.5;"/><path d="M66.5,64.8438 L66.5,91.8438 M53.5,72.8438 L79.5,72.8438 M66.5,91.8438 L53.5,106.8438 M66.5,91.8438 L79.5,106.8438 " fill="none" style="stroke:#181818;stroke-width:0.5;"/><text fill="#000000" font-family="FG Virgil" font-size="14" lengthAdjust="spacing" textLength="117" x="5" y="440.127">CustomerManager</text><ellipse cx="66.5" cy="451.5938" fill="#ADD8E6" rx="8" ry="8" style="stroke:#181818;stroke-width:0.5;"/><path d="M66.5,459.5938 L66.5,486.5938 M53.5,467.5938 L79.5,467.5938 M66.5,486.5938 L53.5,501.5938 M66.5,486.5938 L79.5,501.5938 " fill="none" style="stroke:#181818;stroke-width:0.5;"/><rect fill="#E2E2F0" height="45.2813" rx="2.5" ry="2.5" style="stroke:#181818;stroke-width:0.5;" width="128" x="258.5" y="77.7031"/><text fill="#000000" font-family="FG Virgil" font-size="14" font-style="italic" lengthAdjust="spacing" textLength="95" x="275" y="97.377">&#171;presentation&#187;</text><text fill="#000000" font-family="FG Virgil" font-size="14" lengthAdjust="spacing" textLength="114" x="265.5" y="113.0176">:ListApplicationsUI</text><rect fill="#E2E2F0" height="45.2813" rx="2.5" ry="2.5" style="stroke:#181818;stroke-width:0.5;" width="128" x="258.5" y="427.4531"/><text fill="#000000" font-family="FG Virgil" font-size="14" font-style="italic" lengthAdjust="spacing" textLength="95" x="275" y="447.127">&#171;presentation&#187;</text><text fill="#000000" font-family="FG Virgil" font-size="14" lengthAdjust="spacing" textLength="114" x="265.5" y="462.7676">:ListApplicationsUI</text><rect fill="#E2E2F0" height="45.2813" rx="2.5" ry="2.5" style="stroke:#181818;stroke-width:0.5;" width="178" x="445.5" y="427.4531"/><text fill="#000000" font-family="FG Virgil" font-size="14" font-style="italic" lengthAdjust="spacing" textLength="84" x="492.5" y="447.127">&#171;application&#187;</text><text fill="#000000" font-family="FG Virgil" font-size="14" lengthAdjust="spacing" textLength="164" x="452.5" y="462.7676">:ListApplicationsController</text><rect fill="#E2E2F0" height="45.2813" rx="2.5" ry="2.5" style="stroke:#181818;stroke-width:0.5;" width="177" x="765" y="77.7031"/><text fill="#000000" font-family="FG Virgil" font-size="14" font-style="italic" lengthAdjust="spacing" textLength="79" x="814" y="97.377">&#171;repository&#187;</text><text fill="#000000" font-family="FG Virgil" font-size="14" lengthAdjust="spacing" textLength="163" x="772" y="113.0176">:JobApplicationRepository</text><rect fill="#E2E2F0" height="45.2813" rx="2.5" ry="2.5" style="stroke:#181818;stroke-width:0.5;" width="177" x="765" y="427.4531"/><text fill="#000000" font-family="FG Virgil" font-size="14" font-style="italic" lengthAdjust="spacing" textLength="79" x="814" y="447.127">&#171;repository&#187;</text><text fill="#000000" font-family="FG Virgil" font-size="14" lengthAdjust="spacing" textLength="163" x="772" y="462.7676">:JobApplicationRepository</text><rect fill="#FFFFFF" height="276.4688" style="stroke:#181818;stroke-width:1.0;" width="10" x="61.5" y="133.9844"/><rect fill="#FFFFFF" height="255.9453" style="stroke:#181818;stroke-width:1.0;" width="10" x="317.5" y="154.5078"/><rect fill="#FFFFFF" height="85.5703" style="stroke:#181818;stroke-width:1.0;" width="10" x="529.5" y="296.3594"/><rect fill="#FFFFFF" height="28.5234" style="stroke:#181818;stroke-width:1.0;" width="10" x="848.5" y="324.8828"/><polygon fill="#181818" points="305.5,150.5078,315.5,154.5078,305.5,158.5078,309.5,154.5078" style="stroke:#181818;stroke-width:1.0;"/><line style="stroke:#181818;stroke-width:1.0;" x1="71.5" x2="311.5" y1="154.5078" y2="154.5078"/><text fill="#000000" font-family="FG Virgil" font-size="13" lengthAdjust="spacing" textLength="227" x="78.5" y="149.7529">List all job applications of a job opening</text><polygon fill="#181818" points="82.5,179.0313,72.5,183.0313,82.5,187.0313,78.5,183.0313" style="stroke:#181818;stroke-width:1.0;"/><line style="stroke:#181818;stroke-width:1.0;stroke-dasharray:2.0,2.0;" x1="76.5" x2="316.5" y1="183.0313" y2="183.0313"/><text fill="#000000" font-family="FG Virgil" font-size="13" lengthAdjust="spacing" textLength="101" x="88.5" y="178.2764">Ask job reference</text><polygon fill="#181818" points="305.5,207.5547,315.5,211.5547,305.5,215.5547,309.5,211.5547" style="stroke:#181818;stroke-width:1.0;"/><line style="stroke:#181818;stroke-width:1.0;stroke-dasharray:2.0,2.0;" x1="71.5" x2="311.5" y1="211.5547" y2="211.5547"/><text fill="#000000" font-family="FG Virgil" font-size="13" lengthAdjust="spacing" textLength="113" x="78.5" y="206.7998">Types job reference</text><polygon fill="#181818" points="433.5,236.0781,443.5,240.0781,433.5,244.0781,437.5,240.0781" style="stroke:#181818;stroke-width:1.0;"/><line style="stroke:#181818;stroke-width:1.0;" x1="327.5" x2="439.5" y1="240.0781" y2="240.0781"/><text fill="#000000" font-family="FG Virgil" font-size="13" lengthAdjust="spacing" textLength="36" x="334.5" y="235.3232">create</text><rect fill="#E2E2F0" height="45.2813" rx="2.5" ry="2.5" style="stroke:#181818;stroke-width:0.5;" width="178" x="445.5" y="219.5547"/><text fill="#000000" font-family="FG Virgil" font-size="14" font-style="italic" lengthAdjust="spacing" textLength="84" x="492.5" y="239.2285">&#171;application&#187;</text><text fill="#000000" font-family="FG Virgil" font-size="14" lengthAdjust="spacing" textLength="164" x="452.5" y="254.8691">:ListApplicationsController</text><polygon fill="#181818" points="517.5,292.3594,527.5,296.3594,517.5,300.3594,521.5,296.3594" style="stroke:#181818;stroke-width:1.0;"/><line style="stroke:#181818;stroke-width:1.0;" x1="327.5" x2="523.5" y1="296.3594" y2="296.3594"/><text fill="#000000" font-family="FG Virgil" font-size="13" lengthAdjust="spacing" textLength="183" x="334.5" y="291.6045">allJobApllications(jobReference)</text><polygon fill="#181818" points="836.5,320.8828,846.5,324.8828,836.5,328.8828,840.5,324.8828" style="stroke:#181818;stroke-width:1.0;"/><line style="stroke:#181818;stroke-width:1.0;" x1="539.5" x2="842.5" y1="324.8828" y2="324.8828"/><text fill="#000000" font-family="FG Virgil" font-size="13" lengthAdjust="spacing" textLength="290" x="546.5" y="320.1279">findByReference(jobReference).getJobApplications</text><polygon fill="#181818" points="550.5,349.4063,540.5,353.4063,550.5,357.4063,546.5,353.4063" style="stroke:#181818;stroke-width:1.0;"/><line style="stroke:#181818;stroke-width:1.0;stroke-dasharray:2.0,2.0;" x1="544.5" x2="852.5" y1="353.4063" y2="353.4063"/><text fill="#000000" font-family="FG Virgil" font-size="13" lengthAdjust="spacing" textLength="91" x="556.5" y="348.6514">JobApplications</text><polygon fill="#181818" points="338.5,377.9297,328.5,381.9297,338.5,385.9297,334.5,381.9297" style="stroke:#181818;stroke-width:1.0;"/><line style="stroke:#181818;stroke-width:1.0;stroke-dasharray:2.0,2.0;" x1="332.5" x2="533.5" y1="381.9297" y2="381.9297"/><text fill="#000000" font-family="FG Virgil" font-size="13" lengthAdjust="spacing" textLength="91" x="344.5" y="377.1748">JobApplications</text><polygon fill="#181818" points="77.5,406.4531,67.5,410.4531,77.5,414.4531,73.5,410.4531" style="stroke:#181818;stroke-width:1.0;"/><line style="stroke:#181818;stroke-width:1.0;stroke-dasharray:2.0,2.0;" x1="71.5" x2="321.5" y1="410.4531" y2="410.4531"/><text fill="#000000" font-family="FG Virgil" font-size="13" lengthAdjust="spacing" textLength="52" x="83.5" y="405.6982">doshow()</text><!--SRC=[XP9FRzGm4CNl_XIZSg2jj7z0uXAj8Yr5HOk0mxRXxaqcYLd7DlQ4QldqJDoGkCiYSXlxpM_UF8SKQOG7_D6ZAH4-ADbusS42zjYeGEYX2EW5HTacg5-OlLtd5_HlrkjtczKWo8LutHAvRBLoMXhgExqiRRSAHsMSPFMofKwBgOJE6bkstdO8jTG1aoidowDiy85EFDvZISbTXRNiDTrRGrybzzv_X6_ADof5XrPMzacPPYGBMPBrSDS7ud7-YpHCzo03REF5AwsQbWwwHy40KgLol05SPPyvZArpMfMIb3MXs5qDNSKEDXldCQ2XU97d_scyOxlUQeq-0kQIGNBM_SNvP0y9Pe_E1iMEJv4obqpnKy4GtbVzb8JF-uddBHSv6yzWi0PIQ_Xk3v3C3c1haF7KEZISdfWvnKu0VxpuWZ6Hby4s7AFSOur- -36YPXmsJdiyEGndAZ6nyYI9sziCIeyyxH-2R70T0z6Jvsicx_-0RsBRv7dkZEV3b-JEw3c_36fbglUd2VMIksoGNhv463rEmsPMF9zB3Y9TuHmpY2kyX16JwtFdOxINK2ahsNz25Jlk7f-lig6rJzSt8kdXTqwgAFmD]--></g></svg>