<?xml version="1.0" encoding="us-ascii" standalone="no"?><svg xmlns="http://www.w3.org/2000/svg" xmlns:xlink="http://www.w3.org/1999/xlink" contentStyleType="text/css" height="549px" preserveAspectRatio="none" style="width:942px;height:549px;background:#FFFFFF;" version="1.1" viewBox="0 0 942 549" width="942.6px" zoomAndPan="magnify"><defs/><g><text fill="#000000" font-family="FG Virgil" font-size="12" font-weight="bold" lengthAdjust="spacing" textLength="136.2" x="404.25" y="19.8633">Sequence Diagram 1020</text><rect fill="#FFFFFF" height="415.3641" style="stroke:#181818;stroke-width:0.6;" width="6" x="36.9" y="80.3906"/><rect fill="#FFFFFF" height="397.65" style="stroke:#181818;stroke-width:0.6;" width="6" x="192.3" y="92.7047"/><rect fill="#FFFFFF" height="295.425" style="stroke:#181818;stroke-width:0.6;" width="6" x="339.3" y="177.8156"/><rect fill="#FFFFFF" height="278.3109" style="stroke:#181818;stroke-width:0.6;" width="6" x="515.7" y="194.9297"/><rect fill="#FFFFFF" height="17.1141" style="stroke:#181818;stroke-width:0.6;" width="6" x="720.9" y="212.0438"/><rect fill="#FFFFFF" height="17.1141" style="stroke:#181818;stroke-width:0.6;" width="6" x="811.2" y="260.3859"/><rect fill="#FFFFFF" height="20.7141" style="stroke:#181818;stroke-width:0.6;" width="6" x="882.6" y="336.9563"/><rect fill="#FFFFFF" height="20.7141" style="stroke:#181818;stroke-width:0.6;" width="6" x="882.6" y="401.4984"/><rect fill="none" height="201.4547" style="stroke:#000000;stroke-width:0.8999999999999999;" width="492" x="447.3" y="238.1578"/><rect fill="none" height="148.9125" style="stroke:#000000;stroke-width:0.8999999999999999;" width="480" x="453.3" y="286.5"/><rect fill="none" height="70.2563" style="stroke:#000000;stroke-width:0.8999999999999999;" width="468" x="459.3" y="300.6141"/><rect fill="none" height="51.9422" style="stroke:#000000;stroke-width:0.8999999999999999;" width="456" x="465.3" y="314.7281"/><rect fill="none" height="51.9422" style="stroke:#000000;stroke-width:0.8999999999999999;" width="456" x="465.3" y="379.2703"/><line style="stroke:#181818;stroke-width:0.3;stroke-dasharray:5.0,5.0;" x1="39.6" x2="39.6" y1="74.3906" y2="501.1547"/><line style="stroke:#181818;stroke-width:0.3;stroke-dasharray:5.0,5.0;" x1="195" x2="195" y1="74.3906" y2="501.1547"/><line style="stroke:#181818;stroke-width:0.3;stroke-dasharray:5.0,5.0;" x1="342" x2="342" y1="154.6172" y2="501.1547"/><line style="stroke:#181818;stroke-width:0.3;stroke-dasharray:5.0,5.0;" x1="518.7" x2="518.7" y1="74.3906" y2="501.1547"/><line style="stroke:#181818;stroke-width:0.3;stroke-dasharray:5.0,5.0;" x1="723.9" x2="723.9" y1="74.3906" y2="501.1547"/><line style="stroke:#181818;stroke-width:0.3;stroke-dasharray:5.0,5.0;" x1="813.9" x2="813.9" y1="74.3906" y2="501.1547"/><line style="stroke:#181818;stroke-width:0.3;stroke-dasharray:5.0,5.0;" x1="885.3" x2="885.3" y1="74.3906" y2="501.1547"/><text fill="#000000" font-family="FG Virgil" font-size="8.4" lengthAdjust="spacing" textLength="70.2" x="3" y="72.6105">CustomerManager</text><ellipse cx="39.9" cy="34.1062" fill="#ADD8E6" rx="4.8" ry="4.8" style="stroke:#181818;stroke-width:0.3;"/><path d="M39.9,38.9063 L39.9,55.1062 M32.1,43.7063 L47.7,43.7063 M39.9,55.1062 L32.1,64.1063 M39.9,55.1062 L47.7,64.1063 " fill="none" style="stroke:#181818;stroke-width:0.3;"/><text fill="#000000" font-family="FG Virgil" font-size="8.4" lengthAdjust="spacing" textLength="70.2" x="3" y="508.159">CustomerManager</text><ellipse cx="39.9" cy="515.0391" fill="#ADD8E6" rx="4.8" ry="4.8" style="stroke:#181818;stroke-width:0.3;"/><path d="M39.9,519.8391 L39.9,536.0391 M32.1,524.6391 L47.7,524.6391 M39.9,536.0391 L32.1,545.0391 M39.9,536.0391 L47.7,545.0391 " fill="none" style="stroke:#181818;stroke-width:0.3;"/><rect fill="#E2E2F0" height="27.1688" rx="1.5" ry="1.5" style="stroke:#181818;stroke-width:0.3;" width="73.8" x="158.4" y="46.6219"/><text fill="#000000" font-family="FG Virgil" font-size="8.4" font-style="italic" lengthAdjust="spacing" textLength="57" x="166.8" y="58.4262">&#171;presentation&#187;</text><text fill="#000000" font-family="FG Virgil" font-size="8.4" lengthAdjust="spacing" textLength="65.4" x="162.6" y="67.8105">:PublishResultsUI</text><rect fill="#E2E2F0" height="27.1688" rx="1.5" ry="1.5" style="stroke:#181818;stroke-width:0.3;" width="73.8" x="158.4" y="500.5547"/><text fill="#000000" font-family="FG Virgil" font-size="8.4" font-style="italic" lengthAdjust="spacing" textLength="57" x="166.8" y="512.359">&#171;presentation&#187;</text><text fill="#000000" font-family="FG Virgil" font-size="8.4" lengthAdjust="spacing" textLength="65.4" x="162.6" y="521.7434">:PublishResultsUI</text><rect fill="#E2E2F0" height="27.1688" rx="1.5" ry="1.5" style="stroke:#181818;stroke-width:0.3;" width="103.8" x="290.4" y="500.5547"/><text fill="#000000" font-family="FG Virgil" font-size="8.4" font-style="italic" lengthAdjust="spacing" textLength="50.4" x="317.1" y="512.359">&#171;application&#187;</text><text fill="#000000" font-family="FG Virgil" font-size="8.4" lengthAdjust="spacing" textLength="95.4" x="294.6" y="521.7434">:PublishResultsController</text><rect fill="#E2E2F0" height="27.1688" rx="1.5" ry="1.5" style="stroke:#181818;stroke-width:0.3;" width="94.8" x="471.3" y="46.6219"/><text fill="#000000" font-family="FG Virgil" font-size="8.4" font-style="italic" lengthAdjust="spacing" textLength="36" x="500.7" y="58.4262">&#171;service&#187;</text><text fill="#000000" font-family="FG Virgil" font-size="8.4" lengthAdjust="spacing" textLength="86.4" x="475.5" y="67.8105">:PublishResultsService</text><rect fill="#E2E2F0" height="27.1688" rx="1.5" ry="1.5" style="stroke:#181818;stroke-width:0.3;" width="94.8" x="471.3" y="500.5547"/><text fill="#000000" font-family="FG Virgil" font-size="8.4" font-style="italic" lengthAdjust="spacing" textLength="36" x="500.7" y="512.359">&#171;service&#187;</text><text fill="#000000" font-family="FG Virgil" font-size="8.4" lengthAdjust="spacing" textLength="86.4" x="475.5" y="521.7434">:PublishResultsService</text><rect fill="#E2E2F0" height="27.1688" rx="1.5" ry="1.5" style="stroke:#181818;stroke-width:0.3;" width="97.2" x="675.3" y="46.6219"/><text fill="#000000" font-family="FG Virgil" font-size="8.4" font-style="italic" lengthAdjust="spacing" textLength="47.4" x="700.2" y="58.4262">&#171;repository&#187;</text><text fill="#000000" font-family="FG Virgil" font-size="8.4" lengthAdjust="spacing" textLength="88.8" x="679.5" y="67.8105">:JobOpeningRepository</text><rect fill="#E2E2F0" height="27.1688" rx="1.5" ry="1.5" style="stroke:#181818;stroke-width:0.3;" width="97.2" x="675.3" y="500.5547"/><text fill="#000000" font-family="FG Virgil" font-size="8.4" font-style="italic" lengthAdjust="spacing" textLength="47.4" x="700.2" y="512.359">&#171;repository&#187;</text><text fill="#000000" font-family="FG Virgil" font-size="8.4" lengthAdjust="spacing" textLength="88.8" x="679.5" y="521.7434">:JobOpeningRepository</text><rect fill="#E2E2F0" height="27.1688" rx="1.5" ry="1.5" style="stroke:#181818;stroke-width:0.3;" width="71.4" x="778.5" y="46.6219"/><text fill="#000000" font-family="FG Virgil" font-size="8.4" font-style="italic" lengthAdjust="spacing" textLength="47.4" x="790.5" y="58.4262">&#171;repository&#187;</text><text fill="#000000" font-family="FG Virgil" font-size="8.4" lengthAdjust="spacing" textLength="63" x="782.7" y="67.8105">:RankRepository</text><rect fill="#E2E2F0" height="27.1688" rx="1.5" ry="1.5" style="stroke:#181818;stroke-width:0.3;" width="71.4" x="778.5" y="500.5547"/><text fill="#000000" font-family="FG Virgil" font-size="8.4" font-style="italic" lengthAdjust="spacing" textLength="47.4" x="790.5" y="512.359">&#171;repository&#187;</text><text fill="#000000" font-family="FG Virgil" font-size="8.4" lengthAdjust="spacing" textLength="63" x="782.7" y="521.7434">:RankRepository</text><rect fill="#E2E2F0" height="27.1688" rx="1.5" ry="1.5" style="stroke:#181818;stroke-width:0.3;" width="59.4" x="855.9" y="46.6219"/><text fill="#000000" font-family="FG Virgil" font-size="8.4" font-style="italic" lengthAdjust="spacing" textLength="36" x="867.6" y="58.4262">&#171;service&#187;</text><text fill="#000000" font-family="FG Virgil" font-size="8.4" lengthAdjust="spacing" textLength="51" x="860.1" y="67.8105">:EmailService</text><rect fill="#E2E2F0" height="27.1688" rx="1.5" ry="1.5" style="stroke:#181818;stroke-width:0.3;" width="59.4" x="855.9" y="500.5547"/><text fill="#000000" font-family="FG Virgil" font-size="8.4" font-style="italic" lengthAdjust="spacing" textLength="36" x="867.6" y="512.359">&#171;service&#187;</text><text fill="#000000" font-family="FG Virgil" font-size="8.4" lengthAdjust="spacing" textLength="51" x="860.1" y="521.7434">:EmailService</text><rect fill="#FFFFFF" height="415.3641" style="stroke:#181818;stroke-width:0.6;" width="6" x="36.9" y="80.3906"/><rect fill="#FFFFFF" height="397.65" style="stroke:#181818;stroke-width:0.6;" width="6" x="192.3" y="92.7047"/><rect fill="#FFFFFF" height="295.425" style="stroke:#181818;stroke-width:0.6;" width="6" x="339.3" y="177.8156"/><rect fill="#FFFFFF" height="278.3109" style="stroke:#181818;stroke-width:0.6;" width="6" x="515.7" y="194.9297"/><rect fill="#FFFFFF" height="17.1141" style="stroke:#181818;stroke-width:0.6;" width="6" x="720.9" y="212.0438"/><rect fill="#FFFFFF" height="17.1141" style="stroke:#181818;stroke-width:0.6;" width="6" x="811.2" y="260.3859"/><rect fill="#FFFFFF" height="20.7141" style="stroke:#181818;stroke-width:0.6;" width="6" x="882.6" y="336.9563"/><rect fill="#FFFFFF" height="20.7141" style="stroke:#181818;stroke-width:0.6;" width="6" x="882.6" y="401.4984"/><polygon fill="#181818" points="185.1,90.3047,191.1,92.7047,185.1,95.1047,187.5,92.7047" style="stroke:#181818;stroke-width:0.6;"/><line style="stroke:#181818;stroke-width:0.6;" x1="42.9" x2="188.7" y1="92.7047" y2="92.7047"/><text fill="#000000" font-family="FG Virgil" font-size="7.8" lengthAdjust="spacing" textLength="79.8" x="47.1" y="89.8518">Asks to publish results</text><polygon fill="#181818" points="49.5,107.4188,43.5,109.8188,49.5,112.2188,47.1,109.8188" style="stroke:#181818;stroke-width:0.6;"/><line style="stroke:#181818;stroke-width:0.6;stroke-dasharray:2.0,2.0;" x1="45.9" x2="191.7" y1="109.8188" y2="109.8188"/><text fill="#000000" font-family="FG Virgil" font-size="7.8" lengthAdjust="spacing" textLength="135" x="53.1" y="106.9658">Ask for job reference of the job opening</text><polygon fill="#181818" points="185.1,124.5328,191.1,126.9328,185.1,129.3328,187.5,126.9328" style="stroke:#181818;stroke-width:0.6;"/><line style="stroke:#181818;stroke-width:0.6;" x1="42.9" x2="188.7" y1="126.9328" y2="126.9328"/><text fill="#000000" font-family="FG Virgil" font-size="7.8" lengthAdjust="spacing" textLength="131.4" x="47.1" y="124.0799">Types job reference of the job opening</text><polygon fill="#181818" points="283.2,141.6469,289.2,144.0469,283.2,146.4469,285.6,144.0469" style="stroke:#181818;stroke-width:0.6;"/><line style="stroke:#181818;stroke-width:0.6;" x1="198.3" x2="286.8" y1="144.0469" y2="144.0469"/><text fill="#000000" font-family="FG Virgil" font-size="7.8" lengthAdjust="spacing" textLength="21.6" x="202.5" y="141.1939">create</text><rect fill="#E2E2F0" height="27.1688" rx="1.5" ry="1.5" style="stroke:#181818;stroke-width:0.3;" width="103.8" x="290.4" y="131.7328"/><text fill="#000000" font-family="FG Virgil" font-size="8.4" font-style="italic" lengthAdjust="spacing" textLength="50.4" x="317.1" y="143.5371">&#171;application&#187;</text><text fill="#000000" font-family="FG Virgil" font-size="8.4" lengthAdjust="spacing" textLength="95.4" x="294.6" y="152.9215">:PublishResultsController</text><polygon fill="#181818" points="332.1,175.4156,338.1,177.8156,332.1,180.2156,334.5,177.8156" style="stroke:#181818;stroke-width:0.6;"/><line style="stroke:#181818;stroke-width:0.6;" x1="198.3" x2="335.7" y1="177.8156" y2="177.8156"/><text fill="#000000" font-family="FG Virgil" font-size="7.8" lengthAdjust="spacing" textLength="129.6" x="202.5" y="174.9627">publishResults(jobOpeningReference)</text><polygon fill="#181818" points="508.5,192.5297,514.5,194.9297,508.5,197.3297,510.9,194.9297" style="stroke:#181818;stroke-width:0.6;"/><line style="stroke:#181818;stroke-width:0.6;" x1="345.3" x2="512.1" y1="194.9297" y2="194.9297"/><text fill="#000000" font-family="FG Virgil" font-size="7.8" lengthAdjust="spacing" textLength="159" x="349.5" y="192.0768">notifyCandidatesAndCustomers(jobReference)</text><polygon fill="#181818" points="713.7,209.6437,719.7,212.0438,713.7,214.4438,716.1,212.0438" style="stroke:#181818;stroke-width:0.6;"/><line style="stroke:#181818;stroke-width:0.6;" x1="521.7" x2="717.3" y1="212.0438" y2="212.0438"/><text fill="#000000" font-family="FG Virgil" font-size="7.8" lengthAdjust="spacing" textLength="170.4" x="525.9" y="209.1908">findJobOpeningsByPhase(PhaseType.RESULTS)</text><polygon fill="#181818" points="528.3,226.7578,522.3,229.1578,528.3,231.5578,525.9,229.1578" style="stroke:#181818;stroke-width:0.6;"/><line style="stroke:#181818;stroke-width:0.6;stroke-dasharray:2.0,2.0;" x1="524.7" x2="723.3" y1="229.1578" y2="229.1578"/><text fill="#000000" font-family="FG Virgil" font-size="7.8" lengthAdjust="spacing" textLength="67.2" x="531.9" y="226.3049">List&lt;JobOpenings&gt;</text><path d="M447.3,238.1578 L491.1,238.1578 L491.1,242.0719 L485.1,248.0719 L447.3,248.0719 L447.3,238.1578 " fill="#EEEEEE" style="stroke:#000000;stroke-width:0.8999999999999999;"/><rect fill="none" height="201.4547" style="stroke:#000000;stroke-width:0.8999999999999999;" width="492" x="447.3" y="238.1578"/><text fill="#000000" font-family="FG Virgil" font-size="7.8" font-weight="bold" lengthAdjust="spacing" textLength="16.8" x="456.3" y="245.8189">loop</text><text fill="#000000" font-family="FG Virgil" font-size="6.6" font-weight="bold" lengthAdjust="spacing" textLength="69.6" x="500.1" y="245.3326">[foreach jobOpening]</text><polygon fill="#181818" points="804,257.9859,810,260.3859,804,262.7859,806.4,260.3859" style="stroke:#181818;stroke-width:0.6;"/><line style="stroke:#181818;stroke-width:0.6;" x1="521.7" x2="807.6" y1="260.3859" y2="260.3859"/><text fill="#000000" font-family="FG Virgil" font-size="7.8" lengthAdjust="spacing" textLength="25.8" x="525.9" y="257.533">findAll()</text><polygon fill="#181818" points="528.3,275.1,522.3,277.5,528.3,279.9,525.9,277.5" style="stroke:#181818;stroke-width:0.6;"/><line style="stroke:#181818;stroke-width:0.6;stroke-dasharray:2.0,2.0;" x1="524.7" x2="813.6" y1="277.5" y2="277.5"/><text fill="#000000" font-family="FG Virgil" font-size="7.8" lengthAdjust="spacing" textLength="40.2" x="531.9" y="274.6471">List&lt;Rank&gt;</text><path d="M453.3,286.5 L497.1,286.5 L497.1,290.4141 L491.1,296.4141 L453.3,296.4141 L453.3,286.5 " fill="#EEEEEE" style="stroke:#000000;stroke-width:0.8999999999999999;"/><rect fill="none" height="148.9125" style="stroke:#000000;stroke-width:0.8999999999999999;" width="480" x="453.3" y="286.5"/><text fill="#000000" font-family="FG Virgil" font-size="7.8" font-weight="bold" lengthAdjust="spacing" textLength="16.8" x="462.3" y="294.1611">loop</text><text fill="#000000" font-family="FG Virgil" font-size="6.6" font-weight="bold" lengthAdjust="spacing" textLength="57" x="506.1" y="293.6748">[foreach ranking]</text><path d="M459.3,300.6141 L503.1,300.6141 L503.1,304.5281 L497.1,310.5281 L459.3,310.5281 L459.3,300.6141 " fill="#EEEEEE" style="stroke:#000000;stroke-width:0.8999999999999999;"/><rect fill="none" height="70.2563" style="stroke:#000000;stroke-width:0.8999999999999999;" width="468" x="459.3" y="300.6141"/><text fill="#000000" font-family="FG Virgil" font-size="7.8" font-weight="bold" lengthAdjust="spacing" textLength="16.8" x="468.3" y="308.2752">loop</text><text fill="#000000" font-family="FG Virgil" font-size="6.6" font-weight="bold" lengthAdjust="spacing" textLength="50.4" x="512.1" y="307.7889">[foreach order]</text><path d="M465.3,314.7281 L501.9,314.7281 L501.9,318.6422 L495.9,324.6422 L465.3,324.6422 L465.3,314.7281 " fill="#EEEEEE" style="stroke:#000000;stroke-width:0.8999999999999999;"/><rect fill="none" height="51.9422" style="stroke:#000000;stroke-width:0.8999999999999999;" width="456" x="465.3" y="314.7281"/><text fill="#000000" font-family="FG Virgil" font-size="7.8" font-weight="bold" lengthAdjust="spacing" textLength="9.6" x="474.3" y="322.3893">alt</text><text fill="#000000" font-family="FG Virgil" font-size="6.6" font-weight="bold" lengthAdjust="spacing" textLength="61.2" x="510.9" y="321.9029">[if   order   !=   null]</text><polygon fill="#181818" points="875.4,334.5563,881.4,336.9563,875.4,339.3563,877.8,336.9563" style="stroke:#181818;stroke-width:0.6;"/><line style="stroke:#181818;stroke-width:0.6;" x1="521.7" x2="879" y1="336.9563" y2="336.9563"/><text fill="#000000" font-family="FG Virgil" font-size="7.8" lengthAdjust="spacing" textLength="156.6" x="525.9" y="334.1033">sendEmail(candidateEmail,subject,message)</text><line style="stroke:#181818;stroke-width:0.6;" x1="521.7" x2="546.9" y1="357.0703" y2="357.0703"/><line style="stroke:#181818;stroke-width:0.6;" x1="546.9" x2="546.9" y1="357.0703" y2="364.8703"/><line style="stroke:#181818;stroke-width:0.6;" x1="518.7" x2="546.9" y1="364.8703" y2="364.8703"/><polygon fill="#181818" points="524.7,362.4703,518.7,364.8703,524.7,367.2703,522.3,364.8703" style="stroke:#181818;stroke-width:0.6;"/><text fill="#000000" font-family="FG Virgil" font-size="7.8" lengthAdjust="spacing" textLength="187.2" x="525.9" y="354.2174">saveEmailMessage(candidateEmail,subject,message)</text><path d="M465.3,379.2703 L501.9,379.2703 L501.9,383.1844 L495.9,389.1844 L465.3,389.1844 L465.3,379.2703 " fill="#EEEEEE" style="stroke:#000000;stroke-width:0.8999999999999999;"/><rect fill="none" height="51.9422" style="stroke:#000000;stroke-width:0.8999999999999999;" width="456" x="465.3" y="379.2703"/><text fill="#000000" font-family="FG Virgil" font-size="7.8" font-weight="bold" lengthAdjust="spacing" textLength="9.6" x="474.3" y="386.9314">alt</text><text fill="#000000" font-family="FG Virgil" font-size="6.6" font-weight="bold" lengthAdjust="spacing" textLength="97.8" x="510.9" y="386.4451">[if candidates were accepted]</text><polygon fill="#181818" points="875.4,399.0984,881.4,401.4984,875.4,403.8984,877.8,401.4984" style="stroke:#181818;stroke-width:0.6;"/><line style="stroke:#181818;stroke-width:0.6;" x1="521.7" x2="879" y1="401.4984" y2="401.4984"/><text fill="#000000" font-family="FG Virgil" font-size="7.8" lengthAdjust="spacing" textLength="160.2" x="525.9" y="398.6455">sendEmail(customerEmail, subject, message)</text><line style="stroke:#181818;stroke-width:0.6;" x1="521.7" x2="546.9" y1="421.6125" y2="421.6125"/><line style="stroke:#181818;stroke-width:0.6;" x1="546.9" x2="546.9" y1="421.6125" y2="429.4125"/><line style="stroke:#181818;stroke-width:0.6;" x1="518.7" x2="546.9" y1="429.4125" y2="429.4125"/><polygon fill="#181818" points="524.7,427.0125,518.7,429.4125,524.7,431.8125,522.3,429.4125" style="stroke:#181818;stroke-width:0.6;"/><text fill="#000000" font-family="FG Virgil" font-size="7.8" lengthAdjust="spacing" textLength="190.8" x="525.9" y="418.7596">saveEmailMessage(customerEmail, subject, message)</text><polygon fill="#181818" points="351.9,453.7266,345.9,456.1266,351.9,458.5266,349.5,456.1266" style="stroke:#181818;stroke-width:0.6;"/><line style="stroke:#181818;stroke-width:0.6;stroke-dasharray:2.0,2.0;" x1="348.3" x2="515.1" y1="456.1266" y2="456.1266"/><text fill="#000000" font-family="FG Virgil" font-size="7.8" lengthAdjust="spacing" textLength="42" x="355.5" y="453.2736">confirmation</text><polygon fill="#181818" points="204.9,470.8406,198.9,473.2406,204.9,475.6406,202.5,473.2406" style="stroke:#181818;stroke-width:0.6;"/><line style="stroke:#181818;stroke-width:0.6;stroke-dasharray:2.0,2.0;" x1="201.3" x2="341.7" y1="473.2406" y2="473.2406"/><text fill="#000000" font-family="FG Virgil" font-size="7.8" lengthAdjust="spacing" textLength="42" x="208.5" y="470.3877">confirmation</text><polygon fill="#181818" points="49.5,487.9547,43.5,490.3547,49.5,492.7547,47.1,490.3547" style="stroke:#181818;stroke-width:0.6;"/><line style="stroke:#181818;stroke-width:0.6;stroke-dasharray:2.0,2.0;" x1="45.9" x2="194.7" y1="490.3547" y2="490.3547"/><text fill="#000000" font-family="FG Virgil" font-size="7.8" lengthAdjust="spacing" textLength="111.6" x="53.1" y="487.5018">displays operation info message</text><!--SRC=[hLN1Kjim4BthAxRqqC00eHmzQMPI2Xqwq389wLsnrx68BAcI39D-VTTo7CjDIZZqObjQlRVxTbThBxn463dn6vFBY_4CVrMeKeGlWYyjB-7ZnUN5Q5YRnunzABmtoN1e95U-AkLvgikXMmbbE9qzBtmfsNO9fLOwBQmk4N8k7KOcmzCLN-BChycvnTH7jWnpNab_evN_pWbxynL-2hiKCRKhUAPVX5fkc1bFlRPmLJbFxkmzLyHkWJkO1CDxAPQ5NyWA6H5uaGf32k0eUQWMKhXYYevSkldjKOsPty9eP2mwL9vxeTLu_2hiYaArMagq0TujYOOR8qNw5fOPscUHOg3OV1FUDLyxs6zwySEWeXHCqMWdIEKwGFSPYCTk5pjKKwvMVv7ODqAlIova77YyqOk-hf1uvXwRYh2cBcVZEja9JDpAWTTWceoG_v2I3ZI_POnEdX4W80C4Sg9uqWiwdgCDRQjpy0M6JTra8VQKmEFQe3kCgLsDeqAUd2IGMgH8TamKlUdLSV0KLM3ZuxXJqY5PH4AKRTOIKDgBV7t5LIOoWhY9ojhE3kpxQ3TenbeQOjpN2aakLDOPtEVrGy4T3iAppixvz7esltkSHTpxU1ZRssXddP3aJZW_YboDMOO7EANMfgugdIkWosDFLTIR2THg9b8EZgC6in6XtHiQ0KDmTUVtehB_YiNIoH18RrVRZCh8fGUH0pHBUh_xH0zLISbwWSTt8w7PaeMDGThMEInFNRLuee5uMg9pDCIYCiJucBUb1CUV6vBx1dkGEbBU8wVOW5I5TosOjHgtX0vUg0M1foaQZzcRT6vQk8a5sc3WlmWznCrUrHeqxehUkkvTU9e4MkN2bc6ezoxnPiZqxB7ZxIMDzg9vq9jmrAEPSFIdNRjwBDd01aBbkbKLiz1y_0C0]--></g></svg>