<?xml version="1.0" encoding="us-ascii" standalone="no"?><svg xmlns="http://www.w3.org/2000/svg" xmlns:xlink="http://www.w3.org/1999/xlink" contentStyleType="text/css" height="754px" preserveAspectRatio="none" style="width:1169px;height:754px;background:#FFFFFF;" version="1.1" viewBox="0 0 1169 754" width="1169px" zoomAndPan="magnify"><defs/><g><text fill="#000000" font-family="FG Virgil" font-size="20" font-weight="bold" lengthAdjust="spacing" textLength="284" x="441.75" y="34.3359">Sequence Diagram US 1008</text><rect fill="#FFFFFF" height="519.6113" style="stroke:#181818;stroke-width:1.0;" width="10" x="67" y="136.043"/><rect fill="#FFFFFF" height="498.3008" style="stroke:#181818;stroke-width:1.0;" width="10" x="336" y="157.3535"/><rect fill="#FFFFFF" height="292.4609" style="stroke:#181818;stroke-width:1.0;" width="10" x="645" y="333.8828"/><rect fill="#FFFFFF" height="29.3105" style="stroke:#181818;stroke-width:1.0;" width="10" x="1091.5" y="567.7227"/><line style="stroke:#181818;stroke-width:0.5;stroke-dasharray:5.0,5.0;" x1="72" x2="72" y1="126.043" y2="673.6543"/><line style="stroke:#181818;stroke-width:0.5;stroke-dasharray:5.0,5.0;" x1="340.5" x2="340.5" y1="126.043" y2="673.6543"/><line style="stroke:#181818;stroke-width:0.5;stroke-dasharray:5.0,5.0;" x1="649.5" x2="649.5" y1="204.3418" y2="673.6543"/><line style="stroke:#181818;stroke-width:0.5;stroke-dasharray:5.0,5.0;" x1="966.5" x2="966.5" y1="380.8711" y2="673.6543"/><line style="stroke:#181818;stroke-width:0.5;stroke-dasharray:5.0,5.0;" x1="1096.5" x2="1096.5" y1="126.043" y2="673.6543"/><text fill="#000000" font-family="FG Virgil" font-size="14" lengthAdjust="spacing" textLength="128" x="5" y="123.0898">LanguageEngineer</text><ellipse cx="72" cy="58.0547" fill="#ADD8E6" rx="8" ry="8" style="stroke:#181818;stroke-width:0.5;"/><path d="M72,66.0547 L72,93.0547 M59,74.0547 L85,74.0547 M72,93.0547 L59,108.0547 M72,93.0547 L85,108.0547 " fill="none" style="stroke:#181818;stroke-width:0.5;"/><text fill="#000000" font-family="FG Virgil" font-size="14" lengthAdjust="spacing" textLength="128" x="5" y="686.1895">LanguageEngineer</text><ellipse cx="72" cy="697.6426" fill="#ADD8E6" rx="8" ry="8" style="stroke:#181818;stroke-width:0.5;"/><path d="M72,705.6426 L72,732.6426 M59,713.6426 L85,713.6426 M72,732.6426 L59,747.6426 M72,732.6426 L85,747.6426 " fill="none" style="stroke:#181818;stroke-width:0.5;"/><rect fill="#E2E2F0" height="46.9766" rx="2.5" ry="2.5" style="stroke:#181818;stroke-width:0.5;" width="115" x="283.5" y="78.0664"/><text fill="#000000" font-family="FG Virgil" font-size="14" font-style="italic" lengthAdjust="spacing" textLength="101" x="290.5" y="98.6016">&#171;presentation&#187;</text><text fill="#000000" font-family="FG Virgil" font-size="14" lengthAdjust="spacing" textLength="18" x="332" y="115.0898">:UI</text><rect fill="#E2E2F0" height="46.9766" rx="2.5" ry="2.5" style="stroke:#181818;stroke-width:0.5;" width="115" x="283.5" y="672.6543"/><text fill="#000000" font-family="FG Virgil" font-size="14" font-style="italic" lengthAdjust="spacing" textLength="101" x="290.5" y="693.1895">&#171;presentation&#187;</text><text fill="#000000" font-family="FG Virgil" font-size="14" lengthAdjust="spacing" textLength="18" x="332" y="709.6777">:UI</text><rect fill="#E2E2F0" height="46.9766" rx="2.5" ry="2.5" style="stroke:#181818;stroke-width:0.5;" width="131" x="584.5" y="672.6543"/><text fill="#000000" font-family="FG Virgil" font-size="14" font-style="italic" lengthAdjust="spacing" textLength="90" x="605" y="693.1895">&#171;application&#187;</text><text fill="#000000" font-family="FG Virgil" font-size="14" lengthAdjust="spacing" textLength="117" x="591.5" y="709.6777">:PluginController</text><rect fill="#E2E2F0" height="46.9766" rx="2.5" ry="2.5" style="stroke:#181818;stroke-width:0.5;" width="105" x="914.5" y="672.6543"/><text fill="#000000" font-family="FG Virgil" font-size="14" font-style="italic" lengthAdjust="spacing" textLength="66" x="934" y="693.1895">&#171;domain&#187;</text><text fill="#000000" font-family="FG Virgil" font-size="14" lengthAdjust="spacing" textLength="91" x="921.5" y="709.6777">plugin:Plugin</text><rect fill="#E2E2F0" height="46.9766" rx="2.5" ry="2.5" style="stroke:#181818;stroke-width:0.5;" width="134" x="1029.5" y="78.0664"/><text fill="#000000" font-family="FG Virgil" font-size="14" font-style="italic" lengthAdjust="spacing" textLength="84" x="1054.5" y="98.6016">&#171;repository&#187;</text><text fill="#000000" font-family="FG Virgil" font-size="14" lengthAdjust="spacing" textLength="120" x="1036.5" y="115.0898">:PluginRepository</text><rect fill="#E2E2F0" height="46.9766" rx="2.5" ry="2.5" style="stroke:#181818;stroke-width:0.5;" width="134" x="1029.5" y="672.6543"/><text fill="#000000" font-family="FG Virgil" font-size="14" font-style="italic" lengthAdjust="spacing" textLength="84" x="1054.5" y="693.1895">&#171;repository&#187;</text><text fill="#000000" font-family="FG Virgil" font-size="14" lengthAdjust="spacing" textLength="120" x="1036.5" y="709.6777">:PluginRepository</text><rect fill="#FFFFFF" height="519.6113" style="stroke:#181818;stroke-width:1.0;" width="10" x="67" y="136.043"/><rect fill="#FFFFFF" height="498.3008" style="stroke:#181818;stroke-width:1.0;" width="10" x="336" y="157.3535"/><rect fill="#FFFFFF" height="292.4609" style="stroke:#181818;stroke-width:1.0;" width="10" x="645" y="333.8828"/><rect fill="#FFFFFF" height="29.3105" style="stroke:#181818;stroke-width:1.0;" width="10" x="1091.5" y="567.7227"/><polygon fill="#181818" points="324,153.3535,334,157.3535,324,161.3535,328,157.3535" style="stroke:#181818;stroke-width:1.0;"/><line style="stroke:#181818;stroke-width:1.0;" x1="77" x2="330" y1="157.3535" y2="157.3535"/><text fill="#000000" font-family="FG Virgil" font-size="13" lengthAdjust="spacing" textLength="240" x="84" y="152.6113">Asks to deploy and configure a plugin</text><polygon fill="#181818" points="572.5,182.6641,582.5,186.6641,572.5,190.6641,576.5,186.6641" style="stroke:#181818;stroke-width:1.0;"/><line style="stroke:#181818;stroke-width:1.0;" x1="346" x2="578.5" y1="186.6641" y2="186.6641"/><text fill="#000000" font-family="FG Virgil" font-size="13" lengthAdjust="spacing" textLength="38" x="353" y="181.9219">create</text><rect fill="#E2E2F0" height="46.9766" rx="2.5" ry="2.5" style="stroke:#181818;stroke-width:0.5;" width="131" x="584.5" y="165.3535"/><text fill="#000000" font-family="FG Virgil" font-size="14" font-style="italic" lengthAdjust="spacing" textLength="90" x="605" y="185.8887">&#171;application&#187;</text><text fill="#000000" font-family="FG Virgil" font-size="14" lengthAdjust="spacing" textLength="117" x="591.5" y="202.377">:PluginController</text><polygon fill="#181818" points="88,255.9512,78,259.9512,88,263.9512,84,259.9512" style="stroke:#181818;stroke-width:1.0;"/><line style="stroke:#181818;stroke-width:1.0;stroke-dasharray:2.0,2.0;" x1="82" x2="335" y1="259.9512" y2="259.9512"/><text fill="#000000" font-family="FG Virgil" font-size="13" lengthAdjust="spacing" textLength="198" x="94" y="239.8984">Requests the name, description</text><text fill="#000000" font-family="FG Virgil" font-size="13" lengthAdjust="spacing" textLength="232" x="94" y="255.209">and className to register the plugin</text><polygon fill="#181818" points="324,300.5723,334,304.5723,324,308.5723,328,304.5723" style="stroke:#181818;stroke-width:1.0;"/><line style="stroke:#181818;stroke-width:1.0;" x1="77" x2="330" y1="304.5723" y2="304.5723"/><text fill="#000000" font-family="FG Virgil" font-size="13" lengthAdjust="spacing" textLength="187" x="84" y="284.5195">Provide the name, description</text><text fill="#000000" font-family="FG Virgil" font-size="13" lengthAdjust="spacing" textLength="185" x="84" y="299.8301">and className for the plugin</text><polygon fill="#181818" points="633,329.8828,643,333.8828,633,337.8828,637,333.8828" style="stroke:#181818;stroke-width:1.0;"/><line style="stroke:#181818;stroke-width:1.0;" x1="346" x2="639" y1="333.8828" y2="333.8828"/><text fill="#000000" font-family="FG Virgil" font-size="13" lengthAdjust="spacing" textLength="280" x="353" y="329.1406">registerPlugin(name, description, className</text><polygon fill="#181818" points="902.5,359.1934,912.5,363.1934,902.5,367.1934,906.5,363.1934" style="stroke:#181818;stroke-width:1.0;"/><line style="stroke:#181818;stroke-width:1.0;" x1="655" x2="908.5" y1="363.1934" y2="363.1934"/><text fill="#000000" font-family="FG Virgil" font-size="13" lengthAdjust="spacing" textLength="38" x="662" y="358.4512">create</text><rect fill="#E2E2F0" height="46.9766" rx="2.5" ry="2.5" style="stroke:#181818;stroke-width:0.5;" width="105" x="914.5" y="341.8828"/><text fill="#000000" font-family="FG Virgil" font-size="14" font-style="italic" lengthAdjust="spacing" textLength="66" x="934" y="362.418">&#171;domain&#187;</text><text fill="#000000" font-family="FG Virgil" font-size="14" lengthAdjust="spacing" textLength="91" x="921.5" y="378.9063">plugin:Plugin</text><polygon fill="#181818" points="955,417.1699,965,421.1699,955,425.1699,959,421.1699" style="stroke:#181818;stroke-width:1.0;"/><line style="stroke:#181818;stroke-width:1.0;" x1="655" x2="961" y1="421.1699" y2="421.1699"/><text fill="#000000" font-family="FG Virgil" font-size="13" lengthAdjust="spacing" textLength="97" x="662" y="416.4277">setName(name)</text><polygon fill="#181818" points="955,446.4805,965,450.4805,955,454.4805,959,450.4805" style="stroke:#181818;stroke-width:1.0;"/><line style="stroke:#181818;stroke-width:1.0;" x1="655" x2="961" y1="450.4805" y2="450.4805"/><text fill="#000000" font-family="FG Virgil" font-size="13" lengthAdjust="spacing" textLength="171" x="662" y="445.7383">setDescription(description)</text><polygon fill="#181818" points="955,475.791,965,479.791,955,483.791,959,479.791" style="stroke:#181818;stroke-width:1.0;"/><line style="stroke:#181818;stroke-width:1.0;" x1="655" x2="961" y1="479.791" y2="479.791"/><text fill="#000000" font-family="FG Virgil" font-size="13" lengthAdjust="spacing" textLength="165" x="662" y="475.0488">setClassName(className)</text><polygon fill="#181818" points="955,505.1016,965,509.1016,955,513.1016,959,509.1016" style="stroke:#181818;stroke-width:1.0;"/><line style="stroke:#181818;stroke-width:1.0;" x1="655" x2="961" y1="509.1016" y2="509.1016"/><text fill="#000000" font-family="FG Virgil" font-size="13" lengthAdjust="spacing" textLength="288" x="662" y="504.3594">registerPlugin(name, description, (className)</text><polygon fill="#181818" points="666,534.4121,656,538.4121,666,542.4121,662,538.4121" style="stroke:#181818;stroke-width:1.0;"/><line style="stroke:#181818;stroke-width:1.0;stroke-dasharray:2.0,2.0;" x1="660" x2="966" y1="538.4121" y2="538.4121"/><text fill="#000000" font-family="FG Virgil" font-size="13" lengthAdjust="spacing" textLength="40" x="672" y="533.6699">plugin</text><polygon fill="#181818" points="1079.5,563.7227,1089.5,567.7227,1079.5,571.7227,1083.5,567.7227" style="stroke:#181818;stroke-width:1.0;"/><line style="stroke:#181818;stroke-width:1.0;" x1="655" x2="1085.5" y1="567.7227" y2="567.7227"/><text fill="#000000" font-family="FG Virgil" font-size="13" lengthAdjust="spacing" textLength="75" x="662" y="562.9805">savePlugin()</text><polygon fill="#181818" points="666,593.0332,656,597.0332,666,601.0332,662,597.0332" style="stroke:#181818;stroke-width:1.0;"/><line style="stroke:#181818;stroke-width:1.0;stroke-dasharray:2.0,2.0;" x1="660" x2="1095.5" y1="597.0332" y2="597.0332"/><text fill="#000000" font-family="FG Virgil" font-size="13" lengthAdjust="spacing" textLength="40" x="672" y="592.291">plugin</text><polygon fill="#181818" points="357,622.3438,347,626.3438,357,630.3438,353,626.3438" style="stroke:#181818;stroke-width:1.0;"/><line style="stroke:#181818;stroke-width:1.0;stroke-dasharray:2.0,2.0;" x1="351" x2="649" y1="626.3438" y2="626.3438"/><text fill="#000000" font-family="FG Virgil" font-size="13" lengthAdjust="spacing" textLength="40" x="363" y="621.6016">plugin</text><polygon fill="#181818" points="83,651.6543,73,655.6543,83,659.6543,79,655.6543" style="stroke:#181818;stroke-width:1.0;"/><line style="stroke:#181818;stroke-width:1.0;stroke-dasharray:2.0,2.0;" x1="77" x2="340" y1="655.6543" y2="655.6543"/><text fill="#000000" font-family="FG Virgil" font-size="13" lengthAdjust="spacing" textLength="157" x="89" y="650.9121">displayOperationSuccess</text><!--SRC=[ZLNRKjim47ttL-pGby0G6Yvb64_6KqgW4qfQ1YVfIr-4lN4qo98goM7Ih-_wbZXnWFZDgxDdpzuaWE9pt0c4lkN_q3_h1I7-pL1620FE4iDIc8HmskjTzJ_dYC3pIY-mBrngbWDI9LKqDof5c35XiOtGB7fX2OPkIP4CHguDYN76Ck7kb7G_6J7TVOSfDmaNRQYTirYzSfbKuMe4YvmoyC1aab6mMvbmYMY0MRWkJZu9dipTiyXM2edFyOXh9XqS-9FXGGwU3A7VrmOjIiSSLp88TkCVHKOXRaYnKKAWARpNlyJ2j1OyUez45nmLLK5GMiWvLYdZ7mH_Ggqif-IMXQ-XN_8qAsiGDAl35ynXMOpQMbQc6r3MFbpR5mjEKI-qK4jWCeP8oHbFCeF0AcKjlicmDb7bYAbHWQCZ7oA3XAeXDOnmHMWVdl9viuu2pn4ajVwOujl8S9sN3Vx8GePWrXPpGV8C9jmweiyzDaMrKdeqQi5Zt9DyfjuYtKxDNwae6z5faH-lUPj4gxAjkPh7ZU9Hl6eMTfTn5zG7YyN-57eEzu8Frfex3VtxET_KENPMsMuulktySVtUeQmAqztgIRjlxVZvSf1qji0gSejyrQ8SkdsOVyMQxHSxndVPcjAgYMtpD3Xs3ytcGiNSQi6MlpIQukO9ioX2Qxqsstfp6yQDw-4hoZXBXUSz2hfs9gC7MA2n-UgSdfprpYvEBZeXSt2j3VGkuVIBVtvERmZylWt7a9yVUftHS0nMPOPU55Bc37_Eol6wPmi6JvbqF4KVIAwy7_oe3N0h5zmecT8bxDrFHsl0vKNt6tSGeY4fC1rvW_Bb88z8nVGg-30PttMllFeXy06bTwE8ropfGXZ_1m00]--></g></svg>