<?xml version="1.0" encoding="us-ascii" standalone="no"?><svg xmlns="http://www.w3.org/2000/svg" xmlns:xlink="http://www.w3.org/1999/xlink" contentStyleType="text/css" height="800px" preserveAspectRatio="none" style="width:1268px;height:800px;background:#FFFFFF;" version="1.1" viewBox="0 0 1268 800" width="1268px" zoomAndPan="magnify"><defs/><g><text fill="#000000" font-family="FG Virgil" font-size="20" font-weight="bold" lengthAdjust="spacing" textLength="594" x="336.25" y="34.3359">Sequence Diagram US 1008 - Requirements Specification</text><rect fill="#FFFFFF" height="565.543" style="stroke:#181818;stroke-width:1.0;" width="10" x="67" y="136.043"/><rect fill="#FFFFFF" height="528.9219" style="stroke:#181818;stroke-width:1.0;" width="10" x="358" y="172.6641"/><rect fill="#FFFFFF" height="307.7715" style="stroke:#181818;stroke-width:1.0;" width="10" x="641" y="364.5039"/><rect fill="#FFFFFF" height="29.3105" style="stroke:#181818;stroke-width:1.0;" width="10" x="1187" y="613.6543"/><line style="stroke:#181818;stroke-width:0.5;stroke-dasharray:5.0,5.0;" x1="72" x2="72" y1="126.043" y2="719.5859"/><line style="stroke:#181818;stroke-width:0.5;stroke-dasharray:5.0,5.0;" x1="362.5" x2="362.5" y1="126.043" y2="719.5859"/><line style="stroke:#181818;stroke-width:0.5;stroke-dasharray:5.0,5.0;" x1="646" x2="646" y1="219.6523" y2="719.5859"/><line style="stroke:#181818;stroke-width:0.5;stroke-dasharray:5.0,5.0;" x1="928.5" x2="928.5" y1="411.4922" y2="719.5859"/><line style="stroke:#181818;stroke-width:0.5;stroke-dasharray:5.0,5.0;" x1="1191.5" x2="1191.5" y1="126.043" y2="719.5859"/><text fill="#000000" font-family="FG Virgil" font-size="14" lengthAdjust="spacing" textLength="128" x="5" y="123.0898">LanguageEngineer</text><ellipse cx="72" cy="58.0547" fill="#ADD8E6" rx="8" ry="8" style="stroke:#181818;stroke-width:0.5;"/><path d="M72,66.0547 L72,93.0547 M59,74.0547 L85,74.0547 M72,93.0547 L59,108.0547 M72,93.0547 L85,108.0547 " fill="none" style="stroke:#181818;stroke-width:0.5;"/><text fill="#000000" font-family="FG Virgil" font-size="14" lengthAdjust="spacing" textLength="128" x="5" y="732.1211">LanguageEngineer</text><ellipse cx="72" cy="743.5742" fill="#ADD8E6" rx="8" ry="8" style="stroke:#181818;stroke-width:0.5;"/><path d="M72,751.5742 L72,778.5742 M59,759.5742 L85,759.5742 M72,778.5742 L59,793.5742 M72,778.5742 L85,793.5742 " fill="none" style="stroke:#181818;stroke-width:0.5;"/><rect fill="#E2E2F0" height="46.9766" rx="2.5" ry="2.5" style="stroke:#181818;stroke-width:0.5;" width="131" x="297.5" y="78.0664"/><text fill="#000000" font-family="FG Virgil" font-size="14" font-style="italic" lengthAdjust="spacing" textLength="101" x="312.5" y="98.6016">&#171;presentation&#187;</text><text fill="#000000" font-family="FG Virgil" font-size="14" lengthAdjust="spacing" textLength="117" x="304.5" y="115.0898">:RegisterPluginUI</text><rect fill="#E2E2F0" height="46.9766" rx="2.5" ry="2.5" style="stroke:#181818;stroke-width:0.5;" width="131" x="297.5" y="718.5859"/><text fill="#000000" font-family="FG Virgil" font-size="14" font-style="italic" lengthAdjust="spacing" textLength="101" x="312.5" y="739.1211">&#171;presentation&#187;</text><text fill="#000000" font-family="FG Virgil" font-size="14" lengthAdjust="spacing" textLength="117" x="304.5" y="755.6094">:RegisterPluginUI</text><rect fill="#E2E2F0" height="46.9766" rx="2.5" ry="2.5" style="stroke:#181818;stroke-width:0.5;" width="176" x="558" y="718.5859"/><text fill="#000000" font-family="FG Virgil" font-size="14" font-style="italic" lengthAdjust="spacing" textLength="90" x="601" y="739.1211">&#171;application&#187;</text><text fill="#000000" font-family="FG Virgil" font-size="14" lengthAdjust="spacing" textLength="162" x="565" y="755.6094">:RequirementController</text><rect fill="#E2E2F0" height="46.9766" rx="2.5" ry="2.5" style="stroke:#181818;stroke-width:0.5;" width="365" x="746.5" y="718.5859"/><text fill="#000000" font-family="FG Virgil" font-size="14" font-style="italic" lengthAdjust="spacing" textLength="66" x="896" y="739.1211">&#171;domain&#187;</text><text fill="#000000" font-family="FG Virgil" font-size="14" lengthAdjust="spacing" textLength="351" x="753.5" y="755.6094">requirementSpecification:RequirementSpecification</text><rect fill="#E2E2F0" height="46.9766" rx="2.5" ry="2.5" style="stroke:#181818;stroke-width:0.5;" width="141" x="1121.5" y="78.0664"/><text fill="#000000" font-family="FG Virgil" font-size="14" font-style="italic" lengthAdjust="spacing" textLength="84" x="1150" y="98.6016">&#171;repository&#187;</text><text fill="#000000" font-family="FG Virgil" font-size="14" lengthAdjust="spacing" textLength="127" x="1128.5" y="115.0898">:RequirementRepo</text><rect fill="#E2E2F0" height="46.9766" rx="2.5" ry="2.5" style="stroke:#181818;stroke-width:0.5;" width="141" x="1121.5" y="718.5859"/><text fill="#000000" font-family="FG Virgil" font-size="14" font-style="italic" lengthAdjust="spacing" textLength="84" x="1150" y="739.1211">&#171;repository&#187;</text><text fill="#000000" font-family="FG Virgil" font-size="14" lengthAdjust="spacing" textLength="127" x="1128.5" y="755.6094">:RequirementRepo</text><rect fill="#FFFFFF" height="565.543" style="stroke:#181818;stroke-width:1.0;" width="10" x="67" y="136.043"/><rect fill="#FFFFFF" height="528.9219" style="stroke:#181818;stroke-width:1.0;" width="10" x="358" y="172.6641"/><rect fill="#FFFFFF" height="307.7715" style="stroke:#181818;stroke-width:1.0;" width="10" x="641" y="364.5039"/><rect fill="#FFFFFF" height="29.3105" style="stroke:#181818;stroke-width:1.0;" width="10" x="1187" y="613.6543"/><polygon fill="#181818" points="346,168.6641,356,172.6641,346,176.6641,350,172.6641" style="stroke:#181818;stroke-width:1.0;"/><line style="stroke:#181818;stroke-width:1.0;" x1="77" x2="352" y1="172.6641" y2="172.6641"/><text fill="#000000" font-family="FG Virgil" font-size="13" lengthAdjust="spacing" textLength="185" x="84" y="152.6113">Asks to deploy and configure</text><text fill="#000000" font-family="FG Virgil" font-size="13" lengthAdjust="spacing" textLength="262" x="84" y="167.9219">a plugin for the requirement specification</text><polygon fill="#181818" points="546,197.9746,556,201.9746,546,205.9746,550,201.9746" style="stroke:#181818;stroke-width:1.0;"/><line style="stroke:#181818;stroke-width:1.0;" x1="368" x2="552" y1="201.9746" y2="201.9746"/><text fill="#000000" font-family="FG Virgil" font-size="13" lengthAdjust="spacing" textLength="38" x="375" y="197.2324">create</text><rect fill="#E2E2F0" height="46.9766" rx="2.5" ry="2.5" style="stroke:#181818;stroke-width:0.5;" width="176" x="558" y="180.6641"/><text fill="#000000" font-family="FG Virgil" font-size="14" font-style="italic" lengthAdjust="spacing" textLength="90" x="601" y="201.1992">&#171;application&#187;</text><text fill="#000000" font-family="FG Virgil" font-size="14" lengthAdjust="spacing" textLength="162" x="565" y="217.6875">:RequirementController</text><polygon fill="#181818" points="88,271.2617,78,275.2617,88,279.2617,84,275.2617" style="stroke:#181818;stroke-width:1.0;"/><line style="stroke:#181818;stroke-width:1.0;stroke-dasharray:2.0,2.0;" x1="82" x2="357" y1="275.2617" y2="275.2617"/><text fill="#000000" font-family="FG Virgil" font-size="13" lengthAdjust="spacing" textLength="198" x="94" y="255.209">Requests the name, description</text><text fill="#000000" font-family="FG Virgil" font-size="13" lengthAdjust="spacing" textLength="232" x="94" y="270.5195">and className to register the plugin</text><polygon fill="#181818" points="346,315.8828,356,319.8828,346,323.8828,350,319.8828" style="stroke:#181818;stroke-width:1.0;"/><line style="stroke:#181818;stroke-width:1.0;" x1="77" x2="352" y1="319.8828" y2="319.8828"/><text fill="#000000" font-family="FG Virgil" font-size="13" lengthAdjust="spacing" textLength="187" x="84" y="299.8301">Provide the name, description</text><text fill="#000000" font-family="FG Virgil" font-size="13" lengthAdjust="spacing" textLength="185" x="84" y="315.1406">and className for the plugin</text><polygon fill="#181818" points="629,360.5039,639,364.5039,629,368.5039,633,364.5039" style="stroke:#181818;stroke-width:1.0;"/><line style="stroke:#181818;stroke-width:1.0;" x1="368" x2="635" y1="364.5039" y2="364.5039"/><text fill="#000000" font-family="FG Virgil" font-size="13" lengthAdjust="spacing" textLength="250" x="375" y="344.4512">registerRequirementSpecification(name,</text><text fill="#000000" font-family="FG Virgil" font-size="13" lengthAdjust="spacing" textLength="151" x="375" y="359.7617">description, className)</text><polygon fill="#181818" points="734.5,389.8145,744.5,393.8145,734.5,397.8145,738.5,393.8145" style="stroke:#181818;stroke-width:1.0;"/><line style="stroke:#181818;stroke-width:1.0;" x1="651" x2="740.5" y1="393.8145" y2="393.8145"/><text fill="#000000" font-family="FG Virgil" font-size="13" lengthAdjust="spacing" textLength="38" x="658" y="389.0723">create</text><rect fill="#E2E2F0" height="46.9766" rx="2.5" ry="2.5" style="stroke:#181818;stroke-width:0.5;" width="365" x="746.5" y="372.5039"/><text fill="#000000" font-family="FG Virgil" font-size="14" font-style="italic" lengthAdjust="spacing" textLength="66" x="896" y="393.0391">&#171;domain&#187;</text><text fill="#000000" font-family="FG Virgil" font-size="14" lengthAdjust="spacing" textLength="351" x="753.5" y="409.5273">requirementSpecification:RequirementSpecification</text><polygon fill="#181818" points="917,447.791,927,451.791,917,455.791,921,451.791" style="stroke:#181818;stroke-width:1.0;"/><line style="stroke:#181818;stroke-width:1.0;" x1="651" x2="923" y1="451.791" y2="451.791"/><text fill="#000000" font-family="FG Virgil" font-size="13" lengthAdjust="spacing" textLength="105" x="658" y="447.0488">withName(name)</text><polygon fill="#181818" points="917,477.1016,927,481.1016,917,485.1016,921,481.1016" style="stroke:#181818;stroke-width:1.0;"/><line style="stroke:#181818;stroke-width:1.0;" x1="651" x2="923" y1="481.1016" y2="481.1016"/><text fill="#000000" font-family="FG Virgil" font-size="13" lengthAdjust="spacing" textLength="179" x="658" y="476.3594">withDescription(description)</text><polygon fill="#181818" points="917,506.4121,927,510.4121,917,514.4121,921,510.4121" style="stroke:#181818;stroke-width:1.0;"/><line style="stroke:#181818;stroke-width:1.0;" x1="651" x2="923" y1="510.4121" y2="510.4121"/><text fill="#000000" font-family="FG Virgil" font-size="13" lengthAdjust="spacing" textLength="173" x="658" y="505.6699">withClassName(className)</text><polygon fill="#181818" points="917,551.0332,927,555.0332,917,559.0332,921,555.0332" style="stroke:#181818;stroke-width:1.0;"/><line style="stroke:#181818;stroke-width:1.0;" x1="651" x2="923" y1="555.0332" y2="555.0332"/><text fill="#000000" font-family="FG Virgil" font-size="13" lengthAdjust="spacing" textLength="250" x="658" y="534.9805">registerRequirementSpecification(name,</text><text fill="#000000" font-family="FG Virgil" font-size="13" lengthAdjust="spacing" textLength="151" x="658" y="550.291">description, className)</text><polygon fill="#181818" points="662,580.3438,652,584.3438,662,588.3438,658,584.3438" style="stroke:#181818;stroke-width:1.0;"/><line style="stroke:#181818;stroke-width:1.0;stroke-dasharray:2.0,2.0;" x1="656" x2="928" y1="584.3438" y2="584.3438"/><text fill="#000000" font-family="FG Virgil" font-size="13" lengthAdjust="spacing" textLength="157" x="668" y="579.6016">requirementSpecification</text><polygon fill="#181818" points="1175,609.6543,1185,613.6543,1175,617.6543,1179,613.6543" style="stroke:#181818;stroke-width:1.0;"/><line style="stroke:#181818;stroke-width:1.0;" x1="651" x2="1181" y1="613.6543" y2="613.6543"/><text fill="#000000" font-family="FG Virgil" font-size="13" lengthAdjust="spacing" textLength="36" x="658" y="608.9121">save()</text><polygon fill="#181818" points="662,638.9648,652,642.9648,662,646.9648,658,642.9648" style="stroke:#181818;stroke-width:1.0;"/><line style="stroke:#181818;stroke-width:1.0;stroke-dasharray:2.0,2.0;" x1="656" x2="1191" y1="642.9648" y2="642.9648"/><text fill="#000000" font-family="FG Virgil" font-size="13" lengthAdjust="spacing" textLength="157" x="668" y="638.2227">requirementSpecification</text><polygon fill="#181818" points="379,668.2754,369,672.2754,379,676.2754,375,672.2754" style="stroke:#181818;stroke-width:1.0;"/><line style="stroke:#181818;stroke-width:1.0;stroke-dasharray:2.0,2.0;" x1="373" x2="645" y1="672.2754" y2="672.2754"/><text fill="#000000" font-family="FG Virgil" font-size="13" lengthAdjust="spacing" textLength="157" x="385" y="667.5332">requirementSpecification</text><polygon fill="#181818" points="83,697.5859,73,701.5859,83,705.5859,79,701.5859" style="stroke:#181818;stroke-width:1.0;"/><line style="stroke:#181818;stroke-width:1.0;stroke-dasharray:2.0,2.0;" x1="77" x2="362" y1="701.5859" y2="701.5859"/><text fill="#000000" font-family="FG Virgil" font-size="13" lengthAdjust="spacing" textLength="157" x="89" y="696.8438">displayOperationSuccess</text><!--SRC=[fLJHRjem57tdAwww5reLZUrfYb2agbqdf6chGEofBvvp2LSOsxCTAlRrkt6090tfKCbB5FlSSyuzlZ50V085XJ3nz1UJp-CKvlYdG2qH7aZaJcnWCOTFu_4N6C6CjyZX1dNmCBSeQKbI138Q9XzBWdGmg4Z1hqbRKPPlZ3PovSm6OIcKnox22haMESx3ZequbA4BoN0f2XKUZGu_13CzVeDVv79INQXVYSoyaCxtSWU4aC4u-2vqNh3OLvsJHdGWFDp5dG-AybNuhOgZG-OB9CaA7U0gcM5EFg1xKWMNBgPNPUbY2fE9TUWvaXX4clPL7wExvoQSKGfTfAW_cKfOg_QHzZ2vcgXr0as5raOKwQjYoSni19tZUuRMxCciuSBovOcZswLfCsNQYe1Lg8VLAk5HodabSEVN7eBXCxNAx43e3AJHIyeBX_2i1TYOC2ov9AomwHryq_nHjAsycBRM-OXOk97opKq2qY53EpW6Hgj977NqFEQb0yqZTyj-lNHaOsniixIjXFTn7haTjv-FM56rqE9lPV3ap9OoF9FzaCG9rjVT9KSVVVCmhFIUTKFnjXQxRgVQIhQMwM0Q-RAVtd7hoVvyXWHUAAnAex6Fwuje7ke4XeqqBYEzFoGvR6JwNiAB3_ErSE_9Z3fZT1hutrQiIS2BBGvFJ59hcaheIKIyNzxjftmoRAkyQNh_Ivujq21l_11lt2KPUQl4xgT55nddXPJe_Q27bE-lGNUrka__0G00]--></g></svg>