<?xml version="1.0" encoding="us-ascii" standalone="no"?><svg xmlns="http://www.w3.org/2000/svg" xmlns:xlink="http://www.w3.org/1999/xlink" contentStyleType="text/css" height="800px" preserveAspectRatio="none" style="width:1018px;height:800px;background:#FFFFFF;" version="1.1" viewBox="0 0 1018 800" width="1018px" zoomAndPan="magnify"><defs/><g><text fill="#000000" font-family="FG Virgil" font-size="20" font-weight="bold" lengthAdjust="spacing" textLength="478" x="269" y="34.3359">Sequence Diagram US 1008 - Interview Model</text><rect fill="#FFFFFF" height="565.543" style="stroke:#181818;stroke-width:1.0;" width="10" x="67" y="136.043"/><rect fill="#FFFFFF" height="528.9219" style="stroke:#181818;stroke-width:1.0;" width="10" x="333" y="172.6641"/><rect fill="#FFFFFF" height="307.7715" style="stroke:#181818;stroke-width:1.0;" width="10" x="551" y="364.5039"/><rect fill="#FFFFFF" height="29.3105" style="stroke:#181818;stroke-width:1.0;" width="10" x="949.5" y="613.6543"/><line style="stroke:#181818;stroke-width:0.5;stroke-dasharray:5.0,5.0;" x1="72" x2="72" y1="126.043" y2="719.5859"/><line style="stroke:#181818;stroke-width:0.5;stroke-dasharray:5.0,5.0;" x1="337.5" x2="337.5" y1="126.043" y2="719.5859"/><line style="stroke:#181818;stroke-width:0.5;stroke-dasharray:5.0,5.0;" x1="556" x2="556" y1="219.6523" y2="719.5859"/><line style="stroke:#181818;stroke-width:0.5;stroke-dasharray:5.0,5.0;" x1="774" x2="774" y1="411.4922" y2="719.5859"/><line style="stroke:#181818;stroke-width:0.5;stroke-dasharray:5.0,5.0;" x1="954" x2="954" y1="126.043" y2="719.5859"/><text fill="#000000" font-family="FG Virgil" font-size="14" lengthAdjust="spacing" textLength="128" x="5" y="123.0898">LanguageEngineer</text><ellipse cx="72" cy="58.0547" fill="#ADD8E6" rx="8" ry="8" style="stroke:#181818;stroke-width:0.5;"/><path d="M72,66.0547 L72,93.0547 M59,74.0547 L85,74.0547 M72,93.0547 L59,108.0547 M72,93.0547 L85,108.0547 " fill="none" style="stroke:#181818;stroke-width:0.5;"/><text fill="#000000" font-family="FG Virgil" font-size="14" lengthAdjust="spacing" textLength="128" x="5" y="732.1211">LanguageEngineer</text><ellipse cx="72" cy="743.5742" fill="#ADD8E6" rx="8" ry="8" style="stroke:#181818;stroke-width:0.5;"/><path d="M72,751.5742 L72,778.5742 M59,759.5742 L85,759.5742 M72,778.5742 L59,793.5742 M72,778.5742 L85,793.5742 " fill="none" style="stroke:#181818;stroke-width:0.5;"/><rect fill="#E2E2F0" height="46.9766" rx="2.5" ry="2.5" style="stroke:#181818;stroke-width:0.5;" width="131" x="272.5" y="78.0664"/><text fill="#000000" font-family="FG Virgil" font-size="14" font-style="italic" lengthAdjust="spacing" textLength="101" x="287.5" y="98.6016">&#171;presentation&#187;</text><text fill="#000000" font-family="FG Virgil" font-size="14" lengthAdjust="spacing" textLength="117" x="279.5" y="115.0898">:RegisterPluginUI</text><rect fill="#E2E2F0" height="46.9766" rx="2.5" ry="2.5" style="stroke:#181818;stroke-width:0.5;" width="131" x="272.5" y="718.5859"/><text fill="#000000" font-family="FG Virgil" font-size="14" font-style="italic" lengthAdjust="spacing" textLength="101" x="287.5" y="739.1211">&#171;presentation&#187;</text><text fill="#000000" font-family="FG Virgil" font-size="14" lengthAdjust="spacing" textLength="117" x="279.5" y="755.6094">:RegisterPluginUI</text><rect fill="#E2E2F0" height="46.9766" rx="2.5" ry="2.5" style="stroke:#181818;stroke-width:0.5;" width="150" x="481" y="718.5859"/><text fill="#000000" font-family="FG Virgil" font-size="14" font-style="italic" lengthAdjust="spacing" textLength="90" x="511" y="739.1211">&#171;application&#187;</text><text fill="#000000" font-family="FG Virgil" font-size="14" lengthAdjust="spacing" textLength="136" x="488" y="755.6094">:InterviewController</text><rect fill="#E2E2F0" height="46.9766" rx="2.5" ry="2.5" style="stroke:#181818;stroke-width:0.5;" width="226" x="661" y="718.5859"/><text fill="#000000" font-family="FG Virgil" font-size="14" font-style="italic" lengthAdjust="spacing" textLength="66" x="741" y="739.1211">&#171;domain&#187;</text><text fill="#000000" font-family="FG Virgil" font-size="14" lengthAdjust="spacing" textLength="212" x="668" y="755.6094">interviewModel:InterviewModel</text><rect fill="#E2E2F0" height="46.9766" rx="2.5" ry="2.5" style="stroke:#181818;stroke-width:0.5;" width="115" x="897" y="78.0664"/><text fill="#000000" font-family="FG Virgil" font-size="14" font-style="italic" lengthAdjust="spacing" textLength="84" x="912.5" y="98.6016">&#171;repository&#187;</text><text fill="#000000" font-family="FG Virgil" font-size="14" lengthAdjust="spacing" textLength="101" x="904" y="115.0898">:InterviewRepo</text><rect fill="#E2E2F0" height="46.9766" rx="2.5" ry="2.5" style="stroke:#181818;stroke-width:0.5;" width="115" x="897" y="718.5859"/><text fill="#000000" font-family="FG Virgil" font-size="14" font-style="italic" lengthAdjust="spacing" textLength="84" x="912.5" y="739.1211">&#171;repository&#187;</text><text fill="#000000" font-family="FG Virgil" font-size="14" lengthAdjust="spacing" textLength="101" x="904" y="755.6094">:InterviewRepo</text><rect fill="#FFFFFF" height="565.543" style="stroke:#181818;stroke-width:1.0;" width="10" x="67" y="136.043"/><rect fill="#FFFFFF" height="528.9219" style="stroke:#181818;stroke-width:1.0;" width="10" x="333" y="172.6641"/><rect fill="#FFFFFF" height="307.7715" style="stroke:#181818;stroke-width:1.0;" width="10" x="551" y="364.5039"/><rect fill="#FFFFFF" height="29.3105" style="stroke:#181818;stroke-width:1.0;" width="10" x="949.5" y="613.6543"/><polygon fill="#181818" points="321,168.6641,331,172.6641,321,176.6641,325,172.6641" style="stroke:#181818;stroke-width:1.0;"/><line style="stroke:#181818;stroke-width:1.0;" x1="77" x2="327" y1="172.6641" y2="172.6641"/><text fill="#000000" font-family="FG Virgil" font-size="13" lengthAdjust="spacing" textLength="185" x="84" y="152.6113">Asks to deploy and configure</text><text fill="#000000" font-family="FG Virgil" font-size="13" lengthAdjust="spacing" textLength="201" x="84" y="167.9219">a plugin for the interview model</text><polygon fill="#181818" points="469,197.9746,479,201.9746,469,205.9746,473,201.9746" style="stroke:#181818;stroke-width:1.0;"/><line style="stroke:#181818;stroke-width:1.0;" x1="343" x2="475" y1="201.9746" y2="201.9746"/><text fill="#000000" font-family="FG Virgil" font-size="13" lengthAdjust="spacing" textLength="38" x="350" y="197.2324">create</text><rect fill="#E2E2F0" height="46.9766" rx="2.5" ry="2.5" style="stroke:#181818;stroke-width:0.5;" width="150" x="481" y="180.6641"/><text fill="#000000" font-family="FG Virgil" font-size="14" font-style="italic" lengthAdjust="spacing" textLength="90" x="511" y="201.1992">&#171;application&#187;</text><text fill="#000000" font-family="FG Virgil" font-size="14" lengthAdjust="spacing" textLength="136" x="488" y="217.6875">:InterviewController</text><polygon fill="#181818" points="88,271.2617,78,275.2617,88,279.2617,84,275.2617" style="stroke:#181818;stroke-width:1.0;"/><line style="stroke:#181818;stroke-width:1.0;stroke-dasharray:2.0,2.0;" x1="82" x2="332" y1="275.2617" y2="275.2617"/><text fill="#000000" font-family="FG Virgil" font-size="13" lengthAdjust="spacing" textLength="198" x="94" y="255.209">Requests the name, description</text><text fill="#000000" font-family="FG Virgil" font-size="13" lengthAdjust="spacing" textLength="232" x="94" y="270.5195">and className to register the plugin</text><polygon fill="#181818" points="321,315.8828,331,319.8828,321,323.8828,325,319.8828" style="stroke:#181818;stroke-width:1.0;"/><line style="stroke:#181818;stroke-width:1.0;" x1="77" x2="327" y1="319.8828" y2="319.8828"/><text fill="#000000" font-family="FG Virgil" font-size="13" lengthAdjust="spacing" textLength="187" x="84" y="299.8301">Provide the name, description</text><text fill="#000000" font-family="FG Virgil" font-size="13" lengthAdjust="spacing" textLength="185" x="84" y="315.1406">and className for the plugin</text><polygon fill="#181818" points="539,360.5039,549,364.5039,539,368.5039,543,364.5039" style="stroke:#181818;stroke-width:1.0;"/><line style="stroke:#181818;stroke-width:1.0;" x1="343" x2="545" y1="364.5039" y2="364.5039"/><text fill="#000000" font-family="FG Virgil" font-size="13" lengthAdjust="spacing" textLength="185" x="350" y="344.4512">registerInterviewModel(name,</text><text fill="#000000" font-family="FG Virgil" font-size="13" lengthAdjust="spacing" textLength="151" x="350" y="359.7617">description, className)</text><polygon fill="#181818" points="649,389.8145,659,393.8145,649,397.8145,653,393.8145" style="stroke:#181818;stroke-width:1.0;"/><line style="stroke:#181818;stroke-width:1.0;" x1="561" x2="655" y1="393.8145" y2="393.8145"/><text fill="#000000" font-family="FG Virgil" font-size="13" lengthAdjust="spacing" textLength="38" x="568" y="389.0723">create</text><rect fill="#E2E2F0" height="46.9766" rx="2.5" ry="2.5" style="stroke:#181818;stroke-width:0.5;" width="226" x="661" y="372.5039"/><text fill="#000000" font-family="FG Virgil" font-size="14" font-style="italic" lengthAdjust="spacing" textLength="66" x="741" y="393.0391">&#171;domain&#187;</text><text fill="#000000" font-family="FG Virgil" font-size="14" lengthAdjust="spacing" textLength="212" x="668" y="409.5273">interviewModel:InterviewModel</text><polygon fill="#181818" points="762,447.791,772,451.791,762,455.791,766,451.791" style="stroke:#181818;stroke-width:1.0;"/><line style="stroke:#181818;stroke-width:1.0;" x1="561" x2="768" y1="451.791" y2="451.791"/><text fill="#000000" font-family="FG Virgil" font-size="13" lengthAdjust="spacing" textLength="105" x="568" y="447.0488">withName(name)</text><polygon fill="#181818" points="762,477.1016,772,481.1016,762,485.1016,766,481.1016" style="stroke:#181818;stroke-width:1.0;"/><line style="stroke:#181818;stroke-width:1.0;" x1="561" x2="768" y1="481.1016" y2="481.1016"/><text fill="#000000" font-family="FG Virgil" font-size="13" lengthAdjust="spacing" textLength="179" x="568" y="476.3594">withDescription(description)</text><polygon fill="#181818" points="762,506.4121,772,510.4121,762,514.4121,766,510.4121" style="stroke:#181818;stroke-width:1.0;"/><line style="stroke:#181818;stroke-width:1.0;" x1="561" x2="768" y1="510.4121" y2="510.4121"/><text fill="#000000" font-family="FG Virgil" font-size="13" lengthAdjust="spacing" textLength="173" x="568" y="505.6699">withClassName(className)</text><polygon fill="#181818" points="762,551.0332,772,555.0332,762,559.0332,766,555.0332" style="stroke:#181818;stroke-width:1.0;"/><line style="stroke:#181818;stroke-width:1.0;" x1="561" x2="768" y1="555.0332" y2="555.0332"/><text fill="#000000" font-family="FG Virgil" font-size="13" lengthAdjust="spacing" textLength="185" x="568" y="534.9805">registerInterviewModel(name,</text><text fill="#000000" font-family="FG Virgil" font-size="13" lengthAdjust="spacing" textLength="151" x="568" y="550.291">description, className)</text><polygon fill="#181818" points="572,580.3438,562,584.3438,572,588.3438,568,584.3438" style="stroke:#181818;stroke-width:1.0;"/><line style="stroke:#181818;stroke-width:1.0;stroke-dasharray:2.0,2.0;" x1="566" x2="773" y1="584.3438" y2="584.3438"/><text fill="#000000" font-family="FG Virgil" font-size="13" lengthAdjust="spacing" textLength="95" x="578" y="579.6016">interviewModel</text><polygon fill="#181818" points="937.5,609.6543,947.5,613.6543,937.5,617.6543,941.5,613.6543" style="stroke:#181818;stroke-width:1.0;"/><line style="stroke:#181818;stroke-width:1.0;" x1="561" x2="943.5" y1="613.6543" y2="613.6543"/><text fill="#000000" font-family="FG Virgil" font-size="13" lengthAdjust="spacing" textLength="36" x="568" y="608.9121">save()</text><polygon fill="#181818" points="572,638.9648,562,642.9648,572,646.9648,568,642.9648" style="stroke:#181818;stroke-width:1.0;"/><line style="stroke:#181818;stroke-width:1.0;stroke-dasharray:2.0,2.0;" x1="566" x2="953.5" y1="642.9648" y2="642.9648"/><text fill="#000000" font-family="FG Virgil" font-size="13" lengthAdjust="spacing" textLength="95" x="578" y="638.2227">interviewModel</text><polygon fill="#181818" points="354,668.2754,344,672.2754,354,676.2754,350,672.2754" style="stroke:#181818;stroke-width:1.0;"/><line style="stroke:#181818;stroke-width:1.0;stroke-dasharray:2.0,2.0;" x1="348" x2="555" y1="672.2754" y2="672.2754"/><text fill="#000000" font-family="FG Virgil" font-size="13" lengthAdjust="spacing" textLength="95" x="360" y="667.5332">interviewModel</text><polygon fill="#181818" points="83,697.5859,73,701.5859,83,705.5859,79,701.5859" style="stroke:#181818;stroke-width:1.0;"/><line style="stroke:#181818;stroke-width:1.0;stroke-dasharray:2.0,2.0;" x1="77" x2="337" y1="701.5859" y2="701.5859"/><text fill="#000000" font-family="FG Virgil" font-size="13" lengthAdjust="spacing" textLength="157" x="89" y="696.8438">displayOperationSuccess</text><!--SRC=[dLHDR-8m4BtpAqRT2wsAbjtJAaAHgdQxGjgFgeYUUl4cGnXXRA_jWDXVlsC7I48eRCa5uhnvxyqRsm3nyUGbmiZHNqm-3rEOu9yILORmGAAmOWdJ2NmQ3h_00CRAerqHhk67pb72w6EeIdkzYWdSWfGHeMQfbSxcLYyHPa8wx2ACo1QYm8dViBh5p7SXESv4AVsZLlwdOAR7R_12jY3PXRgvoFMQLB6Lso54vhM5xq8L9OjzLGKfH0l2mLtyya5ICVU_PRbto7oUCZ92URXAdh4Wnqq_oP9Bf-EhK3eTmsXaB3fKNdZIAasFL-_pkkSMh9OIRIIeNvb862CfEyL3EvgOUiqQNoDX6y6akLuAEk_h6OsE19R_S5duSSJ1RDAqcI6jXCSgijrgbTyWvJGIk7CB1rxpn8pK6n0gXqoh6HMbHNXL0apC3sPSukTO- -MDmeRtKcszwRYrph6pN2Excvi4CeiCxU0O60qcy1osi_CkwYhUHhViqcMMJ4Wyc0jcfN0kxZ5kmcvd7Yiguot-LkTFLgyen_zat_L_XFMmksJleptlVgNogXewjxN4TJlBLfurUGVJI9LT76odDt8-LvV0clmyc8gUhoyeVgXxx3VwlOJgVfTGlv7L-sWk7CYXo46wWuEnjp-ViHWER09EhB1_PFAjwGVeKKGy- -zq4PuSszmdhMwFondQ1cLZivuutJav8yNcbq4RRz19cMNeNEyDKhvHUjtLwbxx1m00]--></g></svg>