<?xml version="1.0" encoding="us-ascii" standalone="no"?><svg xmlns="http://www.w3.org/2000/svg" xmlns:xlink="http://www.w3.org/1999/xlink" contentStyleType="text/css" height="901px" preserveAspectRatio="none" style="width:1371px;height:901px;background:#FFFFFF;" version="1.1" viewBox="0 0 1371 901" width="1371px" zoomAndPan="magnify"><defs/><g><text fill="#000000" font-family="sans-serif" font-size="14" font-weight="bold" lengthAdjust="spacing" textLength="444" x="465.25" y="30.1074">Alternative_Soluction_Diagram_US3002_ListJobOpeningsEmpty</text><rect fill="#FFFFFF" height="676.4023" style="stroke:#181818;stroke-width:1.0;" width="10" x="33.5" y="133.2422"/><rect fill="#FFFFFF" height="609.5293" style="stroke:#181818;stroke-width:1.0;" width="10" x="279.5" y="191.1152"/><rect fill="#FFFFFF" height="546.9473" style="stroke:#181818;stroke-width:1.0;" width="10" x="487.5" y="222.4063"/><rect fill="#FFFFFF" height="484.3652" style="stroke:#181818;stroke-width:1.0;" width="10" x="722.5" y="253.6973"/><rect fill="#FFFFFF" height="31.291" style="stroke:#181818;stroke-width:1.0;" width="10" x="1031.5" y="284.9883"/><rect fill="#FFFFFF" height="31.291" style="stroke:#181818;stroke-width:1.0;" width="10" x="1031.5" y="668.4805"/><rect fill="#FFFFFF" height="31.291" style="stroke:#181818;stroke-width:1.0;" width="10" x="1169.5" y="418.1523"/><rect fill="#FFFFFF" height="31.291" style="stroke:#181818;stroke-width:1.0;" width="10" x="1288.5" y="480.7344"/><rect fill="#FFFFFF" height="31.291" style="stroke:#181818;stroke-width:1.0;" width="10" x="1288.5" y="543.3164"/><rect fill="#FFFFFF" height="31.291" style="stroke:#181818;stroke-width:1.0;" width="10" x="1288.5" y="605.8984"/><rect fill="none" height="332.2012" style="stroke:#000000;stroke-width:1.5;" width="729.5" x="636" y="375.5703"/><line style="stroke:#181818;stroke-width:0.5;stroke-dasharray:5.0,5.0;" x1="38" x2="38" y1="123.2422" y2="818.6445"/><line style="stroke:#181818;stroke-width:0.5;stroke-dasharray:5.0,5.0;" x1="284.5" x2="284.5" y1="123.2422" y2="818.6445"/><line style="stroke:#181818;stroke-width:0.5;stroke-dasharray:5.0,5.0;" x1="492.5" x2="492.5" y1="123.2422" y2="818.6445"/><line style="stroke:#181818;stroke-width:0.5;stroke-dasharray:5.0,5.0;" x1="727" x2="727" y1="123.2422" y2="818.6445"/><line style="stroke:#181818;stroke-width:0.5;stroke-dasharray:5.0,5.0;" x1="1036.5" x2="1036.5" y1="123.2422" y2="818.6445"/><line style="stroke:#181818;stroke-width:0.5;stroke-dasharray:5.0,5.0;" x1="1174.5" x2="1174.5" y1="123.2422" y2="818.6445"/><line style="stroke:#181818;stroke-width:0.5;stroke-dasharray:5.0,5.0;" x1="1293.5" x2="1293.5" y1="123.2422" y2="818.6445"/><text fill="#000000" font-family="sans-serif" font-size="14" lengthAdjust="spacing" textLength="61" x="5" y="119.7285">Customer</text><ellipse cx="38.5" cy="53.1211" fill="#ADD8E6" rx="8" ry="8" style="stroke:#181818;stroke-width:0.5;"/><path d="M38.5,61.1211 L38.5,88.1211 M25.5,69.1211 L51.5,69.1211 M38.5,88.1211 L25.5,103.1211 M38.5,88.1211 L51.5,103.1211 " fill="none" style="stroke:#181818;stroke-width:0.5;"/><text fill="#000000" font-family="sans-serif" font-size="14" lengthAdjust="spacing" textLength="61" x="5" y="832.752">Customer</text><ellipse cx="38.5" cy="844.7656" fill="#ADD8E6" rx="8" ry="8" style="stroke:#181818;stroke-width:0.5;"/><path d="M38.5,852.7656 L38.5,879.7656 M25.5,860.7656 L51.5,860.7656 M38.5,879.7656 L25.5,894.7656 M38.5,879.7656 L51.5,894.7656 " fill="none" style="stroke:#181818;stroke-width:0.5;"/><rect fill="#E2E2F0" height="51.2422" rx="2.5" ry="2.5" style="stroke:#181818;stroke-width:0.5;" width="218" x="175.5" y="71"/><text fill="#000000" font-family="sans-serif" font-size="14" font-style="italic" lengthAdjust="spacing" textLength="95" x="237" y="93.1074">&#171;presentation&#187;</text><text fill="#000000" font-family="sans-serif" font-size="14" lengthAdjust="spacing" textLength="204" x="182.5" y="111.7285">:ListJobOpeningsForCustomerUI</text><rect fill="#E2E2F0" height="51.2422" rx="2.5" ry="2.5" style="stroke:#181818;stroke-width:0.5;" width="218" x="175.5" y="817.6445"/><text fill="#000000" font-family="sans-serif" font-size="14" font-style="italic" lengthAdjust="spacing" textLength="95" x="237" y="839.752">&#171;presentation&#187;</text><text fill="#000000" font-family="sans-serif" font-size="14" lengthAdjust="spacing" textLength="204" x="182.5" y="858.373">:ListJobOpeningsForCustomerUI</text><rect fill="#E2E2F0" height="51.2422" rx="2.5" ry="2.5" style="stroke:#181818;stroke-width:0.5;" width="178" x="403.5" y="71"/><text fill="#000000" font-family="sans-serif" font-size="14" font-style="italic" lengthAdjust="spacing" textLength="84" x="450.5" y="93.1074">&#171;application&#187;</text><text fill="#000000" font-family="sans-serif" font-size="14" lengthAdjust="spacing" textLength="164" x="410.5" y="111.7285">:ListJobOpeningController</text><rect fill="#E2E2F0" height="51.2422" rx="2.5" ry="2.5" style="stroke:#181818;stroke-width:0.5;" width="178" x="403.5" y="817.6445"/><text fill="#000000" font-family="sans-serif" font-size="14" font-style="italic" lengthAdjust="spacing" textLength="84" x="450.5" y="839.752">&#171;application&#187;</text><text fill="#000000" font-family="sans-serif" font-size="14" lengthAdjust="spacing" textLength="164" x="410.5" y="858.373">:ListJobOpeningController</text><rect fill="#E2E2F0" height="51.2422" rx="2.5" ry="2.5" style="stroke:#181818;stroke-width:0.5;" width="163" x="646" y="71"/><text fill="#000000" font-family="sans-serif" font-size="14" font-style="italic" lengthAdjust="spacing" textLength="60" x="697.5" y="93.1074">&#171;service&#187;</text><text fill="#000000" font-family="sans-serif" font-size="14" lengthAdjust="spacing" textLength="149" x="653" y="111.7285">:ListJobOpeningService</text><rect fill="#E2E2F0" height="51.2422" rx="2.5" ry="2.5" style="stroke:#181818;stroke-width:0.5;" width="163" x="646" y="817.6445"/><text fill="#000000" font-family="sans-serif" font-size="14" font-style="italic" lengthAdjust="spacing" textLength="60" x="697.5" y="839.752">&#171;service&#187;</text><text fill="#000000" font-family="sans-serif" font-size="14" lengthAdjust="spacing" textLength="149" x="653" y="858.373">:ListJobOpeningService</text><rect fill="#E2E2F0" height="51.2422" rx="2.5" ry="2.5" style="stroke:#181818;stroke-width:0.5;" width="162" x="955.5" y="71"/><text fill="#000000" font-family="sans-serif" font-size="14" font-style="italic" lengthAdjust="spacing" textLength="79" x="997" y="93.1074">&#171;repository&#187;</text><text fill="#000000" font-family="sans-serif" font-size="14" lengthAdjust="spacing" textLength="148" x="962.5" y="111.7285">:JobOpeningRepository</text><rect fill="#E2E2F0" height="51.2422" rx="2.5" ry="2.5" style="stroke:#181818;stroke-width:0.5;" width="162" x="955.5" y="817.6445"/><text fill="#000000" font-family="sans-serif" font-size="14" font-style="italic" lengthAdjust="spacing" textLength="79" x="997" y="839.752">&#171;repository&#187;</text><text fill="#000000" font-family="sans-serif" font-size="14" lengthAdjust="spacing" textLength="148" x="962.5" y="858.373">:JobOpeningRepository</text><rect fill="#E2E2F0" height="51.2422" rx="2.5" ry="2.5" style="stroke:#181818;stroke-width:0.5;" width="94" x="1127.5" y="71"/><text fill="#000000" font-family="sans-serif" font-size="14" font-style="italic" lengthAdjust="spacing" textLength="50" x="1149.5" y="93.1074">&#171;entity&#187;</text><text fill="#000000" font-family="sans-serif" font-size="14" lengthAdjust="spacing" textLength="80" x="1134.5" y="111.7285">:JobOpening</text><rect fill="#E2E2F0" height="51.2422" rx="2.5" ry="2.5" style="stroke:#181818;stroke-width:0.5;" width="94" x="1127.5" y="817.6445"/><text fill="#000000" font-family="sans-serif" font-size="14" font-style="italic" lengthAdjust="spacing" textLength="50" x="1149.5" y="839.752">&#171;entity&#187;</text><text fill="#000000" font-family="sans-serif" font-size="14" lengthAdjust="spacing" textLength="80" x="1134.5" y="858.373">:JobOpening</text><rect fill="#E2E2F0" height="51.2422" rx="2.5" ry="2.5" style="stroke:#181818;stroke-width:0.5;" width="124" x="1231.5" y="71"/><text fill="#000000" font-family="sans-serif" font-size="14" font-style="italic" lengthAdjust="spacing" textLength="36" x="1275.5" y="93.1074">&#171;dto&#187;</text><text fill="#000000" font-family="sans-serif" font-size="14" lengthAdjust="spacing" textLength="110" x="1238.5" y="111.7285">:JobOpeningDTO</text><rect fill="#E2E2F0" height="51.2422" rx="2.5" ry="2.5" style="stroke:#181818;stroke-width:0.5;" width="124" x="1231.5" y="817.6445"/><text fill="#000000" font-family="sans-serif" font-size="14" font-style="italic" lengthAdjust="spacing" textLength="36" x="1275.5" y="839.752">&#171;dto&#187;</text><text fill="#000000" font-family="sans-serif" font-size="14" lengthAdjust="spacing" textLength="110" x="1238.5" y="858.373">:JobOpeningDTO</text><rect fill="#FFFFFF" height="676.4023" style="stroke:#181818;stroke-width:1.0;" width="10" x="33.5" y="133.2422"/><rect fill="#FFFFFF" height="609.5293" style="stroke:#181818;stroke-width:1.0;" width="10" x="279.5" y="191.1152"/><rect fill="#FFFFFF" height="546.9473" style="stroke:#181818;stroke-width:1.0;" width="10" x="487.5" y="222.4063"/><rect fill="#FFFFFF" height="484.3652" style="stroke:#181818;stroke-width:1.0;" width="10" x="722.5" y="253.6973"/><rect fill="#FFFFFF" height="31.291" style="stroke:#181818;stroke-width:1.0;" width="10" x="1031.5" y="284.9883"/><rect fill="#FFFFFF" height="31.291" style="stroke:#181818;stroke-width:1.0;" width="10" x="1031.5" y="668.4805"/><rect fill="#FFFFFF" height="31.291" style="stroke:#181818;stroke-width:1.0;" width="10" x="1169.5" y="418.1523"/><rect fill="#FFFFFF" height="31.291" style="stroke:#181818;stroke-width:1.0;" width="10" x="1288.5" y="480.7344"/><rect fill="#FFFFFF" height="31.291" style="stroke:#181818;stroke-width:1.0;" width="10" x="1288.5" y="543.3164"/><rect fill="#FFFFFF" height="31.291" style="stroke:#181818;stroke-width:1.0;" width="10" x="1288.5" y="605.8984"/><polygon fill="#181818" points="267.5,187.1152,277.5,191.1152,267.5,195.1152,271.5,191.1152" style="stroke:#181818;stroke-width:1.0;"/><line style="stroke:#181818;stroke-width:1.0;" x1="43.5" x2="273.5" y1="191.1152" y2="191.1152"/><text fill="#000000" font-family="sans-serif" font-size="13" lengthAdjust="spacing" textLength="206" x="50.5" y="151.2705">Requests to list all his job openings</text><text fill="#000000" font-family="sans-serif" font-size="13" lengthAdjust="spacing" textLength="198" x="50.5" y="168.5615">(job reference, function, start date,</text><text fill="#000000" font-family="sans-serif" font-size="13" lengthAdjust="spacing" textLength="155" x="50.5" y="185.8525">number of job applications)</text><polygon fill="#181818" points="475.5,218.4063,485.5,222.4063,475.5,226.4063,479.5,222.4063" style="stroke:#181818;stroke-width:1.0;"/><line style="stroke:#181818;stroke-width:1.0;" x1="289.5" x2="481.5" y1="222.4063" y2="222.4063"/><text fill="#000000" font-family="sans-serif" font-size="13" lengthAdjust="spacing" textLength="175" x="296.5" y="217.1436">listJobOpeningsForCustomer()</text><polygon fill="#181818" points="710.5,249.6973,720.5,253.6973,710.5,257.6973,714.5,253.6973" style="stroke:#181818;stroke-width:1.0;"/><line style="stroke:#181818;stroke-width:1.0;" x1="497.5" x2="716.5" y1="253.6973" y2="253.6973"/><text fill="#000000" font-family="sans-serif" font-size="13" lengthAdjust="spacing" textLength="206" x="504.5" y="248.4346">listJobOpeningsForCustomer(email)</text><polygon fill="#181818" points="1019.5,280.9883,1029.5,284.9883,1019.5,288.9883,1023.5,284.9883" style="stroke:#181818;stroke-width:1.0;"/><line style="stroke:#181818;stroke-width:1.0;" x1="732.5" x2="1025.5" y1="284.9883" y2="284.9883"/><text fill="#000000" font-family="sans-serif" font-size="13" lengthAdjust="spacing" textLength="221" x="739.5" y="279.7256">findByCustomerEmail(email.toString())</text><polygon fill="#181818" points="743.5,312.2793,733.5,316.2793,743.5,320.2793,739.5,316.2793" style="stroke:#181818;stroke-width:1.0;"/><line style="stroke:#181818;stroke-width:1.0;stroke-dasharray:2.0,2.0;" x1="737.5" x2="1035.5" y1="316.2793" y2="316.2793"/><text fill="#000000" font-family="sans-serif" font-size="13" lengthAdjust="spacing" textLength="105" x="749.5" y="311.0166">List&lt;JobOpening&gt;</text><line style="stroke:#181818;stroke-width:1.0;stroke-dasharray:2.0,2.0;" x1="732.5" x2="774.5" y1="347.5703" y2="347.5703"/><line style="stroke:#181818;stroke-width:1.0;stroke-dasharray:2.0,2.0;" x1="774.5" x2="774.5" y1="347.5703" y2="360.5703"/><line style="stroke:#181818;stroke-width:1.0;stroke-dasharray:2.0,2.0;" x1="733.5" x2="774.5" y1="360.5703" y2="360.5703"/><polygon fill="#181818" points="743.5,356.5703,733.5,360.5703,743.5,364.5703,739.5,360.5703" style="stroke:#181818;stroke-width:1.0;"/><text fill="#000000" font-family="sans-serif" font-size="13" lengthAdjust="spacing" textLength="266" x="739.5" y="342.3076">addJobOpeningDetails(customerJobOpenings)</text><path d="M636,375.5703 L709,375.5703 L709,384.8613 L699,394.8613 L636,394.8613 L636,375.5703 " fill="#EEEEEE" style="stroke:#000000;stroke-width:1.5;"/><rect fill="none" height="332.2012" style="stroke:#000000;stroke-width:1.5;" width="729.5" x="636" y="375.5703"/><text fill="#000000" font-family="sans-serif" font-size="13" font-weight="bold" lengthAdjust="spacing" textLength="28" x="651" y="390.5986">loop</text><text fill="#000000" font-family="sans-serif" font-size="11" font-weight="bold" lengthAdjust="spacing" textLength="121" x="724" y="389.4404">[for each job opening]</text><polygon fill="#181818" points="1157.5,414.1523,1167.5,418.1523,1157.5,422.1523,1161.5,418.1523" style="stroke:#181818;stroke-width:1.0;"/><line style="stroke:#181818;stroke-width:1.0;" x1="732.5" x2="1163.5" y1="418.1523" y2="418.1523"/><text fill="#000000" font-family="sans-serif" font-size="13" lengthAdjust="spacing" textLength="45" x="739.5" y="412.8896">toDTO()</text><polygon fill="#181818" points="743.5,445.4434,733.5,449.4434,743.5,453.4434,739.5,449.4434" style="stroke:#181818;stroke-width:1.0;"/><line style="stroke:#181818;stroke-width:1.0;stroke-dasharray:2.0,2.0;" x1="737.5" x2="1173.5" y1="449.4434" y2="449.4434"/><text fill="#000000" font-family="sans-serif" font-size="13" lengthAdjust="spacing" textLength="94" x="749.5" y="444.1807">JobOpeningDTO</text><polygon fill="#181818" points="1276.5,476.7344,1286.5,480.7344,1276.5,484.7344,1280.5,480.7344" style="stroke:#181818;stroke-width:1.0;"/><line style="stroke:#181818;stroke-width:1.0;" x1="732.5" x2="1282.5" y1="480.7344" y2="480.7344"/><text fill="#000000" font-family="sans-serif" font-size="13" lengthAdjust="spacing" textLength="104" x="739.5" y="475.4717">getJobReference()</text><polygon fill="#181818" points="743.5,508.0254,733.5,512.0254,743.5,516.0254,739.5,512.0254" style="stroke:#181818;stroke-width:1.0;"/><line style="stroke:#181818;stroke-width:1.0;stroke-dasharray:2.0,2.0;" x1="737.5" x2="1292.5" y1="512.0254" y2="512.0254"/><text fill="#000000" font-family="sans-serif" font-size="13" lengthAdjust="spacing" textLength="75" x="749.5" y="506.7627">jobReference</text><polygon fill="#181818" points="1276.5,539.3164,1286.5,543.3164,1276.5,547.3164,1280.5,543.3164" style="stroke:#181818;stroke-width:1.0;"/><line style="stroke:#181818;stroke-width:1.0;" x1="732.5" x2="1282.5" y1="543.3164" y2="543.3164"/><text fill="#000000" font-family="sans-serif" font-size="13" lengthAdjust="spacing" textLength="76" x="739.5" y="538.0537">getFunction()</text><polygon fill="#181818" points="743.5,570.6074,733.5,574.6074,743.5,578.6074,739.5,574.6074" style="stroke:#181818;stroke-width:1.0;"/><line style="stroke:#181818;stroke-width:1.0;stroke-dasharray:2.0,2.0;" x1="737.5" x2="1292.5" y1="574.6074" y2="574.6074"/><text fill="#000000" font-family="sans-serif" font-size="13" lengthAdjust="spacing" textLength="45" x="749.5" y="569.3447">function</text><polygon fill="#181818" points="1276.5,601.8984,1286.5,605.8984,1276.5,609.8984,1280.5,605.8984" style="stroke:#181818;stroke-width:1.0;"/><line style="stroke:#181818;stroke-width:1.0;" x1="732.5" x2="1282.5" y1="605.8984" y2="605.8984"/><text fill="#000000" font-family="sans-serif" font-size="13" lengthAdjust="spacing" textLength="81" x="739.5" y="600.6357">getStartDate()</text><polygon fill="#181818" points="743.5,633.1895,733.5,637.1895,743.5,641.1895,739.5,637.1895" style="stroke:#181818;stroke-width:1.0;"/><line style="stroke:#181818;stroke-width:1.0;stroke-dasharray:2.0,2.0;" x1="737.5" x2="1292.5" y1="637.1895" y2="637.1895"/><text fill="#000000" font-family="sans-serif" font-size="13" lengthAdjust="spacing" textLength="53" x="749.5" y="631.9268">startDate</text><polygon fill="#181818" points="1019.5,664.4805,1029.5,668.4805,1019.5,672.4805,1023.5,668.4805" style="stroke:#181818;stroke-width:1.0;"/><line style="stroke:#181818;stroke-width:1.0;" x1="732.5" x2="1025.5" y1="668.4805" y2="668.4805"/><text fill="#000000" font-family="sans-serif" font-size="13" lengthAdjust="spacing" textLength="280" x="739.5" y="663.2178">countApplicationsByJobReference(jobReference)</text><polygon fill="#181818" points="743.5,695.7715,733.5,699.7715,743.5,703.7715,739.5,699.7715" style="stroke:#181818;stroke-width:1.0;"/><line style="stroke:#181818;stroke-width:1.0;stroke-dasharray:2.0,2.0;" x1="737.5" x2="1035.5" y1="699.7715" y2="699.7715"/><text fill="#000000" font-family="sans-serif" font-size="13" lengthAdjust="spacing" textLength="117" x="749.5" y="694.5088">numberOfApplicants</text><polygon fill="#181818" points="508.5,734.0625,498.5,738.0625,508.5,742.0625,504.5,738.0625" style="stroke:#181818;stroke-width:1.0;"/><line style="stroke:#181818;stroke-width:1.0;stroke-dasharray:2.0,2.0;" x1="502.5" x2="726.5" y1="738.0625" y2="738.0625"/><text fill="#000000" font-family="sans-serif" font-size="13" lengthAdjust="spacing" textLength="150" x="514.5" y="732.7998">customerJobOpenings list</text><polygon fill="#181818" points="300.5,765.3535,290.5,769.3535,300.5,773.3535,296.5,769.3535" style="stroke:#181818;stroke-width:1.0;"/><line style="stroke:#181818;stroke-width:1.0;stroke-dasharray:2.0,2.0;" x1="294.5" x2="491.5" y1="769.3535" y2="769.3535"/><text fill="#000000" font-family="sans-serif" font-size="13" lengthAdjust="spacing" textLength="150" x="306.5" y="764.0908">customerJobOpenings list</text><polygon fill="#181818" points="54.5,796.6445,44.5,800.6445,54.5,804.6445,50.5,800.6445" style="stroke:#181818;stroke-width:1.0;"/><line style="stroke:#181818;stroke-width:1.0;stroke-dasharray:2.0,2.0;" x1="48.5" x2="283.5" y1="800.6445" y2="800.6445"/><text fill="#000000" font-family="sans-serif" font-size="13" lengthAdjust="spacing" textLength="212" x="60.5" y="795.3818">Displays customer Job Openings list</text><!--SRC=[bLHDQ-Cm4BtxLmpTIm9fARit4m9jqy8k2u5aUri8YZrEL1J9Auq3-VSxaZyYksb8Sh6jp7jlFjw892c49qLejI1vmFNAg2eZQVHwBiNMYltwVVNZyV7x-hTqzCji5YLggRVkTL_ICKb4HiR2I-N8xD62S52VV5DokwEDgZ0fXIMPoL9eWhjqGFDcR0j-_tddyPM4wRIqw52Jy8dCPXSfNemcQvH26-1PzyaqeYoLpAvXMQ4zo0m3XQlV6T-yVSAUS4iiZPDSyJ50BNyopdQd5w01OEftnd2vaYx5p_yi0YGdi-1uVd1mc80y2CAwySr0xcU-ZoaiyL-5ZXoG0SK5Wr0ATjB1XzcqsWx-wf7_jbYWHPtX18fA1nDCm16d0paBJ3XEL_iDTzOKWI1ghnkV4gbamkASmcaMQL0_F_TH13qXacYGJDLCuY8FxeLK4Lc3ITfvCeqVJ0g5rFdpiSMzUbWDVY2p8ikyet74uq59cEnzd8atqFIKoYp9iG_fT2EKoFDeeaWiwaPPaqbKrpXHnfHGy2oPTHVFAm7-HJKrnodFc2t2tVJ_Tvd4eDPilJ9w1WjXKHrVI7eBfh15FubbwvgXiW-g-RnXUveV4MmesS7EwRqrlhn1gxNoJJehx_evXzqWv5hCDKh1JYdxlTBq5AtHyx7NqhXHWqo2nVp9PsVMMxee6c9DRfXI0AFEavv9utqzuycmUx7BsmMBLpNSFDV1esNtzmKZm-MLmbowKecZwrYyIU5B7hvl_WC0]--></g></svg>