<?xml version="1.0" encoding="us-ascii" standalone="no"?><svg xmlns="http://www.w3.org/2000/svg" xmlns:xlink="http://www.w3.org/1999/xlink" contentStyleType="text/css" height="511px" preserveAspectRatio="none" style="width:1057px;height:511px;background:#FFFFFF;" version="1.1" viewBox="0 0 1057 511" width="1057px" zoomAndPan="magnify"><defs/><g><text fill="#000000" font-family="sans-serif" font-size="14" font-weight="bold" lengthAdjust="spacing" textLength="444" x="305.75" y="30.1074">Alternative_Soluction_Diagram_US3002_ListJobOpeningsEmpty</text><rect fill="#FFFFFF" height="285.9102" style="stroke:#181818;stroke-width:1.0;" width="10" x="33.5" y="133.2422"/><rect fill="#FFFFFF" height="219.0371" style="stroke:#181818;stroke-width:1.0;" width="10" x="272.5" y="191.1152"/><rect fill="#FFFFFF" height="156.4551" style="stroke:#181818;stroke-width:1.0;" width="10" x="480.5" y="222.4063"/><rect fill="#FFFFFF" height="93.873" style="stroke:#181818;stroke-width:1.0;" width="10" x="715.5" y="253.6973"/><rect fill="#FFFFFF" height="31.291" style="stroke:#181818;stroke-width:1.0;" width="10" x="965.5" y="284.9883"/><line style="stroke:#181818;stroke-width:0.5;stroke-dasharray:5.0,5.0;" x1="38" x2="38" y1="123.2422" y2="428.1523"/><line style="stroke:#181818;stroke-width:0.5;stroke-dasharray:5.0,5.0;" x1="277.5" x2="277.5" y1="123.2422" y2="428.1523"/><line style="stroke:#181818;stroke-width:0.5;stroke-dasharray:5.0,5.0;" x1="485.5" x2="485.5" y1="123.2422" y2="428.1523"/><line style="stroke:#181818;stroke-width:0.5;stroke-dasharray:5.0,5.0;" x1="720" x2="720" y1="123.2422" y2="428.1523"/><line style="stroke:#181818;stroke-width:0.5;stroke-dasharray:5.0,5.0;" x1="970.5" x2="970.5" y1="123.2422" y2="428.1523"/><text fill="#000000" font-family="sans-serif" font-size="14" lengthAdjust="spacing" textLength="61" x="5" y="119.7285">Customer</text><ellipse cx="38.5" cy="53.1211" fill="#ADD8E6" rx="8" ry="8" style="stroke:#181818;stroke-width:0.5;"/><path d="M38.5,61.1211 L38.5,88.1211 M25.5,69.1211 L51.5,69.1211 M38.5,88.1211 L25.5,103.1211 M38.5,88.1211 L51.5,103.1211 " fill="none" style="stroke:#181818;stroke-width:0.5;"/><text fill="#000000" font-family="sans-serif" font-size="14" lengthAdjust="spacing" textLength="61" x="5" y="442.2598">Customer</text><ellipse cx="38.5" cy="454.2734" fill="#ADD8E6" rx="8" ry="8" style="stroke:#181818;stroke-width:0.5;"/><path d="M38.5,462.2734 L38.5,489.2734 M25.5,470.2734 L51.5,470.2734 M38.5,489.2734 L25.5,504.2734 M38.5,489.2734 L51.5,504.2734 " fill="none" style="stroke:#181818;stroke-width:0.5;"/><rect fill="#E2E2F0" height="51.2422" rx="2.5" ry="2.5" style="stroke:#181818;stroke-width:0.5;" width="218" x="168.5" y="71"/><text fill="#000000" font-family="sans-serif" font-size="14" font-style="italic" lengthAdjust="spacing" textLength="95" x="230" y="93.1074">&#171;presentation&#187;</text><text fill="#000000" font-family="sans-serif" font-size="14" lengthAdjust="spacing" textLength="204" x="175.5" y="111.7285">:ListJobOpeningsForCustomerUI</text><rect fill="#E2E2F0" height="51.2422" rx="2.5" ry="2.5" style="stroke:#181818;stroke-width:0.5;" width="218" x="168.5" y="427.1523"/><text fill="#000000" font-family="sans-serif" font-size="14" font-style="italic" lengthAdjust="spacing" textLength="95" x="230" y="449.2598">&#171;presentation&#187;</text><text fill="#000000" font-family="sans-serif" font-size="14" lengthAdjust="spacing" textLength="204" x="175.5" y="467.8809">:ListJobOpeningsForCustomerUI</text><rect fill="#E2E2F0" height="51.2422" rx="2.5" ry="2.5" style="stroke:#181818;stroke-width:0.5;" width="178" x="396.5" y="71"/><text fill="#000000" font-family="sans-serif" font-size="14" font-style="italic" lengthAdjust="spacing" textLength="84" x="443.5" y="93.1074">&#171;application&#187;</text><text fill="#000000" font-family="sans-serif" font-size="14" lengthAdjust="spacing" textLength="164" x="403.5" y="111.7285">:ListJobOpeningController</text><rect fill="#E2E2F0" height="51.2422" rx="2.5" ry="2.5" style="stroke:#181818;stroke-width:0.5;" width="178" x="396.5" y="427.1523"/><text fill="#000000" font-family="sans-serif" font-size="14" font-style="italic" lengthAdjust="spacing" textLength="84" x="443.5" y="449.2598">&#171;application&#187;</text><text fill="#000000" font-family="sans-serif" font-size="14" lengthAdjust="spacing" textLength="164" x="403.5" y="467.8809">:ListJobOpeningController</text><rect fill="#E2E2F0" height="51.2422" rx="2.5" ry="2.5" style="stroke:#181818;stroke-width:0.5;" width="163" x="639" y="71"/><text fill="#000000" font-family="sans-serif" font-size="14" font-style="italic" lengthAdjust="spacing" textLength="60" x="690.5" y="93.1074">&#171;service&#187;</text><text fill="#000000" font-family="sans-serif" font-size="14" lengthAdjust="spacing" textLength="149" x="646" y="111.7285">:ListJobOpeningService</text><rect fill="#E2E2F0" height="51.2422" rx="2.5" ry="2.5" style="stroke:#181818;stroke-width:0.5;" width="163" x="639" y="427.1523"/><text fill="#000000" font-family="sans-serif" font-size="14" font-style="italic" lengthAdjust="spacing" textLength="60" x="690.5" y="449.2598">&#171;service&#187;</text><text fill="#000000" font-family="sans-serif" font-size="14" lengthAdjust="spacing" textLength="149" x="646" y="467.8809">:ListJobOpeningService</text><rect fill="#E2E2F0" height="51.2422" rx="2.5" ry="2.5" style="stroke:#181818;stroke-width:0.5;" width="162" x="889.5" y="71"/><text fill="#000000" font-family="sans-serif" font-size="14" font-style="italic" lengthAdjust="spacing" textLength="79" x="931" y="93.1074">&#171;repository&#187;</text><text fill="#000000" font-family="sans-serif" font-size="14" lengthAdjust="spacing" textLength="148" x="896.5" y="111.7285">:JobOpeningRepository</text><rect fill="#E2E2F0" height="51.2422" rx="2.5" ry="2.5" style="stroke:#181818;stroke-width:0.5;" width="162" x="889.5" y="427.1523"/><text fill="#000000" font-family="sans-serif" font-size="14" font-style="italic" lengthAdjust="spacing" textLength="79" x="931" y="449.2598">&#171;repository&#187;</text><text fill="#000000" font-family="sans-serif" font-size="14" lengthAdjust="spacing" textLength="148" x="896.5" y="467.8809">:JobOpeningRepository</text><rect fill="#FFFFFF" height="285.9102" style="stroke:#181818;stroke-width:1.0;" width="10" x="33.5" y="133.2422"/><rect fill="#FFFFFF" height="219.0371" style="stroke:#181818;stroke-width:1.0;" width="10" x="272.5" y="191.1152"/><rect fill="#FFFFFF" height="156.4551" style="stroke:#181818;stroke-width:1.0;" width="10" x="480.5" y="222.4063"/><rect fill="#FFFFFF" height="93.873" style="stroke:#181818;stroke-width:1.0;" width="10" x="715.5" y="253.6973"/><rect fill="#FFFFFF" height="31.291" style="stroke:#181818;stroke-width:1.0;" width="10" x="965.5" y="284.9883"/><polygon fill="#181818" points="260.5,187.1152,270.5,191.1152,260.5,195.1152,264.5,191.1152" style="stroke:#181818;stroke-width:1.0;"/><line style="stroke:#181818;stroke-width:1.0;" x1="43.5" x2="266.5" y1="191.1152" y2="191.1152"/><text fill="#000000" font-family="sans-serif" font-size="13" lengthAdjust="spacing" textLength="206" x="50.5" y="151.2705">Requests to list all his job openings</text><text fill="#000000" font-family="sans-serif" font-size="13" lengthAdjust="spacing" textLength="198" x="50.5" y="168.5615">(job reference, function, start date,</text><text fill="#000000" font-family="sans-serif" font-size="13" lengthAdjust="spacing" textLength="155" x="50.5" y="185.8525">number of job applications)</text><polygon fill="#181818" points="468.5,218.4063,478.5,222.4063,468.5,226.4063,472.5,222.4063" style="stroke:#181818;stroke-width:1.0;"/><line style="stroke:#181818;stroke-width:1.0;" x1="282.5" x2="474.5" y1="222.4063" y2="222.4063"/><text fill="#000000" font-family="sans-serif" font-size="13" lengthAdjust="spacing" textLength="175" x="289.5" y="217.1436">listJobOpeningsForCustomer()</text><polygon fill="#181818" points="703.5,249.6973,713.5,253.6973,703.5,257.6973,707.5,253.6973" style="stroke:#181818;stroke-width:1.0;"/><line style="stroke:#181818;stroke-width:1.0;" x1="490.5" x2="709.5" y1="253.6973" y2="253.6973"/><text fill="#000000" font-family="sans-serif" font-size="13" lengthAdjust="spacing" textLength="206" x="497.5" y="248.4346">listJobOpeningsForCustomer(email)</text><polygon fill="#181818" points="953.5,280.9883,963.5,284.9883,953.5,288.9883,957.5,284.9883" style="stroke:#181818;stroke-width:1.0;"/><line style="stroke:#181818;stroke-width:1.0;" x1="725.5" x2="959.5" y1="284.9883" y2="284.9883"/><text fill="#000000" font-family="sans-serif" font-size="13" lengthAdjust="spacing" textLength="221" x="732.5" y="279.7256">findByCustomerEmail(email.toString())</text><polygon fill="#181818" points="736.5,312.2793,726.5,316.2793,736.5,320.2793,732.5,316.2793" style="stroke:#181818;stroke-width:1.0;"/><line style="stroke:#181818;stroke-width:1.0;stroke-dasharray:2.0,2.0;" x1="730.5" x2="969.5" y1="316.2793" y2="316.2793"/><text fill="#000000" font-family="sans-serif" font-size="13" lengthAdjust="spacing" textLength="105" x="742.5" y="311.0166">List&lt;JobOpening&gt;</text><polygon fill="#181818" points="501.5,343.5703,491.5,347.5703,501.5,351.5703,497.5,347.5703" style="stroke:#181818;stroke-width:1.0;"/><line style="stroke:#181818;stroke-width:1.0;stroke-dasharray:2.0,2.0;" x1="495.5" x2="719.5" y1="347.5703" y2="347.5703"/><text fill="#000000" font-family="sans-serif" font-size="13" lengthAdjust="spacing" textLength="57" x="507.5" y="342.3076">empty list</text><polygon fill="#181818" points="293.5,374.8613,283.5,378.8613,293.5,382.8613,289.5,378.8613" style="stroke:#181818;stroke-width:1.0;"/><line style="stroke:#181818;stroke-width:1.0;stroke-dasharray:2.0,2.0;" x1="287.5" x2="484.5" y1="378.8613" y2="378.8613"/><text fill="#000000" font-family="sans-serif" font-size="13" lengthAdjust="spacing" textLength="57" x="299.5" y="373.5986">empty list</text><polygon fill="#181818" points="54.5,406.1523,44.5,410.1523,54.5,414.1523,50.5,410.1523" style="stroke:#181818;stroke-width:1.0;"/><line style="stroke:#181818;stroke-width:1.0;stroke-dasharray:2.0,2.0;" x1="48.5" x2="276.5" y1="410.1523" y2="410.1523"/><text fill="#000000" font-family="sans-serif" font-size="13" lengthAdjust="spacing" textLength="137" x="60.5" y="404.8896">Displays error message</text><!--SRC=[ZP9FQoCn3CNlyob4UqaXBQ6z3I6mRREmoy92Gs-5u4oKLCLZUsLD8D- -iZF9k7_PcsNyUtfwif1OX1zMa9qHsk5ouMtN27ctl2UpPTCk7nStaydryWz5-UrNVmCwSjiuRuFigyequXdkkYY-HGOJuN1pRcdxB2lROHKC2pKKZ1Cugz_9_FHyX1z_dIM-8vXE0sD49oOPcSs-bRZpJjXRYvpnvbIgZ0d1KlC_AWla7JMO9UBXh7n_-i0Et0C67qadtcUKjLIEJxUAfenePmGFqVIHNSxIf3KyuByEeqGG3rOjWR4MdYd2Yr-1xrE29pTADUC66Ls3OzXqBgzf357K6wormLZVkQvTwUn-amMA0EB5OAIZIfkhXI6jEdV_V3EZ0Xs8geXQfVgiljN1rf0jn7gcEYQkCYcw6ZRarhVx8pTFs06-4hyGLjtHHQ6Je2fdVrawIIkU3bPcrHhV8gU-xwB0zBdp82LoT5lEdTVu5L1abUBMjtdtDTnJ3DRi8o2p_eKMOpHRB57Tq2i0]--></g></svg>