<?xml version="1.0" encoding="us-ascii" standalone="no"?><svg xmlns="http://www.w3.org/2000/svg" xmlns:xlink="http://www.w3.org/1999/xlink" contentStyleType="text/css" height="1997.45px" preserveAspectRatio="none" style="width:2922px;height:1997px;background:#FFFFFF;" version="1.1" viewBox="0 0 2922 1997" width="2922.01px" zoomAndPan="magnify"><defs/><g><text fill="#000000" font-family="sans-serif" font-size="12.74" font-weight="bold" lengthAdjust="spacing" textLength="212.03" x="1360.6775" y="27.3978">FollowUpServer Diagram_US3002</text><rect fill="#90EE90" height="1951.2195" style="stroke:#181818;stroke-width:0.455;" width="1412.32" x="23.66" y="41.5152"/><text fill="#000000" font-family="sans-serif" font-size="11.83" font-weight="bold" lengthAdjust="spacing" textLength="92.82" x="683.41" y="54.281">FollowUpServer</text><rect fill="#ADD8E6" height="1951.2195" style="stroke:#181818;stroke-width:0.455;" width="1213.94" x="1678.495" y="41.5152"/><text fill="#000000" font-family="sans-serif" font-size="11.83" font-weight="bold" lengthAdjust="spacing" textLength="27.3" x="2271.815" y="54.281">Core</text><rect fill="#FFFFFF" height="1816.7439" style="stroke:#181818;stroke-width:0.91;" width="9.1" x="70.07" y="117.5304"/><rect fill="#FFFFFF" height="1771.8891" style="stroke:#181818;stroke-width:0.91;" width="9.1" x="370.37" y="147.8252"/><rect fill="#FFFFFF" height="1712.8191" style="stroke:#181818;stroke-width:0.91;" width="9.1" x="576.03" y="178.4204"/><rect fill="#FFFFFF" height="1478.6505" style="stroke:#181818;stroke-width:0.91;" width="9.1" x="1141.595" y="362.6101"/><rect fill="#FFFFFF" height="1478.6505" style="stroke:#181818;stroke-width:0.91;" width="9.1" x="1622.985" y="362.6101"/><rect fill="#FFFFFF" height="296.2868" style="stroke:#181818;stroke-width:0.91;" width="9.1" x="1715.35" y="391.0849"/><rect fill="#FFFFFF" height="28.4748" style="stroke:#181818;stroke-width:0.91;" width="9.1" x="1715.35" y="1784.3109"/><rect fill="#FFFFFF" height="601.9028" style="stroke:#181818;stroke-width:0.91;" width="9.1" x="2094.365" y="1113.6285"/><rect fill="#FFFFFF" height="488.3128" style="stroke:#181818;stroke-width:0.91;" width="9.1" x="2312.765" y="1198.7437"/><rect fill="#FFFFFF" height="28.4748" style="stroke:#181818;stroke-width:0.91;" width="9.1" x="2576.665" y="1395.9382"/><rect fill="#FFFFFF" height="28.4748" style="stroke:#181818;stroke-width:0.91;" width="9.1" x="2684.955" y="1452.8879"/><rect fill="#FFFFFF" height="28.4748" style="stroke:#181818;stroke-width:0.91;" width="9.1" x="2684.955" y="1509.8375"/><rect fill="#FFFFFF" height="28.4748" style="stroke:#181818;stroke-width:0.91;" width="9.1" x="2684.955" y="1566.7872"/><rect fill="#FFFFFF" height="377.4527" style="stroke:#181818;stroke-width:0.91;" width="9.1" x="2817.36" y="1274.7589"/><rect fill="none" height="1603.1338" style="stroke:#000000;stroke-width:1.365;" width="2897.895" x="18.2" y="323.8605"/><rect fill="none" height="1443.8056" style="stroke:#000000;stroke-width:1.365;" width="1837.745" x="1069.25" y="404.7349"/><rect fill="none" height="481.9872" style="stroke:#000000;stroke-width:1.365;" width="1819.545" x="1078.35" y="579.8424"/><rect fill="none" height="46.0296" style="stroke:#000000;stroke-width:1.365;" width="783.965" x="1087.45" y="786.1369"/><rect fill="none" height="46.0296" style="stroke:#000000;stroke-width:1.365;" width="783.965" x="1087.45" y="873.3814"/><rect fill="none" height="302.3031" style="stroke:#000000;stroke-width:1.365;" width="663.845" x="2234.05" y="1357.1886"/><line style="stroke:#181818;stroke-width:0.455;stroke-dasharray:5.0,5.0;" x1="74.62" x2="74.62" y1="108.4304" y2="1942.4643"/><line style="stroke:#181818;stroke-width:0.455;stroke-dasharray:5.0,5.0;" x1="374.92" x2="374.92" y1="146.478" y2="1942.4643"/><line style="stroke:#181818;stroke-width:0.455;stroke-dasharray:5.0,5.0;" x1="580.125" x2="580.125" y1="108.4304" y2="1942.4643"/><line style="stroke:#181818;stroke-width:0.455;stroke-dasharray:5.0,5.0;" x1="839.02" x2="839.02" y1="267.0477" y2="1942.4643"/><line style="stroke:#181818;stroke-width:0.455;stroke-dasharray:5.0,5.0;" x1="1145.69" x2="1145.69" y1="306.7429" y2="1942.4643"/><line style="stroke:#181818;stroke-width:0.455;stroke-dasharray:5.0,5.0;" x1="1401.4" x2="1401.4" y1="108.4304" y2="1942.4643"/><line style="stroke:#181818;stroke-width:0.455;stroke-dasharray:5.0,5.0;" x1="1627.535" x2="1627.535" y1="108.4304" y2="1942.4643"/><line style="stroke:#181818;stroke-width:0.455;stroke-dasharray:5.0,5.0;" x1="1719.445" x2="1719.445" y1="108.4304" y2="1942.4643"/><line style="stroke:#181818;stroke-width:0.455;stroke-dasharray:5.0,5.0;" x1="1814.085" x2="1814.085" y1="732.0719" y2="1942.4643"/><line style="stroke:#181818;stroke-width:0.455;stroke-dasharray:5.0,5.0;" x1="1939.665" x2="1939.665" y1="108.4304" y2="1942.4643"/><line style="stroke:#181818;stroke-width:0.455;stroke-dasharray:5.0,5.0;" x1="2098.915" x2="2098.915" y1="1120.7539" y2="1942.4643"/><line style="stroke:#181818;stroke-width:0.455;stroke-dasharray:5.0,5.0;" x1="2316.86" x2="2316.86" y1="1205.8691" y2="1942.4643"/><line style="stroke:#181818;stroke-width:0.455;stroke-dasharray:5.0,5.0;" x1="2581.215" x2="2581.215" y1="108.4304" y2="1942.4643"/><line style="stroke:#181818;stroke-width:0.455;stroke-dasharray:5.0,5.0;" x1="2689.505" x2="2689.505" y1="108.4304" y2="1942.4643"/><line style="stroke:#181818;stroke-width:0.455;stroke-dasharray:5.0,5.0;" x1="2821.455" x2="2821.455" y1="108.4304" y2="1942.4643"/><rect fill="#E2E2F0" height="29.6852" rx="2.275" ry="2.275" style="stroke:#181818;stroke-width:0.455;" width="94.64" x="27.3" y="77.8352"/><text fill="#000000" font-family="sans-serif" font-size="12.74" lengthAdjust="spacing" textLength="81.9" x="33.67" y="97.953">:RcompServer</text><rect fill="#E2E2F0" height="29.6852" rx="2.275" ry="2.275" style="stroke:#181818;stroke-width:0.455;" width="94.64" x="27.3" y="1941.5543"/><text fill="#000000" font-family="sans-serif" font-size="12.74" lengthAdjust="spacing" textLength="81.9" x="33.67" y="1961.6721">:RcompServer</text><rect fill="#E2E2F0" height="29.6852" rx="2.275" ry="2.275" style="stroke:#181818;stroke-width:0.455;" width="54.6" x="347.62" y="1941.5543"/><text fill="#000000" font-family="sans-serif" font-size="12.74" lengthAdjust="spacing" textLength="41.86" x="353.99" y="1961.6721">:Server</text><rect fill="#E2E2F0" height="29.6852" rx="2.275" ry="2.275" style="stroke:#181818;stroke-width:0.455;" width="141.05" x="510.055" y="77.8352"/><text fill="#000000" font-family="sans-serif" font-size="12.74" lengthAdjust="spacing" textLength="128.31" x="516.425" y="97.953">:SemaphoreForServer</text><rect fill="#E2E2F0" height="29.6852" rx="2.275" ry="2.275" style="stroke:#181818;stroke-width:0.455;" width="141.05" x="510.055" y="1941.5543"/><text fill="#000000" font-family="sans-serif" font-size="12.74" lengthAdjust="spacing" textLength="128.31" x="516.425" y="1961.6721">:SemaphoreForServer</text><rect fill="#E2E2F0" height="29.6852" rx="2.275" ry="2.275" style="stroke:#181818;stroke-width:0.455;" width="58.24" x="809.9" y="1941.5543"/><text fill="#000000" font-family="sans-serif" font-size="12.74" lengthAdjust="spacing" textLength="45.5" x="816.27" y="1961.6721">:Thread</text><rect fill="#E2E2F0" height="29.6852" rx="2.275" ry="2.275" style="stroke:#181818;stroke-width:0.455;" width="99.19" x="1096.55" y="1941.5543"/><text fill="#000000" font-family="sans-serif" font-size="12.74" lengthAdjust="spacing" textLength="86.45" x="1102.92" y="1961.6721">:SimpleHandler</text><rect fill="#E2E2F0" height="29.6852" rx="2.275" ry="2.275" style="stroke:#181818;stroke-width:0.455;" width="60.97" x="1371.37" y="77.8352"/><text fill="#000000" font-family="sans-serif" font-size="12.74" lengthAdjust="spacing" textLength="48.23" x="1377.74" y="97.953">:Handler</text><rect fill="#E2E2F0" height="29.6852" rx="2.275" ry="2.275" style="stroke:#181818;stroke-width:0.455;" width="60.97" x="1371.37" y="1941.5543"/><text fill="#000000" font-family="sans-serif" font-size="12.74" lengthAdjust="spacing" textLength="48.23" x="1377.74" y="1961.6721">:Handler</text><rect fill="#FFA500" height="29.6852" rx="2.275" ry="2.275" style="stroke:#181818;stroke-width:0.455;" width="91" x="1582.035" y="77.8352"/><text fill="#000000" font-family="sans-serif" font-size="12.74" lengthAdjust="spacing" textLength="78.26" x="1588.405" y="97.953">CustomerApp</text><rect fill="#FFA500" height="29.6852" rx="2.275" ry="2.275" style="stroke:#181818;stroke-width:0.455;" width="91" x="1582.035" y="1941.5543"/><text fill="#000000" font-family="sans-serif" font-size="12.74" lengthAdjust="spacing" textLength="78.26" x="1588.405" y="1961.6721">CustomerApp</text><rect fill="#E2E2F0" height="29.6852" rx="2.275" ry="2.275" style="stroke:#181818;stroke-width:0.455;" width="75.53" x="1682.135" y="77.8352"/><text fill="#000000" font-family="sans-serif" font-size="12.74" lengthAdjust="spacing" textLength="62.79" x="1688.505" y="97.953">:Translator</text><rect fill="#E2E2F0" height="29.6852" rx="2.275" ry="2.275" style="stroke:#181818;stroke-width:0.455;" width="75.53" x="1682.135" y="1941.5543"/><text fill="#000000" font-family="sans-serif" font-size="12.74" lengthAdjust="spacing" textLength="62.79" x="1688.505" y="1961.6721">:Translator</text><rect fill="#E2E2F0" height="46.6304" rx="2.275" ry="2.275" style="stroke:#181818;stroke-width:0.455;" width="95.55" x="1766.765" y="1941.5543"/><text fill="#000000" font-family="sans-serif" font-size="12.74" font-style="italic" lengthAdjust="spacing" textLength="82.81" x="1773.135" y="1961.6721">&#171;value object&#187;</text><text fill="#000000" font-family="sans-serif" font-size="12.74" lengthAdjust="spacing" textLength="34.58" x="1797.25" y="1978.6173">:Email</text><rect fill="#E2E2F0" height="46.6304" rx="2.275" ry="2.275" style="stroke:#181818;stroke-width:0.455;" width="137.41" x="1871.415" y="60.89"/><text fill="#000000" font-family="sans-serif" font-size="12.74" font-style="italic" lengthAdjust="spacing" textLength="71.89" x="1904.175" y="81.0078">&#171;repository&#187;</text><text fill="#000000" font-family="sans-serif" font-size="12.74" lengthAdjust="spacing" textLength="124.67" x="1877.785" y="97.953">:CandidateRepository</text><rect fill="#E2E2F0" height="46.6304" rx="2.275" ry="2.275" style="stroke:#181818;stroke-width:0.455;" width="137.41" x="1871.415" y="1941.5543"/><text fill="#000000" font-family="sans-serif" font-size="12.74" font-style="italic" lengthAdjust="spacing" textLength="71.89" x="1904.175" y="1961.6721">&#171;repository&#187;</text><text fill="#000000" font-family="sans-serif" font-size="12.74" lengthAdjust="spacing" textLength="124.67" x="1877.785" y="1978.6173">:CandidateRepository</text><rect fill="#E2E2F0" height="46.6304" rx="2.275" ry="2.275" style="stroke:#181818;stroke-width:0.455;" width="161.98" x="2017.925" y="1941.5543"/><text fill="#000000" font-family="sans-serif" font-size="12.74" font-style="italic" lengthAdjust="spacing" textLength="76.44" x="2060.695" y="1961.6721">&#171;application&#187;</text><text fill="#000000" font-family="sans-serif" font-size="12.74" lengthAdjust="spacing" textLength="149.24" x="2024.295" y="1978.6173">:ListJobOpeningController</text><rect fill="#E2E2F0" height="46.6304" rx="2.275" ry="2.275" style="stroke:#181818;stroke-width:0.455;" width="148.33" x="2243.15" y="1941.5543"/><text fill="#000000" font-family="sans-serif" font-size="12.74" font-style="italic" lengthAdjust="spacing" textLength="54.6" x="2290.015" y="1961.6721">&#171;service&#187;</text><text fill="#000000" font-family="sans-serif" font-size="12.74" lengthAdjust="spacing" textLength="135.59" x="2249.52" y="1978.6173">:ListJobOpeningService</text><rect fill="#E2E2F0" height="46.6304" rx="2.275" ry="2.275" style="stroke:#181818;stroke-width:0.455;" width="85.54" x="2538.445" y="60.89"/><text fill="#000000" font-family="sans-serif" font-size="12.74" font-style="italic" lengthAdjust="spacing" textLength="45.5" x="2558.465" y="81.0078">&#171;entity&#187;</text><text fill="#000000" font-family="sans-serif" font-size="12.74" lengthAdjust="spacing" textLength="72.8" x="2544.815" y="97.953">:JobOpening</text><rect fill="#E2E2F0" height="46.6304" rx="2.275" ry="2.275" style="stroke:#181818;stroke-width:0.455;" width="85.54" x="2538.445" y="1941.5543"/><text fill="#000000" font-family="sans-serif" font-size="12.74" font-style="italic" lengthAdjust="spacing" textLength="45.5" x="2558.465" y="1961.6721">&#171;entity&#187;</text><text fill="#000000" font-family="sans-serif" font-size="12.74" lengthAdjust="spacing" textLength="72.8" x="2544.815" y="1978.6173">:JobOpening</text><rect fill="#E2E2F0" height="46.6304" rx="2.275" ry="2.275" style="stroke:#181818;stroke-width:0.455;" width="112.84" x="2633.085" y="60.89"/><text fill="#000000" font-family="sans-serif" font-size="12.74" font-style="italic" lengthAdjust="spacing" textLength="32.76" x="2673.125" y="81.0078">&#171;dto&#187;</text><text fill="#000000" font-family="sans-serif" font-size="12.74" lengthAdjust="spacing" textLength="100.1" x="2639.455" y="97.953">:JobOpeningDTO</text><rect fill="#E2E2F0" height="46.6304" rx="2.275" ry="2.275" style="stroke:#181818;stroke-width:0.455;" width="112.84" x="2633.085" y="1941.5543"/><text fill="#000000" font-family="sans-serif" font-size="12.74" font-style="italic" lengthAdjust="spacing" textLength="32.76" x="2673.125" y="1961.6721">&#171;dto&#187;</text><text fill="#000000" font-family="sans-serif" font-size="12.74" lengthAdjust="spacing" textLength="100.1" x="2639.455" y="1978.6173">:JobOpeningDTO</text><rect fill="#E2E2F0" height="46.6304" rx="2.275" ry="2.275" style="stroke:#181818;stroke-width:0.455;" width="133.77" x="2755.025" y="60.89"/><text fill="#000000" font-family="sans-serif" font-size="12.74" font-style="italic" lengthAdjust="spacing" textLength="71.89" x="2785.965" y="81.0078">&#171;repository&#187;</text><text fill="#000000" font-family="sans-serif" font-size="12.74" lengthAdjust="spacing" textLength="121.03" x="2761.395" y="97.953">:CustomerRepository</text><rect fill="#E2E2F0" height="46.6304" rx="2.275" ry="2.275" style="stroke:#181818;stroke-width:0.455;" width="133.77" x="2755.025" y="1941.5543"/><text fill="#000000" font-family="sans-serif" font-size="12.74" font-style="italic" lengthAdjust="spacing" textLength="71.89" x="2785.965" y="1961.6721">&#171;repository&#187;</text><text fill="#000000" font-family="sans-serif" font-size="12.74" lengthAdjust="spacing" textLength="121.03" x="2761.395" y="1978.6173">:CustomerRepository</text><rect fill="#FFFFFF" height="1816.7439" style="stroke:#181818;stroke-width:0.91;" width="9.1" x="70.07" y="117.5304"/><rect fill="#FFFFFF" height="1771.8891" style="stroke:#181818;stroke-width:0.91;" width="9.1" x="370.37" y="147.8252"/><rect fill="#FFFFFF" height="1712.8191" style="stroke:#181818;stroke-width:0.91;" width="9.1" x="576.03" y="178.4204"/><rect fill="#FFFFFF" height="1478.6505" style="stroke:#181818;stroke-width:0.91;" width="9.1" x="1141.595" y="362.6101"/><rect fill="#FFFFFF" height="1478.6505" style="stroke:#181818;stroke-width:0.91;" width="9.1" x="1622.985" y="362.6101"/><rect fill="#FFFFFF" height="296.2868" style="stroke:#181818;stroke-width:0.91;" width="9.1" x="1715.35" y="391.0849"/><rect fill="#FFFFFF" height="28.4748" style="stroke:#181818;stroke-width:0.91;" width="9.1" x="1715.35" y="1784.3109"/><rect fill="#FFFFFF" height="601.9028" style="stroke:#181818;stroke-width:0.91;" width="9.1" x="2094.365" y="1113.6285"/><rect fill="#FFFFFF" height="488.3128" style="stroke:#181818;stroke-width:0.91;" width="9.1" x="2312.765" y="1198.7437"/><rect fill="#FFFFFF" height="28.4748" style="stroke:#181818;stroke-width:0.91;" width="9.1" x="2576.665" y="1395.9382"/><rect fill="#FFFFFF" height="28.4748" style="stroke:#181818;stroke-width:0.91;" width="9.1" x="2684.955" y="1452.8879"/><rect fill="#FFFFFF" height="28.4748" style="stroke:#181818;stroke-width:0.91;" width="9.1" x="2684.955" y="1509.8375"/><rect fill="#FFFFFF" height="28.4748" style="stroke:#181818;stroke-width:0.91;" width="9.1" x="2684.955" y="1566.7872"/><rect fill="#FFFFFF" height="377.4527" style="stroke:#181818;stroke-width:0.91;" width="9.1" x="2817.36" y="1274.7589"/><polygon fill="#181818" points="336.7,135.0852,345.8,138.7252,336.7,142.3652,340.34,138.7252" style="stroke:#181818;stroke-width:0.91;"/><line style="stroke:#181818;stroke-width:0.91;" x1="79.17" x2="342.16" y1="138.7252" y2="138.7252"/><text fill="#000000" font-family="sans-serif" font-size="11.83" lengthAdjust="spacing" textLength="96.46" x="85.54" y="133.9362">new Server(PORT)</text><rect fill="#E2E2F0" height="29.6852" rx="2.275" ry="2.275" style="stroke:#181818;stroke-width:0.455;" width="54.6" x="347.62" y="117.5304"/><text fill="#000000" font-family="sans-serif" font-size="12.74" lengthAdjust="spacing" textLength="41.86" x="353.99" y="137.6482">:Server</text><polygon fill="#181818" points="565.11,174.7804,574.21,178.4204,565.11,182.0604,568.75,178.4204" style="stroke:#181818;stroke-width:0.91;"/><line style="stroke:#181818;stroke-width:0.91;" x1="379.47" x2="570.57" y1="178.4204" y2="178.4204"/><text fill="#000000" font-family="sans-serif" font-size="11.83" lengthAdjust="spacing" textLength="179.27" x="385.84" y="173.6314">instance().activateCriticalSection()</text><polygon fill="#181818" points="389.48,227.1801,380.38,230.8201,389.48,234.4601,385.84,230.8201" style="stroke:#181818;stroke-width:0.91;"/><line style="stroke:#181818;stroke-width:0.91;stroke-dasharray:2.0,2.0;" x1="384.02" x2="575.12" y1="230.8201" y2="230.8201"/><text fill="#000000" font-family="sans-serif" font-size="11.83" lengthAdjust="spacing" textLength="20.02" x="394.94" y="226.031">true</text><polygon fill="#181818" points="798.98,255.6549,808.08,259.2949,798.98,262.9349,802.62,259.2949" style="stroke:#181818;stroke-width:0.91;"/><line style="stroke:#181818;stroke-width:0.91;" x1="379.47" x2="804.44" y1="259.2949" y2="259.2949"/><text fill="#000000" font-family="sans-serif" font-size="11.83" lengthAdjust="spacing" textLength="408.59" x="385.84" y="254.5058">new Thread(serverThreadGroup, new SimpleHandler(serverSocketConnection))</text><rect fill="#E2E2F0" height="29.6852" rx="2.275" ry="2.275" style="stroke:#181818;stroke-width:0.455;" width="58.24" x="809.9" y="238.1001"/><text fill="#000000" font-family="sans-serif" font-size="12.74" lengthAdjust="spacing" textLength="45.5" x="816.27" y="258.2178">:Thread</text><polygon fill="#181818" points="1085.63,295.3501,1094.73,298.9901,1085.63,302.6301,1089.27,298.9901" style="stroke:#181818;stroke-width:0.91;"/><line style="stroke:#181818;stroke-width:0.91;" x1="839.02" x2="1091.09" y1="298.9901" y2="298.9901"/><text fill="#000000" font-family="sans-serif" font-size="11.83" lengthAdjust="spacing" textLength="235.69" x="845.39" y="294.201">new SimpleHandler(serverSocketConnection)</text><rect fill="#E2E2F0" height="29.6852" rx="2.275" ry="2.275" style="stroke:#181818;stroke-width:0.455;" width="99.19" x="1096.55" y="277.7953"/><text fill="#000000" font-family="sans-serif" font-size="12.74" lengthAdjust="spacing" textLength="86.45" x="1102.92" y="297.913">:SimpleHandler</text><path d="M18.2,323.8605 L84.63,323.8605 L84.63,332.3153 L75.53,341.4153 L18.2,341.4153 L18.2,323.8605 " fill="#EEEEEE" style="stroke:#000000;stroke-width:1.365;"/><rect fill="none" height="1603.1338" style="stroke:#000000;stroke-width:1.365;" width="2897.895" x="18.2" y="323.8605"/><text fill="#000000" font-family="sans-serif" font-size="11.83" font-weight="bold" lengthAdjust="spacing" textLength="25.48" x="31.85" y="337.5362">loop</text><text fill="#000000" font-family="sans-serif" font-size="10.01" font-weight="bold" lengthAdjust="spacing" textLength="90.09" x="98.28" y="336.4823">[while connected]</text><polygon fill="#181818" points="1160.705,358.9701,1151.605,362.6101,1160.705,366.2501,1157.065,362.6101" style="stroke:#181818;stroke-width:0.91;"/><line style="stroke:#181818;stroke-width:0.91;stroke-dasharray:2.0,2.0;" x1="1155.245" x2="1622.075" y1="362.6101" y2="362.6101"/><text fill="#000000" font-family="sans-serif" font-size="11.83" lengthAdjust="spacing" textLength="81.9" x="1166.165" y="357.8211">byte[] message</text><polygon fill="#181818" points="1704.43,387.4449,1713.53,391.0849,1704.43,394.7249,1708.07,391.0849" style="stroke:#181818;stroke-width:0.91;"/><line style="stroke:#181818;stroke-width:0.91;" x1="1150.695" x2="1709.89" y1="391.0849" y2="391.0849"/><text fill="#000000" font-family="sans-serif" font-size="11.83" lengthAdjust="spacing" textLength="121.03" x="1157.065" y="386.2959">decodeCode(message)</text><path d="M1069.25,404.7349 L1124.76,404.7349 L1124.76,413.1898 L1115.66,422.2898 L1069.25,422.2898 L1069.25,404.7349 " fill="#EEEEEE" style="stroke:#000000;stroke-width:1.365;"/><rect fill="none" height="1443.8056" style="stroke:#000000;stroke-width:1.365;" width="1837.745" x="1069.25" y="404.7349"/><text fill="#000000" font-family="sans-serif" font-size="11.83" font-weight="bold" lengthAdjust="spacing" textLength="14.56" x="1082.9" y="418.4107">alt</text><text fill="#000000" font-family="sans-serif" font-size="10.01" font-weight="bold" lengthAdjust="spacing" textLength="12.74" x="1138.41" y="417.3567">[0]</text><line style="stroke:#181818;stroke-width:0.91;" x1="1150.695" x2="1188.915" y1="443.4846" y2="443.4846"/><line style="stroke:#181818;stroke-width:0.91;" x1="1188.915" x2="1188.915" y1="443.4846" y2="455.3146"/><line style="stroke:#181818;stroke-width:0.91;" x1="1151.605" x2="1188.915" y1="455.3146" y2="455.3146"/><polygon fill="#181818" points="1160.705,451.6746,1151.605,455.3146,1160.705,458.9546,1157.065,455.3146" style="stroke:#181818;stroke-width:0.91;"/><text fill="#000000" font-family="sans-serif" font-size="11.83" lengthAdjust="spacing" textLength="57.33" x="1157.065" y="438.6955">sendACK()</text><line style="stroke:#000000;stroke-width:0.91;stroke-dasharray:2.0,2.0;" x1="1069.25" x2="2906.995" y1="463.5046" y2="463.5046"/><text fill="#000000" font-family="sans-serif" font-size="10.01" font-weight="bold" lengthAdjust="spacing" textLength="12.74" x="1073.8" y="474.3064">[1]</text><line style="stroke:#181818;stroke-width:0.91;" x1="1150.695" x2="1188.915" y1="498.9235" y2="498.9235"/><line style="stroke:#181818;stroke-width:0.91;" x1="1188.915" x2="1188.915" y1="498.9235" y2="510.7535"/><line style="stroke:#181818;stroke-width:0.91;" x1="1151.605" x2="1188.915" y1="510.7535" y2="510.7535"/><polygon fill="#181818" points="1160.705,507.1135,1151.605,510.7535,1160.705,514.3935,1157.065,510.7535" style="stroke:#181818;stroke-width:0.91;"/><text fill="#000000" font-family="sans-serif" font-size="11.83" lengthAdjust="spacing" textLength="93.73" x="1157.065" y="494.1344">connected = false</text><line style="stroke:#000000;stroke-width:0.91;stroke-dasharray:2.0,2.0;" x1="1069.25" x2="2906.995" y1="518.9435" y2="518.9435"/><text fill="#000000" font-family="sans-serif" font-size="10.01" font-weight="bold" lengthAdjust="spacing" textLength="12.74" x="1073.8" y="529.7453">[4]</text><line style="stroke:#181818;stroke-width:0.91;" x1="1150.695" x2="1188.915" y1="554.3624" y2="554.3624"/><line style="stroke:#181818;stroke-width:0.91;" x1="1188.915" x2="1188.915" y1="554.3624" y2="566.1924"/><line style="stroke:#181818;stroke-width:0.91;" x1="1151.605" x2="1188.915" y1="566.1924" y2="566.1924"/><polygon fill="#181818" points="1160.705,562.5524,1151.605,566.1924,1160.705,569.8324,1157.065,566.1924" style="stroke:#181818;stroke-width:0.91;"/><text fill="#000000" font-family="sans-serif" font-size="11.83" lengthAdjust="spacing" textLength="120.12" x="1157.065" y="549.5733">authenticate(message)</text><path d="M1078.35,579.8424 L1133.86,579.8424 L1133.86,588.2972 L1124.76,597.3972 L1078.35,597.3972 L1078.35,579.8424 " fill="#EEEEEE" style="stroke:#000000;stroke-width:1.365;"/><rect fill="none" height="481.9872" style="stroke:#000000;stroke-width:1.365;" width="1819.545" x="1078.35" y="579.8424"/><text fill="#000000" font-family="sans-serif" font-size="11.83" font-weight="bold" lengthAdjust="spacing" textLength="14.56" x="1092" y="593.5182">alt</text><text fill="#000000" font-family="sans-serif" font-size="10.01" font-weight="bold" lengthAdjust="spacing" textLength="28.21" x="1147.51" y="592.4642">[true]</text><line style="stroke:#181818;stroke-width:0.91;stroke-dasharray:2.0,2.0;" x1="1150.695" x2="1188.915" y1="618.5921" y2="618.5921"/><line style="stroke:#181818;stroke-width:0.91;stroke-dasharray:2.0,2.0;" x1="1188.915" x2="1188.915" y1="618.5921" y2="630.4221"/><line style="stroke:#181818;stroke-width:0.91;stroke-dasharray:2.0,2.0;" x1="1151.605" x2="1188.915" y1="630.4221" y2="630.4221"/><polygon fill="#181818" points="1160.705,626.7821,1151.605,630.4221,1160.705,634.0621,1157.065,630.4221" style="stroke:#181818;stroke-width:0.91;"/><text fill="#000000" font-family="sans-serif" font-size="11.83" lengthAdjust="spacing" textLength="20.02" x="1157.065" y="613.803">true</text><polygon fill="#181818" points="1704.43,655.2569,1713.53,658.8969,1704.43,662.5369,1708.07,658.8969" style="stroke:#181818;stroke-width:0.91;"/><line style="stroke:#181818;stroke-width:0.91;" x1="1150.695" x2="1709.89" y1="658.8969" y2="658.8969"/><text fill="#000000" font-family="sans-serif" font-size="11.83" lengthAdjust="spacing" textLength="124.67" x="1157.065" y="654.1078">decodeData1(message)</text><polygon fill="#181818" points="1160.705,683.7317,1151.605,687.3717,1160.705,691.0117,1157.065,687.3717" style="stroke:#181818;stroke-width:0.91;"/><line style="stroke:#181818;stroke-width:0.91;stroke-dasharray:2.0,2.0;" x1="1155.245" x2="1718.99" y1="687.3717" y2="687.3717"/><text fill="#000000" font-family="sans-serif" font-size="11.83" lengthAdjust="spacing" textLength="52.78" x="1166.165" y="682.5826">userEmail</text><polygon fill="#181818" points="1755.845,712.2065,1764.945,715.8465,1755.845,719.4865,1759.485,715.8465" style="stroke:#181818;stroke-width:0.91;"/><line style="stroke:#181818;stroke-width:0.91;" x1="1150.695" x2="1761.305" y1="715.8465" y2="715.8465"/><text fill="#000000" font-family="sans-serif" font-size="11.83" lengthAdjust="spacing" textLength="114.66" x="1157.065" y="711.0575">new Email(userEmail)</text><rect fill="#E2E2F0" height="46.6304" rx="2.275" ry="2.275" style="stroke:#181818;stroke-width:0.455;" width="95.55" x="1766.765" y="694.6517"/><text fill="#000000" font-family="sans-serif" font-size="12.74" font-style="italic" lengthAdjust="spacing" textLength="82.81" x="1773.135" y="714.7695">&#171;value object&#187;</text><text fill="#000000" font-family="sans-serif" font-size="12.74" lengthAdjust="spacing" textLength="34.58" x="1797.25" y="731.7146">:Email</text><polygon fill="#181818" points="1929.2,768.8469,1938.3,772.4869,1929.2,776.1269,1932.84,772.4869" style="stroke:#181818;stroke-width:0.91;"/><line style="stroke:#181818;stroke-width:0.91;" x1="1150.695" x2="1934.66" y1="772.4869" y2="772.4869"/><text fill="#000000" font-family="sans-serif" font-size="11.83" lengthAdjust="spacing" textLength="98.28" x="1157.065" y="767.6979">findByEmail(email)</text><path d="M1087.45,786.1369 L1142.96,786.1369 L1142.96,794.5917 L1133.86,803.6917 L1087.45,803.6917 L1087.45,786.1369 " fill="#EEEEEE" style="stroke:#000000;stroke-width:1.365;"/><rect fill="none" height="46.0296" style="stroke:#000000;stroke-width:1.365;" width="783.965" x="1087.45" y="786.1369"/><text fill="#000000" font-family="sans-serif" font-size="11.83" font-weight="bold" lengthAdjust="spacing" textLength="14.56" x="1101.1" y="799.8127">alt</text><text fill="#000000" font-family="sans-serif" font-size="10.01" font-weight="bold" lengthAdjust="spacing" textLength="56.42" x="1156.61" y="798.7587">[isPresent]</text><polygon fill="#181818" points="1803.62,821.2466,1812.72,824.8866,1803.62,828.5266,1807.26,824.8866" style="stroke:#181818;stroke-width:0.91;"/><line style="stroke:#181818;stroke-width:0.91;" x1="1150.695" x2="1809.08" y1="824.8866" y2="824.8866"/><text fill="#000000" font-family="sans-serif" font-size="11.83" lengthAdjust="spacing" textLength="23.66" x="1157.065" y="820.0975">get()</text><polygon fill="#181818" points="2810.99,856.0914,2820.09,859.7314,2810.99,863.3714,2814.63,859.7314" style="stroke:#181818;stroke-width:0.91;"/><line style="stroke:#181818;stroke-width:0.91;" x1="1150.695" x2="2816.45" y1="859.7314" y2="859.7314"/><text fill="#000000" font-family="sans-serif" font-size="11.83" lengthAdjust="spacing" textLength="98.28" x="1157.065" y="854.9423">findByEmail(email)</text><path d="M1087.45,873.3814 L1142.96,873.3814 L1142.96,881.8362 L1133.86,890.9362 L1087.45,890.9362 L1087.45,873.3814 " fill="#EEEEEE" style="stroke:#000000;stroke-width:1.365;"/><rect fill="none" height="46.0296" style="stroke:#000000;stroke-width:1.365;" width="783.965" x="1087.45" y="873.3814"/><text fill="#000000" font-family="sans-serif" font-size="11.83" font-weight="bold" lengthAdjust="spacing" textLength="14.56" x="1101.1" y="887.0572">alt</text><text fill="#000000" font-family="sans-serif" font-size="10.01" font-weight="bold" lengthAdjust="spacing" textLength="56.42" x="1156.61" y="886.0032">[isPresent]</text><polygon fill="#181818" points="1803.62,908.491,1812.72,912.131,1803.62,915.771,1807.26,912.131" style="stroke:#181818;stroke-width:0.91;"/><line style="stroke:#181818;stroke-width:0.91;" x1="1150.695" x2="1809.08" y1="912.131" y2="912.131"/><text fill="#000000" font-family="sans-serif" font-size="11.83" lengthAdjust="spacing" textLength="23.66" x="1157.065" y="907.342">get()</text><line style="stroke:#181818;stroke-width:0.91;" x1="1150.695" x2="1188.915" y1="946.9759" y2="946.9759"/><line style="stroke:#181818;stroke-width:0.91;" x1="1188.915" x2="1188.915" y1="946.9759" y2="958.8059"/><line style="stroke:#181818;stroke-width:0.91;" x1="1151.605" x2="1188.915" y1="958.8059" y2="958.8059"/><polygon fill="#181818" points="1160.705,955.1659,1151.605,958.8059,1160.705,962.4459,1157.065,958.8059" style="stroke:#181818;stroke-width:0.91;"/><text fill="#000000" font-family="sans-serif" font-size="11.83" lengthAdjust="spacing" textLength="57.33" x="1157.065" y="942.1868">sendACK()</text><line style="stroke:#000000;stroke-width:0.91;stroke-dasharray:2.0,2.0;" x1="1078.35" x2="2897.895" y1="966.9959" y2="966.9959"/><text fill="#000000" font-family="sans-serif" font-size="10.01" font-weight="bold" lengthAdjust="spacing" textLength="31.85" x="1082.9" y="977.7977">[false]</text><line style="stroke:#181818;stroke-width:0.91;stroke-dasharray:2.0,2.0;" x1="1150.695" x2="1188.915" y1="1002.4148" y2="1002.4148"/><line style="stroke:#181818;stroke-width:0.91;stroke-dasharray:2.0,2.0;" x1="1188.915" x2="1188.915" y1="1002.4148" y2="1014.2448"/><line style="stroke:#181818;stroke-width:0.91;stroke-dasharray:2.0,2.0;" x1="1151.605" x2="1188.915" y1="1014.2448" y2="1014.2448"/><polygon fill="#181818" points="1160.705,1010.6048,1151.605,1014.2448,1160.705,1017.8848,1157.065,1014.2448" style="stroke:#181818;stroke-width:0.91;"/><text fill="#000000" font-family="sans-serif" font-size="11.83" lengthAdjust="spacing" textLength="24.57" x="1157.065" y="997.6257">false</text><line style="stroke:#181818;stroke-width:0.91;" x1="1150.695" x2="1188.915" y1="1042.7196" y2="1042.7196"/><line style="stroke:#181818;stroke-width:0.91;" x1="1188.915" x2="1188.915" y1="1042.7196" y2="1054.5496"/><line style="stroke:#181818;stroke-width:0.91;" x1="1151.605" x2="1188.915" y1="1054.5496" y2="1054.5496"/><polygon fill="#181818" points="1160.705,1050.9096,1151.605,1054.5496,1160.705,1058.1896,1157.065,1054.5496" style="stroke:#181818;stroke-width:0.91;"/><text fill="#000000" font-family="sans-serif" font-size="11.83" lengthAdjust="spacing" textLength="57.33" x="1157.065" y="1037.9305">sendERR()</text><line style="stroke:#000000;stroke-width:0.91;stroke-dasharray:2.0,2.0;" x1="1069.25" x2="2906.995" y1="1069.1096" y2="1069.1096"/><text fill="#000000" font-family="sans-serif" font-size="10.01" font-weight="bold" lengthAdjust="spacing" textLength="12.74" x="1073.8" y="1079.9114">[7]</text><polygon fill="#181818" points="2007.005,1100.8885,2016.105,1104.5285,2007.005,1108.1685,2010.645,1104.5285" style="stroke:#181818;stroke-width:0.91;"/><line style="stroke:#181818;stroke-width:0.91;" x1="1150.695" x2="2012.465" y1="1104.5285" y2="1104.5285"/><text fill="#000000" font-family="sans-serif" font-size="11.83" lengthAdjust="spacing" textLength="40.04" x="1157.065" y="1099.7394">create()</text><rect fill="#E2E2F0" height="46.6304" rx="2.275" ry="2.275" style="stroke:#181818;stroke-width:0.455;" width="161.98" x="2017.925" y="1083.3337"/><text fill="#000000" font-family="sans-serif" font-size="12.74" font-style="italic" lengthAdjust="spacing" textLength="76.44" x="2060.695" y="1103.4514">&#171;application&#187;</text><text fill="#000000" font-family="sans-serif" font-size="12.74" lengthAdjust="spacing" textLength="149.24" x="2024.295" y="1120.3966">:ListJobOpeningController</text><polygon fill="#181818" points="2083.445,1157.5289,2092.545,1161.1689,2083.445,1164.8089,2087.085,1161.1689" style="stroke:#181818;stroke-width:0.91;"/><line style="stroke:#181818;stroke-width:0.91;" x1="1150.695" x2="2088.905" y1="1161.1689" y2="1161.1689"/><text fill="#000000" font-family="sans-serif" font-size="11.83" lengthAdjust="spacing" textLength="159.25" x="1157.065" y="1156.3798">listJobOpeningsForCustomer()</text><polygon fill="#181818" points="2232.23,1186.0037,2241.33,1189.6437,2232.23,1193.2837,2235.87,1189.6437" style="stroke:#181818;stroke-width:0.91;"/><line style="stroke:#181818;stroke-width:0.91;" x1="2103.465" x2="2237.69" y1="1189.6437" y2="1189.6437"/><text fill="#000000" font-family="sans-serif" font-size="11.83" lengthAdjust="spacing" textLength="40.04" x="2109.835" y="1184.8547">create()</text><rect fill="#E2E2F0" height="46.6304" rx="2.275" ry="2.275" style="stroke:#181818;stroke-width:0.455;" width="148.33" x="2243.15" y="1168.4489"/><text fill="#000000" font-family="sans-serif" font-size="12.74" font-style="italic" lengthAdjust="spacing" textLength="54.6" x="2290.015" y="1188.5666">&#171;service&#187;</text><text fill="#000000" font-family="sans-serif" font-size="12.74" lengthAdjust="spacing" textLength="135.59" x="2249.52" y="1205.5118">:ListJobOpeningService</text><polygon fill="#181818" points="2301.845,1242.6441,2310.945,1246.2841,2301.845,1249.9241,2305.485,1246.2841" style="stroke:#181818;stroke-width:0.91;"/><line style="stroke:#181818;stroke-width:0.91;" x1="2103.465" x2="2307.305" y1="1246.2841" y2="1246.2841"/><text fill="#000000" font-family="sans-serif" font-size="11.83" lengthAdjust="spacing" textLength="187.46" x="2109.835" y="1241.495">listJobOpeningsForCustomer(email)</text><polygon fill="#181818" points="2806.44,1271.1189,2815.54,1274.7589,2806.44,1278.3989,2810.08,1274.7589" style="stroke:#181818;stroke-width:0.91;"/><line style="stroke:#181818;stroke-width:0.91;" x1="2321.865" x2="2811.9" y1="1274.7589" y2="1274.7589"/><text fill="#000000" font-family="sans-serif" font-size="11.83" lengthAdjust="spacing" textLength="201.11" x="2328.235" y="1269.9699">findByCustomerEmail(email.toString())</text><polygon fill="#181818" points="2331.875,1299.5938,2322.775,1303.2338,2331.875,1306.8738,2328.235,1303.2338" style="stroke:#181818;stroke-width:0.91;"/><line style="stroke:#181818;stroke-width:0.91;stroke-dasharray:2.0,2.0;" x1="2326.415" x2="2816.45" y1="1303.2338" y2="1303.2338"/><text fill="#000000" font-family="sans-serif" font-size="11.83" lengthAdjust="spacing" textLength="49.14" x="2337.335" y="1298.4447">customer</text><line style="stroke:#181818;stroke-width:0.91;" x1="2321.865" x2="2360.085" y1="1331.7086" y2="1331.7086"/><line style="stroke:#181818;stroke-width:0.91;" x1="2360.085" x2="2360.085" y1="1331.7086" y2="1343.5386"/><line style="stroke:#181818;stroke-width:0.91;" x1="2322.775" x2="2360.085" y1="1343.5386" y2="1343.5386"/><polygon fill="#181818" points="2331.875,1339.8986,2322.775,1343.5386,2331.875,1347.1786,2328.235,1343.5386" style="stroke:#181818;stroke-width:0.91;"/><text fill="#000000" font-family="sans-serif" font-size="11.83" lengthAdjust="spacing" textLength="242.06" x="2328.235" y="1326.9195">addJobOpeningDetails(customerJobOpenings)</text><path d="M2234.05,1357.1886 L2300.48,1357.1886 L2300.48,1365.6434 L2291.38,1374.7434 L2234.05,1374.7434 L2234.05,1357.1886 " fill="#EEEEEE" style="stroke:#000000;stroke-width:1.365;"/><rect fill="none" height="302.3031" style="stroke:#000000;stroke-width:1.365;" width="663.845" x="2234.05" y="1357.1886"/><text fill="#000000" font-family="sans-serif" font-size="11.83" font-weight="bold" lengthAdjust="spacing" textLength="25.48" x="2247.7" y="1370.8643">loop</text><text fill="#000000" font-family="sans-serif" font-size="10.01" font-weight="bold" lengthAdjust="spacing" textLength="91.91" x="2314.13" y="1369.8104">[for each opening]</text><polygon fill="#181818" points="2565.745,1392.2982,2574.845,1395.9382,2565.745,1399.5782,2569.385,1395.9382" style="stroke:#181818;stroke-width:0.91;"/><line style="stroke:#181818;stroke-width:0.91;" x1="2321.865" x2="2571.205" y1="1395.9382" y2="1395.9382"/><text fill="#000000" font-family="sans-serif" font-size="11.83" lengthAdjust="spacing" textLength="40.95" x="2328.235" y="1391.1492">toDTO()</text><polygon fill="#181818" points="2331.875,1420.773,2322.775,1424.413,2331.875,1428.053,2328.235,1424.413" style="stroke:#181818;stroke-width:0.91;"/><line style="stroke:#181818;stroke-width:0.91;stroke-dasharray:2.0,2.0;" x1="2326.415" x2="2580.305" y1="1424.413" y2="1424.413"/><text fill="#000000" font-family="sans-serif" font-size="11.83" lengthAdjust="spacing" textLength="85.54" x="2337.335" y="1419.624">JobOpeningDTO</text><polygon fill="#181818" points="2674.035,1449.2479,2683.135,1452.8879,2674.035,1456.5279,2677.675,1452.8879" style="stroke:#181818;stroke-width:0.91;"/><line style="stroke:#181818;stroke-width:0.91;" x1="2321.865" x2="2679.495" y1="1452.8879" y2="1452.8879"/><text fill="#000000" font-family="sans-serif" font-size="11.83" lengthAdjust="spacing" textLength="94.64" x="2328.235" y="1448.0988">getJobReference()</text><polygon fill="#181818" points="2331.875,1477.7227,2322.775,1481.3627,2331.875,1485.0027,2328.235,1481.3627" style="stroke:#181818;stroke-width:0.91;"/><line style="stroke:#181818;stroke-width:0.91;stroke-dasharray:2.0,2.0;" x1="2326.415" x2="2688.595" y1="1481.3627" y2="1481.3627"/><text fill="#000000" font-family="sans-serif" font-size="11.83" lengthAdjust="spacing" textLength="68.25" x="2337.335" y="1476.5736">jobReference</text><polygon fill="#181818" points="2674.035,1506.1975,2683.135,1509.8375,2674.035,1513.4775,2677.675,1509.8375" style="stroke:#181818;stroke-width:0.91;"/><line style="stroke:#181818;stroke-width:0.91;" x1="2321.865" x2="2679.495" y1="1509.8375" y2="1509.8375"/><text fill="#000000" font-family="sans-serif" font-size="11.83" lengthAdjust="spacing" textLength="69.16" x="2328.235" y="1505.0485">getFunction()</text><polygon fill="#181818" points="2331.875,1534.6723,2322.775,1538.3123,2331.875,1541.9523,2328.235,1538.3123" style="stroke:#181818;stroke-width:0.91;"/><line style="stroke:#181818;stroke-width:0.91;stroke-dasharray:2.0,2.0;" x1="2326.415" x2="2688.595" y1="1538.3123" y2="1538.3123"/><text fill="#000000" font-family="sans-serif" font-size="11.83" lengthAdjust="spacing" textLength="40.95" x="2337.335" y="1533.5233">function</text><polygon fill="#181818" points="2674.035,1563.1472,2683.135,1566.7872,2674.035,1570.4272,2677.675,1566.7872" style="stroke:#181818;stroke-width:0.91;"/><line style="stroke:#181818;stroke-width:0.91;" x1="2321.865" x2="2679.495" y1="1566.7872" y2="1566.7872"/><text fill="#000000" font-family="sans-serif" font-size="11.83" lengthAdjust="spacing" textLength="73.71" x="2328.235" y="1561.9981">getStartDate()</text><polygon fill="#181818" points="2331.875,1591.622,2322.775,1595.262,2331.875,1598.902,2328.235,1595.262" style="stroke:#181818;stroke-width:0.91;"/><line style="stroke:#181818;stroke-width:0.91;stroke-dasharray:2.0,2.0;" x1="2326.415" x2="2688.595" y1="1595.262" y2="1595.262"/><text fill="#000000" font-family="sans-serif" font-size="11.83" lengthAdjust="spacing" textLength="48.23" x="2337.335" y="1590.4729">startDate</text><polygon fill="#181818" points="2806.44,1620.0968,2815.54,1623.7368,2806.44,1627.3768,2810.08,1623.7368" style="stroke:#181818;stroke-width:0.91;"/><line style="stroke:#181818;stroke-width:0.91;" x1="2321.865" x2="2811.9" y1="1623.7368" y2="1623.7368"/><text fill="#000000" font-family="sans-serif" font-size="11.83" lengthAdjust="spacing" textLength="248.43" x="2328.235" y="1618.9478">countApplicationsByJobReference(jobRference)</text><polygon fill="#181818" points="2331.875,1648.5716,2322.775,1652.2116,2331.875,1655.8516,2328.235,1652.2116" style="stroke:#181818;stroke-width:0.91;"/><line style="stroke:#181818;stroke-width:0.91;stroke-dasharray:2.0,2.0;" x1="2326.415" x2="2821" y1="1652.2116" y2="1652.2116"/><text fill="#000000" font-family="sans-serif" font-size="11.83" lengthAdjust="spacing" textLength="106.47" x="2337.335" y="1647.4226">numberOfApplicants</text><polygon fill="#181818" points="2113.475,1683.4165,2104.375,1687.0565,2113.475,1690.6965,2109.835,1687.0565" style="stroke:#181818;stroke-width:0.91;"/><line style="stroke:#181818;stroke-width:0.91;stroke-dasharray:2.0,2.0;" x1="2108.015" x2="2316.405" y1="1687.0565" y2="1687.0565"/><text fill="#000000" font-family="sans-serif" font-size="11.83" lengthAdjust="spacing" textLength="130.13" x="2118.935" y="1682.2674">customerJobOpening list</text><polygon fill="#181818" points="1160.705,1711.8913,1151.605,1715.5313,1160.705,1719.1713,1157.065,1715.5313" style="stroke:#181818;stroke-width:0.91;"/><line style="stroke:#181818;stroke-width:0.91;stroke-dasharray:2.0,2.0;" x1="1155.245" x2="2098.005" y1="1715.5313" y2="1715.5313"/><text fill="#000000" font-family="sans-serif" font-size="11.83" lengthAdjust="spacing" textLength="130.13" x="1166.165" y="1710.7422">customerJobOpening list</text><line style="stroke:#181818;stroke-width:0.91;" x1="1150.695" x2="1188.915" y1="1744.0061" y2="1744.0061"/><line style="stroke:#181818;stroke-width:0.91;" x1="1188.915" x2="1188.915" y1="1744.0061" y2="1755.8361"/><line style="stroke:#181818;stroke-width:0.91;" x1="1151.605" x2="1188.915" y1="1755.8361" y2="1755.8361"/><polygon fill="#181818" points="1160.705,1752.1961,1151.605,1755.8361,1160.705,1759.4761,1157.065,1755.8361" style="stroke:#181818;stroke-width:0.91;"/><text fill="#000000" font-family="sans-serif" font-size="11.83" lengthAdjust="spacing" textLength="233.87" x="1157.065" y="1739.2171">sendSHOW_JOB_OPENINGS(openingsList)</text><polygon fill="#181818" points="1704.43,1780.6709,1713.53,1784.3109,1704.43,1787.9509,1708.07,1784.3109" style="stroke:#181818;stroke-width:0.91;"/><line style="stroke:#181818;stroke-width:0.91;" x1="1150.695" x2="1709.89" y1="1784.3109" y2="1784.3109"/><text fill="#000000" font-family="sans-serif" font-size="11.83" lengthAdjust="spacing" textLength="153.79" x="1157.065" y="1779.5219">serializeListJobOpenings(list)</text><polygon fill="#181818" points="1160.705,1809.1458,1151.605,1812.7858,1160.705,1816.4258,1157.065,1812.7858" style="stroke:#181818;stroke-width:0.91;"/><line style="stroke:#181818;stroke-width:0.91;stroke-dasharray:2.0,2.0;" x1="1155.245" x2="1718.99" y1="1812.7858" y2="1812.7858"/><text fill="#000000" font-family="sans-serif" font-size="11.83" lengthAdjust="spacing" textLength="81.9" x="1166.165" y="1807.9967">byte[] message</text><polygon fill="#181818" points="1616.615,1837.6206,1625.715,1841.2606,1616.615,1844.9006,1620.255,1841.2606" style="stroke:#181818;stroke-width:0.91;"/><line style="stroke:#181818;stroke-width:0.91;" x1="1146.145" x2="1622.075" y1="1841.2606" y2="1841.2606"/><text fill="#000000" font-family="sans-serif" font-size="11.83" lengthAdjust="spacing" textLength="450.45" x="1152.515" y="1836.4715">writeObject(Translator.encode(1, MessageCode.SHOW_JOB_OPENINGS, data, null))</text><line style="stroke:#000000;stroke-width:0.91;stroke-dasharray:2.0,2.0;" x1="18.2" x2="2916.095" y1="1855.8206" y2="1855.8206"/><text fill="#000000" font-family="sans-serif" font-size="10.01" font-weight="bold" lengthAdjust="spacing" textLength="31.85" x="22.75" y="1866.6224">[false]</text><polygon fill="#181818" points="389.48,1887.5995,380.38,1891.2395,389.48,1894.8795,385.84,1891.2395" style="stroke:#181818;stroke-width:0.91;"/><line style="stroke:#181818;stroke-width:0.91;stroke-dasharray:2.0,2.0;" x1="384.02" x2="579.67" y1="1891.2395" y2="1891.2395"/><text fill="#000000" font-family="sans-serif" font-size="11.83" lengthAdjust="spacing" textLength="24.57" x="394.94" y="1886.4504">false</text><polygon fill="#181818" points="89.18,1916.0743,80.08,1919.7143,89.18,1923.3543,85.54,1919.7143" style="stroke:#181818;stroke-width:0.91;"/><line style="stroke:#181818;stroke-width:0.91;stroke-dasharray:2.0,2.0;" x1="83.72" x2="374.01" y1="1919.7143" y2="1919.7143"/><text fill="#000000" font-family="sans-serif" font-size="11.83" lengthAdjust="spacing" textLength="269.36" x="94.64" y="1914.9253">Could not accept new connection. The server is full!</text><!--SRC=[fLPjRzis4FwkNy6bm207YP5i1GO8NO34ITgrQnNOAVPX609QEjlCQ58GgMJUhz-9f2ZgnNQBVKWiYSyzTxntpJG7SYyvbwzVYmMKBr2IMqRN9Tq-VLtyV77nKnH5I_aFEUc2JiWRpjORlIu1H5JGKhEC5LHeSfBCCxdrCAg8UUzXWcDb7WVdMrfiP0dtiknWtUSU_75J0iqDH9l7FXtR5Xm-K97pXibywS52mCO-Ho1oWWw8kj1PfRJSGdbT52UaXizeKP0tigHY3OtBPcXeuwWbhmP68rXnggLLgFrh3tUtfOmR2DHFvDsx5ufiH2wV8TDNLptu30rdETKmXq8gXdmx8vmrtv6Wz4S3yT-PqX_bCYr0CB6UIQ5BZBnpohC_G1AyCMSPrKoA8onr15a6FGht5PcKVHgmj0n6D4Ke2CtqxW3ozZ4rOFn5UAxbq44kTdt_kCzzz_W4e9bcBxN_R4AR_-JyoYNmwMb21BmIcwtnGpf_dBGYBidjZnLocPmG9fIc8eDuCctmivAXmPGlCC3ethZ3r9H0HBd6hC6yyj_8kRSdQOuQZROmJa-9jTEMJ6pFxSlxKbR5cRr5M30Ej93Ptw0n8uIrQZA9VdIijLOZuRtmBV9HnAKioEk6OHFAx7V88rDAvvuo8SkTXZ__8bjGYc9rULVKmC0njgBjZxcmBwY4v93976Ru5pkQmAL1vHcVNWGaZGqAq-1wzWaZ0Lm1kHo1-1kGNycA8if2tuv0QQKtTIPZzGG61G5r4e58v_lOvMwfffSjMGleq5GO2zDGeXp67D1gCCscYQSHYRtm9C3vlfAG5HFvpSvYmUBCdPXwA04zgFlq2Lc3hdqgyYYaTANuFnaFHT76nePfnDlTWox1tNpUc6n8VWbmRNUhFPTXRM20WrHhpqU54i8xZLFX-6lQ5T84xRSZvZhfCPKETepce14k2CCkFXAsHYW8trJBXIvHB9u49ZQ2aU_1v-E6UU2e_X41ckV1Q02D9gYuOGcksFIY5POBriM6I1UbKKKfzb0jSSA4VawZT9_PdUaK5buwpeyeaySeDuSLb62cGwkgPgddsnvrpu5OgAqMEwZllXA3UND4ryg9V9UUXSQ1VDlBqoEAL2FpJPhQLCna9VHrkwgecrt7hRMptFFaQFw9Qhk4CbqvFg5LQ8tFJjCRHkpgrVem3qtbXPI7YpSSFj_3jQUnBJwaVpnzJ6-UqeUxBxzzUR-8NHMeUfsRx9a-E1COvUnVwEvyAkP6Q6p8x9bDlJb_R43LupyXhxWgGMfMuRZTgASOpthONvwHpvQkdltJmGtF24ukYZjFnJbsf42bMIw2TxTUj6tVZOZHrSkUXT9-QsiMCaIR3J8XCrdnd0Yf2SqoABGPk9bVawQugZKB9Cuzh3ZEV-Xoczsojkm_]--></g></svg>