<?xml version="1.0" encoding="us-ascii" standalone="no"?><svg xmlns="http://www.w3.org/2000/svg" xmlns:xlink="http://www.w3.org/1999/xlink" contentStyleType="text/css" height="853px" preserveAspectRatio="none" style="width:1135px;height:853px;background:#FFFFFF;" version="1.1" viewBox="0 0 1135 853" width="1135px" zoomAndPan="magnify"><defs/><g><text fill="#000000" font-family="sans-serif" font-size="14" font-weight="bold" lengthAdjust="spacing" textLength="310" x="411.5" y="30.1074">Connection Diagram (CustomerApp)_US3002</text><rect fill="#90EE90" height="801.4414" style="stroke:#181818;stroke-width:0.5;" width="112" x="194.5" y="45.6211"/><text fill="#000000" font-family="sans-serif" font-size="13" font-weight="bold" lengthAdjust="spacing" textLength="85" x="208" y="59.6494">CustomerApp</text><rect fill="#ADD8E6" height="801.4414" style="stroke:#181818;stroke-width:0.5;" width="644.5" x="365.5" y="45.6211"/><text fill="#000000" font-family="sans-serif" font-size="13" font-weight="bold" lengthAdjust="spacing" textLength="30" x="670.75" y="59.6494">Core</text><rect fill="#FFFFFF" height="623.1992" style="stroke:#181818;stroke-width:1.0;" width="10" x="48.5" y="133.2422"/><rect fill="#FFFFFF" height="599.9082" style="stroke:#181818;stroke-width:1.0;" width="10" x="245.5" y="156.5332"/><rect fill="#FFFFFF" height="62.582" style="stroke:#181818;stroke-width:1.0;" width="10" x="447.5" y="187.8242"/><rect fill="#FFFFFF" height="340.9102" style="stroke:#181818;stroke-width:1.0;" width="10" x="447.5" y="294.0273"/><rect fill="#FFFFFF" height="31.291" style="stroke:#181818;stroke-width:1.0;" width="10" x="649.5" y="219.1152"/><rect fill="#FFFFFF" height="278.3281" style="stroke:#181818;stroke-width:1.0;" width="10" x="649.5" y="325.3184"/><rect fill="#FFFFFF" height="90.582" style="stroke:#181818;stroke-width:1.0;" width="10" x="820.5" y="419.1914"/><rect fill="#FFFFFF" height="31.291" style="stroke:#181818;stroke-width:1.0;" width="10" x="959.5" y="356.6094"/><rect fill="#FFFFFF" height="31.291" style="stroke:#181818;stroke-width:1.0;" width="10" x="959.5" y="541.0645"/><rect fill="#FFFFFF" height="14" style="stroke:#181818;stroke-width:1.0;" width="10" x="1067.5" y="433.1914"/><rect fill="none" height="98.5039" style="stroke:#000000;stroke-width:1.5;" width="302.5" x="10" y="649.9375"/><line style="stroke:#181818;stroke-width:0.5;stroke-dasharray:5.0,5.0;" x1="53" x2="53" y1="123.2422" y2="765.4414"/><line style="stroke:#181818;stroke-width:0.5;stroke-dasharray:5.0,5.0;" x1="250.5" x2="250.5" y1="123.2422" y2="765.4414"/><line style="stroke:#181818;stroke-width:0.5;stroke-dasharray:5.0,5.0;" x1="452.5" x2="452.5" y1="123.2422" y2="765.4414"/><line style="stroke:#181818;stroke-width:0.5;stroke-dasharray:5.0,5.0;" x1="654.5" x2="654.5" y1="123.2422" y2="765.4414"/><line style="stroke:#181818;stroke-width:0.5;stroke-dasharray:5.0,5.0;" x1="825.5" x2="825.5" y1="258.9258" y2="765.4414"/><line style="stroke:#181818;stroke-width:0.5;stroke-dasharray:5.0,5.0;" x1="964" x2="964" y1="123.2422" y2="765.4414"/><line style="stroke:#181818;stroke-width:0.5;stroke-dasharray:5.0,5.0;" x1="1072" x2="1072" y1="123.2422" y2="765.4414"/><text fill="#000000" font-family="sans-serif" font-size="14" lengthAdjust="spacing" textLength="61" x="20" y="119.7285">Customer</text><ellipse cx="53.5" cy="53.1211" fill="#E2E2F0" rx="8" ry="8" style="stroke:#181818;stroke-width:0.5;"/><path d="M53.5,61.1211 L53.5,88.1211 M40.5,69.1211 L66.5,69.1211 M53.5,88.1211 L40.5,103.1211 M53.5,88.1211 L66.5,103.1211 " fill="none" style="stroke:#181818;stroke-width:0.5;"/><text fill="#000000" font-family="sans-serif" font-size="14" lengthAdjust="spacing" textLength="61" x="20" y="779.5488">Customer</text><ellipse cx="53.5" cy="791.5625" fill="#E2E2F0" rx="8" ry="8" style="stroke:#181818;stroke-width:0.5;"/><path d="M53.5,799.5625 L53.5,826.5625 M40.5,807.5625 L66.5,807.5625 M53.5,826.5625 L40.5,841.5625 M53.5,826.5625 L66.5,841.5625 " fill="none" style="stroke:#181818;stroke-width:0.5;"/><rect fill="#E2E2F0" height="32.6211" rx="2.5" ry="2.5" style="stroke:#181818;stroke-width:0.5;" width="104" x="198.5" y="89.6211"/><text fill="#000000" font-family="sans-serif" font-size="14" lengthAdjust="spacing" textLength="90" x="205.5" y="111.7285">:CustomerApp</text><rect fill="#E2E2F0" height="32.6211" rx="2.5" ry="2.5" style="stroke:#181818;stroke-width:0.5;" width="104" x="198.5" y="764.4414"/><text fill="#000000" font-family="sans-serif" font-size="14" lengthAdjust="spacing" textLength="90" x="205.5" y="786.5488">:CustomerApp</text><rect fill="#E2E2F0" height="51.2422" rx="2.5" ry="2.5" style="stroke:#181818;stroke-width:0.5;" width="166" x="369.5" y="71"/><text fill="#000000" font-family="sans-serif" font-size="14" font-style="italic" lengthAdjust="spacing" textLength="84" x="410.5" y="93.1074">&#171;application&#187;</text><text fill="#000000" font-family="sans-serif" font-size="14" lengthAdjust="spacing" textLength="152" x="376.5" y="111.7285">:ComunicationController</text><rect fill="#E2E2F0" height="51.2422" rx="2.5" ry="2.5" style="stroke:#181818;stroke-width:0.5;" width="166" x="369.5" y="764.4414"/><text fill="#000000" font-family="sans-serif" font-size="14" font-style="italic" lengthAdjust="spacing" textLength="84" x="410.5" y="786.5488">&#171;application&#187;</text><text fill="#000000" font-family="sans-serif" font-size="14" lengthAdjust="spacing" textLength="152" x="376.5" y="805.1699">:ComunicationController</text><rect fill="#E2E2F0" height="51.2422" rx="2.5" ry="2.5" style="stroke:#181818;stroke-width:0.5;" width="162" x="573.5" y="71"/><text fill="#000000" font-family="sans-serif" font-size="14" font-style="italic" lengthAdjust="spacing" textLength="60" x="624.5" y="93.1074">&#171;service&#187;</text><text fill="#000000" font-family="sans-serif" font-size="14" lengthAdjust="spacing" textLength="148" x="580.5" y="111.7285">:CommunicationService</text><rect fill="#E2E2F0" height="51.2422" rx="2.5" ry="2.5" style="stroke:#181818;stroke-width:0.5;" width="162" x="573.5" y="764.4414"/><text fill="#000000" font-family="sans-serif" font-size="14" font-style="italic" lengthAdjust="spacing" textLength="60" x="624.5" y="786.5488">&#171;service&#187;</text><text fill="#000000" font-family="sans-serif" font-size="14" lengthAdjust="spacing" textLength="148" x="580.5" y="805.1699">:CommunicationService</text><rect fill="#E2E2F0" height="32.6211" rx="2.5" ry="2.5" style="stroke:#181818;stroke-width:0.5;" width="88" x="781.5" y="764.4414"/><text fill="#000000" font-family="sans-serif" font-size="14" lengthAdjust="spacing" textLength="74" x="788.5" y="786.5488">:Messenger</text><rect fill="#E2E2F0" height="32.6211" rx="2.5" ry="2.5" style="stroke:#181818;stroke-width:0.5;" width="83" x="923" y="89.6211"/><text fill="#000000" font-family="sans-serif" font-size="14" lengthAdjust="spacing" textLength="69" x="930" y="111.7285">:Translator</text><rect fill="#E2E2F0" height="32.6211" rx="2.5" ry="2.5" style="stroke:#181818;stroke-width:0.5;" width="83" x="923" y="764.4414"/><text fill="#000000" font-family="sans-serif" font-size="14" lengthAdjust="spacing" textLength="69" x="930" y="786.5488">:Translator</text><rect fill="#FFA500" height="32.6211" rx="2.5" ry="2.5" style="stroke:#181818;stroke-width:0.5;" width="113" x="1016" y="89.6211"/><text fill="#000000" font-family="sans-serif" font-size="14" lengthAdjust="spacing" textLength="99" x="1023" y="111.7285">FollowUpServer</text><rect fill="#FFA500" height="32.6211" rx="2.5" ry="2.5" style="stroke:#181818;stroke-width:0.5;" width="113" x="1016" y="764.4414"/><text fill="#000000" font-family="sans-serif" font-size="14" lengthAdjust="spacing" textLength="99" x="1023" y="786.5488">FollowUpServer</text><rect fill="#FFFFFF" height="623.1992" style="stroke:#181818;stroke-width:1.0;" width="10" x="48.5" y="133.2422"/><rect fill="#FFFFFF" height="599.9082" style="stroke:#181818;stroke-width:1.0;" width="10" x="245.5" y="156.5332"/><rect fill="#FFFFFF" height="62.582" style="stroke:#181818;stroke-width:1.0;" width="10" x="447.5" y="187.8242"/><rect fill="#FFFFFF" height="340.9102" style="stroke:#181818;stroke-width:1.0;" width="10" x="447.5" y="294.0273"/><rect fill="#FFFFFF" height="31.291" style="stroke:#181818;stroke-width:1.0;" width="10" x="649.5" y="219.1152"/><rect fill="#FFFFFF" height="278.3281" style="stroke:#181818;stroke-width:1.0;" width="10" x="649.5" y="325.3184"/><rect fill="#FFFFFF" height="90.582" style="stroke:#181818;stroke-width:1.0;" width="10" x="820.5" y="419.1914"/><rect fill="#FFFFFF" height="31.291" style="stroke:#181818;stroke-width:1.0;" width="10" x="959.5" y="356.6094"/><rect fill="#FFFFFF" height="31.291" style="stroke:#181818;stroke-width:1.0;" width="10" x="959.5" y="541.0645"/><rect fill="#FFFFFF" height="14" style="stroke:#181818;stroke-width:1.0;" width="10" x="1067.5" y="433.1914"/><polygon fill="#181818" points="233.5,152.5332,243.5,156.5332,233.5,160.5332,237.5,156.5332" style="stroke:#181818;stroke-width:1.0;"/><line style="stroke:#181818;stroke-width:1.0;" x1="58.5" x2="239.5" y1="156.5332" y2="156.5332"/><text fill="#000000" font-family="sans-serif" font-size="13" lengthAdjust="spacing" textLength="168" x="65.5" y="151.2705">asks to set the comunication</text><polygon fill="#181818" points="435.5,183.8242,445.5,187.8242,435.5,191.8242,439.5,187.8242" style="stroke:#181818;stroke-width:1.0;"/><line style="stroke:#181818;stroke-width:1.0;" x1="255.5" x2="441.5" y1="187.8242" y2="187.8242"/><text fill="#000000" font-family="sans-serif" font-size="13" lengthAdjust="spacing" textLength="173" x="262.5" y="182.5615">initializeComunication(socket)</text><polygon fill="#181818" points="637.5,215.1152,647.5,219.1152,637.5,223.1152,641.5,219.1152" style="stroke:#181818;stroke-width:1.0;"/><line style="stroke:#181818;stroke-width:1.0;" x1="457.5" x2="643.5" y1="219.1152" y2="219.1152"/><text fill="#000000" font-family="sans-serif" font-size="13" lengthAdjust="spacing" textLength="173" x="464.5" y="213.8525">initializeComunication(socket)</text><polygon fill="#181818" points="769.5,246.4063,779.5,250.4063,769.5,254.4063,773.5,250.4063" style="stroke:#181818;stroke-width:1.0;"/><line style="stroke:#181818;stroke-width:1.0;" x1="654.5" x2="775.5" y1="250.4063" y2="250.4063"/><text fill="#000000" font-family="sans-serif" font-size="13" lengthAdjust="spacing" textLength="44" x="661.5" y="245.1436">create()</text><rect fill="#E2E2F0" height="32.6211" rx="2.5" ry="2.5" style="stroke:#181818;stroke-width:0.5;" width="88" x="781.5" y="227.1152"/><text fill="#000000" font-family="sans-serif" font-size="14" lengthAdjust="spacing" textLength="74" x="788.5" y="249.2227">:Messenger</text><polygon fill="#181818" points="435.5,290.0273,445.5,294.0273,435.5,298.0273,439.5,294.0273" style="stroke:#181818;stroke-width:1.0;"/><line style="stroke:#181818;stroke-width:1.0;" x1="255.5" x2="441.5" y1="294.0273" y2="294.0273"/><text fill="#000000" font-family="sans-serif" font-size="13" lengthAdjust="spacing" textLength="95" x="262.5" y="288.7646">testConnection()</text><polygon fill="#181818" points="637.5,321.3184,647.5,325.3184,637.5,329.3184,641.5,325.3184" style="stroke:#181818;stroke-width:1.0;"/><line style="stroke:#181818;stroke-width:1.0;" x1="457.5" x2="643.5" y1="325.3184" y2="325.3184"/><text fill="#000000" font-family="sans-serif" font-size="13" lengthAdjust="spacing" textLength="95" x="464.5" y="320.0557">testConnection()</text><polygon fill="#181818" points="947.5,352.6094,957.5,356.6094,947.5,360.6094,951.5,356.6094" style="stroke:#181818;stroke-width:1.0;"/><line style="stroke:#181818;stroke-width:1.0;" x1="659.5" x2="953.5" y1="356.6094" y2="356.6094"/><text fill="#000000" font-family="sans-serif" font-size="13" lengthAdjust="spacing" textLength="281" x="666.5" y="351.3467">encode(1, MessageCode.COMMTEST, null, null)</text><polygon fill="#181818" points="670.5,383.9004,660.5,387.9004,670.5,391.9004,666.5,387.9004" style="stroke:#181818;stroke-width:1.0;"/><line style="stroke:#181818;stroke-width:1.0;stroke-dasharray:2.0,2.0;" x1="664.5" x2="963.5" y1="387.9004" y2="387.9004"/><text fill="#000000" font-family="sans-serif" font-size="13" lengthAdjust="spacing" textLength="90" x="676.5" y="382.6377">byte[] message</text><polygon fill="#181818" points="808.5,415.1914,818.5,419.1914,808.5,423.1914,812.5,419.1914" style="stroke:#181818;stroke-width:1.0;"/><line style="stroke:#181818;stroke-width:1.0;" x1="659.5" x2="814.5" y1="419.1914" y2="419.1914"/><text fill="#000000" font-family="sans-serif" font-size="13" lengthAdjust="spacing" textLength="142" x="666.5" y="413.9287">sendMessage(message)</text><polygon fill="#181818" points="1055.5,429.1914,1065.5,433.1914,1055.5,437.1914,1059.5,433.1914" style="stroke:#181818;stroke-width:1.0;"/><line style="stroke:#181818;stroke-width:1.0;" x1="830.5" x2="1061.5" y1="433.1914" y2="433.1914"/><polygon fill="#181818" points="841.5,443.1914,831.5,447.1914,841.5,451.1914,837.5,447.1914" style="stroke:#181818;stroke-width:1.0;"/><line style="stroke:#181818;stroke-width:1.0;" x1="835.5" x2="1071.5" y1="447.1914" y2="447.1914"/><polygon fill="#181818" points="808.5,474.4824,818.5,478.4824,808.5,482.4824,812.5,478.4824" style="stroke:#181818;stroke-width:1.0;"/><line style="stroke:#181818;stroke-width:1.0;" x1="659.5" x2="814.5" y1="478.4824" y2="478.4824"/><text fill="#000000" font-family="sans-serif" font-size="13" lengthAdjust="spacing" textLength="101" x="666.5" y="473.2197">receiveMessage()</text><polygon fill="#181818" points="670.5,505.7734,660.5,509.7734,670.5,513.7734,666.5,509.7734" style="stroke:#181818;stroke-width:1.0;"/><line style="stroke:#181818;stroke-width:1.0;stroke-dasharray:2.0,2.0;" x1="664.5" x2="824.5" y1="509.7734" y2="509.7734"/><text fill="#000000" font-family="sans-serif" font-size="13" lengthAdjust="spacing" textLength="130" x="676.5" y="504.5107">byte[] receiveMessage</text><polygon fill="#181818" points="947.5,537.0645,957.5,541.0645,947.5,545.0645,951.5,541.0645" style="stroke:#181818;stroke-width:1.0;"/><line style="stroke:#181818;stroke-width:1.0;" x1="659.5" x2="953.5" y1="541.0645" y2="541.0645"/><text fill="#000000" font-family="sans-serif" font-size="13" lengthAdjust="spacing" textLength="133" x="666.5" y="535.8018">decodeCode(response)</text><polygon fill="#181818" points="670.5,568.3555,660.5,572.3555,670.5,576.3555,666.5,572.3555" style="stroke:#181818;stroke-width:1.0;"/><line style="stroke:#181818;stroke-width:1.0;stroke-dasharray:2.0,2.0;" x1="664.5" x2="963.5" y1="572.3555" y2="572.3555"/><text fill="#000000" font-family="sans-serif" font-size="13" lengthAdjust="spacing" textLength="83" x="676.5" y="567.0928">MessageCode</text><polygon fill="#181818" points="468.5,599.6465,458.5,603.6465,468.5,607.6465,464.5,603.6465" style="stroke:#181818;stroke-width:1.0;"/><line style="stroke:#181818;stroke-width:1.0;stroke-dasharray:2.0,2.0;" x1="462.5" x2="653.5" y1="603.6465" y2="603.6465"/><text fill="#000000" font-family="sans-serif" font-size="13" lengthAdjust="spacing" textLength="83" x="474.5" y="598.3838">MessageCode</text><polygon fill="#181818" points="266.5,630.9375,256.5,634.9375,266.5,638.9375,262.5,634.9375" style="stroke:#181818;stroke-width:1.0;"/><line style="stroke:#181818;stroke-width:1.0;stroke-dasharray:2.0,2.0;" x1="260.5" x2="451.5" y1="634.9375" y2="634.9375"/><text fill="#000000" font-family="sans-serif" font-size="13" lengthAdjust="spacing" textLength="83" x="272.5" y="629.6748">MessageCode</text><path d="M10,649.9375 L71,649.9375 L71,659.2285 L61,669.2285 L10,669.2285 L10,649.9375 " fill="#EEEEEE" style="stroke:#000000;stroke-width:1.5;"/><rect fill="none" height="98.5039" style="stroke:#000000;stroke-width:1.5;" width="302.5" x="10" y="649.9375"/><text fill="#000000" font-family="sans-serif" font-size="13" font-weight="bold" lengthAdjust="spacing" textLength="16" x="25" y="664.9658">alt</text><text fill="#000000" font-family="sans-serif" font-size="11" font-weight="bold" lengthAdjust="spacing" textLength="114" x="86" y="663.8076">[MessageCode.ACK]</text><polygon fill="#181818" points="69.5,688.5195,59.5,692.5195,69.5,696.5195,65.5,692.5195" style="stroke:#181818;stroke-width:1.0;"/><line style="stroke:#181818;stroke-width:1.0;stroke-dasharray:2.0,2.0;" x1="63.5" x2="244.5" y1="692.5195" y2="692.5195"/><text fill="#000000" font-family="sans-serif" font-size="13" lengthAdjust="spacing" textLength="135" x="75.5" y="687.2568">Connection established</text><line style="stroke:#000000;stroke-width:1.0;stroke-dasharray:2.0,2.0;" x1="10" x2="312.5" y1="701.5195" y2="701.5195"/><text fill="#000000" font-family="sans-serif" font-size="11" font-weight="bold" lengthAdjust="spacing" textLength="111" x="15" y="713.3896">[MessageCode.ERR]</text><polygon fill="#181818" points="69.5,736.4414,59.5,740.4414,69.5,744.4414,65.5,740.4414" style="stroke:#181818;stroke-width:1.0;"/><line style="stroke:#181818;stroke-width:1.0;stroke-dasharray:2.0,2.0;" x1="63.5" x2="244.5" y1="740.4414" y2="740.4414"/><text fill="#000000" font-family="sans-serif" font-size="13" lengthAdjust="spacing" textLength="111" x="75.5" y="735.1787">Connection refused</text><!--SRC=[bPHDRzim38Rl-XL4Sd6ATkYscr44AB9kXoqOqAIdOHWKcNE4of8XoTd7hn_bZqXEwhNrmP1jFkJBbqoyz0fXPRH6uQNHy47oql8AibNZlAdGtjRruiV3vltrzJl6kF36ml09k8Fs3TkPtp1BY1dClyXoxpzPHCrgRhqKikRQmomVXOKCTSrG5q0vM9jePIp2N0L-fneynKtLQ2buK4kwlJLAeMqp2LF1pGtbK_ttvV8SZlG6xK4AR57NdGdlJsVe6fr3NVQbgk7f96fhkNQAaoTjc3y-nXP7m4TIRtuzr45BdzgrHvWROajiFPS7xh6tkXl1rJBu1Za1ZrJ64EN1xp5uS6mmGSdZ44zOC2a7gQMNNCc_cFgPEICUqIyYID4i40GE5hqSxWasa9Jaw1jSNEGWB59Sjc05da79go1YfDwZyt5di-VqJeS_eJ2EB0VKmXIOlRs4C7rUKhy5lbbzNQ-tTvlj9UX6gUwUv4nc7ezmDLAq- -Fns_VM3SgQzfhGJzcMKn9Tz6goda-AnxsCJlULqOxxngv25n2var7Wb0wB0kK11ocBj63izTZgE3oj4ajFJA70C8LWVMRHrKOxV8tTUJgyvwpkLcmI6VQbNR7kDpWP6rQHSUL7ktEx-jojSe15srxovqjxodTAkZqM39N34NftV_yVrEBFnWLC5uokVm00]--></g></svg>