<?xml version="1.0" encoding="us-ascii" standalone="no"?><svg xmlns="http://www.w3.org/2000/svg" xmlns:xlink="http://www.w3.org/1999/xlink" contentStyleType="text/css" height="809px" preserveAspectRatio="none" style="width:1307px;height:809px;background:#FFFFFF;" version="1.1" viewBox="0 0 1307 809" width="1307px" zoomAndPan="magnify"><defs/><g><text fill="#000000" font-family="sans-serif" font-size="14" font-weight="bold" lengthAdjust="spacing" textLength="268" x="518.5" y="30.1074">Login Diagram (CustomerApp)_US3002</text><rect fill="#90EE90" height="757.8203" style="stroke:#181818;stroke-width:0.5;" width="117" x="138" y="45.6211"/><text fill="#000000" font-family="sans-serif" font-size="13" font-weight="bold" lengthAdjust="spacing" textLength="85" x="154" y="59.6494">CustomerApp</text><rect fill="#ADD8E6" height="757.8203" style="stroke:#181818;stroke-width:0.5;" width="887.5" x="294.5" y="45.6211"/><text fill="#000000" font-family="sans-serif" font-size="13" font-weight="bold" lengthAdjust="spacing" textLength="30" x="721.25" y="59.6494">Core</text><rect fill="#FFFFFF" height="579.5781" style="stroke:#181818;stroke-width:1.0;" width="10" x="48.5" y="133.2422"/><rect fill="#FFFFFF" height="556.2871" style="stroke:#181818;stroke-width:1.0;" width="10" x="191.5" y="156.5332"/><rect fill="#FFFFFF" height="477.7051" style="stroke:#181818;stroke-width:1.0;" width="10" x="376.5" y="187.8242"/><rect fill="#FFFFFF" height="415.123" style="stroke:#181818;stroke-width:1.0;" width="10" x="561.5" y="219.1152"/><rect fill="#FFFFFF" height="31.291" style="stroke:#181818;stroke-width:1.0;" width="10" x="1033.5" y="250.4063"/><rect fill="#FFFFFF" height="31.291" style="stroke:#181818;stroke-width:1.0;" width="10" x="1033.5" y="434.8613"/><rect fill="#FFFFFF" height="90.582" style="stroke:#181818;stroke-width:1.0;" width="10" x="1129" y="312.9883"/><rect fill="#FFFFFF" height="14" style="stroke:#181818;stroke-width:1.0;" width="10" x="1239.5" y="326.9883"/><rect fill="none" height="223.668" style="stroke:#000000;stroke-width:1.5;" width="647.5" x="10" y="481.1523"/><line style="stroke:#181818;stroke-width:0.5;stroke-dasharray:5.0,5.0;" x1="53" x2="53" y1="123.2422" y2="721.8203"/><line style="stroke:#181818;stroke-width:0.5;stroke-dasharray:5.0,5.0;" x1="196" x2="196" y1="123.2422" y2="721.8203"/><line style="stroke:#181818;stroke-width:0.5;stroke-dasharray:5.0,5.0;" x1="381.5" x2="381.5" y1="123.2422" y2="721.8203"/><line style="stroke:#181818;stroke-width:0.5;stroke-dasharray:5.0,5.0;" x1="566.5" x2="566.5" y1="123.2422" y2="721.8203"/><line style="stroke:#181818;stroke-width:0.5;stroke-dasharray:5.0,5.0;" x1="1038" x2="1038" y1="123.2422" y2="721.8203"/><line style="stroke:#181818;stroke-width:0.5;stroke-dasharray:5.0,5.0;" x1="1134" x2="1134" y1="123.2422" y2="721.8203"/><line style="stroke:#181818;stroke-width:0.5;stroke-dasharray:5.0,5.0;" x1="1244" x2="1244" y1="123.2422" y2="721.8203"/><text fill="#000000" font-family="sans-serif" font-size="14" lengthAdjust="spacing" textLength="61" x="20" y="119.7285">Customer</text><ellipse cx="53.5" cy="53.1211" fill="#FFA500" rx="8" ry="8" style="stroke:#181818;stroke-width:0.5;"/><path d="M53.5,61.1211 L53.5,88.1211 M40.5,69.1211 L66.5,69.1211 M53.5,88.1211 L40.5,103.1211 M53.5,88.1211 L66.5,103.1211 " fill="none" style="stroke:#181818;stroke-width:0.5;"/><text fill="#000000" font-family="sans-serif" font-size="14" lengthAdjust="spacing" textLength="61" x="20" y="735.9277">Customer</text><ellipse cx="53.5" cy="747.9414" fill="#FFA500" rx="8" ry="8" style="stroke:#181818;stroke-width:0.5;"/><path d="M53.5,755.9414 L53.5,782.9414 M40.5,763.9414 L66.5,763.9414 M53.5,782.9414 L40.5,797.9414 M53.5,782.9414 L66.5,797.9414 " fill="none" style="stroke:#181818;stroke-width:0.5;"/><rect fill="#E2E2F0" height="51.2422" rx="2.5" ry="2.5" style="stroke:#181818;stroke-width:0.5;" width="109" x="142" y="71"/><text fill="#000000" font-family="sans-serif" font-size="14" font-style="italic" lengthAdjust="spacing" textLength="95" x="149" y="93.1074">&#171;presentation&#187;</text><text fill="#000000" font-family="sans-serif" font-size="14" lengthAdjust="spacing" textLength="88" x="152.5" y="111.7285">:SeverLoginUI</text><rect fill="#E2E2F0" height="51.2422" rx="2.5" ry="2.5" style="stroke:#181818;stroke-width:0.5;" width="109" x="142" y="720.8203"/><text fill="#000000" font-family="sans-serif" font-size="14" font-style="italic" lengthAdjust="spacing" textLength="95" x="149" y="742.9277">&#171;presentation&#187;</text><text fill="#000000" font-family="sans-serif" font-size="14" lengthAdjust="spacing" textLength="88" x="152.5" y="761.5488">:SeverLoginUI</text><rect fill="#E2E2F0" height="51.2422" rx="2.5" ry="2.5" style="stroke:#181818;stroke-width:0.5;" width="166" x="298.5" y="71"/><text fill="#000000" font-family="sans-serif" font-size="14" font-style="italic" lengthAdjust="spacing" textLength="84" x="339.5" y="93.1074">&#171;application&#187;</text><text fill="#000000" font-family="sans-serif" font-size="14" lengthAdjust="spacing" textLength="152" x="305.5" y="111.7285">:ComunicationController</text><rect fill="#E2E2F0" height="51.2422" rx="2.5" ry="2.5" style="stroke:#181818;stroke-width:0.5;" width="166" x="298.5" y="720.8203"/><text fill="#000000" font-family="sans-serif" font-size="14" font-style="italic" lengthAdjust="spacing" textLength="84" x="339.5" y="742.9277">&#171;application&#187;</text><text fill="#000000" font-family="sans-serif" font-size="14" lengthAdjust="spacing" textLength="152" x="305.5" y="761.5488">:ComunicationController</text><rect fill="#E2E2F0" height="51.2422" rx="2.5" ry="2.5" style="stroke:#181818;stroke-width:0.5;" width="162" x="485.5" y="71"/><text fill="#000000" font-family="sans-serif" font-size="14" font-style="italic" lengthAdjust="spacing" textLength="60" x="536.5" y="93.1074">&#171;service&#187;</text><text fill="#000000" font-family="sans-serif" font-size="14" lengthAdjust="spacing" textLength="148" x="492.5" y="111.7285">:CommunicationService</text><rect fill="#E2E2F0" height="51.2422" rx="2.5" ry="2.5" style="stroke:#181818;stroke-width:0.5;" width="162" x="485.5" y="720.8203"/><text fill="#000000" font-family="sans-serif" font-size="14" font-style="italic" lengthAdjust="spacing" textLength="60" x="536.5" y="742.9277">&#171;service&#187;</text><text fill="#000000" font-family="sans-serif" font-size="14" lengthAdjust="spacing" textLength="148" x="492.5" y="761.5488">:CommunicationService</text><rect fill="#E2E2F0" height="32.6211" rx="2.5" ry="2.5" style="stroke:#181818;stroke-width:0.5;" width="83" x="997" y="89.6211"/><text fill="#000000" font-family="sans-serif" font-size="14" lengthAdjust="spacing" textLength="69" x="1004" y="111.7285">:Translator</text><rect fill="#E2E2F0" height="32.6211" rx="2.5" ry="2.5" style="stroke:#181818;stroke-width:0.5;" width="83" x="997" y="720.8203"/><text fill="#000000" font-family="sans-serif" font-size="14" lengthAdjust="spacing" textLength="69" x="1004" y="742.9277">:Translator</text><rect fill="#E2E2F0" height="32.6211" rx="2.5" ry="2.5" style="stroke:#181818;stroke-width:0.5;" width="88" x="1090" y="89.6211"/><text fill="#000000" font-family="sans-serif" font-size="14" lengthAdjust="spacing" textLength="74" x="1097" y="111.7285">:Messenger</text><rect fill="#E2E2F0" height="32.6211" rx="2.5" ry="2.5" style="stroke:#181818;stroke-width:0.5;" width="88" x="1090" y="720.8203"/><text fill="#000000" font-family="sans-serif" font-size="14" lengthAdjust="spacing" textLength="74" x="1097" y="742.9277">:Messenger</text><rect fill="#FFA500" height="32.6211" rx="2.5" ry="2.5" style="stroke:#181818;stroke-width:0.5;" width="113" x="1188" y="89.6211"/><text fill="#000000" font-family="sans-serif" font-size="14" lengthAdjust="spacing" textLength="99" x="1195" y="111.7285">FollowUpServer</text><rect fill="#FFA500" height="32.6211" rx="2.5" ry="2.5" style="stroke:#181818;stroke-width:0.5;" width="113" x="1188" y="720.8203"/><text fill="#000000" font-family="sans-serif" font-size="14" lengthAdjust="spacing" textLength="99" x="1195" y="742.9277">FollowUpServer</text><rect fill="#FFFFFF" height="579.5781" style="stroke:#181818;stroke-width:1.0;" width="10" x="48.5" y="133.2422"/><rect fill="#FFFFFF" height="556.2871" style="stroke:#181818;stroke-width:1.0;" width="10" x="191.5" y="156.5332"/><rect fill="#FFFFFF" height="477.7051" style="stroke:#181818;stroke-width:1.0;" width="10" x="376.5" y="187.8242"/><rect fill="#FFFFFF" height="415.123" style="stroke:#181818;stroke-width:1.0;" width="10" x="561.5" y="219.1152"/><rect fill="#FFFFFF" height="31.291" style="stroke:#181818;stroke-width:1.0;" width="10" x="1033.5" y="250.4063"/><rect fill="#FFFFFF" height="31.291" style="stroke:#181818;stroke-width:1.0;" width="10" x="1033.5" y="434.8613"/><rect fill="#FFFFFF" height="90.582" style="stroke:#181818;stroke-width:1.0;" width="10" x="1129" y="312.9883"/><rect fill="#FFFFFF" height="14" style="stroke:#181818;stroke-width:1.0;" width="10" x="1239.5" y="326.9883"/><polygon fill="#181818" points="179.5,152.5332,189.5,156.5332,179.5,160.5332,183.5,156.5332" style="stroke:#181818;stroke-width:1.0;"/><line style="stroke:#181818;stroke-width:1.0;" x1="58.5" x2="185.5" y1="156.5332" y2="156.5332"/><text fill="#000000" font-family="sans-serif" font-size="13" lengthAdjust="spacing" textLength="114" x="65.5" y="151.2705">asks to do the login</text><polygon fill="#181818" points="364.5,183.8242,374.5,187.8242,364.5,191.8242,368.5,187.8242" style="stroke:#181818;stroke-width:1.0;"/><line style="stroke:#181818;stroke-width:1.0;" x1="201.5" x2="370.5" y1="187.8242" y2="187.8242"/><text fill="#000000" font-family="sans-serif" font-size="13" lengthAdjust="spacing" textLength="156" x="208.5" y="182.5615">login(userEmail, password)</text><polygon fill="#181818" points="549.5,215.1152,559.5,219.1152,549.5,223.1152,553.5,219.1152" style="stroke:#181818;stroke-width:1.0;"/><line style="stroke:#181818;stroke-width:1.0;" x1="386.5" x2="555.5" y1="219.1152" y2="219.1152"/><text fill="#000000" font-family="sans-serif" font-size="13" lengthAdjust="spacing" textLength="156" x="393.5" y="213.8525">login(userEmail, password)</text><polygon fill="#181818" points="1021.5,246.4063,1031.5,250.4063,1021.5,254.4063,1025.5,250.4063" style="stroke:#181818;stroke-width:1.0;"/><line style="stroke:#181818;stroke-width:1.0;" x1="571.5" x2="1027.5" y1="250.4063" y2="250.4063"/><text fill="#000000" font-family="sans-serif" font-size="13" lengthAdjust="spacing" textLength="443" x="578.5" y="245.1436">encode(1, MessageCode.AUTH, userEmail.getBytes(), password.getBytes())</text><polygon fill="#181818" points="582.5,277.6973,572.5,281.6973,582.5,285.6973,578.5,281.6973" style="stroke:#181818;stroke-width:1.0;"/><line style="stroke:#181818;stroke-width:1.0;stroke-dasharray:2.0,2.0;" x1="576.5" x2="1037.5" y1="281.6973" y2="281.6973"/><text fill="#000000" font-family="sans-serif" font-size="13" lengthAdjust="spacing" textLength="79" x="588.5" y="276.4346">byte[] encode</text><polygon fill="#181818" points="1117,308.9883,1127,312.9883,1117,316.9883,1121,312.9883" style="stroke:#181818;stroke-width:1.0;"/><line style="stroke:#181818;stroke-width:1.0;" x1="571.5" x2="1123" y1="312.9883" y2="312.9883"/><text fill="#000000" font-family="sans-serif" font-size="13" lengthAdjust="spacing" textLength="142" x="578.5" y="307.7256">sendMessage(message)</text><polygon fill="#181818" points="1227.5,322.9883,1237.5,326.9883,1227.5,330.9883,1231.5,326.9883" style="stroke:#181818;stroke-width:1.0;"/><line style="stroke:#181818;stroke-width:1.0;" x1="1139" x2="1233.5" y1="326.9883" y2="326.9883"/><polygon fill="#181818" points="1150,336.9883,1140,340.9883,1150,344.9883,1146,340.9883" style="stroke:#181818;stroke-width:1.0;"/><line style="stroke:#181818;stroke-width:1.0;stroke-dasharray:2.0,2.0;" x1="1144" x2="1243.5" y1="340.9883" y2="340.9883"/><polygon fill="#181818" points="1117,368.2793,1127,372.2793,1117,376.2793,1121,372.2793" style="stroke:#181818;stroke-width:1.0;"/><line style="stroke:#181818;stroke-width:1.0;" x1="571.5" x2="1123" y1="372.2793" y2="372.2793"/><text fill="#000000" font-family="sans-serif" font-size="13" lengthAdjust="spacing" textLength="101" x="578.5" y="367.0166">receiveMessage()</text><polygon fill="#181818" points="582.5,399.5703,572.5,403.5703,582.5,407.5703,578.5,403.5703" style="stroke:#181818;stroke-width:1.0;"/><line style="stroke:#181818;stroke-width:1.0;stroke-dasharray:2.0,2.0;" x1="576.5" x2="1133" y1="403.5703" y2="403.5703"/><text fill="#000000" font-family="sans-serif" font-size="13" lengthAdjust="spacing" textLength="90" x="588.5" y="398.3076">byte[] response</text><polygon fill="#181818" points="1021.5,430.8613,1031.5,434.8613,1021.5,438.8613,1025.5,434.8613" style="stroke:#181818;stroke-width:1.0;"/><line style="stroke:#181818;stroke-width:1.0;" x1="571.5" x2="1027.5" y1="434.8613" y2="434.8613"/><text fill="#000000" font-family="sans-serif" font-size="13" lengthAdjust="spacing" textLength="133" x="578.5" y="429.5986">decodeCode(response)</text><polygon fill="#181818" points="582.5,462.1523,572.5,466.1523,582.5,470.1523,578.5,466.1523" style="stroke:#181818;stroke-width:1.0;"/><line style="stroke:#181818;stroke-width:1.0;stroke-dasharray:2.0,2.0;" x1="576.5" x2="1037.5" y1="466.1523" y2="466.1523"/><text fill="#000000" font-family="sans-serif" font-size="13" lengthAdjust="spacing" textLength="83" x="588.5" y="460.8896">MessageCode</text><path d="M10,481.1523 L71,481.1523 L71,490.4434 L61,500.4434 L10,500.4434 L10,481.1523 " fill="#EEEEEE" style="stroke:#000000;stroke-width:1.5;"/><rect fill="none" height="223.668" style="stroke:#000000;stroke-width:1.5;" width="647.5" x="10" y="481.1523"/><text fill="#000000" font-family="sans-serif" font-size="13" font-weight="bold" lengthAdjust="spacing" textLength="16" x="25" y="496.1807">alt</text><text fill="#000000" font-family="sans-serif" font-size="11" font-weight="bold" lengthAdjust="spacing" textLength="114" x="86" y="495.0225">[MessageCode.ACK]</text><polygon fill="#181818" points="397.5,519.7344,387.5,523.7344,397.5,527.7344,393.5,523.7344" style="stroke:#181818;stroke-width:1.0;"/><line style="stroke:#181818;stroke-width:1.0;" x1="391.5" x2="560.5" y1="523.7344" y2="523.7344"/><text fill="#000000" font-family="sans-serif" font-size="13" lengthAdjust="spacing" textLength="22" x="403.5" y="518.4717">true</text><polygon fill="#181818" points="212.5,551.0254,202.5,555.0254,212.5,559.0254,208.5,555.0254" style="stroke:#181818;stroke-width:1.0;"/><line style="stroke:#181818;stroke-width:1.0;stroke-dasharray:2.0,2.0;" x1="206.5" x2="375.5" y1="555.0254" y2="555.0254"/><text fill="#000000" font-family="sans-serif" font-size="13" lengthAdjust="spacing" textLength="22" x="218.5" y="549.7627">true</text><polygon fill="#181818" points="69.5,582.3164,59.5,586.3164,69.5,590.3164,65.5,586.3164" style="stroke:#181818;stroke-width:1.0;"/><line style="stroke:#181818;stroke-width:1.0;stroke-dasharray:2.0,2.0;" x1="63.5" x2="190.5" y1="586.3164" y2="586.3164"/><text fill="#000000" font-family="sans-serif" font-size="13" lengthAdjust="spacing" textLength="97" x="75.5" y="581.0537">Login successful</text><line style="stroke:#000000;stroke-width:1.0;stroke-dasharray:2.0,2.0;" x1="10" x2="657.5" y1="595.3164" y2="595.3164"/><text fill="#000000" font-family="sans-serif" font-size="11" font-weight="bold" lengthAdjust="spacing" textLength="111" x="15" y="607.1865">[MessageCode.ERR]</text><polygon fill="#181818" points="397.5,630.2383,387.5,634.2383,397.5,638.2383,393.5,634.2383" style="stroke:#181818;stroke-width:1.0;"/><line style="stroke:#181818;stroke-width:1.0;" x1="391.5" x2="565.5" y1="634.2383" y2="634.2383"/><text fill="#000000" font-family="sans-serif" font-size="13" lengthAdjust="spacing" textLength="27" x="403.5" y="628.9756">false</text><polygon fill="#181818" points="212.5,661.5293,202.5,665.5293,212.5,669.5293,208.5,665.5293" style="stroke:#181818;stroke-width:1.0;"/><line style="stroke:#181818;stroke-width:1.0;stroke-dasharray:2.0,2.0;" x1="206.5" x2="380.5" y1="665.5293" y2="665.5293"/><text fill="#000000" font-family="sans-serif" font-size="13" lengthAdjust="spacing" textLength="27" x="218.5" y="660.2666">false</text><polygon fill="#181818" points="69.5,692.8203,59.5,696.8203,69.5,700.8203,65.5,696.8203" style="stroke:#181818;stroke-width:1.0;"/><line style="stroke:#181818;stroke-width:1.0;stroke-dasharray:2.0,2.0;" x1="63.5" x2="190.5" y1="696.8203" y2="696.8203"/><text fill="#000000" font-family="sans-serif" font-size="13" lengthAdjust="spacing" textLength="65" x="75.5" y="691.5576">Login failed</text><!--SRC=[bLHBRniX4BxpAv1zMKjEbBOtAxAKRjE7cbwI-5HL5TuTRr1PGC0wxR_ly5Z3-Y6rlXZ6yptu1kou4q0VLCSb_S1PPrXFgtgmJlLWxhHU_DmylRkvUKi8QvmoTFo9CajZPQuCansGhVfDPmLoHkSFl7jndmo099ePnnkkcNHqjdg2FPWWklaoyrGY6BYzrGOiICSSLtAz9Y1RYhmaaDVA09qBpxaL0nnHrgeV96y2ibRI6IK4c43Ug1wfcTOY_OxC9-2CVWApvmq4g8rhXAVL2VGPJsy5moG2m1ssHttVmEB9kcIf7tVvY9FsZ-XUlMwqzv8WDYmFSVjvy3rp4CUGndErJb6k4F8BxIZQAkfU89OpA6vZBu9yHAjOh0PKkkyP5qkgcRMlohIB3CHEuhiHD8RpRy3KJKOK4kIma0DaergetYofZufrKEFs-cxp_7b93ypN7RZtVnpOQf55YcAXLqoYqBcQ-DuYwlkF94rQE0Sk_1wcXb1SjCberSVlGZpFDsEICfXf9X0b87hBmC9DqNR6YO46-1v6CujIyjnfyObf9Utal5dsqdXQy1dvcLGZmN-6NOprGjI42JUTVlsrD1HlgJFu-CCLB6vxAARhZENu6bRfZyqEJOEikq4G41Oc4lUFZwSIEoQc-OoNzrZsfD4_ZqisTdY1eVKldiJFNm00]--></g></svg>