<?xml version="1.0" encoding="us-ascii" standalone="no"?><svg xmlns="http://www.w3.org/2000/svg" xmlns:xlink="http://www.w3.org/1999/xlink" contentStyleType="text/css" height="636px" preserveAspectRatio="none" style="width:612px;height:636px;background:#FFFFFF;" version="1.1" viewBox="0 0 612 636" width="612px" zoomAndPan="magnify"><defs/><g><text fill="#000000" font-family="sans-serif" font-size="14" font-weight="bold" lengthAdjust="spacing" textLength="177" x="214.5" y="30.1074">Process Diagram_US3002</text><rect fill="#D3D3D3" height="585.1895" style="stroke:#181818;stroke-width:0.5;" width="384.5" x="221.5" y="45.6211"/><text fill="#000000" font-family="sans-serif" font-size="13" font-weight="bold" lengthAdjust="spacing" textLength="50" x="388.75" y="59.6494">:System</text><rect fill="#FFFFFF" height="397.9473" style="stroke:#181818;stroke-width:1.0;" width="10" x="33.5" y="133.2422"/><rect fill="#FFFFFF" height="31.291" style="stroke:#181818;stroke-width:1.0;" width="10" x="272.5" y="191.1152"/><rect fill="#FFFFFF" height="277.4922" style="stroke:#181818;stroke-width:1.0;" width="10" x="272.5" y="253.6973"/><rect fill="#FFFFFF" height="163.0371" style="stroke:#181818;stroke-width:1.0;" width="10" x="538.5" y="302.2793"/><line style="stroke:#181818;stroke-width:0.5;stroke-dasharray:5.0,5.0;" x1="38" x2="38" y1="123.2422" y2="549.1895"/><line style="stroke:#181818;stroke-width:0.5;stroke-dasharray:5.0,5.0;" x1="277.5" x2="277.5" y1="123.2422" y2="549.1895"/><line style="stroke:#181818;stroke-width:0.5;stroke-dasharray:5.0,5.0;" x1="543" x2="543" y1="123.2422" y2="549.1895"/><text fill="#000000" font-family="sans-serif" font-size="14" lengthAdjust="spacing" textLength="61" x="5" y="119.7285">Customer</text><ellipse cx="38.5" cy="53.1211" fill="#ADD8E6" rx="8" ry="8" style="stroke:#181818;stroke-width:0.5;"/><path d="M38.5,61.1211 L38.5,88.1211 M25.5,69.1211 L51.5,69.1211 M38.5,88.1211 L25.5,103.1211 M38.5,88.1211 L51.5,103.1211 " fill="none" style="stroke:#181818;stroke-width:0.5;"/><text fill="#000000" font-family="sans-serif" font-size="14" lengthAdjust="spacing" textLength="61" x="5" y="563.2969">Customer</text><ellipse cx="38.5" cy="575.3105" fill="#ADD8E6" rx="8" ry="8" style="stroke:#181818;stroke-width:0.5;"/><path d="M38.5,583.3105 L38.5,610.3105 M25.5,591.3105 L51.5,591.3105 M38.5,610.3105 L25.5,625.3105 M38.5,610.3105 L51.5,625.3105 " fill="none" style="stroke:#181818;stroke-width:0.5;"/><rect fill="#90EE90" height="32.6211" rx="2.5" ry="2.5" style="stroke:#181818;stroke-width:0.5;" width="104" x="225.5" y="89.6211"/><text fill="#000000" font-family="sans-serif" font-size="14" lengthAdjust="spacing" textLength="90" x="232.5" y="111.7285">:CustomerApp</text><rect fill="#90EE90" height="32.6211" rx="2.5" ry="2.5" style="stroke:#181818;stroke-width:0.5;" width="104" x="225.5" y="548.1895"/><text fill="#000000" font-family="sans-serif" font-size="14" lengthAdjust="spacing" textLength="90" x="232.5" y="570.2969">:CustomerApp</text><rect fill="#FFFF00" height="32.6211" rx="2.5" ry="2.5" style="stroke:#181818;stroke-width:0.5;" width="117" x="485" y="89.6211"/><text fill="#000000" font-family="sans-serif" font-size="14" lengthAdjust="spacing" textLength="103" x="492" y="111.7285">:FollowUpServer</text><rect fill="#FFFF00" height="32.6211" rx="2.5" ry="2.5" style="stroke:#181818;stroke-width:0.5;" width="117" x="485" y="548.1895"/><text fill="#000000" font-family="sans-serif" font-size="14" lengthAdjust="spacing" textLength="103" x="492" y="570.2969">:FollowUpServer</text><rect fill="#FFFFFF" height="397.9473" style="stroke:#181818;stroke-width:1.0;" width="10" x="33.5" y="133.2422"/><rect fill="#FFFFFF" height="31.291" style="stroke:#181818;stroke-width:1.0;" width="10" x="272.5" y="191.1152"/><rect fill="#FFFFFF" height="277.4922" style="stroke:#181818;stroke-width:1.0;" width="10" x="272.5" y="253.6973"/><rect fill="#FFFFFF" height="163.0371" style="stroke:#181818;stroke-width:1.0;" width="10" x="538.5" y="302.2793"/><polygon fill="#181818" points="260.5,187.1152,270.5,191.1152,260.5,195.1152,264.5,191.1152" style="stroke:#181818;stroke-width:1.0;"/><line style="stroke:#181818;stroke-width:1.0;" x1="43.5" x2="266.5" y1="191.1152" y2="191.1152"/><text fill="#000000" font-family="sans-serif" font-size="13" lengthAdjust="spacing" textLength="206" x="50.5" y="151.2705">Requests to list all his job openings</text><text fill="#000000" font-family="sans-serif" font-size="13" lengthAdjust="spacing" textLength="198" x="50.5" y="168.5615">(job reference, function, start date,</text><text fill="#000000" font-family="sans-serif" font-size="13" lengthAdjust="spacing" textLength="155" x="50.5" y="185.8525">number of job applications)</text><polygon fill="#181818" points="54.5,218.4063,44.5,222.4063,54.5,226.4063,50.5,222.4063" style="stroke:#181818;stroke-width:1.0;"/><line style="stroke:#181818;stroke-width:1.0;stroke-dasharray:2.0,2.0;" x1="48.5" x2="276.5" y1="222.4063" y2="222.4063"/><text fill="#000000" font-family="sans-serif" font-size="13" lengthAdjust="spacing" textLength="186" x="60.5" y="217.1436">asks to insert the email address</text><polygon fill="#181818" points="260.5,249.6973,270.5,253.6973,260.5,257.6973,264.5,253.6973" style="stroke:#181818;stroke-width:1.0;"/><line style="stroke:#181818;stroke-width:1.0;" x1="43.5" x2="266.5" y1="253.6973" y2="253.6973"/><text fill="#000000" font-family="sans-serif" font-size="13" lengthAdjust="spacing" textLength="146" x="50.5" y="248.4346">inserts the email address</text><polygon fill="#181818" points="526.5,298.2793,536.5,302.2793,526.5,306.2793,530.5,302.2793" style="stroke:#181818;stroke-width:1.0;"/><line style="stroke:#181818;stroke-width:1.0;" x1="282.5" x2="532.5" y1="302.2793" y2="302.2793"/><text fill="#000000" font-family="sans-serif" font-size="13" lengthAdjust="spacing" textLength="174" x="289.5" y="279.7256">tries to establish a connection</text><text fill="#000000" font-family="sans-serif" font-size="13" lengthAdjust="spacing" textLength="71" x="289.5" y="297.0166">to the server</text><polygon fill="#181818" points="293.5,329.5703,283.5,333.5703,293.5,337.5703,289.5,333.5703" style="stroke:#181818;stroke-width:1.0;"/><line style="stroke:#181818;stroke-width:1.0;stroke-dasharray:2.0,2.0;" x1="287.5" x2="537.5" y1="333.5703" y2="333.5703"/><text fill="#000000" font-family="sans-serif" font-size="13" lengthAdjust="spacing" textLength="135" x="299.5" y="328.3076">accepts the connection</text><polygon fill="#181818" points="526.5,395.4434,536.5,399.4434,526.5,403.4434,530.5,399.4434" style="stroke:#181818;stroke-width:1.0;"/><line style="stroke:#181818;stroke-width:1.0;" x1="282.5" x2="532.5" y1="399.4434" y2="399.4434"/><text fill="#000000" font-family="sans-serif" font-size="13" lengthAdjust="spacing" textLength="228" x="289.5" y="359.5986">sends a message according to protocol</text><text fill="#000000" font-family="sans-serif" font-size="13" lengthAdjust="spacing" textLength="221" x="289.5" y="376.8896">with the email of the customer and the</text><text fill="#000000" font-family="sans-serif" font-size="13" lengthAdjust="spacing" textLength="183" x="289.5" y="394.1807">code for listing the job openings</text><polygon fill="#181818" points="293.5,461.3164,283.5,465.3164,293.5,469.3164,289.5,465.3164" style="stroke:#181818;stroke-width:1.0;"/><line style="stroke:#181818;stroke-width:1.0;stroke-dasharray:2.0,2.0;" x1="287.5" x2="542.5" y1="465.3164" y2="465.3164"/><text fill="#000000" font-family="sans-serif" font-size="13" lengthAdjust="spacing" textLength="169" x="299.5" y="425.4717">sends the list of job openings</text><text fill="#000000" font-family="sans-serif" font-size="13" lengthAdjust="spacing" textLength="198" x="299.5" y="442.7627">(job reference, function, start date,</text><text fill="#000000" font-family="sans-serif" font-size="13" lengthAdjust="spacing" textLength="155" x="299.5" y="460.0537">number of job applications)</text><polygon fill="#181818" points="49.5,527.1895,39.5,531.1895,49.5,535.1895,45.5,531.1895" style="stroke:#181818;stroke-width:1.0;"/><line style="stroke:#181818;stroke-width:1.0;stroke-dasharray:2.0,2.0;" x1="43.5" x2="276.5" y1="531.1895" y2="531.1895"/><text fill="#000000" font-family="sans-serif" font-size="13" lengthAdjust="spacing" textLength="171" x="55.5" y="491.3447">shows the list of job openings</text><text fill="#000000" font-family="sans-serif" font-size="13" lengthAdjust="spacing" textLength="198" x="55.5" y="508.6357">(job reference, function, start date,</text><text fill="#000000" font-family="sans-serif" font-size="13" lengthAdjust="spacing" textLength="155" x="55.5" y="525.9268">number of job applications)</text><!--SRC=[lPH1J-Cm48Nl-HMZzh98hOHsRpqW8T2U4HKtf9NZJ1EpZiVhcT3jlsVi59eMK2-8eyUUDv-VNo9EFC9T8elCSEjCcqp_vs7zw_BoPsMiK8ARWOLwJ60OnihSkxQJsWzOrVGVPglrZWNxsNwZJRYheadYh8icY1vurRYESPPr9kj34uQJhj_aFMqVuXhJCwRIU5o2-Gxpkigexja8ZeHxykNLqQ0LtEE_0LaOXC0x5Z3UG-SOdgW6YXXSQ1aUmu-yJhZ1XC7Y0ZP3K7qA2s1HGcXqqaBFXQ6lbO8sHS34w9qr-I1V78Wc2DKKPwbu8-TAR_QtGBd0gFhI8M1ld0VJD4bVfchmGxrFxZdAy0SwvwckJZrUWII71K-zCxKQru41Io5WSKMDqBqyYql7OSYnKdKYl7p7RQp5kES-w9_bOmoDPXDwlQ5fSmOifKRVCZF7H4AMl59kdNGJJ_JPog2tV8Uc51w3fGPXeyxca1GTBKypSlug8rFkAq7RH-IBCpP9nOdLdmMDEzf-9zOqPfFo-9MgHQ0_a1S0]--></g></svg>