<?xml version="1.0" encoding="us-ascii" standalone="no"?><svg xmlns="http://www.w3.org/2000/svg" xmlns:xlink="http://www.w3.org/1999/xlink" contentStyleType="text/css" height="992px" preserveAspectRatio="none" style="width:1529px;height:992px;background:#FFFFFF;" version="1.1" viewBox="0 0 1529 992" width="1529px" zoomAndPan="magnify"><defs/><g><text fill="#000000" font-family="sans-serif" font-size="14" font-weight="bold" lengthAdjust="spacing" textLength="352" x="587.5" y="28.5352">ListJobOpening Diagram (CustomerApp)_US3002</text><rect fill="#90EE90" height="943.0723" style="stroke:#181818;stroke-width:0.5;" width="123" x="284" y="43.4883"/><text fill="#000000" font-family="sans-serif" font-size="13" font-weight="bold" lengthAdjust="spacing" textLength="93" x="299" y="56.0566">CustomerApp</text><rect fill="#ADD8E6" height="943.0723" style="stroke:#181818;stroke-width:0.5;" width="912.5" x="483.5" y="43.4883"/><text fill="#000000" font-family="sans-serif" font-size="13" font-weight="bold" lengthAdjust="spacing" textLength="31" x="922.25" y="56.0566">Core</text><rect fill="#FFFFFF" height="769.0957" style="stroke:#181818;stroke-width:1.0;" width="10" x="61.5" y="128.9766"/><rect fill="#FFFFFF" height="717.1641" style="stroke:#181818;stroke-width:1.0;" width="10" x="340.5" y="180.9082"/><rect fill="#FFFFFF" height="632.543" style="stroke:#181818;stroke-width:1.0;" width="10" x="574.5" y="220.2188"/><rect fill="#FFFFFF" height="515.9453" style="stroke:#181818;stroke-width:1.0;" width="10" x="863.5" y="307.5059"/><rect fill="#FFFFFF" height="29.3105" style="stroke:#181818;stroke-width:1.0;" width="10" x="1240.5" y="384.793"/><rect fill="#FFFFFF" height="29.3105" style="stroke:#181818;stroke-width:1.0;" width="10" x="1240.5" y="530.0352"/><rect fill="#FFFFFF" height="29.3105" style="stroke:#181818;stroke-width:1.0;" width="10" x="1240.5" y="612.9668"/><rect fill="#FFFFFF" height="57.3105" style="stroke:#181818;stroke-width:1.0;" width="10" x="1341" y="443.4141"/><rect fill="none" height="315.7266" style="stroke:#000000;stroke-width:1.5;" width="1290" x="10" y="574.3457"/><rect fill="none" height="77.2422" style="stroke:#000000;stroke-width:1.5;" width="393" x="20" y="715.8984"/><line style="stroke:#181818;stroke-width:0.5;stroke-dasharray:5.0,5.0;" x1="66" x2="66" y1="118.9766" y2="907.0723"/><line style="stroke:#181818;stroke-width:0.5;stroke-dasharray:5.0,5.0;" x1="345" x2="345" y1="118.9766" y2="907.0723"/><line style="stroke:#181818;stroke-width:0.5;stroke-dasharray:5.0,5.0;" x1="579.5" x2="579.5" y1="227.8965" y2="907.0723"/><line style="stroke:#181818;stroke-width:0.5;stroke-dasharray:5.0,5.0;" x1="868" x2="868" y1="315.1836" y2="907.0723"/><line style="stroke:#181818;stroke-width:0.5;stroke-dasharray:5.0,5.0;" x1="1245" x2="1245" y1="118.9766" y2="907.0723"/><line style="stroke:#181818;stroke-width:0.5;stroke-dasharray:5.0,5.0;" x1="1346" x2="1346" y1="118.9766" y2="907.0723"/><line style="stroke:#181818;stroke-width:0.5;stroke-dasharray:5.0,5.0;" x1="1462" x2="1462" y1="118.9766" y2="907.0723"/><text fill="#000000" font-family="sans-serif" font-size="14" lengthAdjust="spacing" textLength="67" x="30" y="116.0234">Customer</text><ellipse cx="66.5" cy="50.9883" fill="#FFA500" rx="8" ry="8" style="stroke:#181818;stroke-width:0.5;"/><path d="M66.5,58.9883 L66.5,85.9883 M53.5,66.9883 L79.5,66.9883 M66.5,85.9883 L53.5,100.9883 M66.5,85.9883 L79.5,100.9883 " fill="none" style="stroke:#181818;stroke-width:0.5;"/><text fill="#000000" font-family="sans-serif" font-size="14" lengthAdjust="spacing" textLength="67" x="30" y="919.6074">Customer</text><ellipse cx="66.5" cy="931.0605" fill="#FFA500" rx="8" ry="8" style="stroke:#181818;stroke-width:0.5;"/><path d="M66.5,939.0605 L66.5,966.0605 M53.5,947.0605 L79.5,947.0605 M66.5,966.0605 L53.5,981.0605 M66.5,966.0605 L79.5,981.0605 " fill="none" style="stroke:#181818;stroke-width:0.5;"/><rect fill="#E2E2F0" height="46.9766" rx="2.5" ry="2.5" style="stroke:#181818;stroke-width:0.5;" width="115" x="288" y="71"/><text fill="#000000" font-family="sans-serif" font-size="14" font-style="italic" lengthAdjust="spacing" textLength="101" x="295" y="91.5352">&#171;presentation&#187;</text><text fill="#000000" font-family="sans-serif" font-size="14" lengthAdjust="spacing" textLength="55" x="318" y="108.0234">:SeverUI</text><rect fill="#E2E2F0" height="46.9766" rx="2.5" ry="2.5" style="stroke:#181818;stroke-width:0.5;" width="115" x="288" y="906.0723"/><text fill="#000000" font-family="sans-serif" font-size="14" font-style="italic" lengthAdjust="spacing" textLength="101" x="295" y="926.6074">&#171;presentation&#187;</text><text fill="#000000" font-family="sans-serif" font-size="14" lengthAdjust="spacing" textLength="55" x="318" y="943.0957">:SeverUI</text><rect fill="#E2E2F0" height="46.9766" rx="2.5" ry="2.5" style="stroke:#181818;stroke-width:0.5;" width="184" x="487.5" y="906.0723"/><text fill="#000000" font-family="sans-serif" font-size="14" font-style="italic" lengthAdjust="spacing" textLength="90" x="534.5" y="926.6074">&#171;application&#187;</text><text fill="#000000" font-family="sans-serif" font-size="14" lengthAdjust="spacing" textLength="170" x="494.5" y="943.0957">:ComunicationController</text><rect fill="#E2E2F0" height="46.9766" rx="2.5" ry="2.5" style="stroke:#181818;stroke-width:0.5;" width="175" x="781" y="906.0723"/><text fill="#000000" font-family="sans-serif" font-size="14" font-style="italic" lengthAdjust="spacing" textLength="61" x="838" y="926.6074">&#171;service&#187;</text><text fill="#000000" font-family="sans-serif" font-size="14" lengthAdjust="spacing" textLength="161" x="788" y="943.0957">:CommunicationService</text><rect fill="#E2E2F0" height="30.4883" rx="2.5" ry="2.5" style="stroke:#181818;stroke-width:0.5;" width="89" x="1201" y="87.4883"/><text fill="#000000" font-family="sans-serif" font-size="14" lengthAdjust="spacing" textLength="75" x="1208" y="108.0234">:Translator</text><rect fill="#E2E2F0" height="30.4883" rx="2.5" ry="2.5" style="stroke:#181818;stroke-width:0.5;" width="89" x="1201" y="906.0723"/><text fill="#000000" font-family="sans-serif" font-size="14" lengthAdjust="spacing" textLength="75" x="1208" y="926.6074">:Translator</text><rect fill="#E2E2F0" height="30.4883" rx="2.5" ry="2.5" style="stroke:#181818;stroke-width:0.5;" width="92" x="1300" y="87.4883"/><text fill="#000000" font-family="sans-serif" font-size="14" lengthAdjust="spacing" textLength="78" x="1307" y="108.0234">:Messenger</text><rect fill="#E2E2F0" height="30.4883" rx="2.5" ry="2.5" style="stroke:#181818;stroke-width:0.5;" width="92" x="1300" y="906.0723"/><text fill="#000000" font-family="sans-serif" font-size="14" lengthAdjust="spacing" textLength="78" x="1307" y="926.6074">:Messenger</text><rect fill="#FFA500" height="30.4883" rx="2.5" ry="2.5" style="stroke:#181818;stroke-width:0.5;" width="121" x="1402" y="87.4883"/><text fill="#000000" font-family="sans-serif" font-size="14" lengthAdjust="spacing" textLength="107" x="1409" y="108.0234">FollowUpServer</text><rect fill="#FFA500" height="30.4883" rx="2.5" ry="2.5" style="stroke:#181818;stroke-width:0.5;" width="121" x="1402" y="906.0723"/><text fill="#000000" font-family="sans-serif" font-size="14" lengthAdjust="spacing" textLength="107" x="1409" y="926.6074">FollowUpServer</text><rect fill="#FFFFFF" height="769.0957" style="stroke:#181818;stroke-width:1.0;" width="10" x="61.5" y="128.9766"/><rect fill="#FFFFFF" height="717.1641" style="stroke:#181818;stroke-width:1.0;" width="10" x="340.5" y="180.9082"/><rect fill="#FFFFFF" height="632.543" style="stroke:#181818;stroke-width:1.0;" width="10" x="574.5" y="220.2188"/><rect fill="#FFFFFF" height="515.9453" style="stroke:#181818;stroke-width:1.0;" width="10" x="863.5" y="307.5059"/><rect fill="#FFFFFF" height="29.3105" style="stroke:#181818;stroke-width:1.0;" width="10" x="1240.5" y="384.793"/><rect fill="#FFFFFF" height="29.3105" style="stroke:#181818;stroke-width:1.0;" width="10" x="1240.5" y="530.0352"/><rect fill="#FFFFFF" height="29.3105" style="stroke:#181818;stroke-width:1.0;" width="10" x="1240.5" y="612.9668"/><rect fill="#FFFFFF" height="57.3105" style="stroke:#181818;stroke-width:1.0;" width="10" x="1341" y="443.4141"/><polygon fill="#181818" points="328.5,176.9082,338.5,180.9082,328.5,184.9082,332.5,180.9082" style="stroke:#181818;stroke-width:1.0;"/><line style="stroke:#181818;stroke-width:1.0;" x1="71.5" x2="334.5" y1="180.9082" y2="180.9082"/><text fill="#000000" font-family="sans-serif" font-size="13" lengthAdjust="spacing" textLength="179" x="78.5" y="145.5449">asks to list his job openings</text><text fill="#000000" font-family="sans-serif" font-size="13" lengthAdjust="spacing" textLength="219" x="78.5" y="160.8555">(job reference, function, start date,</text><text fill="#000000" font-family="sans-serif" font-size="13" lengthAdjust="spacing" textLength="150" x="78.5" y="176.166">number of applications)</text><polygon fill="#181818" points="475.5,206.2188,485.5,210.2188,475.5,214.2188,479.5,210.2188" style="stroke:#181818;stroke-width:1.0;"/><line style="stroke:#181818;stroke-width:1.0;" x1="350.5" x2="481.5" y1="210.2188" y2="210.2188"/><text fill="#000000" font-family="sans-serif" font-size="13" lengthAdjust="spacing" textLength="46" x="357.5" y="205.4766">create()</text><rect fill="#E2E2F0" height="46.9766" rx="2.5" ry="2.5" style="stroke:#181818;stroke-width:0.5;" width="184" x="487.5" y="188.9082"/><text fill="#000000" font-family="sans-serif" font-size="14" font-style="italic" lengthAdjust="spacing" textLength="90" x="534.5" y="209.4434">&#171;application&#187;</text><text fill="#000000" font-family="sans-serif" font-size="14" lengthAdjust="spacing" textLength="170" x="494.5" y="225.9316">:ComunicationController</text><polygon fill="#181818" points="562.5,264.1953,572.5,268.1953,562.5,272.1953,566.5,268.1953" style="stroke:#181818;stroke-width:1.0;"/><line style="stroke:#181818;stroke-width:1.0;" x1="350.5" x2="568.5" y1="268.1953" y2="268.1953"/><text fill="#000000" font-family="sans-serif" font-size="13" lengthAdjust="spacing" textLength="125" x="357.5" y="263.4531">listAllJobOpenings()</text><polygon fill="#181818" points="769,293.5059,779,297.5059,769,301.5059,773,297.5059" style="stroke:#181818;stroke-width:1.0;"/><line style="stroke:#181818;stroke-width:1.0;" x1="584.5" x2="775" y1="297.5059" y2="297.5059"/><text fill="#000000" font-family="sans-serif" font-size="13" lengthAdjust="spacing" textLength="46" x="591.5" y="292.7637">create()</text><rect fill="#E2E2F0" height="46.9766" rx="2.5" ry="2.5" style="stroke:#181818;stroke-width:0.5;" width="175" x="781" y="276.1953"/><text fill="#000000" font-family="sans-serif" font-size="14" font-style="italic" lengthAdjust="spacing" textLength="61" x="838" y="296.7305">&#171;service&#187;</text><text fill="#000000" font-family="sans-serif" font-size="14" lengthAdjust="spacing" textLength="161" x="788" y="313.2188">:CommunicationService</text><polygon fill="#181818" points="851.5,351.4824,861.5,355.4824,851.5,359.4824,855.5,355.4824" style="stroke:#181818;stroke-width:1.0;"/><line style="stroke:#181818;stroke-width:1.0;" x1="584.5" x2="857.5" y1="355.4824" y2="355.4824"/><text fill="#000000" font-family="sans-serif" font-size="13" lengthAdjust="spacing" textLength="255" x="591.5" y="350.7402">listAllJobOpeningsForSpecificCustomer()</text><polygon fill="#181818" points="1228.5,380.793,1238.5,384.793,1228.5,388.793,1232.5,384.793" style="stroke:#181818;stroke-width:1.0;"/><line style="stroke:#181818;stroke-width:1.0;" x1="873.5" x2="1234.5" y1="384.793" y2="384.793"/><text fill="#000000" font-family="sans-serif" font-size="13" lengthAdjust="spacing" textLength="348" x="880.5" y="380.0508">encode(1, MessageCode.LIST_JOB_OPENINGS, null, null)</text><polygon fill="#181818" points="884.5,410.1035,874.5,414.1035,884.5,418.1035,880.5,414.1035" style="stroke:#181818;stroke-width:1.0;"/><line style="stroke:#181818;stroke-width:1.0;stroke-dasharray:2.0,2.0;" x1="878.5" x2="1244.5" y1="414.1035" y2="414.1035"/><text fill="#000000" font-family="sans-serif" font-size="13" lengthAdjust="spacing" textLength="94" x="890.5" y="409.3613">byte[] message</text><polygon fill="#181818" points="1329,439.4141,1339,443.4141,1329,447.4141,1333,443.4141" style="stroke:#181818;stroke-width:1.0;"/><line style="stroke:#181818;stroke-width:1.0;" x1="873.5" x2="1335" y1="443.4141" y2="443.4141"/><text fill="#000000" font-family="sans-serif" font-size="13" lengthAdjust="spacing" textLength="147" x="880.5" y="438.6719">sendMessage(message)</text><polygon fill="#181818" points="1450.5,453.4141,1460.5,457.4141,1450.5,461.4141,1454.5,457.4141" style="stroke:#181818;stroke-width:1.0;"/><line style="stroke:#181818;stroke-width:1.0;" x1="1351" x2="1456.5" y1="457.4141" y2="457.4141"/><polygon fill="#181818" points="1362,467.4141,1352,471.4141,1362,475.4141,1358,471.4141" style="stroke:#181818;stroke-width:1.0;"/><line style="stroke:#181818;stroke-width:1.0;stroke-dasharray:2.0,2.0;" x1="1356" x2="1461.5" y1="471.4141" y2="471.4141"/><polygon fill="#181818" points="1334,496.7246,1344,500.7246,1334,504.7246,1338,500.7246" style="stroke:#181818;stroke-width:1.0;"/><line style="stroke:#181818;stroke-width:1.0;" x1="873.5" x2="1340" y1="500.7246" y2="500.7246"/><text fill="#000000" font-family="sans-serif" font-size="13" lengthAdjust="spacing" textLength="106" x="880.5" y="495.9824">receiveMessage()</text><polygon fill="#181818" points="1228.5,526.0352,1238.5,530.0352,1228.5,534.0352,1232.5,530.0352" style="stroke:#181818;stroke-width:1.0;"/><line style="stroke:#181818;stroke-width:1.0;" x1="873.5" x2="1234.5" y1="530.0352" y2="530.0352"/><text fill="#000000" font-family="sans-serif" font-size="13" lengthAdjust="spacing" textLength="142" x="880.5" y="525.293">decodeCode(response)</text><polygon fill="#181818" points="884.5,555.3457,874.5,559.3457,884.5,563.3457,880.5,559.3457" style="stroke:#181818;stroke-width:1.0;"/><line style="stroke:#181818;stroke-width:1.0;stroke-dasharray:2.0,2.0;" x1="878.5" x2="1244.5" y1="559.3457" y2="559.3457"/><text fill="#000000" font-family="sans-serif" font-size="13" lengthAdjust="spacing" textLength="86" x="890.5" y="554.6035">MessageCode</text><path d="M10,574.3457 L72,574.3457 L72,581.6563 L62,591.6563 L10,591.6563 L10,574.3457 " fill="#EEEEEE" style="stroke:#000000;stroke-width:1.5;"/><rect fill="none" height="315.7266" style="stroke:#000000;stroke-width:1.5;" width="1290" x="10" y="574.3457"/><text fill="#000000" font-family="sans-serif" font-size="13" font-weight="bold" lengthAdjust="spacing" textLength="17" x="25" y="587.9141">alt</text><text fill="#000000" font-family="sans-serif" font-size="11" font-weight="bold" lengthAdjust="spacing" textLength="210" x="87" y="586.9805">[MessageCode.SHOW_JOB_OPENINGS]</text><polygon fill="#181818" points="1228.5,608.9668,1238.5,612.9668,1228.5,616.9668,1232.5,612.9668" style="stroke:#181818;stroke-width:1.0;"/><line style="stroke:#181818;stroke-width:1.0;" x1="873.5" x2="1234.5" y1="612.9668" y2="612.9668"/><text fill="#000000" font-family="sans-serif" font-size="13" lengthAdjust="spacing" textLength="147" x="880.5" y="608.2246">decodeData1(response)</text><polygon fill="#181818" points="884.5,638.2773,874.5,642.2773,884.5,646.2773,880.5,642.2773" style="stroke:#181818;stroke-width:1.0;"/><line style="stroke:#181818;stroke-width:1.0;stroke-dasharray:2.0,2.0;" x1="878.5" x2="1244.5" y1="642.2773" y2="642.2773"/><text fill="#000000" font-family="sans-serif" font-size="13" lengthAdjust="spacing" textLength="66" x="890.5" y="637.5352">byte[] data</text><polygon fill="#181818" points="595.5,667.5879,585.5,671.5879,595.5,675.5879,591.5,671.5879" style="stroke:#181818;stroke-width:1.0;"/><line style="stroke:#181818;stroke-width:1.0;stroke-dasharray:2.0,2.0;" x1="589.5" x2="862.5" y1="671.5879" y2="671.5879"/><text fill="#000000" font-family="sans-serif" font-size="13" lengthAdjust="spacing" textLength="200" x="601.5" y="666.8457">List&lt;JobOpening&gt; jobOpenings</text><polygon fill="#181818" points="361.5,696.8984,351.5,700.8984,361.5,704.8984,357.5,700.8984" style="stroke:#181818;stroke-width:1.0;"/><line style="stroke:#181818;stroke-width:1.0;stroke-dasharray:2.0,2.0;" x1="355.5" x2="573.5" y1="700.8984" y2="700.8984"/><text fill="#000000" font-family="sans-serif" font-size="13" lengthAdjust="spacing" textLength="200" x="367.5" y="696.1563">List&lt;JobOpening&gt; jobOpenings</text><path d="M20,715.8984 L94,715.8984 L94,723.209 L84,733.209 L20,733.209 L20,715.8984 " fill="#EEEEEE" style="stroke:#000000;stroke-width:1.5;"/><rect fill="none" height="77.2422" style="stroke:#000000;stroke-width:1.5;" width="393" x="20" y="715.8984"/><text fill="#000000" font-family="sans-serif" font-size="13" font-weight="bold" lengthAdjust="spacing" textLength="29" x="35" y="729.4668">loop</text><text fill="#000000" font-family="sans-serif" font-size="11" font-weight="bold" lengthAdjust="spacing" textLength="123" x="109" y="728.5332">[for each jobOpening]</text><polygon fill="#181818" points="82.5,781.1406,72.5,785.1406,82.5,789.1406,78.5,785.1406" style="stroke:#181818;stroke-width:1.0;"/><line style="stroke:#181818;stroke-width:1.0;stroke-dasharray:2.0,2.0;" x1="76.5" x2="339.5" y1="785.1406" y2="785.1406"/><text fill="#000000" font-family="sans-serif" font-size="13" lengthAdjust="spacing" textLength="119" x="88.5" y="749.7773">shows job opening</text><text fill="#000000" font-family="sans-serif" font-size="13" lengthAdjust="spacing" textLength="219" x="88.5" y="765.0879">(job reference, function, start date,</text><text fill="#000000" font-family="sans-serif" font-size="13" lengthAdjust="spacing" textLength="150" x="88.5" y="780.3984">number of applications)</text><line style="stroke:#000000;stroke-width:1.0;stroke-dasharray:2.0,2.0;" x1="10" x2="1300" y1="801.1406" y2="801.1406"/><polygon fill="#181818" points="595.5,819.4512,585.5,823.4512,595.5,827.4512,591.5,823.4512" style="stroke:#181818;stroke-width:1.0;"/><line style="stroke:#181818;stroke-width:1.0;stroke-dasharray:2.0,2.0;" x1="589.5" x2="867.5" y1="823.4512" y2="823.4512"/><text fill="#000000" font-family="sans-serif" font-size="13" lengthAdjust="spacing" textLength="74" x="601.5" y="818.709">error listing</text><polygon fill="#181818" points="361.5,848.7617,351.5,852.7617,361.5,856.7617,357.5,852.7617" style="stroke:#181818;stroke-width:1.0;"/><line style="stroke:#181818;stroke-width:1.0;stroke-dasharray:2.0,2.0;" x1="355.5" x2="578.5" y1="852.7617" y2="852.7617"/><text fill="#000000" font-family="sans-serif" font-size="13" lengthAdjust="spacing" textLength="74" x="367.5" y="848.0195">error listing</text><polygon fill="#181818" points="82.5,878.0723,72.5,882.0723,82.5,886.0723,78.5,882.0723" style="stroke:#181818;stroke-width:1.0;"/><line style="stroke:#181818;stroke-width:1.0;stroke-dasharray:2.0,2.0;" x1="76.5" x2="339.5" y1="882.0723" y2="882.0723"/><text fill="#000000" font-family="sans-serif" font-size="13" lengthAdjust="spacing" textLength="245" x="88.5" y="877.3301">shows Error while listing job openings!</text><!--SRC=[hLNVRzem47xFNt635wZer6vl4KBgw8zHiJ8fHNlO9kI40xmPEx8TslttEpi9SO2kshGNvCJtVVVTTtV1SYiGfjpOUvNESfHShk6QixLcM-YD2sFL5lLLdlSNy-JznSMxA6APLHhgAs06oZTTfPbSOvIgP-W4o0vqftoziNSQKKOvqvPdF6VIGYTES8TwFkaubeB3S9XhD2Wjirp9qIX2kGJYYppfM6c4hd1SgIZmW6gijeNacKUEbRHQ2O7QCsTgIzGipqLrJyn7u0QTeDxn33tKb6U2LwSZw2DLRGGZ1pp0xXyFuZwXeShMbQHj_TIKs0g_9VNgQPuxBHN4-EFUPjy8lcCMI_-hlfoFd94n0NwI60M2MWiRRk27Ia6L3JRmJVRSiyOLQfGP3c1LoCmLFm1ZIGWiYNX0SRBOffHLhI3mp_IRv0MFA26b9PVFpcB8DDBhNX115qr8x1LT2T7Ccw5Wro8Ag4m-pLDT7iIU8hnLEianuokUrOD8H7Kl2TjqAGQgNosnTpa0roAsnZ4zlfrEaiV5_Up3OlRvvc7oS9SCG1P2bB-1gA3VpH7EGtsG_hBuzRllET57Ipo53jJjXoCc4hciPFKgV92ycQBzgNO6IqOijJI1fzDep93liCxK3pMUn8O6Bj4Pw5phqVRcD1xuTmO5lhzWJiI4RRKd-JZxqchFdyLTCyik_r5TrJrQ2FPQw-eHTz_JOJEF8xTyzMoMu-lNz9N0I2YLmuhqKDPDSEMtYHZynjECRDHJQx__mthJs4KH2eF7nQ7M9CajdPCIEDBQpwh05uFhZy9X6JSUyBJXzBTKmLgVhZUbjDy0]--></g></svg>