<?xml version="1.0" encoding="us-ascii" standalone="no"?><svg xmlns="http://www.w3.org/2000/svg" xmlns:xlink="http://www.w3.org/1999/xlink" contentStyleType="text/css" height="1369px" preserveAspectRatio="none" style="width:2321px;height:1369px;background:#FFFFFF;" version="1.1" viewBox="0 0 2321 1369" width="2321px" zoomAndPan="magnify"><defs/><g><text fill="#000000" font-family="sans-serif" font-size="30" font-weight="bold" lengthAdjust="spacing" textLength="483" x="912" y="39.0039">Class Diagram - Server - 3002</text><!--cluster FollowUpServer--><g id="cluster_FollowUpServer"><rect fill="none" height="468" rx="2.5" ry="2.5" style="stroke:#181818;stroke-width:1.0;" width="640" x="7" y="350.332"/><text fill="#000000" font-family="sans-serif" font-size="14" font-weight="bold" lengthAdjust="spacing" textLength="111" x="271.5" y="365.8672">FollowUpServer</text></g><!--cluster CustomerAppSide--><g id="cluster_CustomerAppSide"><rect fill="none" height="486.5" rx="2.5" ry="2.5" style="stroke:#181818;stroke-width:1.0;" width="575" x="1709" y="63.332"/><text fill="#000000" font-family="sans-serif" font-size="14" font-weight="bold" lengthAdjust="spacing" textLength="128" x="1932.5" y="78.8672">CustomerAppSide</text></g><!--cluster DataBase--><g id="cluster_DataBase"><rect fill="none" height="108" rx="2.5" ry="2.5" style="stroke:#181818;stroke-width:1.0;" width="558" x="387" y="1126.332"/><text fill="#000000" font-family="sans-serif" font-size="14" font-weight="bold" lengthAdjust="spacing" textLength="66" x="633" y="1141.8672">DataBase</text></g><!--cluster Core--><g id="cluster_Core"><rect fill="none" height="675" rx="2.5" ry="2.5" style="stroke:#181818;stroke-width:1.0;" width="1346" x="969" y="601.332"/><text fill="#000000" font-family="sans-serif" font-size="14" font-weight="bold" lengthAdjust="spacing" textLength="33" x="1625.5" y="616.8672">Core</text></g><!--class RcompServer--><g id="elem_RcompServer"><rect codeLine="23" fill="#ADD8E6" height="108.4414" id="RcompServer" rx="2.5" ry="2.5" style="stroke:#000000;stroke-width:0.5;" width="205" x="23.5" y="426.832"/><text fill="#000000" font-family="sans-serif" font-size="14" lengthAdjust="spacing" textLength="90" x="81" y="445.3672">RcompServer</text><line style="stroke:#000000;stroke-width:0.5;" x1="24.5" x2="227.5" y1="453.3203" y2="453.3203"/><rect fill="none" height="6" style="stroke:#C82930;stroke-width:1.0;" width="6" x="31.5" y="464.0645"/><text fill="#000000" font-family="sans-serif" font-size="14" lengthAdjust="spacing" textLength="63" x="43.5" y="470.8555">PORT: int</text><line style="stroke:#000000;stroke-width:0.5;" x1="24.5" x2="227.5" y1="477.8086" y2="477.8086"/><ellipse cx="34.5" cy="491.5527" fill="#84BE84" rx="3" ry="3" style="stroke:#038048;stroke-width:1.0;"/><text fill="#000000" font-family="sans-serif" font-size="14" lengthAdjust="spacing" textLength="170" x="43.5" y="495.3438">main(args: String[]): void</text><ellipse cx="34.5" cy="508.041" fill="#84BE84" rx="3" ry="3" style="stroke:#038048;stroke-width:1.0;"/><text fill="#000000" font-family="sans-serif" font-size="14" lengthAdjust="spacing" textLength="69" x="43.5" y="511.832">init(): void</text><ellipse cx="34.5" cy="524.5293" fill="#84BE84" rx="3" ry="3" style="stroke:#038048;stroke-width:1.0;"/><text fill="#000000" font-family="sans-serif" font-size="14" lengthAdjust="spacing" textLength="179" x="43.5" y="528.3203">stop(thread: Thread): void</text></g><!--class SimpleHandler--><g id="elem_SimpleHandler"><rect codeLine="30" fill="#ADD8E6" height="190.8828" id="SimpleHandler" rx="2.5" ry="2.5" style="stroke:#000000;stroke-width:0.5;" width="367" x="263.5" y="385.332"/><text fill="#000000" font-family="sans-serif" font-size="14" lengthAdjust="spacing" textLength="100" x="397" y="403.8672">SimpleHandler</text><line style="stroke:#000000;stroke-width:0.5;" x1="264.5" x2="629.5" y1="411.8203" y2="411.8203"/><rect fill="none" height="6" style="stroke:#C82930;stroke-width:1.0;" width="6" x="271.5" y="422.5645"/><text fill="#000000" font-family="sans-serif" font-size="14" lengthAdjust="spacing" textLength="190" x="283.5" y="429.3555">authz: AuthorizationService</text><rect fill="none" height="6" style="stroke:#C82930;stroke-width:1.0;" width="6" x="271.5" y="439.0527"/><text fill="#000000" font-family="sans-serif" font-size="14" lengthAdjust="spacing" textLength="291" x="283.5" y="445.8438">candidateRepository: CandidateRepository</text><rect fill="none" height="6" style="stroke:#C82930;stroke-width:1.0;" width="6" x="271.5" y="455.541"/><text fill="#000000" font-family="sans-serif" font-size="14" lengthAdjust="spacing" textLength="285" x="283.5" y="462.332">customerRepository: CustomerRepository</text><line style="stroke:#000000;stroke-width:0.5;" x1="264.5" x2="629.5" y1="469.2852" y2="469.2852"/><ellipse cx="274.5" cy="483.0293" fill="#84BE84" rx="3" ry="3" style="stroke:#038048;stroke-width:1.0;"/><text fill="#000000" font-family="sans-serif" font-size="14" lengthAdjust="spacing" textLength="207" x="283.5" y="486.8203">SimpleHandler(socket: Socket)</text><ellipse cx="274.5" cy="499.5176" fill="#84BE84" rx="3" ry="3" style="stroke:#038048;stroke-width:1.0;"/><text fill="#000000" font-family="sans-serif" font-size="14" lengthAdjust="spacing" textLength="94" x="283.5" y="503.3086">handle(): void</text><ellipse cx="274.5" cy="516.0059" fill="#84BE84" rx="3" ry="3" style="stroke:#038048;stroke-width:1.0;"/><text fill="#000000" font-family="sans-serif" font-size="14" lengthAdjust="spacing" textLength="266" x="283.5" y="519.7969">authenticate(message: byte[]): boolean</text><ellipse cx="274.5" cy="532.4941" fill="#84BE84" rx="3" ry="3" style="stroke:#038048;stroke-width:1.0;"/><text fill="#000000" font-family="sans-serif" font-size="14" lengthAdjust="spacing" textLength="109" x="283.5" y="536.2852">sendACK(): void</text><ellipse cx="274.5" cy="548.9824" fill="#84BE84" rx="3" ry="3" style="stroke:#038048;stroke-width:1.0;"/><text fill="#000000" font-family="sans-serif" font-size="14" lengthAdjust="spacing" textLength="106" x="283.5" y="552.7734">sendERR(): void</text><ellipse cx="274.5" cy="565.4707" fill="#84BE84" rx="3" ry="3" style="stroke:#038048;stroke-width:1.0;"/><text fill="#000000" font-family="sans-serif" font-size="14" lengthAdjust="spacing" textLength="341" x="283.5" y="569.2617">sendSHOW_JOB_OPENINGS(list: List&lt;String&gt;): void</text></g><!--class Handler--><g id="elem_Handler"><rect codeLine="42" fill="#ADD8E6" height="141.418" id="Handler" rx="2.5" ry="2.5" style="stroke:#000000;stroke-width:0.5;" width="206" x="268" y="661.332"/><text fill="#000000" font-family="sans-serif" font-size="14" lengthAdjust="spacing" textLength="54" x="344" y="679.8672">Handler</text><line style="stroke:#000000;stroke-width:0.5;" x1="269" x2="473" y1="687.8203" y2="687.8203"/><rect fill="none" height="6" style="stroke:#C82930;stroke-width:1.0;" width="6" x="276" y="698.5645"/><text fill="#000000" font-family="sans-serif" font-size="14" lengthAdjust="spacing" textLength="140" x="288" y="705.3555">serverSocket: Socket</text><rect fill="none" height="6" style="stroke:#C82930;stroke-width:1.0;" width="6" x="276" y="715.0527"/><text fill="#000000" font-family="sans-serif" font-size="14" lengthAdjust="spacing" textLength="156" x="288" y="721.8438">sIn: ObjectInputStream</text><rect fill="none" height="6" style="stroke:#C82930;stroke-width:1.0;" width="6" x="276" y="731.541"/><text fill="#000000" font-family="sans-serif" font-size="14" lengthAdjust="spacing" textLength="180" x="288" y="738.332">sOut: ObjectOutputStream</text><line style="stroke:#000000;stroke-width:0.5;" x1="269" x2="473" y1="745.2852" y2="745.2852"/><ellipse cx="279" cy="759.0293" fill="#84BE84" rx="3" ry="3" style="stroke:#038048;stroke-width:1.0;"/><text fill="#000000" font-family="sans-serif" font-size="14" lengthAdjust="spacing" textLength="161" x="288" y="762.8203">Handler(socket: Socket)</text><ellipse cx="279" cy="775.5176" fill="#84BE84" rx="3" ry="3" style="stroke:#038048;stroke-width:1.0;"/><text fill="#000000" font-family="sans-serif" font-size="14" lengthAdjust="spacing" textLength="94" x="288" y="779.3086">handle(): void</text><ellipse cx="279" cy="792.0059" fill="#84BE84" rx="3" ry="3" style="stroke:#038048;stroke-width:1.0;"/><text fill="#000000" font-family="sans-serif" font-size="14" lengthAdjust="spacing" textLength="71" x="288" y="795.7969">run(): void</text></g><!--class Server--><g id="elem_Server"><rect codeLine="51" fill="#ADD8E6" height="141.418" id="Server" rx="2.5" ry="2.5" style="stroke:#000000;stroke-width:0.5;" width="209" x="23.5" y="661.332"/><text fill="#000000" font-family="sans-serif" font-size="14" lengthAdjust="spacing" textLength="43" x="106.5" y="679.8672">Server</text><line style="stroke:#000000;stroke-width:0.5;" x1="24.5" x2="231.5" y1="687.8203" y2="687.8203"/><rect fill="none" height="6" style="stroke:#C82930;stroke-width:1.0;" width="6" x="31.5" y="698.5645"/><text fill="#000000" font-family="sans-serif" font-size="14" lengthAdjust="spacing" textLength="183" x="43.5" y="705.3555">serverSocket: ServerSocket</text><rect fill="none" height="6" style="stroke:#C82930;stroke-width:1.0;" width="6" x="31.5" y="715.0527"/><text fill="#000000" font-family="sans-serif" font-size="14" lengthAdjust="spacing" textLength="132" x="43.5" y="721.8438">executing: boolean</text><line style="stroke:#000000;stroke-width:0.5;" x1="24.5" x2="231.5" y1="728.7969" y2="728.7969"/><ellipse cx="34.5" cy="742.541" fill="#84BE84" rx="3" ry="3" style="stroke:#038048;stroke-width:1.0;"/><text fill="#000000" font-family="sans-serif" font-size="14" lengthAdjust="spacing" textLength="108" x="43.5" y="746.332">Server(port: int)</text><ellipse cx="34.5" cy="759.0293" fill="#84BE84" rx="3" ry="3" style="stroke:#038048;stroke-width:1.0;"/><text fill="#000000" font-family="sans-serif" font-size="14" lengthAdjust="spacing" textLength="101" x="43.5" y="762.8203">execute(): void</text><ellipse cx="34.5" cy="775.5176" fill="#84BE84" rx="3" ry="3" style="stroke:#038048;stroke-width:1.0;"/><text fill="#000000" font-family="sans-serif" font-size="14" lengthAdjust="spacing" textLength="77" x="43.5" y="779.3086">stop(): void</text><ellipse cx="34.5" cy="792.0059" fill="#84BE84" rx="3" ry="3" style="stroke:#038048;stroke-width:1.0;"/><text fill="#000000" font-family="sans-serif" font-size="14" lengthAdjust="spacing" textLength="71" x="43.5" y="795.7969">run(): void</text></g><!--class MainMenu--><g id="elem_MainMenu"><rect codeLine="65" fill="#ADD8E6" height="108.4414" id="MainMenu" rx="2.5" ry="2.5" style="stroke:#000000;stroke-width:0.5;" width="216" x="1725" y="98.332"/><text fill="#000000" font-family="sans-serif" font-size="14" lengthAdjust="spacing" textLength="71" x="1797.5" y="116.8672">MainMenu</text><line style="stroke:#000000;stroke-width:0.5;" x1="1726" x2="1940" y1="124.8203" y2="124.8203"/><rect fill="none" height="6" style="stroke:#C82930;stroke-width:1.0;" width="6" x="1733" y="135.5645"/><text fill="#000000" font-family="sans-serif" font-size="14" lengthAdjust="spacing" textLength="190" x="1745" y="142.3555">authz: AuthorizationService</text><line style="stroke:#000000;stroke-width:0.5;" x1="1726" x2="1940" y1="149.3086" y2="149.3086"/><ellipse cx="1736" cy="163.0527" fill="#84BE84" rx="3" ry="3" style="stroke:#038048;stroke-width:1.0;"/><text fill="#000000" font-family="sans-serif" font-size="14" lengthAdjust="spacing" textLength="110" x="1745" y="166.8438">show(): boolean</text><ellipse cx="1736" cy="179.541" fill="#84BE84" rx="3" ry="3" style="stroke:#038048;stroke-width:1.0;"/><text fill="#000000" font-family="sans-serif" font-size="14" lengthAdjust="spacing" textLength="129" x="1745" y="183.332">doShow(): boolean</text><rect fill="#F24D5C" height="6" style="stroke:#C82930;stroke-width:1.0;" width="6" x="1733" y="193.0293"/><text fill="#000000" font-family="sans-serif" font-size="14" lengthAdjust="spacing" textLength="162" x="1745" y="199.8203">buildMainMenu(): Menu</text></g><!--class CustomerApp--><g id="elem_CustomerApp"><rect codeLine="72" fill="#ADD8E6" height="75.4648" id="CustomerApp" rx="2.5" ry="2.5" style="stroke:#000000;stroke-width:0.5;" width="292" x="1976" y="114.832"/><text fill="#000000" font-family="sans-serif" font-size="14" lengthAdjust="spacing" textLength="95" x="2074.5" y="133.3672">CustomerApp</text><line style="stroke:#000000;stroke-width:0.5;" x1="1977" x2="2267" y1="141.3203" y2="141.3203"/><rect fill="none" height="6" style="stroke:#C82930;stroke-width:1.0;" width="6" x="1984" y="152.0645"/><text fill="#000000" font-family="sans-serif" font-size="14" lengthAdjust="spacing" textLength="266" x="1996" y="158.8555">theController: ComunicationController</text><line style="stroke:#000000;stroke-width:0.5;" x1="1977" x2="2267" y1="165.8086" y2="165.8086"/><ellipse cx="1987" cy="179.5527" fill="#84BE84" rx="3" ry="3" style="stroke:#038048;stroke-width:1.0;"/><text fill="#000000" font-family="sans-serif" font-size="14" lengthAdjust="spacing" textLength="170" x="1996" y="183.3438">main(args: String[]): void</text></g><!--class ServerAction--><g id="elem_ServerAction"><rect codeLine="77" fill="#ADD8E6" height="58.9766" id="ServerAction" rx="2.5" ry="2.5" style="stroke:#000000;stroke-width:0.5;" width="154" x="1793" y="266.332"/><text fill="#000000" font-family="sans-serif" font-size="14" lengthAdjust="spacing" textLength="87" x="1826.5" y="284.8672">ServerAction</text><line style="stroke:#000000;stroke-width:0.5;" x1="1794" x2="1946" y1="292.8203" y2="292.8203"/><line style="stroke:#000000;stroke-width:0.5;" x1="1794" x2="1946" y1="300.8203" y2="300.8203"/><ellipse cx="1804" cy="314.5645" fill="#84BE84" rx="3" ry="3" style="stroke:#038048;stroke-width:1.0;"/><text fill="#000000" font-family="sans-serif" font-size="14" lengthAdjust="spacing" textLength="128" x="1813" y="318.3555">execute(): boolean</text></g><!--class ServerUI--><g id="elem_ServerUI"><rect codeLine="81" fill="#ADD8E6" height="106.0859" id="ServerUI" rx="2.5" ry="2.5" style="stroke:#000000;stroke-width:0.5;" width="363" x="1725.5" y="427.832"/><text fill="#000000" font-family="sans-serif" font-size="12" font-style="italic" lengthAdjust="spacing" textLength="84" x="1865" y="444.4336">&#171;presentation&#187;</text><text fill="#000000" font-family="sans-serif" font-size="14" lengthAdjust="spacing" textLength="57" x="1878.5" y="460.5">ServerUI</text><line style="stroke:#000000;stroke-width:0.5;" x1="1726.5" x2="2087.5" y1="468.4531" y2="468.4531"/><rect fill="none" height="6" style="stroke:#C82930;stroke-width:1.0;" width="6" x="1733.5" y="479.1973"/><text fill="#000000" font-family="sans-serif" font-size="14" lengthAdjust="spacing" textLength="337" x="1745.5" y="485.9883">comunicationController: ComunicationController</text><line style="stroke:#000000;stroke-width:0.5;" x1="1726.5" x2="2087.5" y1="492.9414" y2="492.9414"/><ellipse cx="1736.5" cy="506.6855" fill="#84BE84" rx="3" ry="3" style="stroke:#038048;stroke-width:1.0;"/><text fill="#000000" font-family="sans-serif" font-size="14" lengthAdjust="spacing" textLength="129" x="1745.5" y="510.4766">doShow(): boolean</text><ellipse cx="1736.5" cy="523.1738" fill="#84BE84" rx="3" ry="3" style="stroke:#038048;stroke-width:1.0;"/><text fill="#000000" font-family="sans-serif" font-size="14" lengthAdjust="spacing" textLength="118" x="1745.5" y="526.9648">headline(): String</text></g><!--class JobOpeningRepository--><g id="elem_JobOpeningRepository"><rect codeLine="91" fill="#ADD8E6" height="56.6211" id="JobOpeningRepository" rx="2.5" ry="2.5" style="stroke:#000000;stroke-width:0.5;" width="160" x="769" y="1161.332"/><text fill="#000000" font-family="sans-serif" font-size="12" font-style="italic" lengthAdjust="spacing" textLength="70" x="814" y="1177.9336">&#171;repository&#187;</text><text fill="#000000" font-family="sans-serif" font-size="14" lengthAdjust="spacing" textLength="154" x="772" y="1194">JobOpeningRepository</text><line style="stroke:#000000;stroke-width:0.5;" x1="770" x2="928" y1="1201.9531" y2="1201.9531"/><line style="stroke:#000000;stroke-width:0.5;" x1="770" x2="928" y1="1209.9531" y2="1209.9531"/></g><!--class CandidateRepository--><g id="elem_CandidateRepository"><rect codeLine="92" fill="#ADD8E6" height="56.6211" id="CandidateRepository" rx="2.5" ry="2.5" style="stroke:#000000;stroke-width:0.5;" width="149" x="403.5" y="1161.332"/><text fill="#000000" font-family="sans-serif" font-size="12" font-style="italic" lengthAdjust="spacing" textLength="70" x="443" y="1177.9336">&#171;repository&#187;</text><text fill="#000000" font-family="sans-serif" font-size="14" lengthAdjust="spacing" textLength="143" x="406.5" y="1194">CandidateRepository</text><line style="stroke:#000000;stroke-width:0.5;" x1="404.5" x2="551.5" y1="1201.9531" y2="1201.9531"/><line style="stroke:#000000;stroke-width:0.5;" x1="404.5" x2="551.5" y1="1209.9531" y2="1209.9531"/></g><!--class CustomerRepository--><g id="elem_CustomerRepository"><rect codeLine="93" fill="#ADD8E6" height="56.6211" id="CustomerRepository" rx="2.5" ry="2.5" style="stroke:#000000;stroke-width:0.5;" width="146" x="588" y="1161.332"/><text fill="#000000" font-family="sans-serif" font-size="12" font-style="italic" lengthAdjust="spacing" textLength="70" x="626" y="1177.9336">&#171;repository&#187;</text><text fill="#000000" font-family="sans-serif" font-size="14" lengthAdjust="spacing" textLength="140" x="591" y="1194">CustomerRepository</text><line style="stroke:#000000;stroke-width:0.5;" x1="589" x2="733" y1="1201.9531" y2="1201.9531"/><line style="stroke:#000000;stroke-width:0.5;" x1="589" x2="733" y1="1209.9531" y2="1209.9531"/></g><!--class ComunicationController--><g id="elem_ComunicationController"><rect codeLine="100" fill="#ADD8E6" height="155.5508" id="ComunicationController" rx="2.5" ry="2.5" style="stroke:#000000;stroke-width:0.5;" width="374" x="1925" y="653.832"/><text fill="#000000" font-family="sans-serif" font-size="12" font-style="italic" lengthAdjust="spacing" textLength="75" x="2074.5" y="670.4336">&#171;application&#187;</text><text fill="#000000" font-family="sans-serif" font-size="14" lengthAdjust="spacing" textLength="166" x="2029" y="686.5">ComunicationController</text><line style="stroke:#000000;stroke-width:0.5;" x1="1926" x2="2298" y1="694.4531" y2="694.4531"/><rect fill="none" height="6" style="stroke:#C82930;stroke-width:1.0;" width="6" x="1933" y="705.1973"/><text fill="#000000" font-family="sans-serif" font-size="14" lengthAdjust="spacing" textLength="212" x="1945" y="711.9883">service: CommunicationService</text><line style="stroke:#000000;stroke-width:0.5;" x1="1926" x2="2298" y1="718.9414" y2="718.9414"/><ellipse cx="1936" cy="732.6855" fill="#84BE84" rx="3" ry="3" style="stroke:#038048;stroke-width:1.0;"/><text fill="#000000" font-family="sans-serif" font-size="14" lengthAdjust="spacing" textLength="298" x="1945" y="736.4766">initializeComunication(socket: Socket): void</text><ellipse cx="1936" cy="749.1738" fill="#84BE84" rx="3" ry="3" style="stroke:#038048;stroke-width:1.0;"/><text fill="#000000" font-family="sans-serif" font-size="14" lengthAdjust="spacing" textLength="140" x="1945" y="752.9648">testConnection(): int</text><ellipse cx="1936" cy="765.6621" fill="#84BE84" rx="3" ry="3" style="stroke:#038048;stroke-width:1.0;"/><text fill="#000000" font-family="sans-serif" font-size="14" lengthAdjust="spacing" textLength="348" x="1945" y="769.4531">login(userEmail: String, password: String): boolean</text><ellipse cx="1936" cy="782.1504" fill="#84BE84" rx="3" ry="3" style="stroke:#038048;stroke-width:1.0;"/><text fill="#000000" font-family="sans-serif" font-size="14" lengthAdjust="spacing" textLength="110" x="1945" y="785.9414">disconnect(): int</text><ellipse cx="1936" cy="798.6387" fill="#84BE84" rx="3" ry="3" style="stroke:#038048;stroke-width:1.0;"/><text fill="#000000" font-family="sans-serif" font-size="14" lengthAdjust="spacing" textLength="230" x="1945" y="802.4297">listAllJobOpenings(): List&lt;String&gt;</text></g><!--class MessageCode--><g id="elem_MessageCode"><rect codeLine="109" fill="#ADD8E6" height="91.9531" id="MessageCode" rx="2.5" ry="2.5" style="stroke:#000000;stroke-width:0.5;" width="140" x="1595" y="927.332"/><text fill="#000000" font-family="sans-serif" font-size="14" lengthAdjust="spacing" textLength="95" x="1617.5" y="945.8672">MessageCode</text><line style="stroke:#000000;stroke-width:0.5;" x1="1596" x2="1734" y1="953.8203" y2="953.8203"/><rect fill="none" height="6" style="stroke:#C82930;stroke-width:1.0;" width="6" x="1603" y="964.5645"/><text fill="#000000" font-family="sans-serif" font-size="14" lengthAdjust="spacing" textLength="59" x="1615" y="971.3555">code: int</text><line style="stroke:#000000;stroke-width:0.5;" x1="1596" x2="1734" y1="978.3086" y2="978.3086"/><ellipse cx="1606" cy="992.0527" fill="#84BE84" rx="3" ry="3" style="stroke:#038048;stroke-width:1.0;"/><text fill="#000000" font-family="sans-serif" font-size="14" lengthAdjust="spacing" textLength="94" x="1615" y="995.8438">getCode(): int</text><ellipse cx="1606" cy="1008.541" fill="#84BE84" rx="3" ry="3" style="stroke:#038048;stroke-width:1.0;"/><text fill="#000000" font-family="sans-serif" font-size="14" lengthAdjust="spacing" textLength="114" x="1615" y="1012.332">toString(): String</text></g><!--class Translator--><g id="elem_Translator"><rect codeLine="114" fill="#ADD8E6" height="190.8828" id="Translator" rx="2.5" ry="2.5" style="stroke:#000000;stroke-width:0.5;" width="541" x="1348.5" y="636.332"/><text fill="#000000" font-family="sans-serif" font-size="14" lengthAdjust="spacing" textLength="71" x="1583.5" y="654.8672">Translator</text><line style="stroke:#000000;stroke-width:0.5;" x1="1349.5" x2="1888.5" y1="662.8203" y2="662.8203"/><line style="stroke:#000000;stroke-width:0.5;" x1="1349.5" x2="1888.5" y1="670.8203" y2="670.8203"/><ellipse cx="1359.5" cy="684.5645" fill="#84BE84" rx="3" ry="3" style="stroke:#038048;stroke-width:1.0;"/><text fill="#000000" font-family="sans-serif" font-size="14" lengthAdjust="spacing" textLength="515" x="1368.5" y="688.3555">encode(version: int, code: MessageCode, data1: byte[], data2: byte[]): byte[]</text><ellipse cx="1359.5" cy="701.0527" fill="#84BE84" rx="3" ry="3" style="stroke:#038048;stroke-width:1.0;"/><text fill="#000000" font-family="sans-serif" font-size="14" lengthAdjust="spacing" textLength="303" x="1368.5" y="704.8438">decodeVersion(encodedMessage: byte[]): int</text><ellipse cx="1359.5" cy="717.541" fill="#84BE84" rx="3" ry="3" style="stroke:#038048;stroke-width:1.0;"/><text fill="#000000" font-family="sans-serif" font-size="14" lengthAdjust="spacing" textLength="287" x="1368.5" y="721.332">decodeCode(encodedMessage: byte[]): int</text><ellipse cx="1359.5" cy="734.0293" fill="#84BE84" rx="3" ry="3" style="stroke:#038048;stroke-width:1.0;"/><text fill="#000000" font-family="sans-serif" font-size="14" lengthAdjust="spacing" textLength="315" x="1368.5" y="737.8203">decodeData1Len(encodedMessage: byte[]): int</text><ellipse cx="1359.5" cy="750.5176" fill="#84BE84" rx="3" ry="3" style="stroke:#038048;stroke-width:1.0;"/><text fill="#000000" font-family="sans-serif" font-size="14" lengthAdjust="spacing" textLength="312" x="1368.5" y="754.3086">decodeData1(encodedMessage: byte[]): byte[]</text><ellipse cx="1359.5" cy="767.0059" fill="#84BE84" rx="3" ry="3" style="stroke:#038048;stroke-width:1.0;"/><text fill="#000000" font-family="sans-serif" font-size="14" lengthAdjust="spacing" textLength="315" x="1368.5" y="770.7969">decodeData2Len(encodedMessage: byte[]): int</text><ellipse cx="1359.5" cy="783.4941" fill="#84BE84" rx="3" ry="3" style="stroke:#038048;stroke-width:1.0;"/><text fill="#000000" font-family="sans-serif" font-size="14" lengthAdjust="spacing" textLength="312" x="1368.5" y="787.2852">decodeData2(encodedMessage: byte[]): byte[]</text><ellipse cx="1359.5" cy="799.9824" fill="#84BE84" rx="3" ry="3" style="stroke:#038048;stroke-width:1.0;"/><text fill="#000000" font-family="sans-serif" font-size="14" lengthAdjust="spacing" textLength="339" x="1368.5" y="803.7734">serializeListJobOpenings(list: List&lt;String&gt;): byte[]</text><ellipse cx="1359.5" cy="816.4707" fill="#84BE84" rx="3" ry="3" style="stroke:#038048;stroke-width:1.0;"/><text fill="#000000" font-family="sans-serif" font-size="14" lengthAdjust="spacing" textLength="372" x="1368.5" y="820.2617">deserializeListJobOpenings(bytes: byte[]): List&lt;String&gt;</text></g><!--class Messenger--><g id="elem_Messenger"><rect codeLine="126" fill="#ADD8E6" height="141.418" id="Messenger" rx="2.5" ry="2.5" style="stroke:#000000;stroke-width:0.5;" width="272" x="1430" y="1119.332"/><text fill="#000000" font-family="sans-serif" font-size="14" lengthAdjust="spacing" textLength="74" x="1529" y="1137.8672">Messenger</text><line style="stroke:#000000;stroke-width:0.5;" x1="1431" x2="1701" y1="1145.8203" y2="1145.8203"/><rect fill="none" height="6" style="stroke:#C82930;stroke-width:1.0;" width="6" x="1438" y="1156.5645"/><text fill="#000000" font-family="sans-serif" font-size="14" lengthAdjust="spacing" textLength="97" x="1450" y="1163.3555">socket: Socket</text><rect fill="none" height="6" style="stroke:#C82930;stroke-width:1.0;" width="6" x="1438" y="1173.0527"/><text fill="#000000" font-family="sans-serif" font-size="14" lengthAdjust="spacing" textLength="171" x="1450" y="1179.8438">out: ObjectOutputStream</text><rect fill="none" height="6" style="stroke:#C82930;stroke-width:1.0;" width="6" x="1438" y="1189.541"/><text fill="#000000" font-family="sans-serif" font-size="14" lengthAdjust="spacing" textLength="149" x="1450" y="1196.332">in: ObjectInputStream</text><line style="stroke:#000000;stroke-width:0.5;" x1="1431" x2="1701" y1="1203.2852" y2="1203.2852"/><ellipse cx="1441" cy="1217.0293" fill="#84BE84" rx="3" ry="3" style="stroke:#038048;stroke-width:1.0;"/><text fill="#000000" font-family="sans-serif" font-size="14" lengthAdjust="spacing" textLength="181" x="1450" y="1220.8203">Messenger(socket: Socket)</text><ellipse cx="1441" cy="1233.5176" fill="#84BE84" rx="3" ry="3" style="stroke:#038048;stroke-width:1.0;"/><text fill="#000000" font-family="sans-serif" font-size="14" lengthAdjust="spacing" textLength="246" x="1450" y="1237.3086">sendMessage(message: byte[]): void</text><ellipse cx="1441" cy="1250.0059" fill="#84BE84" rx="3" ry="3" style="stroke:#038048;stroke-width:1.0;"/><text fill="#000000" font-family="sans-serif" font-size="14" lengthAdjust="spacing" textLength="164" x="1450" y="1253.7969">receiveMessage(): byte[]</text></g><!--class ListJobOpeningController--><g id="elem_ListJobOpeningController"><rect codeLine="135" fill="#ADD8E6" height="106.0859" id="ListJobOpeningController" rx="2.5" ry="2.5" style="stroke:#000000;stroke-width:0.5;" width="328" x="985" y="678.832"/><text fill="#000000" font-family="sans-serif" font-size="12" font-style="italic" lengthAdjust="spacing" textLength="75" x="1111.5" y="695.4336">&#171;application&#187;</text><text fill="#000000" font-family="sans-serif" font-size="14" lengthAdjust="spacing" textLength="174" x="1062" y="711.5">ListJobOpeningController</text><line style="stroke:#000000;stroke-width:0.5;" x1="986" x2="1312" y1="719.4531" y2="719.4531"/><rect fill="none" height="6" style="stroke:#C82930;stroke-width:1.0;" width="6" x="993" y="730.1973"/><text fill="#000000" font-family="sans-serif" font-size="14" lengthAdjust="spacing" textLength="289" x="1005" y="736.9883">jobOpeningService: ListJobOpeningService</text><rect fill="none" height="6" style="stroke:#C82930;stroke-width:1.0;" width="6" x="993" y="746.6855"/><text fill="#000000" font-family="sans-serif" font-size="14" lengthAdjust="spacing" textLength="190" x="1005" y="753.4766">authz: AuthorizationService</text><line style="stroke:#000000;stroke-width:0.5;" x1="986" x2="1312" y1="760.4297" y2="760.4297"/><ellipse cx="996" cy="774.1738" fill="#84BE84" rx="3" ry="3" style="stroke:#038048;stroke-width:1.0;"/><text fill="#000000" font-family="sans-serif" font-size="14" lengthAdjust="spacing" textLength="302" x="1005" y="777.9648">listJobOpeningsForCustomer(): List&lt;String&gt;</text></g><!--class CommunicationService--><g id="elem_CommunicationService"><rect codeLine="141" fill="#ADD8E6" height="172.0391" id="CommunicationService" rx="2.5" ry="2.5" style="stroke:#000000;stroke-width:0.5;" width="392" x="1861" y="887.332"/><text fill="#000000" font-family="sans-serif" font-size="12" font-style="italic" lengthAdjust="spacing" textLength="52" x="2031" y="903.9336">&#171;service&#187;</text><text fill="#000000" font-family="sans-serif" font-size="14" lengthAdjust="spacing" textLength="157" x="1978.5" y="920">CommunicationService</text><line style="stroke:#000000;stroke-width:0.5;" x1="1862" x2="2252" y1="927.9531" y2="927.9531"/><rect fill="none" height="6" style="stroke:#C82930;stroke-width:1.0;" width="6" x="1869" y="938.6973"/><text fill="#000000" font-family="sans-serif" font-size="14" lengthAdjust="spacing" textLength="198" x="1881" y="945.4883">serverMessenger: Messenger</text><line style="stroke:#000000;stroke-width:0.5;" x1="1862" x2="2252" y1="952.4414" y2="952.4414"/><ellipse cx="1872" cy="966.1855" fill="#84BE84" rx="3" ry="3" style="stroke:#038048;stroke-width:1.0;"/><text fill="#000000" font-family="sans-serif" font-size="14" lengthAdjust="spacing" textLength="254" x="1881" y="969.9766">getInstance(): CommunicationService</text><ellipse cx="1872" cy="982.6738" fill="#84BE84" rx="3" ry="3" style="stroke:#038048;stroke-width:1.0;"/><text fill="#000000" font-family="sans-serif" font-size="14" lengthAdjust="spacing" textLength="298" x="1881" y="986.4648">initializeComunication(socket: Socket): void</text><ellipse cx="1872" cy="999.1621" fill="#84BE84" rx="3" ry="3" style="stroke:#038048;stroke-width:1.0;"/><text fill="#000000" font-family="sans-serif" font-size="14" lengthAdjust="spacing" textLength="140" x="1881" y="1002.9531">testConnection(): int</text><ellipse cx="1872" cy="1015.6504" fill="#84BE84" rx="3" ry="3" style="stroke:#038048;stroke-width:1.0;"/><text fill="#000000" font-family="sans-serif" font-size="14" lengthAdjust="spacing" textLength="348" x="1881" y="1019.4414">login(userEmail: String, password: String): boolean</text><ellipse cx="1872" cy="1032.1387" fill="#84BE84" rx="3" ry="3" style="stroke:#038048;stroke-width:1.0;"/><text fill="#000000" font-family="sans-serif" font-size="14" lengthAdjust="spacing" textLength="110" x="1881" y="1035.9297">disconnect(): int</text><ellipse cx="1872" cy="1048.627" fill="#84BE84" rx="3" ry="3" style="stroke:#038048;stroke-width:1.0;"/><text fill="#000000" font-family="sans-serif" font-size="14" lengthAdjust="spacing" textLength="366" x="1881" y="1052.418">listAllJobOpeningsForSpecificCustomer(): List&lt;String}</text></g><!--class ListJobOpeningService--><g id="elem_ListJobOpeningService"><rect codeLine="152" fill="#ADD8E6" height="89.5977" id="ListJobOpeningService" rx="2.5" ry="2.5" style="stroke:#000000;stroke-width:0.5;" width="410" x="985" y="928.332"/><text fill="#000000" font-family="sans-serif" font-size="12" font-style="italic" lengthAdjust="spacing" textLength="52" x="1164" y="944.9336">&#171;service&#187;</text><text fill="#000000" font-family="sans-serif" font-size="14" lengthAdjust="spacing" textLength="152" x="1114" y="961">ListJobOpeningService</text><line style="stroke:#000000;stroke-width:0.5;" x1="986" x2="1394" y1="968.9531" y2="968.9531"/><rect fill="none" height="6" style="stroke:#C82930;stroke-width:1.0;" width="6" x="993" y="979.6973"/><text fill="#000000" font-family="sans-serif" font-size="14" lengthAdjust="spacing" textLength="316" x="1005" y="986.4883">jobOpeningRepository: JobOpeningRepository</text><line style="stroke:#000000;stroke-width:0.5;" x1="986" x2="1394" y1="993.4414" y2="993.4414"/><ellipse cx="996" cy="1007.1855" fill="#84BE84" rx="3" ry="3" style="stroke:#038048;stroke-width:1.0;"/><text fill="#000000" font-family="sans-serif" font-size="14" lengthAdjust="spacing" textLength="384" x="1005" y="1010.9766">listJobOpeningsForCustomer(email: Email): List&lt;String&gt;</text></g><!--class Socket--><g id="elem_Socket"><rect fill="#ADD8E6" height="42.4883" id="Socket" rx="2.5" ry="2.5" style="stroke:#000000;stroke-width:0.5;" width="51" x="932.5" y="1320.332"/><text fill="#000000" font-family="sans-serif" font-size="14" lengthAdjust="spacing" textLength="45" x="935.5" y="1338.8672">Socket</text><line style="stroke:#000000;stroke-width:0.5;" x1="933.5" x2="982.5" y1="1346.8203" y2="1346.8203"/><line style="stroke:#000000;stroke-width:0.5;" x1="933.5" x2="982.5" y1="1354.8203" y2="1354.8203"/></g><!--class ServerSocket--><g id="elem_ServerSocket"><rect fill="#ADD8E6" height="42.4883" id="ServerSocket" rx="2.5" ry="2.5" style="stroke:#000000;stroke-width:0.5;" width="94" x="81" y="952.332"/><text fill="#000000" font-family="sans-serif" font-size="14" lengthAdjust="spacing" textLength="88" x="84" y="970.8672">ServerSocket</text><line style="stroke:#000000;stroke-width:0.5;" x1="82" x2="174" y1="978.8203" y2="978.8203"/><line style="stroke:#000000;stroke-width:0.5;" x1="82" x2="174" y1="986.8203" y2="986.8203"/></g><!--link MainMenu to ServerAction--><g id="link_MainMenu_ServerAction"><path codeLine="160" d="M1846.99,206.832 C1852.23,226.862 1856.463,243.057 1860.903,260.047 " fill="none" id="MainMenu-to-ServerAction" style="stroke:#000000;stroke-width:1.0;"/><polygon fill="#000000" points="1862.42,265.852,1864.0145,256.1331,1861.1558,261.0145,1856.2744,258.1558,1862.42,265.852" style="stroke:#000000;stroke-width:1.0;"/></g><!--link CustomerApp to ComunicationController--><g id="link_CustomerApp_ComunicationController"><path codeLine="162" d="M2121.37,189.892 C2119.76,282.442 2115.6238,521.5329 2113.4438,647.5729 " fill="none" id="CustomerApp-to-ComunicationController" style="stroke:#000000;stroke-width:1.0;"/><polygon fill="#000000" points="2113.34,653.572,2117.495,644.6426,2113.4265,648.5728,2109.4962,644.5042,2113.34,653.572" style="stroke:#000000;stroke-width:1.0;"/></g><!--link ServerAction to ServerUI--><g id="link_ServerAction_ServerUI"><path codeLine="164" d="M1875.86,325.832 C1881.36,353.042 1888.5313,388.501 1895.2013,421.501 " fill="none" id="ServerAction-to-ServerUI" style="stroke:#000000;stroke-width:1.0;"/><polygon fill="#000000" points="1896.39,427.382,1898.5277,417.768,1895.3994,422.4811,1890.6863,419.3529,1896.39,427.382" style="stroke:#000000;stroke-width:1.0;"/></g><!--link ServerUI to ComunicationController--><g id="link_ServerUI_ComunicationController"><path codeLine="166" d="M1949.97,534.032 C1978.5,568.682 2012.6365,610.1398 2044.6365,649.0098 " fill="none" id="ServerUI-to-ComunicationController" style="stroke:#000000;stroke-width:1.0;"/><polygon fill="#000000" points="2048.45,653.642,2045.8179,644.1514,2045.2721,649.7819,2039.6416,649.2361,2048.45,653.642" style="stroke:#000000;stroke-width:1.0;"/></g><!--link ComunicationController to CommunicationService--><g id="link_ComunicationController_CommunicationService"><path codeLine="168" d="M2094.22,810.262 C2088.6,834.722 2083.7032,856.0443 2077.9632,881.0343 " fill="none" id="ComunicationController-to-CommunicationService" style="stroke:#000000;stroke-width:1.0;"/><polygon fill="#000000" points="2076.62,886.882,2082.5332,879.0059,2077.7393,882.0089,2074.7363,877.215,2076.62,886.882" style="stroke:#000000;stroke-width:1.0;"/></g><!--link ComunicationController to MessageCode--><g id="link_ComunicationController_MessageCode"><path codeLine="169" d="M1967.49,810.262 C1889.69,851.942 1802.5287,898.6484 1740.4887,931.8884 " fill="none" id="ComunicationController-to-MessageCode" style="stroke:#000000;stroke-width:1.0;"/><polygon fill="#000000" points="1735.2,934.722,1745.0222,933.9974,1739.6073,932.3607,1741.244,926.9458,1735.2,934.722" style="stroke:#000000;stroke-width:1.0;"/></g><!--link Translator to MessageCode--><g id="link_Translator_MessageCode"><path codeLine="171" d="M1637.18,827.492 C1643.76,861.742 1649.7573,892.9799 1655.1573,921.0699 " fill="none" id="Translator-to-MessageCode" style="stroke:#000000;stroke-width:1.0;"/><polygon fill="#000000" points="1656.29,926.962,1658.519,917.3687,1655.3461,922.0519,1650.6629,918.879,1656.29,926.962" style="stroke:#000000;stroke-width:1.0;"/></g><!--link Messenger to Socket--><g id="link_Messenger_Socket"><path codeLine="173" d="M1429.55,1224.382 C1282.5,1260.542 1065.2164,1313.9692 989.7864,1332.5192 " fill="none" id="Messenger-to-Socket" style="stroke:#000000;stroke-width:1.0;"/><polygon fill="#000000" points="983.96,1333.952,993.6548,1335.687,988.8153,1332.758,991.7444,1327.9185,983.96,1333.952" style="stroke:#000000;stroke-width:1.0;"/></g><!--link ListJobOpeningController to ListJobOpeningService--><g id="link_ListJobOpeningController_ListJobOpeningService"><path codeLine="175" d="M1157.95,785.092 C1165.27,827.902 1174.5175,881.8781 1181.4375,922.2981 " fill="none" id="ListJobOpeningController-to-ListJobOpeningService" style="stroke:#000000;stroke-width:1.0;"/><polygon fill="#000000" points="1182.45,928.212,1184.8739,918.6661,1181.6063,923.2837,1176.9886,920.0161,1182.45,928.212" style="stroke:#000000;stroke-width:1.0;"/></g><!--link CommunicationService to Messenger--><g id="link_CommunicationService_Messenger"><path codeLine="177" d="M1861.53,1059.722 C1808.18,1083.032 1757.0384,1105.3805 1707.7684,1126.9005 " fill="none" id="CommunicationService-to-Messenger" style="stroke:#000000;stroke-width:1.0;"/><polygon fill="#000000" points="1702.27,1129.302,1712.1187,1129.3653,1706.852,1127.3007,1708.9166,1122.0341,1702.27,1129.302" style="stroke:#000000;stroke-width:1.0;"/></g><!--link ListJobOpeningService to JobOpeningRepository--><g id="link_ListJobOpeningService_JobOpeningRepository"><path codeLine="179" d="M1119.34,1018.772 C1051.26,1061.602 955.4589,1121.8675 898.1289,1157.9275 " fill="none" id="ListJobOpeningService-to-JobOpeningRepository" style="stroke:#000000;stroke-width:1.0;"/><polygon fill="#000000" points="893.05,1161.122,902.798,1159.7161,897.2824,1158.4599,898.5386,1152.9443,893.05,1161.122" style="stroke:#000000;stroke-width:1.0;"/></g><!--link RcompServer to Server--><g id="link_RcompServer_Server"><path codeLine="181" d="M126.43,535.252 C126.72,571.972 127.0718,615.1122 127.3918,654.9422 " fill="none" id="RcompServer-to-Server" style="stroke:#000000;stroke-width:1.0;"/><polygon fill="#000000" points="127.44,660.942,131.3676,651.9102,127.3998,655.9422,123.3678,651.9745,127.44,660.942" style="stroke:#000000;stroke-width:1.0;"/></g><!--link SimpleHandler to CandidateRepository--><g id="link_SimpleHandler_CandidateRepository"><path codeLine="183" d="M488.02,576.592 C489.58,582.192 490.93,587.802 492,593.332 C533.74,808.292 497.8162,1069.1503 483.8162,1154.9503 " fill="none" id="SimpleHandler-to-CandidateRepository" style="stroke:#000000;stroke-width:1.0;"/><polygon fill="#000000" points="482.85,1160.872,488.2472,1152.6337,483.6552,1155.9373,480.3516,1151.3453,482.85,1160.872" style="stroke:#000000;stroke-width:1.0;"/></g><!--link SimpleHandler to CustomerRepository--><g id="link_SimpleHandler_CustomerRepository"><path codeLine="184" d="M518.73,576.752 C521.73,582.242 524.51,587.792 527,593.332 C619.2,798.782 650.1112,1067.4972 658.1412,1154.9172 " fill="none" id="SimpleHandler-to-CustomerRepository" style="stroke:#000000;stroke-width:1.0;"/><polygon fill="#000000" points="658.69,1160.892,661.85,1151.5639,658.2326,1155.913,653.8835,1152.2956,658.69,1160.892" style="stroke:#000000;stroke-width:1.0;"/></g><!--link SimpleHandler to Handler--><g id="link_SimpleHandler_Handler"><path codeLine="185" d="M418.05,576.682 C409.49,604.712 402.0433,629.1439 394.0533,655.2939 " fill="none" id="SimpleHandler-to-Handler" style="stroke:#000000;stroke-width:1.0;"/><polygon fill="#000000" points="392.3,661.032,398.7553,653.5937,393.761,656.2503,391.1045,651.256,392.3,661.032" style="stroke:#000000;stroke-width:1.0;"/></g><!--link SimpleHandler to ListJobOpeningController--><g id="link_SimpleHandler_ListJobOpeningController"><path codeLine="186" d="M630.98,547.092 C746.46,588.052 887.7252,638.1562 995.5852,676.4162 " fill="none" id="SimpleHandler-to-ListJobOpeningController" style="stroke:#000000;stroke-width:1.0;"/><polygon fill="#000000" points="1001.24,678.422,994.0951,671.6434,996.5277,676.7505,991.4206,679.1831,1001.24,678.422" style="stroke:#000000;stroke-width:1.0;"/></g><!--link Handler to Socket--><g id="link_Handler_Socket"><path codeLine="188" d="M347.36,802.422 C312.7,918.852 264.61,1153.222 387,1284.332 C424.68,1324.702 819.5218,1337.0051 926.1018,1339.6151 " fill="none" id="Handler-to-Socket" style="stroke:#000000;stroke-width:1.0;"/><polygon fill="#000000" points="932.1,1339.762,923.2006,1335.5429,927.1015,1339.6396,923.0048,1343.5405,932.1,1339.762" style="stroke:#000000;stroke-width:1.0;"/></g><!--link Server to ServerSocket--><g id="link_Server_ServerSocket"><path codeLine="190" d="M128,802.752 C128,853.692 128,913.292 128,945.962 " fill="none" id="Server-to-ServerSocket" style="stroke:#000000;stroke-width:1.0;"/><polygon fill="#000000" points="128,951.962,132,942.962,128,946.962,124,942.962,128,951.962" style="stroke:#000000;stroke-width:1.0;"/></g><!--SRC=[tLVTRzis47_dNw575Own9DsJ41Xmt7HrbzI5bMmFmr3GqircGfC2IILBYlplEvBwjAXylAv0Afbtl3l-xdTtb666GtIcsHCa7uzd2qwrZZunkbLq7qsZ5DGzA7pvU7nyUlQBLPiHicCvH1bJ6GUYxvWegDKkQ7P7jv2QHxIe83Ea8yoSuPyamd_dgBXLiXJvGdAfeakstPbpNeAJpfMI3rvmpb7JRv4g1tMu-baA4rfBCSpev5Vot0b00QU6IQ5thAZY27foYo73ZQ2rJaXrPlJAkNouAIgypixMU7ugjXnciv-4-DElCxclDNm4q- -hzNKICM7SpycUCX5JjTL9b1h5nFQllpyaqRrakPSpmKpSMz565h7PAQ1v4bsxPor_hlscR5zm-495pblFj3IxfoIQuqCgzkImiR6npATXcg4-owc1DHHICoFLOn8jXekLTecHx47rb0ThFkPUFB6MsHqOFB1xVl0gEoVi7zL63CAm3Dt7Uz0QWK-YpQC1Xz96IWvKLB20oEUBtm-mmiMBzNguc7vP_VdZw-hyn-hxnRVbjz_Ic3ED8LtY_sS-4RC1gWTuQfVNj7UOIh8KIRJQt28Zbg8e3He4kgzagzBKGdpjIoVlXaYL8XwclyUuWpWxlxmS_eMiD7ZY0qIzPbn8PHnXgoYyEWH8-L9WzgykdPebyw98RLy9ryuLLiOLYFAjz9tedNo83scHopImFDsKZEUr1okrpnR0JeIrUsJY0bk1mh87XKoN-r9OOc8KxVghDNsGedbczrSkkiZMmHxetomHh481KjWurnOlNut1U5wECupDP8STXJFXul3nsp0w-Vj43JsdUYnnN-LcLO30VMqRG5NL_43TvnheONSPLHtqbg5cdsPIZOKOHWMLQL7mQhs1LdkIEIpRRJtgsIxDACSnqRLyMCNTyZ2WSTu80Ou15kfc972vHVwKwFO2cSJh91pXkDNw0STYlJBWEjEPDzctXprjpdcR5ct5tKxNqkpADzc5nB9ic9L3nzeMZ9NsF1Zf3VKOumrUAoeqpc6f6fOBQp56DciykRDo57ad7Uz74RA2djJTtlyyxJP_zr8T7Ep-Fxp5s3l8hmRpeedNwxjZl5NPSlxa4iJxDenh3yEt6qxVw-7qRHwGIvwUDkjT8WIdNZ-sqRrMJNSSZZCAnBOpZW83Kxum4wTiT9XE6kFXWMadVGLCuFhGcLMG0Rk7MhM5e3b5_-oljepRHZMjcqVVGk_UzUfauttaFqjLDyFnIWurAuosQcQzvWQgmJ5fyzMK-r9eRA2Pm-L_qm8HmxI0ZFt3iX4idzsr9PJ-SJHl0wCl2Gx4LnCB_k3k_CCasz18SqEQJcUz2mKXtGkCbOvS0qZl6jAQkLdM8hnnlBH_P91MMuPKUK6_q_m9wOoDWQpjA2vWtqR8Q8LQfN3naM2DrFvy4P1mwgrICAsa-ydN0efmzZx97421Bwk0rl2JQgXKlGSaOx0GqjMgGHp4NGd-0m00]--></g></svg>