<?xml version="1.0" encoding="us-ascii" standalone="no"?><svg xmlns="http://www.w3.org/2000/svg" xmlns:xlink="http://www.w3.org/1999/xlink" contentStyleType="text/css" height="968px" preserveAspectRatio="none" style="width:1264px;height:968px;background:#FFFFFF;" version="1.1" viewBox="0 0 1264 968" width="1264px" zoomAndPan="magnify"><defs/><g><text fill="#000000" font-family="FG Virgil" font-size="20" font-weight="bold" lengthAdjust="spacing" textLength="271" x="495.5" y="36.582">Sequence Diagram US 2000a</text><rect fill="#FFFFFF" height="726.5566" style="stroke:#181818;stroke-width:1.0;" width="10" x="31.5" y="141.2227"/><rect fill="#FFFFFF" height="685.9746" style="stroke:#181818;stroke-width:1.0;" width="10" x="255.5" y="181.8047"/><rect fill="#FFFFFF" height="446.6953" style="stroke:#181818;stroke-width:1.0;" width="10" x="475.5" y="389.793"/><rect fill="#FFFFFF" height="93.873" style="stroke:#181818;stroke-width:1.0;" width="10" x="697.5" y="631.7813"/><line style="stroke:#181818;stroke-width:0.5;stroke-dasharray:5.0,5.0;" x1="36" x2="36" y1="131.2227" y2="885.7793"/><line style="stroke:#181818;stroke-width:0.5;stroke-dasharray:5.0,5.0;" x1="260.5" x2="260.5" y1="131.2227" y2="885.7793"/><line style="stroke:#181818;stroke-width:0.5;stroke-dasharray:5.0,5.0;" x1="480.5" x2="480.5" y1="230.9258" y2="885.7793"/><line style="stroke:#181818;stroke-width:0.5;stroke-dasharray:5.0,5.0;" x1="702" x2="702" y1="493.4961" y2="885.7793"/><line style="stroke:#181818;stroke-width:0.5;stroke-dasharray:5.0,5.0;" x1="1024" x2="1024" y1="131.2227" y2="885.7793"/><line style="stroke:#181818;stroke-width:0.5;stroke-dasharray:5.0,5.0;" x1="1182" x2="1182" y1="131.2227" y2="885.7793"/><text fill="#000000" font-family="FG Virgil" font-size="14" lengthAdjust="spacing" textLength="57" x="5" y="127.709">Operator</text><ellipse cx="36.5" cy="61.1016" fill="#ADD8E6" rx="8" ry="8" style="stroke:#181818;stroke-width:0.5;"/><path d="M36.5,69.1016 L36.5,96.1016 M23.5,77.1016 L49.5,77.1016 M36.5,96.1016 L23.5,111.1016 M36.5,96.1016 L49.5,111.1016 " fill="none" style="stroke:#181818;stroke-width:0.5;"/><text fill="#000000" font-family="FG Virgil" font-size="14" lengthAdjust="spacing" textLength="57" x="5" y="899.8867">Operator</text><ellipse cx="36.5" cy="911.9004" fill="#ADD8E6" rx="8" ry="8" style="stroke:#181818;stroke-width:0.5;"/><path d="M36.5,919.9004 L36.5,946.9004 M23.5,927.9004 L49.5,927.9004 M36.5,946.9004 L23.5,961.9004 M36.5,946.9004 L49.5,961.9004 " fill="none" style="stroke:#181818;stroke-width:0.5;"/><rect fill="#E2E2F0" height="51.2422" rx="2.5" ry="2.5" style="stroke:#181818;stroke-width:0.5;" width="120" x="200.5" y="78.9805"/><text fill="#000000" font-family="FG Virgil" font-size="14" font-style="italic" lengthAdjust="spacing" textLength="95" x="213" y="101.0879">&#171;presentation&#187;</text><text fill="#000000" font-family="FG Virgil" font-size="14" lengthAdjust="spacing" textLength="106" x="207.5" y="119.709">:AddCandidateUI</text><rect fill="#E2E2F0" height="51.2422" rx="2.5" ry="2.5" style="stroke:#181818;stroke-width:0.5;" width="120" x="200.5" y="884.7793"/><text fill="#000000" font-family="FG Virgil" font-size="14" font-style="italic" lengthAdjust="spacing" textLength="95" x="213" y="906.8867">&#171;presentation&#187;</text><text fill="#000000" font-family="FG Virgil" font-size="14" lengthAdjust="spacing" textLength="106" x="207.5" y="925.5078">:AddCandidateUI</text><rect fill="#E2E2F0" height="51.2422" rx="2.5" ry="2.5" style="stroke:#181818;stroke-width:0.5;" width="170" x="395.5" y="884.7793"/><text fill="#000000" font-family="FG Virgil" font-size="14" font-style="italic" lengthAdjust="spacing" textLength="84" x="438.5" y="906.8867">&#171;application&#187;</text><text fill="#000000" font-family="FG Virgil" font-size="14" lengthAdjust="spacing" textLength="156" x="402.5" y="925.5078">:AddCandidateController</text><rect fill="#E2E2F0" height="51.2422" rx="2.5" ry="2.5" style="stroke:#181818;stroke-width:0.5;" width="127" x="639" y="884.7793"/><text fill="#000000" font-family="FG Virgil" font-size="14" font-style="italic" lengthAdjust="spacing" textLength="59" x="673" y="906.8867">&#171;builder&#187;</text><text fill="#000000" font-family="FG Virgil" font-size="14" lengthAdjust="spacing" textLength="113" x="646" y="925.5078">:CandidateBuilder</text><rect fill="#E2E2F0" height="51.2422" rx="2.5" ry="2.5" style="stroke:#181818;stroke-width:0.5;" width="145" x="952" y="78.9805"/><text fill="#000000" font-family="FG Virgil" font-size="14" font-style="italic" lengthAdjust="spacing" textLength="62" x="993.5" y="101.0879">&#171;domain&#187;</text><text fill="#000000" font-family="FG Virgil" font-size="14" lengthAdjust="spacing" textLength="131" x="959" y="119.709">candidate:Candidate</text><rect fill="#E2E2F0" height="51.2422" rx="2.5" ry="2.5" style="stroke:#181818;stroke-width:0.5;" width="145" x="952" y="884.7793"/><text fill="#000000" font-family="FG Virgil" font-size="14" font-style="italic" lengthAdjust="spacing" textLength="62" x="993.5" y="906.8867">&#171;domain&#187;</text><text fill="#000000" font-family="FG Virgil" font-size="14" lengthAdjust="spacing" textLength="131" x="959" y="925.5078">candidate:Candidate</text><rect fill="#E2E2F0" height="51.2422" rx="2.5" ry="2.5" style="stroke:#181818;stroke-width:0.5;" width="151" x="1107" y="78.9805"/><text fill="#000000" font-family="FG Virgil" font-size="14" font-style="italic" lengthAdjust="spacing" textLength="79" x="1143" y="101.0879">&#171;repository&#187;</text><text fill="#000000" font-family="FG Virgil" font-size="14" lengthAdjust="spacing" textLength="137" x="1114" y="119.709">:CandidateRepository</text><rect fill="#E2E2F0" height="51.2422" rx="2.5" ry="2.5" style="stroke:#181818;stroke-width:0.5;" width="151" x="1107" y="884.7793"/><text fill="#000000" font-family="FG Virgil" font-size="14" font-style="italic" lengthAdjust="spacing" textLength="79" x="1143" y="906.8867">&#171;repository&#187;</text><text fill="#000000" font-family="FG Virgil" font-size="14" lengthAdjust="spacing" textLength="137" x="1114" y="925.5078">:CandidateRepository</text><rect fill="#FFFFFF" height="726.5566" style="stroke:#181818;stroke-width:1.0;" width="10" x="31.5" y="141.2227"/><rect fill="#FFFFFF" height="685.9746" style="stroke:#181818;stroke-width:1.0;" width="10" x="255.5" y="181.8047"/><rect fill="#FFFFFF" height="446.6953" style="stroke:#181818;stroke-width:1.0;" width="10" x="475.5" y="389.793"/><rect fill="#FFFFFF" height="93.873" style="stroke:#181818;stroke-width:1.0;" width="10" x="697.5" y="631.7813"/><polygon fill="#181818" points="243.5,177.8047,253.5,181.8047,243.5,185.8047,247.5,181.8047" style="stroke:#181818;stroke-width:1.0;"/><line style="stroke:#181818;stroke-width:1.0;" x1="41.5" x2="249.5" y1="181.8047" y2="181.8047"/><text fill="#000000" font-family="FG Virgil" font-size="13" lengthAdjust="spacing" textLength="190" x="48.5" y="159.251">Asks to register a new candidate</text><text fill="#000000" font-family="FG Virgil" font-size="13" lengthAdjust="spacing" textLength="157" x="48.5" y="176.542">and the corresponding user</text><polygon fill="#181818" points="383.5,209.0957,393.5,213.0957,383.5,217.0957,387.5,213.0957" style="stroke:#181818;stroke-width:1.0;"/><line style="stroke:#181818;stroke-width:1.0;" x1="265.5" x2="389.5" y1="213.0957" y2="213.0957"/><text fill="#000000" font-family="FG Virgil" font-size="13" lengthAdjust="spacing" textLength="36" x="272.5" y="207.833">create</text><rect fill="#E2E2F0" height="51.2422" rx="2.5" ry="2.5" style="stroke:#181818;stroke-width:0.5;" width="170" x="395.5" y="189.8047"/><text fill="#000000" font-family="FG Virgil" font-size="14" font-style="italic" lengthAdjust="spacing" textLength="84" x="438.5" y="211.9121">&#171;application&#187;</text><text fill="#000000" font-family="FG Virgil" font-size="14" lengthAdjust="spacing" textLength="156" x="402.5" y="230.5332">:AddCandidateController</text><polygon fill="#181818" points="52.5,288.6289,42.5,292.6289,52.5,296.6289,48.5,292.6289" style="stroke:#181818;stroke-width:1.0;"/><line style="stroke:#181818;stroke-width:1.0;stroke-dasharray:2.0,2.0;" x1="46.5" x2="254.5" y1="292.6289" y2="292.6289"/><text fill="#000000" font-family="FG Virgil" font-size="13" lengthAdjust="spacing" textLength="150" x="58.5" y="270.0752">Ask candidate information</text><text fill="#000000" font-family="FG Virgil" font-size="13" lengthAdjust="spacing" textLength="190" x="58.5" y="287.3662">(name, email and phone number)</text><polygon fill="#181818" points="243.5,337.2109,253.5,341.2109,243.5,345.2109,247.5,341.2109" style="stroke:#181818;stroke-width:1.0;"/><line style="stroke:#181818;stroke-width:1.0;" x1="41.5" x2="249.5" y1="341.2109" y2="341.2109"/><text fill="#000000" font-family="FG Virgil" font-size="13" lengthAdjust="spacing" textLength="174" x="48.5" y="318.6572">Types name, email and phone</text><text fill="#000000" font-family="FG Virgil" font-size="13" lengthAdjust="spacing" textLength="139" x="48.5" y="335.9482">number of the candidate</text><polygon fill="#181818" points="463.5,385.793,473.5,389.793,463.5,393.793,467.5,389.793" style="stroke:#181818;stroke-width:1.0;"/><line style="stroke:#181818;stroke-width:1.0;" x1="265.5" x2="469.5" y1="389.793" y2="389.793"/><text fill="#000000" font-family="FG Virgil" font-size="13" lengthAdjust="spacing" textLength="191" x="272.5" y="367.2393">registerCandidateAndUser(name,</text><text fill="#000000" font-family="FG Virgil" font-size="13" lengthAdjust="spacing" textLength="123" x="272.5" y="384.5303">email, phoneNumber)</text><path d="M473,402.793 L473,446.793 L697,446.793 L697,412.793 L687,402.793 L473,402.793 " fill="#FEFFDD" style="stroke:#181818;stroke-width:0.5;"/><path d="M687,402.793 L687,412.793 L697,412.793 L687,402.793 " fill="#FEFFDD" style="stroke:#181818;stroke-width:0.5;"/><text fill="#000000" font-family="FG Virgil" font-size="13" lengthAdjust="spacing" textLength="199" x="479" y="421.8213">CandidateBuilder is used to create</text><text fill="#000000" font-family="FG Virgil" font-size="13" lengthAdjust="spacing" textLength="134" x="479" y="439.1123">a valid Candidate entity</text><polygon fill="#181818" points="627,471.666,637,475.666,627,479.666,631,475.666" style="stroke:#181818;stroke-width:1.0;"/><line style="stroke:#181818;stroke-width:1.0;" x1="485.5" x2="633" y1="475.666" y2="475.666"/><text fill="#000000" font-family="FG Virgil" font-size="13" lengthAdjust="spacing" textLength="36" x="492.5" y="470.4033">create</text><rect fill="#E2E2F0" height="51.2422" rx="2.5" ry="2.5" style="stroke:#181818;stroke-width:0.5;" width="127" x="639" y="452.375"/><text fill="#000000" font-family="FG Virgil" font-size="14" font-style="italic" lengthAdjust="spacing" textLength="59" x="673" y="474.4824">&#171;builder&#187;</text><text fill="#000000" font-family="FG Virgil" font-size="14" lengthAdjust="spacing" textLength="113" x="646" y="493.1035">:CandidateBuilder</text><polygon fill="#181818" points="690.5,533.9082,700.5,537.9082,690.5,541.9082,694.5,537.9082" style="stroke:#181818;stroke-width:1.0;"/><line style="stroke:#181818;stroke-width:1.0;" x1="485.5" x2="696.5" y1="537.9082" y2="537.9082"/><text fill="#000000" font-family="FG Virgil" font-size="13" lengthAdjust="spacing" textLength="97" x="492.5" y="532.6455">withName(name)</text><polygon fill="#181818" points="690.5,565.1992,700.5,569.1992,690.5,573.1992,694.5,569.1992" style="stroke:#181818;stroke-width:1.0;"/><line style="stroke:#181818;stroke-width:1.0;" x1="485.5" x2="696.5" y1="569.1992" y2="569.1992"/><text fill="#000000" font-family="FG Virgil" font-size="13" lengthAdjust="spacing" textLength="95" x="492.5" y="563.9365">withEmail(email)</text><polygon fill="#181818" points="690.5,596.4902,700.5,600.4902,690.5,604.4902,694.5,600.4902" style="stroke:#181818;stroke-width:1.0;"/><line style="stroke:#181818;stroke-width:1.0;" x1="485.5" x2="696.5" y1="600.4902" y2="600.4902"/><text fill="#000000" font-family="FG Virgil" font-size="13" lengthAdjust="spacing" textLength="193" x="492.5" y="595.2275">withPhoneNumber(phoneNumber)</text><polygon fill="#181818" points="685.5,627.7813,695.5,631.7813,685.5,635.7813,689.5,631.7813" style="stroke:#181818;stroke-width:1.0;"/><line style="stroke:#181818;stroke-width:1.0;" x1="485.5" x2="691.5" y1="631.7813" y2="631.7813"/><text fill="#000000" font-family="FG Virgil" font-size="13" lengthAdjust="spacing" textLength="134" x="492.5" y="626.5186">registerNewCandidate()</text><polygon fill="#181818" points="1012.5,659.0723,1022.5,663.0723,1012.5,667.0723,1016.5,663.0723" style="stroke:#181818;stroke-width:1.0;"/><line style="stroke:#181818;stroke-width:1.0;" x1="707.5" x2="1018.5" y1="663.0723" y2="663.0723"/><text fill="#000000" font-family="FG Virgil" font-size="13" lengthAdjust="spacing" textLength="293" x="714.5" y="657.8096">registerNewCandidate(name, email, phoneNumber)</text><polygon fill="#181818" points="718.5,690.3633,708.5,694.3633,718.5,698.3633,714.5,694.3633" style="stroke:#181818;stroke-width:1.0;"/><line style="stroke:#181818;stroke-width:1.0;stroke-dasharray:2.0,2.0;" x1="712.5" x2="1023.5" y1="694.3633" y2="694.3633"/><text fill="#000000" font-family="FG Virgil" font-size="13" lengthAdjust="spacing" textLength="56" x="724.5" y="689.1006">candidate</text><polygon fill="#181818" points="496.5,721.6543,486.5,725.6543,496.5,729.6543,492.5,725.6543" style="stroke:#181818;stroke-width:1.0;"/><line style="stroke:#181818;stroke-width:1.0;stroke-dasharray:2.0,2.0;" x1="490.5" x2="701.5" y1="725.6543" y2="725.6543"/><text fill="#000000" font-family="FG Virgil" font-size="13" lengthAdjust="spacing" textLength="56" x="502.5" y="720.3916">candidate</text><polygon fill="#181818" points="1170.5,752.9453,1180.5,756.9453,1170.5,760.9453,1174.5,756.9453" style="stroke:#181818;stroke-width:1.0;"/><line style="stroke:#181818;stroke-width:1.0;" x1="485.5" x2="1176.5" y1="756.9453" y2="756.9453"/><text fill="#000000" font-family="FG Virgil" font-size="13" lengthAdjust="spacing" textLength="90" x="492.5" y="751.6826">save(candidate)</text><rect fill="none" height="43.252" style="stroke:#000000;stroke-width:1.5;" width="176" x="392.5" y="764.9453"/><path d="M392.5,764.9453 L454.5,764.9453 L454.5,773.9453 L444.5,783.9453 L392.5,783.9453 L392.5,764.9453 " fill="#EEEEEE" style="stroke:#000000;stroke-width:2.0;"/><text fill="#000000" font-family="FG Virgil" font-size="13" font-weight="bold" lengthAdjust="spacing" textLength="17" x="405.5" y="780.9736">ref</text><text fill="#000000" font-family="FG Virgil" font-size="12" lengthAdjust="spacing" textLength="59" x="451" y="800.8945">UC 1000.1</text><polygon fill="#181818" points="276.5,832.4883,266.5,836.4883,276.5,840.4883,272.5,836.4883" style="stroke:#181818;stroke-width:1.0;"/><line style="stroke:#181818;stroke-width:1.0;stroke-dasharray:2.0,2.0;" x1="270.5" x2="479.5" y1="836.4883" y2="836.4883"/><text fill="#000000" font-family="FG Virgil" font-size="13" lengthAdjust="spacing" textLength="56" x="282.5" y="831.2256">candidate</text><polygon fill="#181818" points="47.5,863.7793,37.5,867.7793,47.5,871.7793,43.5,867.7793" style="stroke:#181818;stroke-width:1.0;"/><line style="stroke:#181818;stroke-width:1.0;stroke-dasharray:2.0,2.0;" x1="41.5" x2="259.5" y1="867.7793" y2="867.7793"/><text fill="#000000" font-family="FG Virgil" font-size="13" lengthAdjust="spacing" textLength="148" x="53.5" y="862.5166">displayOperationSuccess</text><!--SRC=[bLLDKzim4BtxL-pGGmC3973qP3AJXjBXGZiDwOcBi3Qn1bbI9JcPzDTt9HFB6AS5d_JrthvzkvAzy19XwiGVpAydioN-hb4L23U2RIohOBM4wybamgRZS6IMPPzBxqq-7Xl9bAyhULdeQkoUXJACpb-Mlf9PEuLAArsKLbS8QoOTThOCAvxP1fT-Jm8i5hwpnt7DQkbljVBtZB2tt-2Ni1lHfNObutedrEQ5EME5rnQ-6xGi39Y3ULpv9CMcz4-oneoGNXJ2a7GuoUUSBvZYWZEFgxkJW5ZTmNHgB3fKddcXrMps3z22z5aj9Te8JbCYOSP8KGnpj0HVQY7v0TrR98wdPjJ75uUJYIWotEYA2RKW88-Zut5_ej5Ea3dx4tWLEsqGYsqdn1Ji5LiwqhYQDTvUpCYo7ERksO7NLCQDS9wqCr2uWrOeF2eQWYyH2ct9NgDfXqfNExI9UNMN0NrK1E9DRfwTvL1Of1FjDkr70J5q9uvGQsshw3h572bgddD0CaD2461AhH1KNJsXFOrahz9us1jqC0nwL0qCzBh9un0p6zISjrwqtiuLNr6wZQX75GESD-pt7KMj6uaiheTFQLgNkFP1HRzXyhSj95nmc8VID0Q6Gi2MIS7JOQ1U5txV1kcqSKYfpzchnZiGEUo4ByD5ZhcVVWptDVWqYcvz4FaZMJjwO_ExM0urlCTTkpjA-5Ig7ZH5w7DIdCCrFKBVQR-1xWZVWU1YM7JgpECgNlNg88RZyUp-Ps3d5Sd1iIsEMlxJ1BQu1hqbw42ZnokrW2lwzLnUjQkeU0FlnertzqqANVc9_kMg4kRbzU32qOzit_mqwD5OraM1pcKTE3rAdLd4_GK0]--></g></svg>