<?xml version="1.0" encoding="us-ascii" standalone="no"?><svg xmlns="http://www.w3.org/2000/svg" xmlns:xlink="http://www.w3.org/1999/xlink" contentStyleType="text/css" height="1488px" preserveAspectRatio="none" style="width:2242px;height:1488px;background:#FFFFFF;" version="1.1" viewBox="0 0 2242 1488" width="2242px" zoomAndPan="magnify"><defs/><g><text fill="#000000" font-family="FG Virgil" font-size="20" font-weight="bold" lengthAdjust="spacing" textLength="240" x="1002.25" y="36.582">Sequence Diagram - 1015</text><rect fill="#FFFFFF" height="1253.9805" style="stroke:#181818;stroke-width:1.0;" width="10" x="76.5" y="141.2227"/><rect fill="#FFFFFF" height="1230.6895" style="stroke:#181818;stroke-width:1.0;" width="10" x="432.5" y="164.5137"/><rect fill="#FFFFFF" height="1189.3984" style="stroke:#181818;stroke-width:1.0;" width="10" x="827.5" y="205.8047"/><rect fill="#FFFFFF" height="1105.8652" style="stroke:#181818;stroke-width:1.0;" width="10" x="1020.5" y="289.3379"/><rect fill="#FFFFFF" height="918.1191" style="stroke:#181818;stroke-width:1.0;" width="10" x="1200" y="477.084"/><rect fill="#FFFFFF" height="615.209" style="stroke:#181818;stroke-width:1.0;" width="10" x="1564" y="779.9941"/><rect fill="#FFFFFF" height="263.668" style="stroke:#181818;stroke-width:1.0;" width="10" x="1999" y="1007.0313"/><rect fill="#FFFFFF" height="705.082" style="stroke:#181818;stroke-width:1.0;" width="10" x="2135.5" y="691.1211"/><rect fill="none" height="770.9551" style="stroke:#000000;stroke-width:1.5;" width="2225.5" x="10" y="617.248"/><rect fill="none" height="533.2871" style="stroke:#000000;stroke-width:1.5;" width="1355" x="710.5" y="737.4121"/><rect fill="none" height="299.25" style="stroke:#000000;stroke-width:1.5;" width="1335" x="720.5" y="964.4492"/><line style="stroke:#181818;stroke-width:0.5;stroke-dasharray:5.0,5.0;" x1="81" x2="81" y1="131.2227" y2="1405.2031"/><line style="stroke:#181818;stroke-width:0.5;stroke-dasharray:5.0,5.0;" x1="437.5" x2="437.5" y1="131.2227" y2="1405.2031"/><line style="stroke:#181818;stroke-width:0.5;stroke-dasharray:5.0,5.0;" x1="832.5" x2="832.5" y1="213.6348" y2="1405.2031"/><line style="stroke:#181818;stroke-width:0.5;stroke-dasharray:5.0,5.0;" x1="1025.5" x2="1025.5" y1="131.2227" y2="1405.2031"/><line style="stroke:#181818;stroke-width:0.5;stroke-dasharray:5.0,5.0;" x1="1204.5" x2="1204.5" y1="131.2227" y2="1405.2031"/><line style="stroke:#181818;stroke-width:0.5;stroke-dasharray:5.0,5.0;" x1="1569" x2="1569" y1="131.2227" y2="1405.2031"/><line style="stroke:#181818;stroke-width:0.5;stroke-dasharray:5.0,5.0;" x1="2003.5" x2="2003.5" y1="131.2227" y2="1405.2031"/><line style="stroke:#181818;stroke-width:0.5;stroke-dasharray:5.0,5.0;" x1="2140.5" x2="2140.5" y1="131.2227" y2="1405.2031"/><text fill="#000000" font-family="FG Virgil" font-size="14" lengthAdjust="spacing" textLength="117" x="20" y="127.709">CustomerManager</text><ellipse cx="81.5" cy="61.1016" fill="#ADD8E6" rx="8" ry="8" style="stroke:#181818;stroke-width:0.5;"/><path d="M81.5,69.1016 L81.5,96.1016 M68.5,77.1016 L94.5,77.1016 M81.5,96.1016 L68.5,111.1016 M81.5,96.1016 L94.5,111.1016 " fill="none" style="stroke:#181818;stroke-width:0.5;"/><text fill="#000000" font-family="FG Virgil" font-size="14" lengthAdjust="spacing" textLength="117" x="20" y="1419.3105">CustomerManager</text><ellipse cx="81.5" cy="1431.3242" fill="#ADD8E6" rx="8" ry="8" style="stroke:#181818;stroke-width:0.5;"/><path d="M81.5,1439.3242 L81.5,1466.3242 M68.5,1447.3242 L94.5,1447.3242 M81.5,1466.3242 L68.5,1481.3242 M81.5,1466.3242 L94.5,1481.3242 " fill="none" style="stroke:#181818;stroke-width:0.5;"/><rect fill="#E2E2F0" height="51.2422" rx="2.5" ry="2.5" style="stroke:#181818;stroke-width:0.5;" width="154" x="360.5" y="78.9805"/><text fill="#000000" font-family="FG Virgil" font-size="14" font-style="italic" lengthAdjust="spacing" textLength="95" x="390" y="101.0879">&#171;presentation&#187;</text><text fill="#000000" font-family="FG Virgil" font-size="14" lengthAdjust="spacing" textLength="140" x="367.5" y="119.709">:VerifyRequirementsUI</text><rect fill="#E2E2F0" height="51.2422" rx="2.5" ry="2.5" style="stroke:#181818;stroke-width:0.5;" width="154" x="360.5" y="1404.2031"/><text fill="#000000" font-family="FG Virgil" font-size="14" font-style="italic" lengthAdjust="spacing" textLength="95" x="390" y="1426.3105">&#171;presentation&#187;</text><text fill="#000000" font-family="FG Virgil" font-size="14" lengthAdjust="spacing" textLength="140" x="367.5" y="1444.9316">:VerifyRequirementsUI</text><rect fill="#E2E2F0" height="51.2422" rx="2.5" ry="2.5" style="stroke:#181818;stroke-width:0.5;" width="204" x="730.5" y="1404.2031"/><text fill="#000000" font-family="FG Virgil" font-size="14" font-style="italic" lengthAdjust="spacing" textLength="84" x="790.5" y="1426.3105">&#171;application&#187;</text><text fill="#000000" font-family="FG Virgil" font-size="14" lengthAdjust="spacing" textLength="190" x="737.5" y="1444.9316">:VerifyRequirementsController</text><rect fill="#E2E2F0" height="51.2422" rx="2.5" ry="2.5" style="stroke:#181818;stroke-width:0.5;" width="162" x="944.5" y="78.9805"/><text fill="#000000" font-family="FG Virgil" font-size="14" font-style="italic" lengthAdjust="spacing" textLength="79" x="986" y="101.0879">&#171;repository&#187;</text><text fill="#000000" font-family="FG Virgil" font-size="14" lengthAdjust="spacing" textLength="148" x="951.5" y="119.709">:JobOpeningRepository</text><rect fill="#E2E2F0" height="51.2422" rx="2.5" ry="2.5" style="stroke:#181818;stroke-width:0.5;" width="162" x="944.5" y="1404.2031"/><text fill="#000000" font-family="FG Virgil" font-size="14" font-style="italic" lengthAdjust="spacing" textLength="79" x="986" y="1426.3105">&#171;repository&#187;</text><text fill="#000000" font-family="FG Virgil" font-size="14" lengthAdjust="spacing" textLength="148" x="951.5" y="1444.9316">:JobOpeningRepository</text><rect fill="#E2E2F0" height="51.2422" rx="2.5" ry="2.5" style="stroke:#181818;stroke-width:0.5;" width="177" x="1116.5" y="78.9805"/><text fill="#000000" font-family="FG Virgil" font-size="14" font-style="italic" lengthAdjust="spacing" textLength="79" x="1165.5" y="101.0879">&#171;repository&#187;</text><text fill="#000000" font-family="FG Virgil" font-size="14" lengthAdjust="spacing" textLength="163" x="1123.5" y="119.709">:JobApplicationRepository</text><rect fill="#E2E2F0" height="51.2422" rx="2.5" ry="2.5" style="stroke:#181818;stroke-width:0.5;" width="177" x="1116.5" y="1404.2031"/><text fill="#000000" font-family="FG Virgil" font-size="14" font-style="italic" lengthAdjust="spacing" textLength="79" x="1165.5" y="1426.3105">&#171;repository&#187;</text><text fill="#000000" font-family="FG Virgil" font-size="14" lengthAdjust="spacing" textLength="163" x="1123.5" y="1444.9316">:JobApplicationRepository</text><rect fill="#E2E2F0" height="51.2422" rx="2.5" ry="2.5" style="stroke:#181818;stroke-width:0.5;" width="216" x="1461" y="78.9805"/><text fill="#000000" font-family="FG Virgil" font-size="14" font-style="italic" lengthAdjust="spacing" textLength="60" x="1539" y="101.0879">&#171;service&#187;</text><text fill="#000000" font-family="FG Virgil" font-size="14" lengthAdjust="spacing" textLength="202" x="1468" y="119.709">:JobApplicationEvaluatorService</text><rect fill="#E2E2F0" height="51.2422" rx="2.5" ry="2.5" style="stroke:#181818;stroke-width:0.5;" width="216" x="1461" y="1404.2031"/><text fill="#000000" font-family="FG Virgil" font-size="14" font-style="italic" lengthAdjust="spacing" textLength="60" x="1539" y="1426.3105">&#171;service&#187;</text><text fill="#000000" font-family="FG Virgil" font-size="14" lengthAdjust="spacing" textLength="202" x="1468" y="1444.9316">:JobApplicationEvaluatorService</text><rect fill="#E2E2F0" height="51.2422" rx="2.5" ry="2.5" style="stroke:#181818;stroke-width:0.5;" width="83" x="1962.5" y="78.9805"/><text fill="#000000" font-family="FG Virgil" font-size="14" font-style="italic" lengthAdjust="spacing" textLength="55" x="1976.5" y="101.0879">&#171;library&#187;</text><text fill="#000000" font-family="FG Virgil" font-size="14" lengthAdjust="spacing" textLength="69" x="1969.5" y="119.709">:reflections</text><rect fill="#E2E2F0" height="51.2422" rx="2.5" ry="2.5" style="stroke:#181818;stroke-width:0.5;" width="83" x="1962.5" y="1404.2031"/><text fill="#000000" font-family="FG Virgil" font-size="14" font-style="italic" lengthAdjust="spacing" textLength="55" x="1976.5" y="1426.3105">&#171;library&#187;</text><text fill="#000000" font-family="FG Virgil" font-size="14" lengthAdjust="spacing" textLength="69" x="1969.5" y="1444.9316">:reflections</text><rect fill="#E2E2F0" height="32.6211" rx="2.5" ry="2.5" style="stroke:#181818;stroke-width:0.5;" width="170" x="2055.5" y="97.6016"/><text fill="#000000" font-family="FG Virgil" font-size="14" lengthAdjust="spacing" textLength="156" x="2062.5" y="119.709">JobApplicationDistributor</text><rect fill="#E2E2F0" height="32.6211" rx="2.5" ry="2.5" style="stroke:#181818;stroke-width:0.5;" width="170" x="2055.5" y="1404.2031"/><text fill="#000000" font-family="FG Virgil" font-size="14" lengthAdjust="spacing" textLength="156" x="2062.5" y="1426.3105">JobApplicationDistributor</text><rect fill="#FFFFFF" height="1253.9805" style="stroke:#181818;stroke-width:1.0;" width="10" x="76.5" y="141.2227"/><rect fill="#FFFFFF" height="1230.6895" style="stroke:#181818;stroke-width:1.0;" width="10" x="432.5" y="164.5137"/><rect fill="#FFFFFF" height="1189.3984" style="stroke:#181818;stroke-width:1.0;" width="10" x="827.5" y="205.8047"/><rect fill="#FFFFFF" height="1105.8652" style="stroke:#181818;stroke-width:1.0;" width="10" x="1020.5" y="289.3379"/><rect fill="#FFFFFF" height="918.1191" style="stroke:#181818;stroke-width:1.0;" width="10" x="1200" y="477.084"/><rect fill="#FFFFFF" height="615.209" style="stroke:#181818;stroke-width:1.0;" width="10" x="1564" y="779.9941"/><rect fill="#FFFFFF" height="263.668" style="stroke:#181818;stroke-width:1.0;" width="10" x="1999" y="1007.0313"/><rect fill="#FFFFFF" height="705.082" style="stroke:#181818;stroke-width:1.0;" width="10" x="2135.5" y="691.1211"/><polygon fill="#181818" points="420.5,160.5137,430.5,164.5137,420.5,168.5137,424.5,164.5137" style="stroke:#181818;stroke-width:1.0;"/><line style="stroke:#181818;stroke-width:1.0;" x1="86.5" x2="426.5" y1="164.5137" y2="164.5137"/><text fill="#000000" font-family="FG Virgil" font-size="13" lengthAdjust="spacing" textLength="222" x="93.5" y="159.251">Verify Requirements for a Job Opening</text><polygon fill="#181818" points="718.5,191.8047,728.5,195.8047,718.5,199.8047,722.5,195.8047" style="stroke:#181818;stroke-width:1.0;"/><line style="stroke:#181818;stroke-width:1.0;" x1="442.5" x2="724.5" y1="195.8047" y2="195.8047"/><text fill="#000000" font-family="FG Virgil" font-size="13" lengthAdjust="spacing" textLength="44" x="449.5" y="190.542">create()</text><rect fill="#E2E2F0" height="51.2422" rx="2.5" ry="2.5" style="stroke:#181818;stroke-width:0.5;" width="204" x="730.5" y="172.5137"/><text fill="#000000" font-family="FG Virgil" font-size="14" font-style="italic" lengthAdjust="spacing" textLength="84" x="790.5" y="194.6211">&#171;application&#187;</text><text fill="#000000" font-family="FG Virgil" font-size="14" lengthAdjust="spacing" textLength="190" x="737.5" y="213.2422">:VerifyRequirementsController</text><polygon fill="#181818" points="815.5,254.0469,825.5,258.0469,815.5,262.0469,819.5,258.0469" style="stroke:#181818;stroke-width:1.0;"/><line style="stroke:#181818;stroke-width:1.0;" x1="442.5" x2="821.5" y1="258.0469" y2="258.0469"/><text fill="#000000" font-family="FG Virgil" font-size="13" lengthAdjust="spacing" textLength="101" x="449.5" y="252.7842">getJobOpenings()</text><polygon fill="#181818" points="1008.5,285.3379,1018.5,289.3379,1008.5,293.3379,1012.5,289.3379" style="stroke:#181818;stroke-width:1.0;"/><line style="stroke:#181818;stroke-width:1.0;" x1="837.5" x2="1014.5" y1="289.3379" y2="289.3379"/><text fill="#000000" font-family="FG Virgil" font-size="13" lengthAdjust="spacing" textLength="43" x="844.5" y="284.0752">findAll()</text><polygon fill="#181818" points="848.5,316.6289,838.5,320.6289,848.5,324.6289,844.5,320.6289" style="stroke:#181818;stroke-width:1.0;"/><line style="stroke:#181818;stroke-width:1.0;stroke-dasharray:2.0,2.0;" x1="842.5" x2="1019.5" y1="320.6289" y2="320.6289"/><text fill="#000000" font-family="FG Virgil" font-size="13" lengthAdjust="spacing" textLength="72" x="854.5" y="315.3662">jobOpenings</text><polygon fill="#181818" points="453.5,347.9199,443.5,351.9199,453.5,355.9199,449.5,351.9199" style="stroke:#181818;stroke-width:1.0;"/><line style="stroke:#181818;stroke-width:1.0;stroke-dasharray:2.0,2.0;" x1="447.5" x2="826.5" y1="351.9199" y2="351.9199"/><text fill="#000000" font-family="FG Virgil" font-size="13" lengthAdjust="spacing" textLength="72" x="459.5" y="346.6572">jobOpenings</text><polygon fill="#181818" points="97.5,379.2109,87.5,383.2109,97.5,387.2109,93.5,383.2109" style="stroke:#181818;stroke-width:1.0;"/><line style="stroke:#181818;stroke-width:1.0;stroke-dasharray:2.0,2.0;" x1="91.5" x2="431.5" y1="383.2109" y2="383.2109"/><text fill="#000000" font-family="FG Virgil" font-size="13" lengthAdjust="spacing" textLength="167" x="103.5" y="377.9482">Asks to select a JobOpening</text><polygon fill="#181818" points="420.5,410.502,430.5,414.502,420.5,418.502,424.5,414.502" style="stroke:#181818;stroke-width:1.0;"/><line style="stroke:#181818;stroke-width:1.0;" x1="86.5" x2="426.5" y1="414.502" y2="414.502"/><text fill="#000000" font-family="FG Virgil" font-size="13" lengthAdjust="spacing" textLength="127" x="93.5" y="409.2393">Selects a JobOpening</text><polygon fill="#181818" points="815.5,441.793,825.5,445.793,815.5,449.793,819.5,445.793" style="stroke:#181818;stroke-width:1.0;"/><line style="stroke:#181818;stroke-width:1.0;" x1="442.5" x2="821.5" y1="445.793" y2="445.793"/><text fill="#000000" font-family="FG Virgil" font-size="13" lengthAdjust="spacing" textLength="361" x="449.5" y="440.5303">getApplicationsWithoutRequirementsVerification(jobReference)</text><polygon fill="#181818" points="1188,473.084,1198,477.084,1188,481.084,1192,477.084" style="stroke:#181818;stroke-width:1.0;"/><line style="stroke:#181818;stroke-width:1.0;" x1="837.5" x2="1194" y1="477.084" y2="477.084"/><text fill="#000000" font-family="FG Virgil" font-size="13" lengthAdjust="spacing" textLength="316" x="844.5" y="471.8213">findApplicationsByJobOpeningReference(jobReference)</text><polygon fill="#181818" points="848.5,504.375,838.5,508.375,848.5,512.375,844.5,508.375" style="stroke:#181818;stroke-width:1.0;"/><line style="stroke:#181818;stroke-width:1.0;stroke-dasharray:2.0,2.0;" x1="842.5" x2="1199" y1="508.375" y2="508.375"/><text fill="#000000" font-family="FG Virgil" font-size="13" lengthAdjust="spacing" textLength="88" x="854.5" y="503.1123">jobApplications</text><polygon fill="#181818" points="453.5,535.666,443.5,539.666,453.5,543.666,449.5,539.666" style="stroke:#181818;stroke-width:1.0;"/><line style="stroke:#181818;stroke-width:1.0;stroke-dasharray:2.0,2.0;" x1="447.5" x2="826.5" y1="539.666" y2="539.666"/><text fill="#000000" font-family="FG Virgil" font-size="13" lengthAdjust="spacing" textLength="88" x="459.5" y="534.4033">jobApplications</text><polygon fill="#181818" points="97.5,566.957,87.5,570.957,97.5,574.957,93.5,570.957" style="stroke:#181818;stroke-width:1.0;"/><line style="stroke:#181818;stroke-width:1.0;stroke-dasharray:2.0,2.0;" x1="91.5" x2="431.5" y1="570.957" y2="570.957"/><text fill="#000000" font-family="FG Virgil" font-size="13" lengthAdjust="spacing" textLength="322" x="103.5" y="565.6943">Asks if wants to execute the verification of requirements</text><polygon fill="#181818" points="420.5,598.248,430.5,602.248,420.5,606.248,424.5,602.248" style="stroke:#181818;stroke-width:1.0;"/><line style="stroke:#181818;stroke-width:1.0;" x1="86.5" x2="426.5" y1="602.248" y2="602.248"/><text fill="#000000" font-family="FG Virgil" font-size="13" lengthAdjust="spacing" textLength="58" x="93.5" y="596.9854">Responds</text><path d="M10,617.248 L71,617.248 L71,626.5391 L61,636.5391 L10,636.5391 L10,617.248 " fill="#EEEEEE" style="stroke:#000000;stroke-width:1.5;"/><rect fill="none" height="770.9551" style="stroke:#000000;stroke-width:1.5;" width="2225.5" x="10" y="617.248"/><text fill="#000000" font-family="FG Virgil" font-size="13" font-weight="bold" lengthAdjust="spacing" textLength="16" x="25" y="632.2764">alt</text><text fill="#000000" font-family="FG Virgil" font-size="11" font-weight="bold" lengthAdjust="spacing" textLength="187" x="86" y="631.1182">[response is "Do the verification"]</text><polygon fill="#181818" points="815.5,655.8301,825.5,659.8301,815.5,663.8301,819.5,659.8301" style="stroke:#181818;stroke-width:1.0;"/><line style="stroke:#181818;stroke-width:1.0;" x1="442.5" x2="821.5" y1="659.8301" y2="659.8301"/><text fill="#000000" font-family="FG Virgil" font-size="13" lengthAdjust="spacing" textLength="265" x="449.5" y="654.5674">verifyRequirementsConcurrently(jobReference)</text><polygon fill="#181818" points="2123.5,687.1211,2133.5,691.1211,2123.5,695.1211,2127.5,691.1211" style="stroke:#181818;stroke-width:1.0;"/><line style="stroke:#181818;stroke-width:1.0;" x1="837.5" x2="2129.5" y1="691.1211" y2="691.1211"/><text fill="#000000" font-family="FG Virgil" font-size="13" lengthAdjust="spacing" textLength="448" x="844.5" y="685.8584">distributeJobApplicationsAmongThreads(jobApplicationIds, THREAD_COUNT)</text><polygon fill="#181818" points="848.5,718.4121,838.5,722.4121,848.5,726.4121,844.5,722.4121" style="stroke:#181818;stroke-width:1.0;"/><line style="stroke:#181818;stroke-width:1.0;stroke-dasharray:2.0,2.0;" x1="842.5" x2="2134.5" y1="722.4121" y2="722.4121"/><text fill="#000000" font-family="FG Virgil" font-size="13" lengthAdjust="spacing" textLength="53" x="854.5" y="717.1494">partitions</text><path d="M710.5,737.4121 L776.5,737.4121 L776.5,746.7031 L766.5,756.7031 L710.5,756.7031 L710.5,737.4121 " fill="#EEEEEE" style="stroke:#000000;stroke-width:1.5;"/><rect fill="none" height="533.2871" style="stroke:#000000;stroke-width:1.5;" width="1355" x="710.5" y="737.4121"/><text fill="#000000" font-family="FG Virgil" font-size="13" font-weight="bold" lengthAdjust="spacing" textLength="21" x="725.5" y="752.4404">par</text><text fill="#000000" font-family="FG Virgil" font-size="11" font-weight="bold" lengthAdjust="spacing" textLength="233" x="791.5" y="751.2822">[N Threads (One partition for each thread)]</text><polygon fill="#181818" points="1552,775.9941,1562,779.9941,1552,783.9941,1556,779.9941" style="stroke:#181818;stroke-width:1.0;"/><line style="stroke:#181818;stroke-width:1.0;" x1="837.5" x2="1558" y1="779.9941" y2="779.9941"/><text fill="#000000" font-family="FG Virgil" font-size="13" lengthAdjust="spacing" textLength="192" x="844.5" y="774.7314">verifyRequirements(jobReference)</text><polygon fill="#181818" points="1041.5,807.2852,1031.5,811.2852,1041.5,815.2852,1037.5,811.2852" style="stroke:#181818;stroke-width:1.0;"/><line style="stroke:#181818;stroke-width:1.0;stroke-dasharray:2.0,2.0;" x1="1035.5" x2="1563" y1="811.2852" y2="811.2852"/><text fill="#000000" font-family="FG Virgil" font-size="13" lengthAdjust="spacing" textLength="245" x="1047.5" y="806.0225">findJobOpeningByReference(jobReference)</text><polygon fill="#181818" points="1552,838.5762,1562,842.5762,1552,846.5762,1556,842.5762" style="stroke:#181818;stroke-width:1.0;"/><line style="stroke:#181818;stroke-width:1.0;" x1="1030.5" x2="1558" y1="842.5762" y2="842.5762"/><text fill="#000000" font-family="FG Virgil" font-size="13" lengthAdjust="spacing" textLength="65" x="1037.5" y="837.3135">jobOpening</text><polygon fill="#181818" points="1221,869.8672,1211,873.8672,1221,877.8672,1217,873.8672" style="stroke:#181818;stroke-width:1.0;"/><line style="stroke:#181818;stroke-width:1.0;stroke-dasharray:2.0,2.0;" x1="1215" x2="1563" y1="873.8672" y2="873.8672"/><text fill="#000000" font-family="FG Virgil" font-size="13" lengthAdjust="spacing" textLength="229" x="1227" y="868.6045">findJobApplicationById(jobApplicationId)</text><polygon fill="#181818" points="1552,901.1582,1562,905.1582,1552,909.1582,1556,905.1582" style="stroke:#181818;stroke-width:1.0;"/><line style="stroke:#181818;stroke-width:1.0;" x1="1210" x2="1558" y1="905.1582" y2="905.1582"/><text fill="#000000" font-family="FG Virgil" font-size="13" lengthAdjust="spacing" textLength="81" x="1217" y="899.8955">jobApplication</text><line style="stroke:#181818;stroke-width:1.0;" x1="1574" x2="1616" y1="936.4492" y2="936.4492"/><line style="stroke:#181818;stroke-width:1.0;" x1="1616" x2="1616" y1="936.4492" y2="949.4492"/><line style="stroke:#181818;stroke-width:1.0;" x1="1575" x2="1616" y1="949.4492" y2="949.4492"/><polygon fill="#181818" points="1585,945.4492,1575,949.4492,1585,953.4492,1581,949.4492" style="stroke:#181818;stroke-width:1.0;"/><text fill="#000000" font-family="FG Virgil" font-size="13" lengthAdjust="spacing" textLength="152" x="1581" y="931.1865">findRequirementsFile(files)</text><path d="M720.5,964.4492 L781.5,964.4492 L781.5,973.7402 L771.5,983.7402 L720.5,983.7402 L720.5,964.4492 " fill="#EEEEEE" style="stroke:#000000;stroke-width:1.5;"/><rect fill="none" height="299.25" style="stroke:#000000;stroke-width:1.5;" width="1335" x="720.5" y="964.4492"/><text fill="#000000" font-family="FG Virgil" font-size="13" font-weight="bold" lengthAdjust="spacing" textLength="16" x="735.5" y="979.4775">alt</text><text fill="#000000" font-family="FG Virgil" font-size="11" font-weight="bold" lengthAdjust="spacing" textLength="161" x="796.5" y="978.3193">[requirementsFile is not null]</text><polygon fill="#181818" points="1987,1003.0313,1997,1007.0313,1987,1011.0313,1991,1007.0313" style="stroke:#181818;stroke-width:1.0;"/><line style="stroke:#181818;stroke-width:1.0;" x1="1574" x2="1993" y1="1007.0313" y2="1007.0313"/><text fill="#000000" font-family="FG Virgil" font-size="13" lengthAdjust="spacing" textLength="325" x="1581" y="1001.7686">generateTemplateResponses(requirementsSpecification)</text><polygon fill="#181818" points="1585,1034.3223,1575,1038.3223,1585,1042.3223,1581,1038.3223" style="stroke:#181818;stroke-width:1.0;"/><line style="stroke:#181818;stroke-width:1.0;stroke-dasharray:2.0,2.0;" x1="1579" x2="1998" y1="1038.3223" y2="1038.3223"/><text fill="#000000" font-family="FG Virgil" font-size="13" lengthAdjust="spacing" textLength="163" x="1591" y="1033.0596">templateResponsesFilePath</text><polygon fill="#181818" points="1987,1065.6133,1997,1069.6133,1987,1073.6133,1991,1069.6133" style="stroke:#181818;stroke-width:1.0;"/><line style="stroke:#181818;stroke-width:1.0;" x1="1574" x2="1993" y1="1069.6133" y2="1069.6133"/><text fill="#000000" font-family="FG Virgil" font-size="13" lengthAdjust="spacing" textLength="401" x="1581" y="1064.3506">evaluateFile(templateResponsesFilePath, candidateAnswersFilePath)</text><polygon fill="#181818" points="1585,1096.9043,1575,1100.9043,1585,1104.9043,1581,1100.9043" style="stroke:#181818;stroke-width:1.0;"/><line style="stroke:#181818;stroke-width:1.0;stroke-dasharray:2.0,2.0;" x1="1579" x2="1998" y1="1100.9043" y2="1100.9043"/><text fill="#000000" font-family="FG Virgil" font-size="13" lengthAdjust="spacing" textLength="97" x="1591" y="1095.6416">verificationResult</text><polygon fill="#181818" points="1221,1128.1953,1211,1132.1953,1221,1136.1953,1217,1132.1953" style="stroke:#181818;stroke-width:1.0;"/><line style="stroke:#181818;stroke-width:1.0;stroke-dasharray:2.0,2.0;" x1="1215" x2="1563" y1="1132.1953" y2="1132.1953"/><text fill="#000000" font-family="FG Virgil" font-size="13" lengthAdjust="spacing" textLength="330" x="1227" y="1126.9326">updateStateBasedOnVerificationResult(verificationResult)</text><line style="stroke:#181818;stroke-width:1.0;" x1="1210" x2="1252" y1="1163.4863" y2="1163.4863"/><line style="stroke:#181818;stroke-width:1.0;" x1="1252" x2="1252" y1="1163.4863" y2="1176.4863"/><line style="stroke:#181818;stroke-width:1.0;" x1="1211" x2="1252" y1="1176.4863" y2="1176.4863"/><polygon fill="#181818" points="1221,1172.4863,1211,1176.4863,1221,1180.4863,1217,1176.4863" style="stroke:#181818;stroke-width:1.0;"/><text fill="#000000" font-family="FG Virgil" font-size="13" lengthAdjust="spacing" textLength="115" x="1217" y="1158.2236">save(jobApplication)</text><polygon fill="#181818" points="848.5,1203.7773,838.5,1207.7773,848.5,1211.7773,844.5,1207.7773" style="stroke:#181818;stroke-width:1.0;"/><line style="stroke:#181818;stroke-width:1.0;stroke-dasharray:2.0,2.0;" x1="842.5" x2="1563" y1="1207.7773" y2="1207.7773"/><text fill="#000000" font-family="FG Virgil" font-size="13" lengthAdjust="spacing" textLength="123" x="854.5" y="1202.5146">Requirements verified</text><line style="stroke:#000000;stroke-width:1.0;stroke-dasharray:2.0,2.0;" x1="720.5" x2="2055.5" y1="1216.7773" y2="1216.7773"/><text fill="#000000" font-family="FG Virgil" font-size="11" font-weight="bold" lengthAdjust="spacing" textLength="140" x="725.5" y="1228.6475">[requirementsFile is null]</text><polygon fill="#181818" points="848.5,1251.6992,838.5,1255.6992,848.5,1259.6992,844.5,1255.6992" style="stroke:#181818;stroke-width:1.0;"/><line style="stroke:#181818;stroke-width:1.0;stroke-dasharray:2.0,2.0;" x1="842.5" x2="1563" y1="1255.6992" y2="1255.6992"/><text fill="#000000" font-family="FG Virgil" font-size="13" lengthAdjust="spacing" textLength="150" x="854.5" y="1250.4365">No requirements file found</text><polygon fill="#181818" points="453.5,1296.9902,443.5,1300.9902,453.5,1304.9902,449.5,1300.9902" style="stroke:#181818;stroke-width:1.0;"/><line style="stroke:#181818;stroke-width:1.0;stroke-dasharray:2.0,2.0;" x1="447.5" x2="826.5" y1="1300.9902" y2="1300.9902"/><text fill="#000000" font-family="FG Virgil" font-size="13" lengthAdjust="spacing" textLength="123" x="459.5" y="1295.7275">Requirements verified</text><polygon fill="#181818" points="97.5,1328.2813,87.5,1332.2813,97.5,1336.2813,93.5,1332.2813" style="stroke:#181818;stroke-width:1.0;"/><line style="stroke:#181818;stroke-width:1.0;stroke-dasharray:2.0,2.0;" x1="91.5" x2="431.5" y1="1332.2813" y2="1332.2813"/><text fill="#000000" font-family="FG Virgil" font-size="13" lengthAdjust="spacing" textLength="123" x="103.5" y="1327.0186">Requirements verified</text><line style="stroke:#000000;stroke-width:1.0;stroke-dasharray:2.0,2.0;" x1="10" x2="2235.5" y1="1341.2813" y2="1341.2813"/><text fill="#000000" font-family="FG Virgil" font-size="11" font-weight="bold" lengthAdjust="spacing" textLength="163" x="15" y="1353.1514">[response is "Cancel Action"]</text><polygon fill="#181818" points="97.5,1376.2031,87.5,1380.2031,97.5,1384.2031,93.5,1380.2031" style="stroke:#181818;stroke-width:1.0;"/><line style="stroke:#181818;stroke-width:1.0;stroke-dasharray:2.0,2.0;" x1="91.5" x2="431.5" y1="1380.2031" y2="1380.2031"/><text fill="#000000" font-family="FG Virgil" font-size="13" lengthAdjust="spacing" textLength="179" x="103.5" y="1374.9404">"Action cancelled by the user."</text><!--SRC=[xLfBR-Cs4BxhLn3feVPYdOStsOCG67NiRElivW4_iiU2aSOsDpIbafHJzzTtA2asPL6EZMmF1QH346bcldbnXkJ0ccaEP0H_9I0287r6Pv8kI8iyWcJJ5HaYXKbOWD3AqodpfMB_WDy-xJYapaxFBYvF34F7ytwTQntx9oSnfq8d2tuSH8iJzSn4J97xUAuNt5k_aaKaec0kemMGAUKAB59CWsSwWv5UeNe9WRPe8KnfmlMNIEWxYh9VVYUFJCwO3QtcD8nUc9Zbo1uDT2H9Br4QrSbRAX1T4gf8DoNymjbihfzu0Xu2Q1Qm63qWHtuM53icay6HaPiCoELbB47XDwfP93gTDqLxQBACE0UPGcnU4Oh6CMU16-acUhgFGQ0xGuWZnT3YLOhW8Y2MNB-ueBeRJMKu9_4GoEibvGb5nX789Gl00RpDWl0g-w-4BM7ACVief58WwnsbE7kIDBN8v9SjgOOidrwMrLO7q-Ix5ZQP8faQkqWUG0jYCl08FfXX1DWawSC7dmGIaAFHJ1dM0XiUpodfandeJQvKBcyUQmsWY2kVFfao4NOvjwGAsbr2tfhLHMsrEhPnFpQMEUn2PXD45zDaWCGqr3xfgcT5T4GKc0HbiNqDxIj_ofh1ZL8svUP3tCvMzApbexupFOyIRUSpJN5ERw2fGvY2D9tA5UbMfsgXvx6sT5sjx03ce1KQx8muuUsaE1dAYR5jgKnE5PzPXxYgx0onANcXfW0mLV0t10cQg-T0bbO0IJJ5GhDs0RBr5Afh22gEH5ZcebmZZ24g84oHetvKKdLKadBNpzBLIuD4OWOqNrNamtvATMO5hC-KbkmfIQCKlhv0aKbrSRkQZUVO04BLA4Py4AgFPFp7yBhR_xDtFxaRksseM1-MUgTO9NUQN3jAQUyiBW7xGJAv8xaBf74lO2EHDaIWmHnJPEY7Ht6xgxkIjaUYAeAqZRv7f4hRJ6jdXzrGhbPlLVgMql8Ul4TqVfJxtk6-xEXYHUhLQX2MLcrp3yq7EsNHdV3xEFUs8kEXlRA-C0wDAVvHpKgjMKCgofZ6929DHC9vfU1-9bjd4xDb2P2uZCUmmCEmXc7U25N3jc0KGx3kXSsT-jTrOQdPAM0VbLfxH5HlMsh2yq3r_6U61J86IDDLgV4Z2QW8MOYqhb0l8DUKvazrsTw9q0YyLBpBrvqbcSJ6dH7U5U2AAWZlnMD9UwDiKFC0YtQLgcsAealOwWNDzpfkxGn-yQIT-GHXfGR02vgxBjzRarlRurrKK4DCky1zBn4xRDj12y5PazuXEFQ6cfwd3efUyNotdrmURUjOrgEujt63ilD0jb5qbB6Q8aL13Y5vMgKdkmIlSSTb1EEyvuXQVi_Q-ffTu1o4FGy4bHAEStYHjtoBSl1PTxrNwc_eOBBWdfUFI_wRsKezDwdd9lNSf9wRr7EJUcvIpqtgkKazDwdd9lNSf9wRr7EJUcvIpqtgkSd_U6xoO7ukChdzPgAlJ8JEZjkdxVFZyyQ8QjAD9JdzJCuk_4-V_FOf-Nuz6XD3RtgDsy6Og2YHk6hN1z2qB6_eaf9X8ZHROCCo5jxqlxv-8DTYoMGaJCgzcyVR3SFdyzOLqyJ41fVMuwtNpuOcA1548JhfarvyrhveUz-ec2LqXk2nzdfO3DgqY8Vnlm00]--></g></svg>