<?xml version="1.0" encoding="us-ascii" standalone="no"?><svg xmlns="http://www.w3.org/2000/svg" xmlns:xlink="http://www.w3.org/1999/xlink" contentStyleType="text/css" height="965px" preserveAspectRatio="none" style="width:1685px;height:965px;background:#FFFFFF;" version="1.1" viewBox="0 0 1685 965" width="1685px" zoomAndPan="magnify"><defs><filter height="300%" id="f5fw1x7upsi5i" width="300%" x="-1" y="-1"><feGaussianBlur result="blurOut" stdDeviation="2.0"/><feColorMatrix in="blurOut" result="blurOut2" type="matrix" values="0 0 0 0 0 0 0 0 0 0 0 0 0 0 0 0 0 0 .4 0"/><feOffset dx="4.0" dy="4.0" in="blurOut2" result="blurOut3"/><feBlend in="SourceGraphic" in2="blurOut3" mode="normal"/></filter></defs><g><text fill="#000000" font-family="FG Virgil" font-size="20" font-weight="bold" lengthAdjust="spacing" textLength="284" x="698.25" y="34.3359">Sequence Diagram US 1001</text><rect fill="#FFFFFF" filter="url(#f5fw1x7upsi5i)" height="727.0508" style="stroke:#181818;stroke-width:1.0;" width="10" x="66.5" y="139.043"/><rect fill="#FFFFFF" filter="url(#f5fw1x7upsi5i)" height="690.4297" style="stroke:#181818;stroke-width:1.0;" width="10" x="320.5" y="175.6641"/><rect fill="#FFFFFF" filter="url(#f5fw1x7upsi5i)" height="466.2793" style="stroke:#181818;stroke-width:1.0;" width="10" x="573.5" y="370.5039"/><rect fill="#FFFFFF" filter="url(#f5fw1x7upsi5i)" height="87.9316" style="stroke:#181818;stroke-width:1.0;" width="10" x="854.5" y="631.6543"/><line style="stroke:#181818;stroke-width:0.5;stroke-dasharray:5.0,5.0;" x1="71" x2="71" y1="129.043" y2="884.0938"/><line style="stroke:#181818;stroke-width:0.5;stroke-dasharray:5.0,5.0;" x1="325.5" x2="325.5" y1="129.043" y2="884.0938"/><line style="stroke:#181818;stroke-width:0.5;stroke-dasharray:5.0,5.0;" x1="578.5" x2="578.5" y1="224.1523" y2="884.0938"/><line style="stroke:#181818;stroke-width:0.5;stroke-dasharray:5.0,5.0;" x1="731.5" x2="731.5" y1="129.043" y2="884.0938"/><line style="stroke:#181818;stroke-width:0.5;stroke-dasharray:5.0,5.0;" x1="859.5" x2="859.5" y1="472.6133" y2="884.0938"/><line style="stroke:#181818;stroke-width:0.5;stroke-dasharray:5.0,5.0;" x1="1262.5" x2="1262.5" y1="129.043" y2="884.0938"/><line style="stroke:#181818;stroke-width:0.5;stroke-dasharray:5.0,5.0;" x1="1428.5" x2="1428.5" y1="129.043" y2="884.0938"/><line style="stroke:#181818;stroke-width:0.5;stroke-dasharray:5.0,5.0;" x1="1597.5" x2="1597.5" y1="129.043" y2="884.0938"/><text fill="#000000" font-family="FG Virgil" font-size="14" lengthAdjust="spacing" textLength="127" x="5" y="126.0898">CustomerManager</text><ellipse cx="71.5" cy="58.0547" fill="#E3E3E3" filter="url(#f5fw1x7upsi5i)" rx="8" ry="8" style="stroke:#181818;stroke-width:0.5;"/><path d="M71.5,66.0547 L71.5,93.0547 M58.5,74.0547 L84.5,74.0547 M71.5,93.0547 L58.5,108.0547 M71.5,93.0547 L84.5,108.0547 " fill="none" filter="url(#f5fw1x7upsi5i)" style="stroke:#181818;stroke-width:0.5;"/><text fill="#000000" font-family="FG Virgil" font-size="14" lengthAdjust="spacing" textLength="127" x="5" y="896.6289">CustomerManager</text><ellipse cx="71.5" cy="908.082" fill="#E3E3E3" filter="url(#f5fw1x7upsi5i)" rx="8" ry="8" style="stroke:#181818;stroke-width:0.5;"/><path d="M71.5,916.082 L71.5,943.082 M58.5,924.082 L84.5,924.082 M71.5,943.082 L58.5,958.082 M71.5,943.082 L84.5,958.082 " fill="none" filter="url(#f5fw1x7upsi5i)" style="stroke:#181818;stroke-width:0.5;"/><rect fill="#E3E3E3" filter="url(#f5fw1x7upsi5i)" height="46.9766" rx="2.5" ry="2.5" style="stroke:#181818;stroke-width:0.5;" width="127" x="260.5" y="78.0664"/><text fill="#000000" font-family="FG Virgil" font-size="14" font-style="italic" lengthAdjust="spacing" textLength="101" x="273.5" y="98.6016">&#171;presentation&#187;</text><text fill="#000000" font-family="FG Virgil" font-size="14" lengthAdjust="spacing" textLength="113" x="267.5" y="115.0898">:AddCustomerUI</text><rect fill="#E3E3E3" filter="url(#f5fw1x7upsi5i)" height="46.9766" rx="2.5" ry="2.5" style="stroke:#181818;stroke-width:0.5;" width="127" x="260.5" y="883.0938"/><text fill="#000000" font-family="FG Virgil" font-size="14" font-style="italic" lengthAdjust="spacing" textLength="101" x="273.5" y="903.6289">&#171;presentation&#187;</text><text fill="#000000" font-family="FG Virgil" font-size="14" lengthAdjust="spacing" textLength="113" x="267.5" y="920.1172">:AddCustomerUI</text><rect fill="#E3E3E3" filter="url(#f5fw1x7upsi5i)" height="46.9766" rx="2.5" ry="2.5" style="stroke:#181818;stroke-width:0.5;" width="183" x="485.5" y="883.0938"/><text fill="#000000" font-family="FG Virgil" font-size="14" font-style="italic" lengthAdjust="spacing" textLength="90" x="532" y="903.6289">&#171;application&#187;</text><text fill="#000000" font-family="FG Virgil" font-size="14" lengthAdjust="spacing" textLength="169" x="492.5" y="920.1172">:AddCustomerController</text><rect fill="#E3E3E3" filter="url(#f5fw1x7upsi5i)" height="46.9766" rx="2.5" ry="2.5" style="stroke:#181818;stroke-width:0.5;" width="97" x="681.5" y="78.0664"/><text fill="#000000" font-family="FG Virgil" font-size="14" font-style="italic" lengthAdjust="spacing" textLength="63" x="698.5" y="98.6016">&#171;builder&#187;</text><text fill="#000000" font-family="FG Virgil" font-size="14" lengthAdjust="spacing" textLength="83" x="688.5" y="115.0898">:UserBuilder</text><rect fill="#E3E3E3" filter="url(#f5fw1x7upsi5i)" height="46.9766" rx="2.5" ry="2.5" style="stroke:#181818;stroke-width:0.5;" width="97" x="681.5" y="883.0938"/><text fill="#000000" font-family="FG Virgil" font-size="14" font-style="italic" lengthAdjust="spacing" textLength="63" x="698.5" y="903.6289">&#171;builder&#187;</text><text fill="#000000" font-family="FG Virgil" font-size="14" lengthAdjust="spacing" textLength="83" x="688.5" y="920.1172">:UserBuilder</text><rect fill="#E3E3E3" filter="url(#f5fw1x7upsi5i)" height="46.9766" rx="2.5" ry="2.5" style="stroke:#181818;stroke-width:0.5;" width="133" x="791.5" y="883.0938"/><text fill="#000000" font-family="FG Virgil" font-size="14" font-style="italic" lengthAdjust="spacing" textLength="63" x="826.5" y="903.6289">&#171;builder&#187;</text><text fill="#000000" font-family="FG Virgil" font-size="14" lengthAdjust="spacing" textLength="119" x="798.5" y="920.1172">:CustomerBuilder</text><rect fill="#E3E3E3" filter="url(#f5fw1x7upsi5i)" height="46.9766" rx="2.5" ry="2.5" style="stroke:#181818;stroke-width:0.5;" width="149" x="1186.5" y="78.0664"/><text fill="#000000" font-family="FG Virgil" font-size="14" font-style="italic" lengthAdjust="spacing" textLength="66" x="1228" y="98.6016">&#171;domain&#187;</text><text fill="#000000" font-family="FG Virgil" font-size="14" lengthAdjust="spacing" textLength="135" x="1193.5" y="115.0898">customer:Customer</text><rect fill="#E3E3E3" filter="url(#f5fw1x7upsi5i)" height="46.9766" rx="2.5" ry="2.5" style="stroke:#181818;stroke-width:0.5;" width="149" x="1186.5" y="883.0938"/><text fill="#000000" font-family="FG Virgil" font-size="14" font-style="italic" lengthAdjust="spacing" textLength="66" x="1228" y="903.6289">&#171;domain&#187;</text><text fill="#000000" font-family="FG Virgil" font-size="14" lengthAdjust="spacing" textLength="135" x="1193.5" y="920.1172">customer:Customer</text><rect fill="#E3E3E3" filter="url(#f5fw1x7upsi5i)" height="46.9766" rx="2.5" ry="2.5" style="stroke:#181818;stroke-width:0.5;" width="158" x="1348.5" y="78.0664"/><text fill="#000000" font-family="FG Virgil" font-size="14" font-style="italic" lengthAdjust="spacing" textLength="84" x="1385.5" y="98.6016">&#171;repository&#187;</text><text fill="#000000" font-family="FG Virgil" font-size="14" lengthAdjust="spacing" textLength="144" x="1355.5" y="115.0898">:CustomerRepository</text><rect fill="#E3E3E3" filter="url(#f5fw1x7upsi5i)" height="46.9766" rx="2.5" ry="2.5" style="stroke:#181818;stroke-width:0.5;" width="158" x="1348.5" y="883.0938"/><text fill="#000000" font-family="FG Virgil" font-size="14" font-style="italic" lengthAdjust="spacing" textLength="84" x="1385.5" y="903.6289">&#171;repository&#187;</text><text fill="#000000" font-family="FG Virgil" font-size="14" lengthAdjust="spacing" textLength="144" x="1355.5" y="920.1172">:CustomerRepository</text><rect fill="#E3E3E3" filter="url(#f5fw1x7upsi5i)" height="30.4883" rx="2.5" ry="2.5" style="stroke:#181818;stroke-width:0.5;" width="154" x="1519.5" y="94.5547"/><text fill="#000000" font-family="FG Virgil" font-size="14" lengthAdjust="spacing" textLength="140" x="1526.5" y="115.0898">CustomerRepository</text><rect fill="#E3E3E3" filter="url(#f5fw1x7upsi5i)" height="30.4883" rx="2.5" ry="2.5" style="stroke:#181818;stroke-width:0.5;" width="154" x="1519.5" y="883.0938"/><text fill="#000000" font-family="FG Virgil" font-size="14" lengthAdjust="spacing" textLength="140" x="1526.5" y="903.6289">CustomerRepository</text><rect fill="#FFFFFF" filter="url(#f5fw1x7upsi5i)" height="727.0508" style="stroke:#181818;stroke-width:1.0;" width="10" x="66.5" y="139.043"/><rect fill="#FFFFFF" filter="url(#f5fw1x7upsi5i)" height="690.4297" style="stroke:#181818;stroke-width:1.0;" width="10" x="320.5" y="175.6641"/><rect fill="#FFFFFF" filter="url(#f5fw1x7upsi5i)" height="466.2793" style="stroke:#181818;stroke-width:1.0;" width="10" x="573.5" y="370.5039"/><rect fill="#FFFFFF" filter="url(#f5fw1x7upsi5i)" height="87.9316" style="stroke:#181818;stroke-width:1.0;" width="10" x="854.5" y="631.6543"/><polygon fill="#181818" points="308.5,171.6641,318.5,175.6641,308.5,179.6641,312.5,175.6641" style="stroke:#181818;stroke-width:1.0;"/><line style="stroke:#181818;stroke-width:1.0;" x1="76.5" x2="314.5" y1="175.6641" y2="175.6641"/><text fill="#000000" font-family="FG Virgil" font-size="13" lengthAdjust="spacing" textLength="203" x="83.5" y="155.6113">Asks to register a new customer</text><text fill="#000000" font-family="FG Virgil" font-size="13" lengthAdjust="spacing" textLength="173" x="83.5" y="170.9219">and the corresponding user</text><polygon fill="#181818" points="473.5,200.9746,483.5,204.9746,473.5,208.9746,477.5,204.9746" style="stroke:#181818;stroke-width:1.0;"/><line style="stroke:#181818;stroke-width:1.0;" x1="330.5" x2="479.5" y1="204.9746" y2="204.9746"/><text fill="#000000" font-family="FG Virgil" font-size="13" lengthAdjust="spacing" textLength="38" x="337.5" y="200.2324">create</text><rect fill="#E3E3E3" filter="url(#f5fw1x7upsi5i)" height="46.9766" rx="2.5" ry="2.5" style="stroke:#181818;stroke-width:0.5;" width="183" x="485.5" y="183.6641"/><text fill="#000000" font-family="FG Virgil" font-size="14" font-style="italic" lengthAdjust="spacing" textLength="90" x="532" y="204.1992">&#171;application&#187;</text><text fill="#000000" font-family="FG Virgil" font-size="14" lengthAdjust="spacing" textLength="169" x="492.5" y="220.6875">:AddCustomerController</text><polygon fill="#181818" points="87.5,277.2617,77.5,281.2617,87.5,285.2617,83.5,281.2617" style="stroke:#181818;stroke-width:1.0;"/><line style="stroke:#181818;stroke-width:1.0;stroke-dasharray:2.0,2.0;" x1="81.5" x2="319.5" y1="281.2617" y2="281.2617"/><text fill="#000000" font-family="FG Virgil" font-size="13" lengthAdjust="spacing" textLength="211" x="93.5" y="261.209">Ask customer information (name,</text><text fill="#000000" font-family="FG Virgil" font-size="13" lengthAdjust="spacing" textLength="217" x="93.5" y="276.5195">email, phone number and address)</text><polygon fill="#181818" points="308.5,321.8828,318.5,325.8828,308.5,329.8828,312.5,325.8828" style="stroke:#181818;stroke-width:1.0;"/><line style="stroke:#181818;stroke-width:1.0;" x1="76.5" x2="314.5" y1="325.8828" y2="325.8828"/><text fill="#000000" font-family="FG Virgil" font-size="13" lengthAdjust="spacing" textLength="216" x="83.5" y="305.8301">Types name, email, phone number</text><text fill="#000000" font-family="FG Virgil" font-size="13" lengthAdjust="spacing" textLength="180" x="83.5" y="321.1406">and address of the customer</text><polygon fill="#181818" points="561.5,366.5039,571.5,370.5039,561.5,374.5039,565.5,370.5039" style="stroke:#181818;stroke-width:1.0;"/><line style="stroke:#181818;stroke-width:1.0;" x1="330.5" x2="567.5" y1="370.5039" y2="370.5039"/><text fill="#000000" font-family="FG Virgil" font-size="13" lengthAdjust="spacing" textLength="220" x="337.5" y="350.4512">registerNewCustomer(name, email,</text><text fill="#000000" font-family="FG Virgil" font-size="13" lengthAdjust="spacing" textLength="150" x="337.5" y="365.7617">phoneNumber, address)</text><path d="M864,383.5039 L864,423.5039 L1101,423.5039 L1101,393.5039 L1091,383.5039 L864,383.5039 " fill="#FAFAFA" filter="url(#f5fw1x7upsi5i)" style="stroke:#181818;stroke-width:0.5;"/><path d="M1091,383.5039 L1091,393.5039 L1101,393.5039 L1091,383.5039 " fill="#FAFAFA" style="stroke:#181818;stroke-width:0.5;"/><text fill="#000000" font-family="FG Virgil" font-size="13" lengthAdjust="spacing" textLength="212" x="870" y="401.0723">CustomerBuilder is used to create</text><text fill="#000000" font-family="FG Virgil" font-size="13" lengthAdjust="spacing" textLength="146" x="870" y="416.3828">a valid Customer entity</text><polygon fill="#181818" points="779.5,449.4355,789.5,453.4355,779.5,457.4355,783.5,453.4355" style="stroke:#181818;stroke-width:1.0;"/><line style="stroke:#181818;stroke-width:1.0;" x1="583.5" x2="785.5" y1="453.4355" y2="453.4355"/><text fill="#000000" font-family="FG Virgil" font-size="13" lengthAdjust="spacing" textLength="38" x="590.5" y="448.6934">create</text><rect fill="#E3E3E3" filter="url(#f5fw1x7upsi5i)" height="46.9766" rx="2.5" ry="2.5" style="stroke:#181818;stroke-width:0.5;" width="133" x="791.5" y="432.125"/><text fill="#000000" font-family="FG Virgil" font-size="14" font-style="italic" lengthAdjust="spacing" textLength="63" x="826.5" y="452.6602">&#171;builder&#187;</text><text fill="#000000" font-family="FG Virgil" font-size="14" lengthAdjust="spacing" textLength="119" x="798.5" y="469.1484">:CustomerBuilder</text><polygon fill="#181818" points="847.5,510.4121,857.5,514.4121,847.5,518.4121,851.5,514.4121" style="stroke:#181818;stroke-width:1.0;"/><line style="stroke:#181818;stroke-width:1.0;" x1="583.5" x2="853.5" y1="514.4121" y2="514.4121"/><text fill="#000000" font-family="FG Virgil" font-size="13" lengthAdjust="spacing" textLength="105" x="590.5" y="509.6699">withName(name)</text><polygon fill="#181818" points="847.5,539.7227,857.5,543.7227,847.5,547.7227,851.5,543.7227" style="stroke:#181818;stroke-width:1.0;"/><line style="stroke:#181818;stroke-width:1.0;" x1="583.5" x2="853.5" y1="543.7227" y2="543.7227"/><text fill="#000000" font-family="FG Virgil" font-size="13" lengthAdjust="spacing" textLength="103" x="590.5" y="538.9805">withEmail(email)</text><polygon fill="#181818" points="847.5,569.0332,857.5,573.0332,847.5,577.0332,851.5,573.0332" style="stroke:#181818;stroke-width:1.0;"/><line style="stroke:#181818;stroke-width:1.0;" x1="583.5" x2="853.5" y1="573.0332" y2="573.0332"/><text fill="#000000" font-family="FG Virgil" font-size="13" lengthAdjust="spacing" textLength="212" x="590.5" y="568.291">withPhoneNumber(phoneNumber)</text><polygon fill="#181818" points="847.5,598.3438,857.5,602.3438,847.5,606.3438,851.5,602.3438" style="stroke:#181818;stroke-width:1.0;"/><line style="stroke:#181818;stroke-width:1.0;" x1="583.5" x2="853.5" y1="602.3438" y2="602.3438"/><text fill="#000000" font-family="FG Virgil" font-size="13" lengthAdjust="spacing" textLength="135" x="590.5" y="597.6016">withAddress(address)</text><polygon fill="#181818" points="842.5,627.6543,852.5,631.6543,842.5,635.6543,846.5,631.6543" style="stroke:#181818;stroke-width:1.0;"/><line style="stroke:#181818;stroke-width:1.0;" x1="583.5" x2="848.5" y1="631.6543" y2="631.6543"/><text fill="#000000" font-family="FG Virgil" font-size="13" lengthAdjust="spacing" textLength="144" x="590.5" y="626.9121">registerNewCustomer()</text><polygon fill="#181818" points="1250.5,656.9648,1260.5,660.9648,1250.5,664.9648,1254.5,660.9648" style="stroke:#181818;stroke-width:1.0;"/><line style="stroke:#181818;stroke-width:1.0;" x1="864.5" x2="1256.5" y1="660.9648" y2="660.9648"/><text fill="#000000" font-family="FG Virgil" font-size="13" lengthAdjust="spacing" textLength="374" x="871.5" y="656.2227">registerNewCustomer(name, email, phoneNumber, address)</text><polygon fill="#181818" points="875.5,686.2754,865.5,690.2754,875.5,694.2754,871.5,690.2754" style="stroke:#181818;stroke-width:1.0;"/><line style="stroke:#181818;stroke-width:1.0;stroke-dasharray:2.0,2.0;" x1="869.5" x2="1261.5" y1="690.2754" y2="690.2754"/><text fill="#000000" font-family="FG Virgil" font-size="13" lengthAdjust="spacing" textLength="59" x="881.5" y="685.5332">customer</text><polygon fill="#181818" points="594.5,715.5859,584.5,719.5859,594.5,723.5859,590.5,719.5859" style="stroke:#181818;stroke-width:1.0;"/><line style="stroke:#181818;stroke-width:1.0;stroke-dasharray:2.0,2.0;" x1="588.5" x2="858.5" y1="719.5859" y2="719.5859"/><text fill="#000000" font-family="FG Virgil" font-size="13" lengthAdjust="spacing" textLength="59" x="600.5" y="714.8438">customer</text><polygon fill="#181818" points="1586,744.8965,1596,748.8965,1586,752.8965,1590,748.8965" style="stroke:#181818;stroke-width:1.0;"/><line style="stroke:#181818;stroke-width:1.0;" x1="583.5" x2="1592" y1="748.8965" y2="748.8965"/><text fill="#000000" font-family="FG Virgil" font-size="13" lengthAdjust="spacing" textLength="95" x="590.5" y="744.1543">save(customer)</text><rect fill="none" filter="url(#f5fw1x7upsi5i)" height="53.5762" style="stroke:#000000;stroke-width:1.5;" width="189" x="482.5" y="756.8965"/><path d="M482.5,756.8965 L546.5,756.8965 L546.5,763.8965 L536.5,773.8965 L482.5,773.8965 L482.5,756.8965 " fill="#EEEEEE" style="stroke:#000000;stroke-width:2.0;"/><text fill="#000000" font-family="FG Virgil" font-size="13" font-weight="bold" lengthAdjust="spacing" textLength="19" x="495.5" y="771.4648">ref</text><text fill="#000000" font-family="FG Virgil" font-size="12" lengthAdjust="spacing" textLength="64" x="546.5" y="789.498">UC 1000.1</text><text fill="#000000" font-family="FG Virgil" font-size="12" lengthAdjust="spacing" textLength="4" x="576.5" y="803.6309">&#160;</text><polygon fill="#181818" points="341.5,832.7832,331.5,836.7832,341.5,840.7832,337.5,836.7832" style="stroke:#181818;stroke-width:1.0;"/><line style="stroke:#181818;stroke-width:1.0;stroke-dasharray:2.0,2.0;" x1="335.5" x2="577.5" y1="836.7832" y2="836.7832"/><text fill="#000000" font-family="FG Virgil" font-size="13" lengthAdjust="spacing" textLength="59" x="347.5" y="832.041">customer</text><polygon fill="#181818" points="82.5,862.0938,72.5,866.0938,82.5,870.0938,78.5,866.0938" style="stroke:#181818;stroke-width:1.0;"/><line style="stroke:#181818;stroke-width:1.0;stroke-dasharray:2.0,2.0;" x1="76.5" x2="324.5" y1="866.0938" y2="866.0938"/><text fill="#000000" font-family="FG Virgil" font-size="13" lengthAdjust="spacing" textLength="157" x="88.5" y="861.3516">displayOperationSuccess</text><!--SRC=[bLLDZzem4BtdLumu0M9Rw14X9CfsAmwbLIbxseit7e95i5FR0T5Vtx7puOGDsiK75DlptioycJ5Ms1HXPiG_d7uPppVuDqSP8pmAbcXsXEq69kFnPFRPMSoZo1o4p9YxEIgfuhrMHmIhSspSP2m-i0GtzaBK6cFRkEEuOtbgdvIqQqRGf-_mB7GYqeQDsJEkpa8c1N74OgiqB7DZoPd-mIIHQs065kuY8f0LiSYOjD2RBZYlBBUhdhFQhc0sopGQb9PPeUHyVXkpfC2qIbFK7XksnC6oB1LnDyNMeFwQYvINmCQUaA_5rnjKvRM9l3gxZOvBmvh5mn_LaGcv91ZtNpTz_iPC6K42NdfahEiT0PpYuiGibWhxNtYOavHJM9Y30Qkei8amrXK299wXYWPU99CSx1uXLffKpvJahfOvAHA8jwi8Q55jY3QeF1nE8TP85lKrtNl_tdDm8-HEwQCl1lGbjTA8F2Dbd8uWsok98FFZgmkFec6SKoHcu4bRsVovP6YWm7UXYsnAFAXTaLWPHDIPmxIMPetdIkr-oyMBz4xMtiUe7LujKM3qvsv9HUTQ97lhGhdgbEcRrX76gSvTjGfHNJfmOgdWjItGL0XxgLqqEjvbrMOS3g5LdtS1P7uMTkz6tIimk0lspQdLzvhT1_mLrEqtbBwFP55KfT-gpaV0NUKFw53VDZ3GNn6IZsgeFz1QjnlBhOheeJFmkgzlXj9gz2u4nvlvlQDVU8-8rx0JzYloGO1gt84w4R1ZEFmiBjtVrVZJ941GycBJTEkd_ph-Pko1lfnnWfJF41ScIzdbPuRQFp-RF8v9vAW1fzUjiVEu_m00]--></g></svg>