<?xml version="1.0" encoding="us-ascii" standalone="no"?><svg xmlns="http://www.w3.org/2000/svg" xmlns:xlink="http://www.w3.org/1999/xlink" contentStyleType="text/css" height="593px" preserveAspectRatio="none" style="width:389px;height:593px;background:#FFFFFF;" version="1.1" viewBox="0 0 389 593" width="389px" zoomAndPan="magnify"><defs/><g><text fill="#000000" font-family="sans-serif" font-size="20" font-weight="bold" lengthAdjust="spacing" textLength="284" x="45.5" y="29.3359">Code Interaction - US 2001</text><!--class ApplicationFileBot--><g id="elem_ApplicationFileBot"><rect codeLine="4" fill="#F1F1F1" height="328.3008" id="ApplicationFileBot" rx="2.5" ry="2.5" style="stroke:#181818;stroke-width:0.5;" width="375" x="7" y="258.5547"/><ellipse cx="155.25" cy="274.5547" fill="#F1F1F1" rx="11" ry="11" style="stroke:#181818;stroke-width:1.0;"/><path d="M154.7334,275.1177 Q152.8823,274.4121 152.2266,273.636 Q151.5708,272.8599 151.5708,271.5483 Q151.5708,269.8633 152.6499,268.9004 Q153.729,267.9375 155.6133,267.9375 Q156.4683,267.9375 157.3232,268.1326 Q158.1782,268.3276 159.0166,268.7095 L159.0166,271.1001 Q158.228,270.5439 157.4146,270.2534 Q156.6011,269.9629 155.8042,269.9629 Q154.916,269.9629 154.4429,270.3198 Q153.9697,270.6768 153.9697,271.3408 Q153.9697,271.8555 154.3142,272.1917 Q154.6587,272.5278 155.7544,272.9346 L156.8086,273.333 Q158.3027,273.8809 159.0083,274.7856 Q159.7139,275.6904 159.7139,277.0684 Q159.7139,278.9443 158.6057,279.8699 Q157.4976,280.7954 155.2563,280.7954 Q154.335,280.7954 153.4094,280.5754 Q152.4839,280.3555 151.6206,279.9238 L151.6206,277.3921 Q152.6001,278.0894 153.5173,278.4297 Q154.4346,278.77 155.3311,278.77 Q156.2358,278.77 156.7339,278.3591 Q157.2319,277.9482 157.2319,277.2095 Q157.2319,276.6533 156.8999,276.2341 Q156.5679,275.8149 155.937,275.5742 Z " fill="#000000"/><text fill="#000000" font-family="sans-serif" font-size="14" lengthAdjust="spacing" textLength="70" x="175.75" y="279.8457">us_2001.c</text><line style="stroke:#181818;stroke-width:0.5;" x1="8" x2="381" y1="290.5547" y2="290.5547"/><rect fill="none" height="6" style="stroke:#C82930;stroke-width:1.0;" width="6" x="15" y="301.2988"/><text fill="#000000" font-family="sans-serif" font-size="14" lengthAdjust="spacing" textLength="146" x="27" y="308.0898">inputDirectory: string</text><rect fill="none" height="6" style="stroke:#C82930;stroke-width:1.0;" width="6" x="15" y="317.7871"/><text fill="#000000" font-family="sans-serif" font-size="14" lengthAdjust="spacing" textLength="156" x="27" y="324.5781">outputDirectory: string</text><rect fill="none" height="6" style="stroke:#C82930;stroke-width:1.0;" width="6" x="15" y="334.2754"/><text fill="#000000" font-family="sans-serif" font-size="14" lengthAdjust="spacing" textLength="113" x="27" y="341.0664">numWorkers: int</text><rect fill="none" height="6" style="stroke:#C82930;stroke-width:1.0;" width="6" x="15" y="350.7637"/><text fill="#000000" font-family="sans-serif" font-size="14" lengthAdjust="spacing" textLength="107" x="27" y="357.5547">timeInterval: int</text><rect fill="none" height="6" style="stroke:#C82930;stroke-width:1.0;" width="6" x="15" y="367.252"/><text fill="#000000" font-family="sans-serif" font-size="14" lengthAdjust="spacing" textLength="94" x="27" y="374.043">running: bool</text><rect fill="none" height="6" style="stroke:#C82930;stroke-width:1.0;" width="6" x="15" y="383.7402"/><text fill="#000000" font-family="sans-serif" font-size="14" lengthAdjust="spacing" textLength="92" x="27" y="390.5313">pipeFd: int[2]</text><rect fill="none" height="6" style="stroke:#C82930;stroke-width:1.0;" width="6" x="15" y="400.2285"/><text fill="#000000" font-family="sans-serif" font-size="14" lengthAdjust="spacing" textLength="261" x="27" y="407.0195">workerPipeFds: int[NUM_WORKERS][2]</text><line style="stroke:#181818;stroke-width:0.5;" x1="8" x2="381" y1="413.9727" y2="413.9727"/><ellipse cx="18" cy="427.7168" fill="#84BE84" rx="3" ry="3" style="stroke:#038048;stroke-width:1.0;"/><text fill="#000000" font-family="sans-serif" font-size="14" lengthAdjust="spacing" textLength="349" x="27" y="431.5078">extract_job_reference(file_path: const char*): char*</text><ellipse cx="18" cy="444.2051" fill="#84BE84" rx="3" ry="3" style="stroke:#038048;stroke-width:1.0;"/><text fill="#000000" font-family="sans-serif" font-size="14" lengthAdjust="spacing" textLength="345" x="27" y="447.9961">extract_application_number(path: const char*): int</text><ellipse cx="18" cy="460.6934" fill="#84BE84" rx="3" ry="3" style="stroke:#038048;stroke-width:1.0;"/><text fill="#000000" font-family="sans-serif" font-size="14" lengthAdjust="spacing" textLength="209" x="27" y="464.4844">mkdir_p(path: const char*): int</text><ellipse cx="18" cy="477.1816" fill="#84BE84" rx="3" ry="3" style="stroke:#038048;stroke-width:1.0;"/><text fill="#000000" font-family="sans-serif" font-size="14" lengthAdjust="spacing" textLength="222" x="27" y="480.9727">process_file(worker_id: int): void</text><ellipse cx="18" cy="493.6699" fill="#84BE84" rx="3" ry="3" style="stroke:#038048;stroke-width:1.0;"/><text fill="#000000" font-family="sans-serif" font-size="14" lengthAdjust="spacing" textLength="217" x="27" y="497.4609">distribute_file_to_worker(): void</text><ellipse cx="18" cy="510.1582" fill="#84BE84" rx="3" ry="3" style="stroke:#038048;stroke-width:1.0;"/><text fill="#000000" font-family="sans-serif" font-size="14" lengthAdjust="spacing" textLength="317" x="27" y="513.9492">monitor_directory(directory: const char*): void</text><ellipse cx="18" cy="526.6465" fill="#84BE84" rx="3" ry="3" style="stroke:#038048;stroke-width:1.0;"/><text fill="#000000" font-family="sans-serif" font-size="14" lengthAdjust="spacing" textLength="125" x="27" y="530.4375">createPipes(): void</text><ellipse cx="18" cy="543.1348" fill="#84BE84" rx="3" ry="3" style="stroke:#038048;stroke-width:1.0;"/><text fill="#000000" font-family="sans-serif" font-size="14" lengthAdjust="spacing" textLength="310" x="27" y="546.9258">generate_report(outputDir: const char*): void</text><ellipse cx="18" cy="559.623" fill="#84BE84" rx="3" ry="3" style="stroke:#038048;stroke-width:1.0;"/><text fill="#000000" font-family="sans-serif" font-size="14" lengthAdjust="spacing" textLength="209" x="27" y="563.4141">handle_signal(signal: int): void</text><ellipse cx="18" cy="576.1113" fill="#84BE84" rx="3" ry="3" style="stroke:#038048;stroke-width:1.0;"/><text fill="#000000" font-family="sans-serif" font-size="14" lengthAdjust="spacing" textLength="70" x="27" y="579.9023">main(): int</text></g><!--class UnitTests--><g id="elem_UnitTests"><rect codeLine="25" fill="#F1F1F1" height="130.4414" id="UnitTests" rx="2.5" ry="2.5" style="stroke:#181818;stroke-width:0.5;" width="305" x="42" y="51.5547"/><ellipse cx="164.25" cy="67.5547" fill="#F1F1F1" rx="11" ry="11" style="stroke:#181818;stroke-width:1.0;"/><path d="M163.7334,68.1177 Q161.8823,67.4121 161.2266,66.636 Q160.5708,65.8599 160.5708,64.5483 Q160.5708,62.8633 161.6499,61.9004 Q162.729,60.9375 164.6133,60.9375 Q165.4683,60.9375 166.3232,61.1326 Q167.1782,61.3276 168.0166,61.7095 L168.0166,64.1001 Q167.228,63.5439 166.4146,63.2534 Q165.6011,62.9629 164.8042,62.9629 Q163.916,62.9629 163.4429,63.3198 Q162.9697,63.6768 162.9697,64.3408 Q162.9697,64.8555 163.3142,65.1917 Q163.6587,65.5278 164.7544,65.9346 L165.8086,66.333 Q167.3027,66.8809 168.0083,67.7856 Q168.7139,68.6904 168.7139,70.0684 Q168.7139,71.9443 167.6057,72.8699 Q166.4976,73.7954 164.2563,73.7954 Q163.335,73.7954 162.4094,73.5754 Q161.4839,73.3555 160.6206,72.9238 L160.6206,70.3921 Q161.6001,71.0894 162.5173,71.4297 Q163.4346,71.77 164.3311,71.77 Q165.2358,71.77 165.7339,71.3591 Q166.2319,70.9482 166.2319,70.2095 Q166.2319,69.6533 165.8999,69.2341 Q165.5679,68.8149 164.937,68.5742 Z " fill="#000000"/><text fill="#000000" font-family="sans-serif" font-size="14" lengthAdjust="spacing" textLength="52" x="184.75" y="72.8457">utests.c</text><line style="stroke:#181818;stroke-width:0.5;" x1="43" x2="346" y1="83.5547" y2="83.5547"/><line style="stroke:#181818;stroke-width:0.5;" x1="43" x2="346" y1="91.5547" y2="91.5547"/><ellipse cx="53" cy="105.2988" fill="#84BE84" rx="3" ry="3" style="stroke:#038048;stroke-width:1.0;"/><text fill="#000000" font-family="sans-serif" font-size="14" lengthAdjust="spacing" textLength="279" x="62" y="109.0898">test_extract_application_number(): char*</text><ellipse cx="53" cy="121.7871" fill="#84BE84" rx="3" ry="3" style="stroke:#038048;stroke-width:1.0;"/><text fill="#000000" font-family="sans-serif" font-size="14" lengthAdjust="spacing" textLength="236" x="62" y="125.5781">test_extract_job_reference(): char*</text><ellipse cx="53" cy="138.2754" fill="#84BE84" rx="3" ry="3" style="stroke:#038048;stroke-width:1.0;"/><text fill="#000000" font-family="sans-serif" font-size="14" lengthAdjust="spacing" textLength="143" x="62" y="142.0664">test_mkdir_p(): char*</text><ellipse cx="53" cy="154.7637" fill="#84BE84" rx="3" ry="3" style="stroke:#038048;stroke-width:1.0;"/><text fill="#000000" font-family="sans-serif" font-size="14" lengthAdjust="spacing" textLength="110" x="62" y="158.5547">all_tests(): char*</text><ellipse cx="53" cy="171.252" fill="#84BE84" rx="3" ry="3" style="stroke:#038048;stroke-width:1.0;"/><text fill="#000000" font-family="sans-serif" font-size="14" lengthAdjust="spacing" textLength="216" x="62" y="175.043">main(argc: int, argv: char**): int</text></g><!--link UnitTests to ApplicationFileBot--><g id="link_UnitTests_ApplicationFileBot"><path codeLine="33" d="M194.5,182.0247 C194.5,204.6847 194.5,225.2747 194.5,252.3447 " fill="none" id="UnitTests-to-ApplicationFileBot" style="stroke:#181818;stroke-width:1.0;stroke-dasharray:7.0,7.0;"/><polygon fill="#181818" points="194.5,258.3447,198.5,249.3447,194.5,253.3447,190.5,249.3447,194.5,258.3447" style="stroke:#181818;stroke-width:1.0;"/><text fill="#000000" font-family="sans-serif" font-size="13" lengthAdjust="spacing" textLength="31" x="195.5" y="225.123">tests</text></g><!--SRC=[XLFBRkCm3BpdAuYUl4sRpUPe506wVG15iG-q3Nee2a6HsKIjBGaKdNrX_tqbMMaI8yZw8fiSZZWScZNN26TU_yPoCfvUs0hXnZ2ILAojWLEOtSDaFFvqzZ5YfeE1PseLmr7hHOoFr1583-VErLh9M7EjQ_ni6VuC83ode8rh-L8JAhRqguH0eCqY9stB1xAcRHujlI7vCj1mZh9kCFMualLsd5fZGcq9Sslh77FQuNMLK4-JvnpyaJY_frJ7_FHrzaKyVhkxlRgxVux0X1m2_kGu2V5gvuBm1GcDmk8bA1HEyh84POrdK4j9nn_AxkoLoiraHD0pHohsbQvb3A5vgpG9zn-K8wlGUn5xAJf1GdT20svbTPM1bOuZdRUC2IlOYWvUxE8QQtImG5HhBufguyfk5rjLYb0onb7w7jy2JTYYS2kXiyJ5kzC7s9RILA55hnT6raLtx97KI6sAF8s_Mnl9wDddXPm5DG_nE-_X469M772bvzyEVDV_VSYrQxsSh6kHskedaWP92vLad41uNMN4yKRQHiLeDDtpavNfSZ_u1m00]--></g></svg>