<?xml version="1.0" encoding="us-ascii" standalone="no"?><svg xmlns="http://www.w3.org/2000/svg" xmlns:xlink="http://www.w3.org/1999/xlink" contentStyleType="text/css" height="550.8px" preserveAspectRatio="none" style="width:969px;height:550px;background:#FFFFFF;" version="1.1" viewBox="0 0 969 550" width="969.6px" zoomAndPan="magnify"><defs/><g><text fill="#000000" font-family="FG Virgil" font-size="12" font-weight="bold" lengthAdjust="spacing" textLength="136.2" x="417.75" y="19.8633">Sequence Diagram 1018</text><rect fill="#FFFFFF" height="417.45" style="stroke:#181818;stroke-width:0.6;" width="6" x="36.9" y="80.3906"/><rect fill="#FFFFFF" height="399.7359" style="stroke:#181818;stroke-width:0.6;" width="6" x="192.3" y="92.7047"/><rect fill="#FFFFFF" height="297.5109" style="stroke:#181818;stroke-width:0.6;" width="6" x="308.1" y="177.8156"/><rect fill="#FFFFFF" height="280.3969" style="stroke:#181818;stroke-width:0.6;" width="6" x="423.9" y="194.9297"/><rect fill="#FFFFFF" height="17.1141" style="stroke:#181818;stroke-width:0.6;" width="6" x="614.7" y="212.0438"/><rect fill="#FFFFFF" height="17.1141" style="stroke:#181818;stroke-width:0.6;" width="6" x="722.4" y="288.6141"/><rect fill="#FFFFFF" height="18" style="stroke:#181818;stroke-width:0.6;" width="6" x="722.4" y="406.2984"/><rect fill="#FFFFFF" height="17.1141" style="stroke:#181818;stroke-width:0.6;" width="6" x="824.7" y="336.9563"/><rect fill="#FFFFFF" height="18" style="stroke:#181818;stroke-width:0.6;" width="6" x="906.6" y="371.1844"/><rect fill="none" height="203.5406" style="stroke:#000000;stroke-width:0.8999999999999999;" width="611.4" x="354.9" y="238.1578"/><rect fill="none" height="185.2266" style="stroke:#000000;stroke-width:0.8999999999999999;" width="599.4" x="360.9" y="252.2719"/><rect fill="none" height="166.9125" style="stroke:#000000;stroke-width:0.8999999999999999;" width="587.4" x="366.9" y="266.3859"/><rect fill="none" height="114.3703" style="stroke:#000000;stroke-width:0.8999999999999999;" width="575.4" x="372.9" y="314.7281"/><line style="stroke:#181818;stroke-width:0.3;stroke-dasharray:5.0,5.0;" x1="39.6" x2="39.6" y1="74.3906" y2="503.2406"/><line style="stroke:#181818;stroke-width:0.3;stroke-dasharray:5.0,5.0;" x1="195" x2="195" y1="74.3906" y2="503.2406"/><line style="stroke:#181818;stroke-width:0.3;stroke-dasharray:5.0,5.0;" x1="310.8" x2="310.8" y1="154.6172" y2="503.2406"/><line style="stroke:#181818;stroke-width:0.3;stroke-dasharray:5.0,5.0;" x1="426.9" x2="426.9" y1="74.3906" y2="503.2406"/><line style="stroke:#181818;stroke-width:0.3;stroke-dasharray:5.0,5.0;" x1="617.7" x2="617.7" y1="74.3906" y2="503.2406"/><line style="stroke:#181818;stroke-width:0.3;stroke-dasharray:5.0,5.0;" x1="725.1" x2="725.1" y1="74.3906" y2="503.2406"/><line style="stroke:#181818;stroke-width:0.3;stroke-dasharray:5.0,5.0;" x1="827.7" x2="827.7" y1="74.3906" y2="503.2406"/><line style="stroke:#181818;stroke-width:0.3;stroke-dasharray:5.0,5.0;" x1="909.3" x2="909.3" y1="74.3906" y2="503.2406"/><text fill="#000000" font-family="FG Virgil" font-size="8.4" lengthAdjust="spacing" textLength="70.2" x="3" y="72.6105">CustomerManager</text><ellipse cx="39.9" cy="34.1062" fill="#ADD8E6" rx="4.8" ry="4.8" style="stroke:#181818;stroke-width:0.3;"/><path d="M39.9,38.9063 L39.9,55.1062 M32.1,43.7063 L47.7,43.7063 M39.9,55.1062 L32.1,64.1063 M39.9,55.1062 L47.7,64.1063 " fill="none" style="stroke:#181818;stroke-width:0.3;"/><text fill="#000000" font-family="FG Virgil" font-size="8.4" lengthAdjust="spacing" textLength="70.2" x="3" y="510.2449">CustomerManager</text><ellipse cx="39.9" cy="517.125" fill="#ADD8E6" rx="4.8" ry="4.8" style="stroke:#181818;stroke-width:0.3;"/><path d="M39.9,521.925 L39.9,538.125 M32.1,526.725 L47.7,526.725 M39.9,538.125 L32.1,547.125 M39.9,538.125 L47.7,547.125 " fill="none" style="stroke:#181818;stroke-width:0.3;"/><rect fill="#E2E2F0" height="27.1688" rx="1.5" ry="1.5" style="stroke:#181818;stroke-width:0.3;" width="75" x="157.8" y="46.6219"/><text fill="#000000" font-family="FG Virgil" font-size="8.4" font-style="italic" lengthAdjust="spacing" textLength="57" x="166.8" y="58.4262">&#171;presentation&#187;</text><text fill="#000000" font-family="FG Virgil" font-size="8.4" lengthAdjust="spacing" textLength="66.6" x="162" y="67.8105">:GradeInterviewUI</text><rect fill="#E2E2F0" height="27.1688" rx="1.5" ry="1.5" style="stroke:#181818;stroke-width:0.3;" width="75" x="157.8" y="502.6406"/><text fill="#000000" font-family="FG Virgil" font-size="8.4" font-style="italic" lengthAdjust="spacing" textLength="57" x="166.8" y="514.4449">&#171;presentation&#187;</text><text fill="#000000" font-family="FG Virgil" font-size="8.4" lengthAdjust="spacing" textLength="66.6" x="162" y="523.8293">:GradeInterviewUI</text><rect fill="#E2E2F0" height="27.1688" rx="1.5" ry="1.5" style="stroke:#181818;stroke-width:0.3;" width="105" x="258.6" y="502.6406"/><text fill="#000000" font-family="FG Virgil" font-size="8.4" font-style="italic" lengthAdjust="spacing" textLength="50.4" x="285.9" y="514.4449">&#171;application&#187;</text><text fill="#000000" font-family="FG Virgil" font-size="8.4" lengthAdjust="spacing" textLength="96.6" x="262.8" y="523.8293">:GradeInterviewController</text><rect fill="#E2E2F0" height="27.1688" rx="1.5" ry="1.5" style="stroke:#181818;stroke-width:0.3;" width="96" x="378.9" y="46.6219"/><text fill="#000000" font-family="FG Virgil" font-size="8.4" font-style="italic" lengthAdjust="spacing" textLength="36" x="408.9" y="58.4262">&#171;service&#187;</text><text fill="#000000" font-family="FG Virgil" font-size="8.4" lengthAdjust="spacing" textLength="87.6" x="383.1" y="67.8105">:GradeInterviewService</text><rect fill="#E2E2F0" height="27.1688" rx="1.5" ry="1.5" style="stroke:#181818;stroke-width:0.3;" width="96" x="378.9" y="502.6406"/><text fill="#000000" font-family="FG Virgil" font-size="8.4" font-style="italic" lengthAdjust="spacing" textLength="36" x="408.9" y="514.4449">&#171;service&#187;</text><text fill="#000000" font-family="FG Virgil" font-size="8.4" lengthAdjust="spacing" textLength="87.6" x="383.1" y="523.8293">:GradeInterviewService</text><rect fill="#E2E2F0" height="27.1688" rx="1.5" ry="1.5" style="stroke:#181818;stroke-width:0.3;" width="97.2" x="569.1" y="46.6219"/><text fill="#000000" font-family="FG Virgil" font-size="8.4" font-style="italic" lengthAdjust="spacing" textLength="47.4" x="594" y="58.4262">&#171;repository&#187;</text><text fill="#000000" font-family="FG Virgil" font-size="8.4" lengthAdjust="spacing" textLength="88.8" x="573.3" y="67.8105">:JobOpeningRepository</text><rect fill="#E2E2F0" height="27.1688" rx="1.5" ry="1.5" style="stroke:#181818;stroke-width:0.3;" width="97.2" x="569.1" y="502.6406"/><text fill="#000000" font-family="FG Virgil" font-size="8.4" font-style="italic" lengthAdjust="spacing" textLength="47.4" x="594" y="514.4449">&#171;repository&#187;</text><text fill="#000000" font-family="FG Virgil" font-size="8.4" lengthAdjust="spacing" textLength="88.8" x="573.3" y="523.8293">:JobOpeningRepository</text><rect fill="#E2E2F0" height="27.1688" rx="1.5" ry="1.5" style="stroke:#181818;stroke-width:0.3;" width="106.2" x="672.3" y="46.6219"/><text fill="#000000" font-family="FG Virgil" font-size="8.4" font-style="italic" lengthAdjust="spacing" textLength="47.4" x="701.7" y="58.4262">&#171;repository&#187;</text><text fill="#000000" font-family="FG Virgil" font-size="8.4" lengthAdjust="spacing" textLength="97.8" x="676.5" y="67.8105">:JobApplicationRepository</text><rect fill="#E2E2F0" height="27.1688" rx="1.5" ry="1.5" style="stroke:#181818;stroke-width:0.3;" width="106.2" x="672.3" y="502.6406"/><text fill="#000000" font-family="FG Virgil" font-size="8.4" font-style="italic" lengthAdjust="spacing" textLength="47.4" x="701.7" y="514.4449">&#171;repository&#187;</text><text fill="#000000" font-family="FG Virgil" font-size="8.4" lengthAdjust="spacing" textLength="97.8" x="676.5" y="523.8293">:JobApplicationRepository</text><rect fill="#E2E2F0" height="27.1688" rx="1.5" ry="1.5" style="stroke:#181818;stroke-width:0.3;" width="86.4" x="784.5" y="46.6219"/><text fill="#000000" font-family="FG Virgil" font-size="8.4" font-style="italic" lengthAdjust="spacing" textLength="30" x="812.7" y="58.4262">&#171;entity&#187;</text><text fill="#000000" font-family="FG Virgil" font-size="8.4" lengthAdjust="spacing" textLength="78" x="788.7" y="67.8105">:InterviewModel_EX1</text><rect fill="#E2E2F0" height="27.1688" rx="1.5" ry="1.5" style="stroke:#181818;stroke-width:0.3;" width="86.4" x="784.5" y="502.6406"/><text fill="#000000" font-family="FG Virgil" font-size="8.4" font-style="italic" lengthAdjust="spacing" textLength="30" x="812.7" y="514.4449">&#171;entity&#187;</text><text fill="#000000" font-family="FG Virgil" font-size="8.4" lengthAdjust="spacing" textLength="78" x="788.7" y="523.8293">:InterviewModel_EX1</text><rect fill="#E2E2F0" height="27.1688" rx="1.5" ry="1.5" style="stroke:#181818;stroke-width:0.3;" width="65.4" x="876.9" y="46.6219"/><text fill="#000000" font-family="FG Virgil" font-size="8.4" font-style="italic" lengthAdjust="spacing" textLength="30" x="894.6" y="58.4262">&#171;entity&#187;</text><text fill="#000000" font-family="FG Virgil" font-size="8.4" lengthAdjust="spacing" textLength="57" x="881.1" y="67.8105">:JobApplication</text><rect fill="#E2E2F0" height="27.1688" rx="1.5" ry="1.5" style="stroke:#181818;stroke-width:0.3;" width="65.4" x="876.9" y="502.6406"/><text fill="#000000" font-family="FG Virgil" font-size="8.4" font-style="italic" lengthAdjust="spacing" textLength="30" x="894.6" y="514.4449">&#171;entity&#187;</text><text fill="#000000" font-family="FG Virgil" font-size="8.4" lengthAdjust="spacing" textLength="57" x="881.1" y="523.8293">:JobApplication</text><rect fill="#FFFFFF" height="417.45" style="stroke:#181818;stroke-width:0.6;" width="6" x="36.9" y="80.3906"/><rect fill="#FFFFFF" height="399.7359" style="stroke:#181818;stroke-width:0.6;" width="6" x="192.3" y="92.7047"/><rect fill="#FFFFFF" height="297.5109" style="stroke:#181818;stroke-width:0.6;" width="6" x="308.1" y="177.8156"/><rect fill="#FFFFFF" height="280.3969" style="stroke:#181818;stroke-width:0.6;" width="6" x="423.9" y="194.9297"/><rect fill="#FFFFFF" height="17.1141" style="stroke:#181818;stroke-width:0.6;" width="6" x="614.7" y="212.0438"/><rect fill="#FFFFFF" height="17.1141" style="stroke:#181818;stroke-width:0.6;" width="6" x="722.4" y="288.6141"/><rect fill="#FFFFFF" height="18" style="stroke:#181818;stroke-width:0.6;" width="6" x="722.4" y="406.2984"/><rect fill="#FFFFFF" height="17.1141" style="stroke:#181818;stroke-width:0.6;" width="6" x="824.7" y="336.9563"/><rect fill="#FFFFFF" height="18" style="stroke:#181818;stroke-width:0.6;" width="6" x="906.6" y="371.1844"/><polygon fill="#181818" points="185.1,90.3047,191.1,92.7047,185.1,95.1047,187.5,92.7047" style="stroke:#181818;stroke-width:0.6;"/><line style="stroke:#181818;stroke-width:0.6;" x1="42.9" x2="188.7" y1="92.7047" y2="92.7047"/><text fill="#000000" font-family="FG Virgil" font-size="7.8" lengthAdjust="spacing" textLength="93.6" x="47.1" y="89.8518">Asks to grade the interview</text><polygon fill="#181818" points="49.5,107.4188,43.5,109.8188,49.5,112.2188,47.1,109.8188" style="stroke:#181818;stroke-width:0.6;"/><line style="stroke:#181818;stroke-width:0.6;stroke-dasharray:2.0,2.0;" x1="45.9" x2="191.7" y1="109.8188" y2="109.8188"/><text fill="#000000" font-family="FG Virgil" font-size="7.8" lengthAdjust="spacing" textLength="135" x="53.1" y="106.9658">Ask for job reference of the job opening</text><polygon fill="#181818" points="185.1,124.5328,191.1,126.9328,185.1,129.3328,187.5,126.9328" style="stroke:#181818;stroke-width:0.6;"/><line style="stroke:#181818;stroke-width:0.6;" x1="42.9" x2="188.7" y1="126.9328" y2="126.9328"/><text fill="#000000" font-family="FG Virgil" font-size="7.8" lengthAdjust="spacing" textLength="131.4" x="47.1" y="124.0799">Types job reference of the job opening</text><polygon fill="#181818" points="251.4,141.6469,257.4,144.0469,251.4,146.4469,253.8,144.0469" style="stroke:#181818;stroke-width:0.6;"/><line style="stroke:#181818;stroke-width:0.6;" x1="198.3" x2="255" y1="144.0469" y2="144.0469"/><text fill="#000000" font-family="FG Virgil" font-size="7.8" lengthAdjust="spacing" textLength="21.6" x="202.5" y="141.1939">create</text><rect fill="#E2E2F0" height="27.1688" rx="1.5" ry="1.5" style="stroke:#181818;stroke-width:0.3;" width="105" x="258.6" y="131.7328"/><text fill="#000000" font-family="FG Virgil" font-size="8.4" font-style="italic" lengthAdjust="spacing" textLength="50.4" x="285.9" y="143.5371">&#171;application&#187;</text><text fill="#000000" font-family="FG Virgil" font-size="8.4" lengthAdjust="spacing" textLength="96.6" x="262.8" y="152.9215">:GradeInterviewController</text><polygon fill="#181818" points="300.9,175.4156,306.9,177.8156,300.9,180.2156,303.3,177.8156" style="stroke:#181818;stroke-width:0.6;"/><line style="stroke:#181818;stroke-width:0.6;" x1="198.3" x2="304.5" y1="177.8156" y2="177.8156"/><text fill="#000000" font-family="FG Virgil" font-size="7.8" lengthAdjust="spacing" textLength="98.4" x="202.5" y="174.9627">gradeInterview(jobReference)</text><polygon fill="#181818" points="416.7,192.5297,422.7,194.9297,416.7,197.3297,419.1,194.9297" style="stroke:#181818;stroke-width:0.6;"/><line style="stroke:#181818;stroke-width:0.6;" x1="314.1" x2="420.3" y1="194.9297" y2="194.9297"/><text fill="#000000" font-family="FG Virgil" font-size="7.8" lengthAdjust="spacing" textLength="98.4" x="318.3" y="192.0768">gradeInterview(jobReference)</text><polygon fill="#181818" points="607.5,209.6437,613.5,212.0438,607.5,214.4438,609.9,212.0438" style="stroke:#181818;stroke-width:0.6;"/><line style="stroke:#181818;stroke-width:0.6;" x1="429.9" x2="611.1" y1="212.0438" y2="212.0438"/><text fill="#000000" font-family="FG Virgil" font-size="7.8" lengthAdjust="spacing" textLength="173.4" x="434.1" y="209.1908">findJobOpeningsByPhase(PhaseType.ANALYSIS)</text><polygon fill="#181818" points="436.5,226.7578,430.5,229.1578,436.5,231.5578,434.1,229.1578" style="stroke:#181818;stroke-width:0.6;"/><line style="stroke:#181818;stroke-width:0.6;stroke-dasharray:2.0,2.0;" x1="432.9" x2="617.1" y1="229.1578" y2="229.1578"/><text fill="#000000" font-family="FG Virgil" font-size="7.8" lengthAdjust="spacing" textLength="67.2" x="440.1" y="226.3049">List&lt;JobOpenings&gt;</text><path d="M354.9,238.1578 L398.7,238.1578 L398.7,242.0719 L392.7,248.0719 L354.9,248.0719 L354.9,238.1578 " fill="#EEEEEE" style="stroke:#000000;stroke-width:0.8999999999999999;"/><rect fill="none" height="203.5406" style="stroke:#000000;stroke-width:0.8999999999999999;" width="611.4" x="354.9" y="238.1578"/><text fill="#000000" font-family="FG Virgil" font-size="7.8" font-weight="bold" lengthAdjust="spacing" textLength="16.8" x="363.9" y="245.8189">loop</text><text fill="#000000" font-family="FG Virgil" font-size="6.6" font-weight="bold" lengthAdjust="spacing" textLength="69.6" x="407.7" y="245.3326">[foreach jobOpening]</text><path d="M360.9,252.2719 L397.5,252.2719 L397.5,256.1859 L391.5,262.1859 L360.9,262.1859 L360.9,252.2719 " fill="#EEEEEE" style="stroke:#000000;stroke-width:0.8999999999999999;"/><rect fill="none" height="185.2266" style="stroke:#000000;stroke-width:0.8999999999999999;" width="599.4" x="360.9" y="252.2719"/><text fill="#000000" font-family="FG Virgil" font-size="7.8" font-weight="bold" lengthAdjust="spacing" textLength="9.6" x="369.9" y="259.933">alt</text><text fill="#000000" font-family="FG Virgil" font-size="6.6" font-weight="bold" lengthAdjust="spacing" textLength="112.2" x="406.5" y="259.4467">[jobOpening has interview model]</text><path d="M366.9,266.3859 L403.5,266.3859 L403.5,270.3 L397.5,276.3 L366.9,276.3 L366.9,266.3859 " fill="#EEEEEE" style="stroke:#000000;stroke-width:0.8999999999999999;"/><rect fill="none" height="166.9125" style="stroke:#000000;stroke-width:0.8999999999999999;" width="587.4" x="366.9" y="266.3859"/><text fill="#000000" font-family="FG Virgil" font-size="7.8" font-weight="bold" lengthAdjust="spacing" textLength="9.6" x="375.9" y="274.0471">alt</text><text fill="#000000" font-family="FG Virgil" font-size="6.6" font-weight="bold" lengthAdjust="spacing" textLength="140.4" x="412.5" y="273.5607">[jobOpening.jobReference = jobReference]</text><polygon fill="#181818" points="715.2,286.2141,721.2,288.6141,715.2,291.0141,717.6,288.6141" style="stroke:#181818;stroke-width:0.6;"/><line style="stroke:#181818;stroke-width:0.6;" x1="429.9" x2="718.8" y1="288.6141" y2="288.6141"/><text fill="#000000" font-family="FG Virgil" font-size="7.8" lengthAdjust="spacing" textLength="118.2" x="434.1" y="285.7611">findByJobReference(jobReference)</text><polygon fill="#181818" points="436.5,303.3281,430.5,305.7281,436.5,308.1281,434.1,305.7281" style="stroke:#181818;stroke-width:0.6;"/><line style="stroke:#181818;stroke-width:0.6;stroke-dasharray:2.0,2.0;" x1="432.9" x2="724.8" y1="305.7281" y2="305.7281"/><text fill="#000000" font-family="FG Virgil" font-size="7.8" lengthAdjust="spacing" textLength="76.8" x="440.1" y="302.8752">List&lt;JobApplications&gt;</text><path d="M372.9,314.7281 L416.7,314.7281 L416.7,318.6422 L410.7,324.6422 L372.9,324.6422 L372.9,314.7281 " fill="#EEEEEE" style="stroke:#000000;stroke-width:0.8999999999999999;"/><rect fill="none" height="114.3703" style="stroke:#000000;stroke-width:0.8999999999999999;" width="575.4" x="372.9" y="314.7281"/><text fill="#000000" font-family="FG Virgil" font-size="7.8" font-weight="bold" lengthAdjust="spacing" textLength="16.8" x="381.9" y="322.3893">loop</text><text fill="#000000" font-family="FG Virgil" font-size="6.6" font-weight="bold" lengthAdjust="spacing" textLength="82.8" x="425.7" y="321.9029">[foreach jobApplications]</text><polygon fill="#181818" points="817.5,334.5563,823.5,336.9563,817.5,339.3563,819.9,336.9563" style="stroke:#181818;stroke-width:0.6;"/><line style="stroke:#181818;stroke-width:0.6;" x1="429.9" x2="821.1" y1="336.9563" y2="336.9563"/><text fill="#000000" font-family="FG Virgil" font-size="7.8" lengthAdjust="spacing" textLength="261" x="434.1" y="334.1033">evaluateMultipleFiles(correctAnswersFilePath, candidateAnswersFilePaths)</text><polygon fill="#181818" points="436.5,351.6703,430.5,354.0703,436.5,356.4703,434.1,354.0703" style="stroke:#181818;stroke-width:0.6;"/><line style="stroke:#181818;stroke-width:0.6;stroke-dasharray:2.0,2.0;" x1="432.9" x2="827.1" y1="354.0703" y2="354.0703"/><text fill="#000000" font-family="FG Virgil" font-size="7.8" lengthAdjust="spacing" textLength="60.6" x="440.1" y="351.2174">evaluationResults</text><polygon fill="#181818" points="899.4,368.7844,905.4,371.1844,899.4,373.5844,901.8,371.1844" style="stroke:#181818;stroke-width:0.6;"/><line style="stroke:#181818;stroke-width:0.6;" x1="429.9" x2="903" y1="371.1844" y2="371.1844"/><text fill="#000000" font-family="FG Virgil" font-size="7.8" lengthAdjust="spacing" textLength="85.2" x="434.1" y="368.3314">setInterviewGrade(grade)</text><polygon fill="#181818" points="715.2,403.8984,721.2,406.2984,715.2,408.6984,717.6,406.2984" style="stroke:#181818;stroke-width:0.6;"/><line style="stroke:#181818;stroke-width:0.6;" x1="429.9" x2="718.8" y1="406.2984" y2="406.2984"/><text fill="#000000" font-family="FG Virgil" font-size="7.8" lengthAdjust="spacing" textLength="69" x="434.1" y="403.4455">save(jobApplication)</text><polygon fill="#181818" points="320.7,455.8125,314.7,458.2125,320.7,460.6125,318.3,458.2125" style="stroke:#181818;stroke-width:0.6;"/><line style="stroke:#181818;stroke-width:0.6;stroke-dasharray:2.0,2.0;" x1="317.1" x2="423.3" y1="458.2125" y2="458.2125"/><text fill="#000000" font-family="FG Virgil" font-size="7.8" lengthAdjust="spacing" textLength="42" x="324.3" y="455.3596">confirmation</text><polygon fill="#181818" points="204.9,472.9266,198.9,475.3266,204.9,477.7266,202.5,475.3266" style="stroke:#181818;stroke-width:0.6;"/><line style="stroke:#181818;stroke-width:0.6;stroke-dasharray:2.0,2.0;" x1="201.3" x2="310.5" y1="475.3266" y2="475.3266"/><text fill="#000000" font-family="FG Virgil" font-size="7.8" lengthAdjust="spacing" textLength="42" x="208.5" y="472.4736">confirmation</text><polygon fill="#181818" points="49.5,490.0406,43.5,492.4406,49.5,494.8406,47.1,492.4406" style="stroke:#181818;stroke-width:0.6;"/><line style="stroke:#181818;stroke-width:0.6;stroke-dasharray:2.0,2.0;" x1="45.9" x2="194.7" y1="492.4406" y2="492.4406"/><text fill="#000000" font-family="FG Virgil" font-size="7.8" lengthAdjust="spacing" textLength="111.6" x="53.1" y="489.5877">displays operation info message</text><!--SRC=[ZLPTJzim57tthx3OmmfQMzZJ57MH2Xke21YYOzgU9ZUvIJmSExFTekxNxzhzYDEaj2zDx7lFyVtoIIst0kZ8y7yGVJoFf_1t3Z81-eMpNBEINfnVV1eDdJacv7rXRHKDXvLWqivBCKXKEJGlN5OCVGU5BGNPBccff4eAhKgW6HC60bF5aXUMmzGkyN0DYGriAMHiBkoralQ18VRwXlxWEkSXjIbOgbwvpDVCX2LMQNerDnQFq_TC8hkcpD2nDxmJF2_iJCo1887b2Qym0teItMYMmaHQq0iEhy-J4uTvdj3HgD9WG5fckP9n_2Ri2aFLIWZG7bulaOPLbU39CInJzqZ0KwpV4MzMRotihPfzgq1Y2PwWKePZbaiFxJ8WZzukkgZ6TPHjkaxZsvJRfEvL2kBtrvyNdgozZJHOP6uFHTKHImXr_USBPc7LRxBgUZzshOpesBmOQXNDNRsfBO3oJI0ry7b227ht4UJH7aOpfFcZPZYZ6MX_CLJc6TocMjKvF2sYtvSLcCCOTrGSZChPMKGJ3HX9ouGPv8r9wI7HquRyj4wXXf00ZLoRSJgMQErFo0Q875rp5MLSfhN1N2uV2sQWvtzT8GRZX_7Th-ba6f1t4H7IERRzElReZXix2iwAIGe7E8LIbUiW-XMk-6iNd1PXWpN5QEk9GDd2sTpr6OILefzfk2Hajr3TDoQYhboNozi0kzE1HfKwMNobkldxZKvlwXNujcgsvuJTkeKKZLJRzpc21HDpfBz72UULW6ikmFGIfPtAZwLv1MtStYEpnGUQC9do5DrtB2QOb_OXf4D7cicle_1v6Op4X8bt4ExlNsJ0RW5Ui7l-3ftkQzN-4Xyr9H4rRE778Z2V7Z4NHtKMP4fTT_qBJdZZwGtR41iIXDgaPCPrkKeaL9Urx3Ni98ncAoR1Ng1Kf2cxsBoK6_o3iJHEA_LAwhdC52t16FoiXpmesly1]--></g></svg>