<?xml version="1.0" encoding="us-ascii" standalone="no"?><svg xmlns="http://www.w3.org/2000/svg" xmlns:xlink="http://www.w3.org/1999/xlink" contentStyleType="text/css" height="1229px" preserveAspectRatio="none" style="width:2120px;height:1229px;background:#FFFFFF;" version="1.1" viewBox="0 0 2120 1229" width="2120px" zoomAndPan="magnify"><defs><filter height="300%" id="f15jsojo11zo81" width="300%" x="-1" y="-1"><feGaussianBlur result="blurOut" stdDeviation="2.0"/><feColorMatrix in="blurOut" result="blurOut2" type="matrix" values="0 0 0 0 0 0 0 0 0 0 0 0 0 0 0 0 0 0 .4 0"/><feOffset dx="4.0" dy="4.0" in="blurOut2" result="blurOut3"/><feBlend in="SourceGraphic" in2="blurOut3" mode="normal"/></filter></defs><g><text fill="#000000" font-family="FG Virgil" font-size="20" font-weight="bold" lengthAdjust="spacing" textLength="260" x="927.75" y="33.1055">Sequence Diagram US 2002</text><rect fill="#FFFFFF" filter="url(#f15jsojo11zo81)" height="994.5547" style="stroke:#181818;stroke-width:1.0;" width="10" x="31.5" y="136.9844"/><rect fill="#FFFFFF" filter="url(#f15jsojo11zo81)" height="959.5078" style="stroke:#181818;stroke-width:1.0;" width="10" x="327.5" y="172.0313"/><rect fill="#FFFFFF" filter="url(#f15jsojo11zo81)" height="771.6094" style="stroke:#181818;stroke-width:1.0;" width="10" x="716.5" y="331.4063"/><rect fill="#FFFFFF" filter="url(#f15jsojo11zo81)" height="28.5234" style="stroke:#181818;stroke-width:1.0;" width="10" x="904.5" y="359.9297"/><rect fill="#FFFFFF" filter="url(#f15jsojo11zo81)" height="30" style="stroke:#181818;stroke-width:1.0;" width="10" x="1043.5" y="532.3594"/><rect fill="#FFFFFF" filter="url(#f15jsojo11zo81)" height="30" style="stroke:#181818;stroke-width:1.0;" width="10" x="1043.5" y="590.8828"/><rect fill="#FFFFFF" filter="url(#f15jsojo11zo81)" height="85.5703" style="stroke:#181818;stroke-width:1.0;" width="10" x="1357" y="903.3516"/><rect fill="none" filter="url(#f15jsojo11zo81)" height="101.3828" style="stroke:#000000;stroke-width:1.5;" width="386" x="609" y="403.4531"/><line style="stroke:#181818;stroke-width:0.5;stroke-dasharray:5.0,5.0;" x1="36" x2="36" y1="126.9844" y2="1149.5391"/><line style="stroke:#181818;stroke-width:0.5;stroke-dasharray:5.0,5.0;" x1="332" x2="332" y1="126.9844" y2="1149.5391"/><line style="stroke:#181818;stroke-width:0.5;stroke-dasharray:5.0,5.0;" x1="721" x2="721" y1="219.6719" y2="1149.5391"/><line style="stroke:#181818;stroke-width:0.5;stroke-dasharray:5.0,5.0;" x1="909" x2="909" y1="126.9844" y2="1149.5391"/><line style="stroke:#181818;stroke-width:0.5;stroke-dasharray:5.0,5.0;" x1="1048" x2="1048" y1="126.9844" y2="1149.5391"/><line style="stroke:#181818;stroke-width:0.5;stroke-dasharray:5.0,5.0;" x1="1193" x2="1193" y1="126.9844" y2="1149.5391"/><line style="stroke:#181818;stroke-width:0.5;stroke-dasharray:5.0,5.0;" x1="1362" x2="1362" y1="720.5703" y2="1149.5391"/><line style="stroke:#181818;stroke-width:0.5;stroke-dasharray:5.0,5.0;" x1="1825.5" x2="1825.5" y1="126.9844" y2="1149.5391"/><line style="stroke:#181818;stroke-width:0.5;stroke-dasharray:5.0,5.0;" x1="2022.5" x2="2022.5" y1="126.9844" y2="1149.5391"/><text fill="#000000" font-family="FG Virgil" font-size="14" lengthAdjust="spacing" textLength="57" x="5" y="124.0176">Operator</text><ellipse cx="36.5" cy="56.8438" fill="#E3E3E3" filter="url(#f15jsojo11zo81)" rx="8" ry="8" style="stroke:#181818;stroke-width:0.5;"/><path d="M36.5,64.8438 L36.5,91.8438 M23.5,72.8438 L49.5,72.8438 M36.5,91.8438 L23.5,106.8438 M36.5,91.8438 L49.5,106.8438 " fill="none" filter="url(#f15jsojo11zo81)" style="stroke:#181818;stroke-width:0.5;"/><text fill="#000000" font-family="FG Virgil" font-size="14" lengthAdjust="spacing" textLength="57" x="5" y="1161.2129">Operator</text><ellipse cx="36.5" cy="1172.6797" fill="#E3E3E3" filter="url(#f15jsojo11zo81)" rx="8" ry="8" style="stroke:#181818;stroke-width:0.5;"/><path d="M36.5,1180.6797 L36.5,1207.6797 M23.5,1188.6797 L49.5,1188.6797 M36.5,1207.6797 L23.5,1222.6797 M36.5,1207.6797 L49.5,1222.6797 " fill="none" filter="url(#f15jsojo11zo81)" style="stroke:#181818;stroke-width:0.5;"/><rect fill="#E3E3E3" filter="url(#f15jsojo11zo81)" height="45.2813" rx="2.5" ry="2.5" style="stroke:#181818;stroke-width:0.5;" width="152" x="255" y="77.7031"/><text fill="#000000" font-family="FG Virgil" font-size="14" font-style="italic" lengthAdjust="spacing" textLength="95" x="283.5" y="97.377">&#171;presentation&#187;</text><text fill="#000000" font-family="FG Virgil" font-size="14" lengthAdjust="spacing" textLength="138" x="262" y="113.0176">:RegisterApplicaitonUI</text><rect fill="#E3E3E3" filter="url(#f15jsojo11zo81)" height="45.2813" rx="2.5" ry="2.5" style="stroke:#181818;stroke-width:0.5;" width="152" x="255" y="1148.5391"/><text fill="#000000" font-family="FG Virgil" font-size="14" font-style="italic" lengthAdjust="spacing" textLength="95" x="283.5" y="1168.2129">&#171;presentation&#187;</text><text fill="#000000" font-family="FG Virgil" font-size="14" lengthAdjust="spacing" textLength="138" x="262" y="1183.8535">:RegisterApplicaitonUI</text><rect fill="#E3E3E3" filter="url(#f15jsojo11zo81)" height="45.2813" rx="2.5" ry="2.5" style="stroke:#181818;stroke-width:0.5;" width="202" x="619" y="1148.5391"/><text fill="#000000" font-family="FG Virgil" font-size="14" font-style="italic" lengthAdjust="spacing" textLength="84" x="678" y="1168.2129">&#171;application&#187;</text><text fill="#000000" font-family="FG Virgil" font-size="14" lengthAdjust="spacing" textLength="188" x="626" y="1183.8535">:RegisterApplicaitonController</text><rect fill="#E3E3E3" filter="url(#f15jsojo11zo81)" height="45.2813" rx="2.5" ry="2.5" style="stroke:#181818;stroke-width:0.5;" width="148" x="834" y="77.7031"/><text fill="#000000" font-family="FG Virgil" font-size="14" font-style="italic" lengthAdjust="spacing" textLength="79" x="868.5" y="97.377">&#171;repository&#187;</text><text fill="#000000" font-family="FG Virgil" font-size="14" lengthAdjust="spacing" textLength="134" x="841" y="113.0176">:candidateRepository</text><rect fill="#E3E3E3" filter="url(#f15jsojo11zo81)" height="45.2813" rx="2.5" ry="2.5" style="stroke:#181818;stroke-width:0.5;" width="148" x="834" y="1148.5391"/><text fill="#000000" font-family="FG Virgil" font-size="14" font-style="italic" lengthAdjust="spacing" textLength="79" x="868.5" y="1168.2129">&#171;repository&#187;</text><text fill="#000000" font-family="FG Virgil" font-size="14" lengthAdjust="spacing" textLength="134" x="841" y="1183.8535">:candidateRepository</text><rect fill="#E3E3E3" filter="url(#f15jsojo11zo81)" height="45.2813" rx="2.5" ry="2.5" style="stroke:#181818;stroke-width:0.5;" width="104" x="995" y="77.7031"/><text fill="#000000" font-family="FG Virgil" font-size="14" font-style="italic" lengthAdjust="spacing" textLength="79" x="1007.5" y="97.377">&#171;repository&#187;</text><text fill="#000000" font-family="FG Virgil" font-size="14" lengthAdjust="spacing" textLength="90" x="1002" y="113.0176">:fileRepository</text><rect fill="#E3E3E3" filter="url(#f15jsojo11zo81)" height="45.2813" rx="2.5" ry="2.5" style="stroke:#181818;stroke-width:0.5;" width="104" x="995" y="1148.5391"/><text fill="#000000" font-family="FG Virgil" font-size="14" font-style="italic" lengthAdjust="spacing" textLength="79" x="1007.5" y="1168.2129">&#171;repository&#187;</text><text fill="#000000" font-family="FG Virgil" font-size="14" lengthAdjust="spacing" textLength="90" x="1002" y="1183.8535">:fileRepository</text><rect fill="#E3E3E3" filter="url(#f15jsojo11zo81)" height="45.2813" rx="2.5" ry="2.5" style="stroke:#181818;stroke-width:0.5;" width="159" x="1112" y="77.7031"/><text fill="#000000" font-family="FG Virgil" font-size="14" font-style="italic" lengthAdjust="spacing" textLength="79" x="1152" y="97.377">&#171;repository&#187;</text><text fill="#000000" font-family="FG Virgil" font-size="14" lengthAdjust="spacing" textLength="145" x="1119" y="113.0176">:jobOpeningRepository</text><rect fill="#E3E3E3" filter="url(#f15jsojo11zo81)" height="45.2813" rx="2.5" ry="2.5" style="stroke:#181818;stroke-width:0.5;" width="159" x="1112" y="1148.5391"/><text fill="#000000" font-family="FG Virgil" font-size="14" font-style="italic" lengthAdjust="spacing" textLength="79" x="1152" y="1168.2129">&#171;repository&#187;</text><text fill="#000000" font-family="FG Virgil" font-size="14" lengthAdjust="spacing" textLength="145" x="1119" y="1183.8535">:jobOpeningRepository</text><rect fill="#E3E3E3" filter="url(#f15jsojo11zo81)" height="45.2813" rx="2.5" ry="2.5" style="stroke:#181818;stroke-width:0.5;" width="153" x="1284" y="1148.5391"/><text fill="#000000" font-family="FG Virgil" font-size="14" font-style="italic" lengthAdjust="spacing" textLength="59" x="1331" y="1168.2129">&#171;builder&#187;</text><text fill="#000000" font-family="FG Virgil" font-size="14" lengthAdjust="spacing" textLength="139" x="1291" y="1183.8535">:JobApplicationBuilder</text><rect fill="#E3E3E3" filter="url(#f15jsojo11zo81)" height="45.2813" rx="2.5" ry="2.5" style="stroke:#181818;stroke-width:0.5;" width="194" x="1727.5" y="77.7031"/><text fill="#000000" font-family="FG Virgil" font-size="14" font-style="italic" lengthAdjust="spacing" textLength="62" x="1793.5" y="97.377">&#171;domain&#187;</text><text fill="#000000" font-family="FG Virgil" font-size="14" lengthAdjust="spacing" textLength="180" x="1734.5" y="113.0176">jobApplication:jobApplication</text><rect fill="#E3E3E3" filter="url(#f15jsojo11zo81)" height="45.2813" rx="2.5" ry="2.5" style="stroke:#181818;stroke-width:0.5;" width="194" x="1727.5" y="1148.5391"/><text fill="#000000" font-family="FG Virgil" font-size="14" font-style="italic" lengthAdjust="spacing" textLength="62" x="1793.5" y="1168.2129">&#171;domain&#187;</text><text fill="#000000" font-family="FG Virgil" font-size="14" lengthAdjust="spacing" textLength="180" x="1734.5" y="1183.8535">jobApplication:jobApplication</text><rect fill="#E3E3E3" filter="url(#f15jsojo11zo81)" height="45.2813" rx="2.5" ry="2.5" style="stroke:#181818;stroke-width:0.5;" width="174" x="1934.5" y="77.7031"/><text fill="#000000" font-family="FG Virgil" font-size="14" font-style="italic" lengthAdjust="spacing" textLength="79" x="1982" y="97.377">&#171;repository&#187;</text><text fill="#000000" font-family="FG Virgil" font-size="14" lengthAdjust="spacing" textLength="160" x="1941.5" y="113.0176">:jobApplicationRepository</text><rect fill="#E3E3E3" filter="url(#f15jsojo11zo81)" height="45.2813" rx="2.5" ry="2.5" style="stroke:#181818;stroke-width:0.5;" width="174" x="1934.5" y="1148.5391"/><text fill="#000000" font-family="FG Virgil" font-size="14" font-style="italic" lengthAdjust="spacing" textLength="79" x="1982" y="1168.2129">&#171;repository&#187;</text><text fill="#000000" font-family="FG Virgil" font-size="14" lengthAdjust="spacing" textLength="160" x="1941.5" y="1183.8535">:jobApplicationRepository</text><rect fill="#FFFFFF" filter="url(#f15jsojo11zo81)" height="994.5547" style="stroke:#181818;stroke-width:1.0;" width="10" x="31.5" y="136.9844"/><rect fill="#FFFFFF" filter="url(#f15jsojo11zo81)" height="959.5078" style="stroke:#181818;stroke-width:1.0;" width="10" x="327.5" y="172.0313"/><rect fill="#FFFFFF" filter="url(#f15jsojo11zo81)" height="771.6094" style="stroke:#181818;stroke-width:1.0;" width="10" x="716.5" y="331.4063"/><rect fill="#FFFFFF" filter="url(#f15jsojo11zo81)" height="28.5234" style="stroke:#181818;stroke-width:1.0;" width="10" x="904.5" y="359.9297"/><rect fill="#FFFFFF" filter="url(#f15jsojo11zo81)" height="30" style="stroke:#181818;stroke-width:1.0;" width="10" x="1043.5" y="532.3594"/><rect fill="#FFFFFF" filter="url(#f15jsojo11zo81)" height="30" style="stroke:#181818;stroke-width:1.0;" width="10" x="1043.5" y="590.8828"/><rect fill="#FFFFFF" filter="url(#f15jsojo11zo81)" height="85.5703" style="stroke:#181818;stroke-width:1.0;" width="10" x="1357" y="903.3516"/><polygon fill="#181818" points="315.5,168.0313,325.5,172.0313,315.5,176.0313,319.5,172.0313" style="stroke:#181818;stroke-width:1.0;"/><line style="stroke:#181818;stroke-width:1.0;" x1="41.5" x2="321.5" y1="172.0313" y2="172.0313"/><text fill="#000000" font-family="FG Virgil" font-size="13" lengthAdjust="spacing" textLength="215" x="48.5" y="152.7529">Asks to register a new jobApplication</text><text fill="#000000" font-family="FG Virgil" font-size="13" lengthAdjust="spacing" textLength="85" x="48.5" y="167.2764">for a candidate</text><polygon fill="#181818" points="607,196.5547,617,200.5547,607,204.5547,611,200.5547" style="stroke:#181818;stroke-width:1.0;"/><line style="stroke:#181818;stroke-width:1.0;" x1="337.5" x2="613" y1="200.5547" y2="200.5547"/><text fill="#000000" font-family="FG Virgil" font-size="13" lengthAdjust="spacing" textLength="36" x="344.5" y="195.7998">create</text><rect fill="#E3E3E3" filter="url(#f15jsojo11zo81)" height="45.2813" rx="2.5" ry="2.5" style="stroke:#181818;stroke-width:0.5;" width="202" x="619" y="180.0313"/><text fill="#000000" font-family="FG Virgil" font-size="14" font-style="italic" lengthAdjust="spacing" textLength="84" x="678" y="199.7051">&#171;application&#187;</text><text fill="#000000" font-family="FG Virgil" font-size="14" lengthAdjust="spacing" textLength="188" x="626" y="215.3457">:RegisterApplicaitonController</text><polygon fill="#181818" points="52.5,255.8359,42.5,259.8359,52.5,263.8359,48.5,259.8359" style="stroke:#181818;stroke-width:1.0;"/><line style="stroke:#181818;stroke-width:1.0;stroke-dasharray:2.0,2.0;" x1="46.5" x2="326.5" y1="259.8359" y2="259.8359"/><text fill="#000000" font-family="FG Virgil" font-size="13" lengthAdjust="spacing" textLength="250" x="58.5" y="255.0811">Ask candidate email and shared folder path</text><polygon fill="#181818" points="315.5,284.3594,325.5,288.3594,315.5,292.3594,319.5,288.3594" style="stroke:#181818;stroke-width:1.0;"/><line style="stroke:#181818;stroke-width:1.0;" x1="41.5" x2="321.5" y1="288.3594" y2="288.3594"/><text fill="#000000" font-family="FG Virgil" font-size="13" lengthAdjust="spacing" textLength="262" x="48.5" y="283.6045">Types candidate email and shared folder path</text><polygon fill="#181818" points="704.5,327.4063,714.5,331.4063,704.5,335.4063,708.5,331.4063" style="stroke:#181818;stroke-width:1.0;"/><line style="stroke:#181818;stroke-width:1.0;" x1="337.5" x2="710.5" y1="331.4063" y2="331.4063"/><text fill="#000000" font-family="FG Virgil" font-size="13" lengthAdjust="spacing" textLength="356" x="344.5" y="312.1279">registerJobApplication(jobReference,email,id,filesPath,date,"",</text><text fill="#000000" font-family="FG Virgil" font-size="13" lengthAdjust="spacing" textLength="318" x="344.5" y="326.6514">State.CONFIRMED,firstName,lastName,phoneNumber)</text><polygon fill="#181818" points="892.5,355.9297,902.5,359.9297,892.5,363.9297,896.5,359.9297" style="stroke:#181818;stroke-width:1.0;"/><line style="stroke:#181818;stroke-width:1.0;" x1="726.5" x2="898.5" y1="359.9297" y2="359.9297"/><text fill="#000000" font-family="FG Virgil" font-size="13" lengthAdjust="spacing" textLength="108" x="733.5" y="355.1748">findByEmail(email)</text><polygon fill="#181818" points="737.5,384.4531,727.5,388.4531,737.5,392.4531,733.5,388.4531" style="stroke:#181818;stroke-width:1.0;"/><line style="stroke:#181818;stroke-width:1.0;stroke-dasharray:2.0,2.0;" x1="731.5" x2="908.5" y1="388.4531" y2="388.4531"/><text fill="#000000" font-family="FG Virgil" font-size="13" lengthAdjust="spacing" textLength="56" x="743.5" y="383.6982">candidate</text><path d="M609,403.4531 L670,403.4531 L670,409.9766 L660,419.9766 L609,419.9766 L609,403.4531 " fill="#EEEEEE" style="stroke:#000000;stroke-width:1.5;"/><rect fill="none" height="101.3828" style="stroke:#000000;stroke-width:1.5;" width="386" x="609" y="403.4531"/><text fill="#000000" font-family="FG Virgil" font-size="13" font-weight="bold" lengthAdjust="spacing" textLength="16" x="624" y="416.2217">alt</text><text fill="#000000" font-family="FG Virgil" font-size="11" font-weight="bold" lengthAdjust="spacing" textLength="84" x="685" y="415.4111">[candidate null]</text><polygon fill="#181818" points="897.5,436.5,907.5,440.5,897.5,444.5,901.5,440.5" style="stroke:#181818;stroke-width:1.0;"/><line style="stroke:#181818;stroke-width:1.0;" x1="726.5" x2="903.5" y1="440.5" y2="440.5"/><text fill="#000000" font-family="FG Virgil" font-size="13" lengthAdjust="spacing" textLength="115" x="733.5" y="435.7451">save(newCandidate)</text><rect fill="none" filter="url(#f15jsojo11zo81)" height="51.3359" style="stroke:#000000;stroke-width:1.5;" width="208" x="616" y="448.5"/><path d="M616,448.5 L678,448.5 L678,454.5 L668,464.5 L616,464.5 L616,448.5 " fill="#EEEEEE" style="stroke:#000000;stroke-width:2.0;"/><text fill="#000000" font-family="FG Virgil" font-size="13" font-weight="bold" lengthAdjust="spacing" textLength="17" x="629" y="462.2686">ref</text><text fill="#000000" font-family="FG Virgil" font-size="12" lengthAdjust="spacing" textLength="59" x="692" y="479.3633">UC 1000.1</text><text fill="#000000" font-family="FG Virgil" font-size="12" lengthAdjust="spacing" textLength="3" x="720" y="492.7695">&#160;</text><polygon fill="#181818" points="1031.5,528.3594,1041.5,532.3594,1031.5,536.3594,1035.5,532.3594" style="stroke:#181818;stroke-width:1.0;"/><line style="stroke:#181818;stroke-width:1.0;" x1="726.5" x2="1037.5" y1="532.3594" y2="532.3594"/><text fill="#000000" font-family="FG Virgil" font-size="13" lengthAdjust="spacing" textLength="50" x="733.5" y="527.6045">save(file)</text><polygon fill="#181818" points="1031.5,586.8828,1041.5,590.8828,1031.5,594.8828,1035.5,590.8828" style="stroke:#181818;stroke-width:1.0;"/><line style="stroke:#181818;stroke-width:1.0;" x1="726.5" x2="1037.5" y1="590.8828" y2="590.8828"/><text fill="#000000" font-family="FG Virgil" font-size="13" lengthAdjust="spacing" textLength="135" x="733.5" y="586.1279">findByName(filesName)</text><path d="M1367,633.8828 L1367,672.8828 L1617,672.8828 L1617,643.8828 L1607,633.8828 L1367,633.8828 " fill="#FAFAFA" filter="url(#f15jsojo11zo81)" style="stroke:#181818;stroke-width:0.5;"/><path d="M1607,633.8828 L1607,643.8828 L1617,643.8828 L1607,633.8828 " fill="#FAFAFA" style="stroke:#181818;stroke-width:0.5;"/><text fill="#000000" font-family="FG Virgil" font-size="13" lengthAdjust="spacing" textLength="225" x="1373" y="650.6514">JobApplicationBuilder is used to create</text><text fill="#000000" font-family="FG Virgil" font-size="13" lengthAdjust="spacing" textLength="132" x="1373" y="665.1748">a valid Customer entity</text><polygon fill="#181818" points="1272,697.4531,1282,701.4531,1272,705.4531,1276,701.4531" style="stroke:#181818;stroke-width:1.0;"/><line style="stroke:#181818;stroke-width:1.0;" x1="726.5" x2="1278" y1="701.4531" y2="701.4531"/><text fill="#000000" font-family="FG Virgil" font-size="13" lengthAdjust="spacing" textLength="36" x="733.5" y="696.6982">create</text><rect fill="#E3E3E3" filter="url(#f15jsojo11zo81)" height="45.2813" rx="2.5" ry="2.5" style="stroke:#181818;stroke-width:0.5;" width="153" x="1284" y="680.9297"/><text fill="#000000" font-family="FG Virgil" font-size="14" font-style="italic" lengthAdjust="spacing" textLength="59" x="1331" y="700.6035">&#171;builder&#187;</text><text fill="#000000" font-family="FG Virgil" font-size="14" lengthAdjust="spacing" textLength="139" x="1291" y="716.2441">:JobApplicationBuilder</text><polygon fill="#181818" points="1350,756.7344,1360,760.7344,1350,764.7344,1354,760.7344" style="stroke:#181818;stroke-width:1.0;"/><line style="stroke:#181818;stroke-width:1.0;" x1="726.5" x2="1356" y1="760.7344" y2="760.7344"/><text fill="#000000" font-family="FG Virgil" font-size="13" lengthAdjust="spacing" textLength="145" x="733.5" y="755.9795">withCandidate(candidate)</text><polygon fill="#181818" points="1350,785.2578,1360,789.2578,1350,793.2578,1354,789.2578" style="stroke:#181818;stroke-width:1.0;"/><line style="stroke:#181818;stroke-width:1.0;" x1="726.5" x2="1356" y1="789.2578" y2="789.2578"/><text fill="#000000" font-family="FG Virgil" font-size="13" lengthAdjust="spacing" textLength="55" x="733.5" y="784.5029">withiD(iD)</text><polygon fill="#181818" points="1350,813.7813,1360,817.7813,1350,821.7813,1354,817.7813" style="stroke:#181818;stroke-width:1.0;"/><line style="stroke:#181818;stroke-width:1.0;" x1="726.5" x2="1356" y1="817.7813" y2="817.7813"/><text fill="#000000" font-family="FG Virgil" font-size="13" lengthAdjust="spacing" textLength="113" x="733.5" y="813.0264">withfilesUrl(filePath)</text><polygon fill="#181818" points="1350,842.3047,1360,846.3047,1350,850.3047,1354,846.3047" style="stroke:#181818;stroke-width:1.0;"/><line style="stroke:#181818;stroke-width:1.0;" x1="726.5" x2="1356" y1="846.3047" y2="846.3047"/><text fill="#000000" font-family="FG Virgil" font-size="13" lengthAdjust="spacing" textLength="91" x="733.5" y="841.5498">withState(state)</text><polygon fill="#181818" points="1350,870.8281,1360,874.8281,1350,878.8281,1354,874.8281" style="stroke:#181818;stroke-width:1.0;"/><line style="stroke:#181818;stroke-width:1.0;" x1="726.5" x2="1356" y1="874.8281" y2="874.8281"/><text fill="#000000" font-family="FG Virgil" font-size="13" lengthAdjust="spacing" textLength="83" x="733.5" y="870.0732">withDate(date)</text><polygon fill="#181818" points="1345,899.3516,1355,903.3516,1345,907.3516,1349,903.3516" style="stroke:#181818;stroke-width:1.0;"/><line style="stroke:#181818;stroke-width:1.0;" x1="726.5" x2="1351" y1="903.3516" y2="903.3516"/><text fill="#000000" font-family="FG Virgil" font-size="13" lengthAdjust="spacing" textLength="81" x="733.5" y="898.5967">withrank(rank)</text><polygon fill="#181818" points="1814,927.875,1824,931.875,1814,935.875,1818,931.875" style="stroke:#181818;stroke-width:1.0;"/><line style="stroke:#181818;stroke-width:1.0;" x1="1367" x2="1820" y1="931.875" y2="931.875"/><text fill="#000000" font-family="FG Virgil" font-size="13" lengthAdjust="spacing" textLength="435" x="1374" y="927.1201">registerNewJobApplication(iD,jobOpening,candidate,filesUrl,state,rank,date)</text><polygon fill="#181818" points="1378,956.3984,1368,960.3984,1378,964.3984,1374,960.3984" style="stroke:#181818;stroke-width:1.0;"/><line style="stroke:#181818;stroke-width:1.0;stroke-dasharray:2.0,2.0;" x1="1372" x2="1825" y1="960.3984" y2="960.3984"/><text fill="#000000" font-family="FG Virgil" font-size="13" lengthAdjust="spacing" textLength="81" x="1384" y="955.6436">jobApplication</text><polygon fill="#181818" points="737.5,984.9219,727.5,988.9219,737.5,992.9219,733.5,988.9219" style="stroke:#181818;stroke-width:1.0;"/><line style="stroke:#181818;stroke-width:1.0;stroke-dasharray:2.0,2.0;" x1="731.5" x2="1361" y1="988.9219" y2="988.9219"/><text fill="#000000" font-family="FG Virgil" font-size="13" lengthAdjust="spacing" textLength="81" x="743.5" y="984.167">jobApplication</text><polygon fill="#181818" points="1181,1013.4453,1191,1017.4453,1181,1021.4453,1185,1017.4453" style="stroke:#181818;stroke-width:1.0;"/><line style="stroke:#181818;stroke-width:1.0;" x1="726.5" x2="1187" y1="1017.4453" y2="1017.4453"/><text fill="#000000" font-family="FG Virgil" font-size="13" lengthAdjust="spacing" textLength="177" x="733.5" y="1012.6904">findByReference(jobReference)</text><polygon fill="#181818" points="1181,1041.9688,1191,1045.9688,1181,1049.9688,1185,1045.9688" style="stroke:#181818;stroke-width:1.0;"/><line style="stroke:#181818;stroke-width:1.0;" x1="726.5" x2="1187" y1="1045.9688" y2="1045.9688"/><text fill="#000000" font-family="FG Virgil" font-size="13" lengthAdjust="spacing" textLength="236" x="733.5" y="1041.2139">addJobApplicationList(theJobApplication)</text><polygon fill="#181818" points="2011,1070.4922,2021,1074.4922,2011,1078.4922,2015,1074.4922" style="stroke:#181818;stroke-width:1.0;"/><line style="stroke:#181818;stroke-width:1.0;" x1="726.5" x2="2017" y1="1074.4922" y2="1074.4922"/><text fill="#000000" font-family="FG Virgil" font-size="13" lengthAdjust="spacing" textLength="136" x="733.5" y="1069.7373">save(theJobApplication)</text><polygon fill="#181818" points="348.5,1099.0156,338.5,1103.0156,348.5,1107.0156,344.5,1103.0156" style="stroke:#181818;stroke-width:1.0;"/><line style="stroke:#181818;stroke-width:1.0;stroke-dasharray:2.0,2.0;" x1="342.5" x2="720.5" y1="1103.0156" y2="1103.0156"/><text fill="#000000" font-family="FG Virgil" font-size="13" lengthAdjust="spacing" textLength="81" x="354.5" y="1098.2607">jobApplication</text><polygon fill="#181818" points="47.5,1127.5391,37.5,1131.5391,47.5,1135.5391,43.5,1131.5391" style="stroke:#181818;stroke-width:1.0;"/><line style="stroke:#181818;stroke-width:1.0;stroke-dasharray:2.0,2.0;" x1="41.5" x2="331.5" y1="1131.5391" y2="1131.5391"/><text fill="#000000" font-family="FG Virgil" font-size="13" lengthAdjust="spacing" textLength="148" x="53.5" y="1126.7842">displayOperationSuccess</text><!--SRC=[hLPBSzem4BxxL-nmCXad9JbwCimGI3hfj6a7Ia-zAFO2IepaId8ozDTt9ODVA0amzS6ZntwVTbVxaE4cGxZM_2_6LuFX3FyKA1A42MTBnTOmdy7LO71r_SbA38D0FtEHCxkpba8cAoNN24OLsDZ9MVBCbZWp6w9Mc9Z6NeeBLcJcJWhpm0Xwznb-SRNaMKD6hrWgNxbObiG1IunKy3r7nUo0QHZPbO2a3KzupeI1NZp59TS6rIZFCvumRgIOt_UizFmUhgzpXHg5OOPBCHn-Z1sJXafc6Ih7KK-9YvLYNgg4YPIdpE0KSwc9IMrAWlrrObBLP8zemRCknrrhwNtuatmaZmdoOeVaYsVZVIf2Z6gBRmgUfLklU7U8xB4STPcUMk9nU-e89tBDk1WJHUf6FhCQc7tJl9jTysn4yHUwYsqWkJ-S3obIOXZfPmr6Kk2MCG4C1Bv2-s3uBHOs5A6wxffpVXy0VHHrn5Z7pTbP38b2AxhRfdrtj3kqfW8aqpEWgKq5XIaif7DipipAWLiA_zpag0z51rxTuihQjWj3idgA2rIs9aIEEE9fP4DJ_o2wo1uOzNeH-MD6kOKNu-yFT_VJRxSJ4bBQvNYKiUqWNqc13yNw4LNVwL7vh5Pbgw7z6ZbdjTrFe1WMNAGtcrkhMEZKwrVecdiVM1_XoShpbciWRjpn3fRYGUmiCurx4KMM7MMSPYyOKknLc_qQhd01yeN03S-1vvkFuN8m65nSrb0KwHkJjaxjQhDLnrvzGutA3MrXdwCw4WSUMbwmZHvtjBQZ_tC-VKBIkkBBbG6vy1Up-8qQnpKKcdAB2aMPr9G135vOnbCO5zfGMrJaNCFDvWrBlRndPr1LYMDmX7hbPbL5IfZKCNCy3P-4V78Aq5tHN6Nkhco1E8N45P9GcnELdrZqgPOh9fv3-_FK4I-k4lEpqd6xbbRNs0TyxPHPFedgVXrLTnVj_1avRqHMiQXjsexz_1t3sgth8usxrUyDT2Ep_8wfutVV__iF4DYbUjLkMhsdVpGRIzEsNb_9zw5PONkr7noMPsroLmgzN46No3LflnkRNQJH_ye6JS3jso3bEi_Ofdp_4dPM90bg7JJWzEHep1pk7m00]--></g></svg>