<?xml version="1.0" encoding="us-ascii" standalone="no"?><svg xmlns="http://www.w3.org/2000/svg" xmlns:xlink="http://www.w3.org/1999/xlink" contentStyleType="text/css" height="877px" preserveAspectRatio="none" style="width:1488px;height:877px;background:#FFFFFF;" version="1.1" viewBox="0 0 1488 877" width="1488px" zoomAndPan="magnify"><defs/><g><text fill="#000000" font-family="FG Virgil" font-size="20" font-weight="bold" lengthAdjust="spacing" textLength="260" x="613.25" y="36.582">Sequence Diagram US 1009</text><rect fill="#FFFFFF" height="635.1113" style="stroke:#181818;stroke-width:1.0;" width="10" x="63.5" y="141.2227"/><rect fill="#FFFFFF" height="594.5293" style="stroke:#181818;stroke-width:1.0;" width="10" x="337.5" y="181.8047"/><rect fill="#FFFFFF" height="93.873" style="stroke:#181818;stroke-width:1.0;" width="10" x="885.5" y="275.6777"/><rect fill="#FFFFFF" height="281.6191" style="stroke:#181818;stroke-width:1.0;" width="10" x="885.5" y="463.4238"/><rect fill="#FFFFFF" height="31.291" style="stroke:#181818;stroke-width:1.0;" width="10" x="1079" y="619.8789"/><rect fill="#FFFFFF" height="31.291" style="stroke:#181818;stroke-width:1.0;" width="10" x="1239" y="306.9688"/><rect fill="#FFFFFF" height="31.291" style="stroke:#181818;stroke-width:1.0;" width="10" x="1396.5" y="494.7148"/><rect fill="#FFFFFF" height="31.291" style="stroke:#181818;stroke-width:1.0;" width="10" x="1396.5" y="682.4609"/><line style="stroke:#181818;stroke-width:0.5;stroke-dasharray:5.0,5.0;" x1="68" x2="68" y1="131.2227" y2="794.334"/><line style="stroke:#181818;stroke-width:0.5;stroke-dasharray:5.0,5.0;" x1="342.5" x2="342.5" y1="131.2227" y2="794.334"/><line style="stroke:#181818;stroke-width:0.5;stroke-dasharray:5.0,5.0;" x1="890.5" x2="890.5" y1="131.2227" y2="794.334"/><line style="stroke:#181818;stroke-width:0.5;stroke-dasharray:5.0,5.0;" x1="1083.5" x2="1083.5" y1="131.2227" y2="794.334"/><line style="stroke:#181818;stroke-width:0.5;stroke-dasharray:5.0,5.0;" x1="1243.5" x2="1243.5" y1="131.2227" y2="794.334"/><line style="stroke:#181818;stroke-width:0.5;stroke-dasharray:5.0,5.0;" x1="1401.5" x2="1401.5" y1="131.2227" y2="794.334"/><text fill="#000000" font-family="FG Virgil" font-size="14" lengthAdjust="spacing" textLength="121" x="5" y="127.709">LanguageEngineer</text><ellipse cx="68.5" cy="61.1016" fill="#ADD8E6" rx="8" ry="8" style="stroke:#181818;stroke-width:0.5;"/><path d="M68.5,69.1016 L68.5,96.1016 M55.5,77.1016 L81.5,77.1016 M68.5,96.1016 L55.5,111.1016 M68.5,96.1016 L81.5,111.1016 " fill="none" style="stroke:#181818;stroke-width:0.5;"/><text fill="#000000" font-family="FG Virgil" font-size="14" lengthAdjust="spacing" textLength="121" x="5" y="808.4414">LanguageEngineer</text><ellipse cx="68.5" cy="820.4551" fill="#ADD8E6" rx="8" ry="8" style="stroke:#181818;stroke-width:0.5;"/><path d="M68.5,828.4551 L68.5,855.4551 M55.5,836.4551 L81.5,836.4551 M68.5,855.4551 L55.5,870.4551 M68.5,855.4551 L81.5,870.4551 " fill="none" style="stroke:#181818;stroke-width:0.5;"/><rect fill="#E2E2F0" height="51.2422" rx="2.5" ry="2.5" style="stroke:#181818;stroke-width:0.5;" width="150" x="267.5" y="78.9805"/><text fill="#000000" font-family="FG Virgil" font-size="14" font-style="italic" lengthAdjust="spacing" textLength="95" x="295" y="101.0879">&#171;presentation&#187;</text><text fill="#000000" font-family="FG Virgil" font-size="14" lengthAdjust="spacing" textLength="136" x="274.5" y="119.709">:SelectRequirementUI</text><rect fill="#E2E2F0" height="51.2422" rx="2.5" ry="2.5" style="stroke:#181818;stroke-width:0.5;" width="150" x="267.5" y="793.334"/><text fill="#000000" font-family="FG Virgil" font-size="14" font-style="italic" lengthAdjust="spacing" textLength="95" x="295" y="815.4414">&#171;presentation&#187;</text><text fill="#000000" font-family="FG Virgil" font-size="14" lengthAdjust="spacing" textLength="136" x="274.5" y="834.0625">:SelectRequirementUI</text><rect fill="#E2E2F0" height="51.2422" rx="2.5" ry="2.5" style="stroke:#181818;stroke-width:0.5;" width="200" x="790.5" y="78.9805"/><text fill="#000000" font-family="FG Virgil" font-size="14" font-style="italic" lengthAdjust="spacing" textLength="84" x="848.5" y="101.0879">&#171;application&#187;</text><text fill="#000000" font-family="FG Virgil" font-size="14" lengthAdjust="spacing" textLength="186" x="797.5" y="119.709">:SelectRequirementController</text><rect fill="#E2E2F0" height="51.2422" rx="2.5" ry="2.5" style="stroke:#181818;stroke-width:0.5;" width="200" x="790.5" y="793.334"/><text fill="#000000" font-family="FG Virgil" font-size="14" font-style="italic" lengthAdjust="spacing" textLength="84" x="848.5" y="815.4414">&#171;application&#187;</text><text fill="#000000" font-family="FG Virgil" font-size="14" lengthAdjust="spacing" textLength="186" x="797.5" y="834.0625">:SelectRequirementController</text><rect fill="#E2E2F0" height="51.2422" rx="2.5" ry="2.5" style="stroke:#181818;stroke-width:0.5;" width="167" x="1000.5" y="78.9805"/><text fill="#000000" font-family="FG Virgil" font-size="14" font-style="italic" lengthAdjust="spacing" textLength="62" x="1053" y="101.0879">&#171;domain&#187;</text><text fill="#000000" font-family="FG Virgil" font-size="14" lengthAdjust="spacing" textLength="153" x="1007.5" y="119.709">jobOpening:JobOpening</text><rect fill="#E2E2F0" height="51.2422" rx="2.5" ry="2.5" style="stroke:#181818;stroke-width:0.5;" width="167" x="1000.5" y="793.334"/><text fill="#000000" font-family="FG Virgil" font-size="14" font-style="italic" lengthAdjust="spacing" textLength="62" x="1053" y="815.4414">&#171;domain&#187;</text><text fill="#000000" font-family="FG Virgil" font-size="14" lengthAdjust="spacing" textLength="153" x="1007.5" y="834.0625">jobOpening:JobOpening</text><rect fill="#E2E2F0" height="51.2422" rx="2.5" ry="2.5" style="stroke:#181818;stroke-width:0.5;" width="133" x="1177.5" y="78.9805"/><text fill="#000000" font-family="FG Virgil" font-size="14" font-style="italic" lengthAdjust="spacing" textLength="79" x="1204.5" y="101.0879">&#171;repository&#187;</text><text fill="#000000" font-family="FG Virgil" font-size="14" lengthAdjust="spacing" textLength="119" x="1184.5" y="119.709">:RequirementRepo</text><rect fill="#E2E2F0" height="51.2422" rx="2.5" ry="2.5" style="stroke:#181818;stroke-width:0.5;" width="133" x="1177.5" y="793.334"/><text fill="#000000" font-family="FG Virgil" font-size="14" font-style="italic" lengthAdjust="spacing" textLength="79" x="1204.5" y="815.4414">&#171;repository&#187;</text><text fill="#000000" font-family="FG Virgil" font-size="14" lengthAdjust="spacing" textLength="119" x="1184.5" y="834.0625">:RequirementRepo</text><rect fill="#E2E2F0" height="51.2422" rx="2.5" ry="2.5" style="stroke:#181818;stroke-width:0.5;" width="162" x="1320.5" y="78.9805"/><text fill="#000000" font-family="FG Virgil" font-size="14" font-style="italic" lengthAdjust="spacing" textLength="79" x="1362" y="101.0879">&#171;repository&#187;</text><text fill="#000000" font-family="FG Virgil" font-size="14" lengthAdjust="spacing" textLength="148" x="1327.5" y="119.709">:JobOpeningRepository</text><rect fill="#E2E2F0" height="51.2422" rx="2.5" ry="2.5" style="stroke:#181818;stroke-width:0.5;" width="162" x="1320.5" y="793.334"/><text fill="#000000" font-family="FG Virgil" font-size="14" font-style="italic" lengthAdjust="spacing" textLength="79" x="1362" y="815.4414">&#171;repository&#187;</text><text fill="#000000" font-family="FG Virgil" font-size="14" lengthAdjust="spacing" textLength="148" x="1327.5" y="834.0625">:JobOpeningRepository</text><rect fill="#FFFFFF" height="635.1113" style="stroke:#181818;stroke-width:1.0;" width="10" x="63.5" y="141.2227"/><rect fill="#FFFFFF" height="594.5293" style="stroke:#181818;stroke-width:1.0;" width="10" x="337.5" y="181.8047"/><rect fill="#FFFFFF" height="93.873" style="stroke:#181818;stroke-width:1.0;" width="10" x="885.5" y="275.6777"/><rect fill="#FFFFFF" height="281.6191" style="stroke:#181818;stroke-width:1.0;" width="10" x="885.5" y="463.4238"/><rect fill="#FFFFFF" height="31.291" style="stroke:#181818;stroke-width:1.0;" width="10" x="1079" y="619.8789"/><rect fill="#FFFFFF" height="31.291" style="stroke:#181818;stroke-width:1.0;" width="10" x="1239" y="306.9688"/><rect fill="#FFFFFF" height="31.291" style="stroke:#181818;stroke-width:1.0;" width="10" x="1396.5" y="494.7148"/><rect fill="#FFFFFF" height="31.291" style="stroke:#181818;stroke-width:1.0;" width="10" x="1396.5" y="682.4609"/><polygon fill="#181818" points="325.5,177.8047,335.5,181.8047,325.5,185.8047,329.5,181.8047" style="stroke:#181818;stroke-width:1.0;"/><line style="stroke:#181818;stroke-width:1.0;" x1="73.5" x2="331.5" y1="181.8047" y2="181.8047"/><text fill="#000000" font-family="FG Virgil" font-size="13" lengthAdjust="spacing" textLength="243" x="80.5" y="159.251">Asks to select a requirement specification</text><text fill="#000000" font-family="FG Virgil" font-size="13" lengthAdjust="spacing" textLength="160" x="80.5" y="176.542">to be used for a job opening</text><polygon fill="#181818" points="84.5,209.0957,74.5,213.0957,84.5,217.0957,80.5,213.0957" style="stroke:#181818;stroke-width:1.0;"/><line style="stroke:#181818;stroke-width:1.0;stroke-dasharray:2.0,2.0;" x1="78.5" x2="336.5" y1="213.0957" y2="213.0957"/><text fill="#000000" font-family="FG Virgil" font-size="13" lengthAdjust="spacing" textLength="126" x="90.5" y="207.833">Asks for job reference</text><polygon fill="#181818" points="325.5,240.3867,335.5,244.3867,325.5,248.3867,329.5,244.3867" style="stroke:#181818;stroke-width:1.0;"/><line style="stroke:#181818;stroke-width:1.0;" x1="73.5" x2="331.5" y1="244.3867" y2="244.3867"/><text fill="#000000" font-family="FG Virgil" font-size="13" lengthAdjust="spacing" textLength="127" x="80.5" y="239.124">Provides job reference</text><polygon fill="#181818" points="873.5,271.6777,883.5,275.6777,873.5,279.6777,877.5,275.6777" style="stroke:#181818;stroke-width:1.0;"/><line style="stroke:#181818;stroke-width:1.0;" x1="347.5" x2="879.5" y1="275.6777" y2="275.6777"/><text fill="#000000" font-family="FG Virgil" font-size="13" lengthAdjust="spacing" textLength="329" x="354.5" y="270.415">findJobOpeningNameByReference(Designation reference)</text><polygon fill="#181818" points="1227,302.9688,1237,306.9688,1227,310.9688,1231,306.9688" style="stroke:#181818;stroke-width:1.0;"/><line style="stroke:#181818;stroke-width:1.0;" x1="895.5" x2="1233" y1="306.9688" y2="306.9688"/><text fill="#000000" font-family="FG Virgil" font-size="13" lengthAdjust="spacing" textLength="155" x="902.5" y="301.7061">findByReference(reference)</text><polygon fill="#181818" points="906.5,334.2598,896.5,338.2598,906.5,342.2598,902.5,338.2598" style="stroke:#181818;stroke-width:1.0;"/><line style="stroke:#181818;stroke-width:1.0;stroke-dasharray:2.0,2.0;" x1="900.5" x2="1243" y1="338.2598" y2="338.2598"/><text fill="#000000" font-family="FG Virgil" font-size="13" lengthAdjust="spacing" textLength="65" x="912.5" y="332.9971">jobOpening</text><polygon fill="#181818" points="358.5,365.5508,348.5,369.5508,358.5,373.5508,354.5,369.5508" style="stroke:#181818;stroke-width:1.0;"/><line style="stroke:#181818;stroke-width:1.0;stroke-dasharray:2.0,2.0;" x1="352.5" x2="889.5" y1="369.5508" y2="369.5508"/><text fill="#000000" font-family="FG Virgil" font-size="13" lengthAdjust="spacing" textLength="65" x="364.5" y="364.2881">jobOpening</text><polygon fill="#181818" points="84.5,396.8418,74.5,400.8418,84.5,404.8418,80.5,400.8418" style="stroke:#181818;stroke-width:1.0;"/><line style="stroke:#181818;stroke-width:1.0;stroke-dasharray:2.0,2.0;" x1="78.5" x2="336.5" y1="400.8418" y2="400.8418"/><text fill="#000000" font-family="FG Virgil" font-size="13" lengthAdjust="spacing" textLength="239" x="90.5" y="395.5791">Asks for Requirement Specification name</text><polygon fill="#181818" points="325.5,428.1328,335.5,432.1328,325.5,436.1328,329.5,432.1328" style="stroke:#181818;stroke-width:1.0;"/><line style="stroke:#181818;stroke-width:1.0;" x1="73.5" x2="331.5" y1="432.1328" y2="432.1328"/><text fill="#000000" font-family="FG Virgil" font-size="13" lengthAdjust="spacing" textLength="240" x="80.5" y="426.8701">Provides Requirement Specification name</text><polygon fill="#181818" points="873.5,459.4238,883.5,463.4238,873.5,467.4238,877.5,463.4238" style="stroke:#181818;stroke-width:1.0;"/><line style="stroke:#181818;stroke-width:1.0;" x1="347.5" x2="879.5" y1="463.4238" y2="463.4238"/><text fill="#000000" font-family="FG Virgil" font-size="13" lengthAdjust="spacing" textLength="221" x="354.5" y="458.1611">findRequirementByName(String name)</text><polygon fill="#181818" points="1384.5,490.7148,1394.5,494.7148,1384.5,498.7148,1388.5,494.7148" style="stroke:#181818;stroke-width:1.0;"/><line style="stroke:#181818;stroke-width:1.0;" x1="895.5" x2="1390.5" y1="494.7148" y2="494.7148"/><text fill="#000000" font-family="FG Virgil" font-size="13" lengthAdjust="spacing" textLength="148" x="902.5" y="489.4521">findByName(String name)</text><polygon fill="#181818" points="906.5,522.0059,896.5,526.0059,906.5,530.0059,902.5,526.0059" style="stroke:#181818;stroke-width:1.0;"/><line style="stroke:#181818;stroke-width:1.0;stroke-dasharray:2.0,2.0;" x1="900.5" x2="1400.5" y1="526.0059" y2="526.0059"/><text fill="#000000" font-family="FG Virgil" font-size="13" lengthAdjust="spacing" textLength="68" x="912.5" y="520.7432">requirement</text><polygon fill="#181818" points="358.5,553.2969,348.5,557.2969,358.5,561.2969,354.5,557.2969" style="stroke:#181818;stroke-width:1.0;"/><line style="stroke:#181818;stroke-width:1.0;stroke-dasharray:2.0,2.0;" x1="352.5" x2="884.5" y1="557.2969" y2="557.2969"/><text fill="#000000" font-family="FG Virgil" font-size="13" lengthAdjust="spacing" textLength="68" x="364.5" y="552.0342">requirement</text><polygon fill="#181818" points="873.5,584.5879,883.5,588.5879,873.5,592.5879,877.5,588.5879" style="stroke:#181818;stroke-width:1.0;"/><line style="stroke:#181818;stroke-width:1.0;" x1="347.5" x2="879.5" y1="588.5879" y2="588.5879"/><text fill="#000000" font-family="FG Virgil" font-size="13" lengthAdjust="spacing" textLength="514" x="354.5" y="583.3252">associateRequirementToJobOpening(String requirementName, Designation jobReference)</text><polygon fill="#181818" points="1067,615.8789,1077,619.8789,1067,623.8789,1071,619.8789" style="stroke:#181818;stroke-width:1.0;"/><line style="stroke:#181818;stroke-width:1.0;" x1="895.5" x2="1073" y1="619.8789" y2="619.8789"/><text fill="#000000" font-family="FG Virgil" font-size="13" lengthAdjust="spacing" textLength="154" x="902.5" y="614.6162">updateRequirement(plugin)</text><polygon fill="#181818" points="906.5,647.1699,896.5,651.1699,906.5,655.1699,902.5,651.1699" style="stroke:#181818;stroke-width:1.0;"/><line style="stroke:#181818;stroke-width:1.0;stroke-dasharray:2.0,2.0;" x1="900.5" x2="1083" y1="651.1699" y2="651.1699"/><text fill="#000000" font-family="FG Virgil" font-size="13" lengthAdjust="spacing" textLength="65" x="912.5" y="645.9072">jobOpening</text><polygon fill="#181818" points="1384.5,678.4609,1394.5,682.4609,1384.5,686.4609,1388.5,682.4609" style="stroke:#181818;stroke-width:1.0;"/><line style="stroke:#181818;stroke-width:1.0;" x1="895.5" x2="1390.5" y1="682.4609" y2="682.4609"/><text fill="#000000" font-family="FG Virgil" font-size="13" lengthAdjust="spacing" textLength="99" x="902.5" y="677.1982">save(jobOpening)</text><polygon fill="#181818" points="906.5,709.752,896.5,713.752,906.5,717.752,902.5,713.752" style="stroke:#181818;stroke-width:1.0;"/><line style="stroke:#181818;stroke-width:1.0;stroke-dasharray:2.0,2.0;" x1="900.5" x2="1400.5" y1="713.752" y2="713.752"/><text fill="#000000" font-family="FG Virgil" font-size="13" lengthAdjust="spacing" textLength="65" x="912.5" y="708.4893">jobOpening</text><polygon fill="#181818" points="358.5,741.043,348.5,745.043,358.5,749.043,354.5,745.043" style="stroke:#181818;stroke-width:1.0;"/><line style="stroke:#181818;stroke-width:1.0;stroke-dasharray:2.0,2.0;" x1="352.5" x2="889.5" y1="745.043" y2="745.043"/><text fill="#000000" font-family="FG Virgil" font-size="13" lengthAdjust="spacing" textLength="65" x="364.5" y="739.7803">jobOpening</text><polygon fill="#181818" points="79.5,772.334,69.5,776.334,79.5,780.334,75.5,776.334" style="stroke:#181818;stroke-width:1.0;"/><line style="stroke:#181818;stroke-width:1.0;stroke-dasharray:2.0,2.0;" x1="73.5" x2="341.5" y1="776.334" y2="776.334"/><text fill="#000000" font-family="FG Virgil" font-size="13" lengthAdjust="spacing" textLength="217" x="85.5" y="771.0713">Displays operation success message</text><!--SRC=[hLN1aX8n4BtdAxhMWrWb2tfpYg9gLrmBor8Bn9ENC6c6G2Q9IGOBlzxE3301PjqzU849UVswtykR46HG22Cl_s3sTZYUuwyATOumaRnml8J57DuCX-z6WuWOC_Po7OBD1WEhk0vLgMvpKmxyLchB2Nwx3gLYfoMKHfjyxKo9iEBAOx9bURxb1Sx3dlexp4Eo9t35AnKUZ0vVEDK-V8GVqXKofVPhBinlgOi3C-DvC0u-SrrKnFj15r8ZEk0UxkgT5qeMwx1K5J9Y23ANbYJ0JJP7HUrdf5mwB567nVGcbYscC1fPXvv-ua4QFHu_LVcU9dP6ANGrGxia9cwjadadqSOilrhK92RxT7gi6OIXIc5ABg-x9trdQ4sDT_H05V7BIrAzlwfg6ynEe5Ffvh8skYftF61Z8cEDb_qnkPF1dTzw20PyxGDmuZYD1DvYBbS7nJyrmPO8bKS1AsBWGAB1D9EqNHPJjfZsYRxkS-WGyH7jS8KkflDyYc_ExAH0Vu6XuoD0UmGPhAGMhVoOhFlzx8ZlJT3BGjVJjYolsj5Q9fQSAxM8XZNaALqNHKIo-eZw5wEr2M02p_5fiuFYRdGoODJUOMAI69YdnmEQp7Z4rIUAkcrEYkxtqUdUFBZuiiQQvvgwERhw3u8QnvhiNfgQfF7IrKsNhId-MXRttkII219jtqsRf-E02KkS-pMamQAJcxN1E9SiA4ML5USTUbPLT9CbYeLXuha14gRRLizts6jBdkdduo7T_8UKJgIdFvMzZvU2QzpoLPwZzr3I1ztfAGrT5CcgkPp-0W00]--></g></svg>