<?xml version="1.0" encoding="us-ascii" standalone="no"?><svg xmlns="http://www.w3.org/2000/svg" xmlns:xlink="http://www.w3.org/1999/xlink" contentStyleType="text/css" height="1221px" preserveAspectRatio="none" style="width:1771px;height:1221px;background:#FFFFFF;" version="1.1" viewBox="0 0 1771 1221" width="1771px" zoomAndPan="magnify"><defs/><g><text fill="#000000" font-family="FG Virgil" font-size="20" font-weight="bold" lengthAdjust="spacing" textLength="445" x="662.25" y="34.3359">Sequence Diagram US 1017 - True Version</text><rect fill="#FFFFFF" height="995.2695" style="stroke:#181818;stroke-width:1.0;" width="10" x="66.5" y="136.043"/><rect fill="#FFFFFF" height="204.5293" style="stroke:#181818;stroke-width:1.0;" width="10" x="313.5" y="172.6641"/><rect fill="#FFFFFF" height="146.5527" style="stroke:#181818;stroke-width:1.0;" width="10" x="313.5" y="406.5039"/><rect fill="#FFFFFF" height="29.3105" style="stroke:#181818;stroke-width:1.0;" width="10" x="313.5" y="582.3672"/><rect fill="#FFFFFF" height="481.3242" style="stroke:#181818;stroke-width:1.0;" width="10" x="313.5" y="640.9883"/><rect fill="#FFFFFF" height="87.9316" style="stroke:#181818;stroke-width:1.0;" width="10" x="855.5" y="259.9512"/><rect fill="#FFFFFF" height="87.9316" style="stroke:#181818;stroke-width:1.0;" width="10" x="855.5" y="435.8145"/><rect fill="#FFFFFF" height="87.9316" style="stroke:#181818;stroke-width:1.0;" width="10" x="855.5" y="670.2988"/><rect fill="#FFFFFF" height="305.4609" style="stroke:#181818;stroke-width:1.0;" width="10" x="855.5" y="787.541"/><rect fill="#FFFFFF" height="29.3105" style="stroke:#181818;stroke-width:1.0;" width="10" x="1208.5" y="289.2617"/><rect fill="#FFFFFF" height="29.3105" style="stroke:#181818;stroke-width:1.0;" width="10" x="1400" y="465.125"/><rect fill="#FFFFFF" height="29.3105" style="stroke:#181818;stroke-width:1.0;" width="10" x="1400" y="1034.3809"/><rect fill="#FFFFFF" height="29.3105" style="stroke:#181818;stroke-width:1.0;" width="10" x="1583" y="699.6094"/><rect fill="#FFFFFF" height="87.9316" style="stroke:#181818;stroke-width:1.0;" width="10" x="1715.5" y="874.8281"/><line style="stroke:#181818;stroke-width:0.5;stroke-dasharray:5.0,5.0;" x1="71" x2="71" y1="126.043" y2="1140.3125"/><line style="stroke:#181818;stroke-width:0.5;stroke-dasharray:5.0,5.0;" x1="318" x2="318" y1="126.043" y2="1140.3125"/><line style="stroke:#181818;stroke-width:0.5;stroke-dasharray:5.0,5.0;" x1="860" x2="860" y1="219.6523" y2="1140.3125"/><line style="stroke:#181818;stroke-width:0.5;stroke-dasharray:5.0,5.0;" x1="1213.5" x2="1213.5" y1="126.043" y2="1140.3125"/><line style="stroke:#181818;stroke-width:0.5;stroke-dasharray:5.0,5.0;" x1="1404.5" x2="1404.5" y1="126.043" y2="1140.3125"/><line style="stroke:#181818;stroke-width:0.5;stroke-dasharray:5.0,5.0;" x1="1587.5" x2="1587.5" y1="126.043" y2="1140.3125"/><line style="stroke:#181818;stroke-width:0.5;stroke-dasharray:5.0,5.0;" x1="1720.5" x2="1720.5" y1="834.5293" y2="1140.3125"/><text fill="#000000" font-family="FG Virgil" font-size="14" lengthAdjust="spacing" textLength="127" x="5" y="123.0898">CustomerManager</text><ellipse cx="71.5" cy="58.0547" fill="#ADD8E6" rx="8" ry="8" style="stroke:#181818;stroke-width:0.5;"/><path d="M71.5,66.0547 L71.5,93.0547 M58.5,74.0547 L84.5,74.0547 M71.5,93.0547 L58.5,108.0547 M71.5,93.0547 L84.5,108.0547 " fill="none" style="stroke:#181818;stroke-width:0.5;"/><text fill="#000000" font-family="FG Virgil" font-size="14" lengthAdjust="spacing" textLength="127" x="5" y="1152.8477">CustomerManager</text><ellipse cx="71.5" cy="1164.3008" fill="#ADD8E6" rx="8" ry="8" style="stroke:#181818;stroke-width:0.5;"/><path d="M71.5,1172.3008 L71.5,1199.3008 M58.5,1180.3008 L84.5,1180.3008 M71.5,1199.3008 L58.5,1214.3008 M71.5,1199.3008 L84.5,1214.3008 " fill="none" style="stroke:#181818;stroke-width:0.5;"/><rect fill="#E2E2F0" height="46.9766" rx="2.5" ry="2.5" style="stroke:#181818;stroke-width:0.5;" width="209" x="214" y="78.0664"/><text fill="#000000" font-family="FG Virgil" font-size="14" font-style="italic" lengthAdjust="spacing" textLength="101" x="268" y="98.6016">&#171;presentation&#187;</text><text fill="#000000" font-family="FG Virgil" font-size="14" lengthAdjust="spacing" textLength="195" x="221" y="115.0898">:UploadInterviewModelFileUI</text><rect fill="#E2E2F0" height="46.9766" rx="2.5" ry="2.5" style="stroke:#181818;stroke-width:0.5;" width="209" x="214" y="1139.3125"/><text fill="#000000" font-family="FG Virgil" font-size="14" font-style="italic" lengthAdjust="spacing" textLength="101" x="268" y="1159.8477">&#171;presentation&#187;</text><text fill="#000000" font-family="FG Virgil" font-size="14" lengthAdjust="spacing" textLength="195" x="221" y="1176.3359">:UploadInterviewModelFileUI</text><rect fill="#E2E2F0" height="46.9766" rx="2.5" ry="2.5" style="stroke:#181818;stroke-width:0.5;" width="161" x="780" y="1139.3125"/><text fill="#000000" font-family="FG Virgil" font-size="14" font-style="italic" lengthAdjust="spacing" textLength="90" x="815.5" y="1159.8477">&#171;application&#187;</text><text fill="#000000" font-family="FG Virgil" font-size="14" lengthAdjust="spacing" textLength="147" x="787" y="1176.3359">:UploadFileController</text><rect fill="#E2E2F0" height="46.9766" rx="2.5" ry="2.5" style="stroke:#181818;stroke-width:0.5;" width="172" x="1127.5" y="78.0664"/><text fill="#000000" font-family="FG Virgil" font-size="14" font-style="italic" lengthAdjust="spacing" textLength="84" x="1171.5" y="98.6016">&#171;repository&#187;</text><text fill="#000000" font-family="FG Virgil" font-size="14" lengthAdjust="spacing" textLength="158" x="1134.5" y="115.0898">:JobOpeningRepository</text><rect fill="#E2E2F0" height="46.9766" rx="2.5" ry="2.5" style="stroke:#181818;stroke-width:0.5;" width="172" x="1127.5" y="1139.3125"/><text fill="#000000" font-family="FG Virgil" font-size="14" font-style="italic" lengthAdjust="spacing" textLength="84" x="1171.5" y="1159.8477">&#171;repository&#187;</text><text fill="#000000" font-family="FG Virgil" font-size="14" lengthAdjust="spacing" textLength="158" x="1134.5" y="1176.3359">:JobOpeningRepository</text><rect fill="#E2E2F0" height="46.9766" rx="2.5" ry="2.5" style="stroke:#181818;stroke-width:0.5;" width="191" x="1309.5" y="78.0664"/><text fill="#000000" font-family="FG Virgil" font-size="14" font-style="italic" lengthAdjust="spacing" textLength="84" x="1363" y="98.6016">&#171;repository&#187;</text><text fill="#000000" font-family="FG Virgil" font-size="14" lengthAdjust="spacing" textLength="177" x="1316.5" y="115.0898">:JobApplicationRepository</text><rect fill="#E2E2F0" height="46.9766" rx="2.5" ry="2.5" style="stroke:#181818;stroke-width:0.5;" width="191" x="1309.5" y="1139.3125"/><text fill="#000000" font-family="FG Virgil" font-size="14" font-style="italic" lengthAdjust="spacing" textLength="84" x="1363" y="1159.8477">&#171;repository&#187;</text><text fill="#000000" font-family="FG Virgil" font-size="14" lengthAdjust="spacing" textLength="177" x="1316.5" y="1176.3359">:JobApplicationRepository</text><rect fill="#E2E2F0" height="46.9766" rx="2.5" ry="2.5" style="stroke:#181818;stroke-width:0.5;" width="155" x="1510.5" y="78.0664"/><text fill="#000000" font-family="FG Virgil" font-size="14" font-style="italic" lengthAdjust="spacing" textLength="66" x="1555" y="98.6016">&#171;domain&#187;</text><text fill="#000000" font-family="FG Virgil" font-size="14" lengthAdjust="spacing" textLength="141" x="1517.5" y="115.0898">:InterviewModel_EX1</text><rect fill="#E2E2F0" height="46.9766" rx="2.5" ry="2.5" style="stroke:#181818;stroke-width:0.5;" width="155" x="1510.5" y="1139.3125"/><text fill="#000000" font-family="FG Virgil" font-size="14" font-style="italic" lengthAdjust="spacing" textLength="66" x="1555" y="1159.8477">&#171;domain&#187;</text><text fill="#000000" font-family="FG Virgil" font-size="14" lengthAdjust="spacing" textLength="141" x="1517.5" y="1176.3359">:InterviewModel_EX1</text><rect fill="#E2E2F0" height="46.9766" rx="2.5" ry="2.5" style="stroke:#181818;stroke-width:0.5;" width="90" x="1675.5" y="1139.3125"/><text fill="#000000" font-family="FG Virgil" font-size="14" font-style="italic" lengthAdjust="spacing" textLength="61" x="1690" y="1159.8477">&#171;service&#187;</text><text fill="#000000" font-family="FG Virgil" font-size="14" lengthAdjust="spacing" textLength="76" x="1682.5" y="1176.3359">:FileService</text><rect fill="#FFFFFF" height="995.2695" style="stroke:#181818;stroke-width:1.0;" width="10" x="66.5" y="136.043"/><rect fill="#FFFFFF" height="204.5293" style="stroke:#181818;stroke-width:1.0;" width="10" x="313.5" y="172.6641"/><rect fill="#FFFFFF" height="146.5527" style="stroke:#181818;stroke-width:1.0;" width="10" x="313.5" y="406.5039"/><rect fill="#FFFFFF" height="29.3105" style="stroke:#181818;stroke-width:1.0;" width="10" x="313.5" y="582.3672"/><rect fill="#FFFFFF" height="481.3242" style="stroke:#181818;stroke-width:1.0;" width="10" x="313.5" y="640.9883"/><rect fill="#FFFFFF" height="87.9316" style="stroke:#181818;stroke-width:1.0;" width="10" x="855.5" y="259.9512"/><rect fill="#FFFFFF" height="87.9316" style="stroke:#181818;stroke-width:1.0;" width="10" x="855.5" y="435.8145"/><rect fill="#FFFFFF" height="87.9316" style="stroke:#181818;stroke-width:1.0;" width="10" x="855.5" y="670.2988"/><rect fill="#FFFFFF" height="305.4609" style="stroke:#181818;stroke-width:1.0;" width="10" x="855.5" y="787.541"/><rect fill="#FFFFFF" height="29.3105" style="stroke:#181818;stroke-width:1.0;" width="10" x="1208.5" y="289.2617"/><rect fill="#FFFFFF" height="29.3105" style="stroke:#181818;stroke-width:1.0;" width="10" x="1400" y="465.125"/><rect fill="#FFFFFF" height="29.3105" style="stroke:#181818;stroke-width:1.0;" width="10" x="1400" y="1034.3809"/><rect fill="#FFFFFF" height="29.3105" style="stroke:#181818;stroke-width:1.0;" width="10" x="1583" y="699.6094"/><rect fill="#FFFFFF" height="87.9316" style="stroke:#181818;stroke-width:1.0;" width="10" x="1715.5" y="874.8281"/><polygon fill="#181818" points="301.5,168.6641,311.5,172.6641,301.5,176.6641,305.5,172.6641" style="stroke:#181818;stroke-width:1.0;"/><line style="stroke:#181818;stroke-width:1.0;" x1="76.5" x2="307.5" y1="172.6641" y2="172.6641"/><text fill="#000000" font-family="FG Virgil" font-size="13" lengthAdjust="spacing" textLength="214" x="83.5" y="152.6113">Asks to upload a text file with the</text><text fill="#000000" font-family="FG Virgil" font-size="13" lengthAdjust="spacing" textLength="195" x="83.5" y="167.9219">candidate's answers (Interview)</text><polygon fill="#181818" points="768,197.9746,778,201.9746,768,205.9746,772,201.9746" style="stroke:#181818;stroke-width:1.0;"/><line style="stroke:#181818;stroke-width:1.0;" x1="323.5" x2="774" y1="201.9746" y2="201.9746"/><text fill="#000000" font-family="FG Virgil" font-size="13" lengthAdjust="spacing" textLength="38" x="330.5" y="197.2324">create</text><rect fill="#E2E2F0" height="46.9766" rx="2.5" ry="2.5" style="stroke:#181818;stroke-width:0.5;" width="161" x="780" y="180.6641"/><text fill="#000000" font-family="FG Virgil" font-size="14" font-style="italic" lengthAdjust="spacing" textLength="90" x="815.5" y="201.1992">&#171;application&#187;</text><text fill="#000000" font-family="FG Virgil" font-size="14" lengthAdjust="spacing" textLength="147" x="787" y="217.6875">:UploadFileController</text><polygon fill="#181818" points="843.5,255.9512,853.5,259.9512,843.5,263.9512,847.5,259.9512" style="stroke:#181818;stroke-width:1.0;"/><line style="stroke:#181818;stroke-width:1.0;" x1="323.5" x2="849.5" y1="259.9512" y2="259.9512"/><text fill="#000000" font-family="FG Virgil" font-size="13" lengthAdjust="spacing" textLength="189" x="330.5" y="255.209">getAllInterviewsJobOpenings()</text><polygon fill="#181818" points="1196.5,285.2617,1206.5,289.2617,1196.5,293.2617,1200.5,289.2617" style="stroke:#181818;stroke-width:1.0;"/><line style="stroke:#181818;stroke-width:1.0;" x1="865.5" x2="1202.5" y1="289.2617" y2="289.2617"/><text fill="#000000" font-family="FG Virgil" font-size="13" lengthAdjust="spacing" textLength="307" x="872.5" y="284.5195">findJobOpeningsByPhase(PhaseType.INTERVIEWS)</text><polygon fill="#181818" points="876.5,314.5723,866.5,318.5723,876.5,322.5723,872.5,318.5723" style="stroke:#181818;stroke-width:1.0;"/><line style="stroke:#181818;stroke-width:1.0;stroke-dasharray:2.0,2.0;" x1="870.5" x2="1212.5" y1="318.5723" y2="318.5723"/><text fill="#000000" font-family="FG Virgil" font-size="13" lengthAdjust="spacing" textLength="116" x="882.5" y="313.8301">List&lt;JobOpening&gt;</text><polygon fill="#181818" points="334.5,343.8828,324.5,347.8828,334.5,351.8828,330.5,347.8828" style="stroke:#181818;stroke-width:1.0;"/><line style="stroke:#181818;stroke-width:1.0;stroke-dasharray:2.0,2.0;" x1="328.5" x2="859.5" y1="347.8828" y2="347.8828"/><text fill="#000000" font-family="FG Virgil" font-size="13" lengthAdjust="spacing" textLength="96" x="340.5" y="343.1406">jobOpeningList</text><polygon fill="#181818" points="87.5,373.1934,77.5,377.1934,87.5,381.1934,83.5,377.1934" style="stroke:#181818;stroke-width:1.0;"/><line style="stroke:#181818;stroke-width:1.0;stroke-dasharray:2.0,2.0;" x1="81.5" x2="317.5" y1="377.1934" y2="377.1934"/><text fill="#000000" font-family="FG Virgil" font-size="13" lengthAdjust="spacing" textLength="194" x="93.5" y="372.4512">Asks to select the Job Opening</text><polygon fill="#181818" points="301.5,402.5039,311.5,406.5039,301.5,410.5039,305.5,406.5039" style="stroke:#181818;stroke-width:1.0;"/><line style="stroke:#181818;stroke-width:1.0;" x1="76.5" x2="307.5" y1="406.5039" y2="406.5039"/><text fill="#000000" font-family="FG Virgil" font-size="13" lengthAdjust="spacing" textLength="149" x="83.5" y="401.7617">Selects the Job Opening</text><polygon fill="#181818" points="843.5,431.8145,853.5,435.8145,843.5,439.8145,847.5,435.8145" style="stroke:#181818;stroke-width:1.0;"/><line style="stroke:#181818;stroke-width:1.0;" x1="323.5" x2="849.5" y1="435.8145" y2="435.8145"/><text fill="#000000" font-family="FG Virgil" font-size="13" lengthAdjust="spacing" textLength="513" x="330.5" y="431.0723">getJobApplicationsByJobReference(selectedJobOpening.toDTO().getJobReference())</text><polygon fill="#181818" points="1388,461.125,1398,465.125,1388,469.125,1392,465.125" style="stroke:#181818;stroke-width:1.0;"/><line style="stroke:#181818;stroke-width:1.0;" x1="865.5" x2="1394" y1="465.125" y2="465.125"/><text fill="#000000" font-family="FG Virgil" font-size="13" lengthAdjust="spacing" textLength="209" x="872.5" y="460.3828">findByJobReference(jobReference)</text><polygon fill="#181818" points="876.5,490.4355,866.5,494.4355,876.5,498.4355,872.5,494.4355" style="stroke:#181818;stroke-width:1.0;"/><line style="stroke:#181818;stroke-width:1.0;stroke-dasharray:2.0,2.0;" x1="870.5" x2="1404" y1="494.4355" y2="494.4355"/><text fill="#000000" font-family="FG Virgil" font-size="13" lengthAdjust="spacing" textLength="135" x="882.5" y="489.6934">List&lt;JobApplication&gt;</text><polygon fill="#181818" points="334.5,519.7461,324.5,523.7461,334.5,527.7461,330.5,523.7461" style="stroke:#181818;stroke-width:1.0;"/><line style="stroke:#181818;stroke-width:1.0;stroke-dasharray:2.0,2.0;" x1="328.5" x2="859.5" y1="523.7461" y2="523.7461"/><text fill="#000000" font-family="FG Virgil" font-size="13" lengthAdjust="spacing" textLength="122" x="340.5" y="519.0039">jobApplicationsList</text><polygon fill="#181818" points="87.5,549.0566,77.5,553.0566,87.5,557.0566,83.5,553.0566" style="stroke:#181818;stroke-width:1.0;"/><line style="stroke:#181818;stroke-width:1.0;stroke-dasharray:2.0,2.0;" x1="81.5" x2="317.5" y1="553.0566" y2="553.0566"/><text fill="#000000" font-family="FG Virgil" font-size="13" lengthAdjust="spacing" textLength="200" x="93.5" y="548.3145">Asks to select a Job Application</text><polygon fill="#181818" points="301.5,578.3672,311.5,582.3672,301.5,586.3672,305.5,582.3672" style="stroke:#181818;stroke-width:1.0;"/><line style="stroke:#181818;stroke-width:1.0;" x1="76.5" x2="307.5" y1="582.3672" y2="582.3672"/><text fill="#000000" font-family="FG Virgil" font-size="13" lengthAdjust="spacing" textLength="168" x="83.5" y="577.625">Selects the Job Application</text><polygon fill="#181818" points="87.5,607.6777,77.5,611.6777,87.5,615.6777,83.5,611.6777" style="stroke:#181818;stroke-width:1.0;"/><line style="stroke:#181818;stroke-width:1.0;stroke-dasharray:2.0,2.0;" x1="81.5" x2="317.5" y1="611.6777" y2="611.6777"/><text fill="#000000" font-family="FG Virgil" font-size="13" lengthAdjust="spacing" textLength="174" x="93.5" y="606.9355">Asks for the path of the file</text><polygon fill="#181818" points="301.5,636.9883,311.5,640.9883,301.5,644.9883,305.5,640.9883" style="stroke:#181818;stroke-width:1.0;"/><line style="stroke:#181818;stroke-width:1.0;" x1="76.5" x2="307.5" y1="640.9883" y2="640.9883"/><text fill="#000000" font-family="FG Virgil" font-size="13" lengthAdjust="spacing" textLength="174" x="83.5" y="636.2461">Provides the path of the file</text><polygon fill="#181818" points="843.5,666.2988,853.5,670.2988,843.5,674.2988,847.5,670.2988" style="stroke:#181818;stroke-width:1.0;"/><line style="stroke:#181818;stroke-width:1.0;" x1="323.5" x2="849.5" y1="670.2988" y2="670.2988"/><text fill="#000000" font-family="FG Virgil" font-size="13" lengthAdjust="spacing" textLength="189" x="330.5" y="665.5566">verifyInterviewSyntax(filePath)</text><polygon fill="#181818" points="1571,695.6094,1581,699.6094,1571,703.6094,1575,699.6094" style="stroke:#181818;stroke-width:1.0;"/><line style="stroke:#181818;stroke-width:1.0;" x1="865.5" x2="1577" y1="699.6094" y2="699.6094"/><text fill="#000000" font-family="FG Virgil" font-size="13" lengthAdjust="spacing" textLength="176" x="872.5" y="694.8672">isFileSyntaxCorrect(filePath)</text><polygon fill="#181818" points="876.5,724.9199,866.5,728.9199,876.5,732.9199,872.5,728.9199" style="stroke:#181818;stroke-width:1.0;"/><line style="stroke:#181818;stroke-width:1.0;stroke-dasharray:2.0,2.0;" x1="870.5" x2="1587" y1="728.9199" y2="728.9199"/><text fill="#000000" font-family="FG Virgil" font-size="13" lengthAdjust="spacing" textLength="25" x="882.5" y="724.1777">true</text><polygon fill="#181818" points="334.5,754.2305,324.5,758.2305,334.5,762.2305,330.5,758.2305" style="stroke:#181818;stroke-width:1.0;"/><line style="stroke:#181818;stroke-width:1.0;stroke-dasharray:2.0,2.0;" x1="328.5" x2="859.5" y1="758.2305" y2="758.2305"/><text fill="#000000" font-family="FG Virgil" font-size="13" lengthAdjust="spacing" textLength="25" x="340.5" y="753.4883">true</text><polygon fill="#181818" points="843.5,783.541,853.5,787.541,843.5,791.541,847.5,787.541" style="stroke:#181818;stroke-width:1.0;"/><line style="stroke:#181818;stroke-width:1.0;" x1="323.5" x2="849.5" y1="787.541" y2="787.541"/><text fill="#000000" font-family="FG Virgil" font-size="13" lengthAdjust="spacing" textLength="500" x="330.5" y="782.7988">uploadInterviewModelFile(filePath, selectedJobOpening, selectedJobApplication)</text><polygon fill="#181818" points="1663.5,812.8516,1673.5,816.8516,1663.5,820.8516,1667.5,816.8516" style="stroke:#181818;stroke-width:1.0;"/><line style="stroke:#181818;stroke-width:1.0;" x1="865.5" x2="1669.5" y1="816.8516" y2="816.8516"/><text fill="#000000" font-family="FG Virgil" font-size="13" lengthAdjust="spacing" textLength="46" x="872.5" y="812.1094">create()</text><rect fill="#E2E2F0" height="46.9766" rx="2.5" ry="2.5" style="stroke:#181818;stroke-width:0.5;" width="90" x="1675.5" y="795.541"/><text fill="#000000" font-family="FG Virgil" font-size="14" font-style="italic" lengthAdjust="spacing" textLength="61" x="1690" y="816.0762">&#171;service&#187;</text><text fill="#000000" font-family="FG Virgil" font-size="14" lengthAdjust="spacing" textLength="76" x="1682.5" y="832.5645">:FileService</text><polygon fill="#181818" points="1703.5,870.8281,1713.5,874.8281,1703.5,878.8281,1707.5,874.8281" style="stroke:#181818;stroke-width:1.0;"/><line style="stroke:#181818;stroke-width:1.0;" x1="865.5" x2="1709.5" y1="874.8281" y2="874.8281"/><text fill="#000000" font-family="FG Virgil" font-size="13" lengthAdjust="spacing" textLength="310" x="872.5" y="870.0859">createDirectoryIfNotExistsJP(selectedJobOpening)</text><polygon fill="#181818" points="1703.5,900.1387,1713.5,904.1387,1703.5,908.1387,1707.5,904.1387" style="stroke:#181818;stroke-width:1.0;"/><line style="stroke:#181818;stroke-width:1.0;" x1="865.5" x2="1709.5" y1="904.1387" y2="904.1387"/><text fill="#000000" font-family="FG Virgil" font-size="13" lengthAdjust="spacing" textLength="464" x="872.5" y="899.3965">createDirectoryIfNotExistsJA(selectedJobOpening, selectedJobApplication)</text><polygon fill="#181818" points="1703.5,929.4492,1713.5,933.4492,1703.5,937.4492,1707.5,933.4492" style="stroke:#181818;stroke-width:1.0;"/><line style="stroke:#181818;stroke-width:1.0;" x1="865.5" x2="1709.5" y1="933.4492" y2="933.4492"/><text fill="#000000" font-family="FG Virgil" font-size="13" lengthAdjust="spacing" textLength="409" x="872.5" y="928.707">moveFileJA(filePath, selectedJobOpening, selectedJobApplication)</text><polygon fill="#181818" points="876.5,958.7598,866.5,962.7598,876.5,966.7598,872.5,962.7598" style="stroke:#181818;stroke-width:1.0;"/><line style="stroke:#181818;stroke-width:1.0;stroke-dasharray:2.0,2.0;" x1="870.5" x2="1719.5" y1="962.7598" y2="962.7598"/><text fill="#000000" font-family="FG Virgil" font-size="13" lengthAdjust="spacing" textLength="74" x="882.5" y="958.0176">newFilePath</text><line style="stroke:#181818;stroke-width:1.0;" x1="865.5" x2="907.5" y1="992.0703" y2="992.0703"/><line style="stroke:#181818;stroke-width:1.0;" x1="907.5" x2="907.5" y1="992.0703" y2="1005.0703"/><line style="stroke:#181818;stroke-width:1.0;" x1="866.5" x2="907.5" y1="1005.0703" y2="1005.0703"/><polygon fill="#181818" points="876.5,1001.0703,866.5,1005.0703,876.5,1009.0703,872.5,1005.0703" style="stroke:#181818;stroke-width:1.0;"/><text fill="#000000" font-family="FG Virgil" font-size="13" lengthAdjust="spacing" textLength="329" x="872.5" y="987.3281">saveFileJobApp(selectedJobApplication, newFilePath)</text><polygon fill="#181818" points="1388,1030.3809,1398,1034.3809,1388,1038.3809,1392,1034.3809" style="stroke:#181818;stroke-width:1.0;"/><line style="stroke:#181818;stroke-width:1.0;" x1="865.5" x2="1394" y1="1034.3809" y2="1034.3809"/><text fill="#000000" font-family="FG Virgil" font-size="13" lengthAdjust="spacing" textLength="101" x="872.5" y="1029.6387">save(fileJobApp)</text><polygon fill="#181818" points="876.5,1059.6914,866.5,1063.6914,876.5,1067.6914,872.5,1063.6914" style="stroke:#181818;stroke-width:1.0;"/><line style="stroke:#181818;stroke-width:1.0;stroke-dasharray:2.0,2.0;" x1="870.5" x2="1404" y1="1063.6914" y2="1063.6914"/><text fill="#000000" font-family="FG Virgil" font-size="13" lengthAdjust="spacing" textLength="65" x="882.5" y="1058.9492">fileJobApp</text><polygon fill="#181818" points="334.5,1089.002,324.5,1093.002,334.5,1097.002,330.5,1093.002" style="stroke:#181818;stroke-width:1.0;"/><line style="stroke:#181818;stroke-width:1.0;stroke-dasharray:2.0,2.0;" x1="328.5" x2="859.5" y1="1093.002" y2="1093.002"/><text fill="#000000" font-family="FG Virgil" font-size="13" lengthAdjust="spacing" textLength="65" x="340.5" y="1088.2598">fileJobApp</text><polygon fill="#181818" points="87.5,1118.3125,77.5,1122.3125,87.5,1126.3125,83.5,1122.3125" style="stroke:#181818;stroke-width:1.0;"/><line style="stroke:#181818;stroke-width:1.0;stroke-dasharray:2.0,2.0;" x1="81.5" x2="317.5" y1="1122.3125" y2="1122.3125"/><text fill="#000000" font-family="FG Virgil" font-size="13" lengthAdjust="spacing" textLength="170" x="93.5" y="1117.5703">displays operation success</text><!--SRC=[jLRVRzem47xFNt7Q7aQhjcltCYb2IAm_fbIZhKhfzZ1fSfCBk0rnPXie- -jtTbZYX0HQrF60IEw-xxFlFf_HN2S8NSN_eF_fk3V4tpDCGuGppiQIJM4qX9FZayzm27ToXd2FKd6HTZyQGC_pr1DFCsOIfo8LuKIAAKBC4eLEA6FX4nlZK2z9IcAedLY4CPib-aAa-eeHzk8ht7CvvecJeoOi4WkUZbVC7Wkra70wKvhav82bn2w1AUZRmFk4ZoVw8PcXHmIQXpnZgOPt_YXB18k2LAESSrmCH8J91Kzm5Bmpw540tMucKM6gcQPjzdgD10PoIWkM8abGMcZvI1Gion8UDZDSYeVh35FQp2rcGd5Qxz8oL0F48eju4qc_r5WdgWKtarNByUlynucb2GO4YyIKyVLDc08C3IX4cnjpuw6kobzHkcqHdpEDUKkyl367FLDZ7_hgIO4MCBFb10OQdtNEik1w0dg2y3CDMHhnY3W-A62fMf3re5EiTi_pW3w5pYYmpyHFAcKxzlTz22LIHcFOXp7gVf8KjAhiW-giD2ew9RQ8ESqdyceZVTfM6ZcaNvOt4wQmOx_lbXaU1LTtvxVtmVdteQDNqQnILd9gjZcixGw-SQMxPLAl0ewmJQ9nRxPzFZmMgORSQo1pQbHKdS3M16Nt5IOq2sopIHrMd5wDY_hgkiU7eOMfDToBx63xNJqXr15wSOinIZFvElcoqEdPaHPdTzUTlQCSMwRkxMgGsW7DJL9RnwFpiC4ODQgwEUgZeDKWJk8cazJbjXZ5hVERk8NPdZkqh_QBYstrJ4q_9Zg3pnXD9n7RtsPSRHM_aMBE8rJDw1TQTewInyjYH0sNT3qzTmp33J7kui5Wu0DNTenRibCXpRtSn5dX3GQLztH7rFsawLz2ctq8lSak5UWMVrH5PottUh6V0rW_rPLtZYbsEjD6gBngwE9eJ_kNTCPDoUb63k8heS-VwNIeovk6yTFMZCA0EshrEwyfoZQXgPYZgJdHxbPrLy3-5QXRAyN5nOgvpM7vgMeflikbs6grTX6TvZKTk99xhvZcXjrM8G_-l-bTQhpHo6uWVF6aZhZA4hPK83AKLWxKB0nHgOOn-HS0]--></g></svg>