<?xml version="1.0" encoding="us-ascii" standalone="no"?><svg xmlns="http://www.w3.org/2000/svg" xmlns:xlink="http://www.w3.org/1999/xlink" contentStyleType="text/css" height="886px" preserveAspectRatio="none" style="width:1654px;height:886px;background:#FFFFFF;" version="1.1" viewBox="0 0 1654 886" width="1654px" zoomAndPan="magnify"><defs/><g><text fill="#000000" font-family="FG Virgil" font-size="20" font-weight="bold" lengthAdjust="spacing" textLength="450" x="601.25" y="34.3359">Sequence Diagram US 1017 - False Version</text><rect fill="#FFFFFF" height="660.498" style="stroke:#181818;stroke-width:1.0;" width="10" x="66.5" y="136.043"/><rect fill="#FFFFFF" height="204.5293" style="stroke:#181818;stroke-width:1.0;" width="10" x="313.5" y="172.6641"/><rect fill="#FFFFFF" height="146.5527" style="stroke:#181818;stroke-width:1.0;" width="10" x="313.5" y="406.5039"/><rect fill="#FFFFFF" height="29.3105" style="stroke:#181818;stroke-width:1.0;" width="10" x="313.5" y="582.3672"/><rect fill="#FFFFFF" height="146.5527" style="stroke:#181818;stroke-width:1.0;" width="10" x="313.5" y="640.9883"/><rect fill="#FFFFFF" height="87.9316" style="stroke:#181818;stroke-width:1.0;" width="10" x="855.5" y="259.9512"/><rect fill="#FFFFFF" height="87.9316" style="stroke:#181818;stroke-width:1.0;" width="10" x="855.5" y="435.8145"/><rect fill="#FFFFFF" height="87.9316" style="stroke:#181818;stroke-width:1.0;" width="10" x="855.5" y="670.2988"/><rect fill="#FFFFFF" height="29.3105" style="stroke:#181818;stroke-width:1.0;" width="10" x="1191.5" y="289.2617"/><rect fill="#FFFFFF" height="29.3105" style="stroke:#181818;stroke-width:1.0;" width="10" x="1383" y="465.125"/><rect fill="#FFFFFF" height="29.3105" style="stroke:#181818;stroke-width:1.0;" width="10" x="1566" y="699.6094"/><line style="stroke:#181818;stroke-width:0.5;stroke-dasharray:5.0,5.0;" x1="71" x2="71" y1="126.043" y2="805.541"/><line style="stroke:#181818;stroke-width:0.5;stroke-dasharray:5.0,5.0;" x1="318" x2="318" y1="126.043" y2="805.541"/><line style="stroke:#181818;stroke-width:0.5;stroke-dasharray:5.0,5.0;" x1="860" x2="860" y1="219.6523" y2="805.541"/><line style="stroke:#181818;stroke-width:0.5;stroke-dasharray:5.0,5.0;" x1="1196.5" x2="1196.5" y1="126.043" y2="805.541"/><line style="stroke:#181818;stroke-width:0.5;stroke-dasharray:5.0,5.0;" x1="1387.5" x2="1387.5" y1="126.043" y2="805.541"/><line style="stroke:#181818;stroke-width:0.5;stroke-dasharray:5.0,5.0;" x1="1570.5" x2="1570.5" y1="126.043" y2="805.541"/><text fill="#000000" font-family="FG Virgil" font-size="14" lengthAdjust="spacing" textLength="127" x="5" y="123.0898">CustomerManager</text><ellipse cx="71.5" cy="58.0547" fill="#ADD8E6" rx="8" ry="8" style="stroke:#181818;stroke-width:0.5;"/><path d="M71.5,66.0547 L71.5,93.0547 M58.5,74.0547 L84.5,74.0547 M71.5,93.0547 L58.5,108.0547 M71.5,93.0547 L84.5,108.0547 " fill="none" style="stroke:#181818;stroke-width:0.5;"/><text fill="#000000" font-family="FG Virgil" font-size="14" lengthAdjust="spacing" textLength="127" x="5" y="818.0762">CustomerManager</text><ellipse cx="71.5" cy="829.5293" fill="#ADD8E6" rx="8" ry="8" style="stroke:#181818;stroke-width:0.5;"/><path d="M71.5,837.5293 L71.5,864.5293 M58.5,845.5293 L84.5,845.5293 M71.5,864.5293 L58.5,879.5293 M71.5,864.5293 L84.5,879.5293 " fill="none" style="stroke:#181818;stroke-width:0.5;"/><rect fill="#E2E2F0" height="46.9766" rx="2.5" ry="2.5" style="stroke:#181818;stroke-width:0.5;" width="209" x="214" y="78.0664"/><text fill="#000000" font-family="FG Virgil" font-size="14" font-style="italic" lengthAdjust="spacing" textLength="101" x="268" y="98.6016">&#171;presentation&#187;</text><text fill="#000000" font-family="FG Virgil" font-size="14" lengthAdjust="spacing" textLength="195" x="221" y="115.0898">:UploadInterviewModelFileUI</text><rect fill="#E2E2F0" height="46.9766" rx="2.5" ry="2.5" style="stroke:#181818;stroke-width:0.5;" width="209" x="214" y="804.541"/><text fill="#000000" font-family="FG Virgil" font-size="14" font-style="italic" lengthAdjust="spacing" textLength="101" x="268" y="825.0762">&#171;presentation&#187;</text><text fill="#000000" font-family="FG Virgil" font-size="14" lengthAdjust="spacing" textLength="195" x="221" y="841.5645">:UploadInterviewModelFileUI</text><rect fill="#E2E2F0" height="46.9766" rx="2.5" ry="2.5" style="stroke:#181818;stroke-width:0.5;" width="161" x="780" y="804.541"/><text fill="#000000" font-family="FG Virgil" font-size="14" font-style="italic" lengthAdjust="spacing" textLength="90" x="815.5" y="825.0762">&#171;application&#187;</text><text fill="#000000" font-family="FG Virgil" font-size="14" lengthAdjust="spacing" textLength="147" x="787" y="841.5645">:UploadFileController</text><rect fill="#E2E2F0" height="46.9766" rx="2.5" ry="2.5" style="stroke:#181818;stroke-width:0.5;" width="172" x="1110.5" y="78.0664"/><text fill="#000000" font-family="FG Virgil" font-size="14" font-style="italic" lengthAdjust="spacing" textLength="84" x="1154.5" y="98.6016">&#171;repository&#187;</text><text fill="#000000" font-family="FG Virgil" font-size="14" lengthAdjust="spacing" textLength="158" x="1117.5" y="115.0898">:JobOpeningRepository</text><rect fill="#E2E2F0" height="46.9766" rx="2.5" ry="2.5" style="stroke:#181818;stroke-width:0.5;" width="172" x="1110.5" y="804.541"/><text fill="#000000" font-family="FG Virgil" font-size="14" font-style="italic" lengthAdjust="spacing" textLength="84" x="1154.5" y="825.0762">&#171;repository&#187;</text><text fill="#000000" font-family="FG Virgil" font-size="14" lengthAdjust="spacing" textLength="158" x="1117.5" y="841.5645">:JobOpeningRepository</text><rect fill="#E2E2F0" height="46.9766" rx="2.5" ry="2.5" style="stroke:#181818;stroke-width:0.5;" width="191" x="1292.5" y="78.0664"/><text fill="#000000" font-family="FG Virgil" font-size="14" font-style="italic" lengthAdjust="spacing" textLength="84" x="1346" y="98.6016">&#171;repository&#187;</text><text fill="#000000" font-family="FG Virgil" font-size="14" lengthAdjust="spacing" textLength="177" x="1299.5" y="115.0898">:JobApplicationRepository</text><rect fill="#E2E2F0" height="46.9766" rx="2.5" ry="2.5" style="stroke:#181818;stroke-width:0.5;" width="191" x="1292.5" y="804.541"/><text fill="#000000" font-family="FG Virgil" font-size="14" font-style="italic" lengthAdjust="spacing" textLength="84" x="1346" y="825.0762">&#171;repository&#187;</text><text fill="#000000" font-family="FG Virgil" font-size="14" lengthAdjust="spacing" textLength="177" x="1299.5" y="841.5645">:JobApplicationRepository</text><rect fill="#E2E2F0" height="46.9766" rx="2.5" ry="2.5" style="stroke:#181818;stroke-width:0.5;" width="155" x="1493.5" y="78.0664"/><text fill="#000000" font-family="FG Virgil" font-size="14" font-style="italic" lengthAdjust="spacing" textLength="66" x="1538" y="98.6016">&#171;domain&#187;</text><text fill="#000000" font-family="FG Virgil" font-size="14" lengthAdjust="spacing" textLength="141" x="1500.5" y="115.0898">:InterviewModel_EX1</text><rect fill="#E2E2F0" height="46.9766" rx="2.5" ry="2.5" style="stroke:#181818;stroke-width:0.5;" width="155" x="1493.5" y="804.541"/><text fill="#000000" font-family="FG Virgil" font-size="14" font-style="italic" lengthAdjust="spacing" textLength="66" x="1538" y="825.0762">&#171;domain&#187;</text><text fill="#000000" font-family="FG Virgil" font-size="14" lengthAdjust="spacing" textLength="141" x="1500.5" y="841.5645">:InterviewModel_EX1</text><rect fill="#FFFFFF" height="660.498" style="stroke:#181818;stroke-width:1.0;" width="10" x="66.5" y="136.043"/><rect fill="#FFFFFF" height="204.5293" style="stroke:#181818;stroke-width:1.0;" width="10" x="313.5" y="172.6641"/><rect fill="#FFFFFF" height="146.5527" style="stroke:#181818;stroke-width:1.0;" width="10" x="313.5" y="406.5039"/><rect fill="#FFFFFF" height="29.3105" style="stroke:#181818;stroke-width:1.0;" width="10" x="313.5" y="582.3672"/><rect fill="#FFFFFF" height="146.5527" style="stroke:#181818;stroke-width:1.0;" width="10" x="313.5" y="640.9883"/><rect fill="#FFFFFF" height="87.9316" style="stroke:#181818;stroke-width:1.0;" width="10" x="855.5" y="259.9512"/><rect fill="#FFFFFF" height="87.9316" style="stroke:#181818;stroke-width:1.0;" width="10" x="855.5" y="435.8145"/><rect fill="#FFFFFF" height="87.9316" style="stroke:#181818;stroke-width:1.0;" width="10" x="855.5" y="670.2988"/><rect fill="#FFFFFF" height="29.3105" style="stroke:#181818;stroke-width:1.0;" width="10" x="1191.5" y="289.2617"/><rect fill="#FFFFFF" height="29.3105" style="stroke:#181818;stroke-width:1.0;" width="10" x="1383" y="465.125"/><rect fill="#FFFFFF" height="29.3105" style="stroke:#181818;stroke-width:1.0;" width="10" x="1566" y="699.6094"/><polygon fill="#181818" points="301.5,168.6641,311.5,172.6641,301.5,176.6641,305.5,172.6641" style="stroke:#181818;stroke-width:1.0;"/><line style="stroke:#181818;stroke-width:1.0;" x1="76.5" x2="307.5" y1="172.6641" y2="172.6641"/><text fill="#000000" font-family="FG Virgil" font-size="13" lengthAdjust="spacing" textLength="214" x="83.5" y="152.6113">Asks to upload a text file with the</text><text fill="#000000" font-family="FG Virgil" font-size="13" lengthAdjust="spacing" textLength="195" x="83.5" y="167.9219">candidate's answers (Interview)</text><polygon fill="#181818" points="768,197.9746,778,201.9746,768,205.9746,772,201.9746" style="stroke:#181818;stroke-width:1.0;"/><line style="stroke:#181818;stroke-width:1.0;" x1="323.5" x2="774" y1="201.9746" y2="201.9746"/><text fill="#000000" font-family="FG Virgil" font-size="13" lengthAdjust="spacing" textLength="38" x="330.5" y="197.2324">create</text><rect fill="#E2E2F0" height="46.9766" rx="2.5" ry="2.5" style="stroke:#181818;stroke-width:0.5;" width="161" x="780" y="180.6641"/><text fill="#000000" font-family="FG Virgil" font-size="14" font-style="italic" lengthAdjust="spacing" textLength="90" x="815.5" y="201.1992">&#171;application&#187;</text><text fill="#000000" font-family="FG Virgil" font-size="14" lengthAdjust="spacing" textLength="147" x="787" y="217.6875">:UploadFileController</text><polygon fill="#181818" points="843.5,255.9512,853.5,259.9512,843.5,263.9512,847.5,259.9512" style="stroke:#181818;stroke-width:1.0;"/><line style="stroke:#181818;stroke-width:1.0;" x1="323.5" x2="849.5" y1="259.9512" y2="259.9512"/><text fill="#000000" font-family="FG Virgil" font-size="13" lengthAdjust="spacing" textLength="189" x="330.5" y="255.209">getAllInterviewsJobOpenings()</text><polygon fill="#181818" points="1179.5,285.2617,1189.5,289.2617,1179.5,293.2617,1183.5,289.2617" style="stroke:#181818;stroke-width:1.0;"/><line style="stroke:#181818;stroke-width:1.0;" x1="865.5" x2="1185.5" y1="289.2617" y2="289.2617"/><text fill="#000000" font-family="FG Virgil" font-size="13" lengthAdjust="spacing" textLength="307" x="872.5" y="284.5195">findJobOpeningsByPhase(PhaseType.INTERVIEWS)</text><polygon fill="#181818" points="876.5,314.5723,866.5,318.5723,876.5,322.5723,872.5,318.5723" style="stroke:#181818;stroke-width:1.0;"/><line style="stroke:#181818;stroke-width:1.0;stroke-dasharray:2.0,2.0;" x1="870.5" x2="1195.5" y1="318.5723" y2="318.5723"/><text fill="#000000" font-family="FG Virgil" font-size="13" lengthAdjust="spacing" textLength="116" x="882.5" y="313.8301">List&lt;JobOpening&gt;</text><polygon fill="#181818" points="334.5,343.8828,324.5,347.8828,334.5,351.8828,330.5,347.8828" style="stroke:#181818;stroke-width:1.0;"/><line style="stroke:#181818;stroke-width:1.0;stroke-dasharray:2.0,2.0;" x1="328.5" x2="859.5" y1="347.8828" y2="347.8828"/><text fill="#000000" font-family="FG Virgil" font-size="13" lengthAdjust="spacing" textLength="96" x="340.5" y="343.1406">jobOpeningList</text><polygon fill="#181818" points="87.5,373.1934,77.5,377.1934,87.5,381.1934,83.5,377.1934" style="stroke:#181818;stroke-width:1.0;"/><line style="stroke:#181818;stroke-width:1.0;stroke-dasharray:2.0,2.0;" x1="81.5" x2="317.5" y1="377.1934" y2="377.1934"/><text fill="#000000" font-family="FG Virgil" font-size="13" lengthAdjust="spacing" textLength="194" x="93.5" y="372.4512">Asks to select the Job Opening</text><polygon fill="#181818" points="301.5,402.5039,311.5,406.5039,301.5,410.5039,305.5,406.5039" style="stroke:#181818;stroke-width:1.0;"/><line style="stroke:#181818;stroke-width:1.0;" x1="76.5" x2="307.5" y1="406.5039" y2="406.5039"/><text fill="#000000" font-family="FG Virgil" font-size="13" lengthAdjust="spacing" textLength="149" x="83.5" y="401.7617">Selects the Job Opening</text><polygon fill="#181818" points="843.5,431.8145,853.5,435.8145,843.5,439.8145,847.5,435.8145" style="stroke:#181818;stroke-width:1.0;"/><line style="stroke:#181818;stroke-width:1.0;" x1="323.5" x2="849.5" y1="435.8145" y2="435.8145"/><text fill="#000000" font-family="FG Virgil" font-size="13" lengthAdjust="spacing" textLength="513" x="330.5" y="431.0723">getJobApplicationsByJobReference(selectedJobOpening.toDTO().getJobReference())</text><polygon fill="#181818" points="1371,461.125,1381,465.125,1371,469.125,1375,465.125" style="stroke:#181818;stroke-width:1.0;"/><line style="stroke:#181818;stroke-width:1.0;" x1="865.5" x2="1377" y1="465.125" y2="465.125"/><text fill="#000000" font-family="FG Virgil" font-size="13" lengthAdjust="spacing" textLength="209" x="872.5" y="460.3828">findByJobReference(jobReference)</text><polygon fill="#181818" points="876.5,490.4355,866.5,494.4355,876.5,498.4355,872.5,494.4355" style="stroke:#181818;stroke-width:1.0;"/><line style="stroke:#181818;stroke-width:1.0;stroke-dasharray:2.0,2.0;" x1="870.5" x2="1387" y1="494.4355" y2="494.4355"/><text fill="#000000" font-family="FG Virgil" font-size="13" lengthAdjust="spacing" textLength="135" x="882.5" y="489.6934">List&lt;JobApplication&gt;</text><polygon fill="#181818" points="334.5,519.7461,324.5,523.7461,334.5,527.7461,330.5,523.7461" style="stroke:#181818;stroke-width:1.0;"/><line style="stroke:#181818;stroke-width:1.0;stroke-dasharray:2.0,2.0;" x1="328.5" x2="859.5" y1="523.7461" y2="523.7461"/><text fill="#000000" font-family="FG Virgil" font-size="13" lengthAdjust="spacing" textLength="122" x="340.5" y="519.0039">jobApplicationsList</text><polygon fill="#181818" points="87.5,549.0566,77.5,553.0566,87.5,557.0566,83.5,553.0566" style="stroke:#181818;stroke-width:1.0;"/><line style="stroke:#181818;stroke-width:1.0;stroke-dasharray:2.0,2.0;" x1="81.5" x2="317.5" y1="553.0566" y2="553.0566"/><text fill="#000000" font-family="FG Virgil" font-size="13" lengthAdjust="spacing" textLength="200" x="93.5" y="548.3145">Asks to select a Job Application</text><polygon fill="#181818" points="301.5,578.3672,311.5,582.3672,301.5,586.3672,305.5,582.3672" style="stroke:#181818;stroke-width:1.0;"/><line style="stroke:#181818;stroke-width:1.0;" x1="76.5" x2="307.5" y1="582.3672" y2="582.3672"/><text fill="#000000" font-family="FG Virgil" font-size="13" lengthAdjust="spacing" textLength="168" x="83.5" y="577.625">Selects the Job Application</text><polygon fill="#181818" points="87.5,607.6777,77.5,611.6777,87.5,615.6777,83.5,611.6777" style="stroke:#181818;stroke-width:1.0;"/><line style="stroke:#181818;stroke-width:1.0;stroke-dasharray:2.0,2.0;" x1="81.5" x2="317.5" y1="611.6777" y2="611.6777"/><text fill="#000000" font-family="FG Virgil" font-size="13" lengthAdjust="spacing" textLength="174" x="93.5" y="606.9355">Asks for the path of the file</text><polygon fill="#181818" points="301.5,636.9883,311.5,640.9883,301.5,644.9883,305.5,640.9883" style="stroke:#181818;stroke-width:1.0;"/><line style="stroke:#181818;stroke-width:1.0;" x1="76.5" x2="307.5" y1="640.9883" y2="640.9883"/><text fill="#000000" font-family="FG Virgil" font-size="13" lengthAdjust="spacing" textLength="174" x="83.5" y="636.2461">Provides the path of the file</text><polygon fill="#181818" points="843.5,666.2988,853.5,670.2988,843.5,674.2988,847.5,670.2988" style="stroke:#181818;stroke-width:1.0;"/><line style="stroke:#181818;stroke-width:1.0;" x1="323.5" x2="849.5" y1="670.2988" y2="670.2988"/><text fill="#000000" font-family="FG Virgil" font-size="13" lengthAdjust="spacing" textLength="189" x="330.5" y="665.5566">verifyInterviewSyntax(filePath)</text><polygon fill="#181818" points="1554,695.6094,1564,699.6094,1554,703.6094,1558,699.6094" style="stroke:#181818;stroke-width:1.0;"/><line style="stroke:#181818;stroke-width:1.0;" x1="865.5" x2="1560" y1="699.6094" y2="699.6094"/><text fill="#000000" font-family="FG Virgil" font-size="13" lengthAdjust="spacing" textLength="176" x="872.5" y="694.8672">isFileSyntaxCorrect(filePath)</text><polygon fill="#181818" points="876.5,724.9199,866.5,728.9199,876.5,732.9199,872.5,728.9199" style="stroke:#181818;stroke-width:1.0;"/><line style="stroke:#181818;stroke-width:1.0;stroke-dasharray:2.0,2.0;" x1="870.5" x2="1570" y1="728.9199" y2="728.9199"/><text fill="#000000" font-family="FG Virgil" font-size="13" lengthAdjust="spacing" textLength="30" x="882.5" y="724.1777">false</text><polygon fill="#181818" points="334.5,754.2305,324.5,758.2305,334.5,762.2305,330.5,758.2305" style="stroke:#181818;stroke-width:1.0;"/><line style="stroke:#181818;stroke-width:1.0;stroke-dasharray:2.0,2.0;" x1="328.5" x2="859.5" y1="758.2305" y2="758.2305"/><text fill="#000000" font-family="FG Virgil" font-size="13" lengthAdjust="spacing" textLength="143" x="340.5" y="753.4883">File Syntax is incorrect</text><polygon fill="#181818" points="87.5,783.541,77.5,787.541,87.5,791.541,83.5,787.541" style="stroke:#181818;stroke-width:1.0;"/><line style="stroke:#181818;stroke-width:1.0;stroke-dasharray:2.0,2.0;" x1="81.5" x2="317.5" y1="787.541" y2="787.541"/><text fill="#000000" font-family="FG Virgil" font-size="13" lengthAdjust="spacing" textLength="146" x="93.5" y="782.7988">Displays Error Message</text><!--SRC=[hPNVJzim4CVVyrUSsCCA4WpsCYcgAdNGJfbMG9IoFKoQJ79f3QwTsMvB-EjtTb1-aPOVMX-gfhxlvyvttzYMMu7GD_mHmy_7Wod-NQ6C4SuucsksXDaKJevFli0XZ9am23Ue3LUo_yaf1a5WxhdCc8jSAgdYXLPBXDI5rfOo5j-pEKvjJhaqnhQsbc3ALiAEbRJdZBJZRt33zPoBMenPi4Hjk9m_aGCMMwNXT6KifTCJ9eckWHaO-eKFWiyNzbQiC220vJ7FcBIm5yuoeLWIIOjwpN4pKGcACHSuY_QSUXP1lvzfD2WjixJDmQ0Ju2IdLB1MGg3sqkgH42pB18-x2T_LxKM6aZPpXPaodEhDFQ6vG1HThdT1XbMEvw3MucvOinr_HhzEF2QQa2nHIyRT9bpB-PfPB5eS58q-7BYUXJ0qzmQiWfLl3p2m-60XfJR1Xji5s0N2RnapcV2461yDC6asP2NebTdtWm3eK-QPHVwP-9IbQk_1GGYnHeheN0vXZdOeH8arLLzDxob78q-bBTTgmoHuSp0XRKicDUZN_7B13FRyztMUuL5qVZswkeb6FwUrV8sSJMGZfcM3mzRku0Stjby53HhY1BUbwDoR7ry8TsMeWmSTi5gFogwJs9kWchv1GU-s7pPbXoTcq6BHNElk2M7gPUQPxbLsyFDkEfucGdzSOOhQ7MMzeYoipUp8ghFhYzx-KQ6jGlVVQv3M2rUOf5N7NUrXXp5QgBOvsg_sLeFK0dUPf9tk1QFK-_nVtCByp6lOD_kbhjtgcLR-b71Edp4wdLJgVxlZwiNabrgjUOAcM_rAowvHypGlZwXfJjVDGyyHBedu7Wz6an2uSVTI0JjLsjspNSm6Dveq_gSpl-sduiRTuX-Ix_ABgmUAWgWwu38kodgxQSwuoGJB3Ooqfc5Cq1YwyZkczGy0]--></g></svg>