<?xml version="1.0" encoding="us-ascii" standalone="no"?><svg xmlns="http://www.w3.org/2000/svg" xmlns:xlink="http://www.w3.org/1999/xlink" contentStyleType="text/css" height="484px" preserveAspectRatio="none" style="width:1301px;height:484px;background:#FFFFFF;" version="1.1" viewBox="0 0 1301 484" width="1301px" zoomAndPan="magnify"><defs/><g><text fill="#000000" font-family="FG Virgil" font-size="20" font-weight="bold" lengthAdjust="spacing" textLength="260" x="519.5" y="36.582">Sequence Diagram US 1006</text><rect fill="#FFFFFF" height="242.3281" style="stroke:#181818;stroke-width:1.0;" width="10" x="61.5" y="141.2227"/><rect fill="#FFFFFF" height="219.0371" style="stroke:#181818;stroke-width:1.0;" width="10" x="386.5" y="164.5137"/><rect fill="#FFFFFF" height="93.873" style="stroke:#181818;stroke-width:1.0;" width="10" x="875.5" y="258.3867"/><rect fill="#FFFFFF" height="31.291" style="stroke:#181818;stroke-width:1.0;" width="10" x="1216.5" y="289.6777"/><line style="stroke:#181818;stroke-width:0.5;stroke-dasharray:5.0,5.0;" x1="66" x2="66" y1="131.2227" y2="401.5508"/><line style="stroke:#181818;stroke-width:0.5;stroke-dasharray:5.0,5.0;" x1="391" x2="391" y1="131.2227" y2="401.5508"/><line style="stroke:#181818;stroke-width:0.5;stroke-dasharray:5.0,5.0;" x1="880" x2="880" y1="131.2227" y2="401.5508"/><line style="stroke:#181818;stroke-width:0.5;stroke-dasharray:5.0,5.0;" x1="1062" x2="1062" y1="131.2227" y2="401.5508"/><line style="stroke:#181818;stroke-width:0.5;stroke-dasharray:5.0,5.0;" x1="1221" x2="1221" y1="131.2227" y2="401.5508"/><text fill="#000000" font-family="FG Virgil" font-size="14" lengthAdjust="spacing" textLength="117" x="5" y="127.709">CustomerManager</text><ellipse cx="66.5" cy="61.1016" fill="#ADD8E6" rx="8" ry="8" style="stroke:#181818;stroke-width:0.5;"/><path d="M66.5,69.1016 L66.5,96.1016 M53.5,77.1016 L79.5,77.1016 M66.5,96.1016 L53.5,111.1016 M66.5,96.1016 L79.5,111.1016 " fill="none" style="stroke:#181818;stroke-width:0.5;"/><text fill="#000000" font-family="FG Virgil" font-size="14" lengthAdjust="spacing" textLength="117" x="5" y="415.6582">CustomerManager</text><ellipse cx="66.5" cy="427.6719" fill="#ADD8E6" rx="8" ry="8" style="stroke:#181818;stroke-width:0.5;"/><path d="M66.5,435.6719 L66.5,462.6719 M53.5,443.6719 L79.5,443.6719 M66.5,462.6719 L53.5,477.6719 M66.5,462.6719 L79.5,477.6719 " fill="none" style="stroke:#181818;stroke-width:0.5;"/><rect fill="#E2E2F0" height="51.2422" rx="2.5" ry="2.5" style="stroke:#181818;stroke-width:0.5;" width="143" x="320" y="78.9805"/><text fill="#000000" font-family="FG Virgil" font-size="14" font-style="italic" lengthAdjust="spacing" textLength="95" x="344" y="101.0879">&#171;presentation&#187;</text><text fill="#000000" font-family="FG Virgil" font-size="14" lengthAdjust="spacing" textLength="129" x="327" y="119.709">:SeeCandidateInfoUI</text><rect fill="#E2E2F0" height="51.2422" rx="2.5" ry="2.5" style="stroke:#181818;stroke-width:0.5;" width="143" x="320" y="400.5508"/><text fill="#000000" font-family="FG Virgil" font-size="14" font-style="italic" lengthAdjust="spacing" textLength="95" x="344" y="422.6582">&#171;presentation&#187;</text><text fill="#000000" font-family="FG Virgil" font-size="14" lengthAdjust="spacing" textLength="129" x="327" y="441.2793">:SeeCandidateInfoUI</text><rect fill="#E2E2F0" height="51.2422" rx="2.5" ry="2.5" style="stroke:#181818;stroke-width:0.5;" width="193" x="784" y="78.9805"/><text fill="#000000" font-family="FG Virgil" font-size="14" font-style="italic" lengthAdjust="spacing" textLength="84" x="838.5" y="101.0879">&#171;application&#187;</text><text fill="#000000" font-family="FG Virgil" font-size="14" lengthAdjust="spacing" textLength="179" x="791" y="119.709">:SeeCandidateInfoController</text><rect fill="#E2E2F0" height="51.2422" rx="2.5" ry="2.5" style="stroke:#181818;stroke-width:0.5;" width="193" x="784" y="400.5508"/><text fill="#000000" font-family="FG Virgil" font-size="14" font-style="italic" lengthAdjust="spacing" textLength="84" x="838.5" y="422.6582">&#171;application&#187;</text><text fill="#000000" font-family="FG Virgil" font-size="14" lengthAdjust="spacing" textLength="179" x="791" y="441.2793">:SeeCandidateInfoController</text><rect fill="#E2E2F0" height="51.2422" rx="2.5" ry="2.5" style="stroke:#181818;stroke-width:0.5;" width="151" x="987" y="78.9805"/><text fill="#000000" font-family="FG Virgil" font-size="14" font-style="italic" lengthAdjust="spacing" textLength="79" x="1023" y="101.0879">&#171;repository&#187;</text><text fill="#000000" font-family="FG Virgil" font-size="14" lengthAdjust="spacing" textLength="137" x="994" y="119.709">:CandidateRepository</text><rect fill="#E2E2F0" height="51.2422" rx="2.5" ry="2.5" style="stroke:#181818;stroke-width:0.5;" width="151" x="987" y="400.5508"/><text fill="#000000" font-family="FG Virgil" font-size="14" font-style="italic" lengthAdjust="spacing" textLength="79" x="1023" y="422.6582">&#171;repository&#187;</text><text fill="#000000" font-family="FG Virgil" font-size="14" lengthAdjust="spacing" textLength="137" x="994" y="441.2793">:CandidateRepository</text><rect fill="#E2E2F0" height="32.6211" rx="2.5" ry="2.5" style="stroke:#181818;stroke-width:0.5;" width="147" x="1148" y="97.6016"/><text fill="#000000" font-family="FG Virgil" font-size="14" lengthAdjust="spacing" textLength="133" x="1155" y="119.709">CandidateRepository</text><rect fill="#E2E2F0" height="32.6211" rx="2.5" ry="2.5" style="stroke:#181818;stroke-width:0.5;" width="147" x="1148" y="400.5508"/><text fill="#000000" font-family="FG Virgil" font-size="14" lengthAdjust="spacing" textLength="133" x="1155" y="422.6582">CandidateRepository</text><rect fill="#FFFFFF" height="242.3281" style="stroke:#181818;stroke-width:1.0;" width="10" x="61.5" y="141.2227"/><rect fill="#FFFFFF" height="219.0371" style="stroke:#181818;stroke-width:1.0;" width="10" x="386.5" y="164.5137"/><rect fill="#FFFFFF" height="93.873" style="stroke:#181818;stroke-width:1.0;" width="10" x="875.5" y="258.3867"/><rect fill="#FFFFFF" height="31.291" style="stroke:#181818;stroke-width:1.0;" width="10" x="1216.5" y="289.6777"/><polygon fill="#181818" points="374.5,160.5137,384.5,164.5137,374.5,168.5137,378.5,164.5137" style="stroke:#181818;stroke-width:1.0;"/><line style="stroke:#181818;stroke-width:1.0;" x1="71.5" x2="380.5" y1="164.5137" y2="164.5137"/><text fill="#000000" font-family="FG Virgil" font-size="13" lengthAdjust="spacing" textLength="296" x="78.5" y="159.251">Asks to display all the personal data of a candidate</text><polygon fill="#181818" points="82.5,191.8047,72.5,195.8047,82.5,199.8047,78.5,195.8047" style="stroke:#181818;stroke-width:1.0;"/><line style="stroke:#181818;stroke-width:1.0;stroke-dasharray:2.0,2.0;" x1="76.5" x2="385.5" y1="195.8047" y2="195.8047"/><text fill="#000000" font-family="FG Virgil" font-size="13" lengthAdjust="spacing" textLength="286" x="88.5" y="190.542">Request the email of the corresponding candidate</text><polygon fill="#181818" points="374.5,223.0957,384.5,227.0957,374.5,231.0957,378.5,227.0957" style="stroke:#181818;stroke-width:1.0;"/><line style="stroke:#181818;stroke-width:1.0;" x1="71.5" x2="380.5" y1="227.0957" y2="227.0957"/><text fill="#000000" font-family="FG Virgil" font-size="13" lengthAdjust="spacing" textLength="280" x="78.5" y="221.833">Provide the email of the corresponding candidate</text><polygon fill="#181818" points="863.5,254.3867,873.5,258.3867,863.5,262.3867,867.5,258.3867" style="stroke:#181818;stroke-width:1.0;"/><line style="stroke:#181818;stroke-width:1.0;" x1="396.5" x2="869.5" y1="258.3867" y2="258.3867"/><text fill="#000000" font-family="FG Virgil" font-size="13" lengthAdjust="spacing" textLength="460" x="403.5" y="253.124">Request to display all the personal data of the candidate with the email provided</text><polygon fill="#181818" points="1204.5,285.6777,1214.5,289.6777,1204.5,293.6777,1208.5,289.6777" style="stroke:#181818;stroke-width:1.0;"/><line style="stroke:#181818;stroke-width:1.0;" x1="885.5" x2="1210.5" y1="289.6777" y2="289.6777"/><text fill="#000000" font-family="FG Virgil" font-size="13" lengthAdjust="spacing" textLength="265" x="892.5" y="284.415">Request the candidate with the email provided</text><polygon fill="#181818" points="896.5,316.9688,886.5,320.9688,896.5,324.9688,892.5,320.9688" style="stroke:#181818;stroke-width:1.0;"/><line style="stroke:#181818;stroke-width:1.0;stroke-dasharray:2.0,2.0;" x1="890.5" x2="1220.5" y1="320.9688" y2="320.9688"/><text fill="#000000" font-family="FG Virgil" font-size="13" lengthAdjust="spacing" textLength="184" x="902.5" y="315.7061">Provide the info of the candidate</text><polygon fill="#181818" points="407.5,348.2598,397.5,352.2598,407.5,356.2598,403.5,352.2598" style="stroke:#181818;stroke-width:1.0;"/><line style="stroke:#181818;stroke-width:1.0;stroke-dasharray:2.0,2.0;" x1="401.5" x2="879.5" y1="352.2598" y2="352.2598"/><text fill="#000000" font-family="FG Virgil" font-size="13" lengthAdjust="spacing" textLength="184" x="413.5" y="346.9971">Provide the info of the candidate</text><polygon fill="#181818" points="77.5,379.5508,67.5,383.5508,77.5,387.5508,73.5,383.5508" style="stroke:#181818;stroke-width:1.0;"/><line style="stroke:#181818;stroke-width:1.0;stroke-dasharray:2.0,2.0;" x1="71.5" x2="390.5" y1="383.5508" y2="383.5508"/><text fill="#000000" font-family="FG Virgil" font-size="13" lengthAdjust="spacing" textLength="185" x="83.5" y="378.2881">Display the info of the candidate</text><!--SRC=[bP91Rzim38Nl_XL4TjYfJRR33aPWe4ZH8OSDGuFipicCBKIMD8bfaVtwKKhho4YBPRxH4h_t7YdMR0YMKV-X-lEYsT3l0rb5SA-n2pZ0TWEV5eilotcwqLJLnvxPr_EvDsZvC9XRvOPvt6lhKQxVzZoOQYnXSDQfFhY1O8ScKd7aKUsnemqVHJ-GukAifHqU33yuozzHUX- -mayTEbsYOu-jUzQsUo5NgDW5M1qYYrpuXbRe0J32NJxuO7JNyozpe4e0h9NsaW1czOPeXRRLBJAjxSvjrxFKjLt3Ska3HRACh9rjcdyqhiHkSCPGo81pAI3qtcZrDcU4F99tKOlPuqnQmbX9Hqgdd-JEAKrrodJJYCqQxk8-0ZjeTPIr706D0Uu9F8NeB1eGE8BR0O9wrJe3j-iAv9EyDyBBu1eUqpk8d34qe3QfFHNA1Pc9TuAHqPzn2J4nzIEu9ztI_n6IYQQON67aYdYP_ig3PyrzeUvFVjgiCuO_I-N_wIlsbhnSBcSwdUi4fwANpF5ITd1vddTJpgKShvR7Tv5_9BPqbN0P-uqLlgzHygVJd3wf-vVrlKyhIF8eYoeJ_W80]--></g></svg>