<?xml version="1.0" encoding="us-ascii" standalone="no"?><svg xmlns="http://www.w3.org/2000/svg" xmlns:xlink="http://www.w3.org/1999/xlink" contentStyleType="text/css" height="2303px" preserveAspectRatio="none" style="width:2462px;height:2303px;background:#FFFFFF;" version="1.1" viewBox="0 0 2462 2303" width="2462px" zoomAndPan="magnify"><defs/><g><text fill="#000000" font-family="FG Virgil" font-size="20" font-weight="bold" lengthAdjust="spacing" textLength="260" x="1100.25" y="36.582">Sequence Diagram US 1013</text><rect fill="#FFFFFF" height="2070.2363" style="stroke:#181818;stroke-width:1.0;" width="10" x="81.5" y="141.2227"/><rect fill="#FFFFFF" height="2061.2363" style="stroke:#181818;stroke-width:1.0;" width="10" x="81.5" y="141.2227"/><rect fill="#FFFFFF" height="2046.9453" style="stroke:#181818;stroke-width:1.0;" width="10" x="543.5" y="164.5137"/><rect fill="#FFFFFF" height="93.873" style="stroke:#181818;stroke-width:1.0;" width="10" x="900.5" y="258.0469"/><rect fill="#FFFFFF" height="93.873" style="stroke:#181818;stroke-width:1.0;" width="10" x="900.5" y="445.793"/><rect fill="#FFFFFF" height="1062.8945" style="stroke:#181818;stroke-width:1.0;" width="10" x="900.5" y="570.957"/><rect fill="#FFFFFF" height="37.291" style="stroke:#181818;stroke-width:1.0;" width="10" x="900.5" y="1727.7246"/><rect fill="#FFFFFF" height="37.291" style="stroke:#181818;stroke-width:1.0;" width="10" x="900.5" y="1862.8887"/><rect fill="#FFFFFF" height="218.6973" style="stroke:#181818;stroke-width:1.0;" width="10" x="900.5" y="1952.4707"/><rect fill="#FFFFFF" height="31.291" style="stroke:#181818;stroke-width:1.0;" width="10" x="1218.5" y="289.3379"/><rect fill="#FFFFFF" height="31.291" style="stroke:#181818;stroke-width:1.0;" width="10" x="1398" y="477.084"/><rect fill="#FFFFFF" height="31.291" style="stroke:#181818;stroke-width:1.0;" width="10" x="1543.5" y="602.248"/><rect fill="#FFFFFF" height="31.291" style="stroke:#181818;stroke-width:1.0;" width="10" x="1662.5" y="664.8301"/><rect fill="#FFFFFF" height="31.291" style="stroke:#181818;stroke-width:1.0;" width="10" x="1789" y="842.5762"/><rect fill="#FFFFFF" height="31.291" style="stroke:#181818;stroke-width:1.0;" width="10" x="1789" y="1320.9414"/><rect fill="#FFFFFF" height="31.291" style="stroke:#181818;stroke-width:1.0;" width="10" x="1919" y="1092.9043"/><rect fill="#FFFFFF" height="31.291" style="stroke:#181818;stroke-width:1.0;" width="10" x="1919" y="1571.2695"/><rect fill="#FFFFFF" height="31.291" style="stroke:#181818;stroke-width:1.0;" width="10" x="2036" y="967.7402"/><rect fill="#FFFFFF" height="31.291" style="stroke:#181818;stroke-width:1.0;" width="10" x="2036" y="1446.1055"/><rect fill="#FFFFFF" height="31.291" style="stroke:#181818;stroke-width:1.0;" width="10" x="2144" y="1030.3223"/><rect fill="#FFFFFF" height="31.291" style="stroke:#181818;stroke-width:1.0;" width="10" x="2144" y="1508.6875"/><rect fill="#FFFFFF" height="156.1152" style="stroke:#181818;stroke-width:1.0;" width="10" x="2259.5" y="1983.7617"/><rect fill="#FFFFFF" height="31.291" style="stroke:#181818;stroke-width:1.0;" width="10" x="2392" y="2077.2949"/><rect fill="none" height="490.6563" style="stroke:#000000;stroke-width:1.5;" width="2215.5" x="10" y="742.4121"/><rect fill="none" height="363.4922" style="stroke:#000000;stroke-width:1.5;" width="1731.5" x="484" y="768.7031"/><rect fill="none" height="532.9473" style="stroke:#000000;stroke-width:1.5;" width="2205.5" x="10" y="1247.0684"/><rect fill="none" height="128.1641" style="stroke:#000000;stroke-width:1.5;" width="670.5" x="474" y="1794.0156"/><rect fill="none" height="94.873" style="stroke:#000000;stroke-width:1.5;" width="650.5" x="484" y="1820.3066"/><line style="stroke:#181818;stroke-width:0.5;stroke-dasharray:5.0,5.0;" x1="81" x2="81" y1="131.2227" y2="2220.459"/><line style="stroke:#181818;stroke-width:0.5;stroke-dasharray:5.0,5.0;" x1="548" x2="548" y1="131.2227" y2="2220.459"/><line style="stroke:#181818;stroke-width:0.5;stroke-dasharray:5.0,5.0;" x1="905" x2="905" y1="213.6348" y2="2220.459"/><line style="stroke:#181818;stroke-width:0.5;stroke-dasharray:5.0,5.0;" x1="1223.5" x2="1223.5" y1="131.2227" y2="2220.459"/><line style="stroke:#181818;stroke-width:0.5;stroke-dasharray:5.0,5.0;" x1="1402.5" x2="1402.5" y1="131.2227" y2="2220.459"/><line style="stroke:#181818;stroke-width:0.5;stroke-dasharray:5.0,5.0;" x1="1548.5" x2="1548.5" y1="131.2227" y2="2220.459"/><line style="stroke:#181818;stroke-width:0.5;stroke-dasharray:5.0,5.0;" x1="1667.5" x2="1667.5" y1="131.2227" y2="2220.459"/><line style="stroke:#181818;stroke-width:0.5;stroke-dasharray:5.0,5.0;" x1="1793.5" x2="1793.5" y1="131.2227" y2="2220.459"/><line style="stroke:#181818;stroke-width:0.5;stroke-dasharray:5.0,5.0;" x1="1923.5" x2="1923.5" y1="131.2227" y2="2220.459"/><line style="stroke:#181818;stroke-width:0.5;stroke-dasharray:5.0,5.0;" x1="2040.5" x2="2040.5" y1="131.2227" y2="2220.459"/><line style="stroke:#181818;stroke-width:0.5;stroke-dasharray:5.0,5.0;" x1="2148.5" x2="2148.5" y1="131.2227" y2="2220.459"/><line style="stroke:#181818;stroke-width:0.5;stroke-dasharray:5.0,5.0;" x1="2264.5" x2="2264.5" y1="131.2227" y2="2220.459"/><line style="stroke:#181818;stroke-width:0.5;stroke-dasharray:5.0,5.0;" x1="2396.5" x2="2396.5" y1="2032.8828" y2="2220.459"/><text fill="#000000" font-family="FG Virgil" font-size="14" lengthAdjust="spacing" textLength="117" x="20" y="127.709">CustomerManager</text><ellipse cx="81.5" cy="61.1016" fill="#ADD8E6" rx="8" ry="8" style="stroke:#181818;stroke-width:0.5;"/><path d="M81.5,69.1016 L81.5,96.1016 M68.5,77.1016 L94.5,77.1016 M81.5,96.1016 L68.5,111.1016 M81.5,96.1016 L94.5,111.1016 " fill="none" style="stroke:#181818;stroke-width:0.5;"/><text fill="#000000" font-family="FG Virgil" font-size="14" lengthAdjust="spacing" textLength="117" x="20" y="2234.5664">CustomerManager</text><ellipse cx="81.5" cy="2246.5801" fill="#ADD8E6" rx="8" ry="8" style="stroke:#181818;stroke-width:0.5;"/><path d="M81.5,2254.5801 L81.5,2281.5801 M68.5,2262.5801 L94.5,2262.5801 M81.5,2281.5801 L68.5,2296.5801 M81.5,2281.5801 L94.5,2296.5801 " fill="none" style="stroke:#181818;stroke-width:0.5;"/><rect fill="#E2E2F0" height="51.2422" rx="2.5" ry="2.5" style="stroke:#181818;stroke-width:0.5;" width="109" x="494" y="78.9805"/><text fill="#000000" font-family="FG Virgil" font-size="14" font-style="italic" lengthAdjust="spacing" textLength="95" x="501" y="101.0879">&#171;presentation&#187;</text><text fill="#000000" font-family="FG Virgil" font-size="14" lengthAdjust="spacing" textLength="49" x="524" y="119.709">:RankUI</text><rect fill="#E2E2F0" height="51.2422" rx="2.5" ry="2.5" style="stroke:#181818;stroke-width:0.5;" width="109" x="494" y="2219.459"/><text fill="#000000" font-family="FG Virgil" font-size="14" font-style="italic" lengthAdjust="spacing" textLength="95" x="501" y="2241.5664">&#171;presentation&#187;</text><text fill="#000000" font-family="FG Virgil" font-size="14" lengthAdjust="spacing" textLength="49" x="524" y="2260.1875">:RankUI</text><rect fill="#E2E2F0" height="51.2422" rx="2.5" ry="2.5" style="stroke:#181818;stroke-width:0.5;" width="113" x="849" y="2219.459"/><text fill="#000000" font-family="FG Virgil" font-size="14" font-style="italic" lengthAdjust="spacing" textLength="84" x="863.5" y="2241.5664">&#171;application&#187;</text><text fill="#000000" font-family="FG Virgil" font-size="14" lengthAdjust="spacing" textLength="99" x="856" y="2260.1875">:RankController</text><rect fill="#E2E2F0" height="51.2422" rx="2.5" ry="2.5" style="stroke:#181818;stroke-width:0.5;" width="162" x="1142.5" y="78.9805"/><text fill="#000000" font-family="FG Virgil" font-size="14" font-style="italic" lengthAdjust="spacing" textLength="79" x="1184" y="101.0879">&#171;repository&#187;</text><text fill="#000000" font-family="FG Virgil" font-size="14" lengthAdjust="spacing" textLength="148" x="1149.5" y="119.709">:JobOpeningRepository</text><rect fill="#E2E2F0" height="51.2422" rx="2.5" ry="2.5" style="stroke:#181818;stroke-width:0.5;" width="162" x="1142.5" y="2219.459"/><text fill="#000000" font-family="FG Virgil" font-size="14" font-style="italic" lengthAdjust="spacing" textLength="79" x="1184" y="2241.5664">&#171;repository&#187;</text><text fill="#000000" font-family="FG Virgil" font-size="14" lengthAdjust="spacing" textLength="148" x="1149.5" y="2260.1875">:JobOpeningRepository</text><rect fill="#E2E2F0" height="51.2422" rx="2.5" ry="2.5" style="stroke:#181818;stroke-width:0.5;" width="177" x="1314.5" y="78.9805"/><text fill="#000000" font-family="FG Virgil" font-size="14" font-style="italic" lengthAdjust="spacing" textLength="79" x="1363.5" y="101.0879">&#171;repository&#187;</text><text fill="#000000" font-family="FG Virgil" font-size="14" lengthAdjust="spacing" textLength="163" x="1321.5" y="119.709">:JobApplicationRepository</text><rect fill="#E2E2F0" height="51.2422" rx="2.5" ry="2.5" style="stroke:#181818;stroke-width:0.5;" width="177" x="1314.5" y="2219.459"/><text fill="#000000" font-family="FG Virgil" font-size="14" font-style="italic" lengthAdjust="spacing" textLength="79" x="1363.5" y="2241.5664">&#171;repository&#187;</text><text fill="#000000" font-family="FG Virgil" font-size="14" lengthAdjust="spacing" textLength="163" x="1321.5" y="2260.1875">:JobApplicationRepository</text><rect fill="#E2E2F0" height="51.2422" rx="2.5" ry="2.5" style="stroke:#181818;stroke-width:0.5;" width="94" x="1501.5" y="78.9805"/><text fill="#000000" font-family="FG Virgil" font-size="14" font-style="italic" lengthAdjust="spacing" textLength="50" x="1523.5" y="101.0879">&#171;entity&#187;</text><text fill="#000000" font-family="FG Virgil" font-size="14" lengthAdjust="spacing" textLength="80" x="1508.5" y="119.709">:JobOpening</text><rect fill="#E2E2F0" height="51.2422" rx="2.5" ry="2.5" style="stroke:#181818;stroke-width:0.5;" width="94" x="1501.5" y="2219.459"/><text fill="#000000" font-family="FG Virgil" font-size="14" font-style="italic" lengthAdjust="spacing" textLength="50" x="1523.5" y="2241.5664">&#171;entity&#187;</text><text fill="#000000" font-family="FG Virgil" font-size="14" lengthAdjust="spacing" textLength="80" x="1508.5" y="2260.1875">:JobOpening</text><rect fill="#E2E2F0" height="32.6211" rx="2.5" ry="2.5" style="stroke:#181818;stroke-width:0.5;" width="124" x="1605.5" y="97.6016"/><text fill="#000000" font-family="FG Virgil" font-size="14" lengthAdjust="spacing" textLength="110" x="1612.5" y="119.709">:JobOpeningDTO</text><rect fill="#E2E2F0" height="32.6211" rx="2.5" ry="2.5" style="stroke:#181818;stroke-width:0.5;" width="124" x="1605.5" y="2219.459"/><text fill="#000000" font-family="FG Virgil" font-size="14" lengthAdjust="spacing" textLength="110" x="1612.5" y="2241.5664">:JobOpeningDTO</text><rect fill="#E2E2F0" height="51.2422" rx="2.5" ry="2.5" style="stroke:#181818;stroke-width:0.5;" width="109" x="1739.5" y="78.9805"/><text fill="#000000" font-family="FG Virgil" font-size="14" font-style="italic" lengthAdjust="spacing" textLength="50" x="1769" y="101.0879">&#171;entity&#187;</text><text fill="#000000" font-family="FG Virgil" font-size="14" lengthAdjust="spacing" textLength="95" x="1746.5" y="119.709">:JobApplication</text><rect fill="#E2E2F0" height="51.2422" rx="2.5" ry="2.5" style="stroke:#181818;stroke-width:0.5;" width="109" x="1739.5" y="2219.459"/><text fill="#000000" font-family="FG Virgil" font-size="14" font-style="italic" lengthAdjust="spacing" textLength="50" x="1769" y="2241.5664">&#171;entity&#187;</text><text fill="#000000" font-family="FG Virgil" font-size="14" lengthAdjust="spacing" textLength="95" x="1746.5" y="2260.1875">:JobApplication</text><rect fill="#E2E2F0" height="32.6211" rx="2.5" ry="2.5" style="stroke:#181818;stroke-width:0.5;" width="131" x="1858.5" y="97.6016"/><text fill="#000000" font-family="FG Virgil" font-size="14" lengthAdjust="spacing" textLength="117" x="1865.5" y="119.709">:JobApplicatioDTO</text><rect fill="#E2E2F0" height="32.6211" rx="2.5" ry="2.5" style="stroke:#181818;stroke-width:0.5;" width="131" x="1858.5" y="2219.459"/><text fill="#000000" font-family="FG Virgil" font-size="14" lengthAdjust="spacing" textLength="117" x="1865.5" y="2241.5664">:JobApplicatioDTO</text><rect fill="#E2E2F0" height="51.2422" rx="2.5" ry="2.5" style="stroke:#181818;stroke-width:0.5;" width="83" x="1999.5" y="78.9805"/><text fill="#000000" font-family="FG Virgil" font-size="14" font-style="italic" lengthAdjust="spacing" textLength="50" x="2016" y="101.0879">&#171;entity&#187;</text><text fill="#000000" font-family="FG Virgil" font-size="14" lengthAdjust="spacing" textLength="69" x="2006.5" y="119.709">:Candidate</text><rect fill="#E2E2F0" height="51.2422" rx="2.5" ry="2.5" style="stroke:#181818;stroke-width:0.5;" width="83" x="1999.5" y="2219.459"/><text fill="#000000" font-family="FG Virgil" font-size="14" font-style="italic" lengthAdjust="spacing" textLength="50" x="2016" y="2241.5664">&#171;entity&#187;</text><text fill="#000000" font-family="FG Virgil" font-size="14" lengthAdjust="spacing" textLength="69" x="2006.5" y="2260.1875">:Candidate</text><rect fill="#E2E2F0" height="32.6211" rx="2.5" ry="2.5" style="stroke:#181818;stroke-width:0.5;" width="113" x="2092.5" y="97.6016"/><text fill="#000000" font-family="FG Virgil" font-size="14" lengthAdjust="spacing" textLength="99" x="2099.5" y="119.709">:CandidateDTO</text><rect fill="#E2E2F0" height="32.6211" rx="2.5" ry="2.5" style="stroke:#181818;stroke-width:0.5;" width="113" x="2092.5" y="2219.459"/><text fill="#000000" font-family="FG Virgil" font-size="14" lengthAdjust="spacing" textLength="99" x="2099.5" y="2241.5664">:CandidateDTO</text><rect fill="#E2E2F0" height="51.2422" rx="2.5" ry="2.5" style="stroke:#181818;stroke-width:0.5;" width="98" x="2215.5" y="78.9805"/><text fill="#000000" font-family="FG Virgil" font-size="14" font-style="italic" lengthAdjust="spacing" textLength="60" x="2234.5" y="101.0879">&#171;service&#187;</text><text fill="#000000" font-family="FG Virgil" font-size="14" lengthAdjust="spacing" textLength="84" x="2222.5" y="119.709">:RankService</text><rect fill="#E2E2F0" height="51.2422" rx="2.5" ry="2.5" style="stroke:#181818;stroke-width:0.5;" width="98" x="2215.5" y="2219.459"/><text fill="#000000" font-family="FG Virgil" font-size="14" font-style="italic" lengthAdjust="spacing" textLength="60" x="2234.5" y="2241.5664">&#171;service&#187;</text><text fill="#000000" font-family="FG Virgil" font-size="14" lengthAdjust="spacing" textLength="84" x="2222.5" y="2260.1875">:RankService</text><rect fill="#E2E2F0" height="51.2422" rx="2.5" ry="2.5" style="stroke:#181818;stroke-width:0.5;" width="119" x="2337.5" y="2219.459"/><text fill="#000000" font-family="FG Virgil" font-size="14" font-style="italic" lengthAdjust="spacing" textLength="79" x="2357.5" y="2241.5664">&#171;repository&#187;</text><text fill="#000000" font-family="FG Virgil" font-size="14" lengthAdjust="spacing" textLength="105" x="2344.5" y="2260.1875">:RankRepository</text><rect fill="#FFFFFF" height="2070.2363" style="stroke:#181818;stroke-width:1.0;" width="10" x="81.5" y="141.2227"/><rect fill="#FFFFFF" height="2061.2363" style="stroke:#181818;stroke-width:1.0;" width="10" x="81.5" y="141.2227"/><rect fill="#FFFFFF" height="2046.9453" style="stroke:#181818;stroke-width:1.0;" width="10" x="543.5" y="164.5137"/><rect fill="#FFFFFF" height="93.873" style="stroke:#181818;stroke-width:1.0;" width="10" x="900.5" y="258.0469"/><rect fill="#FFFFFF" height="93.873" style="stroke:#181818;stroke-width:1.0;" width="10" x="900.5" y="445.793"/><rect fill="#FFFFFF" height="1062.8945" style="stroke:#181818;stroke-width:1.0;" width="10" x="900.5" y="570.957"/><rect fill="#FFFFFF" height="37.291" style="stroke:#181818;stroke-width:1.0;" width="10" x="900.5" y="1727.7246"/><rect fill="#FFFFFF" height="37.291" style="stroke:#181818;stroke-width:1.0;" width="10" x="900.5" y="1862.8887"/><rect fill="#FFFFFF" height="218.6973" style="stroke:#181818;stroke-width:1.0;" width="10" x="900.5" y="1952.4707"/><rect fill="#FFFFFF" height="31.291" style="stroke:#181818;stroke-width:1.0;" width="10" x="1218.5" y="289.3379"/><rect fill="#FFFFFF" height="31.291" style="stroke:#181818;stroke-width:1.0;" width="10" x="1398" y="477.084"/><rect fill="#FFFFFF" height="31.291" style="stroke:#181818;stroke-width:1.0;" width="10" x="1543.5" y="602.248"/><rect fill="#FFFFFF" height="31.291" style="stroke:#181818;stroke-width:1.0;" width="10" x="1662.5" y="664.8301"/><rect fill="#FFFFFF" height="31.291" style="stroke:#181818;stroke-width:1.0;" width="10" x="1789" y="842.5762"/><rect fill="#FFFFFF" height="31.291" style="stroke:#181818;stroke-width:1.0;" width="10" x="1789" y="1320.9414"/><rect fill="#FFFFFF" height="31.291" style="stroke:#181818;stroke-width:1.0;" width="10" x="1919" y="1092.9043"/><rect fill="#FFFFFF" height="31.291" style="stroke:#181818;stroke-width:1.0;" width="10" x="1919" y="1571.2695"/><rect fill="#FFFFFF" height="31.291" style="stroke:#181818;stroke-width:1.0;" width="10" x="2036" y="967.7402"/><rect fill="#FFFFFF" height="31.291" style="stroke:#181818;stroke-width:1.0;" width="10" x="2036" y="1446.1055"/><rect fill="#FFFFFF" height="31.291" style="stroke:#181818;stroke-width:1.0;" width="10" x="2144" y="1030.3223"/><rect fill="#FFFFFF" height="31.291" style="stroke:#181818;stroke-width:1.0;" width="10" x="2144" y="1508.6875"/><rect fill="#FFFFFF" height="156.1152" style="stroke:#181818;stroke-width:1.0;" width="10" x="2259.5" y="1983.7617"/><rect fill="#FFFFFF" height="31.291" style="stroke:#181818;stroke-width:1.0;" width="10" x="2392" y="2077.2949"/><polygon fill="#181818" points="531.5,160.5137,541.5,164.5137,531.5,168.5137,535.5,164.5137" style="stroke:#181818;stroke-width:1.0;"/><line style="stroke:#181818;stroke-width:1.0;" x1="91.5" x2="537.5" y1="164.5137" y2="164.5137"/><text fill="#000000" font-family="FG Virgil" font-size="13" lengthAdjust="spacing" textLength="262" x="98.5" y="159.251">Asks to rank the candidates for a job opening</text><polygon fill="#181818" points="837,191.8047,847,195.8047,837,199.8047,841,195.8047" style="stroke:#181818;stroke-width:1.0;"/><line style="stroke:#181818;stroke-width:1.0;" x1="553.5" x2="843" y1="195.8047" y2="195.8047"/><text fill="#000000" font-family="FG Virgil" font-size="13" lengthAdjust="spacing" textLength="36" x="560.5" y="190.542">create</text><rect fill="#E2E2F0" height="51.2422" rx="2.5" ry="2.5" style="stroke:#181818;stroke-width:0.5;" width="113" x="849" y="172.5137"/><text fill="#000000" font-family="FG Virgil" font-size="14" font-style="italic" lengthAdjust="spacing" textLength="84" x="863.5" y="194.6211">&#171;application&#187;</text><text fill="#000000" font-family="FG Virgil" font-size="14" lengthAdjust="spacing" textLength="99" x="856" y="213.2422">:RankController</text><polygon fill="#181818" points="888.5,254.0469,898.5,258.0469,888.5,262.0469,892.5,258.0469" style="stroke:#181818;stroke-width:1.0;"/><line style="stroke:#181818;stroke-width:1.0;" x1="553.5" x2="894.5" y1="258.0469" y2="258.0469"/><text fill="#000000" font-family="FG Virgil" font-size="13" lengthAdjust="spacing" textLength="166" x="560.5" y="252.7842">getAllAnalysisJobOpenings()</text><polygon fill="#181818" points="1206.5,285.3379,1216.5,289.3379,1206.5,293.3379,1210.5,289.3379" style="stroke:#181818;stroke-width:1.0;"/><line style="stroke:#181818;stroke-width:1.0;" x1="910.5" x2="1212.5" y1="289.3379" y2="289.3379"/><text fill="#000000" font-family="FG Virgil" font-size="13" lengthAdjust="spacing" textLength="289" x="917.5" y="284.0752">findJobOpeningsByPhase(PhaseType.ANALYSIS)</text><polygon fill="#181818" points="921.5,316.6289,911.5,320.6289,921.5,324.6289,917.5,320.6289" style="stroke:#181818;stroke-width:1.0;"/><line style="stroke:#181818;stroke-width:1.0;stroke-dasharray:2.0,2.0;" x1="915.5" x2="1222.5" y1="320.6289" y2="320.6289"/><text fill="#000000" font-family="FG Virgil" font-size="13" lengthAdjust="spacing" textLength="105" x="927.5" y="315.3662">List&lt;JobOpening&gt;</text><polygon fill="#181818" points="564.5,347.9199,554.5,351.9199,564.5,355.9199,560.5,351.9199" style="stroke:#181818;stroke-width:1.0;"/><line style="stroke:#181818;stroke-width:1.0;stroke-dasharray:2.0,2.0;" x1="558.5" x2="904.5" y1="351.9199" y2="351.9199"/><text fill="#000000" font-family="FG Virgil" font-size="13" lengthAdjust="spacing" textLength="112" x="570.5" y="346.6572">List of job openings</text><polygon fill="#181818" points="102.5,379.2109,92.5,383.2109,102.5,387.2109,98.5,383.2109" style="stroke:#181818;stroke-width:1.0;"/><line style="stroke:#181818;stroke-width:1.0;stroke-dasharray:2.0,2.0;" x1="96.5" x2="542.5" y1="383.2109" y2="383.2109"/><text fill="#000000" font-family="FG Virgil" font-size="13" lengthAdjust="spacing" textLength="241" x="108.5" y="377.9482">Shows and asks what job opening to rank</text><polygon fill="#181818" points="531.5,410.502,541.5,414.502,531.5,418.502,535.5,414.502" style="stroke:#181818;stroke-width:1.0;"/><line style="stroke:#181818;stroke-width:1.0;" x1="91.5" x2="537.5" y1="414.502" y2="414.502"/><text fill="#000000" font-family="FG Virgil" font-size="13" lengthAdjust="spacing" textLength="136" x="98.5" y="409.2393">Selects the job opening</text><polygon fill="#181818" points="888.5,441.793,898.5,445.793,888.5,449.793,892.5,445.793" style="stroke:#181818;stroke-width:1.0;"/><line style="stroke:#181818;stroke-width:1.0;" x1="553.5" x2="894.5" y1="445.793" y2="445.793"/><text fill="#000000" font-family="FG Virgil" font-size="13" lengthAdjust="spacing" textLength="328" x="560.5" y="440.5303">getJobApplicationsByJobReference(selectedJobOpening)</text><polygon fill="#181818" points="1386,473.084,1396,477.084,1386,481.084,1390,477.084" style="stroke:#181818;stroke-width:1.0;"/><line style="stroke:#181818;stroke-width:1.0;" x1="910.5" x2="1392" y1="477.084" y2="477.084"/><text fill="#000000" font-family="FG Virgil" font-size="13" lengthAdjust="spacing" textLength="241" x="917.5" y="471.8213">findByJobReference(jobOpening.identity())</text><polygon fill="#181818" points="921.5,504.375,911.5,508.375,921.5,512.375,917.5,508.375" style="stroke:#181818;stroke-width:1.0;"/><line style="stroke:#181818;stroke-width:1.0;stroke-dasharray:2.0,2.0;" x1="915.5" x2="1402" y1="508.375" y2="508.375"/><text fill="#000000" font-family="FG Virgil" font-size="13" lengthAdjust="spacing" textLength="121" x="927.5" y="503.1123">List&lt;JobApplication&gt;</text><polygon fill="#181818" points="564.5,535.666,554.5,539.666,564.5,543.666,560.5,539.666" style="stroke:#181818;stroke-width:1.0;"/><line style="stroke:#181818;stroke-width:1.0;stroke-dasharray:2.0,2.0;" x1="558.5" x2="904.5" y1="539.666" y2="539.666"/><text fill="#000000" font-family="FG Virgil" font-size="13" lengthAdjust="spacing" textLength="129" x="570.5" y="534.4033">List of job applications</text><polygon fill="#181818" points="888.5,566.957,898.5,570.957,888.5,574.957,892.5,570.957" style="stroke:#181818;stroke-width:1.0;"/><line style="stroke:#181818;stroke-width:1.0;" x1="553.5" x2="894.5" y1="570.957" y2="570.957"/><text fill="#000000" font-family="FG Virgil" font-size="13" lengthAdjust="spacing" textLength="204" x="560.5" y="565.6943">getVacancies(selectedJobOpening)</text><polygon fill="#181818" points="1531.5,598.248,1541.5,602.248,1531.5,606.248,1535.5,602.248" style="stroke:#181818;stroke-width:1.0;"/><line style="stroke:#181818;stroke-width:1.0;" x1="910.5" x2="1537.5" y1="602.248" y2="602.248"/><text fill="#000000" font-family="FG Virgil" font-size="13" lengthAdjust="spacing" textLength="45" x="917.5" y="596.9854">toDTO()</text><polygon fill="#181818" points="921.5,629.5391,911.5,633.5391,921.5,637.5391,917.5,633.5391" style="stroke:#181818;stroke-width:1.0;"/><line style="stroke:#181818;stroke-width:1.0;" x1="915.5" x2="1547.5" y1="633.5391" y2="633.5391"/><text fill="#000000" font-family="FG Virgil" font-size="13" lengthAdjust="spacing" textLength="94" x="927.5" y="628.2764">JobOpeningDTO</text><polygon fill="#181818" points="1650.5,660.8301,1660.5,664.8301,1650.5,668.8301,1654.5,664.8301" style="stroke:#181818;stroke-width:1.0;"/><line style="stroke:#181818;stroke-width:1.0;" x1="910.5" x2="1656.5" y1="664.8301" y2="664.8301"/><text fill="#000000" font-family="FG Virgil" font-size="13" lengthAdjust="spacing" textLength="87" x="917.5" y="659.5674">getVacancies()</text><polygon fill="#181818" points="921.5,692.1211,911.5,696.1211,921.5,700.1211,917.5,696.1211" style="stroke:#181818;stroke-width:1.0;"/><line style="stroke:#181818;stroke-width:1.0;stroke-dasharray:2.0,2.0;" x1="915.5" x2="1666.5" y1="696.1211" y2="696.1211"/><text fill="#000000" font-family="FG Virgil" font-size="13" lengthAdjust="spacing" textLength="104" x="927.5" y="690.8584">vacancies number</text><polygon fill="#181818" points="564.5,723.4121,554.5,727.4121,564.5,731.4121,560.5,727.4121" style="stroke:#181818;stroke-width:1.0;"/><line style="stroke:#181818;stroke-width:1.0;stroke-dasharray:2.0,2.0;" x1="558.5" x2="899.5" y1="727.4121" y2="727.4121"/><text fill="#000000" font-family="FG Virgil" font-size="13" lengthAdjust="spacing" textLength="104" x="570.5" y="722.1494">vacancies number</text><path d="M10,742.4121 L71,742.4121 L71,751.7031 L61,761.7031 L10,761.7031 L10,742.4121 " fill="#EEEEEE" style="stroke:#000000;stroke-width:1.5;"/><rect fill="none" height="490.6563" style="stroke:#000000;stroke-width:1.5;" width="2215.5" x="10" y="742.4121"/><text fill="#000000" font-family="FG Virgil" font-size="13" font-weight="bold" lengthAdjust="spacing" textLength="16" x="25" y="757.4404">alt</text><text fill="#000000" font-family="FG Virgil" font-size="11" font-weight="bold" lengthAdjust="spacing" textLength="181" x="86" y="756.2822">[job applicationsList &gt; vacancies]</text><path d="M484,768.7031 L557,768.7031 L557,777.9941 L547,787.9941 L484,787.9941 L484,768.7031 " fill="#EEEEEE" style="stroke:#000000;stroke-width:1.5;"/><rect fill="none" height="363.4922" style="stroke:#000000;stroke-width:1.5;" width="1731.5" x="484" y="768.7031"/><text fill="#000000" font-family="FG Virgil" font-size="13" font-weight="bold" lengthAdjust="spacing" textLength="28" x="499" y="783.7314">loop</text><text fill="#000000" font-family="FG Virgil" font-size="11" font-weight="bold" lengthAdjust="spacing" textLength="135" x="572" y="782.5732">[for each job application]</text><polygon fill="#181818" points="888.5,807.2852,898.5,811.2852,888.5,815.2852,892.5,811.2852" style="stroke:#181818;stroke-width:1.0;"/><line style="stroke:#181818;stroke-width:1.0;" x1="553.5" x2="894.5" y1="811.2852" y2="811.2852"/><text fill="#000000" font-family="FG Virgil" font-size="13" lengthAdjust="spacing" textLength="266" x="560.5" y="806.0225">getCandidateDetails(jobApplicationsList.get(i))</text><polygon fill="#181818" points="1777,838.5762,1787,842.5762,1777,846.5762,1781,842.5762" style="stroke:#181818;stroke-width:1.0;"/><line style="stroke:#181818;stroke-width:1.0;" x1="910.5" x2="1783" y1="842.5762" y2="842.5762"/><text fill="#000000" font-family="FG Virgil" font-size="13" lengthAdjust="spacing" textLength="45" x="917.5" y="837.3135">toDTO()</text><polygon fill="#181818" points="921.5,869.8672,911.5,873.8672,921.5,877.8672,917.5,873.8672" style="stroke:#181818;stroke-width:1.0;"/><line style="stroke:#181818;stroke-width:1.0;" x1="915.5" x2="1793" y1="873.8672" y2="873.8672"/><text fill="#000000" font-family="FG Virgil" font-size="13" lengthAdjust="spacing" textLength="110" x="927.5" y="868.6045">JobApplicationDTO</text><polygon fill="#181818" points="1912,901.1582,1922,905.1582,1912,909.1582,1916,905.1582" style="stroke:#181818;stroke-width:1.0;"/><line style="stroke:#181818;stroke-width:1.0;" x1="910.5" x2="1918" y1="905.1582" y2="905.1582"/><text fill="#000000" font-family="FG Virgil" font-size="13" lengthAdjust="spacing" textLength="84" x="917.5" y="899.8955">getCandidate()</text><polygon fill="#181818" points="921.5,932.4492,911.5,936.4492,921.5,940.4492,917.5,936.4492" style="stroke:#181818;stroke-width:1.0;"/><line style="stroke:#181818;stroke-width:1.0;stroke-dasharray:2.0,2.0;" x1="915.5" x2="1923" y1="936.4492" y2="936.4492"/><text fill="#000000" font-family="FG Virgil" font-size="13" lengthAdjust="spacing" textLength="58" x="927.5" y="931.1865">Candidate</text><polygon fill="#181818" points="2024,963.7402,2034,967.7402,2024,971.7402,2028,967.7402" style="stroke:#181818;stroke-width:1.0;"/><line style="stroke:#181818;stroke-width:1.0;" x1="910.5" x2="2030" y1="967.7402" y2="967.7402"/><text fill="#000000" font-family="FG Virgil" font-size="13" lengthAdjust="spacing" textLength="45" x="917.5" y="962.4775">toDTO()</text><polygon fill="#181818" points="921.5,995.0313,911.5,999.0313,921.5,1003.0313,917.5,999.0313" style="stroke:#181818;stroke-width:1.0;"/><line style="stroke:#181818;stroke-width:1.0;" x1="915.5" x2="2040" y1="999.0313" y2="999.0313"/><text fill="#000000" font-family="FG Virgil" font-size="13" lengthAdjust="spacing" textLength="84" x="927.5" y="993.7686">CandidateDTO</text><polygon fill="#181818" points="2132,1026.3223,2142,1030.3223,2132,1034.3223,2136,1030.3223" style="stroke:#181818;stroke-width:1.0;"/><line style="stroke:#181818;stroke-width:1.0;" x1="910.5" x2="2138" y1="1030.3223" y2="1030.3223"/><text fill="#000000" font-family="FG Virgil" font-size="13" lengthAdjust="spacing" textLength="59" x="917.5" y="1025.0596">getEmail()</text><polygon fill="#181818" points="921.5,1057.6133,911.5,1061.6133,921.5,1065.6133,917.5,1061.6133" style="stroke:#181818;stroke-width:1.0;"/><line style="stroke:#181818;stroke-width:1.0;stroke-dasharray:2.0,2.0;" x1="915.5" x2="2148" y1="1061.6133" y2="1061.6133"/><text fill="#000000" font-family="FG Virgil" font-size="13" lengthAdjust="spacing" textLength="31" x="927.5" y="1056.3506">email</text><polygon fill="#181818" points="1907,1088.9043,1917,1092.9043,1907,1096.9043,1911,1092.9043" style="stroke:#181818;stroke-width:1.0;"/><line style="stroke:#181818;stroke-width:1.0;" x1="910.5" x2="1913" y1="1092.9043" y2="1092.9043"/><text fill="#000000" font-family="FG Virgil" font-size="13" lengthAdjust="spacing" textLength="38" x="917.5" y="1087.6416">getID()</text><polygon fill="#181818" points="921.5,1120.1953,911.5,1124.1953,921.5,1128.1953,917.5,1124.1953" style="stroke:#181818;stroke-width:1.0;"/><line style="stroke:#181818;stroke-width:1.0;stroke-dasharray:2.0,2.0;" x1="915.5" x2="1923" y1="1124.1953" y2="1124.1953"/><text fill="#000000" font-family="FG Virgil" font-size="13" lengthAdjust="spacing" textLength="12" x="927.5" y="1118.9326">ID</text><polygon fill="#181818" points="564.5,1158.4863,554.5,1162.4863,564.5,1166.4863,560.5,1162.4863" style="stroke:#181818;stroke-width:1.0;"/><line style="stroke:#181818;stroke-width:1.0;stroke-dasharray:2.0,2.0;" x1="558.5" x2="899.5" y1="1162.4863" y2="1162.4863"/><text fill="#000000" font-family="FG Virgil" font-size="13" lengthAdjust="spacing" textLength="100" x="570.5" y="1157.2236">Candidate details</text><polygon fill="#181818" points="102.5,1189.7773,92.5,1193.7773,102.5,1197.7773,98.5,1193.7773" style="stroke:#181818;stroke-width:1.0;"/><line style="stroke:#181818;stroke-width:1.0;stroke-dasharray:2.0,2.0;" x1="96.5" x2="542.5" y1="1193.7773" y2="1193.7773"/><text fill="#000000" font-family="FG Virgil" font-size="13" lengthAdjust="spacing" textLength="428" x="108.5" y="1188.5146">Shows the candidate details and asks to select which applications to rank</text><polygon fill="#181818" points="531.5,1221.0684,541.5,1225.0684,531.5,1229.0684,535.5,1225.0684" style="stroke:#181818;stroke-width:1.0;"/><line style="stroke:#181818;stroke-width:1.0;" x1="91.5" x2="537.5" y1="1225.0684" y2="1225.0684"/><text fill="#000000" font-family="FG Virgil" font-size="13" lengthAdjust="spacing" textLength="183" x="98.5" y="1219.8057">Selects the applications to rank</text><path d="M10,1247.0684 L83,1247.0684 L83,1256.3594 L73,1266.3594 L10,1266.3594 L10,1247.0684 " fill="#EEEEEE" style="stroke:#000000;stroke-width:1.5;"/><rect fill="none" height="532.9473" style="stroke:#000000;stroke-width:1.5;" width="2205.5" x="10" y="1247.0684"/><text fill="#000000" font-family="FG Virgil" font-size="13" font-weight="bold" lengthAdjust="spacing" textLength="28" x="25" y="1262.0967">loop</text><text fill="#000000" font-family="FG Virgil" font-size="11" font-weight="bold" lengthAdjust="spacing" textLength="194" x="98" y="1260.9385">[for each (selected) job application]</text><polygon fill="#181818" points="888.5,1285.6504,898.5,1289.6504,888.5,1293.6504,892.5,1289.6504" style="stroke:#181818;stroke-width:1.0;"/><line style="stroke:#181818;stroke-width:1.0;" x1="553.5" x2="894.5" y1="1289.6504" y2="1289.6504"/><text fill="#000000" font-family="FG Virgil" font-size="13" lengthAdjust="spacing" textLength="262" x="560.5" y="1284.3877">getCandidateDetails(jobApplicationsList.get(i)</text><polygon fill="#181818" points="1777,1316.9414,1787,1320.9414,1777,1324.9414,1781,1320.9414" style="stroke:#181818;stroke-width:1.0;"/><line style="stroke:#181818;stroke-width:1.0;" x1="910.5" x2="1783" y1="1320.9414" y2="1320.9414"/><text fill="#000000" font-family="FG Virgil" font-size="13" lengthAdjust="spacing" textLength="45" x="917.5" y="1315.6787">toDTO()</text><polygon fill="#181818" points="921.5,1348.2324,911.5,1352.2324,921.5,1356.2324,917.5,1352.2324" style="stroke:#181818;stroke-width:1.0;"/><line style="stroke:#181818;stroke-width:1.0;" x1="915.5" x2="1793" y1="1352.2324" y2="1352.2324"/><text fill="#000000" font-family="FG Virgil" font-size="13" lengthAdjust="spacing" textLength="110" x="927.5" y="1346.9697">JobApplicationDTO</text><polygon fill="#181818" points="1912,1379.5234,1922,1383.5234,1912,1387.5234,1916,1383.5234" style="stroke:#181818;stroke-width:1.0;"/><line style="stroke:#181818;stroke-width:1.0;" x1="910.5" x2="1918" y1="1383.5234" y2="1383.5234"/><text fill="#000000" font-family="FG Virgil" font-size="13" lengthAdjust="spacing" textLength="84" x="917.5" y="1378.2607">getCandidate()</text><polygon fill="#181818" points="921.5,1410.8145,911.5,1414.8145,921.5,1418.8145,917.5,1414.8145" style="stroke:#181818;stroke-width:1.0;"/><line style="stroke:#181818;stroke-width:1.0;stroke-dasharray:2.0,2.0;" x1="915.5" x2="1923" y1="1414.8145" y2="1414.8145"/><text fill="#000000" font-family="FG Virgil" font-size="13" lengthAdjust="spacing" textLength="58" x="927.5" y="1409.5518">Candidate</text><polygon fill="#181818" points="2024,1442.1055,2034,1446.1055,2024,1450.1055,2028,1446.1055" style="stroke:#181818;stroke-width:1.0;"/><line style="stroke:#181818;stroke-width:1.0;" x1="910.5" x2="2030" y1="1446.1055" y2="1446.1055"/><text fill="#000000" font-family="FG Virgil" font-size="13" lengthAdjust="spacing" textLength="45" x="917.5" y="1440.8428">toDTO()</text><polygon fill="#181818" points="921.5,1473.3965,911.5,1477.3965,921.5,1481.3965,917.5,1477.3965" style="stroke:#181818;stroke-width:1.0;"/><line style="stroke:#181818;stroke-width:1.0;" x1="915.5" x2="2040" y1="1477.3965" y2="1477.3965"/><text fill="#000000" font-family="FG Virgil" font-size="13" lengthAdjust="spacing" textLength="84" x="927.5" y="1472.1338">CandidateDTO</text><polygon fill="#181818" points="2132,1504.6875,2142,1508.6875,2132,1512.6875,2136,1508.6875" style="stroke:#181818;stroke-width:1.0;"/><line style="stroke:#181818;stroke-width:1.0;" x1="910.5" x2="2138" y1="1508.6875" y2="1508.6875"/><text fill="#000000" font-family="FG Virgil" font-size="13" lengthAdjust="spacing" textLength="59" x="917.5" y="1503.4248">getEmail()</text><polygon fill="#181818" points="921.5,1535.9785,911.5,1539.9785,921.5,1543.9785,917.5,1539.9785" style="stroke:#181818;stroke-width:1.0;"/><line style="stroke:#181818;stroke-width:1.0;stroke-dasharray:2.0,2.0;" x1="915.5" x2="2148" y1="1539.9785" y2="1539.9785"/><text fill="#000000" font-family="FG Virgil" font-size="13" lengthAdjust="spacing" textLength="31" x="927.5" y="1534.7158">email</text><polygon fill="#181818" points="1907,1567.2695,1917,1571.2695,1907,1575.2695,1911,1571.2695" style="stroke:#181818;stroke-width:1.0;"/><line style="stroke:#181818;stroke-width:1.0;" x1="910.5" x2="1913" y1="1571.2695" y2="1571.2695"/><text fill="#000000" font-family="FG Virgil" font-size="13" lengthAdjust="spacing" textLength="38" x="917.5" y="1566.0068">getID()</text><polygon fill="#181818" points="921.5,1598.5605,911.5,1602.5605,921.5,1606.5605,917.5,1602.5605" style="stroke:#181818;stroke-width:1.0;"/><line style="stroke:#181818;stroke-width:1.0;stroke-dasharray:2.0,2.0;" x1="915.5" x2="1923" y1="1602.5605" y2="1602.5605"/><text fill="#000000" font-family="FG Virgil" font-size="13" lengthAdjust="spacing" textLength="12" x="927.5" y="1597.2979">ID</text><polygon fill="#181818" points="564.5,1629.8516,554.5,1633.8516,564.5,1637.8516,560.5,1633.8516" style="stroke:#181818;stroke-width:1.0;"/><line style="stroke:#181818;stroke-width:1.0;stroke-dasharray:2.0,2.0;" x1="558.5" x2="904.5" y1="1633.8516" y2="1633.8516"/><text fill="#000000" font-family="FG Virgil" font-size="13" lengthAdjust="spacing" textLength="100" x="570.5" y="1628.5889">Candidate details</text><polygon fill="#181818" points="102.5,1661.1426,92.5,1665.1426,102.5,1669.1426,98.5,1665.1426" style="stroke:#181818;stroke-width:1.0;"/><line style="stroke:#181818;stroke-width:1.0;stroke-dasharray:2.0,2.0;" x1="96.5" x2="542.5" y1="1665.1426" y2="1665.1426"/><text fill="#000000" font-family="FG Virgil" font-size="13" lengthAdjust="spacing" textLength="187" x="108.5" y="1659.8799">Asks to order the job application</text><polygon fill="#181818" points="531.5,1692.4336,541.5,1696.4336,531.5,1700.4336,535.5,1696.4336" style="stroke:#181818;stroke-width:1.0;"/><line style="stroke:#181818;stroke-width:1.0;" x1="91.5" x2="537.5" y1="1696.4336" y2="1696.4336"/><text fill="#000000" font-family="FG Virgil" font-size="13" lengthAdjust="spacing" textLength="148" x="98.5" y="1691.1709">Orders the job application</text><polygon fill="#181818" points="888.5,1723.7246,898.5,1727.7246,888.5,1731.7246,892.5,1727.7246" style="stroke:#181818;stroke-width:1.0;"/><line style="stroke:#181818;stroke-width:1.0;" x1="553.5" x2="894.5" y1="1727.7246" y2="1727.7246"/><text fill="#000000" font-family="FG Virgil" font-size="13" lengthAdjust="spacing" textLength="258" x="560.5" y="1722.4619">addOrderToList(orders, order, jobApplication)</text><line style="stroke:#181818;stroke-width:1.0;" x1="910.5" x2="952.5" y1="1764.0156" y2="1764.0156"/><line style="stroke:#181818;stroke-width:1.0;" x1="952.5" x2="952.5" y1="1764.0156" y2="1777.0156"/><line style="stroke:#181818;stroke-width:1.0;" x1="905.5" x2="952.5" y1="1777.0156" y2="1777.0156"/><polygon fill="#181818" points="915.5,1773.0156,905.5,1777.0156,915.5,1781.0156,911.5,1777.0156" style="stroke:#181818;stroke-width:1.0;"/><text fill="#000000" font-family="FG Virgil" font-size="13" lengthAdjust="spacing" textLength="218" x="917.5" y="1758.7529">add (new Order(order, jobApplication))</text><path d="M474,1794.0156 L547,1794.0156 L547,1803.3066 L537,1813.3066 L474,1813.3066 L474,1794.0156 " fill="#EEEEEE" style="stroke:#000000;stroke-width:1.5;"/><rect fill="none" height="128.1641" style="stroke:#000000;stroke-width:1.5;" width="670.5" x="474" y="1794.0156"/><text fill="#000000" font-family="FG Virgil" font-size="13" font-weight="bold" lengthAdjust="spacing" textLength="28" x="489" y="1809.0439">loop</text><text fill="#000000" font-family="FG Virgil" font-size="11" font-weight="bold" lengthAdjust="spacing" textLength="135" x="562" y="1807.8857">[for each job application]</text><path d="M484,1820.3066 L545,1820.3066 L545,1829.5977 L535,1839.5977 L484,1839.5977 L484,1820.3066 " fill="#EEEEEE" style="stroke:#000000;stroke-width:1.5;"/><rect fill="none" height="94.873" style="stroke:#000000;stroke-width:1.5;" width="650.5" x="484" y="1820.3066"/><text fill="#000000" font-family="FG Virgil" font-size="13" font-weight="bold" lengthAdjust="spacing" textLength="16" x="499" y="1835.335">alt</text><text fill="#000000" font-family="FG Virgil" font-size="11" font-weight="bold" lengthAdjust="spacing" textLength="263" x="560" y="1834.1768">[!selectedApplications.contains(jobApplication)]</text><polygon fill="#181818" points="888.5,1858.8887,898.5,1862.8887,888.5,1866.8887,892.5,1862.8887" style="stroke:#181818;stroke-width:1.0;"/><line style="stroke:#181818;stroke-width:1.0;" x1="553.5" x2="894.5" y1="1862.8887" y2="1862.8887"/><text fill="#000000" font-family="FG Virgil" font-size="13" lengthAdjust="spacing" textLength="243" x="560.5" y="1857.626">addNullOrderToList(orders, jobApplication)</text><line style="stroke:#181818;stroke-width:1.0;" x1="910.5" x2="952.5" y1="1899.1797" y2="1899.1797"/><line style="stroke:#181818;stroke-width:1.0;" x1="952.5" x2="952.5" y1="1899.1797" y2="1912.1797"/><line style="stroke:#181818;stroke-width:1.0;" x1="905.5" x2="952.5" y1="1912.1797" y2="1912.1797"/><polygon fill="#181818" points="915.5,1908.1797,905.5,1912.1797,915.5,1916.1797,911.5,1912.1797" style="stroke:#181818;stroke-width:1.0;"/><text fill="#000000" font-family="FG Virgil" font-size="13" lengthAdjust="spacing" textLength="205" x="917.5" y="1893.917">add(new Order(null, jobApplication))</text><polygon fill="#181818" points="888.5,1948.4707,898.5,1952.4707,888.5,1956.4707,892.5,1952.4707" style="stroke:#181818;stroke-width:1.0;"/><line style="stroke:#181818;stroke-width:1.0;" x1="553.5" x2="894.5" y1="1952.4707" y2="1952.4707"/><text fill="#000000" font-family="FG Virgil" font-size="13" lengthAdjust="spacing" textLength="242" x="560.5" y="1947.208">saveRanking(selectedJobOpening, orders)</text><polygon fill="#181818" points="2247.5,1979.7617,2257.5,1983.7617,2247.5,1987.7617,2251.5,1983.7617" style="stroke:#181818;stroke-width:1.0;"/><line style="stroke:#181818;stroke-width:1.0;" x1="910.5" x2="2253.5" y1="1983.7617" y2="1983.7617"/><text fill="#000000" font-family="FG Virgil" font-size="13" lengthAdjust="spacing" textLength="190" x="917.5" y="1978.499">saveRanking(jobOpening, orders)</text><polygon fill="#181818" points="2325.5,2011.0527,2335.5,2015.0527,2325.5,2019.0527,2329.5,2015.0527" style="stroke:#181818;stroke-width:1.0;"/><line style="stroke:#181818;stroke-width:1.0;" x1="2269.5" x2="2331.5" y1="2015.0527" y2="2015.0527"/><text fill="#000000" font-family="FG Virgil" font-size="13" lengthAdjust="spacing" textLength="44" x="2276.5" y="2009.79">create()</text><rect fill="#E2E2F0" height="51.2422" rx="2.5" ry="2.5" style="stroke:#181818;stroke-width:0.5;" width="119" x="2337.5" y="1991.7617"/><text fill="#000000" font-family="FG Virgil" font-size="14" font-style="italic" lengthAdjust="spacing" textLength="79" x="2357.5" y="2013.8691">&#171;repository&#187;</text><text fill="#000000" font-family="FG Virgil" font-size="14" lengthAdjust="spacing" textLength="105" x="2344.5" y="2032.4902">:RankRepository</text><polygon fill="#181818" points="2380,2073.2949,2390,2077.2949,2380,2081.2949,2384,2077.2949" style="stroke:#181818;stroke-width:1.0;"/><line style="stroke:#181818;stroke-width:1.0;" x1="2269.5" x2="2386" y1="2077.2949" y2="2077.2949"/><text fill="#000000" font-family="FG Virgil" font-size="13" lengthAdjust="spacing" textLength="59" x="2276.5" y="2072.0322">save(rank)</text><polygon fill="#181818" points="2280.5,2104.5859,2270.5,2108.5859,2280.5,2112.5859,2276.5,2108.5859" style="stroke:#181818;stroke-width:1.0;"/><line style="stroke:#181818;stroke-width:1.0;stroke-dasharray:2.0,2.0;" x1="2274.5" x2="2396" y1="2108.5859" y2="2108.5859"/><text fill="#000000" font-family="FG Virgil" font-size="13" lengthAdjust="spacing" textLength="30" x="2286.5" y="2103.3232">Rank</text><polygon fill="#181818" points="921.5,2135.877,911.5,2139.877,921.5,2143.877,917.5,2139.877" style="stroke:#181818;stroke-width:1.0;"/><line style="stroke:#181818;stroke-width:1.0;stroke-dasharray:2.0,2.0;" x1="915.5" x2="2263.5" y1="2139.877" y2="2139.877"/><text fill="#000000" font-family="FG Virgil" font-size="13" lengthAdjust="spacing" textLength="30" x="927.5" y="2134.6143">Rank</text><polygon fill="#181818" points="564.5,2167.168,554.5,2171.168,564.5,2175.168,560.5,2171.168" style="stroke:#181818;stroke-width:1.0;"/><line style="stroke:#181818;stroke-width:1.0;stroke-dasharray:2.0,2.0;" x1="558.5" x2="904.5" y1="2171.168" y2="2171.168"/><text fill="#000000" font-family="FG Virgil" font-size="13" lengthAdjust="spacing" textLength="30" x="570.5" y="2165.9053">Rank</text><polygon fill="#181818" points="97.5,2198.459,87.5,2202.459,97.5,2206.459,93.5,2202.459" style="stroke:#181818;stroke-width:1.0;"/><line style="stroke:#181818;stroke-width:1.0;stroke-dasharray:2.0,2.0;" x1="91.5" x2="542.5" y1="2202.459" y2="2202.459"/><text fill="#000000" font-family="FG Virgil" font-size="13" lengthAdjust="spacing" textLength="217" x="103.5" y="2197.1963">Displays operation success message</text><!--SRC=[xLTDZzis4BtpLx3feNAGU9Fs9XW6NBifRAJhOhqEq2DNeYtkqgHAqhjmVts7r1T5KSwsERO-69OvxyrmtioGCinmYcUQ_KNJ7p_CT_JFCnKPnIj6ZegSy7w7Ftxu-DFinbhC4VgXCAPCRsvAJeGvd_WqawSR_SH4IS1yMfWJH-qZFaaXiqB94yK7mZNrbagIFP4ZtPaB-5SqCzvQJW_apCqdASmj0UodN_4NfexCfzO5oUKB4yUQ6P7CI8MNPst0dVgD261Nc6YyS0lVStOip0C_WwcrPS_4q6eD0QDX6IjXI_XDUaV4qtxznaBtQpoRbOfgAWmnJ8hvF6AyX3YLv9mg1-eU0KpAahCiZjt8Xsr91UpXZfPICmZbuXWKF3xA1u2hTY66NdJa4GPm_LM6sh_3RC4QzidCDSlL_TOPo-enD_9gMCvsSvMuiswu8V0XxvA8dEMWMPNZSShMiA7BcZ-6f5Qz7LNFBAjewzz0hgjVKRqZkGuJ7LPOLOFlvxQYKhpGJneRYHMGOLFGBaID3s17i5M_Jh77jLyZ10H0qzNOsxSfpXI5vS4IU3fIi-1y8GY_QAOx6NKowMWx1FB0GDNKOOeFJEGU-kVBxmNHD77VzvUIJXUtYyz_xDOxZxP6euRbVHZSPwRDh6ETevmEm7v0JVei3ik3doJjOxtzk9m0hif_YdU5V8424pa81ngy5CJuD8qelbu0eXpcatPA-SB4yzrl04WL_7573rJPkPfenqMzPBvM2DlEbH01vMDBDMLvrHJ99D01mAWX6TN12tkWXINucXRUh1lJOx-EPEmBWVhF6DN_CZlR57I3RlThUeksVN5It1jYVdpRWA-RRM5ydWDl07hsWzm-DrWipgS72Dtpwr6WQ787O9W5t0noxJIOTzO8OVXmAKitJS1X4MASHRn-k_b93M5Ss_fQ1DwcO9SmA39Bqq_UfXF3BhQRtRZ7JKGKZzmAOysy96qYFge3eXzjuyyj3NLexI9qov6GbvLj6B9_m8JHBYFq_lbJfVYN4oGszDOxfknA3pVO4BKSeVi1nsZUrglGVttgNalYUXKwh47kRohoWSzwWhOf0wmhAjGMu60uzyx3nhuRsH1NDILWU3CeRByHsl5joKT7U1I1RFIetpFjE9eCskURMmVztpN_-QvvLQECdQEzpcakb5BbGDRSK_o2xNN3rfhfg5sai4cUEy2zjFMRE1_wNUNh7UwN-6kEQxygW1idWhvK8ILnpib84Y8j6sx77fVVDMtijoAyjy8h7HDXZqu66N11tfuvZoNXctVlRLw0Zt-qTxV_Y62QF5FxdW9tYyYDgbPEloROvdsep_buZQk6e0PQtrvnzvu2BHGkLlo9dSJ1nTNTMbsjTx7OECBxQKSPPYEqRWACNRX2s_6EMp5TSd9nByBAIONrESkerlW4N-H8VPxg9H3z3G00]--></g></svg>