<?xml version="1.0" encoding="us-ascii" standalone="no"?><svg xmlns="http://www.w3.org/2000/svg" xmlns:xlink="http://www.w3.org/1999/xlink" contentStyleType="text/css" height="814px" preserveAspectRatio="none" style="width:1230px;height:814px;background:#FFFFFF;" version="1.1" viewBox="0 0 1230 814" width="1230px" zoomAndPan="magnify"><defs/><g><rect fill="#FFFFFF" height="604.1992" style="stroke:#181818;stroke-width:1.0;" width="10" x="237.5" y="116.9121"/><rect fill="#FFFFFF" height="562.9082" style="stroke:#181818;stroke-width:1.0;" width="10" x="492.5" y="158.2031"/><rect fill="#FFFFFF" height="236.0371" style="stroke:#181818;stroke-width:1.0;" width="10" x="679" y="485.0742"/><rect fill="#FFFFFF" height="298.6191" style="stroke:#181818;stroke-width:1.0;" width="10" x="857.5" y="422.4922"/><rect fill="#FFFFFF" height="498.9961" style="stroke:#181818;stroke-width:1.0;" width="10" x="1027.5" y="223.1152"/><rect fill="#FFFFFF" height="31.291" style="stroke:#181818;stroke-width:1.0;" width="10" x="1154.5" y="542.6563"/><rect fill="none" height="413.4141" style="stroke:#000000;stroke-width:1.5;" width="1213" x="10" y="300.6973"/><rect fill="none" height="81.873" style="stroke:#000000;stroke-width:1.5;" width="621" x="592" y="500.0742"/><line style="stroke:#181818;stroke-width:0.5;stroke-dasharray:5.0,5.0;" x1="37" x2="37" y1="83.6211" y2="731.1113"/><line style="stroke:#181818;stroke-width:0.5;stroke-dasharray:5.0,5.0;" x1="242" x2="242" y1="83.6211" y2="731.1113"/><line style="stroke:#181818;stroke-width:0.5;stroke-dasharray:5.0,5.0;" x1="497" x2="497" y1="156.7227" y2="731.1113"/><line style="stroke:#181818;stroke-width:0.5;stroke-dasharray:5.0,5.0;" x1="684" x2="684" y1="83.6211" y2="731.1113"/><line style="stroke:#181818;stroke-width:0.5;stroke-dasharray:5.0,5.0;" x1="862" x2="862" y1="83.6211" y2="731.1113"/><line style="stroke:#181818;stroke-width:0.5;stroke-dasharray:5.0,5.0;" x1="1032" x2="1032" y1="83.6211" y2="731.1113"/><line style="stroke:#181818;stroke-width:0.5;stroke-dasharray:5.0,5.0;" x1="1159" x2="1159" y1="83.6211" y2="731.1113"/><text fill="#000000" font-family="sans-serif" font-size="14" lengthAdjust="spacing" textLength="29" x="20" y="80.1074">User</text><ellipse cx="37.5" cy="13.5" fill="#E2E2F0" rx="8" ry="8" style="stroke:#181818;stroke-width:0.5;"/><path d="M37.5,21.5 L37.5,48.5 M24.5,29.5 L50.5,29.5 M37.5,48.5 L24.5,63.5 M37.5,48.5 L50.5,63.5 " fill="none" style="stroke:#181818;stroke-width:0.5;"/><text fill="#000000" font-family="sans-serif" font-size="14" lengthAdjust="spacing" textLength="29" x="20" y="745.2188">User</text><ellipse cx="37.5" cy="757.2324" fill="#E2E2F0" rx="8" ry="8" style="stroke:#181818;stroke-width:0.5;"/><path d="M37.5,765.2324 L37.5,792.2324 M24.5,773.2324 L50.5,773.2324 M37.5,792.2324 L24.5,807.2324 M37.5,792.2324 L50.5,807.2324 " fill="none" style="stroke:#181818;stroke-width:0.5;"/><rect fill="#E2E2F0" height="32.6211" rx="2.5" ry="2.5" style="stroke:#181818;stroke-width:0.5;" width="139" x="173" y="50"/><text fill="#000000" font-family="sans-serif" font-size="14" lengthAdjust="spacing" textLength="125" x="180" y="72.1074">SeeCandidateInfoUI</text><rect fill="#E2E2F0" height="32.6211" rx="2.5" ry="2.5" style="stroke:#181818;stroke-width:0.5;" width="139" x="173" y="730.1113"/><text fill="#000000" font-family="sans-serif" font-size="14" lengthAdjust="spacing" textLength="125" x="180" y="752.2188">SeeCandidateInfoUI</text><rect fill="#E2E2F0" height="32.6211" rx="2.5" ry="2.5" style="stroke:#181818;stroke-width:0.5;" width="189" x="403" y="730.1113"/><text fill="#000000" font-family="sans-serif" font-size="14" lengthAdjust="spacing" textLength="175" x="410" y="752.2188">SeeCandidateInfoController</text><rect fill="#E2E2F0" height="32.6211" rx="2.5" ry="2.5" style="stroke:#181818;stroke-width:0.5;" width="164" x="602" y="50"/><text fill="#000000" font-family="sans-serif" font-size="14" lengthAdjust="spacing" textLength="150" x="609" y="72.1074">MostUsedWordsService</text><rect fill="#E2E2F0" height="32.6211" rx="2.5" ry="2.5" style="stroke:#181818;stroke-width:0.5;" width="164" x="602" y="730.1113"/><text fill="#000000" font-family="sans-serif" font-size="14" lengthAdjust="spacing" textLength="150" x="609" y="752.2188">MostUsedWordsService</text><rect fill="#E2E2F0" height="32.6211" rx="2.5" ry="2.5" style="stroke:#181818;stroke-width:0.5;" width="173" x="776" y="50"/><text fill="#000000" font-family="sans-serif" font-size="14" lengthAdjust="spacing" textLength="159" x="783" y="72.1074">JobApplicationRepository</text><rect fill="#E2E2F0" height="32.6211" rx="2.5" ry="2.5" style="stroke:#181818;stroke-width:0.5;" width="173" x="776" y="730.1113"/><text fill="#000000" font-family="sans-serif" font-size="14" lengthAdjust="spacing" textLength="159" x="783" y="752.2188">JobApplicationRepository</text><rect fill="#E2E2F0" height="32.6211" rx="2.5" ry="2.5" style="stroke:#181818;stroke-width:0.5;" width="147" x="959" y="50"/><text fill="#000000" font-family="sans-serif" font-size="14" lengthAdjust="spacing" textLength="133" x="966" y="72.1074">CandidateRepository</text><rect fill="#E2E2F0" height="32.6211" rx="2.5" ry="2.5" style="stroke:#181818;stroke-width:0.5;" width="147" x="959" y="730.1113"/><text fill="#000000" font-family="sans-serif" font-size="14" lengthAdjust="spacing" textLength="133" x="966" y="752.2188">CandidateRepository</text><rect fill="#E2E2F0" height="32.6211" rx="2.5" ry="2.5" style="stroke:#181818;stroke-width:0.5;" width="87" x="1116" y="50"/><text fill="#000000" font-family="sans-serif" font-size="14" lengthAdjust="spacing" textLength="73" x="1123" y="72.1074">AnalyseFile</text><rect fill="#E2E2F0" height="32.6211" rx="2.5" ry="2.5" style="stroke:#181818;stroke-width:0.5;" width="87" x="1116" y="730.1113"/><text fill="#000000" font-family="sans-serif" font-size="14" lengthAdjust="spacing" textLength="73" x="1123" y="752.2188">AnalyseFile</text><rect fill="#FFFFFF" height="604.1992" style="stroke:#181818;stroke-width:1.0;" width="10" x="237.5" y="116.9121"/><rect fill="#FFFFFF" height="562.9082" style="stroke:#181818;stroke-width:1.0;" width="10" x="492.5" y="158.2031"/><rect fill="#FFFFFF" height="236.0371" style="stroke:#181818;stroke-width:1.0;" width="10" x="679" y="485.0742"/><rect fill="#FFFFFF" height="298.6191" style="stroke:#181818;stroke-width:1.0;" width="10" x="857.5" y="422.4922"/><rect fill="#FFFFFF" height="498.9961" style="stroke:#181818;stroke-width:1.0;" width="10" x="1027.5" y="223.1152"/><rect fill="#FFFFFF" height="31.291" style="stroke:#181818;stroke-width:1.0;" width="10" x="1154.5" y="542.6563"/><polygon fill="#181818" points="225.5,112.9121,235.5,116.9121,225.5,120.9121,229.5,116.9121" style="stroke:#181818;stroke-width:1.0;"/><line style="stroke:#181818;stroke-width:1.0;" x1="37.5" x2="231.5" y1="116.9121" y2="116.9121"/><text fill="#000000" font-family="sans-serif" font-size="13" lengthAdjust="spacing" textLength="135" x="44.5" y="111.6494">Enter candidate's email</text><polygon fill="#181818" points="391,144.2031,401,148.2031,391,152.2031,395,148.2031" style="stroke:#181818;stroke-width:1.0;"/><line style="stroke:#181818;stroke-width:1.0;" x1="247.5" x2="397" y1="148.2031" y2="148.2031"/><text fill="#000000" font-family="sans-serif" font-size="13" lengthAdjust="spacing" textLength="44" x="254.5" y="142.9404">create()</text><rect fill="#E2E2F0" height="32.6211" rx="2.5" ry="2.5" style="stroke:#181818;stroke-width:0.5;" width="189" x="403" y="124.9121"/><text fill="#000000" font-family="sans-serif" font-size="14" lengthAdjust="spacing" textLength="175" x="410" y="147.0195">SeeCandidateInfoController</text><polygon fill="#181818" points="480.5,187.8242,490.5,191.8242,480.5,195.8242,484.5,191.8242" style="stroke:#181818;stroke-width:1.0;"/><line style="stroke:#181818;stroke-width:1.0;" x1="247.5" x2="486.5" y1="191.8242" y2="191.8242"/><text fill="#000000" font-family="sans-serif" font-size="13" lengthAdjust="spacing" textLength="166" x="254.5" y="186.5615">findCandidateByEmail(email)</text><polygon fill="#181818" points="1015.5,219.1152,1025.5,223.1152,1015.5,227.1152,1019.5,223.1152" style="stroke:#181818;stroke-width:1.0;"/><line style="stroke:#181818;stroke-width:1.0;" x1="502.5" x2="1021.5" y1="223.1152" y2="223.1152"/><text fill="#000000" font-family="sans-serif" font-size="13" lengthAdjust="spacing" textLength="108" x="509.5" y="217.8525">findByEmail(email)</text><polygon fill="#181818" points="513.5,250.4063,503.5,254.4063,513.5,258.4063,509.5,254.4063" style="stroke:#181818;stroke-width:1.0;"/><line style="stroke:#181818;stroke-width:1.0;stroke-dasharray:2.0,2.0;" x1="507.5" x2="1026.5" y1="254.4063" y2="254.4063"/><text fill="#000000" font-family="sans-serif" font-size="13" lengthAdjust="spacing" textLength="104" x="519.5" y="249.1436">candidateOptional</text><polygon fill="#181818" points="258.5,281.6973,248.5,285.6973,258.5,289.6973,254.5,285.6973" style="stroke:#181818;stroke-width:1.0;"/><line style="stroke:#181818;stroke-width:1.0;stroke-dasharray:2.0,2.0;" x1="252.5" x2="491.5" y1="285.6973" y2="285.6973"/><text fill="#000000" font-family="sans-serif" font-size="13" lengthAdjust="spacing" textLength="56" x="264.5" y="280.4346">candidate</text><path d="M10,300.6973 L71,300.6973 L71,309.9883 L61,319.9883 L10,319.9883 L10,300.6973 " fill="#EEEEEE" style="stroke:#000000;stroke-width:1.5;"/><rect fill="none" height="413.4141" style="stroke:#000000;stroke-width:1.5;" width="1213" x="10" y="300.6973"/><text fill="#000000" font-family="sans-serif" font-size="13" font-weight="bold" lengthAdjust="spacing" textLength="16" x="25" y="315.7256">alt</text><text fill="#000000" font-family="sans-serif" font-size="11" font-weight="bold" lengthAdjust="spacing" textLength="97" x="86" y="314.5674">[candidate is null]</text><polygon fill="#181818" points="48.5,339.2793,38.5,343.2793,48.5,347.2793,44.5,343.2793" style="stroke:#181818;stroke-width:1.0;"/><line style="stroke:#181818;stroke-width:1.0;" x1="42.5" x2="236.5" y1="343.2793" y2="343.2793"/><text fill="#000000" font-family="sans-serif" font-size="13" lengthAdjust="spacing" textLength="176" x="54.5" y="338.0166">Display "Candidate not found."</text><line style="stroke:#000000;stroke-width:1.0;stroke-dasharray:2.0,2.0;" x1="10" x2="1223" y1="352.2793" y2="352.2793"/><text fill="#000000" font-family="sans-serif" font-size="11" font-weight="bold" lengthAdjust="spacing" textLength="118" x="15" y="364.1494">[candidate is not null]</text><polygon fill="#181818" points="480.5,387.2012,490.5,391.2012,480.5,395.2012,484.5,391.2012" style="stroke:#181818;stroke-width:1.0;"/><line style="stroke:#181818;stroke-width:1.0;" x1="247.5" x2="486.5" y1="391.2012" y2="391.2012"/><text fill="#000000" font-family="sans-serif" font-size="13" lengthAdjust="spacing" textLength="221" x="254.5" y="385.9385">processTopWordsForCandidate(email)</text><polygon fill="#181818" points="845.5,418.4922,855.5,422.4922,845.5,426.4922,849.5,422.4922" style="stroke:#181818;stroke-width:1.0;"/><line style="stroke:#181818;stroke-width:1.0;" x1="502.5" x2="851.5" y1="422.4922" y2="422.4922"/><text fill="#000000" font-family="sans-serif" font-size="13" lengthAdjust="spacing" textLength="166" x="509.5" y="417.2295">findByCandidateEmail(email)</text><polygon fill="#181818" points="513.5,449.7832,503.5,453.7832,513.5,457.7832,509.5,453.7832" style="stroke:#181818;stroke-width:1.0;"/><line style="stroke:#181818;stroke-width:1.0;stroke-dasharray:2.0,2.0;" x1="507.5" x2="856.5" y1="453.7832" y2="453.7832"/><text fill="#000000" font-family="sans-serif" font-size="13" lengthAdjust="spacing" textLength="88" x="519.5" y="448.5205">jobApplications</text><polygon fill="#181818" points="667,481.0742,677,485.0742,667,489.0742,671,485.0742" style="stroke:#181818;stroke-width:1.0;"/><line style="stroke:#181818;stroke-width:1.0;" x1="502.5" x2="673" y1="485.0742" y2="485.0742"/><text fill="#000000" font-family="sans-serif" font-size="13" lengthAdjust="spacing" textLength="105" x="509.5" y="479.8115">processFiles(files)</text><path d="M592,500.0742 L658,500.0742 L658,509.3652 L648,519.3652 L592,519.3652 L592,500.0742 " fill="#EEEEEE" style="stroke:#000000;stroke-width:1.5;"/><rect fill="none" height="81.873" style="stroke:#000000;stroke-width:1.5;" width="621" x="592" y="500.0742"/><text fill="#000000" font-family="sans-serif" font-size="13" font-weight="bold" lengthAdjust="spacing" textLength="21" x="607" y="515.1025">par</text><text fill="#000000" font-family="sans-serif" font-size="11" font-weight="bold" lengthAdjust="spacing" textLength="233" x="673" y="513.9443">[N Threads (One partition for each thread)]</text><polygon fill="#181818" points="1142.5,538.6563,1152.5,542.6563,1142.5,546.6563,1146.5,542.6563" style="stroke:#181818;stroke-width:1.0;"/><line style="stroke:#181818;stroke-width:1.0;" x1="689" x2="1148.5" y1="542.6563" y2="542.6563"/><text fill="#000000" font-family="sans-serif" font-size="13" lengthAdjust="spacing" textLength="119" x="696" y="537.3936">new AnalyseFile(file)</text><polygon fill="#181818" points="700,569.9473,690,573.9473,700,577.9473,696,573.9473" style="stroke:#181818;stroke-width:1.0;"/><line style="stroke:#181818;stroke-width:1.0;stroke-dasharray:2.0,2.0;" x1="694" x2="1158.5" y1="573.9473" y2="573.9473"/><text fill="#000000" font-family="sans-serif" font-size="13" lengthAdjust="spacing" textLength="88" x="706" y="568.6846">wordFrequency</text><polygon fill="#181818" points="513.5,608.2383,503.5,612.2383,513.5,616.2383,509.5,612.2383" style="stroke:#181818;stroke-width:1.0;"/><line style="stroke:#181818;stroke-width:1.0;stroke-dasharray:2.0,2.0;" x1="507.5" x2="678" y1="612.2383" y2="612.2383"/><text fill="#000000" font-family="sans-serif" font-size="13" lengthAdjust="spacing" textLength="75" x="519.5" y="606.9756">fileTopWords</text><polygon fill="#181818" points="258.5,639.5293,248.5,643.5293,258.5,647.5293,254.5,643.5293" style="stroke:#181818;stroke-width:1.0;"/><line style="stroke:#181818;stroke-width:1.0;stroke-dasharray:2.0,2.0;" x1="252.5" x2="491.5" y1="643.5293" y2="643.5293"/><text fill="#000000" font-family="sans-serif" font-size="13" lengthAdjust="spacing" textLength="56" x="264.5" y="638.2666">topWords</text><polygon fill="#181818" points="48.5,670.8203,38.5,674.8203,48.5,678.8203,44.5,674.8203" style="stroke:#181818;stroke-width:1.0;"/><line style="stroke:#181818;stroke-width:1.0;stroke-dasharray:2.0,2.0;" x1="42.5" x2="236.5" y1="674.8203" y2="674.8203"/><text fill="#000000" font-family="sans-serif" font-size="13" lengthAdjust="spacing" textLength="170" x="54.5" y="669.5576">Display candidate information</text><polygon fill="#181818" points="48.5,702.1113,38.5,706.1113,48.5,710.1113,44.5,706.1113" style="stroke:#181818;stroke-width:1.0;"/><line style="stroke:#181818;stroke-width:1.0;stroke-dasharray:2.0,2.0;" x1="42.5" x2="236.5" y1="706.1113" y2="706.1113"/><text fill="#000000" font-family="sans-serif" font-size="13" lengthAdjust="spacing" textLength="103" x="54.5" y="700.8486">Display top words</text><!--SRC=[VLHDRniX4BtpAqQ-r8da_W0VAhbfBBbI6wc9rJE5iK95W09EjF- -0pOix6wo1ylCp9kFDm-uYDR3CQ077c2NJinn7vLGZfi8gqV4EswaaZpYmPpiyR1AaSV3ns5traHljKQVmyTZ3_jXGwJYyhVrCZoYVrK2C-3wlu_-Rl_idDDAyAYi-ONE1aKD3nanT_RWsju4rzbxoCvmFGJSAtrfgZapbhc2pHUY0hPmRo9HA4gkJm7mXIlDk8ZgbGo9CA2FWWaoqd5xkmNXaIBMDsDmGzSKGBLEoiZQzTVXFXLQvt8th0bCi7QsAt8266jsFFJ8pRI5EkY3IsnptHKkfDGendKSJw02cBFM3I4NChVmJGMd-T1i2uoDSB9d8p-l6Eg0appadUJg6dNU2WpXoReiiRtrDNDX825xskPIgjnLT4TYIb69N11YyYyadT7wjui92wrTxyKuMH9ZM9_IxwIFSeMIaMGDF-7fcPGc0wmV349MUYf3x7f0BfuXPlybJVfAiRIWKVfKs-1RQydbHrZjeBqlnTacsdG3lT62zXx_dT68eSPBV3ST6icwDkSNHMFP_8pB8jBO1YG5BSYnaHozRVubh-SZ02NDymIMccnce6UWdIY_jusXxAmnBSYfyJOlnNy0]--></g></svg>