<?xml version="1.0" encoding="us-ascii" standalone="no"?><svg xmlns="http://www.w3.org/2000/svg" xmlns:xlink="http://www.w3.org/1999/xlink" contentStyleType="text/css" height="814px" preserveAspectRatio="none" style="width:2421px;height:814px;background:#FFFFFF;" version="1.1" viewBox="0 0 2421 814" width="2421px" zoomAndPan="magnify"><defs><filter height="300%" id="fdu15yaa38wb4" width="300%" x="-1" y="-1"><feGaussianBlur result="blurOut" stdDeviation="2.0"/><feColorMatrix in="blurOut" result="blurOut2" type="matrix" values="0 0 0 0 0 0 0 0 0 0 0 0 0 0 0 0 0 0 .4 0"/><feOffset dx="4.0" dy="4.0" in="blurOut2" result="blurOut3"/><feBlend in="SourceGraphic" in2="blurOut3" mode="normal"/></filter></defs><g><text fill="#000000" font-family="FG Virgil" font-size="20" font-weight="bold" lengthAdjust="spacing" textLength="242" x="1082.5" y="29.3359">Class Diagram US 1000</text><!--class AddUserUI--><g id="elem_AddUserUI"><rect codeLine="10" fill="#F1F1F1" filter="url(#fdu15yaa38wb4)" height="97.4648" id="AddUserUI" rx="2.5" ry="2.5" style="stroke:#181818;stroke-width:0.5;" width="159" x="140.5" y="51.5547"/><ellipse cx="179.8" cy="67.5547" fill="#ADD1B2" rx="11" ry="11" style="stroke:#181818;stroke-width:1.0;"/><path d="M182.7731,73.1978 Q182.1921,73.4966 181.5529,73.646 Q180.9138,73.7954 180.2082,73.7954 Q177.7014,73.7954 176.3815,72.1436 Q175.0617,70.4917 175.0617,67.3706 Q175.0617,64.2412 176.3815,62.5894 Q177.7014,60.9375 180.2082,60.9375 Q180.9138,60.9375 181.5612,61.0869 Q182.2087,61.2363 182.7731,61.5352 L182.7731,64.2578 Q182.1423,63.6768 181.5488,63.407 Q180.9553,63.1372 180.3244,63.1372 Q178.9797,63.1372 178.2949,64.2039 Q177.6101,65.2705 177.6101,67.3706 Q177.6101,69.4624 178.2949,70.5291 Q178.9797,71.5957 180.3244,71.5957 Q180.9553,71.5957 181.5488,71.3259 Q182.1423,71.0562 182.7731,70.4751 Z " fill="#000000"/><text fill="#000000" font-family="FG Virgil" font-size="14" lengthAdjust="spacing" textLength="73" x="199.2" y="72.8457">AddUserUI</text><line style="stroke:#181818;stroke-width:0.5;" x1="141.5" x2="298.5" y1="83.5547" y2="83.5547"/><line style="stroke:#181818;stroke-width:0.5;" x1="141.5" x2="298.5" y1="91.5547" y2="91.5547"/><ellipse cx="151.5" cy="105.2988" fill="#84BE84" rx="3" ry="3" style="stroke:#038048;stroke-width:1.0;"/><text fill="#000000" font-family="FG Virgil" font-size="14" lengthAdjust="spacing" textLength="83" x="160.5" y="109.0898">AddUserUI()</text><polygon fill="#FFFF44" points="151.5,116.7871,155.5,120.7871,151.5,124.7871,147.5,120.7871" style="stroke:#B38D22;stroke-width:1.0;"/><text fill="#000000" font-family="FG Virgil" font-size="14" lengthAdjust="spacing" textLength="133" x="160.5" y="125.5781">doShow() : boolean</text><ellipse cx="151.5" cy="138.2754" fill="#84BE84" rx="3" ry="3" style="stroke:#038048;stroke-width:1.0;"/><text fill="#000000" font-family="FG Virgil" font-size="14" lengthAdjust="spacing" textLength="122" x="160.5" y="142.0664">headline() : String</text></g><!--class ListUsersUI--><g id="elem_ListUsersUI"><rect codeLine="17" fill="#F1F1F1" filter="url(#fdu15yaa38wb4)" height="97.4648" id="ListUsersUI" rx="2.5" ry="2.5" style="stroke:#181818;stroke-width:0.5;" width="159" x="1337.5" y="51.5547"/><ellipse cx="1375.9" cy="67.5547" fill="#ADD1B2" rx="11" ry="11" style="stroke:#181818;stroke-width:1.0;"/><path d="M1378.8731,73.1978 Q1378.2921,73.4966 1377.6529,73.646 Q1377.0138,73.7954 1376.3082,73.7954 Q1373.8014,73.7954 1372.4815,72.1436 Q1371.1617,70.4917 1371.1617,67.3706 Q1371.1617,64.2412 1372.4815,62.5894 Q1373.8014,60.9375 1376.3082,60.9375 Q1377.0138,60.9375 1377.6612,61.0869 Q1378.3087,61.2363 1378.8731,61.5352 L1378.8731,64.2578 Q1378.2423,63.6768 1377.6488,63.407 Q1377.0553,63.1372 1376.4244,63.1372 Q1375.0797,63.1372 1374.3949,64.2039 Q1373.7101,65.2705 1373.7101,67.3706 Q1373.7101,69.4624 1374.3949,70.5291 Q1375.0797,71.5957 1376.4244,71.5957 Q1377.0553,71.5957 1377.6488,71.3259 Q1378.2423,71.0562 1378.8731,70.4751 Z " fill="#000000"/><text fill="#000000" font-family="FG Virgil" font-size="14" lengthAdjust="spacing" textLength="75" x="1395.1" y="72.8457">ListUsersUI</text><line style="stroke:#181818;stroke-width:0.5;" x1="1338.5" x2="1495.5" y1="83.5547" y2="83.5547"/><line style="stroke:#181818;stroke-width:0.5;" x1="1338.5" x2="1495.5" y1="91.5547" y2="91.5547"/><ellipse cx="1348.5" cy="105.2988" fill="#84BE84" rx="3" ry="3" style="stroke:#038048;stroke-width:1.0;"/><text fill="#000000" font-family="FG Virgil" font-size="14" lengthAdjust="spacing" textLength="85" x="1357.5" y="109.0898">ListUsersUI()</text><polygon fill="#FFFF44" points="1348.5,116.7871,1352.5,120.7871,1348.5,124.7871,1344.5,120.7871" style="stroke:#B38D22;stroke-width:1.0;"/><text fill="#000000" font-family="FG Virgil" font-size="14" lengthAdjust="spacing" textLength="133" x="1357.5" y="125.5781">doShow() : boolean</text><ellipse cx="1348.5" cy="138.2754" fill="#84BE84" rx="3" ry="3" style="stroke:#038048;stroke-width:1.0;"/><text fill="#000000" font-family="FG Virgil" font-size="14" lengthAdjust="spacing" textLength="122" x="1357.5" y="142.0664">headline() : String</text></g><!--class DeactivateUserUI--><g id="elem_DeactivateUserUI"><rect codeLine="24" fill="#F1F1F1" filter="url(#fdu15yaa38wb4)" height="97.4648" id="DeactivateUserUI" rx="2.5" ry="2.5" style="stroke:#181818;stroke-width:0.5;" width="159" x="941.5" y="51.5547"/><ellipse cx="961.9" cy="67.5547" fill="#ADD1B2" rx="11" ry="11" style="stroke:#181818;stroke-width:1.0;"/><path d="M964.8731,73.1978 Q964.2921,73.4966 963.6529,73.646 Q963.0138,73.7954 962.3082,73.7954 Q959.8014,73.7954 958.4815,72.1436 Q957.1617,70.4917 957.1617,67.3706 Q957.1617,64.2412 958.4815,62.5894 Q959.8014,60.9375 962.3082,60.9375 Q963.0138,60.9375 963.6612,61.0869 Q964.3087,61.2363 964.8731,61.5352 L964.8731,64.2578 Q964.2423,63.6768 963.6488,63.407 Q963.0553,63.1372 962.4244,63.1372 Q961.0797,63.1372 960.3949,64.2039 Q959.7101,65.2705 959.7101,67.3706 Q959.7101,69.4624 960.3949,70.5291 Q961.0797,71.5957 962.4244,71.5957 Q963.0553,71.5957 963.6488,71.3259 Q964.2423,71.0562 964.8731,70.4751 Z " fill="#000000"/><text fill="#000000" font-family="FG Virgil" font-size="14" lengthAdjust="spacing" textLength="115" x="977.1" y="72.8457">DeactivateUserUI</text><line style="stroke:#181818;stroke-width:0.5;" x1="942.5" x2="1099.5" y1="83.5547" y2="83.5547"/><line style="stroke:#181818;stroke-width:0.5;" x1="942.5" x2="1099.5" y1="91.5547" y2="91.5547"/><ellipse cx="952.5" cy="105.2988" fill="#84BE84" rx="3" ry="3" style="stroke:#038048;stroke-width:1.0;"/><text fill="#000000" font-family="FG Virgil" font-size="14" lengthAdjust="spacing" textLength="125" x="961.5" y="109.0898">DeactivateUserUI()</text><polygon fill="#FFFF44" points="952.5,116.7871,956.5,120.7871,952.5,124.7871,948.5,120.7871" style="stroke:#B38D22;stroke-width:1.0;"/><text fill="#000000" font-family="FG Virgil" font-size="14" lengthAdjust="spacing" textLength="133" x="961.5" y="125.5781">doShow() : boolean</text><ellipse cx="952.5" cy="138.2754" fill="#84BE84" rx="3" ry="3" style="stroke:#038048;stroke-width:1.0;"/><text fill="#000000" font-family="FG Virgil" font-size="14" lengthAdjust="spacing" textLength="122" x="961.5" y="142.0664">headline() : String</text></g><!--class ActivateUserUI--><g id="elem_ActivateUserUI"><rect codeLine="31" fill="#F1F1F1" filter="url(#fdu15yaa38wb4)" height="97.4648" id="ActivateUserUI" rx="2.5" ry="2.5" style="stroke:#181818;stroke-width:0.5;" width="159" x="545.5" y="51.5547"/><ellipse cx="573.1" cy="67.5547" fill="#ADD1B2" rx="11" ry="11" style="stroke:#181818;stroke-width:1.0;"/><path d="M576.0731,73.1978 Q575.4921,73.4966 574.8529,73.646 Q574.2138,73.7954 573.5082,73.7954 Q571.0014,73.7954 569.6815,72.1436 Q568.3617,70.4917 568.3617,67.3706 Q568.3617,64.2412 569.6815,62.5894 Q571.0014,60.9375 573.5082,60.9375 Q574.2138,60.9375 574.8612,61.0869 Q575.5087,61.2363 576.0731,61.5352 L576.0731,64.2578 Q575.4423,63.6768 574.8488,63.407 Q574.2553,63.1372 573.6244,63.1372 Q572.2797,63.1372 571.5949,64.2039 Q570.9101,65.2705 570.9101,67.3706 Q570.9101,69.4624 571.5949,70.5291 Q572.2797,71.5957 573.6244,71.5957 Q574.2553,71.5957 574.8488,71.3259 Q575.4423,71.0562 576.0731,70.4751 Z " fill="#000000"/><text fill="#000000" font-family="FG Virgil" font-size="14" lengthAdjust="spacing" textLength="99" x="589.9" y="72.8457">ActivateUserUI</text><line style="stroke:#181818;stroke-width:0.5;" x1="546.5" x2="703.5" y1="83.5547" y2="83.5547"/><line style="stroke:#181818;stroke-width:0.5;" x1="546.5" x2="703.5" y1="91.5547" y2="91.5547"/><ellipse cx="556.5" cy="105.2988" fill="#84BE84" rx="3" ry="3" style="stroke:#038048;stroke-width:1.0;"/><text fill="#000000" font-family="FG Virgil" font-size="14" lengthAdjust="spacing" textLength="109" x="565.5" y="109.0898">ActivateUserUI()</text><polygon fill="#FFFF44" points="556.5,116.7871,560.5,120.7871,556.5,124.7871,552.5,120.7871" style="stroke:#B38D22;stroke-width:1.0;"/><text fill="#000000" font-family="FG Virgil" font-size="14" lengthAdjust="spacing" textLength="133" x="565.5" y="125.5781">doShow() : boolean</text><ellipse cx="556.5" cy="138.2754" fill="#84BE84" rx="3" ry="3" style="stroke:#038048;stroke-width:1.0;"/><text fill="#000000" font-family="FG Virgil" font-size="14" lengthAdjust="spacing" textLength="122" x="565.5" y="142.0664">headline() : String</text></g><!--class AddUserController--><g id="elem_AddUserController"><rect codeLine="55" fill="#F1F1F1" filter="url(#fdu15yaa38wb4)" height="163.418" id="AddUserController" rx="2.5" ry="2.5" style="stroke:#181818;stroke-width:0.5;" width="378" x="31" y="208.5547"/><ellipse cx="151.25" cy="224.5547" fill="#ADD1B2" rx="11" ry="11" style="stroke:#181818;stroke-width:1.0;"/><path d="M154.2231,230.1978 Q153.6421,230.4966 153.0029,230.646 Q152.3638,230.7954 151.6582,230.7954 Q149.1514,230.7954 147.8315,229.1436 Q146.5117,227.4917 146.5117,224.3706 Q146.5117,221.2412 147.8315,219.5894 Q149.1514,217.9375 151.6582,217.9375 Q152.3638,217.9375 153.0112,218.0869 Q153.6587,218.2363 154.2231,218.5352 L154.2231,221.2578 Q153.5923,220.6768 152.9988,220.407 Q152.4053,220.1372 151.7744,220.1372 Q150.4297,220.1372 149.7449,221.2039 Q149.0601,222.2705 149.0601,224.3706 Q149.0601,226.4624 149.7449,227.5291 Q150.4297,228.5957 151.7744,228.5957 Q152.4053,228.5957 152.9988,228.3259 Q153.5923,228.0562 154.2231,227.4751 Z " fill="#000000"/><text fill="#000000" font-family="FG Virgil" font-size="14" lengthAdjust="spacing" textLength="129" x="171.75" y="229.8457">AddUserController</text><line style="stroke:#181818;stroke-width:0.5;" x1="32" x2="408" y1="240.5547" y2="240.5547"/><line style="stroke:#181818;stroke-width:0.5;" x1="32" x2="408" y1="248.5547" y2="248.5547"/><ellipse cx="42" cy="262.2988" fill="#84BE84" rx="3" ry="3" style="stroke:#038048;stroke-width:1.0;"/><text fill="#000000" font-family="FG Virgil" font-size="14" lengthAdjust="spacing" textLength="102" x="51" y="266.0898">getRoleTypes()</text><ellipse cx="42" cy="295.2754" fill="#84BE84" rx="3" ry="3" style="stroke:#038048;stroke-width:1.0;"/><text fill="#000000" font-family="FG Virgil" font-size="14" lengthAdjust="spacing" textLength="298" x="51" y="282.5781">addUser(String username, String password,</text><text fill="#000000" font-family="FG Virgil" font-size="14" lengthAdjust="spacing" textLength="321" x="51" y="299.0664">String firstName, String lastName, String email,</text><text fill="#000000" font-family="FG Virgil" font-size="14" lengthAdjust="spacing" textLength="352" x="51" y="315.5547">Set&lt;Role&gt; roles, Calendar createdOn) : SystemUser</text><ellipse cx="42" cy="344.7402" fill="#84BE84" rx="3" ry="3" style="stroke:#038048;stroke-width:1.0;"/><text fill="#000000" font-family="FG Virgil" font-size="14" lengthAdjust="spacing" textLength="298" x="51" y="332.043">addUser(String username, String password,</text><text fill="#000000" font-family="FG Virgil" font-size="14" lengthAdjust="spacing" textLength="321" x="51" y="348.5313">String firstName, String lastName, String email,</text><text fill="#000000" font-family="FG Virgil" font-size="14" lengthAdjust="spacing" textLength="207" x="51" y="365.0195">Set&lt;Role&gt; roles) : SystemUser</text></g><!--class ActivateUserController--><g id="elem_ActivateUserController"><rect codeLine="64" fill="#F1F1F1" filter="url(#fdu15yaa38wb4)" height="113.9531" id="ActivateUserController" rx="2.5" ry="2.5" style="stroke:#181818;stroke-width:0.5;" width="361" x="444.5" y="233.0547"/><ellipse cx="543.25" cy="249.0547" fill="#ADD1B2" rx="11" ry="11" style="stroke:#181818;stroke-width:1.0;"/><path d="M546.2231,254.6978 Q545.6421,254.9966 545.0029,255.146 Q544.3638,255.2954 543.6582,255.2954 Q541.1514,255.2954 539.8315,253.6436 Q538.5117,251.9917 538.5117,248.8706 Q538.5117,245.7412 539.8315,244.0894 Q541.1514,242.4375 543.6582,242.4375 Q544.3638,242.4375 545.0112,242.5869 Q545.6587,242.7363 546.2231,243.0352 L546.2231,245.7578 Q545.5923,245.1768 544.9988,244.907 Q544.4053,244.6372 543.7744,244.6372 Q542.4297,244.6372 541.7449,245.7039 Q541.0601,246.7705 541.0601,248.8706 Q541.0601,250.9624 541.7449,252.0291 Q542.4297,253.0957 543.7744,253.0957 Q544.4053,253.0957 544.9988,252.8259 Q545.5923,252.5562 546.2231,251.9751 Z " fill="#000000"/><text fill="#000000" font-family="FG Virgil" font-size="14" lengthAdjust="spacing" textLength="155" x="563.75" y="254.3457">ActivateUserController</text><line style="stroke:#181818;stroke-width:0.5;" x1="445.5" x2="804.5" y1="265.0547" y2="265.0547"/><line style="stroke:#181818;stroke-width:0.5;" x1="445.5" x2="804.5" y1="273.0547" y2="273.0547"/><ellipse cx="455.5" cy="286.7988" fill="#84BE84" rx="3" ry="3" style="stroke:#038048;stroke-width:1.0;"/><text fill="#000000" font-family="FG Virgil" font-size="14" lengthAdjust="spacing" textLength="165" x="464.5" y="290.5898">ActivateUserController()</text><ellipse cx="455.5" cy="311.5313" fill="#84BE84" rx="3" ry="3" style="stroke:#038048;stroke-width:1.0;"/><text fill="#000000" font-family="FG Virgil" font-size="14" lengthAdjust="spacing" textLength="331" x="464.5" y="307.0781">registerNewCustomer(String name, String email,</text><text fill="#000000" font-family="FG Virgil" font-size="14" lengthAdjust="spacing" textLength="335" x="464.5" y="323.5664">String phoneNumber, String address) : Customer</text><ellipse cx="455.5" cy="336.2637" fill="#84BE84" rx="3" ry="3" style="stroke:#038048;stroke-width:1.0;"/><text fill="#000000" font-family="FG Virgil" font-size="14" lengthAdjust="spacing" textLength="209" x="464.5" y="340.0547">getCustomerData() : Customer</text></g><!--class DeactivateUserController--><g id="elem_DeactivateUserController"><rect codeLine="71" fill="#F1F1F1" filter="url(#fdu15yaa38wb4)" height="113.9531" id="DeactivateUserController" rx="2.5" ry="2.5" style="stroke:#181818;stroke-width:0.5;" width="361" x="840.5" y="233.0547"/><ellipse cx="931.25" cy="249.0547" fill="#ADD1B2" rx="11" ry="11" style="stroke:#181818;stroke-width:1.0;"/><path d="M934.2231,254.6978 Q933.6421,254.9966 933.0029,255.146 Q932.3638,255.2954 931.6582,255.2954 Q929.1514,255.2954 927.8315,253.6436 Q926.5117,251.9917 926.5117,248.8706 Q926.5117,245.7412 927.8315,244.0894 Q929.1514,242.4375 931.6582,242.4375 Q932.3638,242.4375 933.0112,242.5869 Q933.6587,242.7363 934.2231,243.0352 L934.2231,245.7578 Q933.5923,245.1768 932.9988,244.907 Q932.4053,244.6372 931.7744,244.6372 Q930.4297,244.6372 929.7449,245.7039 Q929.0601,246.7705 929.0601,248.8706 Q929.0601,250.9624 929.7449,252.0291 Q930.4297,253.0957 931.7744,253.0957 Q932.4053,253.0957 932.9988,252.8259 Q933.5923,252.5562 934.2231,251.9751 Z " fill="#000000"/><text fill="#000000" font-family="FG Virgil" font-size="14" lengthAdjust="spacing" textLength="171" x="951.75" y="254.3457">DeactivateUserController</text><line style="stroke:#181818;stroke-width:0.5;" x1="841.5" x2="1200.5" y1="265.0547" y2="265.0547"/><line style="stroke:#181818;stroke-width:0.5;" x1="841.5" x2="1200.5" y1="273.0547" y2="273.0547"/><ellipse cx="851.5" cy="286.7988" fill="#84BE84" rx="3" ry="3" style="stroke:#038048;stroke-width:1.0;"/><text fill="#000000" font-family="FG Virgil" font-size="14" lengthAdjust="spacing" textLength="181" x="860.5" y="290.5898">DeactivateUserController()</text><ellipse cx="851.5" cy="311.5313" fill="#84BE84" rx="3" ry="3" style="stroke:#038048;stroke-width:1.0;"/><text fill="#000000" font-family="FG Virgil" font-size="14" lengthAdjust="spacing" textLength="331" x="860.5" y="307.0781">registerNewCustomer(String name, String email,</text><text fill="#000000" font-family="FG Virgil" font-size="14" lengthAdjust="spacing" textLength="335" x="860.5" y="323.5664">String phoneNumber, String address) : Customer</text><ellipse cx="851.5" cy="336.2637" fill="#84BE84" rx="3" ry="3" style="stroke:#038048;stroke-width:1.0;"/><text fill="#000000" font-family="FG Virgil" font-size="14" lengthAdjust="spacing" textLength="209" x="860.5" y="340.0547">getCustomerData() : Customer</text></g><!--class ListUsersController--><g id="elem_ListUsersController"><rect codeLine="78" fill="#F1F1F1" filter="url(#fdu15yaa38wb4)" height="113.9531" id="ListUsersController" rx="2.5" ry="2.5" style="stroke:#181818;stroke-width:0.5;" width="361" x="1236.5" y="233.0547"/><ellipse cx="1347.25" cy="249.0547" fill="#ADD1B2" rx="11" ry="11" style="stroke:#181818;stroke-width:1.0;"/><path d="M1350.2231,254.6978 Q1349.6421,254.9966 1349.0029,255.146 Q1348.3638,255.2954 1347.6582,255.2954 Q1345.1514,255.2954 1343.8315,253.6436 Q1342.5117,251.9917 1342.5117,248.8706 Q1342.5117,245.7412 1343.8315,244.0894 Q1345.1514,242.4375 1347.6582,242.4375 Q1348.3638,242.4375 1349.0112,242.5869 Q1349.6587,242.7363 1350.2231,243.0352 L1350.2231,245.7578 Q1349.5923,245.1768 1348.9988,244.907 Q1348.4053,244.6372 1347.7744,244.6372 Q1346.4297,244.6372 1345.7449,245.7039 Q1345.0601,246.7705 1345.0601,248.8706 Q1345.0601,250.9624 1345.7449,252.0291 Q1346.4297,253.0957 1347.7744,253.0957 Q1348.4053,253.0957 1348.9988,252.8259 Q1349.5923,252.5562 1350.2231,251.9751 Z " fill="#000000"/><text fill="#000000" font-family="FG Virgil" font-size="14" lengthAdjust="spacing" textLength="131" x="1367.75" y="254.3457">ListUsersController</text><line style="stroke:#181818;stroke-width:0.5;" x1="1237.5" x2="1596.5" y1="265.0547" y2="265.0547"/><line style="stroke:#181818;stroke-width:0.5;" x1="1237.5" x2="1596.5" y1="273.0547" y2="273.0547"/><ellipse cx="1247.5" cy="286.7988" fill="#84BE84" rx="3" ry="3" style="stroke:#038048;stroke-width:1.0;"/><text fill="#000000" font-family="FG Virgil" font-size="14" lengthAdjust="spacing" textLength="141" x="1256.5" y="290.5898">ListUsersController()</text><ellipse cx="1247.5" cy="311.5313" fill="#84BE84" rx="3" ry="3" style="stroke:#038048;stroke-width:1.0;"/><text fill="#000000" font-family="FG Virgil" font-size="14" lengthAdjust="spacing" textLength="331" x="1256.5" y="307.0781">registerNewCustomer(String name, String email,</text><text fill="#000000" font-family="FG Virgil" font-size="14" lengthAdjust="spacing" textLength="335" x="1256.5" y="323.5664">String phoneNumber, String address) : Customer</text><ellipse cx="1247.5" cy="336.2637" fill="#84BE84" rx="3" ry="3" style="stroke:#038048;stroke-width:1.0;"/><text fill="#000000" font-family="FG Virgil" font-size="14" lengthAdjust="spacing" textLength="209" x="1256.5" y="340.0547">getCustomerData() : Customer</text></g><!--class SystemUserBuilder--><g id="elem_SystemUserBuilder"><rect codeLine="86" fill="#F1F1F1" filter="url(#fdu15yaa38wb4)" height="245.8594" id="SystemUserBuilder" rx="2.5" ry="2.5" style="stroke:#181818;stroke-width:0.5;" width="426" x="7" y="431.5547"/><ellipse cx="152.25" cy="447.5547" fill="#ADD1B2" rx="11" ry="11" style="stroke:#181818;stroke-width:1.0;"/><path d="M155.2231,453.1978 Q154.6421,453.4966 154.0029,453.646 Q153.3638,453.7954 152.6582,453.7954 Q150.1514,453.7954 148.8315,452.1436 Q147.5117,450.4917 147.5117,447.3706 Q147.5117,444.2412 148.8315,442.5894 Q150.1514,440.9375 152.6582,440.9375 Q153.3638,440.9375 154.0112,441.0869 Q154.6587,441.2363 155.2231,441.5352 L155.2231,444.2578 Q154.5923,443.6768 153.9988,443.407 Q153.4053,443.1372 152.7744,443.1372 Q151.4297,443.1372 150.7449,444.2039 Q150.0601,445.2705 150.0601,447.3706 Q150.0601,449.4624 150.7449,450.5291 Q151.4297,451.5957 152.7744,451.5957 Q153.4053,451.5957 153.9988,451.3259 Q154.5923,451.0562 155.2231,450.4751 Z " fill="#000000"/><text fill="#000000" font-family="FG Virgil" font-size="14" lengthAdjust="spacing" textLength="127" x="172.75" y="452.8457">SystemUserBuilder</text><line style="stroke:#181818;stroke-width:0.5;" x1="8" x2="432" y1="463.5547" y2="463.5547"/><rect fill="none" height="6" style="stroke:#C82930;stroke-width:1.0;" width="6" x="15" y="474.2988"/><text fill="#000000" font-family="FG Virgil" font-size="14" lengthAdjust="spacing" textLength="121" x="27" y="481.0898">username : String</text><rect fill="none" height="6" style="stroke:#C82930;stroke-width:1.0;" width="6" x="15" y="490.7871"/><text fill="#000000" font-family="FG Virgil" font-size="14" lengthAdjust="spacing" textLength="143" x="27" y="497.5781">rawPassword : String</text><rect fill="none" height="6" style="stroke:#C82930;stroke-width:1.0;" width="6" x="15" y="507.2754"/><text fill="#000000" font-family="FG Virgil" font-size="14" lengthAdjust="spacing" textLength="119" x="27" y="514.0664">firstName : String</text><rect fill="none" height="6" style="stroke:#C82930;stroke-width:1.0;" width="6" x="15" y="523.7637"/><text fill="#000000" font-family="FG Virgil" font-size="14" lengthAdjust="spacing" textLength="116" x="27" y="530.5547">lastName : String</text><rect fill="none" height="6" style="stroke:#C82930;stroke-width:1.0;" width="6" x="15" y="540.252"/><text fill="#000000" font-family="FG Virgil" font-size="14" lengthAdjust="spacing" textLength="90" x="27" y="547.043">email : String</text><line style="stroke:#181818;stroke-width:0.5;" x1="8" x2="432" y1="553.9961" y2="553.9961"/><ellipse cx="18" cy="567.7402" fill="#84BE84" rx="3" ry="3" style="stroke:#038048;stroke-width:1.0;"/><text fill="#000000" font-family="FG Virgil" font-size="14" lengthAdjust="spacing" textLength="361" x="27" y="571.5313">withUserName(String username) : SystemUserBuilder</text><ellipse cx="18" cy="584.2285" fill="#84BE84" rx="3" ry="3" style="stroke:#038048;stroke-width:1.0;"/><text fill="#000000" font-family="FG Virgil" font-size="14" lengthAdjust="spacing" textLength="378" x="27" y="588.0195">withPassword(String rawPassword) : SystemUserBuilder</text><ellipse cx="18" cy="600.7168" fill="#84BE84" rx="3" ry="3" style="stroke:#038048;stroke-width:1.0;"/><text fill="#000000" font-family="FG Virgil" font-size="14" lengthAdjust="spacing" textLength="300" x="27" y="604.5078">withName(String name) : SystemUserBuilder</text><ellipse cx="18" cy="617.2051" fill="#84BE84" rx="3" ry="3" style="stroke:#038048;stroke-width:1.0;"/><text fill="#000000" font-family="FG Virgil" font-size="14" lengthAdjust="spacing" textLength="297" x="27" y="620.9961">withEmail(String email) : SystemUserBuilder</text><ellipse cx="18" cy="633.6934" fill="#84BE84" rx="3" ry="3" style="stroke:#038048;stroke-width:1.0;"/><text fill="#000000" font-family="FG Virgil" font-size="14" lengthAdjust="spacing" textLength="400" x="27" y="637.4844">withRoles(final Set&lt;Role&gt; someRoles) : SystemUserBuilder</text><ellipse cx="18" cy="650.1816" fill="#84BE84" rx="3" ry="3" style="stroke:#038048;stroke-width:1.0;"/><text fill="#000000" font-family="FG Virgil" font-size="14" lengthAdjust="spacing" textLength="357" x="27" y="653.9727">createdOn(Calendar createdOn) : SystemUserBuilder</text><ellipse cx="18" cy="666.6699" fill="#84BE84" rx="3" ry="3" style="stroke:#038048;stroke-width:1.0;"/><text fill="#000000" font-family="FG Virgil" font-size="14" lengthAdjust="spacing" textLength="136" x="27" y="670.4609">build() : SystemUser</text></g><!--class UserRepository--><g id="elem_UserRepository"><rect codeLine="105" fill="#F1F1F1" filter="url(#fdu15yaa38wb4)" height="64.4883" id="UserRepository" rx="2.5" ry="2.5" style="stroke:#181818;stroke-width:0.5;" width="294" x="478" y="522.5547"/><ellipse cx="568.75" cy="538.5547" fill="#B4A7E5" rx="11" ry="11" style="stroke:#181818;stroke-width:1.0;"/><path d="M564.6777,534.3198 L564.6777,532.1616 L572.0571,532.1616 L572.0571,534.3198 L569.5918,534.3198 L569.5918,542.3965 L572.0571,542.3965 L572.0571,544.5547 L564.6777,544.5547 L564.6777,542.3965 L567.1431,542.3965 L567.1431,534.3198 Z " fill="#000000"/><text fill="#000000" font-family="FG Virgil" font-size="14" font-style="italic" lengthAdjust="spacing" textLength="104" x="589.25" y="543.8457">UserRepository</text><line style="stroke:#181818;stroke-width:0.5;" x1="479" x2="771" y1="554.5547" y2="554.5547"/><line style="stroke:#181818;stroke-width:0.5;" x1="479" x2="771" y1="562.5547" y2="562.5547"/><text fill="#000000" font-family="FG Virgil" font-size="14" lengthAdjust="spacing" textLength="282" x="484" y="580.0898">findByActive(Boolean active) : SystemUser</text></g><!--class RepositoryFactory--><g id="elem_RepositoryFactory"><rect codeLine="111" fill="#F1F1F1" filter="url(#fdu15yaa38wb4)" height="80.9766" id="RepositoryFactory" rx="2.5" ry="2.5" style="stroke:#181818;stroke-width:0.5;" width="383" x="1821.5" y="59.5547"/><ellipse cx="1947.25" cy="75.5547" fill="#B4A7E5" rx="11" ry="11" style="stroke:#181818;stroke-width:1.0;"/><path d="M1943.1777,71.3198 L1943.1777,69.1616 L1950.5571,69.1616 L1950.5571,71.3198 L1948.0918,71.3198 L1948.0918,79.3965 L1950.5571,79.3965 L1950.5571,81.5547 L1943.1777,81.5547 L1943.1777,79.3965 L1945.6431,79.3965 L1945.6431,71.3198 Z " fill="#000000"/><text fill="#000000" font-family="FG Virgil" font-size="14" font-style="italic" lengthAdjust="spacing" textLength="123" x="1967.75" y="80.8457">RepositoryFactory</text><line style="stroke:#181818;stroke-width:0.5;" x1="1822.5" x2="2203.5" y1="91.5547" y2="91.5547"/><line style="stroke:#181818;stroke-width:0.5;" x1="1822.5" x2="2203.5" y1="99.5547" y2="99.5547"/><text fill="#000000" font-family="FG Virgil" font-size="14" lengthAdjust="spacing" textLength="163" x="1827.5" y="117.0898">users() : UserRepository</text><text fill="#000000" font-family="FG Virgil" font-size="14" lengthAdjust="spacing" textLength="371" x="1827.5" y="133.5781">userss(TransactionalContext autoTx) : UserRepository</text></g><!--class UserJpaRepository--><g id="elem_UserJpaRepository"><rect codeLine="119" fill="#F1F1F1" filter="url(#fdu15yaa38wb4)" height="64.4883" id="UserJpaRepository" rx="2.5" ry="2.5" style="stroke:#181818;stroke-width:0.5;" width="308" x="471" y="737.5547"/><ellipse cx="558.25" cy="753.5547" fill="#ADD1B2" rx="11" ry="11" style="stroke:#181818;stroke-width:1.0;"/><path d="M561.2231,759.1978 Q560.6421,759.4966 560.0029,759.646 Q559.3638,759.7954 558.6582,759.7954 Q556.1514,759.7954 554.8315,758.1436 Q553.5117,756.4917 553.5117,753.3706 Q553.5117,750.2412 554.8315,748.5894 Q556.1514,746.9375 558.6582,746.9375 Q559.3638,746.9375 560.0112,747.0869 Q560.6587,747.2363 561.2231,747.5352 L561.2231,750.2578 Q560.5923,749.6768 559.9988,749.407 Q559.4053,749.1372 558.7744,749.1372 Q557.4297,749.1372 556.7449,750.2039 Q556.0601,751.2705 556.0601,753.3706 Q556.0601,755.4624 556.7449,756.5291 Q557.4297,757.5957 558.7744,757.5957 Q559.4053,757.5957 559.9988,757.3259 Q560.5923,757.0562 561.2231,756.4751 Z " fill="#000000"/><text fill="#000000" font-family="FG Virgil" font-size="14" lengthAdjust="spacing" textLength="125" x="578.75" y="758.8457">UserJpaRepository</text><line style="stroke:#181818;stroke-width:0.5;" x1="472" x2="778" y1="769.5547" y2="769.5547"/><line style="stroke:#181818;stroke-width:0.5;" x1="472" x2="778" y1="777.5547" y2="777.5547"/><ellipse cx="482" cy="791.2988" fill="#84BE84" rx="3" ry="3" style="stroke:#038048;stroke-width:1.0;"/><text fill="#000000" font-family="FG Virgil" font-size="14" lengthAdjust="spacing" textLength="282" x="491" y="795.0898">findByActive(Boolean active) : SystemUser</text></g><!--class InMemoryRepositoryFactory--><g id="elem_InMemoryRepositoryFactory"><rect codeLine="126" fill="#F1F1F1" filter="url(#fdu15yaa38wb4)" height="80.9766" id="InMemoryRepositoryFactory" rx="2.5" ry="2.5" style="stroke:#181818;stroke-width:0.5;" width="355" x="1632.5" y="249.5547"/><ellipse cx="1710.25" cy="265.5547" fill="#ADD1B2" rx="11" ry="11" style="stroke:#181818;stroke-width:1.0;"/><path d="M1713.2231,271.1978 Q1712.6421,271.4966 1712.0029,271.646 Q1711.3638,271.7954 1710.6582,271.7954 Q1708.1514,271.7954 1706.8315,270.1436 Q1705.5117,268.4917 1705.5117,265.3706 Q1705.5117,262.2412 1706.8315,260.5894 Q1708.1514,258.9375 1710.6582,258.9375 Q1711.3638,258.9375 1712.0112,259.0869 Q1712.6587,259.2363 1713.2231,259.5352 L1713.2231,262.2578 Q1712.5923,261.6768 1711.9988,261.407 Q1711.4053,261.1372 1710.7744,261.1372 Q1709.4297,261.1372 1708.7449,262.2039 Q1708.0601,263.2705 1708.0601,265.3706 Q1708.0601,267.4624 1708.7449,268.5291 Q1709.4297,269.5957 1710.7744,269.5957 Q1711.4053,269.5957 1711.9988,269.3259 Q1712.5923,269.0562 1713.2231,268.4751 Z " fill="#000000"/><text fill="#000000" font-family="FG Virgil" font-size="14" lengthAdjust="spacing" textLength="191" x="1730.75" y="270.8457">InMemoryRepositoryFactory</text><line style="stroke:#181818;stroke-width:0.5;" x1="1633.5" x2="1986.5" y1="281.5547" y2="281.5547"/><line style="stroke:#181818;stroke-width:0.5;" x1="1633.5" x2="1986.5" y1="289.5547" y2="289.5547"/><ellipse cx="1643.5" cy="303.2988" fill="#84BE84" rx="3" ry="3" style="stroke:#038048;stroke-width:1.0;"/><text fill="#000000" font-family="FG Virgil" font-size="14" lengthAdjust="spacing" textLength="170" x="1652.5" y="307.0898">userss() : UserRepository</text><ellipse cx="1643.5" cy="319.7871" fill="#84BE84" rx="3" ry="3" style="stroke:#038048;stroke-width:1.0;"/><text fill="#000000" font-family="FG Virgil" font-size="14" lengthAdjust="spacing" textLength="329" x="1652.5" y="323.5781">users(TransactionalContext tx) : UserRepository</text></g><!--class JpaRepositoryFactory--><g id="elem_JpaRepositoryFactory"><rect codeLine="135" fill="#F1F1F1" filter="url(#fdu15yaa38wb4)" height="80.9766" id="JpaRepositoryFactory" rx="2.5" ry="2.5" style="stroke:#181818;stroke-width:0.5;" width="386" x="2023" y="249.5547"/><ellipse cx="2139.75" cy="265.5547" fill="#ADD1B2" rx="11" ry="11" style="stroke:#181818;stroke-width:1.0;"/><path d="M2142.7231,271.1978 Q2142.1421,271.4966 2141.5029,271.646 Q2140.8638,271.7954 2140.1582,271.7954 Q2137.6514,271.7954 2136.3315,270.1436 Q2135.0117,268.4917 2135.0117,265.3706 Q2135.0117,262.2412 2136.3315,260.5894 Q2137.6514,258.9375 2140.1582,258.9375 Q2140.8638,258.9375 2141.5112,259.0869 Q2142.1587,259.2363 2142.7231,259.5352 L2142.7231,262.2578 Q2142.0923,261.6768 2141.4988,261.407 Q2140.9053,261.1372 2140.2744,261.1372 Q2138.9297,261.1372 2138.2449,262.2039 Q2137.5601,263.2705 2137.5601,265.3706 Q2137.5601,267.4624 2138.2449,268.5291 Q2138.9297,269.5957 2140.2744,269.5957 Q2140.9053,269.5957 2141.4988,269.3259 Q2142.0923,269.0562 2142.7231,268.4751 Z " fill="#000000"/><text fill="#000000" font-family="FG Virgil" font-size="14" lengthAdjust="spacing" textLength="144" x="2160.25" y="270.8457">JpaRepositoryFactory</text><line style="stroke:#181818;stroke-width:0.5;" x1="2024" x2="2408" y1="281.5547" y2="281.5547"/><line style="stroke:#181818;stroke-width:0.5;" x1="2024" x2="2408" y1="289.5547" y2="289.5547"/><ellipse cx="2034" cy="303.2988" fill="#84BE84" rx="3" ry="3" style="stroke:#038048;stroke-width:1.0;"/><text fill="#000000" font-family="FG Virgil" font-size="14" lengthAdjust="spacing" textLength="163" x="2043" y="307.0898">users() : UserRepository</text><ellipse cx="2034" cy="319.7871" fill="#84BE84" rx="3" ry="3" style="stroke:#038048;stroke-width:1.0;"/><text fill="#000000" font-family="FG Virgil" font-size="14" lengthAdjust="spacing" textLength="360" x="2043" y="323.5781">users(TransactionalContext autoTx) :UserRepository</text></g><!--link AddUserUI to AddUserController--><g id="link_AddUserUI_AddUserController"><path codeLine="143" d="M220,148.9847 C220,167.0447 220,182.1147 220,202.3447 " fill="none" id="AddUserUI-to-AddUserController" style="stroke:#181818;stroke-width:1.0;"/><polygon fill="#181818" points="220,208.3447,224,199.3447,220,203.3447,216,199.3447,220,208.3447" style="stroke:#181818;stroke-width:1.0;"/></g><!--link ListUsersUI to ListUsersController--><g id="link_ListUsersUI_ListUsersController"><path codeLine="144" d="M1417,148.9847 C1417,174.5447 1417,200.1547 1417,226.8647 " fill="none" id="ListUsersUI-to-ListUsersController" style="stroke:#181818;stroke-width:1.0;"/><polygon fill="#181818" points="1417,232.8647,1421,223.8647,1417,227.8647,1413,223.8647,1417,232.8647" style="stroke:#181818;stroke-width:1.0;"/></g><!--link ActivateUserUI to ActivateUserController--><g id="link_ActivateUserUI_ActivateUserController"><path codeLine="145" d="M625,148.9847 C625,174.5447 625,200.1547 625,226.8647 " fill="none" id="ActivateUserUI-to-ActivateUserController" style="stroke:#181818;stroke-width:1.0;"/><polygon fill="#181818" points="625,232.8647,629,223.8647,625,227.8647,621,223.8647,625,232.8647" style="stroke:#181818;stroke-width:1.0;"/></g><!--link DeactivateUserUI to DeactivateUserController--><g id="link_DeactivateUserUI_DeactivateUserController"><path codeLine="146" d="M1021,148.9847 C1021,174.5447 1021,200.1547 1021,226.8647 " fill="none" id="DeactivateUserUI-to-DeactivateUserController" style="stroke:#181818;stroke-width:1.0;"/><polygon fill="#181818" points="1021,232.8647,1025,223.8647,1021,227.8647,1017,223.8647,1021,232.8647" style="stroke:#181818;stroke-width:1.0;"/></g><!--link AddUserController to SystemUserBuilder--><g id="link_AddUserController_SystemUserBuilder"><path codeLine="149" d="M220,371.9547 C220,390.7847 220,405.2447 220,425.4147 " fill="none" id="AddUserController-to-SystemUserBuilder" style="stroke:#181818;stroke-width:1.0;"/><polygon fill="#181818" points="220,431.4147,224,422.4147,220,426.4147,216,422.4147,220,431.4147" style="stroke:#181818;stroke-width:1.0;"/></g><!--link AddUserController to UserRepository--><g id="link_AddUserController_UserRepository"><path codeLine="150" d="M355.55,371.9847 C386.79,391.1547 419.74,411.7847 450,431.5547 C495.58,461.3247 541.6384,493.6462 576.7484,518.7362 " fill="none" id="AddUserController-to-UserRepository" style="stroke:#181818;stroke-width:1.0;"/><polygon fill="#181818" points="581.63,522.2247,576.6332,513.7375,577.562,519.3176,571.9819,520.2464,581.63,522.2247" style="stroke:#181818;stroke-width:1.0;"/></g><!--reverse link RepositoryFactory to JpaRepositoryFactory--><g id="link_RepositoryFactory_JpaRepositoryFactory"><path codeLine="151" d="M2069.2573,153.1544 C2103.7073,185.0544 2138.58,217.3547 2173.01,249.2447 " fill="none" id="RepositoryFactory-backto-JpaRepositoryFactory" style="stroke:#181818;stroke-width:1.0;stroke-dasharray:7.0,7.0;"/><polygon fill="none" points="2056.05,140.9247,2065.1808,157.5569,2073.3339,148.752,2056.05,140.9247" style="stroke:#181818;stroke-width:1.0;"/></g><!--reverse link RepositoryFactory to InMemoryRepositoryFactory--><g id="link_RepositoryFactory_InMemoryRepositoryFactory"><path codeLine="152" d="M1956.7427,153.1544 C1922.2927,185.0544 1887.42,217.3547 1852.99,249.2447 " fill="none" id="RepositoryFactory-backto-InMemoryRepositoryFactory" style="stroke:#181818;stroke-width:1.0;stroke-dasharray:7.0,7.0;"/><polygon fill="none" points="1969.95,140.9247,1952.6661,148.752,1960.8192,157.5569,1969.95,140.9247" style="stroke:#181818;stroke-width:1.0;"/></g><!--link ActivateUserController to UserRepository--><g id="link_ActivateUserController_UserRepository"><path codeLine="154" d="M625,347.3647 C625,400.8447 625,473.2847 625,516.3647 " fill="none" id="ActivateUserController-to-UserRepository" style="stroke:#181818;stroke-width:1.0;"/><polygon fill="#181818" points="625,522.3647,629,513.3647,625,517.3647,621,513.3647,625,522.3647" style="stroke:#181818;stroke-width:1.0;"/></g><!--link DeactivateUserController to UserRepository--><g id="link_DeactivateUserController_UserRepository"><path codeLine="155" d="M936.05,347.3647 C855.48,400.7747 742.371,475.7496 677.321,518.8696 " fill="none" id="DeactivateUserController-to-UserRepository" style="stroke:#181818;stroke-width:1.0;"/><polygon fill="#181818" points="672.32,522.1847,682.0316,520.5461,676.4875,519.4221,677.6115,513.8781,672.32,522.1847" style="stroke:#181818;stroke-width:1.0;"/></g><!--reverse link UserRepository to UserJpaRepository--><g id="link_UserRepository_UserJpaRepository"><path codeLine="157" d="M625,604.9847 C625,645.3747 625,697.0647 625,737.3447 " fill="none" id="UserRepository-backto-UserJpaRepository" style="stroke:#181818;stroke-width:1.0;stroke-dasharray:7.0,7.0;"/><polygon fill="none" points="625,586.9847,619,604.9847,631,604.9847,625,586.9847" style="stroke:#181818;stroke-width:1.0;"/></g><!--SRC=[pLPRRzem57xthx2q1rBHChR72Y65IwjKD202aoPDGYuvWDNW8DiPPLl_- -oGUvokcogjF0MVs_ST-pksf380t1Fq1rn_xlQ70H42ZoZPShB7Imz_wdQxlO_Qt4S8YKVA3aIRzY4BrpiUxW5lI22WO3gGzIFPWYTFAZE7jIpOVDYGA90t8PCkKR4tj_WBvLiQ57p4ZlZXaR8jbZm2XDOn9jltbmBuqi4_4SBnhvqlMXV9sWViXzukF5eN-1e_X640X6NkEo1-G1d4HazoLGCzfmKcL4YTJ9HB59RVeCW8o5hIxqH2dKpLzWRbxCPYzjkLGgrpiNj2sJsmI9LfePOEkSBpyQtZBSRprN3fBQRtwcCwMpXJLoMWJAPU8yURJUolgzbuxarTUx8QsGjxDRJTaQE-niQOYSgxicUpYJEqjTLRtKq7odFiEkvjsJK3qU3HwdGwAUIsgG6jPlv9YOU81dxQWDYkFqhMOIIaaWk_9qofWtiWfKeW3055JC-LypzKok5X401FTxEDjo3d2kZYT02Hx6GRaxE_TSQ98_NDbE8k4-1AfK8SG-vVucyiMTfGBc9PPawgSda1zeG6SGZ8dYxQnmeDY4iy904mdt2yvg3EbJzbSPTEGi9U0_ali2eGa5aPffwQxLbtEMpLN03kmZ7TrvGICmDBwEr21cwqVm2U-QYMS10nrZHNlh7foeX8OfLS6cQAYKoJnxkaamrS4nE3yPsHI5ZafswWnPzpE4-4zDpdWoItSNAS9IemcJCvc8ofCaosc7TkoE6qyP7AdSQgGwlIB6ieOLE9JV6ciGKAhmalbdrjoR5cOnMtz3LHUZO8QqCP2N0-AuJQl7bzNjHJPBFD-jEugyV6bu1LdKZgn3XC7TeDMGFMItCuX8BAa9_I4wFG-eDJF9306fol91mB6bxCbcUwKTw5X7fdHOoaN30t2cl12HEwIAXQfSK6JnAJI8QBfuR0-CRAPQmzxWwaJgVz5uIqdf9yZhfQzofD8wjs2hq1Ns8tCvCliYh0A54o8_Wd05bhN-fi_WQ-kkhNNmIe-8JL7ePfYIfFmZYHyN90jRUgzcswIb26hZ2sTK1T4cQ_2kzwatk_EXrZ-vjy6qyCGWstlm57u-Lgy4Nb_p68cWnKetu3]--></g></svg>