<?xml version="1.0" encoding="us-ascii" standalone="no"?><svg xmlns="http://www.w3.org/2000/svg" xmlns:xlink="http://www.w3.org/1999/xlink" contentStyleType="text/css" height="485px" preserveAspectRatio="none" style="width:1192px;height:485px;background:#FFFFFF;" version="1.1" viewBox="0 0 1192 485" width="1192px" zoomAndPan="magnify"><defs/><g><text fill="#000000" font-family="sans-serif" font-size="14" font-weight="bold" lengthAdjust="spacing" textLength="444" x="373.25" y="28.5352">Alternative_Solution_Diagram_US3000_ListApplicationsEmpty</text><rect fill="#FFFFFF" height="266.1055" style="stroke:#181818;stroke-width:1.0;" width="10" x="38" y="128.9766"/><rect fill="#FFFFFF" height="205.1738" style="stroke:#181818;stroke-width:1.0;" width="10" x="305" y="180.9082"/><rect fill="#FFFFFF" height="146.5527" style="stroke:#181818;stroke-width:1.0;" width="10" x="544" y="210.2188"/><rect fill="#FFFFFF" height="87.9316" style="stroke:#181818;stroke-width:1.0;" width="10" x="817" y="239.5293"/><rect fill="#FFFFFF" height="29.3105" style="stroke:#181818;stroke-width:1.0;" width="10" x="1086" y="268.8398"/><line style="stroke:#181818;stroke-width:0.5;stroke-dasharray:5.0,5.0;" x1="43" x2="43" y1="118.9766" y2="404.082"/><line style="stroke:#181818;stroke-width:0.5;stroke-dasharray:5.0,5.0;" x1="309.5" x2="309.5" y1="118.9766" y2="404.082"/><line style="stroke:#181818;stroke-width:0.5;stroke-dasharray:5.0,5.0;" x1="548.5" x2="548.5" y1="118.9766" y2="404.082"/><line style="stroke:#181818;stroke-width:0.5;stroke-dasharray:5.0,5.0;" x1="821.5" x2="821.5" y1="118.9766" y2="404.082"/><line style="stroke:#181818;stroke-width:0.5;stroke-dasharray:5.0,5.0;" x1="1090.5" x2="1090.5" y1="118.9766" y2="404.082"/><text fill="#000000" font-family="sans-serif" font-size="14" lengthAdjust="spacing" textLength="70" x="5" y="116.0234">Candidate</text><ellipse cx="43" cy="50.9883" fill="#ADD8E6" rx="8" ry="8" style="stroke:#181818;stroke-width:0.5;"/><path d="M43,58.9883 L43,85.9883 M30,66.9883 L56,66.9883 M43,85.9883 L30,100.9883 M43,85.9883 L56,100.9883 " fill="none" style="stroke:#181818;stroke-width:0.5;"/><text fill="#000000" font-family="sans-serif" font-size="14" lengthAdjust="spacing" textLength="70" x="5" y="416.6172">Candidate</text><ellipse cx="43" cy="428.0703" fill="#ADD8E6" rx="8" ry="8" style="stroke:#181818;stroke-width:0.5;"/><path d="M43,436.0703 L43,463.0703 M30,444.0703 L56,444.0703 M43,463.0703 L30,478.0703 M43,463.0703 L56,478.0703 " fill="none" style="stroke:#181818;stroke-width:0.5;"/><rect fill="#E2E2F0" height="46.9766" rx="2.5" ry="2.5" style="stroke:#181818;stroke-width:0.5;" width="233" x="193.5" y="71"/><text fill="#000000" font-family="sans-serif" font-size="14" font-style="italic" lengthAdjust="spacing" textLength="101" x="259.5" y="91.5352">&#171;presentation&#187;</text><text fill="#000000" font-family="sans-serif" font-size="14" lengthAdjust="spacing" textLength="219" x="200.5" y="108.0234">:ListApplicationsForCandidateUI</text><rect fill="#E2E2F0" height="46.9766" rx="2.5" ry="2.5" style="stroke:#181818;stroke-width:0.5;" width="233" x="193.5" y="403.082"/><text fill="#000000" font-family="sans-serif" font-size="14" font-style="italic" lengthAdjust="spacing" textLength="101" x="259.5" y="423.6172">&#171;presentation&#187;</text><text fill="#000000" font-family="sans-serif" font-size="14" lengthAdjust="spacing" textLength="219" x="200.5" y="440.1055">:ListApplicationsForCandidateUI</text><rect fill="#E2E2F0" height="46.9766" rx="2.5" ry="2.5" style="stroke:#181818;stroke-width:0.5;" width="211" x="443.5" y="71"/><text fill="#000000" font-family="sans-serif" font-size="14" font-style="italic" lengthAdjust="spacing" textLength="90" x="504" y="91.5352">&#171;application&#187;</text><text fill="#000000" font-family="sans-serif" font-size="14" lengthAdjust="spacing" textLength="197" x="450.5" y="108.0234">:ListJobApplicationController</text><rect fill="#E2E2F0" height="46.9766" rx="2.5" ry="2.5" style="stroke:#181818;stroke-width:0.5;" width="211" x="443.5" y="403.082"/><text fill="#000000" font-family="sans-serif" font-size="14" font-style="italic" lengthAdjust="spacing" textLength="90" x="504" y="423.6172">&#171;application&#187;</text><text fill="#000000" font-family="sans-serif" font-size="14" lengthAdjust="spacing" textLength="197" x="450.5" y="440.1055">:ListJobApplicationController</text><rect fill="#E2E2F0" height="46.9766" rx="2.5" ry="2.5" style="stroke:#181818;stroke-width:0.5;" width="189" x="727.5" y="71"/><text fill="#000000" font-family="sans-serif" font-size="14" font-style="italic" lengthAdjust="spacing" textLength="61" x="791.5" y="91.5352">&#171;service&#187;</text><text fill="#000000" font-family="sans-serif" font-size="14" lengthAdjust="spacing" textLength="175" x="734.5" y="108.0234">:ListJobApplicationService</text><rect fill="#E2E2F0" height="46.9766" rx="2.5" ry="2.5" style="stroke:#181818;stroke-width:0.5;" width="189" x="727.5" y="403.082"/><text fill="#000000" font-family="sans-serif" font-size="14" font-style="italic" lengthAdjust="spacing" textLength="61" x="791.5" y="423.6172">&#171;service&#187;</text><text fill="#000000" font-family="sans-serif" font-size="14" lengthAdjust="spacing" textLength="175" x="734.5" y="440.1055">:ListJobApplicationService</text><rect fill="#E2E2F0" height="46.9766" rx="2.5" ry="2.5" style="stroke:#181818;stroke-width:0.5;" width="191" x="995.5" y="71"/><text fill="#000000" font-family="sans-serif" font-size="14" font-style="italic" lengthAdjust="spacing" textLength="84" x="1049" y="91.5352">&#171;repository&#187;</text><text fill="#000000" font-family="sans-serif" font-size="14" lengthAdjust="spacing" textLength="177" x="1002.5" y="108.0234">:JobApplicationRepository</text><rect fill="#E2E2F0" height="46.9766" rx="2.5" ry="2.5" style="stroke:#181818;stroke-width:0.5;" width="191" x="995.5" y="403.082"/><text fill="#000000" font-family="sans-serif" font-size="14" font-style="italic" lengthAdjust="spacing" textLength="84" x="1049" y="423.6172">&#171;repository&#187;</text><text fill="#000000" font-family="sans-serif" font-size="14" lengthAdjust="spacing" textLength="177" x="1002.5" y="440.1055">:JobApplicationRepository</text><rect fill="#FFFFFF" height="266.1055" style="stroke:#181818;stroke-width:1.0;" width="10" x="38" y="128.9766"/><rect fill="#FFFFFF" height="205.1738" style="stroke:#181818;stroke-width:1.0;" width="10" x="305" y="180.9082"/><rect fill="#FFFFFF" height="146.5527" style="stroke:#181818;stroke-width:1.0;" width="10" x="544" y="210.2188"/><rect fill="#FFFFFF" height="87.9316" style="stroke:#181818;stroke-width:1.0;" width="10" x="817" y="239.5293"/><rect fill="#FFFFFF" height="29.3105" style="stroke:#181818;stroke-width:1.0;" width="10" x="1086" y="268.8398"/><polygon fill="#181818" points="293,176.9082,303,180.9082,293,184.9082,297,180.9082" style="stroke:#181818;stroke-width:1.0;"/><line style="stroke:#181818;stroke-width:1.0;" x1="48" x2="299" y1="180.9082" y2="180.9082"/><text fill="#000000" font-family="sans-serif" font-size="13" lengthAdjust="spacing" textLength="221" x="55" y="145.5449">Requests to list all his applications</text><text fill="#000000" font-family="sans-serif" font-size="13" lengthAdjust="spacing" textLength="234" x="55" y="160.8555">and their state (including the number</text><text fill="#000000" font-family="sans-serif" font-size="13" lengthAdjust="spacing" textLength="86" x="55" y="176.166">of applicants)</text><polygon fill="#181818" points="532,206.2188,542,210.2188,532,214.2188,536,210.2188" style="stroke:#181818;stroke-width:1.0;"/><line style="stroke:#181818;stroke-width:1.0;" x1="315" x2="538" y1="210.2188" y2="210.2188"/><text fill="#000000" font-family="sans-serif" font-size="13" lengthAdjust="spacing" textLength="210" x="322" y="205.4766">listJobApplicationsForCandidate()</text><polygon fill="#181818" points="805,235.5293,815,239.5293,805,243.5293,809,239.5293" style="stroke:#181818;stroke-width:1.0;"/><line style="stroke:#181818;stroke-width:1.0;" x1="554" x2="811" y1="239.5293" y2="239.5293"/><text fill="#000000" font-family="sans-serif" font-size="13" lengthAdjust="spacing" textLength="244" x="561" y="234.7871">listJobApplicationsForCandidate(email)</text><polygon fill="#181818" points="1074,264.8398,1084,268.8398,1074,272.8398,1078,268.8398" style="stroke:#181818;stroke-width:1.0;"/><line style="stroke:#181818;stroke-width:1.0;" x1="827" x2="1080" y1="268.8398" y2="268.8398"/><text fill="#000000" font-family="sans-serif" font-size="13" lengthAdjust="spacing" textLength="240" x="834" y="264.0977">findByCandidateEmail(email.toString())</text><polygon fill="#181818" points="838,294.1504,828,298.1504,838,302.1504,834,298.1504" style="stroke:#181818;stroke-width:1.0;"/><line style="stroke:#181818;stroke-width:1.0;stroke-dasharray:2.0,2.0;" x1="832" x2="1090" y1="298.1504" y2="298.1504"/><text fill="#000000" font-family="sans-serif" font-size="13" lengthAdjust="spacing" textLength="135" x="844" y="293.4082">List&lt;JobApplication&gt;</text><polygon fill="#181818" points="565,323.4609,555,327.4609,565,331.4609,561,327.4609" style="stroke:#181818;stroke-width:1.0;"/><line style="stroke:#181818;stroke-width:1.0;stroke-dasharray:2.0,2.0;" x1="559" x2="821" y1="327.4609" y2="327.4609"/><text fill="#000000" font-family="sans-serif" font-size="13" lengthAdjust="spacing" textLength="63" x="571" y="322.7188">empty list</text><polygon fill="#181818" points="326,352.7715,316,356.7715,326,360.7715,322,356.7715" style="stroke:#181818;stroke-width:1.0;"/><line style="stroke:#181818;stroke-width:1.0;stroke-dasharray:2.0,2.0;" x1="320" x2="548" y1="356.7715" y2="356.7715"/><text fill="#000000" font-family="sans-serif" font-size="13" lengthAdjust="spacing" textLength="63" x="332" y="352.0293">empty list</text><polygon fill="#181818" points="59,382.082,49,386.082,59,390.082,55,386.082" style="stroke:#181818;stroke-width:1.0;"/><line style="stroke:#181818;stroke-width:1.0;stroke-dasharray:2.0,2.0;" x1="53" x2="309" y1="386.082" y2="386.082"/><text fill="#000000" font-family="sans-serif" font-size="13" lengthAdjust="spacing" textLength="147" x="65" y="381.3398">Displays error message</text><!--SRC=[ZPB1QW8n48Rl-nH3Uz63HUXj4S6gXPQU56-2nDrH1xB9DfaLVFjEegvPszBUaco-VpBVB1DhX8bcT4On7N6pjBfXicOp8xLtgjgibi_3uN3pGPudTQsfKE6pdrSrdx9C5MmTJ9KfgLICe3oSZnurxG-yrGrcjN9C1TNAC3pazq6lrhNuwkqX93G4er7jqAFXU6ay_Y7atMwJdAarxApMw694qMubIjsk_IDfYUv81SOOVrvBncNrZU-o2woj9-d_574dMs5TUofuK4R7w2g8kXWSZ4FNEIpmiq7F7jY2bgU1qXeE95OJPR0sOWpuWEJ0SyZgaIbqKvBPXsCmJRMLrjV6xgwaOT-_rMueatfIzIOgZmMx_NIcqqlu6vObgYNlukdlCAmKwIJn0cPNvP8LlEMm8rE-d5fm7hWp_SHsoKvwxlMJe41bqVmWVKyOzAZxe75MOXThYz-PmV2tnvPIvFhar40Sv6z0OYtObxjn-ZdCoDTQdJoWS_8tLEYzscEAoi2-0000]--></g></svg>