<?xml version="1.0" encoding="us-ascii" standalone="no"?><svg xmlns="http://www.w3.org/2000/svg" xmlns:xlink="http://www.w3.org/1999/xlink" contentStyleType="text/css" height="793px" preserveAspectRatio="none" style="width:1851px;height:793px;background:#FFFFFF;" version="1.1" viewBox="0 0 1851 793" width="1851px" zoomAndPan="magnify"><defs/><g><text fill="#000000" font-family="sans-serif" font-size="14" font-weight="bold" lengthAdjust="spacing" textLength="444" x="705.25" y="28.5352">Alternative_Solution_Diagram_US3000_ListApplicationsEmpty</text><rect fill="#FFFFFF" height="574.2109" style="stroke:#181818;stroke-width:1.0;" width="10" x="38" y="128.9766"/><rect fill="#FFFFFF" height="513.2793" style="stroke:#181818;stroke-width:1.0;" width="10" x="305" y="180.9082"/><rect fill="#FFFFFF" height="454.6582" style="stroke:#181818;stroke-width:1.0;" width="10" x="544" y="210.2188"/><rect fill="#FFFFFF" height="396.0371" style="stroke:#181818;stroke-width:1.0;" width="10" x="817" y="239.5293"/><rect fill="#FFFFFF" height="29.3105" style="stroke:#181818;stroke-width:1.0;" width="10" x="1128" y="268.8398"/><rect fill="#FFFFFF" height="29.3105" style="stroke:#181818;stroke-width:1.0;" width="10" x="1292.5" y="394.082"/><rect fill="#FFFFFF" height="29.3105" style="stroke:#181818;stroke-width:1.0;" width="10" x="1435.5" y="452.7031"/><rect fill="#FFFFFF" height="29.3105" style="stroke:#181818;stroke-width:1.0;" width="10" x="1584" y="511.3242"/><rect fill="#FFFFFF" height="29.3105" style="stroke:#181818;stroke-width:1.0;" width="10" x="1744.5" y="569.9453"/><rect fill="none" height="251.7949" style="stroke:#000000;stroke-width:1.5;" width="1128" x="717.5" y="355.4609"/><line style="stroke:#181818;stroke-width:0.5;stroke-dasharray:5.0,5.0;" x1="43" x2="43" y1="118.9766" y2="712.1875"/><line style="stroke:#181818;stroke-width:0.5;stroke-dasharray:5.0,5.0;" x1="309.5" x2="309.5" y1="118.9766" y2="712.1875"/><line style="stroke:#181818;stroke-width:0.5;stroke-dasharray:5.0,5.0;" x1="548.5" x2="548.5" y1="118.9766" y2="712.1875"/><line style="stroke:#181818;stroke-width:0.5;stroke-dasharray:5.0,5.0;" x1="821.5" x2="821.5" y1="118.9766" y2="712.1875"/><line style="stroke:#181818;stroke-width:0.5;stroke-dasharray:5.0,5.0;" x1="1132.5" x2="1132.5" y1="118.9766" y2="712.1875"/><line style="stroke:#181818;stroke-width:0.5;stroke-dasharray:5.0,5.0;" x1="1297.5" x2="1297.5" y1="118.9766" y2="712.1875"/><line style="stroke:#181818;stroke-width:0.5;stroke-dasharray:5.0,5.0;" x1="1440.5" x2="1440.5" y1="118.9766" y2="712.1875"/><line style="stroke:#181818;stroke-width:0.5;stroke-dasharray:5.0,5.0;" x1="1588.5" x2="1588.5" y1="118.9766" y2="712.1875"/><line style="stroke:#181818;stroke-width:0.5;stroke-dasharray:5.0,5.0;" x1="1749.5" x2="1749.5" y1="118.9766" y2="712.1875"/><text fill="#000000" font-family="sans-serif" font-size="14" lengthAdjust="spacing" textLength="70" x="5" y="116.0234">Candidate</text><ellipse cx="43" cy="50.9883" fill="#ADD8E6" rx="8" ry="8" style="stroke:#181818;stroke-width:0.5;"/><path d="M43,58.9883 L43,85.9883 M30,66.9883 L56,66.9883 M43,85.9883 L30,100.9883 M43,85.9883 L56,100.9883 " fill="none" style="stroke:#181818;stroke-width:0.5;"/><text fill="#000000" font-family="sans-serif" font-size="14" lengthAdjust="spacing" textLength="70" x="5" y="724.7227">Candidate</text><ellipse cx="43" cy="736.1758" fill="#ADD8E6" rx="8" ry="8" style="stroke:#181818;stroke-width:0.5;"/><path d="M43,744.1758 L43,771.1758 M30,752.1758 L56,752.1758 M43,771.1758 L30,786.1758 M43,771.1758 L56,786.1758 " fill="none" style="stroke:#181818;stroke-width:0.5;"/><rect fill="#E2E2F0" height="46.9766" rx="2.5" ry="2.5" style="stroke:#181818;stroke-width:0.5;" width="233" x="193.5" y="71"/><text fill="#000000" font-family="sans-serif" font-size="14" font-style="italic" lengthAdjust="spacing" textLength="101" x="259.5" y="91.5352">&#171;presentation&#187;</text><text fill="#000000" font-family="sans-serif" font-size="14" lengthAdjust="spacing" textLength="219" x="200.5" y="108.0234">:ListApplicationsForCandidateUI</text><rect fill="#E2E2F0" height="46.9766" rx="2.5" ry="2.5" style="stroke:#181818;stroke-width:0.5;" width="233" x="193.5" y="711.1875"/><text fill="#000000" font-family="sans-serif" font-size="14" font-style="italic" lengthAdjust="spacing" textLength="101" x="259.5" y="731.7227">&#171;presentation&#187;</text><text fill="#000000" font-family="sans-serif" font-size="14" lengthAdjust="spacing" textLength="219" x="200.5" y="748.2109">:ListApplicationsForCandidateUI</text><rect fill="#E2E2F0" height="46.9766" rx="2.5" ry="2.5" style="stroke:#181818;stroke-width:0.5;" width="211" x="443.5" y="71"/><text fill="#000000" font-family="sans-serif" font-size="14" font-style="italic" lengthAdjust="spacing" textLength="90" x="504" y="91.5352">&#171;application&#187;</text><text fill="#000000" font-family="sans-serif" font-size="14" lengthAdjust="spacing" textLength="197" x="450.5" y="108.0234">:ListJobApplicationController</text><rect fill="#E2E2F0" height="46.9766" rx="2.5" ry="2.5" style="stroke:#181818;stroke-width:0.5;" width="211" x="443.5" y="711.1875"/><text fill="#000000" font-family="sans-serif" font-size="14" font-style="italic" lengthAdjust="spacing" textLength="90" x="504" y="731.7227">&#171;application&#187;</text><text fill="#000000" font-family="sans-serif" font-size="14" lengthAdjust="spacing" textLength="197" x="450.5" y="748.2109">:ListJobApplicationController</text><rect fill="#E2E2F0" height="46.9766" rx="2.5" ry="2.5" style="stroke:#181818;stroke-width:0.5;" width="189" x="727.5" y="71"/><text fill="#000000" font-family="sans-serif" font-size="14" font-style="italic" lengthAdjust="spacing" textLength="61" x="791.5" y="91.5352">&#171;service&#187;</text><text fill="#000000" font-family="sans-serif" font-size="14" lengthAdjust="spacing" textLength="175" x="734.5" y="108.0234">:ListJobApplicationService</text><rect fill="#E2E2F0" height="46.9766" rx="2.5" ry="2.5" style="stroke:#181818;stroke-width:0.5;" width="189" x="727.5" y="711.1875"/><text fill="#000000" font-family="sans-serif" font-size="14" font-style="italic" lengthAdjust="spacing" textLength="61" x="791.5" y="731.7227">&#171;service&#187;</text><text fill="#000000" font-family="sans-serif" font-size="14" lengthAdjust="spacing" textLength="175" x="734.5" y="748.2109">:ListJobApplicationService</text><rect fill="#E2E2F0" height="46.9766" rx="2.5" ry="2.5" style="stroke:#181818;stroke-width:0.5;" width="191" x="1037.5" y="71"/><text fill="#000000" font-family="sans-serif" font-size="14" font-style="italic" lengthAdjust="spacing" textLength="84" x="1091" y="91.5352">&#171;repository&#187;</text><text fill="#000000" font-family="sans-serif" font-size="14" lengthAdjust="spacing" textLength="177" x="1044.5" y="108.0234">:JobApplicationRepository</text><rect fill="#E2E2F0" height="46.9766" rx="2.5" ry="2.5" style="stroke:#181818;stroke-width:0.5;" width="191" x="1037.5" y="711.1875"/><text fill="#000000" font-family="sans-serif" font-size="14" font-style="italic" lengthAdjust="spacing" textLength="84" x="1091" y="731.7227">&#171;repository&#187;</text><text fill="#000000" font-family="sans-serif" font-size="14" lengthAdjust="spacing" textLength="177" x="1044.5" y="748.2109">:JobApplicationRepository</text><rect fill="#E2E2F0" height="46.9766" rx="2.5" ry="2.5" style="stroke:#181818;stroke-width:0.5;" width="118" x="1238.5" y="71"/><text fill="#000000" font-family="sans-serif" font-size="14" font-style="italic" lengthAdjust="spacing" textLength="52" x="1271.5" y="91.5352">&#171;entity&#187;</text><text fill="#000000" font-family="sans-serif" font-size="14" lengthAdjust="spacing" textLength="104" x="1245.5" y="108.0234">:JobApplication</text><rect fill="#E2E2F0" height="46.9766" rx="2.5" ry="2.5" style="stroke:#181818;stroke-width:0.5;" width="118" x="1238.5" y="711.1875"/><text fill="#000000" font-family="sans-serif" font-size="14" font-style="italic" lengthAdjust="spacing" textLength="52" x="1271.5" y="731.7227">&#171;entity&#187;</text><text fill="#000000" font-family="sans-serif" font-size="14" lengthAdjust="spacing" textLength="104" x="1245.5" y="748.2109">:JobApplication</text><rect fill="#E2E2F0" height="46.9766" rx="2.5" ry="2.5" style="stroke:#181818;stroke-width:0.5;" width="148" x="1366.5" y="71"/><text fill="#000000" font-family="sans-serif" font-size="14" font-style="italic" lengthAdjust="spacing" textLength="37" x="1422" y="91.5352">&#171;dto&#187;</text><text fill="#000000" font-family="sans-serif" font-size="14" lengthAdjust="spacing" textLength="134" x="1373.5" y="108.0234">:JobApplicationDTO</text><rect fill="#E2E2F0" height="46.9766" rx="2.5" ry="2.5" style="stroke:#181818;stroke-width:0.5;" width="148" x="1366.5" y="711.1875"/><text fill="#000000" font-family="sans-serif" font-size="14" font-style="italic" lengthAdjust="spacing" textLength="37" x="1422" y="731.7227">&#171;dto&#187;</text><text fill="#000000" font-family="sans-serif" font-size="14" lengthAdjust="spacing" textLength="134" x="1373.5" y="748.2109">:JobApplicationDTO</text><rect fill="#E2E2F0" height="46.9766" rx="2.5" ry="2.5" style="stroke:#181818;stroke-width:0.5;" width="129" x="1524.5" y="71"/><text fill="#000000" font-family="sans-serif" font-size="14" font-style="italic" lengthAdjust="spacing" textLength="37" x="1570.5" y="91.5352">&#171;dto&#187;</text><text fill="#000000" font-family="sans-serif" font-size="14" lengthAdjust="spacing" textLength="115" x="1531.5" y="108.0234">:JobOpeningDTO</text><rect fill="#E2E2F0" height="46.9766" rx="2.5" ry="2.5" style="stroke:#181818;stroke-width:0.5;" width="129" x="1524.5" y="711.1875"/><text fill="#000000" font-family="sans-serif" font-size="14" font-style="italic" lengthAdjust="spacing" textLength="37" x="1570.5" y="731.7227">&#171;dto&#187;</text><text fill="#000000" font-family="sans-serif" font-size="14" lengthAdjust="spacing" textLength="115" x="1531.5" y="748.2109">:JobOpeningDTO</text><rect fill="#E2E2F0" height="46.9766" rx="2.5" ry="2.5" style="stroke:#181818;stroke-width:0.5;" width="172" x="1663.5" y="71"/><text fill="#000000" font-family="sans-serif" font-size="14" font-style="italic" lengthAdjust="spacing" textLength="84" x="1707.5" y="91.5352">&#171;repository&#187;</text><text fill="#000000" font-family="sans-serif" font-size="14" lengthAdjust="spacing" textLength="158" x="1670.5" y="108.0234">:JobOpeningRepository</text><rect fill="#E2E2F0" height="46.9766" rx="2.5" ry="2.5" style="stroke:#181818;stroke-width:0.5;" width="172" x="1663.5" y="711.1875"/><text fill="#000000" font-family="sans-serif" font-size="14" font-style="italic" lengthAdjust="spacing" textLength="84" x="1707.5" y="731.7227">&#171;repository&#187;</text><text fill="#000000" font-family="sans-serif" font-size="14" lengthAdjust="spacing" textLength="158" x="1670.5" y="748.2109">:JobOpeningRepository</text><rect fill="#FFFFFF" height="574.2109" style="stroke:#181818;stroke-width:1.0;" width="10" x="38" y="128.9766"/><rect fill="#FFFFFF" height="513.2793" style="stroke:#181818;stroke-width:1.0;" width="10" x="305" y="180.9082"/><rect fill="#FFFFFF" height="454.6582" style="stroke:#181818;stroke-width:1.0;" width="10" x="544" y="210.2188"/><rect fill="#FFFFFF" height="396.0371" style="stroke:#181818;stroke-width:1.0;" width="10" x="817" y="239.5293"/><rect fill="#FFFFFF" height="29.3105" style="stroke:#181818;stroke-width:1.0;" width="10" x="1128" y="268.8398"/><rect fill="#FFFFFF" height="29.3105" style="stroke:#181818;stroke-width:1.0;" width="10" x="1292.5" y="394.082"/><rect fill="#FFFFFF" height="29.3105" style="stroke:#181818;stroke-width:1.0;" width="10" x="1435.5" y="452.7031"/><rect fill="#FFFFFF" height="29.3105" style="stroke:#181818;stroke-width:1.0;" width="10" x="1584" y="511.3242"/><rect fill="#FFFFFF" height="29.3105" style="stroke:#181818;stroke-width:1.0;" width="10" x="1744.5" y="569.9453"/><polygon fill="#181818" points="293,176.9082,303,180.9082,293,184.9082,297,180.9082" style="stroke:#181818;stroke-width:1.0;"/><line style="stroke:#181818;stroke-width:1.0;" x1="48" x2="299" y1="180.9082" y2="180.9082"/><text fill="#000000" font-family="sans-serif" font-size="13" lengthAdjust="spacing" textLength="221" x="55" y="145.5449">Requests to list all his applications</text><text fill="#000000" font-family="sans-serif" font-size="13" lengthAdjust="spacing" textLength="234" x="55" y="160.8555">and their state (including the number</text><text fill="#000000" font-family="sans-serif" font-size="13" lengthAdjust="spacing" textLength="86" x="55" y="176.166">of applicants)</text><polygon fill="#181818" points="532,206.2188,542,210.2188,532,214.2188,536,210.2188" style="stroke:#181818;stroke-width:1.0;"/><line style="stroke:#181818;stroke-width:1.0;" x1="315" x2="538" y1="210.2188" y2="210.2188"/><text fill="#000000" font-family="sans-serif" font-size="13" lengthAdjust="spacing" textLength="210" x="322" y="205.4766">listJobApplicationsForCandidate()</text><polygon fill="#181818" points="805,235.5293,815,239.5293,805,243.5293,809,239.5293" style="stroke:#181818;stroke-width:1.0;"/><line style="stroke:#181818;stroke-width:1.0;" x1="554" x2="811" y1="239.5293" y2="239.5293"/><text fill="#000000" font-family="sans-serif" font-size="13" lengthAdjust="spacing" textLength="244" x="561" y="234.7871">listJobApplicationsForCandidate(email)</text><polygon fill="#181818" points="1116,264.8398,1126,268.8398,1116,272.8398,1120,268.8398" style="stroke:#181818;stroke-width:1.0;"/><line style="stroke:#181818;stroke-width:1.0;" x1="827" x2="1122" y1="268.8398" y2="268.8398"/><text fill="#000000" font-family="sans-serif" font-size="13" lengthAdjust="spacing" textLength="240" x="834" y="264.0977">findByCandidateEmail(email.toString())</text><polygon fill="#181818" points="838,294.1504,828,298.1504,838,302.1504,834,298.1504" style="stroke:#181818;stroke-width:1.0;"/><line style="stroke:#181818;stroke-width:1.0;stroke-dasharray:2.0,2.0;" x1="832" x2="1132" y1="298.1504" y2="298.1504"/><text fill="#000000" font-family="sans-serif" font-size="13" lengthAdjust="spacing" textLength="135" x="844" y="293.4082">List&lt;JobApplication&gt;</text><line style="stroke:#181818;stroke-width:1.0;stroke-dasharray:2.0,2.0;" x1="827" x2="869" y1="327.4609" y2="327.4609"/><line style="stroke:#181818;stroke-width:1.0;stroke-dasharray:2.0,2.0;" x1="869" x2="869" y1="327.4609" y2="340.4609"/><line style="stroke:#181818;stroke-width:1.0;stroke-dasharray:2.0,2.0;" x1="828" x2="869" y1="340.4609" y2="340.4609"/><polygon fill="#181818" points="838,336.4609,828,340.4609,838,344.4609,834,340.4609" style="stroke:#181818;stroke-width:1.0;"/><text fill="#000000" font-family="sans-serif" font-size="13" lengthAdjust="spacing" textLength="287" x="834" y="322.7188">addApplicationDetails(candidateApplications)</text><path d="M717.5,355.4609 L791.5,355.4609 L791.5,362.7715 L781.5,372.7715 L717.5,372.7715 L717.5,355.4609 " fill="#EEEEEE" style="stroke:#000000;stroke-width:1.5;"/><rect fill="none" height="251.7949" style="stroke:#000000;stroke-width:1.5;" width="1128" x="717.5" y="355.4609"/><text fill="#000000" font-family="sans-serif" font-size="13" font-weight="bold" lengthAdjust="spacing" textLength="29" x="732.5" y="369.0293">loop</text><text fill="#000000" font-family="sans-serif" font-size="11" font-weight="bold" lengthAdjust="spacing" textLength="262" x="806.5" y="368.0957">[for each application in candidateApplications]</text><polygon fill="#181818" points="1280.5,390.082,1290.5,394.082,1280.5,398.082,1284.5,394.082" style="stroke:#181818;stroke-width:1.0;"/><line style="stroke:#181818;stroke-width:1.0;" x1="827" x2="1286.5" y1="394.082" y2="394.082"/><text fill="#000000" font-family="sans-serif" font-size="13" lengthAdjust="spacing" textLength="49" x="834" y="389.3398">toDTO()</text><polygon fill="#181818" points="838,419.3926,828,423.3926,838,427.3926,834,423.3926" style="stroke:#181818;stroke-width:1.0;"/><line style="stroke:#181818;stroke-width:1.0;stroke-dasharray:2.0,2.0;" x1="832" x2="1296.5" y1="423.3926" y2="423.3926"/><text fill="#000000" font-family="sans-serif" font-size="13" lengthAdjust="spacing" textLength="120" x="844" y="418.6504">JobApplicationDTO</text><polygon fill="#181818" points="1423.5,448.7031,1433.5,452.7031,1423.5,456.7031,1427.5,452.7031" style="stroke:#181818;stroke-width:1.0;"/><line style="stroke:#181818;stroke-width:1.0;" x1="827" x2="1429.5" y1="452.7031" y2="452.7031"/><text fill="#000000" font-family="sans-serif" font-size="13" lengthAdjust="spacing" textLength="154" x="834" y="447.9609">getJobOpening().toDTO()</text><polygon fill="#181818" points="838,478.0137,828,482.0137,838,486.0137,834,482.0137" style="stroke:#181818;stroke-width:1.0;"/><line style="stroke:#181818;stroke-width:1.0;stroke-dasharray:2.0,2.0;" x1="832" x2="1439.5" y1="482.0137" y2="482.0137"/><text fill="#000000" font-family="sans-serif" font-size="13" lengthAdjust="spacing" textLength="101" x="844" y="477.2715">JobOpeningDTO</text><polygon fill="#181818" points="1572,507.3242,1582,511.3242,1572,515.3242,1576,511.3242" style="stroke:#181818;stroke-width:1.0;"/><line style="stroke:#181818;stroke-width:1.0;" x1="827" x2="1578" y1="511.3242" y2="511.3242"/><text fill="#000000" font-family="sans-serif" font-size="13" lengthAdjust="spacing" textLength="109" x="834" y="506.582">getJobReference()</text><polygon fill="#181818" points="838,536.6348,828,540.6348,838,544.6348,834,540.6348" style="stroke:#181818;stroke-width:1.0;"/><line style="stroke:#181818;stroke-width:1.0;stroke-dasharray:2.0,2.0;" x1="832" x2="1588" y1="540.6348" y2="540.6348"/><text fill="#000000" font-family="sans-serif" font-size="13" lengthAdjust="spacing" textLength="81" x="844" y="535.8926">jobReference</text><polygon fill="#181818" points="1732.5,565.9453,1742.5,569.9453,1732.5,573.9453,1736.5,569.9453" style="stroke:#181818;stroke-width:1.0;"/><line style="stroke:#181818;stroke-width:1.0;" x1="827" x2="1738.5" y1="569.9453" y2="569.9453"/><text fill="#000000" font-family="sans-serif" font-size="13" lengthAdjust="spacing" textLength="299" x="834" y="565.2031">countApplicationsByJobReference(jobReference)</text><polygon fill="#181818" points="838,595.2559,828,599.2559,838,603.2559,834,599.2559" style="stroke:#181818;stroke-width:1.0;"/><line style="stroke:#181818;stroke-width:1.0;stroke-dasharray:2.0,2.0;" x1="832" x2="1748.5" y1="599.2559" y2="599.2559"/><text fill="#000000" font-family="sans-serif" font-size="13" lengthAdjust="spacing" textLength="130" x="844" y="594.5137">numberOfApplicants</text><polygon fill="#181818" points="565,631.5664,555,635.5664,565,639.5664,561,635.5664" style="stroke:#181818;stroke-width:1.0;"/><line style="stroke:#181818;stroke-width:1.0;stroke-dasharray:2.0,2.0;" x1="559" x2="821" y1="635.5664" y2="635.5664"/><text fill="#000000" font-family="sans-serif" font-size="13" lengthAdjust="spacing" textLength="164" x="571" y="630.8242">candidateApplications list</text><polygon fill="#181818" points="326,660.877,316,664.877,326,668.877,322,664.877" style="stroke:#181818;stroke-width:1.0;"/><line style="stroke:#181818;stroke-width:1.0;stroke-dasharray:2.0,2.0;" x1="320" x2="548" y1="664.877" y2="664.877"/><text fill="#000000" font-family="sans-serif" font-size="13" lengthAdjust="spacing" textLength="164" x="332" y="660.1348">candidateApplications list</text><polygon fill="#181818" points="59,690.1875,49,694.1875,59,698.1875,55,694.1875" style="stroke:#181818;stroke-width:1.0;"/><line style="stroke:#181818;stroke-width:1.0;stroke-dasharray:2.0,2.0;" x1="53" x2="309" y1="694.1875" y2="694.1875"/><text fill="#000000" font-family="sans-serif" font-size="13" lengthAdjust="spacing" textLength="224" x="65" y="689.4453">Displays candidate applications list</text><!--SRC=[ZLHHY-8m47xlhmXxB_gmYt1lHGHttOCx3Wfw-xOWiHrrZfZqagdWlxz9QcrI2wuFqgRpVTzCvfiX90LYgGYibeHds6wCQWYDtgvG7gmyRJystsUpsVOtEbhMjS9I-i_k_LJJ9SjaISQADwahh2I1a4wqHzyK7ewqKmrajRI49TPIatZAXqG_ZBt1Ftu-UOO6nNnUMt2WAGGj5YCalymkudapcgnH2coWA6-lJ2Nxi2ymRS2UiOH0uzfdvhW-tU5Jx1fguv3hlmIuvLV6sjlf0tW0HTaobgy0wH5kzQS8q8gy7F-FnHSrQDI7ABPu63nIJp4io7i0pw7vllDNIpmlV1jpiOP_3JXoWbDJVDT2AYMEc9JfnATc2mWw0bhXo7DDK9UggJW7VonqSzfnBp-rsNT8JMxQQpUOiHwhzftFWs1wKudT9X6-XsMHTvZlslZ7P72Ig2B6Ap3hFCHS_jvoiKTTlLvkm7UFQz4lP3PakUR9D2Bog2nOwJdEnpjtdYQqo2f8OJVn62chAZOF44kxITab55SupPGnjTXpHvdvc9WJjHZ5P89_KTKH9cSRi07vudrCRvm-elqGgIIPtza-X4T53vcYDDZfkJW0zUwUJ5z6q-78bfVCdNm_HKFf3fLA5ftc6lPWGPSmebPqSaMgzpU2ZSWLGxrsFdCsSwEJ9VjwIJA8UGVP18fmr98b-RHJMEoNjmaSPjN2GLTPOhruA4Sz4wOhTcytFV4mXftoLO9eeFrYy3xqYoaNAtIraXVNywIxQ4Z4c-K_]--></g></svg>