<?xml version="1.0" encoding="us-ascii" standalone="no"?><svg xmlns="http://www.w3.org/2000/svg" xmlns:xlink="http://www.w3.org/1999/xlink" contentStyleType="text/css" height="809px" preserveAspectRatio="none" style="width:1216px;height:809px;background:#FFFFFF;" version="1.1" viewBox="0 0 1216 809" width="1216px" zoomAndPan="magnify"><defs/><g><text fill="#000000" font-family="sans-serif" font-size="14" font-weight="bold" lengthAdjust="spacing" textLength="323" x="445.75" y="28.5352">Connection Diagram (CandidateApp)_US3000</text><rect fill="#90EE90" height="759.6992" style="stroke:#181818;stroke-width:0.5;" width="124" x="208" y="43.4883"/><text fill="#000000" font-family="sans-serif" font-size="13" font-weight="bold" lengthAdjust="spacing" textLength="97" x="221.5" y="56.0566">CandidateApp</text><rect fill="#ADD8E6" height="759.6992" style="stroke:#181818;stroke-width:0.5;" width="695" x="388.5" y="43.4883"/><text fill="#000000" font-family="sans-serif" font-size="13" font-weight="bold" lengthAdjust="spacing" textLength="31" x="718.5" y="56.0566">Core</text><rect fill="#FFFFFF" height="585.7227" style="stroke:#181818;stroke-width:1.0;" width="10" x="53" y="128.9766"/><rect fill="#FFFFFF" height="564.4121" style="stroke:#181818;stroke-width:1.0;" width="10" x="265" y="150.2871"/><rect fill="#FFFFFF" height="58.6211" style="stroke:#181818;stroke-width:1.0;" width="10" x="486" y="179.5977"/><rect fill="#FFFFFF" height="321.1055" style="stroke:#181818;stroke-width:1.0;" width="10" x="486" y="279.707"/><rect fill="#FFFFFF" height="29.3105" style="stroke:#181818;stroke-width:1.0;" width="10" x="707" y="208.9082"/><rect fill="#FFFFFF" height="262.4844" style="stroke:#181818;stroke-width:1.0;" width="10" x="707" y="309.0176"/><rect fill="#FFFFFF" height="86.6211" style="stroke:#181818;stroke-width:1.0;" width="10" x="883" y="396.9492"/><rect fill="#FFFFFF" height="29.3105" style="stroke:#181818;stroke-width:1.0;" width="10" x="1030" y="338.3281"/><rect fill="#FFFFFF" height="29.3105" style="stroke:#181818;stroke-width:1.0;" width="10" x="1030" y="512.8809"/><rect fill="#FFFFFF" height="14" style="stroke:#181818;stroke-width:1.0;" width="10" x="1145" y="410.9492"/><rect fill="none" height="90.8867" style="stroke:#000000;stroke-width:1.5;" width="328" x="10" y="615.8125"/><line style="stroke:#181818;stroke-width:0.5;stroke-dasharray:5.0,5.0;" x1="58" x2="58" y1="118.9766" y2="723.6992"/><line style="stroke:#181818;stroke-width:0.5;stroke-dasharray:5.0,5.0;" x1="270" x2="270" y1="118.9766" y2="723.6992"/><line style="stroke:#181818;stroke-width:0.5;stroke-dasharray:5.0,5.0;" x1="490.5" x2="490.5" y1="118.9766" y2="723.6992"/><line style="stroke:#181818;stroke-width:0.5;stroke-dasharray:5.0,5.0;" x1="711.5" x2="711.5" y1="118.9766" y2="723.6992"/><line style="stroke:#181818;stroke-width:0.5;stroke-dasharray:5.0,5.0;" x1="888" x2="888" y1="247.6523" y2="723.6992"/><line style="stroke:#181818;stroke-width:0.5;stroke-dasharray:5.0,5.0;" x1="1034.5" x2="1034.5" y1="118.9766" y2="723.6992"/><line style="stroke:#181818;stroke-width:0.5;stroke-dasharray:5.0,5.0;" x1="1149.5" x2="1149.5" y1="118.9766" y2="723.6992"/><text fill="#000000" font-family="sans-serif" font-size="14" lengthAdjust="spacing" textLength="70" x="20" y="116.0234">Candidate</text><ellipse cx="58" cy="50.9883" fill="#E2E2F0" rx="8" ry="8" style="stroke:#181818;stroke-width:0.5;"/><path d="M58,58.9883 L58,85.9883 M45,66.9883 L71,66.9883 M58,85.9883 L45,100.9883 M58,85.9883 L71,100.9883 " fill="none" style="stroke:#181818;stroke-width:0.5;"/><text fill="#000000" font-family="sans-serif" font-size="14" lengthAdjust="spacing" textLength="70" x="20" y="736.2344">Candidate</text><ellipse cx="58" cy="747.6875" fill="#E2E2F0" rx="8" ry="8" style="stroke:#181818;stroke-width:0.5;"/><path d="M58,755.6875 L58,782.6875 M45,763.6875 L71,763.6875 M58,782.6875 L45,797.6875 M58,782.6875 L71,797.6875 " fill="none" style="stroke:#181818;stroke-width:0.5;"/><rect fill="#E2E2F0" height="30.4883" rx="2.5" ry="2.5" style="stroke:#181818;stroke-width:0.5;" width="116" x="212" y="87.4883"/><text fill="#000000" font-family="sans-serif" font-size="14" lengthAdjust="spacing" textLength="102" x="219" y="108.0234">:CandidateApp</text><rect fill="#E2E2F0" height="30.4883" rx="2.5" ry="2.5" style="stroke:#181818;stroke-width:0.5;" width="116" x="212" y="722.6992"/><text fill="#000000" font-family="sans-serif" font-size="14" lengthAdjust="spacing" textLength="102" x="219" y="743.2344">:CandidateApp</text><rect fill="#E2E2F0" height="46.9766" rx="2.5" ry="2.5" style="stroke:#181818;stroke-width:0.5;" width="197" x="392.5" y="71"/><text fill="#000000" font-family="sans-serif" font-size="14" font-style="italic" lengthAdjust="spacing" textLength="90" x="446" y="91.5352">&#171;application&#187;</text><text fill="#000000" font-family="sans-serif" font-size="14" lengthAdjust="spacing" textLength="183" x="399.5" y="108.0234">:CommunicationController</text><rect fill="#E2E2F0" height="46.9766" rx="2.5" ry="2.5" style="stroke:#181818;stroke-width:0.5;" width="197" x="392.5" y="722.6992"/><text fill="#000000" font-family="sans-serif" font-size="14" font-style="italic" lengthAdjust="spacing" textLength="90" x="446" y="743.2344">&#171;application&#187;</text><text fill="#000000" font-family="sans-serif" font-size="14" lengthAdjust="spacing" textLength="183" x="399.5" y="759.7227">:CommunicationController</text><rect fill="#E2E2F0" height="46.9766" rx="2.5" ry="2.5" style="stroke:#181818;stroke-width:0.5;" width="175" x="624.5" y="71"/><text fill="#000000" font-family="sans-serif" font-size="14" font-style="italic" lengthAdjust="spacing" textLength="61" x="681.5" y="91.5352">&#171;service&#187;</text><text fill="#000000" font-family="sans-serif" font-size="14" lengthAdjust="spacing" textLength="161" x="631.5" y="108.0234">:CommunicationService</text><rect fill="#E2E2F0" height="46.9766" rx="2.5" ry="2.5" style="stroke:#181818;stroke-width:0.5;" width="175" x="624.5" y="722.6992"/><text fill="#000000" font-family="sans-serif" font-size="14" font-style="italic" lengthAdjust="spacing" textLength="61" x="681.5" y="743.2344">&#171;service&#187;</text><text fill="#000000" font-family="sans-serif" font-size="14" lengthAdjust="spacing" textLength="161" x="631.5" y="759.7227">:CommunicationService</text><rect fill="#E2E2F0" height="30.4883" rx="2.5" ry="2.5" style="stroke:#181818;stroke-width:0.5;" width="92" x="842" y="722.6992"/><text fill="#000000" font-family="sans-serif" font-size="14" lengthAdjust="spacing" textLength="78" x="849" y="743.2344">:Messenger</text><rect fill="#E2E2F0" height="30.4883" rx="2.5" ry="2.5" style="stroke:#181818;stroke-width:0.5;" width="89" x="990.5" y="87.4883"/><text fill="#000000" font-family="sans-serif" font-size="14" lengthAdjust="spacing" textLength="75" x="997.5" y="108.0234">:Translator</text><rect fill="#E2E2F0" height="30.4883" rx="2.5" ry="2.5" style="stroke:#181818;stroke-width:0.5;" width="89" x="990.5" y="722.6992"/><text fill="#000000" font-family="sans-serif" font-size="14" lengthAdjust="spacing" textLength="75" x="997.5" y="743.2344">:Translator</text><rect fill="#FFA500" height="30.4883" rx="2.5" ry="2.5" style="stroke:#181818;stroke-width:0.5;" width="121" x="1089.5" y="87.4883"/><text fill="#000000" font-family="sans-serif" font-size="14" lengthAdjust="spacing" textLength="107" x="1096.5" y="108.0234">FollowUpServer</text><rect fill="#FFA500" height="30.4883" rx="2.5" ry="2.5" style="stroke:#181818;stroke-width:0.5;" width="121" x="1089.5" y="722.6992"/><text fill="#000000" font-family="sans-serif" font-size="14" lengthAdjust="spacing" textLength="107" x="1096.5" y="743.2344">FollowUpServer</text><rect fill="#FFFFFF" height="585.7227" style="stroke:#181818;stroke-width:1.0;" width="10" x="53" y="128.9766"/><rect fill="#FFFFFF" height="564.4121" style="stroke:#181818;stroke-width:1.0;" width="10" x="265" y="150.2871"/><rect fill="#FFFFFF" height="58.6211" style="stroke:#181818;stroke-width:1.0;" width="10" x="486" y="179.5977"/><rect fill="#FFFFFF" height="321.1055" style="stroke:#181818;stroke-width:1.0;" width="10" x="486" y="279.707"/><rect fill="#FFFFFF" height="29.3105" style="stroke:#181818;stroke-width:1.0;" width="10" x="707" y="208.9082"/><rect fill="#FFFFFF" height="262.4844" style="stroke:#181818;stroke-width:1.0;" width="10" x="707" y="309.0176"/><rect fill="#FFFFFF" height="86.6211" style="stroke:#181818;stroke-width:1.0;" width="10" x="883" y="396.9492"/><rect fill="#FFFFFF" height="29.3105" style="stroke:#181818;stroke-width:1.0;" width="10" x="1030" y="338.3281"/><rect fill="#FFFFFF" height="29.3105" style="stroke:#181818;stroke-width:1.0;" width="10" x="1030" y="512.8809"/><rect fill="#FFFFFF" height="14" style="stroke:#181818;stroke-width:1.0;" width="10" x="1145" y="410.9492"/><polygon fill="#181818" points="253,146.2871,263,150.2871,253,154.2871,257,150.2871" style="stroke:#181818;stroke-width:1.0;"/><line style="stroke:#181818;stroke-width:1.0;" x1="63" x2="259" y1="150.2871" y2="150.2871"/><text fill="#000000" font-family="sans-serif" font-size="13" lengthAdjust="spacing" textLength="183" x="70" y="145.5449">asks to set the comunication</text><polygon fill="#181818" points="474,175.5977,484,179.5977,474,183.5977,478,179.5977" style="stroke:#181818;stroke-width:1.0;"/><line style="stroke:#181818;stroke-width:1.0;" x1="275" x2="480" y1="179.5977" y2="179.5977"/><text fill="#000000" font-family="sans-serif" font-size="13" lengthAdjust="spacing" textLength="192" x="282" y="174.8555">initializeComunication(socket)</text><polygon fill="#181818" points="695,204.9082,705,208.9082,695,212.9082,699,208.9082" style="stroke:#181818;stroke-width:1.0;"/><line style="stroke:#181818;stroke-width:1.0;" x1="496" x2="701" y1="208.9082" y2="208.9082"/><text fill="#000000" font-family="sans-serif" font-size="13" lengthAdjust="spacing" textLength="192" x="503" y="204.166">initializeComunication(socket)</text><polygon fill="#181818" points="830,234.2188,840,238.2188,830,242.2188,834,238.2188" style="stroke:#181818;stroke-width:1.0;"/><line style="stroke:#181818;stroke-width:1.0;" x1="712" x2="836" y1="238.2188" y2="238.2188"/><text fill="#000000" font-family="sans-serif" font-size="13" lengthAdjust="spacing" textLength="46" x="719" y="233.4766">create()</text><rect fill="#E2E2F0" height="30.4883" rx="2.5" ry="2.5" style="stroke:#181818;stroke-width:0.5;" width="92" x="842" y="216.9082"/><text fill="#000000" font-family="sans-serif" font-size="14" lengthAdjust="spacing" textLength="78" x="849" y="237.4434">:Messenger</text><polygon fill="#181818" points="474,275.707,484,279.707,474,283.707,478,279.707" style="stroke:#181818;stroke-width:1.0;"/><line style="stroke:#181818;stroke-width:1.0;" x1="275" x2="480" y1="279.707" y2="279.707"/><text fill="#000000" font-family="sans-serif" font-size="13" lengthAdjust="spacing" textLength="104" x="282" y="274.9648">testConnection()</text><polygon fill="#181818" points="695,305.0176,705,309.0176,695,313.0176,699,309.0176" style="stroke:#181818;stroke-width:1.0;"/><line style="stroke:#181818;stroke-width:1.0;" x1="496" x2="701" y1="309.0176" y2="309.0176"/><text fill="#000000" font-family="sans-serif" font-size="13" lengthAdjust="spacing" textLength="104" x="503" y="304.2754">testConnection()</text><polygon fill="#181818" points="1018,334.3281,1028,338.3281,1018,342.3281,1022,338.3281" style="stroke:#181818;stroke-width:1.0;"/><line style="stroke:#181818;stroke-width:1.0;" x1="717" x2="1024" y1="338.3281" y2="338.3281"/><text fill="#000000" font-family="sans-serif" font-size="13" lengthAdjust="spacing" textLength="294" x="724" y="333.5859">encode(1, MessageCode.COMMTEST, null, null)</text><polygon fill="#181818" points="728,363.6387,718,367.6387,728,371.6387,724,367.6387" style="stroke:#181818;stroke-width:1.0;"/><line style="stroke:#181818;stroke-width:1.0;stroke-dasharray:2.0,2.0;" x1="722" x2="1034" y1="367.6387" y2="367.6387"/><text fill="#000000" font-family="sans-serif" font-size="13" lengthAdjust="spacing" textLength="94" x="734" y="362.8965">byte[] message</text><polygon fill="#181818" points="871,392.9492,881,396.9492,871,400.9492,875,396.9492" style="stroke:#181818;stroke-width:1.0;"/><line style="stroke:#181818;stroke-width:1.0;" x1="717" x2="877" y1="396.9492" y2="396.9492"/><text fill="#000000" font-family="sans-serif" font-size="13" lengthAdjust="spacing" textLength="147" x="724" y="392.207">sendMessage(message)</text><polygon fill="#181818" points="1133,406.9492,1143,410.9492,1133,414.9492,1137,410.9492" style="stroke:#181818;stroke-width:1.0;"/><line style="stroke:#181818;stroke-width:1.0;" x1="893" x2="1139" y1="410.9492" y2="410.9492"/><polygon fill="#181818" points="904,420.9492,894,424.9492,904,428.9492,900,424.9492" style="stroke:#181818;stroke-width:1.0;"/><line style="stroke:#181818;stroke-width:1.0;" x1="898" x2="1149" y1="424.9492" y2="424.9492"/><polygon fill="#181818" points="871,450.2598,881,454.2598,871,458.2598,875,454.2598" style="stroke:#181818;stroke-width:1.0;"/><line style="stroke:#181818;stroke-width:1.0;" x1="717" x2="877" y1="454.2598" y2="454.2598"/><text fill="#000000" font-family="sans-serif" font-size="13" lengthAdjust="spacing" textLength="106" x="724" y="449.5176">receiveMessage()</text><polygon fill="#181818" points="728,479.5703,718,483.5703,728,487.5703,724,483.5703" style="stroke:#181818;stroke-width:1.0;"/><line style="stroke:#181818;stroke-width:1.0;stroke-dasharray:2.0,2.0;" x1="722" x2="887" y1="483.5703" y2="483.5703"/><text fill="#000000" font-family="sans-serif" font-size="13" lengthAdjust="spacing" textLength="137" x="734" y="478.8281">byte[] receiveMessage</text><polygon fill="#181818" points="1018,508.8809,1028,512.8809,1018,516.8809,1022,512.8809" style="stroke:#181818;stroke-width:1.0;"/><line style="stroke:#181818;stroke-width:1.0;" x1="717" x2="1024" y1="512.8809" y2="512.8809"/><text fill="#000000" font-family="sans-serif" font-size="13" lengthAdjust="spacing" textLength="142" x="724" y="508.1387">decodeCode(response)</text><polygon fill="#181818" points="728,538.1914,718,542.1914,728,546.1914,724,542.1914" style="stroke:#181818;stroke-width:1.0;"/><line style="stroke:#181818;stroke-width:1.0;stroke-dasharray:2.0,2.0;" x1="722" x2="1034" y1="542.1914" y2="542.1914"/><text fill="#000000" font-family="sans-serif" font-size="13" lengthAdjust="spacing" textLength="86" x="734" y="537.4492">MessageCode</text><polygon fill="#181818" points="507,567.502,497,571.502,507,575.502,503,571.502" style="stroke:#181818;stroke-width:1.0;"/><line style="stroke:#181818;stroke-width:1.0;stroke-dasharray:2.0,2.0;" x1="501" x2="711" y1="571.502" y2="571.502"/><text fill="#000000" font-family="sans-serif" font-size="13" lengthAdjust="spacing" textLength="86" x="513" y="566.7598">MessageCode</text><polygon fill="#181818" points="286,596.8125,276,600.8125,286,604.8125,282,600.8125" style="stroke:#181818;stroke-width:1.0;"/><line style="stroke:#181818;stroke-width:1.0;stroke-dasharray:2.0,2.0;" x1="280" x2="490" y1="600.8125" y2="600.8125"/><text fill="#000000" font-family="sans-serif" font-size="13" lengthAdjust="spacing" textLength="86" x="292" y="596.0703">MessageCode</text><path d="M10,615.8125 L72,615.8125 L72,623.123 L62,633.123 L10,633.123 L10,615.8125 " fill="#EEEEEE" style="stroke:#000000;stroke-width:1.5;"/><rect fill="none" height="90.8867" style="stroke:#000000;stroke-width:1.5;" width="328" x="10" y="615.8125"/><text fill="#000000" font-family="sans-serif" font-size="13" font-weight="bold" lengthAdjust="spacing" textLength="17" x="25" y="629.3809">alt</text><text fill="#000000" font-family="sans-serif" font-size="11" font-weight="bold" lengthAdjust="spacing" textLength="110" x="87" y="628.4473">[MessageCode.ACK]</text><polygon fill="#181818" points="74,650.4336,64,654.4336,74,658.4336,70,654.4336" style="stroke:#181818;stroke-width:1.0;"/><line style="stroke:#181818;stroke-width:1.0;stroke-dasharray:2.0,2.0;" x1="68" x2="264" y1="654.4336" y2="654.4336"/><text fill="#000000" font-family="sans-serif" font-size="13" lengthAdjust="spacing" textLength="148" x="80" y="649.6914">Connection established</text><line style="stroke:#000000;stroke-width:1.0;stroke-dasharray:2.0,2.0;" x1="10" x2="338" y1="663.4336" y2="663.4336"/><text fill="#000000" font-family="sans-serif" font-size="11" font-weight="bold" lengthAdjust="spacing" textLength="109" x="15" y="674.0684">[MessageCode.ERR]</text><polygon fill="#181818" points="74,694.6992,64,698.6992,74,702.6992,70,698.6992" style="stroke:#181818;stroke-width:1.0;"/><line style="stroke:#181818;stroke-width:1.0;stroke-dasharray:2.0,2.0;" x1="68" x2="264" y1="698.6992" y2="698.6992"/><text fill="#000000" font-family="sans-serif" font-size="13" lengthAdjust="spacing" textLength="123" x="80" y="693.957">Connection refused</text><!--SRC=[bPHDRzim38Rl-XL4Sd6ATiYmcr44ADnkXoqOqAIdOHWKcNM4of8XATd7hnybsx6SrktcWo7RVCYNBvbuwHL2ORH6uQNHS2jvPNaDMS5rAKlkyQPf5ZyUDX-MooLZN7XZuVGDk8FuYktCBvYbp0pcNsIrzvyiecODjruAsN3jOPQFuqAEfc6eIw0iBAOgZ4MOgv1WfmvupfkwFcWfU91CuhqrIg6DgOIfuVgQ4ghk-shr6hr1UvG28-hQC-7TwHcwHkTGLrsfkdywYzfQhftYP4iCywV7eSSHy97KcvyFJT3IfNRn27D3R8NHTtcCXaUtsp5ShO9na1FmH6KCKHxy7eC7fmOJb4mEyOG5atAGMdh9bVo3HG9apeWdz8i1f6WM209xY_uTxWZMavJav1jSNEGWB59Sjc0bFeEILq74IBr7vuV5pTxIEnt-Wi9XP3cW5gR4xFqbXEdpYlejyLtnTRtUtcssbw0FIhNt96Soy-48LoD5kzyUltsFRb3MjDU4Vicsd9BeibEJTNnIVDZBmUckCjfntzXMQ0C6xcmKEAN3ea1vn5xA8Yquz7fgTHoULXbAJqoXn325O7rcqJL6E_mVk_DqU6zPtQxO9DBlIronzZSu6HjMaN7bHxjpKtnkLpd08hQN_0FJdlATacwF9KFbS8JUtT-_WbfyFBY0wPBHzHS0]--></g></svg>