<?xml version="1.0" encoding="us-ascii" standalone="no"?><svg xmlns="http://www.w3.org/2000/svg" xmlns:xlink="http://www.w3.org/1999/xlink" contentStyleType="text/css" height="2133px" preserveAspectRatio="none" style="width:3463px;height:2133px;background:#FFFFFF;" version="1.1" viewBox="0 0 3463 2133" width="3463px" zoomAndPan="magnify"><defs/><g><text fill="#000000" font-family="sans-serif" font-size="14" font-weight="bold" lengthAdjust="spacing" textLength="233" x="1621" y="30.1074">FollowUpServer Diagram_US3000</text><rect fill="#90EE90" height="2081.6152" style="stroke:#181818;stroke-width:0.5;" width="1587" x="26" y="45.6211"/><text fill="#000000" font-family="sans-serif" font-size="13" font-weight="bold" lengthAdjust="spacing" textLength="102" x="768.5" y="59.6494">FollowUpServer</text><rect fill="#ADD8E6" height="2081.6152" style="stroke:#181818;stroke-width:0.5;" width="1558.5" x="1871.5" y="45.6211"/><text fill="#000000" font-family="sans-serif" font-size="13" font-weight="bold" lengthAdjust="spacing" textLength="30" x="2635.75" y="59.6494">Core</text><rect fill="#FFFFFF" height="1933.8398" style="stroke:#181818;stroke-width:1.0;" width="10" x="77" y="129.1543"/><rect fill="#FFFFFF" height="1884.5488" style="stroke:#181818;stroke-width:1.0;" width="10" x="407" y="162.4453"/><rect fill="#FFFFFF" height="1819.6367" style="stroke:#181818;stroke-width:1.0;" width="10" x="633" y="196.0664"/><rect fill="#FFFFFF" height="1562.3086" style="stroke:#181818;stroke-width:1.0;" width="10" x="1254.5" y="398.4727"/><rect fill="#FFFFFF" height="1562.3086" style="stroke:#181818;stroke-width:1.0;" width="10" x="1808.5" y="398.4727"/><rect fill="#FFFFFF" height="325.5898" style="stroke:#181818;stroke-width:1.0;" width="10" x="1912" y="429.7637"/><rect fill="#FFFFFF" height="31.291" style="stroke:#181818;stroke-width:1.0;" width="10" x="1912" y="1898.1992"/><rect fill="#FFFFFF" height="598.8496" style="stroke:#181818;stroke-width:1.0;" width="10" x="2335.5" y="1223.7676"/><rect fill="#FFFFFF" height="474.0254" style="stroke:#181818;stroke-width:1.0;" width="10" x="2593.5" y="1317.3008"/><rect fill="#FFFFFF" height="31.291" style="stroke:#181818;stroke-width:1.0;" width="10" x="2922.5" y="1533.998"/><rect fill="#FFFFFF" height="31.291" style="stroke:#181818;stroke-width:1.0;" width="10" x="3056.5" y="1596.5801"/><rect fill="#FFFFFF" height="31.291" style="stroke:#181818;stroke-width:1.0;" width="10" x="3198" y="1659.1621"/><rect fill="#FFFFFF" height="662.1602" style="stroke:#181818;stroke-width:1.0;" width="10" x="3345.5" y="1400.834"/><rect fill="#FFFFFF" height="31.291" style="stroke:#181818;stroke-width:1.0;" width="10" x="3350.5" y="1721.7441"/><rect fill="none" height="1699.1035" style="stroke:#000000;stroke-width:1.5;" width="3436" x="20" y="355.8906"/><rect fill="none" height="1524.0176" style="stroke:#000000;stroke-width:1.5;" width="2271" x="1175" y="444.7637"/><rect fill="none" height="529.6563" style="stroke:#000000;stroke-width:1.5;" width="2251" x="1185" y="637.1895"/><rect fill="none" height="50.582" style="stroke:#000000;stroke-width:1.5;" width="888.5" x="1195" y="863.8867"/><rect fill="none" height="50.582" style="stroke:#000000;stroke-width:1.5;" width="888.5" x="1195" y="959.7598"/><rect fill="none" height="269.6191" style="stroke:#000000;stroke-width:1.5;" width="940" x="2496" y="1491.416"/><line style="stroke:#181818;stroke-width:0.5;stroke-dasharray:5.0,5.0;" x1="82" x2="82" y1="119.1543" y2="2071.9941"/><line style="stroke:#181818;stroke-width:0.5;stroke-dasharray:5.0,5.0;" x1="412" x2="412" y1="160.9648" y2="2071.9941"/><line style="stroke:#181818;stroke-width:0.5;stroke-dasharray:5.0,5.0;" x1="637.5" x2="637.5" y1="119.1543" y2="2071.9941"/><line style="stroke:#181818;stroke-width:0.5;stroke-dasharray:5.0,5.0;" x1="922" x2="922" y1="293.459" y2="2071.9941"/><line style="stroke:#181818;stroke-width:0.5;stroke-dasharray:5.0,5.0;" x1="1259" x2="1259" y1="337.0801" y2="2071.9941"/><line style="stroke:#181818;stroke-width:0.5;stroke-dasharray:5.0,5.0;" x1="1575" x2="1575" y1="119.1543" y2="2071.9941"/><line style="stroke:#181818;stroke-width:0.5;stroke-dasharray:5.0,5.0;" x1="1813.5" x2="1813.5" y1="119.1543" y2="2071.9941"/><line style="stroke:#181818;stroke-width:0.5;stroke-dasharray:5.0,5.0;" x1="1916.5" x2="1916.5" y1="119.1543" y2="2071.9941"/><line style="stroke:#181818;stroke-width:0.5;stroke-dasharray:5.0,5.0;" x1="2020.5" x2="2020.5" y1="804.4746" y2="2071.9941"/><line style="stroke:#181818;stroke-width:0.5;stroke-dasharray:5.0,5.0;" x1="2156.5" x2="2156.5" y1="119.1543" y2="2071.9941"/><line style="stroke:#181818;stroke-width:0.5;stroke-dasharray:5.0,5.0;" x1="2340.5" x2="2340.5" y1="1231.5977" y2="2071.9941"/><line style="stroke:#181818;stroke-width:0.5;stroke-dasharray:5.0,5.0;" x1="2598" x2="2598" y1="1325.1309" y2="2071.9941"/><line style="stroke:#181818;stroke-width:0.5;stroke-dasharray:5.0,5.0;" x1="2927" x2="2927" y1="119.1543" y2="2071.9941"/><line style="stroke:#181818;stroke-width:0.5;stroke-dasharray:5.0,5.0;" x1="3061" x2="3061" y1="119.1543" y2="2071.9941"/><line style="stroke:#181818;stroke-width:0.5;stroke-dasharray:5.0,5.0;" x1="3203" x2="3203" y1="119.1543" y2="2071.9941"/><line style="stroke:#181818;stroke-width:0.5;stroke-dasharray:5.0,5.0;" x1="3350" x2="3350" y1="119.1543" y2="2071.9941"/><rect fill="#E2E2F0" height="32.6211" rx="2.5" ry="2.5" style="stroke:#181818;stroke-width:0.5;" width="104" x="30" y="85.5332"/><text fill="#000000" font-family="sans-serif" font-size="14" lengthAdjust="spacing" textLength="90" x="37" y="107.6406">:RcompServer</text><rect fill="#E2E2F0" height="32.6211" rx="2.5" ry="2.5" style="stroke:#181818;stroke-width:0.5;" width="104" x="30" y="2070.9941"/><text fill="#000000" font-family="sans-serif" font-size="14" lengthAdjust="spacing" textLength="90" x="37" y="2093.1016">:RcompServer</text><rect fill="#E2E2F0" height="32.6211" rx="2.5" ry="2.5" style="stroke:#181818;stroke-width:0.5;" width="60" x="382" y="2070.9941"/><text fill="#000000" font-family="sans-serif" font-size="14" lengthAdjust="spacing" textLength="46" x="389" y="2093.1016">:Server</text><rect fill="#E2E2F0" height="32.6211" rx="2.5" ry="2.5" style="stroke:#181818;stroke-width:0.5;" width="155" x="560.5" y="85.5332"/><text fill="#000000" font-family="sans-serif" font-size="14" lengthAdjust="spacing" textLength="141" x="567.5" y="107.6406">:SemaphoreForServer</text><rect fill="#E2E2F0" height="32.6211" rx="2.5" ry="2.5" style="stroke:#181818;stroke-width:0.5;" width="155" x="560.5" y="2070.9941"/><text fill="#000000" font-family="sans-serif" font-size="14" lengthAdjust="spacing" textLength="141" x="567.5" y="2093.1016">:SemaphoreForServer</text><rect fill="#E2E2F0" height="32.6211" rx="2.5" ry="2.5" style="stroke:#181818;stroke-width:0.5;" width="64" x="890" y="2070.9941"/><text fill="#000000" font-family="sans-serif" font-size="14" lengthAdjust="spacing" textLength="50" x="897" y="2093.1016">:Thread</text><rect fill="#E2E2F0" height="32.6211" rx="2.5" ry="2.5" style="stroke:#181818;stroke-width:0.5;" width="109" x="1205" y="2070.9941"/><text fill="#000000" font-family="sans-serif" font-size="14" lengthAdjust="spacing" textLength="95" x="1212" y="2093.1016">:SimpleHandler</text><rect fill="#E2E2F0" height="32.6211" rx="2.5" ry="2.5" style="stroke:#181818;stroke-width:0.5;" width="67" x="1542" y="85.5332"/><text fill="#000000" font-family="sans-serif" font-size="14" lengthAdjust="spacing" textLength="53" x="1549" y="107.6406">:Handler</text><rect fill="#E2E2F0" height="32.6211" rx="2.5" ry="2.5" style="stroke:#181818;stroke-width:0.5;" width="67" x="1542" y="2070.9941"/><text fill="#000000" font-family="sans-serif" font-size="14" lengthAdjust="spacing" textLength="53" x="1549" y="2093.1016">:Handler</text><rect fill="#FFA500" height="32.6211" rx="2.5" ry="2.5" style="stroke:#181818;stroke-width:0.5;" width="104" x="1761.5" y="85.5332"/><text fill="#000000" font-family="sans-serif" font-size="14" lengthAdjust="spacing" textLength="90" x="1768.5" y="107.6406">CandidateApp</text><rect fill="#FFA500" height="32.6211" rx="2.5" ry="2.5" style="stroke:#181818;stroke-width:0.5;" width="104" x="1761.5" y="2070.9941"/><text fill="#000000" font-family="sans-serif" font-size="14" lengthAdjust="spacing" textLength="90" x="1768.5" y="2093.1016">CandidateApp</text><rect fill="#E2E2F0" height="32.6211" rx="2.5" ry="2.5" style="stroke:#181818;stroke-width:0.5;" width="83" x="1875.5" y="85.5332"/><text fill="#000000" font-family="sans-serif" font-size="14" lengthAdjust="spacing" textLength="69" x="1882.5" y="107.6406">:Translator</text><rect fill="#E2E2F0" height="32.6211" rx="2.5" ry="2.5" style="stroke:#181818;stroke-width:0.5;" width="83" x="1875.5" y="2070.9941"/><text fill="#000000" font-family="sans-serif" font-size="14" lengthAdjust="spacing" textLength="69" x="1882.5" y="2093.1016">:Translator</text><rect fill="#E2E2F0" height="51.2422" rx="2.5" ry="2.5" style="stroke:#181818;stroke-width:0.5;" width="105" x="1968.5" y="2070.9941"/><text fill="#000000" font-family="sans-serif" font-size="14" font-style="italic" lengthAdjust="spacing" textLength="91" x="1975.5" y="2093.1016">&#171;value object&#187;</text><text fill="#000000" font-family="sans-serif" font-size="14" lengthAdjust="spacing" textLength="38" x="2002" y="2111.7227">:Email</text><rect fill="#E2E2F0" height="51.2422" rx="2.5" ry="2.5" style="stroke:#181818;stroke-width:0.5;" width="147" x="2083.5" y="66.9121"/><text fill="#000000" font-family="sans-serif" font-size="14" font-style="italic" lengthAdjust="spacing" textLength="79" x="2117.5" y="89.0195">&#171;repository&#187;</text><text fill="#000000" font-family="sans-serif" font-size="14" lengthAdjust="spacing" textLength="133" x="2090.5" y="107.6406">:CustomerRepository</text><rect fill="#E2E2F0" height="51.2422" rx="2.5" ry="2.5" style="stroke:#181818;stroke-width:0.5;" width="147" x="2083.5" y="2070.9941"/><text fill="#000000" font-family="sans-serif" font-size="14" font-style="italic" lengthAdjust="spacing" textLength="79" x="2117.5" y="2093.1016">&#171;repository&#187;</text><text fill="#000000" font-family="sans-serif" font-size="14" lengthAdjust="spacing" textLength="133" x="2090.5" y="2111.7227">:CustomerRepository</text><rect fill="#E2E2F0" height="51.2422" rx="2.5" ry="2.5" style="stroke:#181818;stroke-width:0.5;" width="200" x="2240.5" y="2070.9941"/><text fill="#000000" font-family="sans-serif" font-size="14" font-style="italic" lengthAdjust="spacing" textLength="84" x="2298.5" y="2093.1016">&#171;application&#187;</text><text fill="#000000" font-family="sans-serif" font-size="14" lengthAdjust="spacing" textLength="186" x="2247.5" y="2111.7227">:ListJobApplicationsController</text><rect fill="#E2E2F0" height="51.2422" rx="2.5" ry="2.5" style="stroke:#181818;stroke-width:0.5;" width="185" x="2506" y="2070.9941"/><text fill="#000000" font-family="sans-serif" font-size="14" font-style="italic" lengthAdjust="spacing" textLength="60" x="2568.5" y="2093.1016">&#171;service&#187;</text><text fill="#000000" font-family="sans-serif" font-size="14" lengthAdjust="spacing" textLength="171" x="2513" y="2111.7227">:ListJobApplicationsService</text><rect fill="#E2E2F0" height="51.2422" rx="2.5" ry="2.5" style="stroke:#181818;stroke-width:0.5;" width="109" x="2873" y="66.9121"/><text fill="#000000" font-family="sans-serif" font-size="14" font-style="italic" lengthAdjust="spacing" textLength="50" x="2902.5" y="89.0195">&#171;entity&#187;</text><text fill="#000000" font-family="sans-serif" font-size="14" lengthAdjust="spacing" textLength="95" x="2880" y="107.6406">:JobApplication</text><rect fill="#E2E2F0" height="51.2422" rx="2.5" ry="2.5" style="stroke:#181818;stroke-width:0.5;" width="109" x="2873" y="2070.9941"/><text fill="#000000" font-family="sans-serif" font-size="14" font-style="italic" lengthAdjust="spacing" textLength="50" x="2902.5" y="2093.1016">&#171;entity&#187;</text><text fill="#000000" font-family="sans-serif" font-size="14" lengthAdjust="spacing" textLength="95" x="2880" y="2111.7227">:JobApplication</text><rect fill="#E2E2F0" height="51.2422" rx="2.5" ry="2.5" style="stroke:#181818;stroke-width:0.5;" width="139" x="2992" y="66.9121"/><text fill="#000000" font-family="sans-serif" font-size="14" font-style="italic" lengthAdjust="spacing" textLength="36" x="3043.5" y="89.0195">&#171;dto&#187;</text><text fill="#000000" font-family="sans-serif" font-size="14" lengthAdjust="spacing" textLength="125" x="2999" y="107.6406">:JobApplicationDTO</text><rect fill="#E2E2F0" height="51.2422" rx="2.5" ry="2.5" style="stroke:#181818;stroke-width:0.5;" width="139" x="2992" y="2070.9941"/><text fill="#000000" font-family="sans-serif" font-size="14" font-style="italic" lengthAdjust="spacing" textLength="36" x="3043.5" y="2093.1016">&#171;dto&#187;</text><text fill="#000000" font-family="sans-serif" font-size="14" lengthAdjust="spacing" textLength="125" x="2999" y="2111.7227">:JobApplicationDTO</text><rect fill="#E2E2F0" height="51.2422" rx="2.5" ry="2.5" style="stroke:#181818;stroke-width:0.5;" width="124" x="3141" y="66.9121"/><text fill="#000000" font-family="sans-serif" font-size="14" font-style="italic" lengthAdjust="spacing" textLength="36" x="3185" y="89.0195">&#171;dto&#187;</text><text fill="#000000" font-family="sans-serif" font-size="14" lengthAdjust="spacing" textLength="110" x="3148" y="107.6406">:JobOpeningDTO</text><rect fill="#E2E2F0" height="51.2422" rx="2.5" ry="2.5" style="stroke:#181818;stroke-width:0.5;" width="124" x="3141" y="2070.9941"/><text fill="#000000" font-family="sans-serif" font-size="14" font-style="italic" lengthAdjust="spacing" textLength="36" x="3185" y="2093.1016">&#171;dto&#187;</text><text fill="#000000" font-family="sans-serif" font-size="14" lengthAdjust="spacing" textLength="110" x="3148" y="2111.7227">:JobOpeningDTO</text><rect fill="#E2E2F0" height="51.2422" rx="2.5" ry="2.5" style="stroke:#181818;stroke-width:0.5;" width="151" x="3275" y="66.9121"/><text fill="#000000" font-family="sans-serif" font-size="14" font-style="italic" lengthAdjust="spacing" textLength="79" x="3311" y="89.0195">&#171;repository&#187;</text><text fill="#000000" font-family="sans-serif" font-size="14" lengthAdjust="spacing" textLength="137" x="3282" y="107.6406">:CandidateRepository</text><rect fill="#E2E2F0" height="51.2422" rx="2.5" ry="2.5" style="stroke:#181818;stroke-width:0.5;" width="151" x="3275" y="2070.9941"/><text fill="#000000" font-family="sans-serif" font-size="14" font-style="italic" lengthAdjust="spacing" textLength="79" x="3311" y="2093.1016">&#171;repository&#187;</text><text fill="#000000" font-family="sans-serif" font-size="14" lengthAdjust="spacing" textLength="137" x="3282" y="2111.7227">:CandidateRepository</text><rect fill="#FFFFFF" height="1933.8398" style="stroke:#181818;stroke-width:1.0;" width="10" x="77" y="129.1543"/><rect fill="#FFFFFF" height="1884.5488" style="stroke:#181818;stroke-width:1.0;" width="10" x="407" y="162.4453"/><rect fill="#FFFFFF" height="1819.6367" style="stroke:#181818;stroke-width:1.0;" width="10" x="633" y="196.0664"/><rect fill="#FFFFFF" height="1562.3086" style="stroke:#181818;stroke-width:1.0;" width="10" x="1254.5" y="398.4727"/><rect fill="#FFFFFF" height="1562.3086" style="stroke:#181818;stroke-width:1.0;" width="10" x="1808.5" y="398.4727"/><rect fill="#FFFFFF" height="325.5898" style="stroke:#181818;stroke-width:1.0;" width="10" x="1912" y="429.7637"/><rect fill="#FFFFFF" height="31.291" style="stroke:#181818;stroke-width:1.0;" width="10" x="1912" y="1898.1992"/><rect fill="#FFFFFF" height="598.8496" style="stroke:#181818;stroke-width:1.0;" width="10" x="2335.5" y="1223.7676"/><rect fill="#FFFFFF" height="474.0254" style="stroke:#181818;stroke-width:1.0;" width="10" x="2593.5" y="1317.3008"/><rect fill="#FFFFFF" height="31.291" style="stroke:#181818;stroke-width:1.0;" width="10" x="2922.5" y="1533.998"/><rect fill="#FFFFFF" height="31.291" style="stroke:#181818;stroke-width:1.0;" width="10" x="3056.5" y="1596.5801"/><rect fill="#FFFFFF" height="31.291" style="stroke:#181818;stroke-width:1.0;" width="10" x="3198" y="1659.1621"/><rect fill="#FFFFFF" height="662.1602" style="stroke:#181818;stroke-width:1.0;" width="10" x="3345.5" y="1400.834"/><rect fill="#FFFFFF" height="31.291" style="stroke:#181818;stroke-width:1.0;" width="10" x="3350.5" y="1721.7441"/><polygon fill="#181818" points="370,148.4453,380,152.4453,370,156.4453,374,152.4453" style="stroke:#181818;stroke-width:1.0;"/><line style="stroke:#181818;stroke-width:1.0;" x1="87" x2="376" y1="152.4453" y2="152.4453"/><text fill="#000000" font-family="sans-serif" font-size="13" lengthAdjust="spacing" textLength="106" x="94" y="147.1826">new Server(PORT)</text><rect fill="#E2E2F0" height="32.6211" rx="2.5" ry="2.5" style="stroke:#181818;stroke-width:0.5;" width="60" x="382" y="129.1543"/><text fill="#000000" font-family="sans-serif" font-size="14" lengthAdjust="spacing" textLength="46" x="389" y="151.2617">:Server</text><polygon fill="#181818" points="621,192.0664,631,196.0664,621,200.0664,625,196.0664" style="stroke:#181818;stroke-width:1.0;"/><line style="stroke:#181818;stroke-width:1.0;" x1="417" x2="627" y1="196.0664" y2="196.0664"/><text fill="#000000" font-family="sans-serif" font-size="13" lengthAdjust="spacing" textLength="197" x="424" y="190.8037">instance().activateCriticalSection()</text><polygon fill="#181818" points="428,249.6484,418,253.6484,428,257.6484,424,253.6484" style="stroke:#181818;stroke-width:1.0;"/><line style="stroke:#181818;stroke-width:1.0;stroke-dasharray:2.0,2.0;" x1="422" x2="632" y1="253.6484" y2="253.6484"/><text fill="#000000" font-family="sans-serif" font-size="13" lengthAdjust="spacing" textLength="22" x="434" y="248.3857">true</text><polygon fill="#181818" points="878,280.9395,888,284.9395,878,288.9395,882,284.9395" style="stroke:#181818;stroke-width:1.0;"/><line style="stroke:#181818;stroke-width:1.0;" x1="417" x2="884" y1="284.9395" y2="284.9395"/><text fill="#000000" font-family="sans-serif" font-size="13" lengthAdjust="spacing" textLength="449" x="424" y="279.6768">new Thread(serverThreadGroup, new SimpleHandler(serverSocketConnection))</text><rect fill="#E2E2F0" height="32.6211" rx="2.5" ry="2.5" style="stroke:#181818;stroke-width:0.5;" width="64" x="890" y="261.6484"/><text fill="#000000" font-family="sans-serif" font-size="14" lengthAdjust="spacing" textLength="50" x="897" y="283.7559">:Thread</text><polygon fill="#181818" points="1193,324.5605,1203,328.5605,1193,332.5605,1197,328.5605" style="stroke:#181818;stroke-width:1.0;"/><line style="stroke:#181818;stroke-width:1.0;" x1="922" x2="1199" y1="328.5605" y2="328.5605"/><text fill="#000000" font-family="sans-serif" font-size="13" lengthAdjust="spacing" textLength="259" x="929" y="323.2979">new SimpleHandler(serverSocketConnection)</text><rect fill="#E2E2F0" height="32.6211" rx="2.5" ry="2.5" style="stroke:#181818;stroke-width:0.5;" width="109" x="1205" y="305.2695"/><text fill="#000000" font-family="sans-serif" font-size="14" lengthAdjust="spacing" textLength="95" x="1212" y="327.377">:SimpleHandler</text><path d="M20,355.8906 L93,355.8906 L93,365.1816 L83,375.1816 L20,375.1816 L20,355.8906 " fill="#EEEEEE" style="stroke:#000000;stroke-width:1.5;"/><rect fill="none" height="1699.1035" style="stroke:#000000;stroke-width:1.5;" width="3436" x="20" y="355.8906"/><text fill="#000000" font-family="sans-serif" font-size="13" font-weight="bold" lengthAdjust="spacing" textLength="28" x="35" y="370.9189">loop</text><text fill="#000000" font-family="sans-serif" font-size="11" font-weight="bold" lengthAdjust="spacing" textLength="99" x="108" y="369.7607">[while connected]</text><polygon fill="#181818" points="1275.5,394.4727,1265.5,398.4727,1275.5,402.4727,1271.5,398.4727" style="stroke:#181818;stroke-width:1.0;"/><line style="stroke:#181818;stroke-width:1.0;stroke-dasharray:2.0,2.0;" x1="1269.5" x2="1807.5" y1="398.4727" y2="398.4727"/><text fill="#000000" font-family="sans-serif" font-size="13" lengthAdjust="spacing" textLength="90" x="1281.5" y="393.21">byte[] message</text><polygon fill="#181818" points="1900,425.7637,1910,429.7637,1900,433.7637,1904,429.7637" style="stroke:#181818;stroke-width:1.0;"/><line style="stroke:#181818;stroke-width:1.0;" x1="1264.5" x2="1906" y1="429.7637" y2="429.7637"/><text fill="#000000" font-family="sans-serif" font-size="13" lengthAdjust="spacing" textLength="133" x="1271.5" y="424.501">decodeCode(message)</text><path d="M1175,444.7637 L1236,444.7637 L1236,454.0547 L1226,464.0547 L1175,464.0547 L1175,444.7637 " fill="#EEEEEE" style="stroke:#000000;stroke-width:1.5;"/><rect fill="none" height="1524.0176" style="stroke:#000000;stroke-width:1.5;" width="2271" x="1175" y="444.7637"/><text fill="#000000" font-family="sans-serif" font-size="13" font-weight="bold" lengthAdjust="spacing" textLength="16" x="1190" y="459.792">alt</text><text fill="#000000" font-family="sans-serif" font-size="11" font-weight="bold" lengthAdjust="spacing" textLength="14" x="1251" y="458.6338">[0]</text><line style="stroke:#181818;stroke-width:1.0;" x1="1264.5" x2="1306.5" y1="487.3457" y2="487.3457"/><line style="stroke:#181818;stroke-width:1.0;" x1="1306.5" x2="1306.5" y1="487.3457" y2="500.3457"/><line style="stroke:#181818;stroke-width:1.0;" x1="1265.5" x2="1306.5" y1="500.3457" y2="500.3457"/><polygon fill="#181818" points="1275.5,496.3457,1265.5,500.3457,1275.5,504.3457,1271.5,500.3457" style="stroke:#181818;stroke-width:1.0;"/><text fill="#000000" font-family="sans-serif" font-size="13" lengthAdjust="spacing" textLength="63" x="1271.5" y="482.083">sendACK()</text><line style="stroke:#000000;stroke-width:1.0;stroke-dasharray:2.0,2.0;" x1="1175" x2="3446" y1="509.3457" y2="509.3457"/><text fill="#000000" font-family="sans-serif" font-size="11" font-weight="bold" lengthAdjust="spacing" textLength="14" x="1180" y="521.2158">[1]</text><line style="stroke:#181818;stroke-width:1.0;" x1="1264.5" x2="1306.5" y1="548.2676" y2="548.2676"/><line style="stroke:#181818;stroke-width:1.0;" x1="1306.5" x2="1306.5" y1="548.2676" y2="561.2676"/><line style="stroke:#181818;stroke-width:1.0;" x1="1265.5" x2="1306.5" y1="561.2676" y2="561.2676"/><polygon fill="#181818" points="1275.5,557.2676,1265.5,561.2676,1275.5,565.2676,1271.5,561.2676" style="stroke:#181818;stroke-width:1.0;"/><text fill="#000000" font-family="sans-serif" font-size="13" lengthAdjust="spacing" textLength="103" x="1271.5" y="543.0049">connected = false</text><line style="stroke:#000000;stroke-width:1.0;stroke-dasharray:2.0,2.0;" x1="1175" x2="3446" y1="570.2676" y2="570.2676"/><text fill="#000000" font-family="sans-serif" font-size="11" font-weight="bold" lengthAdjust="spacing" textLength="14" x="1180" y="582.1377">[4]</text><line style="stroke:#181818;stroke-width:1.0;" x1="1264.5" x2="1306.5" y1="609.1895" y2="609.1895"/><line style="stroke:#181818;stroke-width:1.0;" x1="1306.5" x2="1306.5" y1="609.1895" y2="622.1895"/><line style="stroke:#181818;stroke-width:1.0;" x1="1265.5" x2="1306.5" y1="622.1895" y2="622.1895"/><polygon fill="#181818" points="1275.5,618.1895,1265.5,622.1895,1275.5,626.1895,1271.5,622.1895" style="stroke:#181818;stroke-width:1.0;"/><text fill="#000000" font-family="sans-serif" font-size="13" lengthAdjust="spacing" textLength="132" x="1271.5" y="603.9268">authenticate(message)</text><path d="M1185,637.1895 L1246,637.1895 L1246,646.4805 L1236,656.4805 L1185,656.4805 L1185,637.1895 " fill="#EEEEEE" style="stroke:#000000;stroke-width:1.5;"/><rect fill="none" height="529.6563" style="stroke:#000000;stroke-width:1.5;" width="2251" x="1185" y="637.1895"/><text fill="#000000" font-family="sans-serif" font-size="13" font-weight="bold" lengthAdjust="spacing" textLength="16" x="1200" y="652.2178">alt</text><text fill="#000000" font-family="sans-serif" font-size="11" font-weight="bold" lengthAdjust="spacing" textLength="31" x="1261" y="651.0596">[true]</text><line style="stroke:#181818;stroke-width:1.0;stroke-dasharray:2.0,2.0;" x1="1264.5" x2="1306.5" y1="679.7715" y2="679.7715"/><line style="stroke:#181818;stroke-width:1.0;stroke-dasharray:2.0,2.0;" x1="1306.5" x2="1306.5" y1="679.7715" y2="692.7715"/><line style="stroke:#181818;stroke-width:1.0;stroke-dasharray:2.0,2.0;" x1="1265.5" x2="1306.5" y1="692.7715" y2="692.7715"/><polygon fill="#181818" points="1275.5,688.7715,1265.5,692.7715,1275.5,696.7715,1271.5,692.7715" style="stroke:#181818;stroke-width:1.0;"/><text fill="#000000" font-family="sans-serif" font-size="13" lengthAdjust="spacing" textLength="22" x="1271.5" y="674.5088">true</text><polygon fill="#181818" points="1900,720.0625,1910,724.0625,1900,728.0625,1904,724.0625" style="stroke:#181818;stroke-width:1.0;"/><line style="stroke:#181818;stroke-width:1.0;" x1="1264.5" x2="1906" y1="724.0625" y2="724.0625"/><text fill="#000000" font-family="sans-serif" font-size="13" lengthAdjust="spacing" textLength="137" x="1271.5" y="718.7998">decodeData1(message)</text><polygon fill="#181818" points="1275.5,751.3535,1265.5,755.3535,1275.5,759.3535,1271.5,755.3535" style="stroke:#181818;stroke-width:1.0;"/><line style="stroke:#181818;stroke-width:1.0;stroke-dasharray:2.0,2.0;" x1="1269.5" x2="1916" y1="755.3535" y2="755.3535"/><text fill="#000000" font-family="sans-serif" font-size="13" lengthAdjust="spacing" textLength="58" x="1281.5" y="750.0908">userEmail</text><polygon fill="#181818" points="1956.5,782.6445,1966.5,786.6445,1956.5,790.6445,1960.5,786.6445" style="stroke:#181818;stroke-width:1.0;"/><line style="stroke:#181818;stroke-width:1.0;" x1="1264.5" x2="1962.5" y1="786.6445" y2="786.6445"/><text fill="#000000" font-family="sans-serif" font-size="13" lengthAdjust="spacing" textLength="126" x="1271.5" y="781.3818">new Email(userEmail)</text><rect fill="#E2E2F0" height="51.2422" rx="2.5" ry="2.5" style="stroke:#181818;stroke-width:0.5;" width="105" x="1968.5" y="763.3535"/><text fill="#000000" font-family="sans-serif" font-size="14" font-style="italic" lengthAdjust="spacing" textLength="91" x="1975.5" y="785.4609">&#171;value object&#187;</text><text fill="#000000" font-family="sans-serif" font-size="14" lengthAdjust="spacing" textLength="38" x="2002" y="804.082">:Email</text><polygon fill="#181818" points="2145,844.8867,2155,848.8867,2145,852.8867,2149,848.8867" style="stroke:#181818;stroke-width:1.0;"/><line style="stroke:#181818;stroke-width:1.0;" x1="1264.5" x2="2151" y1="848.8867" y2="848.8867"/><text fill="#000000" font-family="sans-serif" font-size="13" lengthAdjust="spacing" textLength="108" x="1271.5" y="843.624">findByEmail(email)</text><path d="M1195,863.8867 L1256,863.8867 L1256,873.1777 L1246,883.1777 L1195,883.1777 L1195,863.8867 " fill="#EEEEEE" style="stroke:#000000;stroke-width:1.5;"/><rect fill="none" height="50.582" style="stroke:#000000;stroke-width:1.5;" width="888.5" x="1195" y="863.8867"/><text fill="#000000" font-family="sans-serif" font-size="13" font-weight="bold" lengthAdjust="spacing" textLength="16" x="1210" y="878.915">alt</text><text fill="#000000" font-family="sans-serif" font-size="11" font-weight="bold" lengthAdjust="spacing" textLength="62" x="1271" y="877.7568">[isPresent]</text><polygon fill="#181818" points="2009,902.4688,2019,906.4688,2009,910.4688,2013,906.4688" style="stroke:#181818;stroke-width:1.0;"/><line style="stroke:#181818;stroke-width:1.0;" x1="1264.5" x2="2015" y1="906.4688" y2="906.4688"/><text fill="#000000" font-family="sans-serif" font-size="13" lengthAdjust="spacing" textLength="26" x="1271.5" y="901.2061">get()</text><polygon fill="#181818" points="3338.5,940.7598,3348.5,944.7598,3338.5,948.7598,3342.5,944.7598" style="stroke:#181818;stroke-width:1.0;"/><line style="stroke:#181818;stroke-width:1.0;" x1="1264.5" x2="3344.5" y1="944.7598" y2="944.7598"/><text fill="#000000" font-family="sans-serif" font-size="13" lengthAdjust="spacing" textLength="108" x="1271.5" y="939.4971">findByEmail(email)</text><path d="M1195,959.7598 L1256,959.7598 L1256,969.0508 L1246,979.0508 L1195,979.0508 L1195,959.7598 " fill="#EEEEEE" style="stroke:#000000;stroke-width:1.5;"/><rect fill="none" height="50.582" style="stroke:#000000;stroke-width:1.5;" width="888.5" x="1195" y="959.7598"/><text fill="#000000" font-family="sans-serif" font-size="13" font-weight="bold" lengthAdjust="spacing" textLength="16" x="1210" y="974.7881">alt</text><text fill="#000000" font-family="sans-serif" font-size="11" font-weight="bold" lengthAdjust="spacing" textLength="62" x="1271" y="973.6299">[isPresent]</text><polygon fill="#181818" points="2009,998.3418,2019,1002.3418,2009,1006.3418,2013,1002.3418" style="stroke:#181818;stroke-width:1.0;"/><line style="stroke:#181818;stroke-width:1.0;" x1="1264.5" x2="2015" y1="1002.3418" y2="1002.3418"/><text fill="#000000" font-family="sans-serif" font-size="13" lengthAdjust="spacing" textLength="26" x="1271.5" y="997.0791">get()</text><line style="stroke:#181818;stroke-width:1.0;" x1="1264.5" x2="1306.5" y1="1040.6328" y2="1040.6328"/><line style="stroke:#181818;stroke-width:1.0;" x1="1306.5" x2="1306.5" y1="1040.6328" y2="1053.6328"/><line style="stroke:#181818;stroke-width:1.0;" x1="1265.5" x2="1306.5" y1="1053.6328" y2="1053.6328"/><polygon fill="#181818" points="1275.5,1049.6328,1265.5,1053.6328,1275.5,1057.6328,1271.5,1053.6328" style="stroke:#181818;stroke-width:1.0;"/><text fill="#000000" font-family="sans-serif" font-size="13" lengthAdjust="spacing" textLength="63" x="1271.5" y="1035.3701">sendACK()</text><line style="stroke:#000000;stroke-width:1.0;stroke-dasharray:2.0,2.0;" x1="1185" x2="3436" y1="1062.6328" y2="1062.6328"/><text fill="#000000" font-family="sans-serif" font-size="11" font-weight="bold" lengthAdjust="spacing" textLength="35" x="1190" y="1074.5029">[false]</text><line style="stroke:#181818;stroke-width:1.0;stroke-dasharray:2.0,2.0;" x1="1264.5" x2="1306.5" y1="1101.5547" y2="1101.5547"/><line style="stroke:#181818;stroke-width:1.0;stroke-dasharray:2.0,2.0;" x1="1306.5" x2="1306.5" y1="1101.5547" y2="1114.5547"/><line style="stroke:#181818;stroke-width:1.0;stroke-dasharray:2.0,2.0;" x1="1265.5" x2="1306.5" y1="1114.5547" y2="1114.5547"/><polygon fill="#181818" points="1275.5,1110.5547,1265.5,1114.5547,1275.5,1118.5547,1271.5,1114.5547" style="stroke:#181818;stroke-width:1.0;"/><text fill="#000000" font-family="sans-serif" font-size="13" lengthAdjust="spacing" textLength="27" x="1271.5" y="1096.292">false</text><line style="stroke:#181818;stroke-width:1.0;" x1="1264.5" x2="1306.5" y1="1145.8457" y2="1145.8457"/><line style="stroke:#181818;stroke-width:1.0;" x1="1306.5" x2="1306.5" y1="1145.8457" y2="1158.8457"/><line style="stroke:#181818;stroke-width:1.0;" x1="1265.5" x2="1306.5" y1="1158.8457" y2="1158.8457"/><polygon fill="#181818" points="1275.5,1154.8457,1265.5,1158.8457,1275.5,1162.8457,1271.5,1158.8457" style="stroke:#181818;stroke-width:1.0;"/><text fill="#000000" font-family="sans-serif" font-size="13" lengthAdjust="spacing" textLength="63" x="1271.5" y="1140.583">sendERR()</text><line style="stroke:#000000;stroke-width:1.0;stroke-dasharray:2.0,2.0;" x1="1175" x2="3446" y1="1174.8457" y2="1174.8457"/><text fill="#000000" font-family="sans-serif" font-size="11" font-weight="bold" lengthAdjust="spacing" textLength="14" x="1180" y="1186.7158">[5]</text><polygon fill="#181818" points="2228.5,1209.7676,2238.5,1213.7676,2228.5,1217.7676,2232.5,1213.7676" style="stroke:#181818;stroke-width:1.0;"/><line style="stroke:#181818;stroke-width:1.0;" x1="1264.5" x2="2234.5" y1="1213.7676" y2="1213.7676"/><text fill="#000000" font-family="sans-serif" font-size="13" lengthAdjust="spacing" textLength="44" x="1271.5" y="1208.5049">create()</text><rect fill="#E2E2F0" height="51.2422" rx="2.5" ry="2.5" style="stroke:#181818;stroke-width:0.5;" width="200" x="2240.5" y="1190.4766"/><text fill="#000000" font-family="sans-serif" font-size="14" font-style="italic" lengthAdjust="spacing" textLength="84" x="2298.5" y="1212.584">&#171;application&#187;</text><text fill="#000000" font-family="sans-serif" font-size="14" lengthAdjust="spacing" textLength="186" x="2247.5" y="1231.2051">:ListJobApplicationsController</text><polygon fill="#181818" points="2323.5,1272.0098,2333.5,1276.0098,2323.5,1280.0098,2327.5,1276.0098" style="stroke:#181818;stroke-width:1.0;"/><line style="stroke:#181818;stroke-width:1.0;" x1="1264.5" x2="2329.5" y1="1276.0098" y2="1276.0098"/><text fill="#000000" font-family="sans-serif" font-size="13" lengthAdjust="spacing" textLength="193" x="1271.5" y="1270.7471">listJobApplicationsForCandidate()</text><polygon fill="#181818" points="2494,1303.3008,2504,1307.3008,2494,1311.3008,2498,1307.3008" style="stroke:#181818;stroke-width:1.0;"/><line style="stroke:#181818;stroke-width:1.0;" x1="2345.5" x2="2500" y1="1307.3008" y2="1307.3008"/><text fill="#000000" font-family="sans-serif" font-size="13" lengthAdjust="spacing" textLength="44" x="2352.5" y="1302.0381">create()</text><rect fill="#E2E2F0" height="51.2422" rx="2.5" ry="2.5" style="stroke:#181818;stroke-width:0.5;" width="185" x="2506" y="1284.0098"/><text fill="#000000" font-family="sans-serif" font-size="14" font-style="italic" lengthAdjust="spacing" textLength="60" x="2568.5" y="1306.1172">&#171;service&#187;</text><text fill="#000000" font-family="sans-serif" font-size="14" lengthAdjust="spacing" textLength="171" x="2513" y="1324.7383">:ListJobApplicationsService</text><polygon fill="#181818" points="2581.5,1365.543,2591.5,1369.543,2581.5,1373.543,2585.5,1369.543" style="stroke:#181818;stroke-width:1.0;"/><line style="stroke:#181818;stroke-width:1.0;" x1="2345.5" x2="2587.5" y1="1369.543" y2="1369.543"/><text fill="#000000" font-family="sans-serif" font-size="13" lengthAdjust="spacing" textLength="224" x="2352.5" y="1364.2803">listJobApplicationsForCandidate(email)</text><polygon fill="#181818" points="3333.5,1396.834,3343.5,1400.834,3333.5,1404.834,3337.5,1400.834" style="stroke:#181818;stroke-width:1.0;"/><line style="stroke:#181818;stroke-width:1.0;" x1="2603.5" x2="3339.5" y1="1400.834" y2="1400.834"/><text fill="#000000" font-family="sans-serif" font-size="13" lengthAdjust="spacing" textLength="223" x="2610.5" y="1395.5713">findByCandidateEmail(email.toString())</text><polygon fill="#181818" points="2614.5,1428.125,2604.5,1432.125,2614.5,1436.125,2610.5,1432.125" style="stroke:#181818;stroke-width:1.0;"/><line style="stroke:#181818;stroke-width:1.0;stroke-dasharray:2.0,2.0;" x1="2608.5" x2="3344.5" y1="1432.125" y2="1432.125"/><text fill="#000000" font-family="sans-serif" font-size="13" lengthAdjust="spacing" textLength="56" x="2620.5" y="1426.8623">candidate</text><line style="stroke:#181818;stroke-width:1.0;" x1="2603.5" x2="2645.5" y1="1463.416" y2="1463.416"/><line style="stroke:#181818;stroke-width:1.0;" x1="2645.5" x2="2645.5" y1="1463.416" y2="1476.416"/><line style="stroke:#181818;stroke-width:1.0;" x1="2604.5" x2="2645.5" y1="1476.416" y2="1476.416"/><polygon fill="#181818" points="2614.5,1472.416,2604.5,1476.416,2614.5,1480.416,2610.5,1476.416" style="stroke:#181818;stroke-width:1.0;"/><text fill="#000000" font-family="sans-serif" font-size="13" lengthAdjust="spacing" textLength="305" x="2610.5" y="1458.1533">addJobApplicationsDetails(customerJobApplications)</text><path d="M2496,1491.416 L2569,1491.416 L2569,1500.707 L2559,1510.707 L2496,1510.707 L2496,1491.416 " fill="#EEEEEE" style="stroke:#000000;stroke-width:1.5;"/><rect fill="none" height="269.6191" style="stroke:#000000;stroke-width:1.5;" width="940" x="2496" y="1491.416"/><text fill="#000000" font-family="sans-serif" font-size="13" font-weight="bold" lengthAdjust="spacing" textLength="28" x="2511" y="1506.4443">loop</text><text fill="#000000" font-family="sans-serif" font-size="11" font-weight="bold" lengthAdjust="spacing" textLength="117" x="2584" y="1505.2861">[for each Application]</text><polygon fill="#181818" points="2910.5,1529.998,2920.5,1533.998,2910.5,1537.998,2914.5,1533.998" style="stroke:#181818;stroke-width:1.0;"/><line style="stroke:#181818;stroke-width:1.0;" x1="2603.5" x2="2916.5" y1="1533.998" y2="1533.998"/><text fill="#000000" font-family="sans-serif" font-size="13" lengthAdjust="spacing" textLength="45" x="2610.5" y="1528.7354">toDTO()</text><polygon fill="#181818" points="2614.5,1561.2891,2604.5,1565.2891,2614.5,1569.2891,2610.5,1565.2891" style="stroke:#181818;stroke-width:1.0;"/><line style="stroke:#181818;stroke-width:1.0;stroke-dasharray:2.0,2.0;" x1="2608.5" x2="2926.5" y1="1565.2891" y2="1565.2891"/><text fill="#000000" font-family="sans-serif" font-size="13" lengthAdjust="spacing" textLength="110" x="2620.5" y="1560.0264">JobApplicationDTO</text><polygon fill="#181818" points="3044.5,1592.5801,3054.5,1596.5801,3044.5,1600.5801,3048.5,1596.5801" style="stroke:#181818;stroke-width:1.0;"/><line style="stroke:#181818;stroke-width:1.0;" x1="2603.5" x2="3050.5" y1="1596.5801" y2="1596.5801"/><text fill="#000000" font-family="sans-serif" font-size="13" lengthAdjust="spacing" textLength="143" x="2610.5" y="1591.3174">getJobOpening().toDTO()</text><polygon fill="#181818" points="2614.5,1623.8711,2604.5,1627.8711,2614.5,1631.8711,2610.5,1627.8711" style="stroke:#181818;stroke-width:1.0;"/><line style="stroke:#181818;stroke-width:1.0;stroke-dasharray:2.0,2.0;" x1="2608.5" x2="3060.5" y1="1627.8711" y2="1627.8711"/><text fill="#000000" font-family="sans-serif" font-size="13" lengthAdjust="spacing" textLength="94" x="2620.5" y="1622.6084">JobOpeningDTO</text><polygon fill="#181818" points="3186,1655.1621,3196,1659.1621,3186,1663.1621,3190,1659.1621" style="stroke:#181818;stroke-width:1.0;"/><line style="stroke:#181818;stroke-width:1.0;" x1="2603.5" x2="3192" y1="1659.1621" y2="1659.1621"/><text fill="#000000" font-family="sans-serif" font-size="13" lengthAdjust="spacing" textLength="104" x="2610.5" y="1653.8994">getJobReference()</text><polygon fill="#181818" points="2614.5,1686.4531,2604.5,1690.4531,2614.5,1694.4531,2610.5,1690.4531" style="stroke:#181818;stroke-width:1.0;"/><line style="stroke:#181818;stroke-width:1.0;stroke-dasharray:2.0,2.0;" x1="2608.5" x2="3202" y1="1690.4531" y2="1690.4531"/><text fill="#000000" font-family="sans-serif" font-size="13" lengthAdjust="spacing" textLength="75" x="2620.5" y="1685.1904">jobReference</text><polygon fill="#181818" points="3338.5,1717.7441,3348.5,1721.7441,3338.5,1725.7441,3342.5,1721.7441" style="stroke:#181818;stroke-width:1.0;"/><line style="stroke:#181818;stroke-width:1.0;" x1="2603.5" x2="3344.5" y1="1721.7441" y2="1721.7441"/><text fill="#000000" font-family="sans-serif" font-size="13" lengthAdjust="spacing" textLength="280" x="2610.5" y="1716.4814">countApplicationsByJobReference(jobReference)</text><polygon fill="#181818" points="2614.5,1749.0352,2604.5,1753.0352,2614.5,1757.0352,2610.5,1753.0352" style="stroke:#181818;stroke-width:1.0;"/><line style="stroke:#181818;stroke-width:1.0;stroke-dasharray:2.0,2.0;" x1="2608.5" x2="3344.5" y1="1753.0352" y2="1753.0352"/><text fill="#000000" font-family="sans-serif" font-size="13" lengthAdjust="spacing" textLength="117" x="2620.5" y="1747.7725">numberOfApplicants</text><polygon fill="#181818" points="2356.5,1787.3262,2346.5,1791.3262,2356.5,1795.3262,2352.5,1791.3262" style="stroke:#181818;stroke-width:1.0;"/><line style="stroke:#181818;stroke-width:1.0;stroke-dasharray:2.0,2.0;" x1="2350.5" x2="2597.5" y1="1791.3262" y2="1791.3262"/><text fill="#000000" font-family="sans-serif" font-size="13" lengthAdjust="spacing" textLength="161" x="2362.5" y="1786.0635">candidateJobApplication list</text><polygon fill="#181818" points="1275.5,1818.6172,1265.5,1822.6172,1275.5,1826.6172,1271.5,1822.6172" style="stroke:#181818;stroke-width:1.0;"/><line style="stroke:#181818;stroke-width:1.0;stroke-dasharray:2.0,2.0;" x1="1269.5" x2="2339.5" y1="1822.6172" y2="1822.6172"/><text fill="#000000" font-family="sans-serif" font-size="13" lengthAdjust="spacing" textLength="161" x="1281.5" y="1817.3545">candidateJobApplication list</text><line style="stroke:#181818;stroke-width:1.0;" x1="1264.5" x2="1306.5" y1="1853.9082" y2="1853.9082"/><line style="stroke:#181818;stroke-width:1.0;" x1="1306.5" x2="1306.5" y1="1853.9082" y2="1866.9082"/><line style="stroke:#181818;stroke-width:1.0;" x1="1265.5" x2="1306.5" y1="1866.9082" y2="1866.9082"/><polygon fill="#181818" points="1275.5,1862.9082,1265.5,1866.9082,1275.5,1870.9082,1271.5,1866.9082" style="stroke:#181818;stroke-width:1.0;"/><text fill="#000000" font-family="sans-serif" font-size="13" lengthAdjust="spacing" textLength="292" x="1271.5" y="1848.6455">sendSHOW_JOB_APPLICATIONS(applicationList)</text><polygon fill="#181818" points="1900,1894.1992,1910,1898.1992,1900,1902.1992,1904,1898.1992" style="stroke:#181818;stroke-width:1.0;"/><line style="stroke:#181818;stroke-width:1.0;" x1="1264.5" x2="1906" y1="1898.1992" y2="1898.1992"/><text fill="#000000" font-family="sans-serif" font-size="13" lengthAdjust="spacing" textLength="178" x="1271.5" y="1892.9365">serializeListJobApplication(list)</text><polygon fill="#181818" points="1275.5,1925.4902,1265.5,1929.4902,1275.5,1933.4902,1271.5,1929.4902" style="stroke:#181818;stroke-width:1.0;"/><line style="stroke:#181818;stroke-width:1.0;stroke-dasharray:2.0,2.0;" x1="1269.5" x2="1916" y1="1929.4902" y2="1929.4902"/><text fill="#000000" font-family="sans-serif" font-size="13" lengthAdjust="spacing" textLength="90" x="1281.5" y="1924.2275">byte[] message</text><polygon fill="#181818" points="1801.5,1956.7813,1811.5,1960.7813,1801.5,1964.7813,1805.5,1960.7813" style="stroke:#181818;stroke-width:1.0;"/><line style="stroke:#181818;stroke-width:1.0;" x1="1259.5" x2="1807.5" y1="1960.7813" y2="1960.7813"/><text fill="#000000" font-family="sans-serif" font-size="13" lengthAdjust="spacing" textLength="520" x="1266.5" y="1955.5186">writeObject(Translator.encode(1, MessageCode.SHOW_JOB_APPLICATIONS, data, null))</text><line style="stroke:#000000;stroke-width:1.0;stroke-dasharray:2.0,2.0;" x1="20" x2="3456" y1="1976.7813" y2="1976.7813"/><text fill="#000000" font-family="sans-serif" font-size="11" font-weight="bold" lengthAdjust="spacing" textLength="35" x="25" y="1988.6514">[false]</text><polygon fill="#181818" points="428,2011.7031,418,2015.7031,428,2019.7031,424,2015.7031" style="stroke:#181818;stroke-width:1.0;"/><line style="stroke:#181818;stroke-width:1.0;stroke-dasharray:2.0,2.0;" x1="422" x2="637" y1="2015.7031" y2="2015.7031"/><text fill="#000000" font-family="sans-serif" font-size="13" lengthAdjust="spacing" textLength="27" x="434" y="2010.4404">false</text><polygon fill="#181818" points="98,2042.9941,88,2046.9941,98,2050.9941,94,2046.9941" style="stroke:#181818;stroke-width:1.0;"/><line style="stroke:#181818;stroke-width:1.0;stroke-dasharray:2.0,2.0;" x1="92" x2="411" y1="2046.9941" y2="2046.9941"/><text fill="#000000" font-family="sans-serif" font-size="13" lengthAdjust="spacing" textLength="296" x="104" y="2041.7314">Could not accept new connection. The server is full!</text><!--SRC=[fLTRRzis57xNh-1Ie923n4YmxaNe0YHAkzvM1NQAFGn3G4l7DZEQ52GggVVhUqIA57LpZ3L0R8dypiV3SxTYYWDvBpcNpz_o9HHFK91RHZS5tJryM_vwSN4H1C5AVYSdNT09USNPPgis1O08SbeebhAS2aLEeaKgTmv6IwBVUnXlkzIFW_qTpRUoWFUow62RvHxyVbi0pJH4wSS-7Tlb73vGaN7Bf5TwC1-mDSy1Y8oW0O8kDCPTbb45rtb-GcfyJFESl9855HkmDejHKskf5Qy6MYEuv5H9Sw9ohptSknrbN4EWVY9ltpvHP2DozGYfkhhgmUEgL787nG9oMJAasslPj5b6ySBj38I_i59zaYky5cSfLKoACfP25UZznZ2FtLsae-thCNorFraA8sJD3bAMvcb0rwNI50d2GIYczY-WR-yJBP0fYIBuEOPFSX1CR3niCW5s8T2tirs7lgLTAD5KiIT4DAcXFydvLPCAfwSH4V1CJDo7TydYVjQADEbYlenGanCHOQ9KLAGGpkOM7nSCTQPyYP62DWWxJ3QP0ieLXXy6g5iZvqwVo6xP4qsAdPuIewT9lj3icvS_2bdbP-OMVkereALC_mM5SIMCLhDPyBfXhK_L4iuAnyW70PSo9yzRXkKiDUkG1JedpnrbH5Px1N__GtPGbXJJr9cY1dg6CRN1VEaBkyoCI0Qfp236_x2XyKpgfR2swOL7OdKeCGokuy_e2U0baCiHYBi1-PsiAQ8CzCq8b5PgMqS_XhYdaEVGHi8JwQoFNUwMAdhPahM03as5lj2LASXWp03j2RfgMNzgaT09ppoShL0HMJEHtUmD50nCNucLTmMW0LMVFI8RKBL9HHRuZ2uNVvBpa1kDSuoVHipTtUWIl5iihDAQv3SFrwkpjVrIp11qinTmFT2qU4Jui19ZStLL35dxbNt0qjJdOrHfe4TplgnVuxFnZZ7gQoVhENskv58LME73cQTxAnjuvVjyMbc7cjPdGf9cMU-Mjw1GiJAquT_RjiLjZVc7YRObtcOG4FoRL271P9VOoj1DDSvTDz6loQ4B3bgd5l4oFJbyD7PCdJzjIyMcDAeC8WqtjkN32hMzkQ-CvJYaJcBrMS0Q2j1jSg19ObKvQ9n7ZsH4bHTCuqLONUeheNntt-mxAlf7zTJrWhPUFovmHRLRGP6icpsXolu5F5fJcIOkCbPZd6mtV7Hk-stYo5hXjyJ_nLnErDtbX-IlXq_9pSFrtTsNZ_7r_SVawpBqvjXwR9rDD4biNOnozXyCPzkGQxcnTZZHHNiJoKkjj1vK8lACGnqaUleFsnyHSuoHUYovF2D_6hfwIfcFtlMCe2qfJcWLvrW8lMFrAEIzDyDGswEQVZOwA9ezNzhDc7PyHBIUToCIoufdH4Y58Pr2hlHuaBgXRew3fHrtiKcJDQhwIvTRJyArPZy0]--></g></svg>