<?xml version="1.0" encoding="us-ascii" standalone="no"?><svg xmlns="http://www.w3.org/2000/svg" xmlns:xlink="http://www.w3.org/1999/xlink" contentStyleType="text/css" height="767px" preserveAspectRatio="none" style="width:1383px;height:767px;background:#FFFFFF;" version="1.1" viewBox="0 0 1383 767" width="1383px" zoomAndPan="magnify"><defs/><g><text fill="#000000" font-family="sans-serif" font-size="14" font-weight="bold" lengthAdjust="spacing" textLength="288" x="546.75" y="28.5352">Login Diagram (CandidaterApp)_US3000</text><rect fill="#90EE90" height="718.2109" style="stroke:#181818;stroke-width:0.5;" width="123" x="151.5" y="43.4883"/><text fill="#000000" font-family="sans-serif" font-size="13" font-weight="bold" lengthAdjust="spacing" textLength="97" x="164.5" y="56.0566">CandidateApp</text><rect fill="#ADD8E6" height="718.2109" style="stroke:#181818;stroke-width:0.5;" width="942" x="308.5" y="43.4883"/><text fill="#000000" font-family="sans-serif" font-size="13" font-weight="bold" lengthAdjust="spacing" textLength="31" x="762" y="56.0566">Core</text><rect fill="#FFFFFF" height="544.2344" style="stroke:#181818;stroke-width:1.0;" width="10" x="53" y="128.9766"/><rect fill="#FFFFFF" height="522.9238" style="stroke:#181818;stroke-width:1.0;" width="10" x="208" y="150.2871"/><rect fill="#FFFFFF" height="448.3027" style="stroke:#181818;stroke-width:1.0;" width="10" x="406" y="179.5977"/><rect fill="#FFFFFF" height="389.6816" style="stroke:#181818;stroke-width:1.0;" width="10" x="604" y="208.9082"/><rect fill="#FFFFFF" height="29.3105" style="stroke:#181818;stroke-width:1.0;" width="10" x="1095" y="238.2188"/><rect fill="#FFFFFF" height="29.3105" style="stroke:#181818;stroke-width:1.0;" width="10" x="1095" y="412.7715"/><rect fill="#FFFFFF" height="86.6211" style="stroke:#181818;stroke-width:1.0;" width="10" x="1195.5" y="296.8398"/><rect fill="#FFFFFF" height="14" style="stroke:#181818;stroke-width:1.0;" width="10" x="1312" y="310.8398"/><rect fill="none" height="208.1289" style="stroke:#000000;stroke-width:1.5;" width="696.5" x="10" y="457.082"/><line style="stroke:#181818;stroke-width:0.5;stroke-dasharray:5.0,5.0;" x1="58" x2="58" y1="118.9766" y2="682.2109"/><line style="stroke:#181818;stroke-width:0.5;stroke-dasharray:5.0,5.0;" x1="212.5" x2="212.5" y1="118.9766" y2="682.2109"/><line style="stroke:#181818;stroke-width:0.5;stroke-dasharray:5.0,5.0;" x1="410.5" x2="410.5" y1="118.9766" y2="682.2109"/><line style="stroke:#181818;stroke-width:0.5;stroke-dasharray:5.0,5.0;" x1="608.5" x2="608.5" y1="118.9766" y2="682.2109"/><line style="stroke:#181818;stroke-width:0.5;stroke-dasharray:5.0,5.0;" x1="1099.5" x2="1099.5" y1="118.9766" y2="682.2109"/><line style="stroke:#181818;stroke-width:0.5;stroke-dasharray:5.0,5.0;" x1="1200.5" x2="1200.5" y1="118.9766" y2="682.2109"/><line style="stroke:#181818;stroke-width:0.5;stroke-dasharray:5.0,5.0;" x1="1316.5" x2="1316.5" y1="118.9766" y2="682.2109"/><text fill="#000000" font-family="sans-serif" font-size="14" lengthAdjust="spacing" textLength="70" x="20" y="116.0234">Candidate</text><ellipse cx="58" cy="50.9883" fill="#FFA500" rx="8" ry="8" style="stroke:#181818;stroke-width:0.5;"/><path d="M58,58.9883 L58,85.9883 M45,66.9883 L71,66.9883 M58,85.9883 L45,100.9883 M58,85.9883 L71,100.9883 " fill="none" style="stroke:#181818;stroke-width:0.5;"/><text fill="#000000" font-family="sans-serif" font-size="14" lengthAdjust="spacing" textLength="70" x="20" y="694.7461">Candidate</text><ellipse cx="58" cy="706.1992" fill="#FFA500" rx="8" ry="8" style="stroke:#181818;stroke-width:0.5;"/><path d="M58,714.1992 L58,741.1992 M45,722.1992 L71,722.1992 M58,741.1992 L45,756.1992 M58,741.1992 L71,756.1992 " fill="none" style="stroke:#181818;stroke-width:0.5;"/><rect fill="#E2E2F0" height="46.9766" rx="2.5" ry="2.5" style="stroke:#181818;stroke-width:0.5;" width="115" x="155.5" y="71"/><text fill="#000000" font-family="sans-serif" font-size="14" font-style="italic" lengthAdjust="spacing" textLength="101" x="162.5" y="91.5352">&#171;presentation&#187;</text><text fill="#000000" font-family="sans-serif" font-size="14" lengthAdjust="spacing" textLength="99" x="163.5" y="108.0234">:ServerLoginUI</text><rect fill="#E2E2F0" height="46.9766" rx="2.5" ry="2.5" style="stroke:#181818;stroke-width:0.5;" width="115" x="155.5" y="681.2109"/><text fill="#000000" font-family="sans-serif" font-size="14" font-style="italic" lengthAdjust="spacing" textLength="101" x="162.5" y="701.7461">&#171;presentation&#187;</text><text fill="#000000" font-family="sans-serif" font-size="14" lengthAdjust="spacing" textLength="99" x="163.5" y="718.2344">:ServerLoginUI</text><rect fill="#E2E2F0" height="46.9766" rx="2.5" ry="2.5" style="stroke:#181818;stroke-width:0.5;" width="197" x="312.5" y="71"/><text fill="#000000" font-family="sans-serif" font-size="14" font-style="italic" lengthAdjust="spacing" textLength="90" x="366" y="91.5352">&#171;application&#187;</text><text fill="#000000" font-family="sans-serif" font-size="14" lengthAdjust="spacing" textLength="183" x="319.5" y="108.0234">:CommunicationController</text><rect fill="#E2E2F0" height="46.9766" rx="2.5" ry="2.5" style="stroke:#181818;stroke-width:0.5;" width="197" x="312.5" y="681.2109"/><text fill="#000000" font-family="sans-serif" font-size="14" font-style="italic" lengthAdjust="spacing" textLength="90" x="366" y="701.7461">&#171;application&#187;</text><text fill="#000000" font-family="sans-serif" font-size="14" lengthAdjust="spacing" textLength="183" x="319.5" y="718.2344">:CommunicationController</text><rect fill="#E2E2F0" height="46.9766" rx="2.5" ry="2.5" style="stroke:#181818;stroke-width:0.5;" width="175" x="521.5" y="71"/><text fill="#000000" font-family="sans-serif" font-size="14" font-style="italic" lengthAdjust="spacing" textLength="61" x="578.5" y="91.5352">&#171;service&#187;</text><text fill="#000000" font-family="sans-serif" font-size="14" lengthAdjust="spacing" textLength="161" x="528.5" y="108.0234">:CommunicationService</text><rect fill="#E2E2F0" height="46.9766" rx="2.5" ry="2.5" style="stroke:#181818;stroke-width:0.5;" width="175" x="521.5" y="681.2109"/><text fill="#000000" font-family="sans-serif" font-size="14" font-style="italic" lengthAdjust="spacing" textLength="61" x="578.5" y="701.7461">&#171;service&#187;</text><text fill="#000000" font-family="sans-serif" font-size="14" lengthAdjust="spacing" textLength="161" x="528.5" y="718.2344">:CommunicationService</text><rect fill="#E2E2F0" height="30.4883" rx="2.5" ry="2.5" style="stroke:#181818;stroke-width:0.5;" width="89" x="1055.5" y="87.4883"/><text fill="#000000" font-family="sans-serif" font-size="14" lengthAdjust="spacing" textLength="75" x="1062.5" y="108.0234">:Translator</text><rect fill="#E2E2F0" height="30.4883" rx="2.5" ry="2.5" style="stroke:#181818;stroke-width:0.5;" width="89" x="1055.5" y="681.2109"/><text fill="#000000" font-family="sans-serif" font-size="14" lengthAdjust="spacing" textLength="75" x="1062.5" y="701.7461">:Translator</text><rect fill="#E2E2F0" height="30.4883" rx="2.5" ry="2.5" style="stroke:#181818;stroke-width:0.5;" width="92" x="1154.5" y="87.4883"/><text fill="#000000" font-family="sans-serif" font-size="14" lengthAdjust="spacing" textLength="78" x="1161.5" y="108.0234">:Messenger</text><rect fill="#E2E2F0" height="30.4883" rx="2.5" ry="2.5" style="stroke:#181818;stroke-width:0.5;" width="92" x="1154.5" y="681.2109"/><text fill="#000000" font-family="sans-serif" font-size="14" lengthAdjust="spacing" textLength="78" x="1161.5" y="701.7461">:Messenger</text><rect fill="#FFA500" height="30.4883" rx="2.5" ry="2.5" style="stroke:#181818;stroke-width:0.5;" width="121" x="1256.5" y="87.4883"/><text fill="#000000" font-family="sans-serif" font-size="14" lengthAdjust="spacing" textLength="107" x="1263.5" y="108.0234">FollowUpServer</text><rect fill="#FFA500" height="30.4883" rx="2.5" ry="2.5" style="stroke:#181818;stroke-width:0.5;" width="121" x="1256.5" y="681.2109"/><text fill="#000000" font-family="sans-serif" font-size="14" lengthAdjust="spacing" textLength="107" x="1263.5" y="701.7461">FollowUpServer</text><rect fill="#FFFFFF" height="544.2344" style="stroke:#181818;stroke-width:1.0;" width="10" x="53" y="128.9766"/><rect fill="#FFFFFF" height="522.9238" style="stroke:#181818;stroke-width:1.0;" width="10" x="208" y="150.2871"/><rect fill="#FFFFFF" height="448.3027" style="stroke:#181818;stroke-width:1.0;" width="10" x="406" y="179.5977"/><rect fill="#FFFFFF" height="389.6816" style="stroke:#181818;stroke-width:1.0;" width="10" x="604" y="208.9082"/><rect fill="#FFFFFF" height="29.3105" style="stroke:#181818;stroke-width:1.0;" width="10" x="1095" y="238.2188"/><rect fill="#FFFFFF" height="29.3105" style="stroke:#181818;stroke-width:1.0;" width="10" x="1095" y="412.7715"/><rect fill="#FFFFFF" height="86.6211" style="stroke:#181818;stroke-width:1.0;" width="10" x="1195.5" y="296.8398"/><rect fill="#FFFFFF" height="14" style="stroke:#181818;stroke-width:1.0;" width="10" x="1312" y="310.8398"/><polygon fill="#181818" points="196,146.2871,206,150.2871,196,154.2871,200,150.2871" style="stroke:#181818;stroke-width:1.0;"/><line style="stroke:#181818;stroke-width:1.0;" x1="63" x2="202" y1="150.2871" y2="150.2871"/><text fill="#000000" font-family="sans-serif" font-size="13" lengthAdjust="spacing" textLength="126" x="70" y="145.5449">asks to do the login</text><polygon fill="#181818" points="394,175.5977,404,179.5977,394,183.5977,398,179.5977" style="stroke:#181818;stroke-width:1.0;"/><line style="stroke:#181818;stroke-width:1.0;" x1="218" x2="400" y1="179.5977" y2="179.5977"/><text fill="#000000" font-family="sans-serif" font-size="13" lengthAdjust="spacing" textLength="169" x="225" y="174.8555">login(userEmail, password)</text><polygon fill="#181818" points="592,204.9082,602,208.9082,592,212.9082,596,208.9082" style="stroke:#181818;stroke-width:1.0;"/><line style="stroke:#181818;stroke-width:1.0;" x1="416" x2="598" y1="208.9082" y2="208.9082"/><text fill="#000000" font-family="sans-serif" font-size="13" lengthAdjust="spacing" textLength="169" x="423" y="204.166">login(userEmail, password)</text><polygon fill="#181818" points="1083,234.2188,1093,238.2188,1083,242.2188,1087,238.2188" style="stroke:#181818;stroke-width:1.0;"/><line style="stroke:#181818;stroke-width:1.0;" x1="614" x2="1089" y1="238.2188" y2="238.2188"/><text fill="#000000" font-family="sans-serif" font-size="13" lengthAdjust="spacing" textLength="462" x="621" y="233.4766">encode(1, MessageCode.AUTH, userEmail.getBytes(), password.getBytes())</text><polygon fill="#181818" points="625,263.5293,615,267.5293,625,271.5293,621,267.5293" style="stroke:#181818;stroke-width:1.0;"/><line style="stroke:#181818;stroke-width:1.0;stroke-dasharray:2.0,2.0;" x1="619" x2="1099" y1="267.5293" y2="267.5293"/><text fill="#000000" font-family="sans-serif" font-size="13" lengthAdjust="spacing" textLength="84" x="631" y="262.7871">byte[] encode</text><polygon fill="#181818" points="1183.5,292.8398,1193.5,296.8398,1183.5,300.8398,1187.5,296.8398" style="stroke:#181818;stroke-width:1.0;"/><line style="stroke:#181818;stroke-width:1.0;" x1="614" x2="1189.5" y1="296.8398" y2="296.8398"/><text fill="#000000" font-family="sans-serif" font-size="13" lengthAdjust="spacing" textLength="147" x="621" y="292.0977">sendMessage(message)</text><polygon fill="#181818" points="1300,306.8398,1310,310.8398,1300,314.8398,1304,310.8398" style="stroke:#181818;stroke-width:1.0;"/><line style="stroke:#181818;stroke-width:1.0;" x1="1205.5" x2="1306" y1="310.8398" y2="310.8398"/><polygon fill="#181818" points="1216.5,320.8398,1206.5,324.8398,1216.5,328.8398,1212.5,324.8398" style="stroke:#181818;stroke-width:1.0;"/><line style="stroke:#181818;stroke-width:1.0;stroke-dasharray:2.0,2.0;" x1="1210.5" x2="1316" y1="324.8398" y2="324.8398"/><polygon fill="#181818" points="1183.5,350.1504,1193.5,354.1504,1183.5,358.1504,1187.5,354.1504" style="stroke:#181818;stroke-width:1.0;"/><line style="stroke:#181818;stroke-width:1.0;" x1="614" x2="1189.5" y1="354.1504" y2="354.1504"/><text fill="#000000" font-family="sans-serif" font-size="13" lengthAdjust="spacing" textLength="106" x="621" y="349.4082">receiveMessage()</text><polygon fill="#181818" points="625,379.4609,615,383.4609,625,387.4609,621,383.4609" style="stroke:#181818;stroke-width:1.0;"/><line style="stroke:#181818;stroke-width:1.0;stroke-dasharray:2.0,2.0;" x1="619" x2="1199.5" y1="383.4609" y2="383.4609"/><text fill="#000000" font-family="sans-serif" font-size="13" lengthAdjust="spacing" textLength="96" x="631" y="378.7188">byte[] response</text><polygon fill="#181818" points="1083,408.7715,1093,412.7715,1083,416.7715,1087,412.7715" style="stroke:#181818;stroke-width:1.0;"/><line style="stroke:#181818;stroke-width:1.0;" x1="614" x2="1089" y1="412.7715" y2="412.7715"/><text fill="#000000" font-family="sans-serif" font-size="13" lengthAdjust="spacing" textLength="142" x="621" y="408.0293">decodeCode(response)</text><polygon fill="#181818" points="625,438.082,615,442.082,625,446.082,621,442.082" style="stroke:#181818;stroke-width:1.0;"/><line style="stroke:#181818;stroke-width:1.0;stroke-dasharray:2.0,2.0;" x1="619" x2="1099" y1="442.082" y2="442.082"/><text fill="#000000" font-family="sans-serif" font-size="13" lengthAdjust="spacing" textLength="86" x="631" y="437.3398">MessageCode</text><path d="M10,457.082 L72,457.082 L72,464.3926 L62,474.3926 L10,474.3926 L10,457.082 " fill="#EEEEEE" style="stroke:#000000;stroke-width:1.5;"/><rect fill="none" height="208.1289" style="stroke:#000000;stroke-width:1.5;" width="696.5" x="10" y="457.082"/><text fill="#000000" font-family="sans-serif" font-size="13" font-weight="bold" lengthAdjust="spacing" textLength="17" x="25" y="470.6504">alt</text><text fill="#000000" font-family="sans-serif" font-size="11" font-weight="bold" lengthAdjust="spacing" textLength="110" x="87" y="469.7168">[MessageCode.ACK]</text><polygon fill="#181818" points="427,491.7031,417,495.7031,427,499.7031,423,495.7031" style="stroke:#181818;stroke-width:1.0;"/><line style="stroke:#181818;stroke-width:1.0;" x1="421" x2="603" y1="495.7031" y2="495.7031"/><text fill="#000000" font-family="sans-serif" font-size="13" lengthAdjust="spacing" textLength="25" x="433" y="490.9609">true</text><polygon fill="#181818" points="229,521.0137,219,525.0137,229,529.0137,225,525.0137" style="stroke:#181818;stroke-width:1.0;"/><line style="stroke:#181818;stroke-width:1.0;stroke-dasharray:2.0,2.0;" x1="223" x2="405" y1="525.0137" y2="525.0137"/><text fill="#000000" font-family="sans-serif" font-size="13" lengthAdjust="spacing" textLength="25" x="235" y="520.2715">true</text><polygon fill="#181818" points="74,550.3242,64,554.3242,74,558.3242,70,554.3242" style="stroke:#181818;stroke-width:1.0;"/><line style="stroke:#181818;stroke-width:1.0;stroke-dasharray:2.0,2.0;" x1="68" x2="207" y1="554.3242" y2="554.3242"/><text fill="#000000" font-family="sans-serif" font-size="13" lengthAdjust="spacing" textLength="106" x="80" y="549.582">Login successful</text><line style="stroke:#000000;stroke-width:1.0;stroke-dasharray:2.0,2.0;" x1="10" x2="706.5" y1="563.3242" y2="563.3242"/><text fill="#000000" font-family="sans-serif" font-size="11" font-weight="bold" lengthAdjust="spacing" textLength="109" x="15" y="573.959">[MessageCode.ERR]</text><polygon fill="#181818" points="427,594.5898,417,598.5898,427,602.5898,423,598.5898" style="stroke:#181818;stroke-width:1.0;"/><line style="stroke:#181818;stroke-width:1.0;" x1="421" x2="608" y1="598.5898" y2="598.5898"/><text fill="#000000" font-family="sans-serif" font-size="13" lengthAdjust="spacing" textLength="30" x="433" y="593.8477">false</text><polygon fill="#181818" points="229,623.9004,219,627.9004,229,631.9004,225,627.9004" style="stroke:#181818;stroke-width:1.0;"/><line style="stroke:#181818;stroke-width:1.0;stroke-dasharray:2.0,2.0;" x1="223" x2="410" y1="627.9004" y2="627.9004"/><text fill="#000000" font-family="sans-serif" font-size="13" lengthAdjust="spacing" textLength="30" x="235" y="623.1582">false</text><polygon fill="#181818" points="74,653.2109,64,657.2109,74,661.2109,70,657.2109" style="stroke:#181818;stroke-width:1.0;"/><line style="stroke:#181818;stroke-width:1.0;stroke-dasharray:2.0,2.0;" x1="68" x2="207" y1="657.2109" y2="657.2109"/><text fill="#000000" font-family="sans-serif" font-size="13" lengthAdjust="spacing" textLength="74" x="80" y="652.4688">Login failed</text><!--SRC=[bLHRRziW57xdLw3anP7IAjFUeYfIvtKNhNjfcwTfceXzug9XG83JxT_lOB31kLJTK-3uV1U-0t7S2Q3tgk6IVkIiCQobHSbapMlcmDnglVYrVNo_Mgq8OPLJXeuVARCqbERACDa0sQa_T3P-H-oCpkzvy-m-6m19D3EELrmpwUXi_GZc0APNtdwTUJBHkxYvqGOiICSSLtAp8I1hYioafo-L0JeNddGdEZZYB5NRTf9NFRHKqXab19YUlL8jSZEjHVoErA-WlJrUGG-rOOtmk3g1Fc40LZ0CemUuSNlKznqi7gs9bjfXbyuuQV-4xjNBLeUeHYkG4lSpuOT-67uISKHNcvZb6Y6_qOwYjQBk6K8vWS8sz2B8HxGEnQ93fRkMSR6acbdxeaozI43i9BuRGKCuRmF6RZAWa225XHmWArL3yMv9VLIiWHAtrxVRfozBEZ9VD-0-_7LWYqKIoOgPNZQ9JETgudk7g1y_epIfuHmuypjE3Q6ugAFHeWs_cNYQRy94PJ3JJ218GF2MW9cRhEsC4mCLy0CCPXQvvBdJuXlJIjh9UPFifV7Ku3FoCoa6WlyCEnlhXQW94suw_V9RRYZSKcVmzVTNCBljVJ5UPoo7rx2EVs-sgofatNU2WB0maRXxU3YLs3CnpMUulCUo9ut-ULooiSSB3BL_yUGV]--></g></svg>