<?xml version="1.0" encoding="us-ascii" standalone="no"?><svg xmlns="http://www.w3.org/2000/svg" xmlns:xlink="http://www.w3.org/1999/xlink" contentStyleType="text/css" height="636px" preserveAspectRatio="none" style="width:624px;height:636px;background:#FFFFFF;" version="1.1" viewBox="0 0 624 636" width="624px" zoomAndPan="magnify"><defs/><g><text fill="#000000" font-family="sans-serif" font-size="14" font-weight="bold" lengthAdjust="spacing" textLength="177" x="220.5" y="30.1074">Process Diagram_US3000</text><rect fill="#D3D3D3" height="585.1895" style="stroke:#181818;stroke-width:0.5;" width="386.5" x="231.5" y="45.6211"/><text fill="#000000" font-family="sans-serif" font-size="13" font-weight="bold" lengthAdjust="spacing" textLength="50" x="399.75" y="59.6494">:System</text><rect fill="#FFFFFF" height="397.9473" style="stroke:#181818;stroke-width:1.0;" width="10" x="35.5" y="133.2422"/><rect fill="#FFFFFF" height="31.291" style="stroke:#181818;stroke-width:1.0;" width="10" x="284.5" y="191.1152"/><rect fill="#FFFFFF" height="277.4922" style="stroke:#181818;stroke-width:1.0;" width="10" x="284.5" y="253.6973"/><rect fill="#FFFFFF" height="163.0371" style="stroke:#181818;stroke-width:1.0;" width="10" x="550.5" y="302.2793"/><line style="stroke:#181818;stroke-width:0.5;stroke-dasharray:5.0,5.0;" x1="40" x2="40" y1="123.2422" y2="549.1895"/><line style="stroke:#181818;stroke-width:0.5;stroke-dasharray:5.0,5.0;" x1="289.5" x2="289.5" y1="123.2422" y2="549.1895"/><line style="stroke:#181818;stroke-width:0.5;stroke-dasharray:5.0,5.0;" x1="555" x2="555" y1="123.2422" y2="549.1895"/><text fill="#000000" font-family="sans-serif" font-size="14" lengthAdjust="spacing" textLength="65" x="5" y="119.7285">Candidate</text><ellipse cx="40.5" cy="53.1211" fill="#ADD8E6" rx="8" ry="8" style="stroke:#181818;stroke-width:0.5;"/><path d="M40.5,61.1211 L40.5,88.1211 M27.5,69.1211 L53.5,69.1211 M40.5,88.1211 L27.5,103.1211 M40.5,88.1211 L53.5,103.1211 " fill="none" style="stroke:#181818;stroke-width:0.5;"/><text fill="#000000" font-family="sans-serif" font-size="14" lengthAdjust="spacing" textLength="65" x="5" y="563.2969">Candidate</text><ellipse cx="40.5" cy="575.3105" fill="#ADD8E6" rx="8" ry="8" style="stroke:#181818;stroke-width:0.5;"/><path d="M40.5,583.3105 L40.5,610.3105 M27.5,591.3105 L53.5,591.3105 M40.5,610.3105 L27.5,625.3105 M40.5,610.3105 L53.5,625.3105 " fill="none" style="stroke:#181818;stroke-width:0.5;"/><rect fill="#90EE90" height="32.6211" rx="2.5" ry="2.5" style="stroke:#181818;stroke-width:0.5;" width="108" x="235.5" y="89.6211"/><text fill="#000000" font-family="sans-serif" font-size="14" lengthAdjust="spacing" textLength="94" x="242.5" y="111.7285">:CandidateApp</text><rect fill="#90EE90" height="32.6211" rx="2.5" ry="2.5" style="stroke:#181818;stroke-width:0.5;" width="108" x="235.5" y="548.1895"/><text fill="#000000" font-family="sans-serif" font-size="14" lengthAdjust="spacing" textLength="94" x="242.5" y="570.2969">:CandidateApp</text><rect fill="#FFFF00" height="32.6211" rx="2.5" ry="2.5" style="stroke:#181818;stroke-width:0.5;" width="117" x="497" y="89.6211"/><text fill="#000000" font-family="sans-serif" font-size="14" lengthAdjust="spacing" textLength="103" x="504" y="111.7285">:FollowUpServer</text><rect fill="#FFFF00" height="32.6211" rx="2.5" ry="2.5" style="stroke:#181818;stroke-width:0.5;" width="117" x="497" y="548.1895"/><text fill="#000000" font-family="sans-serif" font-size="14" lengthAdjust="spacing" textLength="103" x="504" y="570.2969">:FollowUpServer</text><rect fill="#FFFFFF" height="397.9473" style="stroke:#181818;stroke-width:1.0;" width="10" x="35.5" y="133.2422"/><rect fill="#FFFFFF" height="31.291" style="stroke:#181818;stroke-width:1.0;" width="10" x="284.5" y="191.1152"/><rect fill="#FFFFFF" height="277.4922" style="stroke:#181818;stroke-width:1.0;" width="10" x="284.5" y="253.6973"/><rect fill="#FFFFFF" height="163.0371" style="stroke:#181818;stroke-width:1.0;" width="10" x="550.5" y="302.2793"/><polygon fill="#181818" points="272.5,187.1152,282.5,191.1152,272.5,195.1152,276.5,191.1152" style="stroke:#181818;stroke-width:1.0;"/><line style="stroke:#181818;stroke-width:1.0;" x1="45.5" x2="278.5" y1="191.1152" y2="191.1152"/><text fill="#000000" font-family="sans-serif" font-size="13" lengthAdjust="spacing" textLength="202" x="52.5" y="151.2705">Requests to list all his applications</text><text fill="#000000" font-family="sans-serif" font-size="13" lengthAdjust="spacing" textLength="211" x="52.5" y="168.5615">and their state (including the number</text><text fill="#000000" font-family="sans-serif" font-size="13" lengthAdjust="spacing" textLength="77" x="52.5" y="185.8525">of applicants)</text><polygon fill="#181818" points="56.5,218.4063,46.5,222.4063,56.5,226.4063,52.5,222.4063" style="stroke:#181818;stroke-width:1.0;"/><line style="stroke:#181818;stroke-width:1.0;stroke-dasharray:2.0,2.0;" x1="50.5" x2="288.5" y1="222.4063" y2="222.4063"/><text fill="#000000" font-family="sans-serif" font-size="13" lengthAdjust="spacing" textLength="186" x="62.5" y="217.1436">asks to insert the email address</text><polygon fill="#181818" points="272.5,249.6973,282.5,253.6973,272.5,257.6973,276.5,253.6973" style="stroke:#181818;stroke-width:1.0;"/><line style="stroke:#181818;stroke-width:1.0;" x1="45.5" x2="278.5" y1="253.6973" y2="253.6973"/><text fill="#000000" font-family="sans-serif" font-size="13" lengthAdjust="spacing" textLength="146" x="52.5" y="248.4346">inserts the email address</text><polygon fill="#181818" points="538.5,298.2793,548.5,302.2793,538.5,306.2793,542.5,302.2793" style="stroke:#181818;stroke-width:1.0;"/><line style="stroke:#181818;stroke-width:1.0;" x1="294.5" x2="544.5" y1="302.2793" y2="302.2793"/><text fill="#000000" font-family="sans-serif" font-size="13" lengthAdjust="spacing" textLength="174" x="301.5" y="279.7256">tries to establish a connection</text><text fill="#000000" font-family="sans-serif" font-size="13" lengthAdjust="spacing" textLength="71" x="301.5" y="297.0166">to the server</text><polygon fill="#181818" points="305.5,329.5703,295.5,333.5703,305.5,337.5703,301.5,333.5703" style="stroke:#181818;stroke-width:1.0;"/><line style="stroke:#181818;stroke-width:1.0;stroke-dasharray:2.0,2.0;" x1="299.5" x2="549.5" y1="333.5703" y2="333.5703"/><text fill="#000000" font-family="sans-serif" font-size="13" lengthAdjust="spacing" textLength="135" x="311.5" y="328.3076">accepts the connection</text><polygon fill="#181818" points="538.5,395.4434,548.5,399.4434,538.5,403.4434,542.5,399.4434" style="stroke:#181818;stroke-width:1.0;"/><line style="stroke:#181818;stroke-width:1.0;" x1="294.5" x2="544.5" y1="399.4434" y2="399.4434"/><text fill="#000000" font-family="sans-serif" font-size="13" lengthAdjust="spacing" textLength="228" x="301.5" y="359.5986">sends a message according to protocol</text><text fill="#000000" font-family="sans-serif" font-size="13" lengthAdjust="spacing" textLength="223" x="301.5" y="376.8896">with the email of the candidate and the</text><text fill="#000000" font-family="sans-serif" font-size="13" lengthAdjust="spacing" textLength="200" x="301.5" y="394.1807">code for listing the job applications</text><polygon fill="#181818" points="305.5,461.3164,295.5,465.3164,305.5,469.3164,301.5,465.3164" style="stroke:#181818;stroke-width:1.0;"/><line style="stroke:#181818;stroke-width:1.0;stroke-dasharray:2.0,2.0;" x1="299.5" x2="554.5" y1="465.3164" y2="465.3164"/><text fill="#000000" font-family="sans-serif" font-size="13" lengthAdjust="spacing" textLength="186" x="311.5" y="425.4717">sends the list of job applications</text><text fill="#000000" font-family="sans-serif" font-size="13" lengthAdjust="spacing" textLength="211" x="311.5" y="442.7627">and their state (including the number</text><text fill="#000000" font-family="sans-serif" font-size="13" lengthAdjust="spacing" textLength="77" x="311.5" y="460.0537">of applicants)</text><polygon fill="#181818" points="51.5,527.1895,41.5,531.1895,51.5,535.1895,47.5,531.1895" style="stroke:#181818;stroke-width:1.0;"/><line style="stroke:#181818;stroke-width:1.0;stroke-dasharray:2.0,2.0;" x1="45.5" x2="288.5" y1="531.1895" y2="531.1895"/><text fill="#000000" font-family="sans-serif" font-size="13" lengthAdjust="spacing" textLength="188" x="57.5" y="491.3447">shows the list of job applications</text><text fill="#000000" font-family="sans-serif" font-size="13" lengthAdjust="spacing" textLength="211" x="57.5" y="508.6357">and their state (including the number</text><text fill="#000000" font-family="sans-serif" font-size="13" lengthAdjust="spacing" textLength="77" x="57.5" y="525.9268">of applicants)</text><!--SRC=[lPHFJ-D03CNl-HHMkS2XKgMzzO245d5UKN53Maqc9Z4x6GypBjr- -_LCokOF8107ZdNYvv-VNoea3k5NP8ifmJMPDfh-zztknsQpgIfZXIFyDBwXnWY2IJ2KpXordTHkZrNDVs6rtHsJOBywFMWZ7gjWef2bOBpe2_z5ha9OPQ5fOMn3l-YxOUVuS1Ts69ynbivv2SwEc7yNMdekc9dn1B- -d4_Q0jpYqnwJ9106Hqd0E0STwMuXEB96Y7s2Uwzj81rIX2HPzfoyTVk6V9lBuFTzhUFlFJ-yT7f95oF6T6urWrWhrO2trON-51Bo2QCKPUmDEJ1D4_KeLODlAxwtto2Ktb3w3DdbqjujI2GiY6gQgTMn3WnOzXvjjaeTq6TvMYeTuvYvKhKGNhz6DzPYEA6F0pucJEWRFH_qkgLfSm0in-5G326oi6Mdd0UIRkAB7gvC6lCzN5pVjDmWFAY_EI0l5t_aUfQHJsmqaENcaZITk1JvUj0cmLWu_MxOKiU7Ry2PvMjI7pvCjGJqN-CV]--></g></svg>