<?xml version="1.0" encoding="us-ascii" standalone="no"?><svg xmlns="http://www.w3.org/2000/svg" xmlns:xlink="http://www.w3.org/1999/xlink" contentStyleType="text/css" height="992px" preserveAspectRatio="none" style="width:1635px;height:992px;background:#FFFFFF;" version="1.1" viewBox="0 0 1635 992" width="1635px" zoomAndPan="magnify"><defs/><g><text fill="#000000" font-family="sans-serif" font-size="14" font-weight="bold" lengthAdjust="spacing" textLength="359" x="637.25" y="28.5352">ListApplications Diagram (CandidateApp)_US3000</text><rect fill="#90EE90" height="943.0723" style="stroke:#181818;stroke-width:0.5;" width="123" x="304.5" y="43.4883"/><text fill="#000000" font-family="sans-serif" font-size="13" font-weight="bold" lengthAdjust="spacing" textLength="97" x="317.5" y="56.0566">CandidateApp</text><rect fill="#ADD8E6" height="943.0723" style="stroke:#181818;stroke-width:0.5;" width="967" x="535.5" y="43.4883"/><text fill="#000000" font-family="sans-serif" font-size="13" font-weight="bold" lengthAdjust="spacing" textLength="31" x="1001.5" y="56.0566">Core</text><rect fill="#FFFFFF" height="769.0957" style="stroke:#181818;stroke-width:1.0;" width="10" x="63" y="128.9766"/><rect fill="#FFFFFF" height="717.1641" style="stroke:#181818;stroke-width:1.0;" width="10" x="361" y="180.9082"/><rect fill="#FFFFFF" height="632.543" style="stroke:#181818;stroke-width:1.0;" width="10" x="633" y="220.2188"/><rect fill="#FFFFFF" height="515.9453" style="stroke:#181818;stroke-width:1.0;" width="10" x="943" y="307.5059"/><rect fill="#FFFFFF" height="29.3105" style="stroke:#181818;stroke-width:1.0;" width="10" x="1347" y="384.793"/><rect fill="#FFFFFF" height="29.3105" style="stroke:#181818;stroke-width:1.0;" width="10" x="1347" y="530.0352"/><rect fill="#FFFFFF" height="29.3105" style="stroke:#181818;stroke-width:1.0;" width="10" x="1347" y="612.9668"/><rect fill="#FFFFFF" height="57.3105" style="stroke:#181818;stroke-width:1.0;" width="10" x="1447.5" y="443.4141"/><rect fill="none" height="315.7266" style="stroke:#000000;stroke-width:1.5;" width="1396.5" x="10" y="574.3457"/><rect fill="none" height="77.2422" style="stroke:#000000;stroke-width:1.5;" width="413.5" x="20" y="715.8984"/><line style="stroke:#181818;stroke-width:0.5;stroke-dasharray:5.0,5.0;" x1="68" x2="68" y1="118.9766" y2="907.0723"/><line style="stroke:#181818;stroke-width:0.5;stroke-dasharray:5.0,5.0;" x1="365.5" x2="365.5" y1="118.9766" y2="907.0723"/><line style="stroke:#181818;stroke-width:0.5;stroke-dasharray:5.0,5.0;" x1="637.5" x2="637.5" y1="227.8965" y2="907.0723"/><line style="stroke:#181818;stroke-width:0.5;stroke-dasharray:5.0,5.0;" x1="947.5" x2="947.5" y1="315.1836" y2="907.0723"/><line style="stroke:#181818;stroke-width:0.5;stroke-dasharray:5.0,5.0;" x1="1351.5" x2="1351.5" y1="118.9766" y2="907.0723"/><line style="stroke:#181818;stroke-width:0.5;stroke-dasharray:5.0,5.0;" x1="1452.5" x2="1452.5" y1="118.9766" y2="907.0723"/><line style="stroke:#181818;stroke-width:0.5;stroke-dasharray:5.0,5.0;" x1="1568.5" x2="1568.5" y1="118.9766" y2="907.0723"/><text fill="#000000" font-family="sans-serif" font-size="14" lengthAdjust="spacing" textLength="70" x="30" y="116.0234">Candidate</text><ellipse cx="68" cy="50.9883" fill="#FFA500" rx="8" ry="8" style="stroke:#181818;stroke-width:0.5;"/><path d="M68,58.9883 L68,85.9883 M55,66.9883 L81,66.9883 M68,85.9883 L55,100.9883 M68,85.9883 L81,100.9883 " fill="none" style="stroke:#181818;stroke-width:0.5;"/><text fill="#000000" font-family="sans-serif" font-size="14" lengthAdjust="spacing" textLength="70" x="30" y="919.6074">Candidate</text><ellipse cx="68" cy="931.0605" fill="#FFA500" rx="8" ry="8" style="stroke:#181818;stroke-width:0.5;"/><path d="M68,939.0605 L68,966.0605 M55,947.0605 L81,947.0605 M68,966.0605 L55,981.0605 M68,966.0605 L81,981.0605 " fill="none" style="stroke:#181818;stroke-width:0.5;"/><rect fill="#E2E2F0" height="46.9766" rx="2.5" ry="2.5" style="stroke:#181818;stroke-width:0.5;" width="115" x="308.5" y="71"/><text fill="#000000" font-family="sans-serif" font-size="14" font-style="italic" lengthAdjust="spacing" textLength="101" x="315.5" y="91.5352">&#171;presentation&#187;</text><text fill="#000000" font-family="sans-serif" font-size="14" lengthAdjust="spacing" textLength="61" x="335.5" y="108.0234">:ServerUI</text><rect fill="#E2E2F0" height="46.9766" rx="2.5" ry="2.5" style="stroke:#181818;stroke-width:0.5;" width="115" x="308.5" y="906.0723"/><text fill="#000000" font-family="sans-serif" font-size="14" font-style="italic" lengthAdjust="spacing" textLength="101" x="315.5" y="926.6074">&#171;presentation&#187;</text><text fill="#000000" font-family="sans-serif" font-size="14" lengthAdjust="spacing" textLength="61" x="335.5" y="943.0957">:ServerUI</text><rect fill="#E2E2F0" height="46.9766" rx="2.5" ry="2.5" style="stroke:#181818;stroke-width:0.5;" width="197" x="539.5" y="906.0723"/><text fill="#000000" font-family="sans-serif" font-size="14" font-style="italic" lengthAdjust="spacing" textLength="90" x="593" y="926.6074">&#171;application&#187;</text><text fill="#000000" font-family="sans-serif" font-size="14" lengthAdjust="spacing" textLength="183" x="546.5" y="943.0957">:CommunicationController</text><rect fill="#E2E2F0" height="46.9766" rx="2.5" ry="2.5" style="stroke:#181818;stroke-width:0.5;" width="175" x="860.5" y="906.0723"/><text fill="#000000" font-family="sans-serif" font-size="14" font-style="italic" lengthAdjust="spacing" textLength="61" x="917.5" y="926.6074">&#171;service&#187;</text><text fill="#000000" font-family="sans-serif" font-size="14" lengthAdjust="spacing" textLength="161" x="867.5" y="943.0957">:CommunicationService</text><rect fill="#E2E2F0" height="30.4883" rx="2.5" ry="2.5" style="stroke:#181818;stroke-width:0.5;" width="89" x="1307.5" y="87.4883"/><text fill="#000000" font-family="sans-serif" font-size="14" lengthAdjust="spacing" textLength="75" x="1314.5" y="108.0234">:Translator</text><rect fill="#E2E2F0" height="30.4883" rx="2.5" ry="2.5" style="stroke:#181818;stroke-width:0.5;" width="89" x="1307.5" y="906.0723"/><text fill="#000000" font-family="sans-serif" font-size="14" lengthAdjust="spacing" textLength="75" x="1314.5" y="926.6074">:Translator</text><rect fill="#E2E2F0" height="30.4883" rx="2.5" ry="2.5" style="stroke:#181818;stroke-width:0.5;" width="92" x="1406.5" y="87.4883"/><text fill="#000000" font-family="sans-serif" font-size="14" lengthAdjust="spacing" textLength="78" x="1413.5" y="108.0234">:Messenger</text><rect fill="#E2E2F0" height="30.4883" rx="2.5" ry="2.5" style="stroke:#181818;stroke-width:0.5;" width="92" x="1406.5" y="906.0723"/><text fill="#000000" font-family="sans-serif" font-size="14" lengthAdjust="spacing" textLength="78" x="1413.5" y="926.6074">:Messenger</text><rect fill="#FFA500" height="30.4883" rx="2.5" ry="2.5" style="stroke:#181818;stroke-width:0.5;" width="121" x="1508.5" y="87.4883"/><text fill="#000000" font-family="sans-serif" font-size="14" lengthAdjust="spacing" textLength="107" x="1515.5" y="108.0234">FollowUpServer</text><rect fill="#FFA500" height="30.4883" rx="2.5" ry="2.5" style="stroke:#181818;stroke-width:0.5;" width="121" x="1508.5" y="906.0723"/><text fill="#000000" font-family="sans-serif" font-size="14" lengthAdjust="spacing" textLength="107" x="1515.5" y="926.6074">FollowUpServer</text><rect fill="#FFFFFF" height="769.0957" style="stroke:#181818;stroke-width:1.0;" width="10" x="63" y="128.9766"/><rect fill="#FFFFFF" height="717.1641" style="stroke:#181818;stroke-width:1.0;" width="10" x="361" y="180.9082"/><rect fill="#FFFFFF" height="632.543" style="stroke:#181818;stroke-width:1.0;" width="10" x="633" y="220.2188"/><rect fill="#FFFFFF" height="515.9453" style="stroke:#181818;stroke-width:1.0;" width="10" x="943" y="307.5059"/><rect fill="#FFFFFF" height="29.3105" style="stroke:#181818;stroke-width:1.0;" width="10" x="1347" y="384.793"/><rect fill="#FFFFFF" height="29.3105" style="stroke:#181818;stroke-width:1.0;" width="10" x="1347" y="530.0352"/><rect fill="#FFFFFF" height="29.3105" style="stroke:#181818;stroke-width:1.0;" width="10" x="1347" y="612.9668"/><rect fill="#FFFFFF" height="57.3105" style="stroke:#181818;stroke-width:1.0;" width="10" x="1447.5" y="443.4141"/><polygon fill="#181818" points="349,176.9082,359,180.9082,349,184.9082,353,180.9082" style="stroke:#181818;stroke-width:1.0;"/><line style="stroke:#181818;stroke-width:1.0;" x1="73" x2="355" y1="180.9082" y2="180.9082"/><text fill="#000000" font-family="sans-serif" font-size="13" lengthAdjust="spacing" textLength="221" x="80" y="145.5449">Requests to list all his applications</text><text fill="#000000" font-family="sans-serif" font-size="13" lengthAdjust="spacing" textLength="234" x="80" y="160.8555">and their state (including the number</text><text fill="#000000" font-family="sans-serif" font-size="13" lengthAdjust="spacing" textLength="86" x="80" y="176.166">of applicants)</text><polygon fill="#181818" points="527.5,206.2188,537.5,210.2188,527.5,214.2188,531.5,210.2188" style="stroke:#181818;stroke-width:1.0;"/><line style="stroke:#181818;stroke-width:1.0;" x1="371" x2="533.5" y1="210.2188" y2="210.2188"/><text fill="#000000" font-family="sans-serif" font-size="13" lengthAdjust="spacing" textLength="46" x="378" y="205.4766">create()</text><rect fill="#E2E2F0" height="46.9766" rx="2.5" ry="2.5" style="stroke:#181818;stroke-width:0.5;" width="197" x="539.5" y="188.9082"/><text fill="#000000" font-family="sans-serif" font-size="14" font-style="italic" lengthAdjust="spacing" textLength="90" x="593" y="209.4434">&#171;application&#187;</text><text fill="#000000" font-family="sans-serif" font-size="14" lengthAdjust="spacing" textLength="183" x="546.5" y="225.9316">:CommunicationController</text><polygon fill="#181818" points="621,264.1953,631,268.1953,621,272.1953,625,268.1953" style="stroke:#181818;stroke-width:1.0;"/><line style="stroke:#181818;stroke-width:1.0;" x1="371" x2="627" y1="268.1953" y2="268.1953"/><text fill="#000000" font-family="sans-serif" font-size="13" lengthAdjust="spacing" textLength="144" x="378" y="263.4531">listAllJobApplications()</text><polygon fill="#181818" points="848.5,293.5059,858.5,297.5059,848.5,301.5059,852.5,297.5059" style="stroke:#181818;stroke-width:1.0;"/><line style="stroke:#181818;stroke-width:1.0;" x1="643" x2="854.5" y1="297.5059" y2="297.5059"/><text fill="#000000" font-family="sans-serif" font-size="13" lengthAdjust="spacing" textLength="46" x="650" y="292.7637">create()</text><rect fill="#E2E2F0" height="46.9766" rx="2.5" ry="2.5" style="stroke:#181818;stroke-width:0.5;" width="175" x="860.5" y="276.1953"/><text fill="#000000" font-family="sans-serif" font-size="14" font-style="italic" lengthAdjust="spacing" textLength="61" x="917.5" y="296.7305">&#171;service&#187;</text><text fill="#000000" font-family="sans-serif" font-size="14" lengthAdjust="spacing" textLength="161" x="867.5" y="313.2188">:CommunicationService</text><polygon fill="#181818" points="931,351.4824,941,355.4824,931,359.4824,935,355.4824" style="stroke:#181818;stroke-width:1.0;"/><line style="stroke:#181818;stroke-width:1.0;" x1="643" x2="937" y1="355.4824" y2="355.4824"/><text fill="#000000" font-family="sans-serif" font-size="13" lengthAdjust="spacing" textLength="276" x="650" y="350.7402">listAllJobApplicationsForSpecificCandidate()</text><polygon fill="#181818" points="1335,380.793,1345,384.793,1335,388.793,1339,384.793" style="stroke:#181818;stroke-width:1.0;"/><line style="stroke:#181818;stroke-width:1.0;" x1="953" x2="1341" y1="384.793" y2="384.793"/><text fill="#000000" font-family="sans-serif" font-size="13" lengthAdjust="spacing" textLength="375" x="960" y="380.0508">encode(1, MessageCode.LIST_JOB_APPLICATIONS, null, null)</text><polygon fill="#181818" points="964,410.1035,954,414.1035,964,418.1035,960,414.1035" style="stroke:#181818;stroke-width:1.0;"/><line style="stroke:#181818;stroke-width:1.0;stroke-dasharray:2.0,2.0;" x1="958" x2="1351" y1="414.1035" y2="414.1035"/><text fill="#000000" font-family="sans-serif" font-size="13" lengthAdjust="spacing" textLength="94" x="970" y="409.3613">byte[] message</text><polygon fill="#181818" points="1435.5,439.4141,1445.5,443.4141,1435.5,447.4141,1439.5,443.4141" style="stroke:#181818;stroke-width:1.0;"/><line style="stroke:#181818;stroke-width:1.0;" x1="953" x2="1441.5" y1="443.4141" y2="443.4141"/><text fill="#000000" font-family="sans-serif" font-size="13" lengthAdjust="spacing" textLength="147" x="960" y="438.6719">sendMessage(message)</text><polygon fill="#181818" points="1557,453.4141,1567,457.4141,1557,461.4141,1561,457.4141" style="stroke:#181818;stroke-width:1.0;"/><line style="stroke:#181818;stroke-width:1.0;" x1="1457.5" x2="1563" y1="457.4141" y2="457.4141"/><polygon fill="#181818" points="1468.5,467.4141,1458.5,471.4141,1468.5,475.4141,1464.5,471.4141" style="stroke:#181818;stroke-width:1.0;"/><line style="stroke:#181818;stroke-width:1.0;stroke-dasharray:2.0,2.0;" x1="1462.5" x2="1568" y1="471.4141" y2="471.4141"/><polygon fill="#181818" points="1440.5,496.7246,1450.5,500.7246,1440.5,504.7246,1444.5,500.7246" style="stroke:#181818;stroke-width:1.0;"/><line style="stroke:#181818;stroke-width:1.0;" x1="953" x2="1446.5" y1="500.7246" y2="500.7246"/><text fill="#000000" font-family="sans-serif" font-size="13" lengthAdjust="spacing" textLength="106" x="960" y="495.9824">receiveMessage()</text><polygon fill="#181818" points="1335,526.0352,1345,530.0352,1335,534.0352,1339,530.0352" style="stroke:#181818;stroke-width:1.0;"/><line style="stroke:#181818;stroke-width:1.0;" x1="953" x2="1341" y1="530.0352" y2="530.0352"/><text fill="#000000" font-family="sans-serif" font-size="13" lengthAdjust="spacing" textLength="142" x="960" y="525.293">decodeCode(response)</text><polygon fill="#181818" points="964,555.3457,954,559.3457,964,563.3457,960,559.3457" style="stroke:#181818;stroke-width:1.0;"/><line style="stroke:#181818;stroke-width:1.0;stroke-dasharray:2.0,2.0;" x1="958" x2="1351" y1="559.3457" y2="559.3457"/><text fill="#000000" font-family="sans-serif" font-size="13" lengthAdjust="spacing" textLength="86" x="970" y="554.6035">MessageCode</text><path d="M10,574.3457 L72,574.3457 L72,581.6563 L62,591.6563 L10,591.6563 L10,574.3457 " fill="#EEEEEE" style="stroke:#000000;stroke-width:1.5;"/><rect fill="none" height="315.7266" style="stroke:#000000;stroke-width:1.5;" width="1396.5" x="10" y="574.3457"/><text fill="#000000" font-family="sans-serif" font-size="13" font-weight="bold" lengthAdjust="spacing" textLength="17" x="25" y="587.9141">alt</text><text fill="#000000" font-family="sans-serif" font-size="11" font-weight="bold" lengthAdjust="spacing" textLength="236" x="87" y="586.9805">[MessageCode.SHOW_JOB_APPLICATIONS]</text><polygon fill="#181818" points="1335,608.9668,1345,612.9668,1335,616.9668,1339,612.9668" style="stroke:#181818;stroke-width:1.0;"/><line style="stroke:#181818;stroke-width:1.0;" x1="953" x2="1341" y1="612.9668" y2="612.9668"/><text fill="#000000" font-family="sans-serif" font-size="13" lengthAdjust="spacing" textLength="147" x="960" y="608.2246">decodeData1(response)</text><polygon fill="#181818" points="964,638.2773,954,642.2773,964,646.2773,960,642.2773" style="stroke:#181818;stroke-width:1.0;"/><line style="stroke:#181818;stroke-width:1.0;stroke-dasharray:2.0,2.0;" x1="958" x2="1351" y1="642.2773" y2="642.2773"/><text fill="#000000" font-family="sans-serif" font-size="13" lengthAdjust="spacing" textLength="66" x="970" y="637.5352">byte[] data</text><polygon fill="#181818" points="654,667.5879,644,671.5879,654,675.5879,650,671.5879" style="stroke:#181818;stroke-width:1.0;"/><line style="stroke:#181818;stroke-width:1.0;stroke-dasharray:2.0,2.0;" x1="648" x2="942" y1="671.5879" y2="671.5879"/><text fill="#000000" font-family="sans-serif" font-size="13" lengthAdjust="spacing" textLength="238" x="660" y="666.8457">List&lt;JobApplication&gt; jobApplications</text><polygon fill="#181818" points="382,696.8984,372,700.8984,382,704.8984,378,700.8984" style="stroke:#181818;stroke-width:1.0;"/><line style="stroke:#181818;stroke-width:1.0;stroke-dasharray:2.0,2.0;" x1="376" x2="632" y1="700.8984" y2="700.8984"/><text fill="#000000" font-family="sans-serif" font-size="13" lengthAdjust="spacing" textLength="238" x="388" y="696.1563">List&lt;JobApplication&gt; jobApplications</text><path d="M20,715.8984 L94,715.8984 L94,723.209 L84,733.209 L20,733.209 L20,715.8984 " fill="#EEEEEE" style="stroke:#000000;stroke-width:1.5;"/><rect fill="none" height="77.2422" style="stroke:#000000;stroke-width:1.5;" width="413.5" x="20" y="715.8984"/><text fill="#000000" font-family="sans-serif" font-size="13" font-weight="bold" lengthAdjust="spacing" textLength="29" x="35" y="729.4668">loop</text><text fill="#000000" font-family="sans-serif" font-size="11" font-weight="bold" lengthAdjust="spacing" textLength="146" x="109" y="728.5332">[for each jobApplications]</text><polygon fill="#181818" points="84,781.1406,74,785.1406,84,789.1406,80,785.1406" style="stroke:#181818;stroke-width:1.0;"/><line style="stroke:#181818;stroke-width:1.0;stroke-dasharray:2.0,2.0;" x1="78" x2="360" y1="785.1406" y2="785.1406"/><text fill="#000000" font-family="sans-serif" font-size="13" lengthAdjust="spacing" textLength="138" x="90" y="749.7773">shows job application</text><text fill="#000000" font-family="sans-serif" font-size="13" lengthAdjust="spacing" textLength="234" x="90" y="765.0879">and their state (including the number</text><text fill="#000000" font-family="sans-serif" font-size="13" lengthAdjust="spacing" textLength="86" x="90" y="780.3984">of applicants)</text><line style="stroke:#000000;stroke-width:1.0;stroke-dasharray:2.0,2.0;" x1="10" x2="1406.5" y1="801.1406" y2="801.1406"/><polygon fill="#181818" points="654,819.4512,644,823.4512,654,827.4512,650,823.4512" style="stroke:#181818;stroke-width:1.0;"/><line style="stroke:#181818;stroke-width:1.0;stroke-dasharray:2.0,2.0;" x1="648" x2="947" y1="823.4512" y2="823.4512"/><text fill="#000000" font-family="sans-serif" font-size="13" lengthAdjust="spacing" textLength="74" x="660" y="818.709">error listing</text><polygon fill="#181818" points="382,848.7617,372,852.7617,382,856.7617,378,852.7617" style="stroke:#181818;stroke-width:1.0;"/><line style="stroke:#181818;stroke-width:1.0;stroke-dasharray:2.0,2.0;" x1="376" x2="637" y1="852.7617" y2="852.7617"/><text fill="#000000" font-family="sans-serif" font-size="13" lengthAdjust="spacing" textLength="74" x="388" y="848.0195">error listing</text><polygon fill="#181818" points="84,878.0723,74,882.0723,84,886.0723,80,882.0723" style="stroke:#181818;stroke-width:1.0;"/><line style="stroke:#181818;stroke-width:1.0;stroke-dasharray:2.0,2.0;" x1="78" x2="360" y1="882.0723" y2="882.0723"/><text fill="#000000" font-family="sans-serif" font-size="13" lengthAdjust="spacing" textLength="264" x="90" y="877.3301">shows Error while listing job applications!</text><!--SRC=[dLLDRnen4BtlhvZ21QAa8kfjXP3efcc9Q8cwe1wQ2fdT0LmPUsjx8Vtt7Uy7QxxIDXVajMVUl7blR2ot0c7CZHrccU09irn90tUShJJRG2TYCkKfiqZ7tVaiVjVhzOA09LPfs9y1Cr1kjPLcSeN1GZr3oyzjGNlCLslxKIFA86FQyeHdJ5feXJ7gBUhPgELmSWxzVgRHeBG5cS4WG9a28GO5RAGqGbiui8N8yGWhKfjDBgi-8YMjLaAWBg0JjI5irlH9q2zaEreymIBLb6jAhrOdgLDgt0X68XG9Tlzv5FSP3RMsgYXjwg-cnuFmUsAlThEib6XF1Hkb2pFujd31ML1vSpDmIeRm5N_bQ2mHKY38PM12m9gJNxxTJvAi0hj6hi5OXzNXCX5vokNAROFCDmig-YJLiiwKrdIRsZaFg1vL9P6lha98DD9snukWWoOaBCWCXNXG2t_mAC6vH46LpkUngiEZs4kWzqh76IPyoPFzI19QxIa1D6w5W39HANPkhy5PnLOOqUVRyIYUpXycx-V3nyVnA1fEHvClyJNf8aJvwx7pl6-MSECJXSLlYzz_5FvJYI35SzaUm_sWX0GYqufQfyhtYZSJjL_L4c69Y2MN9l1y6Oq9yYtMbRe-nxEvleWfEX6TSXswoXcPWFydaAVz1N429ko1HV6doRSJYrucUCSiktqbmyf16YRsD_lgcNVFRFzmE0Vmyt1Oovakhky_9WH2gGoMn8zOh4-EtPqZkE9PeE5PgvrnCVu3yFhxJwCO12WCdZQBMXCbToC9n5VeuF9MZLuChb-Dumu-50cxDQT_hohjk2lpfgJt1m00]--></g></svg>