<?xml version="1.0" encoding="us-ascii" standalone="no"?><svg xmlns="http://www.w3.org/2000/svg" xmlns:xlink="http://www.w3.org/1999/xlink" contentStyleType="text/css" height="1369px" preserveAspectRatio="none" style="width:2560px;height:1369px;background:#FFFFFF;" version="1.1" viewBox="0 0 2560 1369" width="2560px" zoomAndPan="magnify"><defs/><g><text fill="#000000" font-family="sans-serif" font-size="30" font-weight="bold" lengthAdjust="spacing" textLength="483" x="1031.5" y="39.0039">Class Diagram - Server - 3000</text><!--cluster FollowUpServer--><g id="cluster_FollowUpServer"><rect fill="none" height="468" rx="2.5" ry="2.5" style="stroke:#181818;stroke-width:1.0;" width="670" x="7" y="350.332"/><text fill="#000000" font-family="sans-serif" font-size="14" font-weight="bold" lengthAdjust="spacing" textLength="111" x="286.5" y="365.8672">FollowUpServer</text></g><!--cluster CandidateAppSide--><g id="cluster_CandidateAppSide"><rect fill="none" height="486.5" rx="2.5" ry="2.5" style="stroke:#181818;stroke-width:1.0;" width="575" x="1948" y="63.332"/><text fill="#000000" font-family="sans-serif" font-size="14" font-weight="bold" lengthAdjust="spacing" textLength="130" x="2170.5" y="78.8672">CandidateAppSide</text></g><!--cluster DataBase--><g id="cluster_DataBase"><rect fill="none" height="108" rx="2.5" ry="2.5" style="stroke:#181818;stroke-width:1.0;" width="772" x="387" y="1126.332"/><text fill="#000000" font-family="sans-serif" font-size="14" font-weight="bold" lengthAdjust="spacing" textLength="66" x="740" y="1141.8672">DataBase</text></g><!--cluster Core--><g id="cluster_Core"><rect fill="none" height="675" rx="2.5" ry="2.5" style="stroke:#181818;stroke-width:1.0;" width="1371" x="1183" y="601.332"/><text fill="#000000" font-family="sans-serif" font-size="14" font-weight="bold" lengthAdjust="spacing" textLength="33" x="1852" y="616.8672">Core</text></g><!--class RcompServer--><g id="elem_RcompServer"><rect codeLine="23" fill="#ADD8E6" height="108.4414" id="RcompServer" rx="2.5" ry="2.5" style="stroke:#000000;stroke-width:0.5;" width="205" x="23.5" y="426.832"/><text fill="#000000" font-family="sans-serif" font-size="14" lengthAdjust="spacing" textLength="90" x="81" y="445.3672">RcompServer</text><line style="stroke:#000000;stroke-width:0.5;" x1="24.5" x2="227.5" y1="453.3203" y2="453.3203"/><rect fill="none" height="6" style="stroke:#C82930;stroke-width:1.0;" width="6" x="31.5" y="464.0645"/><text fill="#000000" font-family="sans-serif" font-size="14" lengthAdjust="spacing" textLength="63" x="43.5" y="470.8555">PORT: int</text><line style="stroke:#000000;stroke-width:0.5;" x1="24.5" x2="227.5" y1="477.8086" y2="477.8086"/><ellipse cx="34.5" cy="491.5527" fill="#84BE84" rx="3" ry="3" style="stroke:#038048;stroke-width:1.0;"/><text fill="#000000" font-family="sans-serif" font-size="14" lengthAdjust="spacing" textLength="170" x="43.5" y="495.3438">main(args: String[]): void</text><ellipse cx="34.5" cy="508.041" fill="#84BE84" rx="3" ry="3" style="stroke:#038048;stroke-width:1.0;"/><text fill="#000000" font-family="sans-serif" font-size="14" lengthAdjust="spacing" textLength="69" x="43.5" y="511.832">init(): void</text><ellipse cx="34.5" cy="524.5293" fill="#84BE84" rx="3" ry="3" style="stroke:#038048;stroke-width:1.0;"/><text fill="#000000" font-family="sans-serif" font-size="14" lengthAdjust="spacing" textLength="179" x="43.5" y="528.3203">stop(thread: Thread): void</text></g><!--class SimpleHandler--><g id="elem_SimpleHandler"><rect codeLine="30" fill="#ADD8E6" height="190.8828" id="SimpleHandler" rx="2.5" ry="2.5" style="stroke:#000000;stroke-width:0.5;" width="397" x="263.5" y="385.332"/><text fill="#000000" font-family="sans-serif" font-size="14" lengthAdjust="spacing" textLength="100" x="412" y="403.8672">SimpleHandler</text><line style="stroke:#000000;stroke-width:0.5;" x1="264.5" x2="659.5" y1="411.8203" y2="411.8203"/><rect fill="none" height="6" style="stroke:#C82930;stroke-width:1.0;" width="6" x="271.5" y="422.5645"/><text fill="#000000" font-family="sans-serif" font-size="14" lengthAdjust="spacing" textLength="190" x="283.5" y="429.3555">authz: AuthorizationService</text><rect fill="none" height="6" style="stroke:#C82930;stroke-width:1.0;" width="6" x="271.5" y="439.0527"/><text fill="#000000" font-family="sans-serif" font-size="14" lengthAdjust="spacing" textLength="291" x="283.5" y="445.8438">candidateRepository: CandidateRepository</text><rect fill="none" height="6" style="stroke:#C82930;stroke-width:1.0;" width="6" x="271.5" y="455.541"/><text fill="#000000" font-family="sans-serif" font-size="14" lengthAdjust="spacing" textLength="285" x="283.5" y="462.332">customerRepository: CustomerRepository</text><line style="stroke:#000000;stroke-width:0.5;" x1="264.5" x2="659.5" y1="469.2852" y2="469.2852"/><ellipse cx="274.5" cy="483.0293" fill="#84BE84" rx="3" ry="3" style="stroke:#038048;stroke-width:1.0;"/><text fill="#000000" font-family="sans-serif" font-size="14" lengthAdjust="spacing" textLength="207" x="283.5" y="486.8203">SimpleHandler(socket: Socket)</text><ellipse cx="274.5" cy="499.5176" fill="#84BE84" rx="3" ry="3" style="stroke:#038048;stroke-width:1.0;"/><text fill="#000000" font-family="sans-serif" font-size="14" lengthAdjust="spacing" textLength="94" x="283.5" y="503.3086">handle(): void</text><ellipse cx="274.5" cy="516.0059" fill="#84BE84" rx="3" ry="3" style="stroke:#038048;stroke-width:1.0;"/><text fill="#000000" font-family="sans-serif" font-size="14" lengthAdjust="spacing" textLength="266" x="283.5" y="519.7969">authenticate(message: byte[]): boolean</text><ellipse cx="274.5" cy="532.4941" fill="#84BE84" rx="3" ry="3" style="stroke:#038048;stroke-width:1.0;"/><text fill="#000000" font-family="sans-serif" font-size="14" lengthAdjust="spacing" textLength="109" x="283.5" y="536.2852">sendACK(): void</text><ellipse cx="274.5" cy="548.9824" fill="#84BE84" rx="3" ry="3" style="stroke:#038048;stroke-width:1.0;"/><text fill="#000000" font-family="sans-serif" font-size="14" lengthAdjust="spacing" textLength="106" x="283.5" y="552.7734">sendERR(): void</text><ellipse cx="274.5" cy="565.4707" fill="#84BE84" rx="3" ry="3" style="stroke:#038048;stroke-width:1.0;"/><text fill="#000000" font-family="sans-serif" font-size="14" lengthAdjust="spacing" textLength="371" x="283.5" y="569.2617">sendSHOW_JOB_APPLICATIONS(list: List&lt;String&gt;): void</text></g><!--class Handler--><g id="elem_Handler"><rect codeLine="42" fill="#ADD8E6" height="141.418" id="Handler" rx="2.5" ry="2.5" style="stroke:#000000;stroke-width:0.5;" width="206" x="268" y="661.332"/><text fill="#000000" font-family="sans-serif" font-size="14" lengthAdjust="spacing" textLength="54" x="344" y="679.8672">Handler</text><line style="stroke:#000000;stroke-width:0.5;" x1="269" x2="473" y1="687.8203" y2="687.8203"/><rect fill="none" height="6" style="stroke:#C82930;stroke-width:1.0;" width="6" x="276" y="698.5645"/><text fill="#000000" font-family="sans-serif" font-size="14" lengthAdjust="spacing" textLength="140" x="288" y="705.3555">serverSocket: Socket</text><rect fill="none" height="6" style="stroke:#C82930;stroke-width:1.0;" width="6" x="276" y="715.0527"/><text fill="#000000" font-family="sans-serif" font-size="14" lengthAdjust="spacing" textLength="156" x="288" y="721.8438">sIn: ObjectInputStream</text><rect fill="none" height="6" style="stroke:#C82930;stroke-width:1.0;" width="6" x="276" y="731.541"/><text fill="#000000" font-family="sans-serif" font-size="14" lengthAdjust="spacing" textLength="180" x="288" y="738.332">sOut: ObjectOutputStream</text><line style="stroke:#000000;stroke-width:0.5;" x1="269" x2="473" y1="745.2852" y2="745.2852"/><ellipse cx="279" cy="759.0293" fill="#84BE84" rx="3" ry="3" style="stroke:#038048;stroke-width:1.0;"/><text fill="#000000" font-family="sans-serif" font-size="14" lengthAdjust="spacing" textLength="161" x="288" y="762.8203">Handler(socket: Socket)</text><ellipse cx="279" cy="775.5176" fill="#84BE84" rx="3" ry="3" style="stroke:#038048;stroke-width:1.0;"/><text fill="#000000" font-family="sans-serif" font-size="14" lengthAdjust="spacing" textLength="94" x="288" y="779.3086">handle(): void</text><ellipse cx="279" cy="792.0059" fill="#84BE84" rx="3" ry="3" style="stroke:#038048;stroke-width:1.0;"/><text fill="#000000" font-family="sans-serif" font-size="14" lengthAdjust="spacing" textLength="71" x="288" y="795.7969">run(): void</text></g><!--class Server--><g id="elem_Server"><rect codeLine="51" fill="#ADD8E6" height="141.418" id="Server" rx="2.5" ry="2.5" style="stroke:#000000;stroke-width:0.5;" width="209" x="23.5" y="661.332"/><text fill="#000000" font-family="sans-serif" font-size="14" lengthAdjust="spacing" textLength="43" x="106.5" y="679.8672">Server</text><line style="stroke:#000000;stroke-width:0.5;" x1="24.5" x2="231.5" y1="687.8203" y2="687.8203"/><rect fill="none" height="6" style="stroke:#C82930;stroke-width:1.0;" width="6" x="31.5" y="698.5645"/><text fill="#000000" font-family="sans-serif" font-size="14" lengthAdjust="spacing" textLength="183" x="43.5" y="705.3555">serverSocket: ServerSocket</text><rect fill="none" height="6" style="stroke:#C82930;stroke-width:1.0;" width="6" x="31.5" y="715.0527"/><text fill="#000000" font-family="sans-serif" font-size="14" lengthAdjust="spacing" textLength="132" x="43.5" y="721.8438">executing: boolean</text><line style="stroke:#000000;stroke-width:0.5;" x1="24.5" x2="231.5" y1="728.7969" y2="728.7969"/><ellipse cx="34.5" cy="742.541" fill="#84BE84" rx="3" ry="3" style="stroke:#038048;stroke-width:1.0;"/><text fill="#000000" font-family="sans-serif" font-size="14" lengthAdjust="spacing" textLength="108" x="43.5" y="746.332">Server(port: int)</text><ellipse cx="34.5" cy="759.0293" fill="#84BE84" rx="3" ry="3" style="stroke:#038048;stroke-width:1.0;"/><text fill="#000000" font-family="sans-serif" font-size="14" lengthAdjust="spacing" textLength="101" x="43.5" y="762.8203">execute(): void</text><ellipse cx="34.5" cy="775.5176" fill="#84BE84" rx="3" ry="3" style="stroke:#038048;stroke-width:1.0;"/><text fill="#000000" font-family="sans-serif" font-size="14" lengthAdjust="spacing" textLength="77" x="43.5" y="779.3086">stop(): void</text><ellipse cx="34.5" cy="792.0059" fill="#84BE84" rx="3" ry="3" style="stroke:#038048;stroke-width:1.0;"/><text fill="#000000" font-family="sans-serif" font-size="14" lengthAdjust="spacing" textLength="71" x="43.5" y="795.7969">run(): void</text></g><!--class MainMenu--><g id="elem_MainMenu"><rect codeLine="65" fill="#ADD8E6" height="108.4414" id="MainMenu" rx="2.5" ry="2.5" style="stroke:#000000;stroke-width:0.5;" width="216" x="1964" y="98.332"/><text fill="#000000" font-family="sans-serif" font-size="14" lengthAdjust="spacing" textLength="71" x="2036.5" y="116.8672">MainMenu</text><line style="stroke:#000000;stroke-width:0.5;" x1="1965" x2="2179" y1="124.8203" y2="124.8203"/><rect fill="none" height="6" style="stroke:#C82930;stroke-width:1.0;" width="6" x="1972" y="135.5645"/><text fill="#000000" font-family="sans-serif" font-size="14" lengthAdjust="spacing" textLength="190" x="1984" y="142.3555">authz: AuthorizationService</text><line style="stroke:#000000;stroke-width:0.5;" x1="1965" x2="2179" y1="149.3086" y2="149.3086"/><ellipse cx="1975" cy="163.0527" fill="#84BE84" rx="3" ry="3" style="stroke:#038048;stroke-width:1.0;"/><text fill="#000000" font-family="sans-serif" font-size="14" lengthAdjust="spacing" textLength="110" x="1984" y="166.8438">show(): boolean</text><ellipse cx="1975" cy="179.541" fill="#84BE84" rx="3" ry="3" style="stroke:#038048;stroke-width:1.0;"/><text fill="#000000" font-family="sans-serif" font-size="14" lengthAdjust="spacing" textLength="129" x="1984" y="183.332">doShow(): boolean</text><rect fill="#F24D5C" height="6" style="stroke:#C82930;stroke-width:1.0;" width="6" x="1972" y="193.0293"/><text fill="#000000" font-family="sans-serif" font-size="14" lengthAdjust="spacing" textLength="162" x="1984" y="199.8203">buildMainMenu(): Menu</text></g><!--class CandidateApp--><g id="elem_CandidateApp"><rect codeLine="72" fill="#ADD8E6" height="75.4648" id="CandidateApp" rx="2.5" ry="2.5" style="stroke:#000000;stroke-width:0.5;" width="292" x="2215" y="114.832"/><text fill="#000000" font-family="sans-serif" font-size="14" lengthAdjust="spacing" textLength="98" x="2312" y="133.3672">CandidateApp</text><line style="stroke:#000000;stroke-width:0.5;" x1="2216" x2="2506" y1="141.3203" y2="141.3203"/><rect fill="none" height="6" style="stroke:#C82930;stroke-width:1.0;" width="6" x="2223" y="152.0645"/><text fill="#000000" font-family="sans-serif" font-size="14" lengthAdjust="spacing" textLength="266" x="2235" y="158.8555">theController: ComunicationController</text><line style="stroke:#000000;stroke-width:0.5;" x1="2216" x2="2506" y1="165.8086" y2="165.8086"/><ellipse cx="2226" cy="179.5527" fill="#84BE84" rx="3" ry="3" style="stroke:#038048;stroke-width:1.0;"/><text fill="#000000" font-family="sans-serif" font-size="14" lengthAdjust="spacing" textLength="170" x="2235" y="183.3438">main(args: String[]): void</text></g><!--class ServerAction--><g id="elem_ServerAction"><rect codeLine="77" fill="#ADD8E6" height="58.9766" id="ServerAction" rx="2.5" ry="2.5" style="stroke:#000000;stroke-width:0.5;" width="154" x="2032" y="266.332"/><text fill="#000000" font-family="sans-serif" font-size="14" lengthAdjust="spacing" textLength="87" x="2065.5" y="284.8672">ServerAction</text><line style="stroke:#000000;stroke-width:0.5;" x1="2033" x2="2185" y1="292.8203" y2="292.8203"/><line style="stroke:#000000;stroke-width:0.5;" x1="2033" x2="2185" y1="300.8203" y2="300.8203"/><ellipse cx="2043" cy="314.5645" fill="#84BE84" rx="3" ry="3" style="stroke:#038048;stroke-width:1.0;"/><text fill="#000000" font-family="sans-serif" font-size="14" lengthAdjust="spacing" textLength="128" x="2052" y="318.3555">execute(): boolean</text></g><!--class ServerUI--><g id="elem_ServerUI"><rect codeLine="81" fill="#ADD8E6" height="106.0859" id="ServerUI" rx="2.5" ry="2.5" style="stroke:#000000;stroke-width:0.5;" width="363" x="1964.5" y="427.832"/><text fill="#000000" font-family="sans-serif" font-size="12" font-style="italic" lengthAdjust="spacing" textLength="84" x="2104" y="444.4336">&#171;presentation&#187;</text><text fill="#000000" font-family="sans-serif" font-size="14" lengthAdjust="spacing" textLength="57" x="2117.5" y="460.5">ServerUI</text><line style="stroke:#000000;stroke-width:0.5;" x1="1965.5" x2="2326.5" y1="468.4531" y2="468.4531"/><rect fill="none" height="6" style="stroke:#C82930;stroke-width:1.0;" width="6" x="1972.5" y="479.1973"/><text fill="#000000" font-family="sans-serif" font-size="14" lengthAdjust="spacing" textLength="337" x="1984.5" y="485.9883">comunicationController: ComunicationController</text><line style="stroke:#000000;stroke-width:0.5;" x1="1965.5" x2="2326.5" y1="492.9414" y2="492.9414"/><ellipse cx="1975.5" cy="506.6855" fill="#84BE84" rx="3" ry="3" style="stroke:#038048;stroke-width:1.0;"/><text fill="#000000" font-family="sans-serif" font-size="14" lengthAdjust="spacing" textLength="129" x="1984.5" y="510.4766">doShow(): boolean</text><ellipse cx="1975.5" cy="523.1738" fill="#84BE84" rx="3" ry="3" style="stroke:#038048;stroke-width:1.0;"/><text fill="#000000" font-family="sans-serif" font-size="14" lengthAdjust="spacing" textLength="118" x="1984.5" y="526.9648">headline(): String</text></g><!--class JobOpeningRepository--><g id="elem_JobOpeningRepository"><rect codeLine="91" fill="#ADD8E6" height="56.6211" id="JobOpeningRepository" rx="2.5" ry="2.5" style="stroke:#000000;stroke-width:0.5;" width="160" x="983" y="1161.332"/><text fill="#000000" font-family="sans-serif" font-size="12" font-style="italic" lengthAdjust="spacing" textLength="70" x="1028" y="1177.9336">&#171;repository&#187;</text><text fill="#000000" font-family="sans-serif" font-size="14" lengthAdjust="spacing" textLength="154" x="986" y="1194">JobOpeningRepository</text><line style="stroke:#000000;stroke-width:0.5;" x1="984" x2="1142" y1="1201.9531" y2="1201.9531"/><line style="stroke:#000000;stroke-width:0.5;" x1="984" x2="1142" y1="1209.9531" y2="1209.9531"/></g><!--class JobApplicationRepository--><g id="elem_JobApplicationRepository"><rect codeLine="92" fill="#ADD8E6" height="56.6211" id="JobApplicationRepository" rx="2.5" ry="2.5" style="stroke:#000000;stroke-width:0.5;" width="179" x="768.5" y="1161.332"/><text fill="#000000" font-family="sans-serif" font-size="12" font-style="italic" lengthAdjust="spacing" textLength="70" x="823" y="1177.9336">&#171;repository&#187;</text><text fill="#000000" font-family="sans-serif" font-size="14" lengthAdjust="spacing" textLength="173" x="771.5" y="1194">JobApplicationRepository</text><line style="stroke:#000000;stroke-width:0.5;" x1="769.5" x2="946.5" y1="1201.9531" y2="1201.9531"/><line style="stroke:#000000;stroke-width:0.5;" x1="769.5" x2="946.5" y1="1209.9531" y2="1209.9531"/></g><!--class CandidateRepository--><g id="elem_CandidateRepository"><rect codeLine="93" fill="#ADD8E6" height="56.6211" id="CandidateRepository" rx="2.5" ry="2.5" style="stroke:#000000;stroke-width:0.5;" width="149" x="584.5" y="1161.332"/><text fill="#000000" font-family="sans-serif" font-size="12" font-style="italic" lengthAdjust="spacing" textLength="70" x="624" y="1177.9336">&#171;repository&#187;</text><text fill="#000000" font-family="sans-serif" font-size="14" lengthAdjust="spacing" textLength="143" x="587.5" y="1194">CandidateRepository</text><line style="stroke:#000000;stroke-width:0.5;" x1="585.5" x2="732.5" y1="1201.9531" y2="1201.9531"/><line style="stroke:#000000;stroke-width:0.5;" x1="585.5" x2="732.5" y1="1209.9531" y2="1209.9531"/></g><!--class CustomerRepository--><g id="elem_CustomerRepository"><rect codeLine="94" fill="#ADD8E6" height="56.6211" id="CustomerRepository" rx="2.5" ry="2.5" style="stroke:#000000;stroke-width:0.5;" width="146" x="403" y="1161.332"/><text fill="#000000" font-family="sans-serif" font-size="12" font-style="italic" lengthAdjust="spacing" textLength="70" x="441" y="1177.9336">&#171;repository&#187;</text><text fill="#000000" font-family="sans-serif" font-size="14" lengthAdjust="spacing" textLength="140" x="406" y="1194">CustomerRepository</text><line style="stroke:#000000;stroke-width:0.5;" x1="404" x2="548" y1="1201.9531" y2="1201.9531"/><line style="stroke:#000000;stroke-width:0.5;" x1="404" x2="548" y1="1209.9531" y2="1209.9531"/></g><!--class ComunicationController--><g id="elem_ComunicationController"><rect codeLine="101" fill="#ADD8E6" height="155.5508" id="ComunicationController" rx="2.5" ry="2.5" style="stroke:#000000;stroke-width:0.5;" width="374" x="2164" y="653.832"/><text fill="#000000" font-family="sans-serif" font-size="12" font-style="italic" lengthAdjust="spacing" textLength="75" x="2313.5" y="670.4336">&#171;application&#187;</text><text fill="#000000" font-family="sans-serif" font-size="14" lengthAdjust="spacing" textLength="166" x="2268" y="686.5">ComunicationController</text><line style="stroke:#000000;stroke-width:0.5;" x1="2165" x2="2537" y1="694.4531" y2="694.4531"/><rect fill="none" height="6" style="stroke:#C82930;stroke-width:1.0;" width="6" x="2172" y="705.1973"/><text fill="#000000" font-family="sans-serif" font-size="14" lengthAdjust="spacing" textLength="212" x="2184" y="711.9883">service: CommunicationService</text><line style="stroke:#000000;stroke-width:0.5;" x1="2165" x2="2537" y1="718.9414" y2="718.9414"/><ellipse cx="2175" cy="732.6855" fill="#84BE84" rx="3" ry="3" style="stroke:#038048;stroke-width:1.0;"/><text fill="#000000" font-family="sans-serif" font-size="14" lengthAdjust="spacing" textLength="298" x="2184" y="736.4766">initializeComunication(socket: Socket): void</text><ellipse cx="2175" cy="749.1738" fill="#84BE84" rx="3" ry="3" style="stroke:#038048;stroke-width:1.0;"/><text fill="#000000" font-family="sans-serif" font-size="14" lengthAdjust="spacing" textLength="140" x="2184" y="752.9648">testConnection(): int</text><ellipse cx="2175" cy="765.6621" fill="#84BE84" rx="3" ry="3" style="stroke:#038048;stroke-width:1.0;"/><text fill="#000000" font-family="sans-serif" font-size="14" lengthAdjust="spacing" textLength="348" x="2184" y="769.4531">login(userEmail: String, password: String): boolean</text><ellipse cx="2175" cy="782.1504" fill="#84BE84" rx="3" ry="3" style="stroke:#038048;stroke-width:1.0;"/><text fill="#000000" font-family="sans-serif" font-size="14" lengthAdjust="spacing" textLength="110" x="2184" y="785.9414">disconnect(): int</text><ellipse cx="2175" cy="798.6387" fill="#84BE84" rx="3" ry="3" style="stroke:#038048;stroke-width:1.0;"/><text fill="#000000" font-family="sans-serif" font-size="14" lengthAdjust="spacing" textLength="249" x="2184" y="802.4297">listAllJobApplications(): List&lt;String&gt;</text></g><!--class MessageCode--><g id="elem_MessageCode"><rect codeLine="110" fill="#ADD8E6" height="91.9531" id="MessageCode" rx="2.5" ry="2.5" style="stroke:#000000;stroke-width:0.5;" width="140" x="1828" y="927.332"/><text fill="#000000" font-family="sans-serif" font-size="14" lengthAdjust="spacing" textLength="95" x="1850.5" y="945.8672">MessageCode</text><line style="stroke:#000000;stroke-width:0.5;" x1="1829" x2="1967" y1="953.8203" y2="953.8203"/><rect fill="none" height="6" style="stroke:#C82930;stroke-width:1.0;" width="6" x="1836" y="964.5645"/><text fill="#000000" font-family="sans-serif" font-size="14" lengthAdjust="spacing" textLength="59" x="1848" y="971.3555">code: int</text><line style="stroke:#000000;stroke-width:0.5;" x1="1829" x2="1967" y1="978.3086" y2="978.3086"/><ellipse cx="1839" cy="992.0527" fill="#84BE84" rx="3" ry="3" style="stroke:#038048;stroke-width:1.0;"/><text fill="#000000" font-family="sans-serif" font-size="14" lengthAdjust="spacing" textLength="94" x="1848" y="995.8438">getCode(): int</text><ellipse cx="1839" cy="1008.541" fill="#84BE84" rx="3" ry="3" style="stroke:#038048;stroke-width:1.0;"/><text fill="#000000" font-family="sans-serif" font-size="14" lengthAdjust="spacing" textLength="114" x="1848" y="1012.332">toString(): String</text></g><!--class Translator--><g id="elem_Translator"><rect codeLine="115" fill="#ADD8E6" height="190.8828" id="Translator" rx="2.5" ry="2.5" style="stroke:#000000;stroke-width:0.5;" width="541" x="1587.5" y="636.332"/><text fill="#000000" font-family="sans-serif" font-size="14" lengthAdjust="spacing" textLength="71" x="1822.5" y="654.8672">Translator</text><line style="stroke:#000000;stroke-width:0.5;" x1="1588.5" x2="2127.5" y1="662.8203" y2="662.8203"/><line style="stroke:#000000;stroke-width:0.5;" x1="1588.5" x2="2127.5" y1="670.8203" y2="670.8203"/><ellipse cx="1598.5" cy="684.5645" fill="#84BE84" rx="3" ry="3" style="stroke:#038048;stroke-width:1.0;"/><text fill="#000000" font-family="sans-serif" font-size="14" lengthAdjust="spacing" textLength="515" x="1607.5" y="688.3555">encode(version: int, code: MessageCode, data1: byte[], data2: byte[]): byte[]</text><ellipse cx="1598.5" cy="701.0527" fill="#84BE84" rx="3" ry="3" style="stroke:#038048;stroke-width:1.0;"/><text fill="#000000" font-family="sans-serif" font-size="14" lengthAdjust="spacing" textLength="303" x="1607.5" y="704.8438">decodeVersion(encodedMessage: byte[]): int</text><ellipse cx="1598.5" cy="717.541" fill="#84BE84" rx="3" ry="3" style="stroke:#038048;stroke-width:1.0;"/><text fill="#000000" font-family="sans-serif" font-size="14" lengthAdjust="spacing" textLength="287" x="1607.5" y="721.332">decodeCode(encodedMessage: byte[]): int</text><ellipse cx="1598.5" cy="734.0293" fill="#84BE84" rx="3" ry="3" style="stroke:#038048;stroke-width:1.0;"/><text fill="#000000" font-family="sans-serif" font-size="14" lengthAdjust="spacing" textLength="315" x="1607.5" y="737.8203">decodeData1Len(encodedMessage: byte[]): int</text><ellipse cx="1598.5" cy="750.5176" fill="#84BE84" rx="3" ry="3" style="stroke:#038048;stroke-width:1.0;"/><text fill="#000000" font-family="sans-serif" font-size="14" lengthAdjust="spacing" textLength="312" x="1607.5" y="754.3086">decodeData1(encodedMessage: byte[]): byte[]</text><ellipse cx="1598.5" cy="767.0059" fill="#84BE84" rx="3" ry="3" style="stroke:#038048;stroke-width:1.0;"/><text fill="#000000" font-family="sans-serif" font-size="14" lengthAdjust="spacing" textLength="315" x="1607.5" y="770.7969">decodeData2Len(encodedMessage: byte[]): int</text><ellipse cx="1598.5" cy="783.4941" fill="#84BE84" rx="3" ry="3" style="stroke:#038048;stroke-width:1.0;"/><text fill="#000000" font-family="sans-serif" font-size="14" lengthAdjust="spacing" textLength="312" x="1607.5" y="787.2852">decodeData2(encodedMessage: byte[]): byte[]</text><ellipse cx="1598.5" cy="799.9824" fill="#84BE84" rx="3" ry="3" style="stroke:#038048;stroke-width:1.0;"/><text fill="#000000" font-family="sans-serif" font-size="14" lengthAdjust="spacing" textLength="358" x="1607.5" y="803.7734">serializeListJobApplications(list: List&lt;String&gt;): byte[]</text><ellipse cx="1598.5" cy="816.4707" fill="#84BE84" rx="3" ry="3" style="stroke:#038048;stroke-width:1.0;"/><text fill="#000000" font-family="sans-serif" font-size="14" lengthAdjust="spacing" textLength="391" x="1607.5" y="820.2617">deserializeListJobApplications(bytes: byte[]): List&lt;String&gt;</text></g><!--class Messenger--><g id="elem_Messenger"><rect codeLine="127" fill="#ADD8E6" height="141.418" id="Messenger" rx="2.5" ry="2.5" style="stroke:#000000;stroke-width:0.5;" width="272" x="1656" y="1119.332"/><text fill="#000000" font-family="sans-serif" font-size="14" lengthAdjust="spacing" textLength="74" x="1755" y="1137.8672">Messenger</text><line style="stroke:#000000;stroke-width:0.5;" x1="1657" x2="1927" y1="1145.8203" y2="1145.8203"/><rect fill="none" height="6" style="stroke:#C82930;stroke-width:1.0;" width="6" x="1664" y="1156.5645"/><text fill="#000000" font-family="sans-serif" font-size="14" lengthAdjust="spacing" textLength="97" x="1676" y="1163.3555">socket: Socket</text><rect fill="none" height="6" style="stroke:#C82930;stroke-width:1.0;" width="6" x="1664" y="1173.0527"/><text fill="#000000" font-family="sans-serif" font-size="14" lengthAdjust="spacing" textLength="171" x="1676" y="1179.8438">out: ObjectOutputStream</text><rect fill="none" height="6" style="stroke:#C82930;stroke-width:1.0;" width="6" x="1664" y="1189.541"/><text fill="#000000" font-family="sans-serif" font-size="14" lengthAdjust="spacing" textLength="149" x="1676" y="1196.332">in: ObjectInputStream</text><line style="stroke:#000000;stroke-width:0.5;" x1="1657" x2="1927" y1="1203.2852" y2="1203.2852"/><ellipse cx="1667" cy="1217.0293" fill="#84BE84" rx="3" ry="3" style="stroke:#038048;stroke-width:1.0;"/><text fill="#000000" font-family="sans-serif" font-size="14" lengthAdjust="spacing" textLength="181" x="1676" y="1220.8203">Messenger(socket: Socket)</text><ellipse cx="1667" cy="1233.5176" fill="#84BE84" rx="3" ry="3" style="stroke:#038048;stroke-width:1.0;"/><text fill="#000000" font-family="sans-serif" font-size="14" lengthAdjust="spacing" textLength="246" x="1676" y="1237.3086">sendMessage(message: byte[]): void</text><ellipse cx="1667" cy="1250.0059" fill="#84BE84" rx="3" ry="3" style="stroke:#038048;stroke-width:1.0;"/><text fill="#000000" font-family="sans-serif" font-size="14" lengthAdjust="spacing" textLength="164" x="1676" y="1253.7969">receiveMessage(): byte[]</text></g><!--class ListJobApplicationController--><g id="elem_ListJobApplicationController"><rect codeLine="136" fill="#ADD8E6" height="106.0859" id="ListJobApplicationController" rx="2.5" ry="2.5" style="stroke:#000000;stroke-width:0.5;" width="353" x="1199.5" y="678.832"/><text fill="#000000" font-family="sans-serif" font-size="12" font-style="italic" lengthAdjust="spacing" textLength="75" x="1338.5" y="695.4336">&#171;application&#187;</text><text fill="#000000" font-family="sans-serif" font-size="14" lengthAdjust="spacing" textLength="193" x="1279.5" y="711.5">ListJobApplicationController</text><line style="stroke:#000000;stroke-width:0.5;" x1="1200.5" x2="1551.5" y1="719.4531" y2="719.4531"/><rect fill="none" height="6" style="stroke:#C82930;stroke-width:1.0;" width="6" x="1207.5" y="730.1973"/><text fill="#000000" font-family="sans-serif" font-size="14" lengthAdjust="spacing" textLength="327" x="1219.5" y="736.9883">jobApplicationService: ListJobApplicationService</text><rect fill="none" height="6" style="stroke:#C82930;stroke-width:1.0;" width="6" x="1207.5" y="746.6855"/><text fill="#000000" font-family="sans-serif" font-size="14" lengthAdjust="spacing" textLength="190" x="1219.5" y="753.4766">authz: AuthorizationService</text><line style="stroke:#000000;stroke-width:0.5;" x1="1200.5" x2="1551.5" y1="760.4297" y2="760.4297"/><ellipse cx="1210.5" cy="774.1738" fill="#84BE84" rx="3" ry="3" style="stroke:#038048;stroke-width:1.0;"/><text fill="#000000" font-family="sans-serif" font-size="14" lengthAdjust="spacing" textLength="324" x="1219.5" y="777.9648">listJobApplicationsForCandidate(): List&lt;String&gt;</text></g><!--class CommunicationService--><g id="elem_CommunicationService"><rect codeLine="142" fill="#ADD8E6" height="172.0391" id="CommunicationService" rx="2.5" ry="2.5" style="stroke:#000000;stroke-width:0.5;" width="414" x="2083" y="887.332"/><text fill="#000000" font-family="sans-serif" font-size="12" font-style="italic" lengthAdjust="spacing" textLength="52" x="2264" y="903.9336">&#171;service&#187;</text><text fill="#000000" font-family="sans-serif" font-size="14" lengthAdjust="spacing" textLength="157" x="2211.5" y="920">CommunicationService</text><line style="stroke:#000000;stroke-width:0.5;" x1="2084" x2="2496" y1="927.9531" y2="927.9531"/><rect fill="none" height="6" style="stroke:#C82930;stroke-width:1.0;" width="6" x="2091" y="938.6973"/><text fill="#000000" font-family="sans-serif" font-size="14" lengthAdjust="spacing" textLength="198" x="2103" y="945.4883">serverMessenger: Messenger</text><line style="stroke:#000000;stroke-width:0.5;" x1="2084" x2="2496" y1="952.4414" y2="952.4414"/><ellipse cx="2094" cy="966.1855" fill="#84BE84" rx="3" ry="3" style="stroke:#038048;stroke-width:1.0;"/><text fill="#000000" font-family="sans-serif" font-size="14" lengthAdjust="spacing" textLength="254" x="2103" y="969.9766">getInstance(): CommunicationService</text><ellipse cx="2094" cy="982.6738" fill="#84BE84" rx="3" ry="3" style="stroke:#038048;stroke-width:1.0;"/><text fill="#000000" font-family="sans-serif" font-size="14" lengthAdjust="spacing" textLength="298" x="2103" y="986.4648">initializeComunication(socket: Socket): void</text><ellipse cx="2094" cy="999.1621" fill="#84BE84" rx="3" ry="3" style="stroke:#038048;stroke-width:1.0;"/><text fill="#000000" font-family="sans-serif" font-size="14" lengthAdjust="spacing" textLength="140" x="2103" y="1002.9531">testConnection(): int</text><ellipse cx="2094" cy="1015.6504" fill="#84BE84" rx="3" ry="3" style="stroke:#038048;stroke-width:1.0;"/><text fill="#000000" font-family="sans-serif" font-size="14" lengthAdjust="spacing" textLength="348" x="2103" y="1019.4414">login(userEmail: String, password: String): boolean</text><ellipse cx="2094" cy="1032.1387" fill="#84BE84" rx="3" ry="3" style="stroke:#038048;stroke-width:1.0;"/><text fill="#000000" font-family="sans-serif" font-size="14" lengthAdjust="spacing" textLength="110" x="2103" y="1035.9297">disconnect(): int</text><ellipse cx="2094" cy="1048.627" fill="#84BE84" rx="3" ry="3" style="stroke:#038048;stroke-width:1.0;"/><text fill="#000000" font-family="sans-serif" font-size="14" lengthAdjust="spacing" textLength="388" x="2103" y="1052.418">listAllJobApplicationsForSpecificCandidate(): List&lt;String}</text></g><!--class ListJobApplicationService--><g id="elem_ListJobApplicationService"><rect codeLine="153" fill="#ADD8E6" height="89.5977" id="ListJobApplicationService" rx="2.5" ry="2.5" style="stroke:#000000;stroke-width:0.5;" width="432" x="1199" y="928.332"/><text fill="#000000" font-family="sans-serif" font-size="12" font-style="italic" lengthAdjust="spacing" textLength="52" x="1389" y="944.9336">&#171;service&#187;</text><text fill="#000000" font-family="sans-serif" font-size="14" lengthAdjust="spacing" textLength="171" x="1329.5" y="961">ListJobApplicationService</text><line style="stroke:#000000;stroke-width:0.5;" x1="1200" x2="1630" y1="968.9531" y2="968.9531"/><rect fill="none" height="6" style="stroke:#C82930;stroke-width:1.0;" width="6" x="1207" y="979.6973"/><text fill="#000000" font-family="sans-serif" font-size="14" lengthAdjust="spacing" textLength="354" x="1219" y="986.4883">jobApplicationRepository: JobApplicationRepository</text><line style="stroke:#000000;stroke-width:0.5;" x1="1200" x2="1630" y1="993.4414" y2="993.4414"/><ellipse cx="1210" cy="1007.1855" fill="#84BE84" rx="3" ry="3" style="stroke:#038048;stroke-width:1.0;"/><text fill="#000000" font-family="sans-serif" font-size="14" lengthAdjust="spacing" textLength="406" x="1219" y="1010.9766">listJobApplicationsForCandidate(email: Email): List&lt;String&gt;</text></g><!--class Socket--><g id="elem_Socket"><rect fill="#ADD8E6" height="42.4883" id="Socket" rx="2.5" ry="2.5" style="stroke:#000000;stroke-width:0.5;" width="51" x="816.5" y="1320.332"/><text fill="#000000" font-family="sans-serif" font-size="14" lengthAdjust="spacing" textLength="45" x="819.5" y="1338.8672">Socket</text><line style="stroke:#000000;stroke-width:0.5;" x1="817.5" x2="866.5" y1="1346.8203" y2="1346.8203"/><line style="stroke:#000000;stroke-width:0.5;" x1="817.5" x2="866.5" y1="1354.8203" y2="1354.8203"/></g><!--class ServerSocket--><g id="elem_ServerSocket"><rect fill="#ADD8E6" height="42.4883" id="ServerSocket" rx="2.5" ry="2.5" style="stroke:#000000;stroke-width:0.5;" width="94" x="81" y="952.332"/><text fill="#000000" font-family="sans-serif" font-size="14" lengthAdjust="spacing" textLength="88" x="84" y="970.8672">ServerSocket</text><line style="stroke:#000000;stroke-width:0.5;" x1="82" x2="174" y1="978.8203" y2="978.8203"/><line style="stroke:#000000;stroke-width:0.5;" x1="82" x2="174" y1="986.8203" y2="986.8203"/></g><!--link MainMenu to ServerAction--><g id="link_MainMenu_ServerAction"><path codeLine="161" d="M2085.99,206.832 C2091.23,226.862 2095.463,243.057 2099.903,260.047 " fill="none" id="MainMenu-to-ServerAction" style="stroke:#000000;stroke-width:1.0;"/><polygon fill="#000000" points="2101.42,265.852,2103.0145,256.1331,2100.1558,261.0145,2095.2744,258.1558,2101.42,265.852" style="stroke:#000000;stroke-width:1.0;"/></g><!--link CandidateApp to ComunicationController--><g id="link_CandidateApp_ComunicationController"><path codeLine="163" d="M2360.37,189.892 C2358.76,282.442 2354.6238,521.5329 2352.4438,647.5729 " fill="none" id="CandidateApp-to-ComunicationController" style="stroke:#000000;stroke-width:1.0;"/><polygon fill="#000000" points="2352.34,653.572,2356.495,644.6426,2352.4265,648.5728,2348.4962,644.5042,2352.34,653.572" style="stroke:#000000;stroke-width:1.0;"/></g><!--link ServerAction to ServerUI--><g id="link_ServerAction_ServerUI"><path codeLine="165" d="M2114.86,325.832 C2120.36,353.042 2127.5313,388.501 2134.2013,421.501 " fill="none" id="ServerAction-to-ServerUI" style="stroke:#000000;stroke-width:1.0;"/><polygon fill="#000000" points="2135.39,427.382,2137.5277,417.768,2134.3994,422.4811,2129.6863,419.3529,2135.39,427.382" style="stroke:#000000;stroke-width:1.0;"/></g><!--link ServerUI to ComunicationController--><g id="link_ServerUI_ComunicationController"><path codeLine="167" d="M2188.97,534.032 C2217.5,568.682 2251.6365,610.1398 2283.6365,649.0098 " fill="none" id="ServerUI-to-ComunicationController" style="stroke:#000000;stroke-width:1.0;"/><polygon fill="#000000" points="2287.45,653.642,2284.8179,644.1514,2284.2721,649.7819,2278.6416,649.2361,2287.45,653.642" style="stroke:#000000;stroke-width:1.0;"/></g><!--link ComunicationController to CommunicationService--><g id="link_ComunicationController_CommunicationService"><path codeLine="169" d="M2331.28,810.262 C2325.05,834.722 2319.612,856.0779 2313.242,881.0679 " fill="none" id="ComunicationController-to-CommunicationService" style="stroke:#000000;stroke-width:1.0;"/><polygon fill="#000000" points="2311.76,886.882,2317.8591,879.1489,2312.995,882.037,2310.107,877.1729,2311.76,886.882" style="stroke:#000000;stroke-width:1.0;"/></g><!--link ComunicationController to MessageCode--><g id="link_ComunicationController_MessageCode"><path codeLine="170" d="M2204.55,810.262 C2125.32,852.152 2036.3939,899.157 1973.5239,932.407 " fill="none" id="ComunicationController-to-MessageCode" style="stroke:#000000;stroke-width:1.0;"/><polygon fill="#000000" points="1968.22,935.212,1978.0459,934.5404,1972.6399,932.8745,1974.3058,927.4685,1968.22,935.212" style="stroke:#000000;stroke-width:1.0;"/></g><!--link Translator to MessageCode--><g id="link_Translator_MessageCode"><path codeLine="172" d="M1873.81,827.492 C1879.53,861.742 1884.7419,892.954 1889.4319,921.044 " fill="none" id="Translator-to-MessageCode" style="stroke:#000000;stroke-width:1.0;"/><polygon fill="#000000" points="1890.42,926.962,1892.8832,917.4262,1889.5966,922.0303,1884.9925,918.7436,1890.42,926.962" style="stroke:#000000;stroke-width:1.0;"/></g><!--link Messenger to Socket--><g id="link_Messenger_Socket"><path codeLine="174" d="M1655.64,1212.292 C1426.73,1248.312 985.157,1317.7992 873.587,1335.3592 " fill="none" id="Messenger-to-Socket" style="stroke:#000000;stroke-width:1.0;"/><polygon fill="#000000" points="867.66,1336.292,877.1725,1338.8441,872.5992,1335.5147,875.9287,1330.9414,867.66,1336.292" style="stroke:#000000;stroke-width:1.0;"/></g><!--link ListJobApplicationController to ListJobApplicationService--><g id="link_ListJobApplicationController_ListJobApplicationService"><path codeLine="176" d="M1384.51,785.092 C1391.48,827.902 1400.2645,881.8702 1406.8545,922.2902 " fill="none" id="ListJobApplicationController-to-ListJobApplicationService" style="stroke:#000000;stroke-width:1.0;"/><polygon fill="#000000" points="1407.82,928.212,1410.3197,918.6857,1407.0154,923.2772,1402.4239,919.973,1407.82,928.212" style="stroke:#000000;stroke-width:1.0;"/></g><!--link CommunicationService to Messenger--><g id="link_CommunicationService_Messenger"><path codeLine="178" d="M2091.75,1059.722 C2036.96,1083.322 1984.2507,1106.0288 1933.8407,1127.7388 " fill="none" id="CommunicationService-to-Messenger" style="stroke:#000000;stroke-width:1.0;"/><polygon fill="#000000" points="1928.33,1130.112,1938.1782,1130.2259,1932.9222,1128.1343,1935.0138,1122.8783,1928.33,1130.112" style="stroke:#000000;stroke-width:1.0;"/></g><!--link ListJobApplicationService to JobOpeningRepository--><g id="link_ListJobApplicationService_JobOpeningRepository"><path codeLine="180" d="M1342.07,1018.772 C1271.89,1061.542 1173.0735,1121.7496 1113.8535,1157.8396 " fill="none" id="ListJobApplicationService-to-JobOpeningRepository" style="stroke:#000000;stroke-width:1.0;"/><polygon fill="#000000" points="1108.73,1160.962,1118.4969,1159.6941,1112.9996,1158.36,1114.3337,1152.8627,1108.73,1160.962" style="stroke:#000000;stroke-width:1.0;"/></g><!--link ListJobApplicationService to JobApplicationRepository--><g id="link_ListJobApplicationService_JobApplicationRepository"><path codeLine="181" d="M1239.47,1018.782 C1154.78,1043.182 1052.94,1076.942 966,1118.332 C941.13,1130.172 920.1397,1143.4631 899.9397,1157.6531 " fill="none" id="ListJobApplicationService-to-JobApplicationRepository" style="stroke:#000000;stroke-width:1.0;"/><polygon fill="#000000" points="895.03,1161.102,904.6938,1159.2018,899.1214,1158.2279,900.0952,1152.6555,895.03,1161.102" style="stroke:#000000;stroke-width:1.0;"/></g><!--link RcompServer to Server--><g id="link_RcompServer_Server"><path codeLine="183" d="M126.43,535.252 C126.72,571.972 127.0718,615.1122 127.3918,654.9422 " fill="none" id="RcompServer-to-Server" style="stroke:#000000;stroke-width:1.0;"/><polygon fill="#000000" points="127.44,660.942,131.3676,651.9102,127.3998,655.9422,123.3678,651.9745,127.44,660.942" style="stroke:#000000;stroke-width:1.0;"/></g><!--link SimpleHandler to CandidateRepository--><g id="link_SimpleHandler_CandidateRepository"><path codeLine="185" d="M517.09,576.772 C519.58,582.312 521.9,587.852 524,593.332 C604.36,803.492 643.4934,1068.5725 654.7834,1155.0625 " fill="none" id="SimpleHandler-to-CandidateRepository" style="stroke:#000000;stroke-width:1.0;"/><polygon fill="#000000" points="655.56,1161.012,658.3614,1151.57,654.9128,1156.0541,650.4287,1152.6055,655.56,1161.012" style="stroke:#000000;stroke-width:1.0;"/></g><!--link SimpleHandler to CustomerRepository--><g id="link_SimpleHandler_CustomerRepository"><path codeLine="186" d="M489.31,576.682 C490.36,582.292 491.28,587.862 492,593.332 C520.7,810.442 491.7468,1069.8625 480.6168,1155.1125 " fill="none" id="SimpleHandler-to-CustomerRepository" style="stroke:#000000;stroke-width:1.0;"/><polygon fill="#000000" points="479.84,1161.062,484.9715,1152.6556,480.4873,1156.1041,477.0388,1151.6199,479.84,1161.062" style="stroke:#000000;stroke-width:1.0;"/></g><!--link SimpleHandler to Handler--><g id="link_SimpleHandler_Handler"><path codeLine="187" d="M427.34,576.682 C417.09,604.712 408.1301,629.2468 398.5701,655.3968 " fill="none" id="SimpleHandler-to-Handler" style="stroke:#000000;stroke-width:1.0;"/><polygon fill="#000000" points="396.51,661.032,403.357,653.9526,398.2268,656.336,395.8434,651.2058,396.51,661.032" style="stroke:#000000;stroke-width:1.0;"/></g><!--link SimpleHandler to ListJobApplicationController--><g id="link_SimpleHandler_ListJobApplicationController"><path codeLine="188" d="M660.89,536.012 C821.32,579.722 1039.111,639.055 1193.361,681.075 " fill="none" id="SimpleHandler-to-ListJobApplicationController" style="stroke:#000000;stroke-width:1.0;"/><polygon fill="#000000" points="1199.15,682.652,1191.5178,676.4271,1194.3258,681.3378,1189.4151,684.1459,1199.15,682.652" style="stroke:#000000;stroke-width:1.0;"/></g><!--link Handler to Socket--><g id="link_Handler_Socket"><path codeLine="190" d="M347.58,802.562 C313.45,918.672 266.4,1151.892 387,1284.332 C416.14,1316.332 718.2078,1334.0759 810.2078,1338.7759 " fill="none" id="Handler-to-Socket" style="stroke:#000000;stroke-width:1.0;"/><polygon fill="#000000" points="816.2,1339.082,807.4158,1334.6281,811.2065,1338.8269,807.0076,1342.6176,816.2,1339.082" style="stroke:#000000;stroke-width:1.0;"/></g><!--link Server to ServerSocket--><g id="link_Server_ServerSocket"><path codeLine="192" d="M128,802.752 C128,853.692 128,913.292 128,945.962 " fill="none" id="Server-to-ServerSocket" style="stroke:#000000;stroke-width:1.0;"/><polygon fill="#000000" points="128,951.962,132,942.962,128,946.962,124,942.962,128,951.962" style="stroke:#000000;stroke-width:1.0;"/></g><!--SRC=[tLTBRziu4BxpL-Ye8Z4sIVSa10OSjqNTJTQ1bUmUYgAWfLcR2KqA99LiKkI_xv3KYvRa9DSja4hcV9pvE4_ACCCXEjVi6PAF9zCvfrf7dnZTABgB9b4AwW4KldmyEJav_yt2feHiMGvHnbJ6WUXx9WfgqGNDxka6KlE46XLaXdI4cLFyYqJuxmA16oLBaSybbogwP9kjkU0bEEbCAVde1HSSaNwBL3ce_TKlKfYXjHHfHgU_avSE0GMS6YQ5thAYuZ5eoIqEAMu4hNP2gZEZLSxbusrH-UlyV8NdfsB3OJhzHOW__IgJknhX6KokbwkR96B2k9z7Eyf4JDL69r5g51ERxpy-9D63PBcNCy5C7Ane8ulOR1NGF8bktBEMlzHsKxOhE7ob8kUjPLgQxNCIpV0X5Njslh7SMER3CCaGpt9gO0M5rCn8zPH4y_vYXIwHoGvK0EwjUSu1drZBx1uC7jWzFtZ8rWd3erh680pBq7oy0wtHyKcqVZBWlBIMaWCLbLj0vBFv7tk-miNFgrL_CVsw_Fldj-N5pzdrzULYFhjPBFzCOyuqqhh4_yzzCAOzp-xvLBlOfi61Aib29D5oVOTPiH15QL0Xq5qbMvQc5k9hA3rwjvjKAU9-2WHPjyUpyylBuL_8IeCdtlEgHyQ5LCObRSN2ms4WCGyHitzr-JHfDIkAr3QNuGAwmlAu0b6-DOUFz5O-nlkvaSjqO7coBXdFQmjMQf-j1xiKQ_kOZtDi20gB7nJckzoLmgOdqcZNNwtilI3DChk_Cj7rRSrs3t-xG6yL2Z2HZJDj7UPhSf3FOPx3pZdQOb_XJ3WUdh-bqOdW9she1TLZaVicryi21Evhcm52LVC3iIyj5dtCAuAlumTwqYYqrv7wo30nfHexqh0N4KnRyaqejCzAv_jsMv2hjhSpod6uT3Nlrtste0ned592WCiO6vfca72vmNmhqUndp3nU1-qOXxJMZpXCwvLUSJ2TUPMXFko2Cyx3q6WBwVR7DZMlV7kUIwpb9Xjpw6ZSWB7Im8gHNb6GPLxXZQ92umINggaCOJN6M04QkJWjnv4tqh5-765cqDDwJlYVPzsnuLwgmuFT_vVN67i3-LLlqZHyFTuTuwrWMoUdbo3Ujs4StQTlDvozryBPsonWFlaKjL7VJuR1UHdoExZVGdN7y7XcWTXqXjd0k9K79kg4ZOxYeqRvyBYrTuNAGGCNaCwaWmpO0zJGrWtDAVhdVxM5t0Nmj6ueVKt1BUxL4SdxaVWYLTDJnqjyg9CXzQhJ1PqFLEFOf0rWqmSMGcDtpPoj_rL_H4Uc1MJi7vQDEVJ5NON6acBShNSZGp8P7Pzl2pTuTpYlz4DlkPBc5ZQPJ8Cx2o719ScAHwuQ9BZgj7fk5xK8RpM7zeyCtsfBFuCEu3l3Wf3EcEd9sixZ2FjsGmvMiWME5oWPBA7QhgyHCfuK5ZXqhtfzot1-aExtQHiJZ4Zm_UXyFF0PE83gV__rGTNxWEIGPmdf8kjOzBXNWly0]--></g></svg>