<?xml version="1.0" encoding="us-ascii" standalone="no"?><svg xmlns="http://www.w3.org/2000/svg" xmlns:xlink="http://www.w3.org/1999/xlink" contentStyleType="text/css" height="1695px" preserveAspectRatio="none" style="width:3332px;height:1695px;background:#FFFFFF;" version="1.1" viewBox="0 0 3332 1695" width="3332px" zoomAndPan="magnify"><defs/><g><text fill="#000000" font-family="sans-serif" font-size="14" font-weight="bold" lengthAdjust="spacing" textLength="238" x="1553.25" y="28.5352">FollowUpServer Diagram_US3001</text><rect fill="#90EE90" height="1646.3027" style="stroke:#181818;stroke-width:0.5;" width="1736.5" x="26" y="43.4883"/><text fill="#000000" font-family="sans-serif" font-size="13" font-weight="bold" lengthAdjust="spacing" textLength="104" x="842.25" y="56.0566">FollowUpServer</text><rect fill="#ADD8E6" height="1646.3027" style="stroke:#181818;stroke-width:0.5;" width="1262" x="2037.5" y="43.4883"/><text fill="#000000" font-family="sans-serif" font-size="13" font-weight="bold" lengthAdjust="spacing" textLength="31" x="2653" y="56.0566">Core</text><rect fill="#FFFFFF" height="1509.0391" style="stroke:#181818;stroke-width:1.0;" width="10" x="79" y="120.7754"/><rect fill="#FFFFFF" height="1461.7285" style="stroke:#181818;stroke-width:1.0;" width="10" x="440" y="152.0859"/><rect fill="#FFFFFF" height="1400.9297" style="stroke:#181818;stroke-width:1.0;" width="10" x="682" y="183.5742"/><rect fill="#FFFFFF" height="1159.4453" style="stroke:#181818;stroke-width:1.0;" width="10" x="1352.5" y="373.793"/><rect fill="#FFFFFF" height="1159.4453" style="stroke:#181818;stroke-width:1.0;" width="10" x="1970.5" y="373.793"/><rect fill="#FFFFFF" height="306.3945" style="stroke:#181818;stroke-width:1.0;" width="10" x="2081" y="403.1035"/><rect fill="#FFFFFF" height="29.3105" style="stroke:#181818;stroke-width:1.0;" width="10" x="2081" y="1474.6172"/><rect fill="#FFFFFF" height="252.5059" style="stroke:#181818;stroke-width:1.0;" width="10" x="2568.5" y="1150.4902"/><rect fill="#FFFFFF" height="135.9082" style="stroke:#181818;stroke-width:1.0;" width="10" x="2857.5" y="1237.7773"/><rect fill="#FFFFFF" height="29.3105" style="stroke:#181818;stroke-width:1.0;" width="10" x="3210" y="1315.0645"/><rect fill="none" height="1286.6426" style="stroke:#000000;stroke-width:1.5;" width="3305.5" x="20" y="335.1719"/><rect fill="none" height="1123.1348" style="stroke:#000000;stroke-width:1.5;" width="2047" x="1268.5" y="418.1035"/><rect fill="none" height="497.9688" style="stroke:#000000;stroke-width:1.5;" width="2027" x="1278.5" y="599.2559"/><rect fill="none" height="46.6211" style="stroke:#000000;stroke-width:1.5;" width="972" x="1288.5" y="811.7852"/><rect fill="none" height="46.6211" style="stroke:#000000;stroke-width:1.5;" width="972" x="1288.5" y="901.7168"/><line style="stroke:#181818;stroke-width:0.5;stroke-dasharray:5.0,5.0;" x1="84" x2="84" y1="110.7754" y2="1638.8145"/><line style="stroke:#181818;stroke-width:0.5;stroke-dasharray:5.0,5.0;" x1="444.5" x2="444.5" y1="151.5195" y2="1638.8145"/><line style="stroke:#181818;stroke-width:0.5;stroke-dasharray:5.0,5.0;" x1="687" x2="687" y1="110.7754" y2="1638.8145"/><line style="stroke:#181818;stroke-width:0.5;stroke-dasharray:5.0,5.0;" x1="994" x2="994" y1="275.9395" y2="1638.8145"/><line style="stroke:#181818;stroke-width:0.5;stroke-dasharray:5.0,5.0;" x1="1357.5" x2="1357.5" y1="317.4277" y2="1638.8145"/><line style="stroke:#181818;stroke-width:0.5;stroke-dasharray:5.0,5.0;" x1="1722.5" x2="1722.5" y1="110.7754" y2="1638.8145"/><line style="stroke:#181818;stroke-width:0.5;stroke-dasharray:5.0,5.0;" x1="1975.5" x2="1975.5" y1="110.7754" y2="1638.8145"/><line style="stroke:#181818;stroke-width:0.5;stroke-dasharray:5.0,5.0;" x1="2085.5" x2="2085.5" y1="110.7754" y2="1638.8145"/><line style="stroke:#181818;stroke-width:0.5;stroke-dasharray:5.0,5.0;" x1="2195.5" x2="2195.5" y1="756.4863" y2="1638.8145"/><line style="stroke:#181818;stroke-width:0.5;stroke-dasharray:5.0,5.0;" x1="2339.5" x2="2339.5" y1="110.7754" y2="1638.8145"/><line style="stroke:#181818;stroke-width:0.5;stroke-dasharray:5.0,5.0;" x1="2573.5" x2="2573.5" y1="1158.168" y2="1638.8145"/><line style="stroke:#181818;stroke-width:0.5;stroke-dasharray:5.0,5.0;" x1="2862.5" x2="2862.5" y1="1245.4551" y2="1638.8145"/><line style="stroke:#181818;stroke-width:0.5;stroke-dasharray:5.0,5.0;" x1="3065.5" x2="3065.5" y1="110.7754" y2="1638.8145"/><line style="stroke:#181818;stroke-width:0.5;stroke-dasharray:5.0,5.0;" x1="3214.5" x2="3214.5" y1="110.7754" y2="1638.8145"/><rect fill="#E2E2F0" height="30.4883" rx="2.5" ry="2.5" style="stroke:#181818;stroke-width:0.5;" width="108" x="30" y="79.2871"/><text fill="#000000" font-family="sans-serif" font-size="14" lengthAdjust="spacing" textLength="94" x="37" y="99.8223">:RcompServer</text><rect fill="#E2E2F0" height="30.4883" rx="2.5" ry="2.5" style="stroke:#181818;stroke-width:0.5;" width="108" x="30" y="1637.8145"/><text fill="#000000" font-family="sans-serif" font-size="14" lengthAdjust="spacing" textLength="94" x="37" y="1658.3496">:RcompServer</text><rect fill="#E2E2F0" height="30.4883" rx="2.5" ry="2.5" style="stroke:#181818;stroke-width:0.5;" width="61" x="414.5" y="1637.8145"/><text fill="#000000" font-family="sans-serif" font-size="14" lengthAdjust="spacing" textLength="47" x="421.5" y="1658.3496">:Server</text><rect fill="#E2E2F0" height="30.4883" rx="2.5" ry="2.5" style="stroke:#181818;stroke-width:0.5;" width="162" x="606" y="79.2871"/><text fill="#000000" font-family="sans-serif" font-size="14" lengthAdjust="spacing" textLength="148" x="613" y="99.8223">:SemaphoreForServer</text><rect fill="#E2E2F0" height="30.4883" rx="2.5" ry="2.5" style="stroke:#181818;stroke-width:0.5;" width="162" x="606" y="1637.8145"/><text fill="#000000" font-family="sans-serif" font-size="14" lengthAdjust="spacing" textLength="148" x="613" y="1658.3496">:SemaphoreForServer</text><rect fill="#E2E2F0" height="30.4883" rx="2.5" ry="2.5" style="stroke:#181818;stroke-width:0.5;" width="67" x="961" y="1637.8145"/><text fill="#000000" font-family="sans-serif" font-size="14" lengthAdjust="spacing" textLength="53" x="968" y="1658.3496">:Thread</text><rect fill="#E2E2F0" height="30.4883" rx="2.5" ry="2.5" style="stroke:#181818;stroke-width:0.5;" width="118" x="1298.5" y="1637.8145"/><text fill="#000000" font-family="sans-serif" font-size="14" lengthAdjust="spacing" textLength="104" x="1305.5" y="1658.3496">:SimpleHandler</text><rect fill="#E2E2F0" height="30.4883" rx="2.5" ry="2.5" style="stroke:#181818;stroke-width:0.5;" width="72" x="1686.5" y="79.2871"/><text fill="#000000" font-family="sans-serif" font-size="14" lengthAdjust="spacing" textLength="58" x="1693.5" y="99.8223">:Handler</text><rect fill="#E2E2F0" height="30.4883" rx="2.5" ry="2.5" style="stroke:#181818;stroke-width:0.5;" width="72" x="1686.5" y="1637.8145"/><text fill="#000000" font-family="sans-serif" font-size="14" lengthAdjust="spacing" textLength="58" x="1693.5" y="1658.3496">:Handler</text><rect fill="#FFA500" height="30.4883" rx="2.5" ry="2.5" style="stroke:#181818;stroke-width:0.5;" width="112" x="1919.5" y="79.2871"/><text fill="#000000" font-family="sans-serif" font-size="14" lengthAdjust="spacing" textLength="98" x="1926.5" y="99.8223">CandidateApp</text><rect fill="#FFA500" height="30.4883" rx="2.5" ry="2.5" style="stroke:#181818;stroke-width:0.5;" width="112" x="1919.5" y="1637.8145"/><text fill="#000000" font-family="sans-serif" font-size="14" lengthAdjust="spacing" textLength="98" x="1926.5" y="1658.3496">CandidateApp</text><rect fill="#E2E2F0" height="30.4883" rx="2.5" ry="2.5" style="stroke:#181818;stroke-width:0.5;" width="89" x="2041.5" y="79.2871"/><text fill="#000000" font-family="sans-serif" font-size="14" lengthAdjust="spacing" textLength="75" x="2048.5" y="99.8223">:Translator</text><rect fill="#E2E2F0" height="30.4883" rx="2.5" ry="2.5" style="stroke:#181818;stroke-width:0.5;" width="89" x="2041.5" y="1637.8145"/><text fill="#000000" font-family="sans-serif" font-size="14" lengthAdjust="spacing" textLength="75" x="2048.5" y="1658.3496">:Translator</text><rect fill="#E2E2F0" height="46.9766" rx="2.5" ry="2.5" style="stroke:#181818;stroke-width:0.5;" width="110" x="2140.5" y="1637.8145"/><text fill="#000000" font-family="sans-serif" font-size="14" font-style="italic" lengthAdjust="spacing" textLength="96" x="2147.5" y="1658.3496">&#171;value object&#187;</text><text fill="#000000" font-family="sans-serif" font-size="14" lengthAdjust="spacing" textLength="41" x="2175" y="1674.8379">:Email</text><rect fill="#E2E2F0" height="46.9766" rx="2.5" ry="2.5" style="stroke:#181818;stroke-width:0.5;" width="158" x="2260.5" y="62.7988"/><text fill="#000000" font-family="sans-serif" font-size="14" font-style="italic" lengthAdjust="spacing" textLength="84" x="2297.5" y="83.334">&#171;repository&#187;</text><text fill="#000000" font-family="sans-serif" font-size="14" lengthAdjust="spacing" textLength="144" x="2267.5" y="99.8223">:CustomerRepository</text><rect fill="#E2E2F0" height="46.9766" rx="2.5" ry="2.5" style="stroke:#181818;stroke-width:0.5;" width="158" x="2260.5" y="1637.8145"/><text fill="#000000" font-family="sans-serif" font-size="14" font-style="italic" lengthAdjust="spacing" textLength="84" x="2297.5" y="1658.3496">&#171;repository&#187;</text><text fill="#000000" font-family="sans-serif" font-size="14" lengthAdjust="spacing" textLength="144" x="2267.5" y="1674.8379">:CustomerRepository</text><rect fill="#E2E2F0" height="46.9766" rx="2.5" ry="2.5" style="stroke:#181818;stroke-width:0.5;" width="290" x="2428.5" y="1637.8145"/><text fill="#000000" font-family="sans-serif" font-size="14" font-style="italic" lengthAdjust="spacing" textLength="90" x="2528.5" y="1658.3496">&#171;application&#187;</text><text fill="#000000" font-family="sans-serif" font-size="14" lengthAdjust="spacing" textLength="276" x="2435.5" y="1674.8379">:ListNotificationJobApplicationController</text><rect fill="#E2E2F0" height="46.9766" rx="2.5" ry="2.5" style="stroke:#181818;stroke-width:0.5;" width="268" x="2728.5" y="1637.8145"/><text fill="#000000" font-family="sans-serif" font-size="14" font-style="italic" lengthAdjust="spacing" textLength="61" x="2832" y="1658.3496">&#171;service&#187;</text><text fill="#000000" font-family="sans-serif" font-size="14" lengthAdjust="spacing" textLength="254" x="2735.5" y="1674.8379">:ListNotificationJobApplicationService</text><rect fill="#E2E2F0" height="46.9766" rx="2.5" ry="2.5" style="stroke:#181818;stroke-width:0.5;" width="118" x="3006.5" y="62.7988"/><text fill="#000000" font-family="sans-serif" font-size="14" font-style="italic" lengthAdjust="spacing" textLength="52" x="3039.5" y="83.334">&#171;entity&#187;</text><text fill="#000000" font-family="sans-serif" font-size="14" lengthAdjust="spacing" textLength="104" x="3013.5" y="99.8223">:JobApplication</text><rect fill="#E2E2F0" height="46.9766" rx="2.5" ry="2.5" style="stroke:#181818;stroke-width:0.5;" width="118" x="3006.5" y="1637.8145"/><text fill="#000000" font-family="sans-serif" font-size="14" font-style="italic" lengthAdjust="spacing" textLength="52" x="3039.5" y="1658.3496">&#171;entity&#187;</text><text fill="#000000" font-family="sans-serif" font-size="14" lengthAdjust="spacing" textLength="104" x="3013.5" y="1674.8379">:JobApplication</text><rect fill="#E2E2F0" height="46.9766" rx="2.5" ry="2.5" style="stroke:#181818;stroke-width:0.5;" width="161" x="3134.5" y="62.7988"/><text fill="#000000" font-family="sans-serif" font-size="14" font-style="italic" lengthAdjust="spacing" textLength="84" x="3173" y="83.334">&#171;repository&#187;</text><text fill="#000000" font-family="sans-serif" font-size="14" lengthAdjust="spacing" textLength="147" x="3141.5" y="99.8223">:CandidateRepository</text><rect fill="#E2E2F0" height="46.9766" rx="2.5" ry="2.5" style="stroke:#181818;stroke-width:0.5;" width="161" x="3134.5" y="1637.8145"/><text fill="#000000" font-family="sans-serif" font-size="14" font-style="italic" lengthAdjust="spacing" textLength="84" x="3173" y="1658.3496">&#171;repository&#187;</text><text fill="#000000" font-family="sans-serif" font-size="14" lengthAdjust="spacing" textLength="147" x="3141.5" y="1674.8379">:CandidateRepository</text><rect fill="#FFFFFF" height="1509.0391" style="stroke:#181818;stroke-width:1.0;" width="10" x="79" y="120.7754"/><rect fill="#FFFFFF" height="1461.7285" style="stroke:#181818;stroke-width:1.0;" width="10" x="440" y="152.0859"/><rect fill="#FFFFFF" height="1400.9297" style="stroke:#181818;stroke-width:1.0;" width="10" x="682" y="183.5742"/><rect fill="#FFFFFF" height="1159.4453" style="stroke:#181818;stroke-width:1.0;" width="10" x="1352.5" y="373.793"/><rect fill="#FFFFFF" height="1159.4453" style="stroke:#181818;stroke-width:1.0;" width="10" x="1970.5" y="373.793"/><rect fill="#FFFFFF" height="306.3945" style="stroke:#181818;stroke-width:1.0;" width="10" x="2081" y="403.1035"/><rect fill="#FFFFFF" height="29.3105" style="stroke:#181818;stroke-width:1.0;" width="10" x="2081" y="1474.6172"/><rect fill="#FFFFFF" height="252.5059" style="stroke:#181818;stroke-width:1.0;" width="10" x="2568.5" y="1150.4902"/><rect fill="#FFFFFF" height="135.9082" style="stroke:#181818;stroke-width:1.0;" width="10" x="2857.5" y="1237.7773"/><rect fill="#FFFFFF" height="29.3105" style="stroke:#181818;stroke-width:1.0;" width="10" x="3210" y="1315.0645"/><polygon fill="#181818" points="402.5,138.0859,412.5,142.0859,402.5,146.0859,406.5,142.0859" style="stroke:#181818;stroke-width:1.0;"/><line style="stroke:#181818;stroke-width:1.0;" x1="89" x2="408.5" y1="142.0859" y2="142.0859"/><text fill="#000000" font-family="sans-serif" font-size="13" lengthAdjust="spacing" textLength="108" x="96" y="137.3438">new Server(PORT)</text><rect fill="#E2E2F0" height="30.4883" rx="2.5" ry="2.5" style="stroke:#181818;stroke-width:0.5;" width="61" x="414.5" y="120.7754"/><text fill="#000000" font-family="sans-serif" font-size="14" lengthAdjust="spacing" textLength="47" x="421.5" y="141.3105">:Server</text><polygon fill="#181818" points="670,179.5742,680,183.5742,670,187.5742,674,183.5742" style="stroke:#181818;stroke-width:1.0;"/><line style="stroke:#181818;stroke-width:1.0;" x1="450" x2="676" y1="183.5742" y2="183.5742"/><text fill="#000000" font-family="sans-serif" font-size="13" lengthAdjust="spacing" textLength="213" x="457" y="178.832">instance().activateCriticalSection()</text><polygon fill="#181818" points="461,233.1953,451,237.1953,461,241.1953,457,237.1953" style="stroke:#181818;stroke-width:1.0;"/><line style="stroke:#181818;stroke-width:1.0;stroke-dasharray:2.0,2.0;" x1="455" x2="681" y1="237.1953" y2="237.1953"/><text fill="#000000" font-family="sans-serif" font-size="13" lengthAdjust="spacing" textLength="25" x="467" y="232.4531">true</text><polygon fill="#181818" points="949,262.5059,959,266.5059,949,270.5059,953,266.5059" style="stroke:#181818;stroke-width:1.0;"/><line style="stroke:#181818;stroke-width:1.0;" x1="450" x2="955" y1="266.5059" y2="266.5059"/><text fill="#000000" font-family="sans-serif" font-size="13" lengthAdjust="spacing" textLength="487" x="457" y="261.7637">new Thread(serverThreadGroup, new SimpleHandler(serverSocketConnection))</text><rect fill="#E2E2F0" height="30.4883" rx="2.5" ry="2.5" style="stroke:#181818;stroke-width:0.5;" width="67" x="961" y="245.1953"/><text fill="#000000" font-family="sans-serif" font-size="14" lengthAdjust="spacing" textLength="53" x="968" y="265.7305">:Thread</text><polygon fill="#181818" points="1286.5,303.9941,1296.5,307.9941,1286.5,311.9941,1290.5,307.9941" style="stroke:#181818;stroke-width:1.0;"/><line style="stroke:#181818;stroke-width:1.0;" x1="994.5" x2="1292.5" y1="307.9941" y2="307.9941"/><text fill="#000000" font-family="sans-serif" font-size="13" lengthAdjust="spacing" textLength="280" x="1001.5" y="303.252">new SimpleHandler(serverSocketConnection)</text><rect fill="#E2E2F0" height="30.4883" rx="2.5" ry="2.5" style="stroke:#181818;stroke-width:0.5;" width="118" x="1298.5" y="286.6836"/><text fill="#000000" font-family="sans-serif" font-size="14" lengthAdjust="spacing" textLength="104" x="1305.5" y="307.2188">:SimpleHandler</text><path d="M20,335.1719 L94,335.1719 L94,342.4824 L84,352.4824 L20,352.4824 L20,335.1719 " fill="#EEEEEE" style="stroke:#000000;stroke-width:1.5;"/><rect fill="none" height="1286.6426" style="stroke:#000000;stroke-width:1.5;" width="3305.5" x="20" y="335.1719"/><text fill="#000000" font-family="sans-serif" font-size="13" font-weight="bold" lengthAdjust="spacing" textLength="29" x="35" y="348.7402">loop</text><text fill="#000000" font-family="sans-serif" font-size="11" font-weight="bold" lengthAdjust="spacing" textLength="98" x="109" y="347.8066">[while connected]</text><polygon fill="#181818" points="1373.5,369.793,1363.5,373.793,1373.5,377.793,1369.5,373.793" style="stroke:#181818;stroke-width:1.0;"/><line style="stroke:#181818;stroke-width:1.0;stroke-dasharray:2.0,2.0;" x1="1367.5" x2="1969.5" y1="373.793" y2="373.793"/><text fill="#000000" font-family="sans-serif" font-size="13" lengthAdjust="spacing" textLength="94" x="1379.5" y="369.0508">byte[] message</text><polygon fill="#181818" points="2069,399.1035,2079,403.1035,2069,407.1035,2073,403.1035" style="stroke:#181818;stroke-width:1.0;"/><line style="stroke:#181818;stroke-width:1.0;" x1="1362.5" x2="2075" y1="403.1035" y2="403.1035"/><text fill="#000000" font-family="sans-serif" font-size="13" lengthAdjust="spacing" textLength="140" x="1369.5" y="398.3613">decodeCode(message)</text><path d="M1268.5,418.1035 L1330.5,418.1035 L1330.5,425.4141 L1320.5,435.4141 L1268.5,435.4141 L1268.5,418.1035 " fill="#EEEEEE" style="stroke:#000000;stroke-width:1.5;"/><rect fill="none" height="1123.1348" style="stroke:#000000;stroke-width:1.5;" width="2047" x="1268.5" y="418.1035"/><text fill="#000000" font-family="sans-serif" font-size="13" font-weight="bold" lengthAdjust="spacing" textLength="17" x="1283.5" y="431.6719">alt</text><text fill="#000000" font-family="sans-serif" font-size="11" font-weight="bold" lengthAdjust="spacing" textLength="15" x="1345.5" y="430.7383">[0]</text><line style="stroke:#181818;stroke-width:1.0;" x1="1362.5" x2="1404.5" y1="456.7246" y2="456.7246"/><line style="stroke:#181818;stroke-width:1.0;" x1="1404.5" x2="1404.5" y1="456.7246" y2="469.7246"/><line style="stroke:#181818;stroke-width:1.0;" x1="1363.5" x2="1404.5" y1="469.7246" y2="469.7246"/><polygon fill="#181818" points="1373.5,465.7246,1363.5,469.7246,1373.5,473.7246,1369.5,469.7246" style="stroke:#181818;stroke-width:1.0;"/><text fill="#000000" font-family="sans-serif" font-size="13" lengthAdjust="spacing" textLength="64" x="1369.5" y="451.9824">sendACK()</text><line style="stroke:#000000;stroke-width:1.0;stroke-dasharray:2.0,2.0;" x1="1268.5" x2="3315.5" y1="478.7246" y2="478.7246"/><text fill="#000000" font-family="sans-serif" font-size="11" font-weight="bold" lengthAdjust="spacing" textLength="15" x="1273.5" y="489.3594">[1]</text><line style="stroke:#181818;stroke-width:1.0;" x1="1362.5" x2="1404.5" y1="513.9902" y2="513.9902"/><line style="stroke:#181818;stroke-width:1.0;" x1="1404.5" x2="1404.5" y1="513.9902" y2="526.9902"/><line style="stroke:#181818;stroke-width:1.0;" x1="1363.5" x2="1404.5" y1="526.9902" y2="526.9902"/><polygon fill="#181818" points="1373.5,522.9902,1363.5,526.9902,1373.5,530.9902,1369.5,526.9902" style="stroke:#181818;stroke-width:1.0;"/><text fill="#000000" font-family="sans-serif" font-size="13" lengthAdjust="spacing" textLength="113" x="1369.5" y="509.248">connected = false</text><line style="stroke:#000000;stroke-width:1.0;stroke-dasharray:2.0,2.0;" x1="1268.5" x2="3315.5" y1="535.9902" y2="535.9902"/><text fill="#000000" font-family="sans-serif" font-size="11" font-weight="bold" lengthAdjust="spacing" textLength="15" x="1273.5" y="546.625">[4]</text><line style="stroke:#181818;stroke-width:1.0;" x1="1362.5" x2="1404.5" y1="571.2559" y2="571.2559"/><line style="stroke:#181818;stroke-width:1.0;" x1="1404.5" x2="1404.5" y1="571.2559" y2="584.2559"/><line style="stroke:#181818;stroke-width:1.0;" x1="1363.5" x2="1404.5" y1="584.2559" y2="584.2559"/><polygon fill="#181818" points="1373.5,580.2559,1363.5,584.2559,1373.5,588.2559,1369.5,584.2559" style="stroke:#181818;stroke-width:1.0;"/><text fill="#000000" font-family="sans-serif" font-size="13" lengthAdjust="spacing" textLength="141" x="1369.5" y="566.5137">authenticate(message)</text><path d="M1278.5,599.2559 L1340.5,599.2559 L1340.5,606.5664 L1330.5,616.5664 L1278.5,616.5664 L1278.5,599.2559 " fill="#EEEEEE" style="stroke:#000000;stroke-width:1.5;"/><rect fill="none" height="497.9688" style="stroke:#000000;stroke-width:1.5;" width="2027" x="1278.5" y="599.2559"/><text fill="#000000" font-family="sans-serif" font-size="13" font-weight="bold" lengthAdjust="spacing" textLength="17" x="1293.5" y="612.8242">alt</text><text fill="#000000" font-family="sans-serif" font-size="11" font-weight="bold" lengthAdjust="spacing" textLength="30" x="1355.5" y="611.8906">[true]</text><line style="stroke:#181818;stroke-width:1.0;stroke-dasharray:2.0,2.0;" x1="1362.5" x2="1404.5" y1="637.877" y2="637.877"/><line style="stroke:#181818;stroke-width:1.0;stroke-dasharray:2.0,2.0;" x1="1404.5" x2="1404.5" y1="637.877" y2="650.877"/><line style="stroke:#181818;stroke-width:1.0;stroke-dasharray:2.0,2.0;" x1="1363.5" x2="1404.5" y1="650.877" y2="650.877"/><polygon fill="#181818" points="1373.5,646.877,1363.5,650.877,1373.5,654.877,1369.5,650.877" style="stroke:#181818;stroke-width:1.0;"/><text fill="#000000" font-family="sans-serif" font-size="13" lengthAdjust="spacing" textLength="25" x="1369.5" y="633.1348">true</text><polygon fill="#181818" points="2069,676.1875,2079,680.1875,2069,684.1875,2073,680.1875" style="stroke:#181818;stroke-width:1.0;"/><line style="stroke:#181818;stroke-width:1.0;" x1="1362.5" x2="2075" y1="680.1875" y2="680.1875"/><text fill="#000000" font-family="sans-serif" font-size="13" lengthAdjust="spacing" textLength="145" x="1369.5" y="675.4453">decodeData1(message)</text><polygon fill="#181818" points="1373.5,705.498,1363.5,709.498,1373.5,713.498,1369.5,709.498" style="stroke:#181818;stroke-width:1.0;"/><line style="stroke:#181818;stroke-width:1.0;stroke-dasharray:2.0,2.0;" x1="1367.5" x2="2085" y1="709.498" y2="709.498"/><text fill="#000000" font-family="sans-serif" font-size="13" lengthAdjust="spacing" textLength="61" x="1379.5" y="704.7559">userEmail</text><polygon fill="#181818" points="2128.5,734.8086,2138.5,738.8086,2128.5,742.8086,2132.5,738.8086" style="stroke:#181818;stroke-width:1.0;"/><line style="stroke:#181818;stroke-width:1.0;" x1="1362.5" x2="2134.5" y1="738.8086" y2="738.8086"/><text fill="#000000" font-family="sans-serif" font-size="13" lengthAdjust="spacing" textLength="132" x="1369.5" y="734.0664">new Email(userEmail)</text><rect fill="#E2E2F0" height="46.9766" rx="2.5" ry="2.5" style="stroke:#181818;stroke-width:0.5;" width="110" x="2140.5" y="717.498"/><text fill="#000000" font-family="sans-serif" font-size="14" font-style="italic" lengthAdjust="spacing" textLength="96" x="2147.5" y="738.0332">&#171;value object&#187;</text><text fill="#000000" font-family="sans-serif" font-size="14" lengthAdjust="spacing" textLength="41" x="2175" y="754.5215">:Email</text><polygon fill="#181818" points="2327.5,792.7852,2337.5,796.7852,2327.5,800.7852,2331.5,796.7852" style="stroke:#181818;stroke-width:1.0;"/><line style="stroke:#181818;stroke-width:1.0;" x1="1362.5" x2="2333.5" y1="796.7852" y2="796.7852"/><text fill="#000000" font-family="sans-serif" font-size="13" lengthAdjust="spacing" textLength="115" x="1369.5" y="792.043">findByEmail(email)</text><path d="M1288.5,811.7852 L1350.5,811.7852 L1350.5,819.0957 L1340.5,829.0957 L1288.5,829.0957 L1288.5,811.7852 " fill="#EEEEEE" style="stroke:#000000;stroke-width:1.5;"/><rect fill="none" height="46.6211" style="stroke:#000000;stroke-width:1.5;" width="972" x="1288.5" y="811.7852"/><text fill="#000000" font-family="sans-serif" font-size="13" font-weight="bold" lengthAdjust="spacing" textLength="17" x="1303.5" y="825.3535">alt</text><text fill="#000000" font-family="sans-serif" font-size="11" font-weight="bold" lengthAdjust="spacing" textLength="59" x="1365.5" y="824.4199">[isPresent]</text><polygon fill="#181818" points="2183.5,846.4063,2193.5,850.4063,2183.5,854.4063,2187.5,850.4063" style="stroke:#181818;stroke-width:1.0;"/><line style="stroke:#181818;stroke-width:1.0;" x1="1362.5" x2="2189.5" y1="850.4063" y2="850.4063"/><text fill="#000000" font-family="sans-serif" font-size="13" lengthAdjust="spacing" textLength="28" x="1369.5" y="845.6641">get()</text><polygon fill="#181818" points="3203,882.7168,3213,886.7168,3203,890.7168,3207,886.7168" style="stroke:#181818;stroke-width:1.0;"/><line style="stroke:#181818;stroke-width:1.0;" x1="1362.5" x2="3209" y1="886.7168" y2="886.7168"/><text fill="#000000" font-family="sans-serif" font-size="13" lengthAdjust="spacing" textLength="115" x="1369.5" y="881.9746">findByEmail(email)</text><path d="M1288.5,901.7168 L1350.5,901.7168 L1350.5,909.0273 L1340.5,919.0273 L1288.5,919.0273 L1288.5,901.7168 " fill="#EEEEEE" style="stroke:#000000;stroke-width:1.5;"/><rect fill="none" height="46.6211" style="stroke:#000000;stroke-width:1.5;" width="972" x="1288.5" y="901.7168"/><text fill="#000000" font-family="sans-serif" font-size="13" font-weight="bold" lengthAdjust="spacing" textLength="17" x="1303.5" y="915.2852">alt</text><text fill="#000000" font-family="sans-serif" font-size="11" font-weight="bold" lengthAdjust="spacing" textLength="59" x="1365.5" y="914.3516">[isPresent]</text><polygon fill="#181818" points="2183.5,936.3379,2193.5,940.3379,2183.5,944.3379,2187.5,940.3379" style="stroke:#181818;stroke-width:1.0;"/><line style="stroke:#181818;stroke-width:1.0;" x1="1362.5" x2="2189.5" y1="940.3379" y2="940.3379"/><text fill="#000000" font-family="sans-serif" font-size="13" lengthAdjust="spacing" textLength="28" x="1369.5" y="935.5957">get()</text><line style="stroke:#181818;stroke-width:1.0;" x1="1362.5" x2="1404.5" y1="976.6484" y2="976.6484"/><line style="stroke:#181818;stroke-width:1.0;" x1="1404.5" x2="1404.5" y1="976.6484" y2="989.6484"/><line style="stroke:#181818;stroke-width:1.0;" x1="1363.5" x2="1404.5" y1="989.6484" y2="989.6484"/><polygon fill="#181818" points="1373.5,985.6484,1363.5,989.6484,1373.5,993.6484,1369.5,989.6484" style="stroke:#181818;stroke-width:1.0;"/><text fill="#000000" font-family="sans-serif" font-size="13" lengthAdjust="spacing" textLength="64" x="1369.5" y="971.9063">sendACK()</text><line style="stroke:#000000;stroke-width:1.0;stroke-dasharray:2.0,2.0;" x1="1278.5" x2="3305.5" y1="998.6484" y2="998.6484"/><text fill="#000000" font-family="sans-serif" font-size="11" font-weight="bold" lengthAdjust="spacing" textLength="35" x="1283.5" y="1009.2832">[false]</text><line style="stroke:#181818;stroke-width:1.0;stroke-dasharray:2.0,2.0;" x1="1362.5" x2="1404.5" y1="1033.9141" y2="1033.9141"/><line style="stroke:#181818;stroke-width:1.0;stroke-dasharray:2.0,2.0;" x1="1404.5" x2="1404.5" y1="1033.9141" y2="1046.9141"/><line style="stroke:#181818;stroke-width:1.0;stroke-dasharray:2.0,2.0;" x1="1363.5" x2="1404.5" y1="1046.9141" y2="1046.9141"/><polygon fill="#181818" points="1373.5,1042.9141,1363.5,1046.9141,1373.5,1050.9141,1369.5,1046.9141" style="stroke:#181818;stroke-width:1.0;"/><text fill="#000000" font-family="sans-serif" font-size="13" lengthAdjust="spacing" textLength="30" x="1369.5" y="1029.1719">false</text><line style="stroke:#181818;stroke-width:1.0;" x1="1362.5" x2="1404.5" y1="1076.2246" y2="1076.2246"/><line style="stroke:#181818;stroke-width:1.0;" x1="1404.5" x2="1404.5" y1="1076.2246" y2="1089.2246"/><line style="stroke:#181818;stroke-width:1.0;" x1="1363.5" x2="1404.5" y1="1089.2246" y2="1089.2246"/><polygon fill="#181818" points="1373.5,1085.2246,1363.5,1089.2246,1373.5,1093.2246,1369.5,1089.2246" style="stroke:#181818;stroke-width:1.0;"/><text fill="#000000" font-family="sans-serif" font-size="13" lengthAdjust="spacing" textLength="61" x="1369.5" y="1071.4824">sendERR()</text><line style="stroke:#000000;stroke-width:1.0;stroke-dasharray:2.0,2.0;" x1="1268.5" x2="3315.5" y1="1105.2246" y2="1105.2246"/><text fill="#000000" font-family="sans-serif" font-size="11" font-weight="bold" lengthAdjust="spacing" textLength="15" x="1273.5" y="1115.8594">[9]</text><polygon fill="#181818" points="2416.5,1136.4902,2426.5,1140.4902,2416.5,1144.4902,2420.5,1140.4902" style="stroke:#181818;stroke-width:1.0;"/><line style="stroke:#181818;stroke-width:1.0;" x1="1362.5" x2="2422.5" y1="1140.4902" y2="1140.4902"/><text fill="#000000" font-family="sans-serif" font-size="13" lengthAdjust="spacing" textLength="46" x="1369.5" y="1135.748">create()</text><rect fill="#E2E2F0" height="46.9766" rx="2.5" ry="2.5" style="stroke:#181818;stroke-width:0.5;" width="290" x="2428.5" y="1119.1797"/><text fill="#000000" font-family="sans-serif" font-size="14" font-style="italic" lengthAdjust="spacing" textLength="90" x="2528.5" y="1139.7148">&#171;application&#187;</text><text fill="#000000" font-family="sans-serif" font-size="14" lengthAdjust="spacing" textLength="276" x="2435.5" y="1156.2031">:ListNotificationJobApplicationController</text><polygon fill="#181818" points="2556.5,1194.4668,2566.5,1198.4668,2556.5,1202.4668,2560.5,1198.4668" style="stroke:#181818;stroke-width:1.0;"/><line style="stroke:#181818;stroke-width:1.0;" x1="1362.5" x2="2562.5" y1="1198.4668" y2="1198.4668"/><text fill="#000000" font-family="sans-serif" font-size="13" lengthAdjust="spacing" textLength="202" x="1369.5" y="1193.7246">listNotificationJobApplications()</text><polygon fill="#181818" points="2716.5,1223.7773,2726.5,1227.7773,2716.5,1231.7773,2720.5,1227.7773" style="stroke:#181818;stroke-width:1.0;"/><line style="stroke:#181818;stroke-width:1.0;" x1="2578.5" x2="2722.5" y1="1227.7773" y2="1227.7773"/><text fill="#000000" font-family="sans-serif" font-size="13" lengthAdjust="spacing" textLength="46" x="2585.5" y="1223.0352">create()</text><rect fill="#E2E2F0" height="46.9766" rx="2.5" ry="2.5" style="stroke:#181818;stroke-width:0.5;" width="268" x="2728.5" y="1206.4668"/><text fill="#000000" font-family="sans-serif" font-size="14" font-style="italic" lengthAdjust="spacing" textLength="61" x="2832" y="1227.002">&#171;service&#187;</text><text fill="#000000" font-family="sans-serif" font-size="14" lengthAdjust="spacing" textLength="254" x="2735.5" y="1243.4902">:ListNotificationJobApplicationService</text><polygon fill="#181818" points="2845.5,1281.7539,2855.5,1285.7539,2845.5,1289.7539,2849.5,1285.7539" style="stroke:#181818;stroke-width:1.0;"/><line style="stroke:#181818;stroke-width:1.0;" x1="2578.5" x2="2851.5" y1="1285.7539" y2="1285.7539"/><text fill="#000000" font-family="sans-serif" font-size="13" lengthAdjust="spacing" textLength="236" x="2585.5" y="1281.0117">listNotificationJobApplications(email)</text><polygon fill="#181818" points="3198,1311.0645,3208,1315.0645,3198,1319.0645,3202,1315.0645" style="stroke:#181818;stroke-width:1.0;"/><line style="stroke:#181818;stroke-width:1.0;" x1="2867.5" x2="3204" y1="1315.0645" y2="1315.0645"/><text fill="#000000" font-family="sans-serif" font-size="13" lengthAdjust="spacing" textLength="178" x="2874.5" y="1310.3223">findByCandidateEmail(email)</text><polygon fill="#181818" points="2878.5,1340.375,2868.5,1344.375,2878.5,1348.375,2874.5,1344.375" style="stroke:#181818;stroke-width:1.0;"/><line style="stroke:#181818;stroke-width:1.0;stroke-dasharray:2.0,2.0;" x1="2872.5" x2="3214" y1="1344.375" y2="1344.375"/><text fill="#000000" font-family="sans-serif" font-size="13" lengthAdjust="spacing" textLength="61" x="2884.5" y="1339.6328">candidate</text><polygon fill="#181818" points="2589.5,1369.6855,2579.5,1373.6855,2589.5,1377.6855,2585.5,1373.6855" style="stroke:#181818;stroke-width:1.0;"/><line style="stroke:#181818;stroke-width:1.0;stroke-dasharray:2.0,2.0;" x1="2583.5" x2="2861.5" y1="1373.6855" y2="1373.6855"/><text fill="#000000" font-family="sans-serif" font-size="13" lengthAdjust="spacing" textLength="189" x="2595.5" y="1368.9434">notificationJobApplication list</text><polygon fill="#181818" points="1373.5,1398.9961,1363.5,1402.9961,1373.5,1406.9961,1369.5,1402.9961" style="stroke:#181818;stroke-width:1.0;"/><line style="stroke:#181818;stroke-width:1.0;stroke-dasharray:2.0,2.0;" x1="1367.5" x2="2572.5" y1="1402.9961" y2="1402.9961"/><text fill="#000000" font-family="sans-serif" font-size="13" lengthAdjust="spacing" textLength="189" x="1379.5" y="1398.2539">notificationJobApplication list</text><line style="stroke:#181818;stroke-width:1.0;" x1="1362.5" x2="1404.5" y1="1432.3066" y2="1432.3066"/><line style="stroke:#181818;stroke-width:1.0;" x1="1404.5" x2="1404.5" y1="1432.3066" y2="1445.3066"/><line style="stroke:#181818;stroke-width:1.0;" x1="1363.5" x2="1404.5" y1="1445.3066" y2="1445.3066"/><polygon fill="#181818" points="1373.5,1441.3066,1363.5,1445.3066,1373.5,1449.3066,1369.5,1445.3066" style="stroke:#181818;stroke-width:1.0;"/><text fill="#000000" font-family="sans-serif" font-size="13" lengthAdjust="spacing" textLength="341" x="1369.5" y="1427.5645">sendSHOW_NOTIF_JOB_APPLICATIONS(applicationList)</text><polygon fill="#181818" points="2069,1470.6172,2079,1474.6172,2069,1478.6172,2073,1474.6172" style="stroke:#181818;stroke-width:1.0;"/><line style="stroke:#181818;stroke-width:1.0;" x1="1362.5" x2="2075" y1="1474.6172" y2="1474.6172"/><text fill="#000000" font-family="sans-serif" font-size="13" lengthAdjust="spacing" textLength="247" x="1369.5" y="1469.875">serializeNotificationJobApplication(list)</text><polygon fill="#181818" points="1373.5,1499.9277,1363.5,1503.9277,1373.5,1507.9277,1369.5,1503.9277" style="stroke:#181818;stroke-width:1.0;"/><line style="stroke:#181818;stroke-width:1.0;stroke-dasharray:2.0,2.0;" x1="1367.5" x2="2085" y1="1503.9277" y2="1503.9277"/><text fill="#000000" font-family="sans-serif" font-size="13" lengthAdjust="spacing" textLength="94" x="1379.5" y="1499.1855">byte[] message</text><polygon fill="#181818" points="1963.5,1529.2383,1973.5,1533.2383,1963.5,1537.2383,1967.5,1533.2383" style="stroke:#181818;stroke-width:1.0;"/><line style="stroke:#181818;stroke-width:1.0;" x1="1357.5" x2="1969.5" y1="1533.2383" y2="1533.2383"/><text fill="#000000" font-family="sans-serif" font-size="13" lengthAdjust="spacing" textLength="584" x="1364.5" y="1528.4961">writeObject(Translator.encode(1, MessageCode.SHOW_NOTIF_JOB_APPLICATIONS, data, null))</text><line style="stroke:#000000;stroke-width:1.0;stroke-dasharray:2.0,2.0;" x1="20" x2="3325.5" y1="1549.2383" y2="1549.2383"/><text fill="#000000" font-family="sans-serif" font-size="11" font-weight="bold" lengthAdjust="spacing" textLength="35" x="25" y="1559.873">[false]</text><polygon fill="#181818" points="461,1580.5039,451,1584.5039,461,1588.5039,457,1584.5039" style="stroke:#181818;stroke-width:1.0;"/><line style="stroke:#181818;stroke-width:1.0;stroke-dasharray:2.0,2.0;" x1="455" x2="686" y1="1584.5039" y2="1584.5039"/><text fill="#000000" font-family="sans-serif" font-size="13" lengthAdjust="spacing" textLength="30" x="467" y="1579.7617">false</text><polygon fill="#181818" points="100,1609.8145,90,1613.8145,100,1617.8145,96,1613.8145" style="stroke:#181818;stroke-width:1.0;"/><line style="stroke:#181818;stroke-width:1.0;stroke-dasharray:2.0,2.0;" x1="94" x2="444" y1="1613.8145" y2="1613.8145"/><text fill="#000000" font-family="sans-serif" font-size="13" lengthAdjust="spacing" textLength="327" x="106" y="1609.0723">Could not accept new connection. The server is full!</text><!--SRC=[fLPTJzim57tFhxW3QKeH8D3sieWXGO31nYXgGNkO9kGcbzQR6qU9IyT-_Mvint7Ib8_j0PhOvnvVtuzpexWI26TI2BcypSTOF6019vnD2pQ_kns_szlR3u9W8d_3HXkq0Pk2JsTgMY1cGSuAnHEUiqp1HZHAvDp1M0dwlOFnjalzkB8_P_bC5dWcYnRMBdVWDxC2MQeXIZzswVWy5tZEibJKJ7gb0_C1C_CSO9O21I1eGsFQvIbJU9Jd6r3XOvRdi2aBbasnZbbCdjQHceZ5YjS4BWLJqfoet6i7TpfdN6W8LazmSF30Y0tav2Scwl2m0uyNfP9pB4QOov8JtQEsJUmocHTkPyNuafVgIYf-pnEckCm-ombTKTYtM6Qge4AmCVA1PRD79x36vfL7LDdc2QxosmqYBytJ2d6RI3CC2OwPuchrfYw5tJZLwzYDb2i5bYZ-G0XRsle_x1pQKjxQYY339PYw3Q-7evj1OsBBtVmO8rlJ4V2iL2nBC1pirlYuuEGp4sFAD5qgR37LpH0meQXygC3S6kmuVw9wgpxHjCZM5XW_JVE4Pj-yV2ha8jysj_1RnuB6Clc5YXAU6Qy6W-2jPQrErHOk2Y-n3m8XPGxB6ISvIimwfe7kgHr76S7aKU7t7p37icJKPYuK5T0BZEbjywClx3ehWXGJcM9CVw6byKBgjQ2EwPv7KljGKXaSnLye4oXAXFqUYBi1V8HxHYW3VTy3PGirgmgKQjPpo4kejV1CMkjzbpjXYkqtP0sWHREWN6Xb2LBi2q1pWbQTEf_Q97J60mzNAqm4zpnBZnyD50rCNucNrmLI05MNFO8fgYgaMHhuZAuN_vFpgJIQv9WyzOIxlT4cE1sDQgSroGSFjqOSgpWcr2cKRg_mre2Vfuj0F2cd9PsoJgQxh5PXN-2XHRwM-NbdRM9xXR-t7foAjmh3UTqO19wkxwprpu7yfl18-XrxAZtPsjlgOFZdl2x4NYd-wnczXURNz_Xy-EtkQdXpSNRtUNXyTtHzVNaH7zrS3A_6eJVYgua-M2D991IS2Vu7rwSz5Dg-JuJMQ5Td3ZmdODLuY619enI7-fifR3wzTZ6hD3FStuQlXgwQ3RjFt7mRg1OOJSU543JvlCFr6FBUxI1gzC5gIU-GDdk-jPllzUWcjFxMY22M2v5MUGUM99WhBSs96wYxDDJhJmqIIBWdLz-qkVLNIENPNm00]--></g></svg>