<?xml version="1.0" encoding="us-ascii" standalone="no"?><svg xmlns="http://www.w3.org/2000/svg" xmlns:xlink="http://www.w3.org/1999/xlink" contentStyleType="text/css" height="767px" preserveAspectRatio="none" style="width:1385px;height:767px;background:#FFFFFF;" version="1.1" viewBox="0 0 1385 767" width="1385px" zoomAndPan="magnify"><defs/><g><text fill="#000000" font-family="sans-serif" font-size="14" font-weight="bold" lengthAdjust="spacing" textLength="282" x="550.75" y="28.5352">Login Diagram (CandidateApp)_US3001</text><rect fill="#90EE90" height="718.2109" style="stroke:#181818;stroke-width:0.5;" width="123" x="153.5" y="43.4883"/><text fill="#000000" font-family="sans-serif" font-size="13" font-weight="bold" lengthAdjust="spacing" textLength="97" x="166.5" y="56.0566">CandidateApp</text><rect fill="#ADD8E6" height="718.2109" style="stroke:#181818;stroke-width:0.5;" width="942" x="310.5" y="43.4883"/><text fill="#000000" font-family="sans-serif" font-size="13" font-weight="bold" lengthAdjust="spacing" textLength="31" x="764" y="56.0566">Core</text><rect fill="#FFFFFF" height="544.2344" style="stroke:#181818;stroke-width:1.0;" width="10" x="53" y="128.9766"/><rect fill="#FFFFFF" height="522.9238" style="stroke:#181818;stroke-width:1.0;" width="10" x="210" y="150.2871"/><rect fill="#FFFFFF" height="448.3027" style="stroke:#181818;stroke-width:1.0;" width="10" x="408" y="179.5977"/><rect fill="#FFFFFF" height="389.6816" style="stroke:#181818;stroke-width:1.0;" width="10" x="606" y="208.9082"/><rect fill="#FFFFFF" height="29.3105" style="stroke:#181818;stroke-width:1.0;" width="10" x="1097" y="238.2188"/><rect fill="#FFFFFF" height="29.3105" style="stroke:#181818;stroke-width:1.0;" width="10" x="1097" y="412.7715"/><rect fill="#FFFFFF" height="86.6211" style="stroke:#181818;stroke-width:1.0;" width="10" x="1197.5" y="296.8398"/><rect fill="#FFFFFF" height="14" style="stroke:#181818;stroke-width:1.0;" width="10" x="1314" y="310.8398"/><rect fill="none" height="208.1289" style="stroke:#000000;stroke-width:1.5;" width="698.5" x="10" y="457.082"/><line style="stroke:#181818;stroke-width:0.5;stroke-dasharray:5.0,5.0;" x1="58" x2="58" y1="118.9766" y2="682.2109"/><line style="stroke:#181818;stroke-width:0.5;stroke-dasharray:5.0,5.0;" x1="214.5" x2="214.5" y1="118.9766" y2="682.2109"/><line style="stroke:#181818;stroke-width:0.5;stroke-dasharray:5.0,5.0;" x1="412.5" x2="412.5" y1="118.9766" y2="682.2109"/><line style="stroke:#181818;stroke-width:0.5;stroke-dasharray:5.0,5.0;" x1="610.5" x2="610.5" y1="118.9766" y2="682.2109"/><line style="stroke:#181818;stroke-width:0.5;stroke-dasharray:5.0,5.0;" x1="1101.5" x2="1101.5" y1="118.9766" y2="682.2109"/><line style="stroke:#181818;stroke-width:0.5;stroke-dasharray:5.0,5.0;" x1="1202.5" x2="1202.5" y1="118.9766" y2="682.2109"/><line style="stroke:#181818;stroke-width:0.5;stroke-dasharray:5.0,5.0;" x1="1318.5" x2="1318.5" y1="118.9766" y2="682.2109"/><text fill="#000000" font-family="sans-serif" font-size="14" lengthAdjust="spacing" textLength="70" x="20" y="116.0234">Candidate</text><ellipse cx="58" cy="50.9883" fill="#FFA500" rx="8" ry="8" style="stroke:#181818;stroke-width:0.5;"/><path d="M58,58.9883 L58,85.9883 M45,66.9883 L71,66.9883 M58,85.9883 L45,100.9883 M58,85.9883 L71,100.9883 " fill="none" style="stroke:#181818;stroke-width:0.5;"/><text fill="#000000" font-family="sans-serif" font-size="14" lengthAdjust="spacing" textLength="70" x="20" y="694.7461">Candidate</text><ellipse cx="58" cy="706.1992" fill="#FFA500" rx="8" ry="8" style="stroke:#181818;stroke-width:0.5;"/><path d="M58,714.1992 L58,741.1992 M45,722.1992 L71,722.1992 M58,741.1992 L45,756.1992 M58,741.1992 L71,756.1992 " fill="none" style="stroke:#181818;stroke-width:0.5;"/><rect fill="#E2E2F0" height="46.9766" rx="2.5" ry="2.5" style="stroke:#181818;stroke-width:0.5;" width="115" x="157.5" y="71"/><text fill="#000000" font-family="sans-serif" font-size="14" font-style="italic" lengthAdjust="spacing" textLength="101" x="164.5" y="91.5352">&#171;presentation&#187;</text><text fill="#000000" font-family="sans-serif" font-size="14" lengthAdjust="spacing" textLength="99" x="165.5" y="108.0234">:ServerLoginUI</text><rect fill="#E2E2F0" height="46.9766" rx="2.5" ry="2.5" style="stroke:#181818;stroke-width:0.5;" width="115" x="157.5" y="681.2109"/><text fill="#000000" font-family="sans-serif" font-size="14" font-style="italic" lengthAdjust="spacing" textLength="101" x="164.5" y="701.7461">&#171;presentation&#187;</text><text fill="#000000" font-family="sans-serif" font-size="14" lengthAdjust="spacing" textLength="99" x="165.5" y="718.2344">:ServerLoginUI</text><rect fill="#E2E2F0" height="46.9766" rx="2.5" ry="2.5" style="stroke:#181818;stroke-width:0.5;" width="197" x="314.5" y="71"/><text fill="#000000" font-family="sans-serif" font-size="14" font-style="italic" lengthAdjust="spacing" textLength="90" x="368" y="91.5352">&#171;application&#187;</text><text fill="#000000" font-family="sans-serif" font-size="14" lengthAdjust="spacing" textLength="183" x="321.5" y="108.0234">:CommunicationController</text><rect fill="#E2E2F0" height="46.9766" rx="2.5" ry="2.5" style="stroke:#181818;stroke-width:0.5;" width="197" x="314.5" y="681.2109"/><text fill="#000000" font-family="sans-serif" font-size="14" font-style="italic" lengthAdjust="spacing" textLength="90" x="368" y="701.7461">&#171;application&#187;</text><text fill="#000000" font-family="sans-serif" font-size="14" lengthAdjust="spacing" textLength="183" x="321.5" y="718.2344">:CommunicationController</text><rect fill="#E2E2F0" height="46.9766" rx="2.5" ry="2.5" style="stroke:#181818;stroke-width:0.5;" width="175" x="523.5" y="71"/><text fill="#000000" font-family="sans-serif" font-size="14" font-style="italic" lengthAdjust="spacing" textLength="61" x="580.5" y="91.5352">&#171;service&#187;</text><text fill="#000000" font-family="sans-serif" font-size="14" lengthAdjust="spacing" textLength="161" x="530.5" y="108.0234">:CommunicationService</text><rect fill="#E2E2F0" height="46.9766" rx="2.5" ry="2.5" style="stroke:#181818;stroke-width:0.5;" width="175" x="523.5" y="681.2109"/><text fill="#000000" font-family="sans-serif" font-size="14" font-style="italic" lengthAdjust="spacing" textLength="61" x="580.5" y="701.7461">&#171;service&#187;</text><text fill="#000000" font-family="sans-serif" font-size="14" lengthAdjust="spacing" textLength="161" x="530.5" y="718.2344">:CommunicationService</text><rect fill="#E2E2F0" height="30.4883" rx="2.5" ry="2.5" style="stroke:#181818;stroke-width:0.5;" width="89" x="1057.5" y="87.4883"/><text fill="#000000" font-family="sans-serif" font-size="14" lengthAdjust="spacing" textLength="75" x="1064.5" y="108.0234">:Translator</text><rect fill="#E2E2F0" height="30.4883" rx="2.5" ry="2.5" style="stroke:#181818;stroke-width:0.5;" width="89" x="1057.5" y="681.2109"/><text fill="#000000" font-family="sans-serif" font-size="14" lengthAdjust="spacing" textLength="75" x="1064.5" y="701.7461">:Translator</text><rect fill="#E2E2F0" height="30.4883" rx="2.5" ry="2.5" style="stroke:#181818;stroke-width:0.5;" width="92" x="1156.5" y="87.4883"/><text fill="#000000" font-family="sans-serif" font-size="14" lengthAdjust="spacing" textLength="78" x="1163.5" y="108.0234">:Messenger</text><rect fill="#E2E2F0" height="30.4883" rx="2.5" ry="2.5" style="stroke:#181818;stroke-width:0.5;" width="92" x="1156.5" y="681.2109"/><text fill="#000000" font-family="sans-serif" font-size="14" lengthAdjust="spacing" textLength="78" x="1163.5" y="701.7461">:Messenger</text><rect fill="#FFA500" height="30.4883" rx="2.5" ry="2.5" style="stroke:#181818;stroke-width:0.5;" width="121" x="1258.5" y="87.4883"/><text fill="#000000" font-family="sans-serif" font-size="14" lengthAdjust="spacing" textLength="107" x="1265.5" y="108.0234">FollowUpServer</text><rect fill="#FFA500" height="30.4883" rx="2.5" ry="2.5" style="stroke:#181818;stroke-width:0.5;" width="121" x="1258.5" y="681.2109"/><text fill="#000000" font-family="sans-serif" font-size="14" lengthAdjust="spacing" textLength="107" x="1265.5" y="701.7461">FollowUpServer</text><rect fill="#FFFFFF" height="544.2344" style="stroke:#181818;stroke-width:1.0;" width="10" x="53" y="128.9766"/><rect fill="#FFFFFF" height="522.9238" style="stroke:#181818;stroke-width:1.0;" width="10" x="210" y="150.2871"/><rect fill="#FFFFFF" height="448.3027" style="stroke:#181818;stroke-width:1.0;" width="10" x="408" y="179.5977"/><rect fill="#FFFFFF" height="389.6816" style="stroke:#181818;stroke-width:1.0;" width="10" x="606" y="208.9082"/><rect fill="#FFFFFF" height="29.3105" style="stroke:#181818;stroke-width:1.0;" width="10" x="1097" y="238.2188"/><rect fill="#FFFFFF" height="29.3105" style="stroke:#181818;stroke-width:1.0;" width="10" x="1097" y="412.7715"/><rect fill="#FFFFFF" height="86.6211" style="stroke:#181818;stroke-width:1.0;" width="10" x="1197.5" y="296.8398"/><rect fill="#FFFFFF" height="14" style="stroke:#181818;stroke-width:1.0;" width="10" x="1314" y="310.8398"/><polygon fill="#181818" points="198,146.2871,208,150.2871,198,154.2871,202,150.2871" style="stroke:#181818;stroke-width:1.0;"/><line style="stroke:#181818;stroke-width:1.0;" x1="63" x2="204" y1="150.2871" y2="150.2871"/><text fill="#000000" font-family="sans-serif" font-size="13" lengthAdjust="spacing" textLength="128" x="70" y="145.5449">Asks to do the login</text><polygon fill="#181818" points="396,175.5977,406,179.5977,396,183.5977,400,179.5977" style="stroke:#181818;stroke-width:1.0;"/><line style="stroke:#181818;stroke-width:1.0;" x1="220" x2="402" y1="179.5977" y2="179.5977"/><text fill="#000000" font-family="sans-serif" font-size="13" lengthAdjust="spacing" textLength="169" x="227" y="174.8555">login(userEmail, password)</text><polygon fill="#181818" points="594,204.9082,604,208.9082,594,212.9082,598,208.9082" style="stroke:#181818;stroke-width:1.0;"/><line style="stroke:#181818;stroke-width:1.0;" x1="418" x2="600" y1="208.9082" y2="208.9082"/><text fill="#000000" font-family="sans-serif" font-size="13" lengthAdjust="spacing" textLength="169" x="425" y="204.166">login(userEmail, password)</text><polygon fill="#181818" points="1085,234.2188,1095,238.2188,1085,242.2188,1089,238.2188" style="stroke:#181818;stroke-width:1.0;"/><line style="stroke:#181818;stroke-width:1.0;" x1="616" x2="1091" y1="238.2188" y2="238.2188"/><text fill="#000000" font-family="sans-serif" font-size="13" lengthAdjust="spacing" textLength="462" x="623" y="233.4766">encode(1, MessageCode.AUTH, userEmail.getBytes(), password.getBytes())</text><polygon fill="#181818" points="627,263.5293,617,267.5293,627,271.5293,623,267.5293" style="stroke:#181818;stroke-width:1.0;"/><line style="stroke:#181818;stroke-width:1.0;stroke-dasharray:2.0,2.0;" x1="621" x2="1101" y1="267.5293" y2="267.5293"/><text fill="#000000" font-family="sans-serif" font-size="13" lengthAdjust="spacing" textLength="84" x="633" y="262.7871">byte[] encode</text><polygon fill="#181818" points="1185.5,292.8398,1195.5,296.8398,1185.5,300.8398,1189.5,296.8398" style="stroke:#181818;stroke-width:1.0;"/><line style="stroke:#181818;stroke-width:1.0;" x1="616" x2="1191.5" y1="296.8398" y2="296.8398"/><text fill="#000000" font-family="sans-serif" font-size="13" lengthAdjust="spacing" textLength="147" x="623" y="292.0977">sendMessage(message)</text><polygon fill="#181818" points="1302,306.8398,1312,310.8398,1302,314.8398,1306,310.8398" style="stroke:#181818;stroke-width:1.0;"/><line style="stroke:#181818;stroke-width:1.0;" x1="1207.5" x2="1308" y1="310.8398" y2="310.8398"/><polygon fill="#181818" points="1218.5,320.8398,1208.5,324.8398,1218.5,328.8398,1214.5,324.8398" style="stroke:#181818;stroke-width:1.0;"/><line style="stroke:#181818;stroke-width:1.0;stroke-dasharray:2.0,2.0;" x1="1212.5" x2="1318" y1="324.8398" y2="324.8398"/><polygon fill="#181818" points="1185.5,350.1504,1195.5,354.1504,1185.5,358.1504,1189.5,354.1504" style="stroke:#181818;stroke-width:1.0;"/><line style="stroke:#181818;stroke-width:1.0;" x1="616" x2="1191.5" y1="354.1504" y2="354.1504"/><text fill="#000000" font-family="sans-serif" font-size="13" lengthAdjust="spacing" textLength="106" x="623" y="349.4082">receiveMessage()</text><polygon fill="#181818" points="627,379.4609,617,383.4609,627,387.4609,623,383.4609" style="stroke:#181818;stroke-width:1.0;"/><line style="stroke:#181818;stroke-width:1.0;stroke-dasharray:2.0,2.0;" x1="621" x2="1201.5" y1="383.4609" y2="383.4609"/><text fill="#000000" font-family="sans-serif" font-size="13" lengthAdjust="spacing" textLength="96" x="633" y="378.7188">byte[] response</text><polygon fill="#181818" points="1085,408.7715,1095,412.7715,1085,416.7715,1089,412.7715" style="stroke:#181818;stroke-width:1.0;"/><line style="stroke:#181818;stroke-width:1.0;" x1="616" x2="1091" y1="412.7715" y2="412.7715"/><text fill="#000000" font-family="sans-serif" font-size="13" lengthAdjust="spacing" textLength="142" x="623" y="408.0293">decodeCode(response)</text><polygon fill="#181818" points="627,438.082,617,442.082,627,446.082,623,442.082" style="stroke:#181818;stroke-width:1.0;"/><line style="stroke:#181818;stroke-width:1.0;stroke-dasharray:2.0,2.0;" x1="621" x2="1101" y1="442.082" y2="442.082"/><text fill="#000000" font-family="sans-serif" font-size="13" lengthAdjust="spacing" textLength="86" x="633" y="437.3398">MessageCode</text><path d="M10,457.082 L72,457.082 L72,464.3926 L62,474.3926 L10,474.3926 L10,457.082 " fill="#EEEEEE" style="stroke:#000000;stroke-width:1.5;"/><rect fill="none" height="208.1289" style="stroke:#000000;stroke-width:1.5;" width="698.5" x="10" y="457.082"/><text fill="#000000" font-family="sans-serif" font-size="13" font-weight="bold" lengthAdjust="spacing" textLength="17" x="25" y="470.6504">alt</text><text fill="#000000" font-family="sans-serif" font-size="11" font-weight="bold" lengthAdjust="spacing" textLength="110" x="87" y="469.7168">[MessageCode.ACK]</text><polygon fill="#181818" points="429,491.7031,419,495.7031,429,499.7031,425,495.7031" style="stroke:#181818;stroke-width:1.0;"/><line style="stroke:#181818;stroke-width:1.0;" x1="423" x2="605" y1="495.7031" y2="495.7031"/><text fill="#000000" font-family="sans-serif" font-size="13" lengthAdjust="spacing" textLength="25" x="435" y="490.9609">true</text><polygon fill="#181818" points="231,521.0137,221,525.0137,231,529.0137,227,525.0137" style="stroke:#181818;stroke-width:1.0;"/><line style="stroke:#181818;stroke-width:1.0;stroke-dasharray:2.0,2.0;" x1="225" x2="407" y1="525.0137" y2="525.0137"/><text fill="#000000" font-family="sans-serif" font-size="13" lengthAdjust="spacing" textLength="25" x="237" y="520.2715">true</text><polygon fill="#181818" points="74,550.3242,64,554.3242,74,558.3242,70,554.3242" style="stroke:#181818;stroke-width:1.0;"/><line style="stroke:#181818;stroke-width:1.0;stroke-dasharray:2.0,2.0;" x1="68" x2="209" y1="554.3242" y2="554.3242"/><text fill="#000000" font-family="sans-serif" font-size="13" lengthAdjust="spacing" textLength="106" x="80" y="549.582">Login successful</text><line style="stroke:#000000;stroke-width:1.0;stroke-dasharray:2.0,2.0;" x1="10" x2="708.5" y1="563.3242" y2="563.3242"/><text fill="#000000" font-family="sans-serif" font-size="11" font-weight="bold" lengthAdjust="spacing" textLength="109" x="15" y="573.959">[MessageCode.ERR]</text><polygon fill="#181818" points="429,594.5898,419,598.5898,429,602.5898,425,598.5898" style="stroke:#181818;stroke-width:1.0;"/><line style="stroke:#181818;stroke-width:1.0;" x1="423" x2="610" y1="598.5898" y2="598.5898"/><text fill="#000000" font-family="sans-serif" font-size="13" lengthAdjust="spacing" textLength="30" x="435" y="593.8477">false</text><polygon fill="#181818" points="231,623.9004,221,627.9004,231,631.9004,227,627.9004" style="stroke:#181818;stroke-width:1.0;"/><line style="stroke:#181818;stroke-width:1.0;stroke-dasharray:2.0,2.0;" x1="225" x2="412" y1="627.9004" y2="627.9004"/><text fill="#000000" font-family="sans-serif" font-size="13" lengthAdjust="spacing" textLength="30" x="237" y="623.1582">false</text><polygon fill="#181818" points="74,653.2109,64,657.2109,74,661.2109,70,657.2109" style="stroke:#181818;stroke-width:1.0;"/><line style="stroke:#181818;stroke-width:1.0;stroke-dasharray:2.0,2.0;" x1="68" x2="209" y1="657.2109" y2="657.2109"/><text fill="#000000" font-family="sans-serif" font-size="13" lengthAdjust="spacing" textLength="74" x="80" y="652.4688">Login failed</text><!--SRC=[bLHRRziW57xdLw3anP7IgjNUeYfIvdKNhNjfcwTgceXzug9XG83JxT_lOB31kKpRK-3uV1U-0t7S2Q0Fgk6IVk2iCQobHSbapMlcOAFruiVswTtDpIqXh7BAqF4RPPQ6qbmP9XiWE_MBpdBiZCuVUFFgFXa0IJGpZbTSC-deRFK4vW2c5zv-cNaoqPkukzC6B4Z775TolIOWQuhCfASlbG4w5vvq9peuuYnLstQILpsqLD8P9GIOdhrIBN8phKNyZjH_GNjxl88UQiCQuN5r0dt60AnW64OFSEFsgEyRM3nQ4osrmowTSTB-4TshjwqEKOrM82NkPy8F_J3y9EA8hjOnonNTs9zeHz5QKVSAePn0OHjw4UGZMeLYqQ7IVSkuM5BDh7rJfbua87OItusW8Pn_0yPkCg2G88M5720hLKDnkwG-AjP0YTlhpVRvyvAEpDSDkFU_7TXYaKIoOgQNJIBJkPhutY7gvNkK9ZMS0sT-nwaX51TrD5gquJSJJ_DDcAWCPfe910a8tX8mSvErdN5Ye09-WC7C8fSyTrfyOrf9EpblahqqdXfyHducnK3mds5dOxqGDM72JQTVViqDXLlg3Bx-_WfcjxqlnkkCvV0QLl7VpNPLXQpxJX0G5YOIzu-Ffn9x9gRv39VtMFQaqJ-FIpRsU86XzY-U_040]--></g></svg>