<?xml version="1.0" encoding="us-ascii" standalone="no"?><svg xmlns="http://www.w3.org/2000/svg" xmlns:xlink="http://www.w3.org/1999/xlink" contentStyleType="text/css" height="476px" preserveAspectRatio="none" style="width:736px;height:476px;background:#FFFFFF;" version="1.1" viewBox="0 0 736 476" width="736px" zoomAndPan="magnify"><defs/><g><text fill="#000000" font-family="sans-serif" font-size="14" font-weight="bold" lengthAdjust="spacing" textLength="182" x="274.25" y="28.5352">Process Diagram_US3001</text><rect fill="#D3D3D3" height="427.3926" style="stroke:#181818;stroke-width:0.5;" width="457.5" x="273" y="43.4883"/><text fill="#000000" font-family="sans-serif" font-size="13" font-weight="bold" lengthAdjust="spacing" textLength="51" x="476.25" y="56.0566">:System</text><rect fill="#FFFFFF" height="244.416" style="stroke:#181818;stroke-width:1.0;" width="10" x="38" y="128.9766"/><rect fill="#FFFFFF" height="192.4844" style="stroke:#181818;stroke-width:1.0;" width="10" x="330" y="180.9082"/><rect fill="#FFFFFF" height="118.5527" style="stroke:#181818;stroke-width:1.0;" width="10" x="659" y="225.5293"/><line style="stroke:#181818;stroke-width:0.5;stroke-dasharray:5.0,5.0;" x1="43" x2="43" y1="118.9766" y2="391.3926"/><line style="stroke:#181818;stroke-width:0.5;stroke-dasharray:5.0,5.0;" x1="335" x2="335" y1="118.9766" y2="391.3926"/><line style="stroke:#181818;stroke-width:0.5;stroke-dasharray:5.0,5.0;" x1="663.5" x2="663.5" y1="118.9766" y2="391.3926"/><text fill="#000000" font-family="sans-serif" font-size="14" lengthAdjust="spacing" textLength="70" x="5" y="116.0234">Candidate</text><ellipse cx="43" cy="50.9883" fill="#ADD8E6" rx="8" ry="8" style="stroke:#181818;stroke-width:0.5;"/><path d="M43,58.9883 L43,85.9883 M30,66.9883 L56,66.9883 M43,85.9883 L30,100.9883 M43,85.9883 L56,100.9883 " fill="none" style="stroke:#181818;stroke-width:0.5;"/><text fill="#000000" font-family="sans-serif" font-size="14" lengthAdjust="spacing" textLength="70" x="5" y="403.9277">Candidate</text><ellipse cx="43" cy="415.3809" fill="#ADD8E6" rx="8" ry="8" style="stroke:#181818;stroke-width:0.5;"/><path d="M43,423.3809 L43,450.3809 M30,431.3809 L56,431.3809 M43,450.3809 L30,465.3809 M43,450.3809 L56,465.3809 " fill="none" style="stroke:#181818;stroke-width:0.5;"/><rect fill="#90EE90" height="30.4883" rx="2.5" ry="2.5" style="stroke:#181818;stroke-width:0.5;" width="116" x="277" y="87.4883"/><text fill="#000000" font-family="sans-serif" font-size="14" lengthAdjust="spacing" textLength="102" x="284" y="108.0234">:CandidateApp</text><rect fill="#90EE90" height="30.4883" rx="2.5" ry="2.5" style="stroke:#181818;stroke-width:0.5;" width="116" x="277" y="390.3926"/><text fill="#000000" font-family="sans-serif" font-size="14" lengthAdjust="spacing" textLength="102" x="284" y="410.9277">:CandidateApp</text><rect fill="#FFFF00" height="30.4883" rx="2.5" ry="2.5" style="stroke:#181818;stroke-width:0.5;" width="125" x="601.5" y="87.4883"/><text fill="#000000" font-family="sans-serif" font-size="14" lengthAdjust="spacing" textLength="111" x="608.5" y="108.0234">:FollowUpServer</text><rect fill="#FFFF00" height="30.4883" rx="2.5" ry="2.5" style="stroke:#181818;stroke-width:0.5;" width="125" x="601.5" y="390.3926"/><text fill="#000000" font-family="sans-serif" font-size="14" lengthAdjust="spacing" textLength="111" x="608.5" y="410.9277">:FollowUpServer</text><rect fill="#FFFFFF" height="244.416" style="stroke:#181818;stroke-width:1.0;" width="10" x="38" y="128.9766"/><rect fill="#FFFFFF" height="192.4844" style="stroke:#181818;stroke-width:1.0;" width="10" x="330" y="180.9082"/><rect fill="#FFFFFF" height="118.5527" style="stroke:#181818;stroke-width:1.0;" width="10" x="659" y="225.5293"/><polygon fill="#181818" points="318,176.9082,328,180.9082,318,184.9082,322,180.9082" style="stroke:#181818;stroke-width:1.0;"/><line style="stroke:#181818;stroke-width:1.0;" x1="48" x2="324" y1="180.9082" y2="180.9082"/><text fill="#000000" font-family="sans-serif" font-size="13" lengthAdjust="spacing" textLength="259" x="55" y="145.5449">Requests to be notified in his application</text><text fill="#000000" font-family="sans-serif" font-size="13" lengthAdjust="spacing" textLength="257" x="55" y="160.8555">when the state of one of his applications</text><text fill="#000000" font-family="sans-serif" font-size="13" lengthAdjust="spacing" textLength="111" x="55" y="176.166">changes its state.</text><polygon fill="#181818" points="647,221.5293,657,225.5293,647,229.5293,651,225.5293" style="stroke:#181818;stroke-width:1.0;"/><line style="stroke:#181818;stroke-width:1.0;" x1="340" x2="653" y1="225.5293" y2="225.5293"/><text fill="#000000" font-family="sans-serif" font-size="13" lengthAdjust="spacing" textLength="194" x="347" y="205.4766">Tries to establish a connection</text><text fill="#000000" font-family="sans-serif" font-size="13" lengthAdjust="spacing" textLength="79" x="347" y="220.7871">to the server</text><polygon fill="#181818" points="351,250.8398,341,254.8398,351,258.8398,347,254.8398" style="stroke:#181818;stroke-width:1.0;"/><line style="stroke:#181818;stroke-width:1.0;stroke-dasharray:2.0,2.0;" x1="345" x2="658" y1="254.8398" y2="254.8398"/><text fill="#000000" font-family="sans-serif" font-size="13" lengthAdjust="spacing" textLength="148" x="357" y="250.0977">Accepts the connection</text><polygon fill="#181818" points="647,310.7715,657,314.7715,647,318.7715,651,314.7715" style="stroke:#181818;stroke-width:1.0;"/><line style="stroke:#181818;stroke-width:1.0;" x1="340" x2="653" y1="314.7715" y2="314.7715"/><text fill="#000000" font-family="sans-serif" font-size="13" lengthAdjust="spacing" textLength="247" x="347" y="279.4082">Sends a message according to protocol</text><text fill="#000000" font-family="sans-serif" font-size="13" lengthAdjust="spacing" textLength="246" x="347" y="294.7188">with the email of the candidate and the</text><text fill="#000000" font-family="sans-serif" font-size="13" lengthAdjust="spacing" textLength="295" x="347" y="310.0293">code for notifying the application state change</text><polygon fill="#181818" points="351,340.082,341,344.082,351,348.082,347,344.082" style="stroke:#181818;stroke-width:1.0;"/><line style="stroke:#181818;stroke-width:1.0;stroke-dasharray:2.0,2.0;" x1="345" x2="663" y1="344.082" y2="344.082"/><text fill="#000000" font-family="sans-serif" font-size="13" lengthAdjust="spacing" textLength="186" x="357" y="339.3398">Sends the list of notifications</text><polygon fill="#181818" points="54,369.3926,44,373.3926,54,377.3926,50,373.3926" style="stroke:#181818;stroke-width:1.0;"/><line style="stroke:#181818;stroke-width:1.0;stroke-dasharray:2.0,2.0;" x1="48" x2="334" y1="373.3926" y2="373.3926"/><text fill="#000000" font-family="sans-serif" font-size="13" lengthAdjust="spacing" textLength="189" x="60" y="368.6504">Shows the list of notifications</text><!--SRC=[ZPF1JiCm38RlVGfhEm-1kEs0D84u8yPkI2XBlTPI5eV4s-ZRuwGJNOiGEqrrxD-VVtj2uX1U8bjC2Px8DD7iFpRh-zlRkyfOuGYFnjTK6q4m2VhGt57JojOTiDho5yoMwou9xcVdXoPYLmKJXIm5uqKJVaHM8Sooq6LWA4C_gNjcv_Yq2MkCHuobSXo2UOVvkygqT2oOcV4CltWOTrh2AtuUC4a2OTWYU1RQ4TP07bhI0KDmP8qGUtZtfnOzI8kG92lp3jYNdqbgqbpR6jzW0bBjadup85qoL2CW1PmCj8ItI5ZubDDi7QKM35Zs7ksPIzyALQaOseoLgedmuhSPAsinP2zKR6ZmF-4QVQq6m5wlnZJPSikn9jzawX1PsBBB_f6qHHptXbmshdGQBihN9QBkSOsmqusLXNH5IXykrz7leBVvYjbwnYoY3ahktU_wlB6gnhzy6u-lolqjgMJBfoibHnk_YFV7gMYW_vnl]--></g></svg>