<?xml version="1.0" encoding="us-ascii" standalone="no"?><svg xmlns="http://www.w3.org/2000/svg" xmlns:xlink="http://www.w3.org/1999/xlink" contentStyleType="text/css" height="961px" preserveAspectRatio="none" style="width:1619px;height:961px;background:#FFFFFF;" version="1.1" viewBox="0 0 1619 961" width="1619px" zoomAndPan="magnify"><defs/><g><text fill="#000000" font-family="sans-serif" font-size="14" font-weight="bold" lengthAdjust="spacing" textLength="359" x="629.25" y="28.5352">ListApplications Diagram (CandidateApp)_US3001</text><rect fill="#90EE90" height="912.4512" style="stroke:#181818;stroke-width:0.5;" width="126" x="331" y="43.4883"/><text fill="#000000" font-family="sans-serif" font-size="13" font-weight="bold" lengthAdjust="spacing" textLength="97" x="345.5" y="56.0566">CandidateApp</text><rect fill="#ADD8E6" height="912.4512" style="stroke:#181818;stroke-width:0.5;" width="949" x="537.5" y="43.4883"/><text fill="#000000" font-family="sans-serif" font-size="13" font-weight="bold" lengthAdjust="spacing" textLength="31" x="994.5" y="56.0566">Core</text><rect fill="#FFFFFF" height="738.4746" style="stroke:#181818;stroke-width:1.0;" width="10" x="63" y="128.9766"/><rect fill="#FFFFFF" height="686.543" style="stroke:#181818;stroke-width:1.0;" width="10" x="389" y="180.9082"/><rect fill="#FFFFFF" height="601.9219" style="stroke:#181818;stroke-width:1.0;" width="10" x="635" y="220.2188"/><rect fill="#FFFFFF" height="485.3242" style="stroke:#181818;stroke-width:1.0;" width="10" x="881" y="307.5059"/><rect fill="#FFFFFF" height="29.3105" style="stroke:#181818;stroke-width:1.0;" width="10" x="1331" y="384.793"/><rect fill="#FFFFFF" height="29.3105" style="stroke:#181818;stroke-width:1.0;" width="10" x="1331" y="530.0352"/><rect fill="#FFFFFF" height="29.3105" style="stroke:#181818;stroke-width:1.0;" width="10" x="1331" y="612.9668"/><rect fill="#FFFFFF" height="57.3105" style="stroke:#181818;stroke-width:1.0;" width="10" x="1431.5" y="443.4141"/><rect fill="none" height="285.1055" style="stroke:#000000;stroke-width:1.5;" width="1380.5" x="10" y="574.3457"/><rect fill="none" height="46.6211" style="stroke:#000000;stroke-width:1.5;" width="443" x="20" y="715.8984"/><line style="stroke:#181818;stroke-width:0.5;stroke-dasharray:5.0,5.0;" x1="68" x2="68" y1="118.9766" y2="876.4512"/><line style="stroke:#181818;stroke-width:0.5;stroke-dasharray:5.0,5.0;" x1="394" x2="394" y1="118.9766" y2="876.4512"/><line style="stroke:#181818;stroke-width:0.5;stroke-dasharray:5.0,5.0;" x1="639.5" x2="639.5" y1="227.8965" y2="876.4512"/><line style="stroke:#181818;stroke-width:0.5;stroke-dasharray:5.0,5.0;" x1="885.5" x2="885.5" y1="315.1836" y2="876.4512"/><line style="stroke:#181818;stroke-width:0.5;stroke-dasharray:5.0,5.0;" x1="1335.5" x2="1335.5" y1="118.9766" y2="876.4512"/><line style="stroke:#181818;stroke-width:0.5;stroke-dasharray:5.0,5.0;" x1="1436.5" x2="1436.5" y1="118.9766" y2="876.4512"/><line style="stroke:#181818;stroke-width:0.5;stroke-dasharray:5.0,5.0;" x1="1552.5" x2="1552.5" y1="118.9766" y2="876.4512"/><text fill="#000000" font-family="sans-serif" font-size="14" lengthAdjust="spacing" textLength="70" x="30" y="116.0234">Candidate</text><ellipse cx="68" cy="50.9883" fill="#FFA500" rx="8" ry="8" style="stroke:#181818;stroke-width:0.5;"/><path d="M68,58.9883 L68,85.9883 M55,66.9883 L81,66.9883 M68,85.9883 L55,100.9883 M68,85.9883 L81,100.9883 " fill="none" style="stroke:#181818;stroke-width:0.5;"/><text fill="#000000" font-family="sans-serif" font-size="14" lengthAdjust="spacing" textLength="70" x="30" y="888.9863">Candidate</text><ellipse cx="68" cy="900.4395" fill="#FFA500" rx="8" ry="8" style="stroke:#181818;stroke-width:0.5;"/><path d="M68,908.4395 L68,935.4395 M55,916.4395 L81,916.4395 M68,935.4395 L55,950.4395 M68,935.4395 L81,950.4395 " fill="none" style="stroke:#181818;stroke-width:0.5;"/><rect fill="#E2E2F0" height="46.9766" rx="2.5" ry="2.5" style="stroke:#181818;stroke-width:0.5;" width="118" x="335" y="71"/><text fill="#000000" font-family="sans-serif" font-size="14" font-style="italic" lengthAdjust="spacing" textLength="101" x="343.5" y="91.5352">&#171;presentation&#187;</text><text fill="#000000" font-family="sans-serif" font-size="14" lengthAdjust="spacing" textLength="104" x="342" y="108.0234">:NotificationsUI</text><rect fill="#E2E2F0" height="46.9766" rx="2.5" ry="2.5" style="stroke:#181818;stroke-width:0.5;" width="118" x="335" y="875.4512"/><text fill="#000000" font-family="sans-serif" font-size="14" font-style="italic" lengthAdjust="spacing" textLength="101" x="343.5" y="895.9863">&#171;presentation&#187;</text><text fill="#000000" font-family="sans-serif" font-size="14" lengthAdjust="spacing" textLength="104" x="342" y="912.4746">:NotificationsUI</text><rect fill="#E2E2F0" height="46.9766" rx="2.5" ry="2.5" style="stroke:#181818;stroke-width:0.5;" width="197" x="541.5" y="875.4512"/><text fill="#000000" font-family="sans-serif" font-size="14" font-style="italic" lengthAdjust="spacing" textLength="90" x="595" y="895.9863">&#171;application&#187;</text><text fill="#000000" font-family="sans-serif" font-size="14" lengthAdjust="spacing" textLength="183" x="548.5" y="912.4746">:CommunicationController</text><rect fill="#E2E2F0" height="46.9766" rx="2.5" ry="2.5" style="stroke:#181818;stroke-width:0.5;" width="175" x="798.5" y="875.4512"/><text fill="#000000" font-family="sans-serif" font-size="14" font-style="italic" lengthAdjust="spacing" textLength="61" x="855.5" y="895.9863">&#171;service&#187;</text><text fill="#000000" font-family="sans-serif" font-size="14" lengthAdjust="spacing" textLength="161" x="805.5" y="912.4746">:CommunicationService</text><rect fill="#E2E2F0" height="30.4883" rx="2.5" ry="2.5" style="stroke:#181818;stroke-width:0.5;" width="89" x="1291.5" y="87.4883"/><text fill="#000000" font-family="sans-serif" font-size="14" lengthAdjust="spacing" textLength="75" x="1298.5" y="108.0234">:Translator</text><rect fill="#E2E2F0" height="30.4883" rx="2.5" ry="2.5" style="stroke:#181818;stroke-width:0.5;" width="89" x="1291.5" y="875.4512"/><text fill="#000000" font-family="sans-serif" font-size="14" lengthAdjust="spacing" textLength="75" x="1298.5" y="895.9863">:Translator</text><rect fill="#E2E2F0" height="30.4883" rx="2.5" ry="2.5" style="stroke:#181818;stroke-width:0.5;" width="92" x="1390.5" y="87.4883"/><text fill="#000000" font-family="sans-serif" font-size="14" lengthAdjust="spacing" textLength="78" x="1397.5" y="108.0234">:Messenger</text><rect fill="#E2E2F0" height="30.4883" rx="2.5" ry="2.5" style="stroke:#181818;stroke-width:0.5;" width="92" x="1390.5" y="875.4512"/><text fill="#000000" font-family="sans-serif" font-size="14" lengthAdjust="spacing" textLength="78" x="1397.5" y="895.9863">:Messenger</text><rect fill="#FFA500" height="30.4883" rx="2.5" ry="2.5" style="stroke:#181818;stroke-width:0.5;" width="121" x="1492.5" y="87.4883"/><text fill="#000000" font-family="sans-serif" font-size="14" lengthAdjust="spacing" textLength="107" x="1499.5" y="108.0234">FollowUpServer</text><rect fill="#FFA500" height="30.4883" rx="2.5" ry="2.5" style="stroke:#181818;stroke-width:0.5;" width="121" x="1492.5" y="875.4512"/><text fill="#000000" font-family="sans-serif" font-size="14" lengthAdjust="spacing" textLength="107" x="1499.5" y="895.9863">FollowUpServer</text><rect fill="#FFFFFF" height="738.4746" style="stroke:#181818;stroke-width:1.0;" width="10" x="63" y="128.9766"/><rect fill="#FFFFFF" height="686.543" style="stroke:#181818;stroke-width:1.0;" width="10" x="389" y="180.9082"/><rect fill="#FFFFFF" height="601.9219" style="stroke:#181818;stroke-width:1.0;" width="10" x="635" y="220.2188"/><rect fill="#FFFFFF" height="485.3242" style="stroke:#181818;stroke-width:1.0;" width="10" x="881" y="307.5059"/><rect fill="#FFFFFF" height="29.3105" style="stroke:#181818;stroke-width:1.0;" width="10" x="1331" y="384.793"/><rect fill="#FFFFFF" height="29.3105" style="stroke:#181818;stroke-width:1.0;" width="10" x="1331" y="530.0352"/><rect fill="#FFFFFF" height="29.3105" style="stroke:#181818;stroke-width:1.0;" width="10" x="1331" y="612.9668"/><rect fill="#FFFFFF" height="57.3105" style="stroke:#181818;stroke-width:1.0;" width="10" x="1431.5" y="443.4141"/><polygon fill="#181818" points="377,176.9082,387,180.9082,377,184.9082,381,180.9082" style="stroke:#181818;stroke-width:1.0;"/><line style="stroke:#181818;stroke-width:1.0;" x1="73" x2="383" y1="180.9082" y2="180.9082"/><text fill="#000000" font-family="sans-serif" font-size="13" lengthAdjust="spacing" textLength="259" x="80" y="145.5449">Requests to be notified in his application</text><text fill="#000000" font-family="sans-serif" font-size="13" lengthAdjust="spacing" textLength="257" x="80" y="160.8555">when the state of one of his applications</text><text fill="#000000" font-family="sans-serif" font-size="13" lengthAdjust="spacing" textLength="111" x="80" y="176.166">changes its state.</text><polygon fill="#181818" points="529.5,206.2188,539.5,210.2188,529.5,214.2188,533.5,210.2188" style="stroke:#181818;stroke-width:1.0;"/><line style="stroke:#181818;stroke-width:1.0;" x1="399" x2="535.5" y1="210.2188" y2="210.2188"/><text fill="#000000" font-family="sans-serif" font-size="13" lengthAdjust="spacing" textLength="46" x="406" y="205.4766">create()</text><rect fill="#E2E2F0" height="46.9766" rx="2.5" ry="2.5" style="stroke:#181818;stroke-width:0.5;" width="197" x="541.5" y="188.9082"/><text fill="#000000" font-family="sans-serif" font-size="14" font-style="italic" lengthAdjust="spacing" textLength="90" x="595" y="209.4434">&#171;application&#187;</text><text fill="#000000" font-family="sans-serif" font-size="14" lengthAdjust="spacing" textLength="183" x="548.5" y="225.9316">:CommunicationController</text><polygon fill="#181818" points="623,264.1953,633,268.1953,623,272.1953,627,268.1953" style="stroke:#181818;stroke-width:1.0;"/><line style="stroke:#181818;stroke-width:1.0;" x1="399" x2="629" y1="268.1953" y2="268.1953"/><text fill="#000000" font-family="sans-serif" font-size="13" lengthAdjust="spacing" textLength="212" x="406" y="263.4531">listAllNotificationJobApplication()</text><polygon fill="#181818" points="786.5,293.5059,796.5,297.5059,786.5,301.5059,790.5,297.5059" style="stroke:#181818;stroke-width:1.0;"/><line style="stroke:#181818;stroke-width:1.0;" x1="645" x2="792.5" y1="297.5059" y2="297.5059"/><text fill="#000000" font-family="sans-serif" font-size="13" lengthAdjust="spacing" textLength="46" x="652" y="292.7637">create()</text><rect fill="#E2E2F0" height="46.9766" rx="2.5" ry="2.5" style="stroke:#181818;stroke-width:0.5;" width="175" x="798.5" y="276.1953"/><text fill="#000000" font-family="sans-serif" font-size="14" font-style="italic" lengthAdjust="spacing" textLength="61" x="855.5" y="296.7305">&#171;service&#187;</text><text fill="#000000" font-family="sans-serif" font-size="14" lengthAdjust="spacing" textLength="161" x="805.5" y="313.2188">:CommunicationService</text><polygon fill="#181818" points="869,351.4824,879,355.4824,869,359.4824,873,355.4824" style="stroke:#181818;stroke-width:1.0;"/><line style="stroke:#181818;stroke-width:1.0;" x1="645" x2="875" y1="355.4824" y2="355.4824"/><text fill="#000000" font-family="sans-serif" font-size="13" lengthAdjust="spacing" textLength="212" x="652" y="350.7402">listAllNotificationJobApplication()</text><polygon fill="#181818" points="1319,380.793,1329,384.793,1319,388.793,1323,384.793" style="stroke:#181818;stroke-width:1.0;"/><line style="stroke:#181818;stroke-width:1.0;" x1="891" x2="1325" y1="384.793" y2="384.793"/><text fill="#000000" font-family="sans-serif" font-size="13" lengthAdjust="spacing" textLength="421" x="898" y="380.0508">encode(1, MessageCode.LIST_NOTIF_JOB_APPLICATIONS, null, null)</text><polygon fill="#181818" points="902,410.1035,892,414.1035,902,418.1035,898,414.1035" style="stroke:#181818;stroke-width:1.0;"/><line style="stroke:#181818;stroke-width:1.0;stroke-dasharray:2.0,2.0;" x1="896" x2="1335" y1="414.1035" y2="414.1035"/><text fill="#000000" font-family="sans-serif" font-size="13" lengthAdjust="spacing" textLength="94" x="908" y="409.3613">byte[] message</text><polygon fill="#181818" points="1419.5,439.4141,1429.5,443.4141,1419.5,447.4141,1423.5,443.4141" style="stroke:#181818;stroke-width:1.0;"/><line style="stroke:#181818;stroke-width:1.0;" x1="891" x2="1425.5" y1="443.4141" y2="443.4141"/><text fill="#000000" font-family="sans-serif" font-size="13" lengthAdjust="spacing" textLength="147" x="898" y="438.6719">sendMessage(message)</text><polygon fill="#181818" points="1541,453.4141,1551,457.4141,1541,461.4141,1545,457.4141" style="stroke:#181818;stroke-width:1.0;"/><line style="stroke:#181818;stroke-width:1.0;" x1="1441.5" x2="1547" y1="457.4141" y2="457.4141"/><polygon fill="#181818" points="1452.5,467.4141,1442.5,471.4141,1452.5,475.4141,1448.5,471.4141" style="stroke:#181818;stroke-width:1.0;"/><line style="stroke:#181818;stroke-width:1.0;stroke-dasharray:2.0,2.0;" x1="1446.5" x2="1552" y1="471.4141" y2="471.4141"/><polygon fill="#181818" points="1424.5,496.7246,1434.5,500.7246,1424.5,504.7246,1428.5,500.7246" style="stroke:#181818;stroke-width:1.0;"/><line style="stroke:#181818;stroke-width:1.0;" x1="891" x2="1430.5" y1="500.7246" y2="500.7246"/><text fill="#000000" font-family="sans-serif" font-size="13" lengthAdjust="spacing" textLength="106" x="898" y="495.9824">receiveMessage()</text><polygon fill="#181818" points="1319,526.0352,1329,530.0352,1319,534.0352,1323,530.0352" style="stroke:#181818;stroke-width:1.0;"/><line style="stroke:#181818;stroke-width:1.0;" x1="891" x2="1325" y1="530.0352" y2="530.0352"/><text fill="#000000" font-family="sans-serif" font-size="13" lengthAdjust="spacing" textLength="142" x="898" y="525.293">decodeCode(response)</text><polygon fill="#181818" points="902,555.3457,892,559.3457,902,563.3457,898,559.3457" style="stroke:#181818;stroke-width:1.0;"/><line style="stroke:#181818;stroke-width:1.0;stroke-dasharray:2.0,2.0;" x1="896" x2="1335" y1="559.3457" y2="559.3457"/><text fill="#000000" font-family="sans-serif" font-size="13" lengthAdjust="spacing" textLength="86" x="908" y="554.6035">MessageCode</text><path d="M10,574.3457 L72,574.3457 L72,581.6563 L62,591.6563 L10,591.6563 L10,574.3457 " fill="#EEEEEE" style="stroke:#000000;stroke-width:1.5;"/><rect fill="none" height="285.1055" style="stroke:#000000;stroke-width:1.5;" width="1380.5" x="10" y="574.3457"/><text fill="#000000" font-family="sans-serif" font-size="13" font-weight="bold" lengthAdjust="spacing" textLength="17" x="25" y="587.9141">alt</text><text fill="#000000" font-family="sans-serif" font-size="11" font-weight="bold" lengthAdjust="spacing" textLength="277" x="87" y="586.9805">[MessageCode.SHOW_NOTIF_JOB_APPLICATIONS]</text><polygon fill="#181818" points="1319,608.9668,1329,612.9668,1319,616.9668,1323,612.9668" style="stroke:#181818;stroke-width:1.0;"/><line style="stroke:#181818;stroke-width:1.0;" x1="891" x2="1325" y1="612.9668" y2="612.9668"/><text fill="#000000" font-family="sans-serif" font-size="13" lengthAdjust="spacing" textLength="147" x="898" y="608.2246">decodeData1(response)</text><polygon fill="#181818" points="902,638.2773,892,642.2773,902,646.2773,898,642.2773" style="stroke:#181818;stroke-width:1.0;"/><line style="stroke:#181818;stroke-width:1.0;stroke-dasharray:2.0,2.0;" x1="896" x2="1335" y1="642.2773" y2="642.2773"/><text fill="#000000" font-family="sans-serif" font-size="13" lengthAdjust="spacing" textLength="66" x="908" y="637.5352">byte[] data</text><polygon fill="#181818" points="656,667.5879,646,671.5879,656,675.5879,652,671.5879" style="stroke:#181818;stroke-width:1.0;"/><line style="stroke:#181818;stroke-width:1.0;stroke-dasharray:2.0,2.0;" x1="650" x2="880" y1="671.5879" y2="671.5879"/><text fill="#000000" font-family="sans-serif" font-size="13" lengthAdjust="spacing" textLength="164" x="662" y="666.8457">List&lt;String&gt; notifications</text><polygon fill="#181818" points="410,696.8984,400,700.8984,410,704.8984,406,700.8984" style="stroke:#181818;stroke-width:1.0;"/><line style="stroke:#181818;stroke-width:1.0;stroke-dasharray:2.0,2.0;" x1="404" x2="634" y1="700.8984" y2="700.8984"/><text fill="#000000" font-family="sans-serif" font-size="13" lengthAdjust="spacing" textLength="164" x="416" y="696.1563">List&lt;String&gt; notifications</text><path d="M20,715.8984 L94,715.8984 L94,723.209 L84,733.209 L20,733.209 L20,715.8984 " fill="#EEEEEE" style="stroke:#000000;stroke-width:1.5;"/><rect fill="none" height="46.6211" style="stroke:#000000;stroke-width:1.5;" width="443" x="20" y="715.8984"/><text fill="#000000" font-family="sans-serif" font-size="13" font-weight="bold" lengthAdjust="spacing" textLength="29" x="35" y="729.4668">loop</text><text fill="#000000" font-family="sans-serif" font-size="11" font-weight="bold" lengthAdjust="spacing" textLength="146" x="109" y="728.5332">[for each jobApplications]</text><polygon fill="#181818" points="84,750.5195,74,754.5195,84,758.5195,80,754.5195" style="stroke:#181818;stroke-width:1.0;"/><line style="stroke:#181818;stroke-width:1.0;stroke-dasharray:2.0,2.0;" x1="78" x2="388" y1="754.5195" y2="754.5195"/><text fill="#000000" font-family="sans-serif" font-size="13" lengthAdjust="spacing" textLength="124" x="90" y="749.7773">shows notifications</text><line style="stroke:#000000;stroke-width:1.0;stroke-dasharray:2.0,2.0;" x1="10" x2="1390.5" y1="770.5195" y2="770.5195"/><polygon fill="#181818" points="656,788.8301,646,792.8301,656,796.8301,652,792.8301" style="stroke:#181818;stroke-width:1.0;"/><line style="stroke:#181818;stroke-width:1.0;stroke-dasharray:2.0,2.0;" x1="650" x2="885" y1="792.8301" y2="792.8301"/><text fill="#000000" font-family="sans-serif" font-size="13" lengthAdjust="spacing" textLength="74" x="662" y="788.0879">error listing</text><polygon fill="#181818" points="410,818.1406,400,822.1406,410,826.1406,406,822.1406" style="stroke:#181818;stroke-width:1.0;"/><line style="stroke:#181818;stroke-width:1.0;stroke-dasharray:2.0,2.0;" x1="404" x2="639" y1="822.1406" y2="822.1406"/><text fill="#000000" font-family="sans-serif" font-size="13" lengthAdjust="spacing" textLength="74" x="416" y="817.3984">error listing</text><polygon fill="#181818" points="84,847.4512,74,851.4512,84,855.4512,80,851.4512" style="stroke:#181818;stroke-width:1.0;"/><line style="stroke:#181818;stroke-width:1.0;stroke-dasharray:2.0,2.0;" x1="78" x2="388" y1="851.4512" y2="851.4512"/><text fill="#000000" font-family="sans-serif" font-size="13" lengthAdjust="spacing" textLength="292" x="90" y="846.709">Shows error while displaying the notifications!</text><!--SRC=[dLNVRzem47xFNt635rgrLT7U449YLDse65GBQ0_RX4no44_6pcm3wt_Vi-EGG87zU04dlk-xp_VTEPPRWJ3YnlRpNF24MQwaWGVELfgjeJLWCkKfiqZRL_DP_Fx-lXr5BB5AmtuFc87YLLDf9bSOBTHlQDIn3MYE-2gp7pMYZ7AcBKzupgI5HcUiB5-MgMV3XgFRSEXsSuq6fVKRlLw4CWKYZZpxG6c4fd2S2x718yg1MgytCd0EbBHQ2O7QKoTgJToiEYvHNq37gBSyGGyrnPhWOVK6EgNp6y6e5XvWzuz7SP_HqD5MGTAwVAhEU13-IEhLRfOxBG5Y_79VSEy9ttepd1F1ejkUgsG7lk2l3HfBWXGi4AIlEAR09MISpAkA0T_bBaC9DaCmrl6f9IZf_uv23SKccKjlW1Et3x-hX6nuHCb90bNy-he3YKPwtRgg8cYZ2kc0S6qeHBqVdjIYrfY4TUvHVAZ_QTgmUHJxT_obnOIhpEi0oaIbs6hVW7EEhN10ZtUZOJoTZoVJuUFyQV9Xtdz-7Wq7_UbmCevlG6w4A7vhqceDKItXjguI5YyMl_tmJK69eXHFeMiwzztJ8HAP1e6jWAybhzfilohhWmKZ5bggmDDfD2R8jrXckgfhF8cjbp95LqfNlnRDTqvzXFzMe9e3PueJCM4FZ8e_JRwUCUgop0TcMVi_TGOVwGPaVpAnd01t4NTZgxbSzSAKXbahcjdFyyMmI2YLmvAqKCOCVXxqj_7JHYJ-Tg1soTJE715G1qKH2eDlrQ7MnEkcY1BNZtGmS47ZsU1ow2iPiPTH07OPfmzIoaqks0iX_KLqeF1T8V4L]--></g></svg>