<?xml version="1.0" encoding="us-ascii" standalone="no"?><svg xmlns="http://www.w3.org/2000/svg" xmlns:xlink="http://www.w3.org/1999/xlink" contentStyleType="text/css" height="1369px" preserveAspectRatio="none" style="width:2366px;height:1369px;background:#FFFFFF;" version="1.1" viewBox="0 0 2366 1369" width="2366px" zoomAndPan="magnify"><defs/><g><text fill="#000000" font-family="sans-serif" font-size="30" font-weight="bold" lengthAdjust="spacing" textLength="483" x="934.5" y="39.0039">Class Diagram - Server - 3001</text><!--cluster FollowUpServer--><g id="cluster_FollowUpServer"><rect fill="none" height="468" rx="2.5" ry="2.5" style="stroke:#181818;stroke-width:1.0;" width="719" x="7" y="350.332"/><text fill="#000000" font-family="sans-serif" font-size="14" font-weight="bold" lengthAdjust="spacing" textLength="111" x="311" y="365.8672">FollowUpServer</text></g><!--cluster CandidateAppSide--><g id="cluster_CandidateAppSide"><rect fill="none" height="486.5" rx="2.5" ry="2.5" style="stroke:#181818;stroke-width:1.0;" width="589" x="1734" y="63.332"/><text fill="#000000" font-family="sans-serif" font-size="14" font-weight="bold" lengthAdjust="spacing" textLength="130" x="1963.5" y="78.8672">CandidateAppSide</text></g><!--cluster DataBase--><g id="cluster_DataBase"><rect fill="none" height="108" rx="2.5" ry="2.5" style="stroke:#181818;stroke-width:1.0;" width="578" x="387" y="1126.332"/><text fill="#000000" font-family="sans-serif" font-size="14" font-weight="bold" lengthAdjust="spacing" textLength="66" x="643" y="1141.8672">DataBase</text></g><!--cluster Core--><g id="cluster_Core"><rect fill="none" height="675" rx="2.5" ry="2.5" style="stroke:#181818;stroke-width:1.0;" width="1371" x="989" y="601.332"/><text fill="#000000" font-family="sans-serif" font-size="14" font-weight="bold" lengthAdjust="spacing" textLength="33" x="1658" y="616.8672">Core</text></g><!--class RcompServer--><g id="elem_RcompServer"><rect codeLine="23" fill="#ADD8E6" height="108.4414" id="RcompServer" rx="2.5" ry="2.5" style="stroke:#000000;stroke-width:0.5;" width="205" x="23.5" y="426.832"/><text fill="#000000" font-family="sans-serif" font-size="14" lengthAdjust="spacing" textLength="90" x="81" y="445.3672">RcompServer</text><line style="stroke:#000000;stroke-width:0.5;" x1="24.5" x2="227.5" y1="453.3203" y2="453.3203"/><rect fill="none" height="6" style="stroke:#C82930;stroke-width:1.0;" width="6" x="31.5" y="464.0645"/><text fill="#000000" font-family="sans-serif" font-size="14" lengthAdjust="spacing" textLength="63" x="43.5" y="470.8555">PORT: int</text><line style="stroke:#000000;stroke-width:0.5;" x1="24.5" x2="227.5" y1="477.8086" y2="477.8086"/><ellipse cx="34.5" cy="491.5527" fill="#84BE84" rx="3" ry="3" style="stroke:#038048;stroke-width:1.0;"/><text fill="#000000" font-family="sans-serif" font-size="14" lengthAdjust="spacing" textLength="170" x="43.5" y="495.3438">main(args: String[]): void</text><ellipse cx="34.5" cy="508.041" fill="#84BE84" rx="3" ry="3" style="stroke:#038048;stroke-width:1.0;"/><text fill="#000000" font-family="sans-serif" font-size="14" lengthAdjust="spacing" textLength="69" x="43.5" y="511.832">init(): void</text><ellipse cx="34.5" cy="524.5293" fill="#84BE84" rx="3" ry="3" style="stroke:#038048;stroke-width:1.0;"/><text fill="#000000" font-family="sans-serif" font-size="14" lengthAdjust="spacing" textLength="179" x="43.5" y="528.3203">stop(thread: Thread): void</text></g><!--class SimpleHandler--><g id="elem_SimpleHandler"><rect codeLine="30" fill="#ADD8E6" height="190.8828" id="SimpleHandler" rx="2.5" ry="2.5" style="stroke:#000000;stroke-width:0.5;" width="446" x="264" y="385.332"/><text fill="#000000" font-family="sans-serif" font-size="14" lengthAdjust="spacing" textLength="100" x="437" y="403.8672">SimpleHandler</text><line style="stroke:#000000;stroke-width:0.5;" x1="265" x2="709" y1="411.8203" y2="411.8203"/><rect fill="none" height="6" style="stroke:#C82930;stroke-width:1.0;" width="6" x="272" y="422.5645"/><text fill="#000000" font-family="sans-serif" font-size="14" lengthAdjust="spacing" textLength="190" x="284" y="429.3555">authz: AuthorizationService</text><rect fill="none" height="6" style="stroke:#C82930;stroke-width:1.0;" width="6" x="272" y="439.0527"/><text fill="#000000" font-family="sans-serif" font-size="14" lengthAdjust="spacing" textLength="291" x="284" y="445.8438">candidateRepository: CandidateRepository</text><rect fill="none" height="6" style="stroke:#C82930;stroke-width:1.0;" width="6" x="272" y="455.541"/><text fill="#000000" font-family="sans-serif" font-size="14" lengthAdjust="spacing" textLength="285" x="284" y="462.332">customerRepository: CustomerRepository</text><line style="stroke:#000000;stroke-width:0.5;" x1="265" x2="709" y1="469.2852" y2="469.2852"/><ellipse cx="275" cy="483.0293" fill="#84BE84" rx="3" ry="3" style="stroke:#038048;stroke-width:1.0;"/><text fill="#000000" font-family="sans-serif" font-size="14" lengthAdjust="spacing" textLength="207" x="284" y="486.8203">SimpleHandler(socket: Socket)</text><ellipse cx="275" cy="499.5176" fill="#84BE84" rx="3" ry="3" style="stroke:#038048;stroke-width:1.0;"/><text fill="#000000" font-family="sans-serif" font-size="14" lengthAdjust="spacing" textLength="94" x="284" y="503.3086">handle(): void</text><ellipse cx="275" cy="516.0059" fill="#84BE84" rx="3" ry="3" style="stroke:#038048;stroke-width:1.0;"/><text fill="#000000" font-family="sans-serif" font-size="14" lengthAdjust="spacing" textLength="266" x="284" y="519.7969">authenticate(message: byte[]): boolean</text><ellipse cx="275" cy="532.4941" fill="#84BE84" rx="3" ry="3" style="stroke:#038048;stroke-width:1.0;"/><text fill="#000000" font-family="sans-serif" font-size="14" lengthAdjust="spacing" textLength="109" x="284" y="536.2852">sendACK(): void</text><ellipse cx="275" cy="548.9824" fill="#84BE84" rx="3" ry="3" style="stroke:#038048;stroke-width:1.0;"/><text fill="#000000" font-family="sans-serif" font-size="14" lengthAdjust="spacing" textLength="106" x="284" y="552.7734">sendERR(): void</text><ellipse cx="275" cy="565.4707" fill="#84BE84" rx="3" ry="3" style="stroke:#038048;stroke-width:1.0;"/><text fill="#000000" font-family="sans-serif" font-size="14" lengthAdjust="spacing" textLength="420" x="284" y="569.2617">sendSHOW_NOTIF_JOB_APPLICATIONS(list: List&lt;String&gt;): void</text></g><!--class Handler--><g id="elem_Handler"><rect codeLine="42" fill="#ADD8E6" height="141.418" id="Handler" rx="2.5" ry="2.5" style="stroke:#000000;stroke-width:0.5;" width="206" x="268" y="661.332"/><text fill="#000000" font-family="sans-serif" font-size="14" lengthAdjust="spacing" textLength="54" x="344" y="679.8672">Handler</text><line style="stroke:#000000;stroke-width:0.5;" x1="269" x2="473" y1="687.8203" y2="687.8203"/><rect fill="none" height="6" style="stroke:#C82930;stroke-width:1.0;" width="6" x="276" y="698.5645"/><text fill="#000000" font-family="sans-serif" font-size="14" lengthAdjust="spacing" textLength="140" x="288" y="705.3555">serverSocket: Socket</text><rect fill="none" height="6" style="stroke:#C82930;stroke-width:1.0;" width="6" x="276" y="715.0527"/><text fill="#000000" font-family="sans-serif" font-size="14" lengthAdjust="spacing" textLength="156" x="288" y="721.8438">sIn: ObjectInputStream</text><rect fill="none" height="6" style="stroke:#C82930;stroke-width:1.0;" width="6" x="276" y="731.541"/><text fill="#000000" font-family="sans-serif" font-size="14" lengthAdjust="spacing" textLength="180" x="288" y="738.332">sOut: ObjectOutputStream</text><line style="stroke:#000000;stroke-width:0.5;" x1="269" x2="473" y1="745.2852" y2="745.2852"/><ellipse cx="279" cy="759.0293" fill="#84BE84" rx="3" ry="3" style="stroke:#038048;stroke-width:1.0;"/><text fill="#000000" font-family="sans-serif" font-size="14" lengthAdjust="spacing" textLength="161" x="288" y="762.8203">Handler(socket: Socket)</text><ellipse cx="279" cy="775.5176" fill="#84BE84" rx="3" ry="3" style="stroke:#038048;stroke-width:1.0;"/><text fill="#000000" font-family="sans-serif" font-size="14" lengthAdjust="spacing" textLength="94" x="288" y="779.3086">handle(): void</text><ellipse cx="279" cy="792.0059" fill="#84BE84" rx="3" ry="3" style="stroke:#038048;stroke-width:1.0;"/><text fill="#000000" font-family="sans-serif" font-size="14" lengthAdjust="spacing" textLength="71" x="288" y="795.7969">run(): void</text></g><!--class Server--><g id="elem_Server"><rect codeLine="51" fill="#ADD8E6" height="141.418" id="Server" rx="2.5" ry="2.5" style="stroke:#000000;stroke-width:0.5;" width="209" x="23.5" y="661.332"/><text fill="#000000" font-family="sans-serif" font-size="14" lengthAdjust="spacing" textLength="43" x="106.5" y="679.8672">Server</text><line style="stroke:#000000;stroke-width:0.5;" x1="24.5" x2="231.5" y1="687.8203" y2="687.8203"/><rect fill="none" height="6" style="stroke:#C82930;stroke-width:1.0;" width="6" x="31.5" y="698.5645"/><text fill="#000000" font-family="sans-serif" font-size="14" lengthAdjust="spacing" textLength="183" x="43.5" y="705.3555">serverSocket: ServerSocket</text><rect fill="none" height="6" style="stroke:#C82930;stroke-width:1.0;" width="6" x="31.5" y="715.0527"/><text fill="#000000" font-family="sans-serif" font-size="14" lengthAdjust="spacing" textLength="132" x="43.5" y="721.8438">executing: boolean</text><line style="stroke:#000000;stroke-width:0.5;" x1="24.5" x2="231.5" y1="728.7969" y2="728.7969"/><ellipse cx="34.5" cy="742.541" fill="#84BE84" rx="3" ry="3" style="stroke:#038048;stroke-width:1.0;"/><text fill="#000000" font-family="sans-serif" font-size="14" lengthAdjust="spacing" textLength="108" x="43.5" y="746.332">Server(port: int)</text><ellipse cx="34.5" cy="759.0293" fill="#84BE84" rx="3" ry="3" style="stroke:#038048;stroke-width:1.0;"/><text fill="#000000" font-family="sans-serif" font-size="14" lengthAdjust="spacing" textLength="101" x="43.5" y="762.8203">execute(): void</text><ellipse cx="34.5" cy="775.5176" fill="#84BE84" rx="3" ry="3" style="stroke:#038048;stroke-width:1.0;"/><text fill="#000000" font-family="sans-serif" font-size="14" lengthAdjust="spacing" textLength="77" x="43.5" y="779.3086">stop(): void</text><ellipse cx="34.5" cy="792.0059" fill="#84BE84" rx="3" ry="3" style="stroke:#038048;stroke-width:1.0;"/><text fill="#000000" font-family="sans-serif" font-size="14" lengthAdjust="spacing" textLength="71" x="43.5" y="795.7969">run(): void</text></g><!--class MainMenu--><g id="elem_MainMenu"><rect codeLine="65" fill="#ADD8E6" height="108.4414" id="MainMenu" rx="2.5" ry="2.5" style="stroke:#000000;stroke-width:0.5;" width="216" x="1750" y="98.332"/><text fill="#000000" font-family="sans-serif" font-size="14" lengthAdjust="spacing" textLength="71" x="1822.5" y="116.8672">MainMenu</text><line style="stroke:#000000;stroke-width:0.5;" x1="1751" x2="1965" y1="124.8203" y2="124.8203"/><rect fill="none" height="6" style="stroke:#C82930;stroke-width:1.0;" width="6" x="1758" y="135.5645"/><text fill="#000000" font-family="sans-serif" font-size="14" lengthAdjust="spacing" textLength="190" x="1770" y="142.3555">authz: AuthorizationService</text><line style="stroke:#000000;stroke-width:0.5;" x1="1751" x2="1965" y1="149.3086" y2="149.3086"/><ellipse cx="1761" cy="163.0527" fill="#84BE84" rx="3" ry="3" style="stroke:#038048;stroke-width:1.0;"/><text fill="#000000" font-family="sans-serif" font-size="14" lengthAdjust="spacing" textLength="110" x="1770" y="166.8438">show(): boolean</text><ellipse cx="1761" cy="179.541" fill="#84BE84" rx="3" ry="3" style="stroke:#038048;stroke-width:1.0;"/><text fill="#000000" font-family="sans-serif" font-size="14" lengthAdjust="spacing" textLength="129" x="1770" y="183.332">doShow(): boolean</text><rect fill="#F24D5C" height="6" style="stroke:#C82930;stroke-width:1.0;" width="6" x="1758" y="193.0293"/><text fill="#000000" font-family="sans-serif" font-size="14" lengthAdjust="spacing" textLength="162" x="1770" y="199.8203">buildMainMenu(): Menu</text></g><!--class CandidateApp--><g id="elem_CandidateApp"><rect codeLine="72" fill="#ADD8E6" height="75.4648" id="CandidateApp" rx="2.5" ry="2.5" style="stroke:#000000;stroke-width:0.5;" width="305" x="2001.5" y="114.832"/><text fill="#000000" font-family="sans-serif" font-size="14" lengthAdjust="spacing" textLength="98" x="2105" y="133.3672">CandidateApp</text><line style="stroke:#000000;stroke-width:0.5;" x1="2002.5" x2="2305.5" y1="141.3203" y2="141.3203"/><rect fill="none" height="6" style="stroke:#C82930;stroke-width:1.0;" width="6" x="2009.5" y="152.0645"/><text fill="#000000" font-family="sans-serif" font-size="14" lengthAdjust="spacing" textLength="279" x="2021.5" y="158.8555">theController: CommunicationController</text><line style="stroke:#000000;stroke-width:0.5;" x1="2002.5" x2="2305.5" y1="165.8086" y2="165.8086"/><ellipse cx="2012.5" cy="179.5527" fill="#84BE84" rx="3" ry="3" style="stroke:#038048;stroke-width:1.0;"/><text fill="#000000" font-family="sans-serif" font-size="14" lengthAdjust="spacing" textLength="170" x="2021.5" y="183.3438">main(args: String[]): void</text></g><!--class NotificationsAction--><g id="elem_NotificationsAction"><rect codeLine="77" fill="#ADD8E6" height="58.9766" id="NotificationsAction" rx="2.5" ry="2.5" style="stroke:#000000;stroke-width:0.5;" width="154" x="1824" y="266.332"/><text fill="#000000" font-family="sans-serif" font-size="14" lengthAdjust="spacing" textLength="130" x="1836" y="284.8672">NotificationsAction</text><line style="stroke:#000000;stroke-width:0.5;" x1="1825" x2="1977" y1="292.8203" y2="292.8203"/><line style="stroke:#000000;stroke-width:0.5;" x1="1825" x2="1977" y1="300.8203" y2="300.8203"/><ellipse cx="1835" cy="314.5645" fill="#84BE84" rx="3" ry="3" style="stroke:#038048;stroke-width:1.0;"/><text fill="#000000" font-family="sans-serif" font-size="14" lengthAdjust="spacing" textLength="128" x="1844" y="318.3555">execute(): boolean</text></g><!--class NotificationsUI--><g id="elem_NotificationsUI"><rect codeLine="81" fill="#ADD8E6" height="106.0859" id="NotificationsUI" rx="2.5" ry="2.5" style="stroke:#000000;stroke-width:0.5;" width="389" x="1750.5" y="427.832"/><text fill="#000000" font-family="sans-serif" font-size="12" font-style="italic" lengthAdjust="spacing" textLength="84" x="1903" y="444.4336">&#171;presentation&#187;</text><text fill="#000000" font-family="sans-serif" font-size="14" lengthAdjust="spacing" textLength="100" x="1895" y="460.5">NotificationsUI</text><line style="stroke:#000000;stroke-width:0.5;" x1="1751.5" x2="2138.5" y1="468.4531" y2="468.4531"/><rect fill="none" height="6" style="stroke:#C82930;stroke-width:1.0;" width="6" x="1758.5" y="479.1973"/><text fill="#000000" font-family="sans-serif" font-size="14" lengthAdjust="spacing" textLength="363" x="1770.5" y="485.9883">communicationController: CommunicationController</text><line style="stroke:#000000;stroke-width:0.5;" x1="1751.5" x2="2138.5" y1="492.9414" y2="492.9414"/><ellipse cx="1761.5" cy="506.6855" fill="#84BE84" rx="3" ry="3" style="stroke:#038048;stroke-width:1.0;"/><text fill="#000000" font-family="sans-serif" font-size="14" lengthAdjust="spacing" textLength="129" x="1770.5" y="510.4766">doShow(): boolean</text><ellipse cx="1761.5" cy="523.1738" fill="#84BE84" rx="3" ry="3" style="stroke:#038048;stroke-width:1.0;"/><text fill="#000000" font-family="sans-serif" font-size="14" lengthAdjust="spacing" textLength="118" x="1770.5" y="526.9648">headline(): String</text></g><!--class JobApplicationRepository--><g id="elem_JobApplicationRepository"><rect codeLine="91" fill="#ADD8E6" height="56.6211" id="JobApplicationRepository" rx="2.5" ry="2.5" style="stroke:#000000;stroke-width:0.5;" width="179" x="769.5" y="1161.332"/><text fill="#000000" font-family="sans-serif" font-size="12" font-style="italic" lengthAdjust="spacing" textLength="70" x="824" y="1177.9336">&#171;repository&#187;</text><text fill="#000000" font-family="sans-serif" font-size="14" lengthAdjust="spacing" textLength="173" x="772.5" y="1194">JobApplicationRepository</text><line style="stroke:#000000;stroke-width:0.5;" x1="770.5" x2="947.5" y1="1201.9531" y2="1201.9531"/><line style="stroke:#000000;stroke-width:0.5;" x1="770.5" x2="947.5" y1="1209.9531" y2="1209.9531"/></g><!--class CandidateRepository--><g id="elem_CandidateRepository"><rect codeLine="92" fill="#ADD8E6" height="56.6211" id="CandidateRepository" rx="2.5" ry="2.5" style="stroke:#000000;stroke-width:0.5;" width="149" x="403.5" y="1161.332"/><text fill="#000000" font-family="sans-serif" font-size="12" font-style="italic" lengthAdjust="spacing" textLength="70" x="443" y="1177.9336">&#171;repository&#187;</text><text fill="#000000" font-family="sans-serif" font-size="14" lengthAdjust="spacing" textLength="143" x="406.5" y="1194">CandidateRepository</text><line style="stroke:#000000;stroke-width:0.5;" x1="404.5" x2="551.5" y1="1201.9531" y2="1201.9531"/><line style="stroke:#000000;stroke-width:0.5;" x1="404.5" x2="551.5" y1="1209.9531" y2="1209.9531"/></g><!--class CustomerRepository--><g id="elem_CustomerRepository"><rect codeLine="93" fill="#ADD8E6" height="56.6211" id="CustomerRepository" rx="2.5" ry="2.5" style="stroke:#000000;stroke-width:0.5;" width="146" x="588" y="1161.332"/><text fill="#000000" font-family="sans-serif" font-size="12" font-style="italic" lengthAdjust="spacing" textLength="70" x="626" y="1177.9336">&#171;repository&#187;</text><text fill="#000000" font-family="sans-serif" font-size="14" lengthAdjust="spacing" textLength="140" x="591" y="1194">CustomerRepository</text><line style="stroke:#000000;stroke-width:0.5;" x1="589" x2="733" y1="1201.9531" y2="1201.9531"/><line style="stroke:#000000;stroke-width:0.5;" x1="589" x2="733" y1="1209.9531" y2="1209.9531"/></g><!--class CommunicationController--><g id="elem_CommunicationController"><rect codeLine="100" fill="#ADD8E6" height="155.5508" id="CommunicationController" rx="2.5" ry="2.5" style="stroke:#000000;stroke-width:0.5;" width="374" x="1970" y="653.832"/><text fill="#000000" font-family="sans-serif" font-size="12" font-style="italic" lengthAdjust="spacing" textLength="75" x="2119.5" y="670.4336">&#171;application&#187;</text><text fill="#000000" font-family="sans-serif" font-size="14" lengthAdjust="spacing" textLength="179" x="2067.5" y="686.5">CommunicationController</text><line style="stroke:#000000;stroke-width:0.5;" x1="1971" x2="2343" y1="694.4531" y2="694.4531"/><rect fill="none" height="6" style="stroke:#C82930;stroke-width:1.0;" width="6" x="1978" y="705.1973"/><text fill="#000000" font-family="sans-serif" font-size="14" lengthAdjust="spacing" textLength="212" x="1990" y="711.9883">service: CommunicationService</text><line style="stroke:#000000;stroke-width:0.5;" x1="1971" x2="2343" y1="718.9414" y2="718.9414"/><ellipse cx="1981" cy="732.6855" fill="#84BE84" rx="3" ry="3" style="stroke:#038048;stroke-width:1.0;"/><text fill="#000000" font-family="sans-serif" font-size="14" lengthAdjust="spacing" textLength="311" x="1990" y="736.4766">initializeCommunication(socket: Socket): void</text><ellipse cx="1981" cy="749.1738" fill="#84BE84" rx="3" ry="3" style="stroke:#038048;stroke-width:1.0;"/><text fill="#000000" font-family="sans-serif" font-size="14" lengthAdjust="spacing" textLength="140" x="1990" y="752.9648">testConnection(): int</text><ellipse cx="1981" cy="765.6621" fill="#84BE84" rx="3" ry="3" style="stroke:#038048;stroke-width:1.0;"/><text fill="#000000" font-family="sans-serif" font-size="14" lengthAdjust="spacing" textLength="348" x="1990" y="769.4531">login(userEmail: String, password: String): boolean</text><ellipse cx="1981" cy="782.1504" fill="#84BE84" rx="3" ry="3" style="stroke:#038048;stroke-width:1.0;"/><text fill="#000000" font-family="sans-serif" font-size="14" lengthAdjust="spacing" textLength="110" x="1990" y="785.9414">disconnect(): int</text><ellipse cx="1981" cy="798.6387" fill="#84BE84" rx="3" ry="3" style="stroke:#038048;stroke-width:1.0;"/><text fill="#000000" font-family="sans-serif" font-size="14" lengthAdjust="spacing" textLength="321" x="1990" y="802.4297">listAllNotificationJobApplication(): List&lt;String&gt;</text></g><!--class MessageCode--><g id="elem_MessageCode"><rect codeLine="109" fill="#ADD8E6" height="91.9531" id="MessageCode" rx="2.5" ry="2.5" style="stroke:#000000;stroke-width:0.5;" width="140" x="1644" y="927.332"/><text fill="#000000" font-family="sans-serif" font-size="14" lengthAdjust="spacing" textLength="95" x="1666.5" y="945.8672">MessageCode</text><line style="stroke:#000000;stroke-width:0.5;" x1="1645" x2="1783" y1="953.8203" y2="953.8203"/><rect fill="none" height="6" style="stroke:#C82930;stroke-width:1.0;" width="6" x="1652" y="964.5645"/><text fill="#000000" font-family="sans-serif" font-size="14" lengthAdjust="spacing" textLength="59" x="1664" y="971.3555">code: int</text><line style="stroke:#000000;stroke-width:0.5;" x1="1645" x2="1783" y1="978.3086" y2="978.3086"/><ellipse cx="1655" cy="992.0527" fill="#84BE84" rx="3" ry="3" style="stroke:#038048;stroke-width:1.0;"/><text fill="#000000" font-family="sans-serif" font-size="14" lengthAdjust="spacing" textLength="94" x="1664" y="995.8438">getCode(): int</text><ellipse cx="1655" cy="1008.541" fill="#84BE84" rx="3" ry="3" style="stroke:#038048;stroke-width:1.0;"/><text fill="#000000" font-family="sans-serif" font-size="14" lengthAdjust="spacing" textLength="114" x="1664" y="1012.332">toString(): String</text></g><!--class Translator--><g id="elem_Translator"><rect codeLine="114" fill="#ADD8E6" height="190.8828" id="Translator" rx="2.5" ry="2.5" style="stroke:#000000;stroke-width:0.5;" width="541" x="1393.5" y="636.332"/><text fill="#000000" font-family="sans-serif" font-size="14" lengthAdjust="spacing" textLength="71" x="1628.5" y="654.8672">Translator</text><line style="stroke:#000000;stroke-width:0.5;" x1="1394.5" x2="1933.5" y1="662.8203" y2="662.8203"/><line style="stroke:#000000;stroke-width:0.5;" x1="1394.5" x2="1933.5" y1="670.8203" y2="670.8203"/><ellipse cx="1404.5" cy="684.5645" fill="#84BE84" rx="3" ry="3" style="stroke:#038048;stroke-width:1.0;"/><text fill="#000000" font-family="sans-serif" font-size="14" lengthAdjust="spacing" textLength="515" x="1413.5" y="688.3555">encode(version: int, code: MessageCode, data1: byte[], data2: byte[]): byte[]</text><ellipse cx="1404.5" cy="701.0527" fill="#84BE84" rx="3" ry="3" style="stroke:#038048;stroke-width:1.0;"/><text fill="#000000" font-family="sans-serif" font-size="14" lengthAdjust="spacing" textLength="303" x="1413.5" y="704.8438">decodeVersion(encodedMessage: byte[]): int</text><ellipse cx="1404.5" cy="717.541" fill="#84BE84" rx="3" ry="3" style="stroke:#038048;stroke-width:1.0;"/><text fill="#000000" font-family="sans-serif" font-size="14" lengthAdjust="spacing" textLength="287" x="1413.5" y="721.332">decodeCode(encodedMessage: byte[]): int</text><ellipse cx="1404.5" cy="734.0293" fill="#84BE84" rx="3" ry="3" style="stroke:#038048;stroke-width:1.0;"/><text fill="#000000" font-family="sans-serif" font-size="14" lengthAdjust="spacing" textLength="315" x="1413.5" y="737.8203">decodeData1Len(encodedMessage: byte[]): int</text><ellipse cx="1404.5" cy="750.5176" fill="#84BE84" rx="3" ry="3" style="stroke:#038048;stroke-width:1.0;"/><text fill="#000000" font-family="sans-serif" font-size="14" lengthAdjust="spacing" textLength="312" x="1413.5" y="754.3086">decodeData1(encodedMessage: byte[]): byte[]</text><ellipse cx="1404.5" cy="767.0059" fill="#84BE84" rx="3" ry="3" style="stroke:#038048;stroke-width:1.0;"/><text fill="#000000" font-family="sans-serif" font-size="14" lengthAdjust="spacing" textLength="315" x="1413.5" y="770.7969">decodeData2Len(encodedMessage: byte[]): int</text><ellipse cx="1404.5" cy="783.4941" fill="#84BE84" rx="3" ry="3" style="stroke:#038048;stroke-width:1.0;"/><text fill="#000000" font-family="sans-serif" font-size="14" lengthAdjust="spacing" textLength="312" x="1413.5" y="787.2852">decodeData2(encodedMessage: byte[]): byte[]</text><ellipse cx="1404.5" cy="799.9824" fill="#84BE84" rx="3" ry="3" style="stroke:#038048;stroke-width:1.0;"/><text fill="#000000" font-family="sans-serif" font-size="14" lengthAdjust="spacing" textLength="407" x="1413.5" y="803.7734">serializeNotificationJobApplication(list: List&lt;String&gt;): byte[]</text><ellipse cx="1404.5" cy="816.4707" fill="#84BE84" rx="3" ry="3" style="stroke:#038048;stroke-width:1.0;"/><text fill="#000000" font-family="sans-serif" font-size="14" lengthAdjust="spacing" textLength="440" x="1413.5" y="820.2617">deserializeNotificationJobApplication(bytes: byte[]): List&lt;String&gt;</text></g><!--class Messenger--><g id="elem_Messenger"><rect codeLine="126" fill="#ADD8E6" height="141.418" id="Messenger" rx="2.5" ry="2.5" style="stroke:#000000;stroke-width:0.5;" width="272" x="1462" y="1119.332"/><text fill="#000000" font-family="sans-serif" font-size="14" lengthAdjust="spacing" textLength="74" x="1561" y="1137.8672">Messenger</text><line style="stroke:#000000;stroke-width:0.5;" x1="1463" x2="1733" y1="1145.8203" y2="1145.8203"/><rect fill="none" height="6" style="stroke:#C82930;stroke-width:1.0;" width="6" x="1470" y="1156.5645"/><text fill="#000000" font-family="sans-serif" font-size="14" lengthAdjust="spacing" textLength="97" x="1482" y="1163.3555">socket: Socket</text><rect fill="none" height="6" style="stroke:#C82930;stroke-width:1.0;" width="6" x="1470" y="1173.0527"/><text fill="#000000" font-family="sans-serif" font-size="14" lengthAdjust="spacing" textLength="171" x="1482" y="1179.8438">out: ObjectOutputStream</text><rect fill="none" height="6" style="stroke:#C82930;stroke-width:1.0;" width="6" x="1470" y="1189.541"/><text fill="#000000" font-family="sans-serif" font-size="14" lengthAdjust="spacing" textLength="149" x="1482" y="1196.332">in: ObjectInputStream</text><line style="stroke:#000000;stroke-width:0.5;" x1="1463" x2="1733" y1="1203.2852" y2="1203.2852"/><ellipse cx="1473" cy="1217.0293" fill="#84BE84" rx="3" ry="3" style="stroke:#038048;stroke-width:1.0;"/><text fill="#000000" font-family="sans-serif" font-size="14" lengthAdjust="spacing" textLength="181" x="1482" y="1220.8203">Messenger(socket: Socket)</text><ellipse cx="1473" cy="1233.5176" fill="#84BE84" rx="3" ry="3" style="stroke:#038048;stroke-width:1.0;"/><text fill="#000000" font-family="sans-serif" font-size="14" lengthAdjust="spacing" textLength="246" x="1482" y="1237.3086">sendMessage(message: byte[]): void</text><ellipse cx="1473" cy="1250.0059" fill="#84BE84" rx="3" ry="3" style="stroke:#038048;stroke-width:1.0;"/><text fill="#000000" font-family="sans-serif" font-size="14" lengthAdjust="spacing" textLength="164" x="1482" y="1253.7969">receiveMessage(): byte[]</text></g><!--class ListNotificationJobApplicationController--><g id="elem_ListNotificationJobApplicationController"><rect codeLine="135" fill="#ADD8E6" height="106.0859" id="ListNotificationJobApplicationController" rx="2.5" ry="2.5" style="stroke:#000000;stroke-width:0.5;" width="353" x="1005.5" y="678.832"/><text fill="#000000" font-family="sans-serif" font-size="12" font-style="italic" lengthAdjust="spacing" textLength="75" x="1144.5" y="695.4336">&#171;application&#187;</text><text fill="#000000" font-family="sans-serif" font-size="14" lengthAdjust="spacing" textLength="272" x="1046" y="711.5">ListNotificationJobApplicationController</text><line style="stroke:#000000;stroke-width:0.5;" x1="1006.5" x2="1357.5" y1="719.4531" y2="719.4531"/><rect fill="none" height="6" style="stroke:#C82930;stroke-width:1.0;" width="6" x="1013.5" y="730.1973"/><text fill="#000000" font-family="sans-serif" font-size="14" lengthAdjust="spacing" textLength="327" x="1025.5" y="736.9883">jobApplicationService: ListJobApplicationService</text><rect fill="none" height="6" style="stroke:#C82930;stroke-width:1.0;" width="6" x="1013.5" y="746.6855"/><text fill="#000000" font-family="sans-serif" font-size="14" lengthAdjust="spacing" textLength="190" x="1025.5" y="753.4766">authz: AuthorizationService</text><line style="stroke:#000000;stroke-width:0.5;" x1="1006.5" x2="1357.5" y1="760.4297" y2="760.4297"/><ellipse cx="1016.5" cy="774.1738" fill="#84BE84" rx="3" ry="3" style="stroke:#038048;stroke-width:1.0;"/><text fill="#000000" font-family="sans-serif" font-size="14" lengthAdjust="spacing" textLength="310" x="1025.5" y="777.9648">listNotificationJobApplications(): List&lt;String&gt;</text></g><!--class CommunicationService--><g id="elem_CommunicationService"><rect codeLine="141" fill="#ADD8E6" height="172.0391" id="CommunicationService" rx="2.5" ry="2.5" style="stroke:#000000;stroke-width:0.5;" width="374" x="1919" y="887.332"/><text fill="#000000" font-family="sans-serif" font-size="12" font-style="italic" lengthAdjust="spacing" textLength="52" x="2080" y="903.9336">&#171;service&#187;</text><text fill="#000000" font-family="sans-serif" font-size="14" lengthAdjust="spacing" textLength="157" x="2027.5" y="920">CommunicationService</text><line style="stroke:#000000;stroke-width:0.5;" x1="1920" x2="2292" y1="927.9531" y2="927.9531"/><rect fill="none" height="6" style="stroke:#C82930;stroke-width:1.0;" width="6" x="1927" y="938.6973"/><text fill="#000000" font-family="sans-serif" font-size="14" lengthAdjust="spacing" textLength="198" x="1939" y="945.4883">serverMessenger: Messenger</text><line style="stroke:#000000;stroke-width:0.5;" x1="1920" x2="2292" y1="952.4414" y2="952.4414"/><ellipse cx="1930" cy="966.1855" fill="#84BE84" rx="3" ry="3" style="stroke:#038048;stroke-width:1.0;"/><text fill="#000000" font-family="sans-serif" font-size="14" lengthAdjust="spacing" textLength="254" x="1939" y="969.9766">getInstance(): CommunicationService</text><ellipse cx="1930" cy="982.6738" fill="#84BE84" rx="3" ry="3" style="stroke:#038048;stroke-width:1.0;"/><text fill="#000000" font-family="sans-serif" font-size="14" lengthAdjust="spacing" textLength="298" x="1939" y="986.4648">initializeComunication(socket: Socket): void</text><ellipse cx="1930" cy="999.1621" fill="#84BE84" rx="3" ry="3" style="stroke:#038048;stroke-width:1.0;"/><text fill="#000000" font-family="sans-serif" font-size="14" lengthAdjust="spacing" textLength="140" x="1939" y="1002.9531">testConnection(): int</text><ellipse cx="1930" cy="1015.6504" fill="#84BE84" rx="3" ry="3" style="stroke:#038048;stroke-width:1.0;"/><text fill="#000000" font-family="sans-serif" font-size="14" lengthAdjust="spacing" textLength="348" x="1939" y="1019.4414">login(userEmail: String, password: String): boolean</text><ellipse cx="1930" cy="1032.1387" fill="#84BE84" rx="3" ry="3" style="stroke:#038048;stroke-width:1.0;"/><text fill="#000000" font-family="sans-serif" font-size="14" lengthAdjust="spacing" textLength="110" x="1939" y="1035.9297">disconnect(): int</text><ellipse cx="1930" cy="1048.627" fill="#84BE84" rx="3" ry="3" style="stroke:#038048;stroke-width:1.0;"/><text fill="#000000" font-family="sans-serif" font-size="14" lengthAdjust="spacing" textLength="315" x="1939" y="1052.418">listAllNotificationJobApplication(): List&lt;String}</text></g><!--class ListNotificationJobApplicationService--><g id="elem_ListNotificationJobApplicationService"><rect codeLine="152" fill="#ADD8E6" height="89.5977" id="ListNotificationJobApplicationService" rx="2.5" ry="2.5" style="stroke:#000000;stroke-width:0.5;" width="418" x="1005" y="928.332"/><text fill="#000000" font-family="sans-serif" font-size="12" font-style="italic" lengthAdjust="spacing" textLength="52" x="1188" y="944.9336">&#171;service&#187;</text><text fill="#000000" font-family="sans-serif" font-size="14" lengthAdjust="spacing" textLength="250" x="1089" y="961">ListNotificationJobApplicationService</text><line style="stroke:#000000;stroke-width:0.5;" x1="1006" x2="1422" y1="968.9531" y2="968.9531"/><rect fill="none" height="6" style="stroke:#C82930;stroke-width:1.0;" width="6" x="1013" y="979.6973"/><text fill="#000000" font-family="sans-serif" font-size="14" lengthAdjust="spacing" textLength="354" x="1025" y="986.4883">jobApplicationRepository: JobApplicationRepository</text><line style="stroke:#000000;stroke-width:0.5;" x1="1006" x2="1422" y1="993.4414" y2="993.4414"/><ellipse cx="1016" cy="1007.1855" fill="#84BE84" rx="3" ry="3" style="stroke:#038048;stroke-width:1.0;"/><text fill="#000000" font-family="sans-serif" font-size="14" lengthAdjust="spacing" textLength="392" x="1025" y="1010.9766">listNotificationJobApplications(email: Email): List&lt;String&gt;</text></g><!--class Socket--><g id="elem_Socket"><rect fill="#ADD8E6" height="42.4883" id="Socket" rx="2.5" ry="2.5" style="stroke:#000000;stroke-width:0.5;" width="51" x="948.5" y="1320.332"/><text fill="#000000" font-family="sans-serif" font-size="14" lengthAdjust="spacing" textLength="45" x="951.5" y="1338.8672">Socket</text><line style="stroke:#000000;stroke-width:0.5;" x1="949.5" x2="998.5" y1="1346.8203" y2="1346.8203"/><line style="stroke:#000000;stroke-width:0.5;" x1="949.5" x2="998.5" y1="1354.8203" y2="1354.8203"/></g><!--class ServerSocket--><g id="elem_ServerSocket"><rect fill="#ADD8E6" height="42.4883" id="ServerSocket" rx="2.5" ry="2.5" style="stroke:#000000;stroke-width:0.5;" width="94" x="81" y="952.332"/><text fill="#000000" font-family="sans-serif" font-size="14" lengthAdjust="spacing" textLength="88" x="84" y="970.8672">ServerSocket</text><line style="stroke:#000000;stroke-width:0.5;" x1="82" x2="174" y1="978.8203" y2="978.8203"/><line style="stroke:#000000;stroke-width:0.5;" x1="82" x2="174" y1="986.8203" y2="986.8203"/></g><!--link MainMenu to NotificationsAction--><g id="link_MainMenu_NotificationsAction"><path codeLine="160" d="M1874.26,206.832 C1880.34,226.862 1885.2864,243.121 1890.4464,260.111 " fill="none" id="MainMenu-to-NotificationsAction" style="stroke:#000000;stroke-width:1.0;"/><polygon fill="#000000" points="1892.19,265.852,1893.402,256.078,1890.737,261.0678,1885.7472,258.4028,1892.19,265.852" style="stroke:#000000;stroke-width:1.0;"/></g><!--link CandidateApp to CommunicationController--><g id="link_CandidateApp_CommunicationController"><path codeLine="162" d="M2154.76,190.272 C2155.5,228.362 2156.58,289.502 2157,342.332 C2157.86,450.242 2157.6614,569.0221 2157.3814,647.4321 " fill="none" id="CandidateApp-to-CommunicationController" style="stroke:#000000;stroke-width:1.0;"/><polygon fill="#000000" points="2157.36,653.432,2161.3921,644.4464,2157.3779,648.4321,2153.3922,644.4178,2157.36,653.432" style="stroke:#000000;stroke-width:1.0;"/></g><!--link NotificationsAction to NotificationsUI--><g id="link_NotificationsAction_NotificationsUI"><path codeLine="164" d="M1907.97,325.832 C1914.51,353.042 1923.0464,388.5485 1930.9864,421.5485 " fill="none" id="NotificationsAction-to-NotificationsUI" style="stroke:#000000;stroke-width:1.0;"/><polygon fill="#000000" points="1932.39,427.382,1934.1736,417.696,1931.2203,422.5208,1926.3956,419.5675,1932.39,427.382" style="stroke:#000000;stroke-width:1.0;"/></g><!--link NotificationsUI to CommunicationController--><g id="link_NotificationsUI_CommunicationController"><path codeLine="166" d="M1989.44,534.032 C2018.95,568.682 2054.3007,610.2033 2087.3907,649.0733 " fill="none" id="NotificationsUI-to-CommunicationController" style="stroke:#000000;stroke-width:1.0;"/><polygon fill="#000000" points="2091.28,653.642,2088.4918,644.1961,2088.0389,649.8348,2082.4002,649.3819,2091.28,653.642" style="stroke:#000000;stroke-width:1.0;"/></g><!--link CommunicationController to CommunicationService--><g id="link_CommunicationController_CommunicationService"><path codeLine="168" d="M2140.51,810.262 C2135.3,834.722 2130.7693,856.0235 2125.4493,881.0135 " fill="none" id="CommunicationController-to-CommunicationService" style="stroke:#000000;stroke-width:1.0;"/><polygon fill="#000000" points="2124.2,886.882,2129.9863,878.9122,2125.2411,881.9916,2122.1616,877.2464,2124.2,886.882" style="stroke:#000000;stroke-width:1.0;"/></g><!--link CommunicationController to MessageCode--><g id="link_CommunicationController_MessageCode"><path codeLine="169" d="M2013.78,810.262 C1937.06,851.742 1851.2383,898.1391 1789.7583,931.3691 " fill="none" id="CommunicationController-to-MessageCode" style="stroke:#000000;stroke-width:1.0;"/><polygon fill="#000000" points="1784.48,934.222,1794.2995,933.4615,1788.8786,931.8446,1790.4955,926.4237,1784.48,934.222" style="stroke:#000000;stroke-width:1.0;"/></g><!--link Translator to MessageCode--><g id="link_Translator_MessageCode"><path codeLine="171" d="M1683.76,827.492 C1690.91,861.742 1697.4327,892.9989 1703.3027,921.0889 " fill="none" id="Translator-to-MessageCode" style="stroke:#000000;stroke-width:1.0;"/><polygon fill="#000000" points="1704.53,926.962,1706.6044,917.3341,1703.5072,922.0678,1698.7736,918.9705,1704.53,926.962" style="stroke:#000000;stroke-width:1.0;"/></g><!--link Messenger to Socket--><g id="link_Messenger_Socket"><path codeLine="173" d="M1461.83,1223.452 C1310.5,1259.712 1083.0649,1314.204 1005.7249,1332.734 " fill="none" id="Messenger-to-Socket" style="stroke:#000000;stroke-width:1.0;"/><polygon fill="#000000" points="999.89,1334.132,1009.5743,1335.925,1004.7524,1332.967,1007.7103,1328.1451,999.89,1334.132" style="stroke:#000000;stroke-width:1.0;"/></g><!--link CommunicationService to Messenger--><g id="link_CommunicationService_Messenger"><path codeLine="176" d="M1918.64,1053.442 C1857.56,1079.232 1796.4774,1105.028 1739.8774,1128.928 " fill="none" id="CommunicationService-to-Messenger" style="stroke:#000000;stroke-width:1.0;"/><polygon fill="#000000" points="1734.35,1131.262,1744.1971,1131.446,1738.9562,1129.317,1741.0851,1124.0761,1734.35,1131.262" style="stroke:#000000;stroke-width:1.0;"/></g><!--link ListNotificationJobApplicationController to ListNotificationJobApplicationService--><g id="link_ListNotificationJobApplicationController_ListNotificationJobApplicationService"><path codeLine="177" d="M1188.98,785.092 C1194.7,827.902 1201.9055,881.8449 1207.3055,922.2649 " fill="none" id="ListNotificationJobApplicationController-to-ListNotificationJobApplicationService" style="stroke:#000000;stroke-width:1.0;"/><polygon fill="#000000" points="1208.1,928.212,1210.873,918.7616,1207.4379,923.2561,1202.9434,919.821,1208.1,928.212" style="stroke:#000000;stroke-width:1.0;"/></g><!--link ListNotificationJobApplicationService to JobApplicationRepository--><g id="link_ListNotificationJobApplicationService_JobApplicationRepository"><path codeLine="178" d="M1140.44,1018.772 C1069.67,1061.542 969.9854,1121.7691 910.2554,1157.8591 " fill="none" id="ListNotificationJobApplicationService-to-JobApplicationRepository" style="stroke:#000000;stroke-width:1.0;"/><polygon fill="#000000" points="905.12,1160.962,914.8917,1159.7313,909.3995,1158.3763,910.7545,1152.8841,905.12,1160.962" style="stroke:#000000;stroke-width:1.0;"/></g><!--link RcompServer to Server--><g id="link_RcompServer_Server"><path codeLine="180" d="M126.43,535.252 C126.72,571.972 127.0718,615.1122 127.3918,654.9422 " fill="none" id="RcompServer-to-Server" style="stroke:#000000;stroke-width:1.0;"/><polygon fill="#000000" points="127.44,660.942,131.3676,651.9102,127.3998,655.9422,123.3678,651.9745,127.44,660.942" style="stroke:#000000;stroke-width:1.0;"/></g><!--link SimpleHandler to CandidateRepository--><g id="link_SimpleHandler_CandidateRepository"><path codeLine="182" d="M491.54,576.712 C491.72,582.332 491.88,587.912 492,593.332 C494.33,697.302 494.01,723.352 492,827.332 C489.59,951.982 482.803,1094.6797 479.743,1155.1897 " fill="none" id="SimpleHandler-to-CandidateRepository" style="stroke:#000000;stroke-width:1.0;"/><polygon fill="#000000" points="479.44,1161.182,483.8894,1152.3955,479.6925,1156.1884,475.8997,1151.9915,479.44,1161.182" style="stroke:#000000;stroke-width:1.0;"/></g><!--link SimpleHandler to CustomerRepository--><g id="link_SimpleHandler_CustomerRepository"><path codeLine="183" d="M513.61,576.662 C515.12,582.302 516.59,587.882 518,593.332 C574.38,811.022 633.8777,1069.6318 653.3177,1154.9918 " fill="none" id="SimpleHandler-to-CustomerRepository" style="stroke:#000000;stroke-width:1.0;"/><polygon fill="#000000" points="654.65,1160.842,656.5516,1151.1785,653.5397,1155.9669,648.7514,1152.9549,654.65,1160.842" style="stroke:#000000;stroke-width:1.0;"/></g><!--link SimpleHandler to Handler--><g id="link_SimpleHandler_Handler"><path codeLine="184" d="M442.81,576.682 C429.75,604.712 418.2333,629.4431 406.0533,655.5931 " fill="none" id="SimpleHandler-to-Handler" style="stroke:#000000;stroke-width:1.0;"/><polygon fill="#000000" points="403.52,661.032,410.946,654.5625,405.6311,656.4996,403.694,651.1847,403.52,661.032" style="stroke:#000000;stroke-width:1.0;"/></g><!--link SimpleHandler to ListNotificationJobApplicationController--><g id="link_SimpleHandler_ListNotificationJobApplicationController"><path codeLine="185" d="M710.25,561.812 C816.82,600.002 935.7118,642.5878 1030.0518,676.3978 " fill="none" id="SimpleHandler-to-ListNotificationJobApplicationController" style="stroke:#000000;stroke-width:1.0;"/><polygon fill="#000000" points="1035.7,678.422,1028.5772,671.6202,1030.9931,676.7352,1025.8782,679.1512,1035.7,678.422" style="stroke:#000000;stroke-width:1.0;"/></g><!--link Handler to Socket--><g id="link_Handler_Socket"><path codeLine="187" d="M347.32,802.462 C312.61,918.942 264.43,1153.382 387,1284.332 C425.87,1325.862 833.6814,1337.3626 942.1114,1339.7026 " fill="none" id="Handler-to-Socket" style="stroke:#000000;stroke-width:1.0;"/><polygon fill="#000000" points="948.11,1339.832,939.1984,1335.6388,943.1112,1339.7242,939.0258,1343.6369,948.11,1339.832" style="stroke:#000000;stroke-width:1.0;"/></g><!--link Server to ServerSocket--><g id="link_Server_ServerSocket"><path codeLine="189" d="M128,802.752 C128,853.692 128,913.292 128,945.962 " fill="none" id="Server-to-ServerSocket" style="stroke:#000000;stroke-width:1.0;"/><polygon fill="#000000" points="128,951.962,132,942.962,128,946.962,124,942.962,128,951.962" style="stroke:#000000;stroke-width:1.0;"/></g><!--SRC=[rLVVJ-Cu47xtNv77hA0wOEyfGfLATrTR3YXgojt3wOHCCjSQN3ko7JWuyR_Vs4xI_2pXyLPYath6Cvy_Vvvn33CSWdFDtY3wUZATSwfry8tHZQAxO1B4e9v1uSlNavFJyr-isvIGBKiXI9XAE13zn4H6hNT6aoUwWTYyOaG5YI4rO-82_qi2_7U1ZXibSv7E9PSgk6ARhRdWEJZhJ2dvuWqN73tz5AbIKEtH7rAOlh4OOGQdlvBt6W05d1ecXTwohC3HcyaDzWMk3FleX1HhngoSovUxhE3h_7o5wwTYms4wnMp4Bt-Lo5tfuY5CRfUhTHGmOTpFenrb8gHgewCWDeg9pPz_VOc2PybIRsU2cR0neetCGhDLGDCeMBjdQNylyyPibt7uIKNAzvbfRhPlKJ33XrJipP5ZiR74xyCaGN-MKWChoAHcHghNA9Xt1mll797iG3MSEsCUSmDFg6No10ONx9vVlClM6PjBjOX169PW-d07MYFpKV3mQi2nz20b1oeAMa2ai_blBQvmyFjgrHsCVox_kBzPhXS_xY-N5_UpszkhnNosNYnluf0pZU2kyFzploNJ3hyjPhNRuRYnhCAo456mV7X4SIn4bXiC27HNs9QvAOtushGUVPeibOkmAuI6zbeuQx-y7Vw193UuuXQttZFCf39EkWKAxmuzyZm4pFwLfwWIropBObjZ6kUeEaRNU4YkGUHZbNoaj_8bR2iabN7FyEGXPpmjCrYhVUuPh4CiywCgvrWN5DO0KAXwkTlbmgeKSUmD7nxmAiUDDEplOhwU9VPHfAfpNABkdtQtGF8o1QXkuqOiV_wWziFx07S_MqTRB3US2GV8hyVYgMtfDshe1TL3Mtaf7v18NYJTrmbqLzKFz7zlqp_2jLDykfvDzKar17E06lIcU_GLmzfhhyLeGv6sZZFAiPCqVDh7ktvk36ZiIKA04uGblEeQN6vGLJdc_OxwukLM76DBrle5MsSvqZa3J2S-P3CU5hiPvtL1DJVAUjShubw4rxuipoMUtafmATI2Ry1OQoEXaJvGGqO-u5fHeR5rIrMT0M4ZXbY2D49nKOu3dwIM_JX0cT3JiZ_udsVrTk5U2Xx0pl_THmnzWlIwqs4glDxVBMEiipq8frSWFZTXsBiBtquu-so6it4PK5fUhWSqqTiecp37XB4pT0t6iCv0R6hDhAVToWCTTS86M_5H5Ro_tTeRGq5NppMarkaW0VOCfUkUZMeLTct3L7nOQ1uRxd5PTcpKopxJo7R93wBImuU_hzuXzA8UDkeZg8haQB-PLOLO28r5E76aZQoY__SY-kvkGsDqCSpiuq0xZGORxRWT1y-88wQx-nOtgIvbaycqxmP3IEFgPBs6BXoaxmBK2NktQ3dYbUTWrA4ctfbKQkpGX5gd8QJMepgsVQ6ofg8wjS2K6rfEzcTXT76mqqOfXepJbOqtg1TI_uXrItAlX3G_CXsfFT-AFLxTZyIkK_7UOndB4Y7rMUK-TDPH6Fu3]--></g></svg>