<?xml version="1.0" encoding="us-ascii" standalone="no"?><svg xmlns="http://www.w3.org/2000/svg" xmlns:xlink="http://www.w3.org/1999/xlink" contentStyleType="text/css" height="631px" preserveAspectRatio="none" style="width:521px;height:631px;background:#FFFFFF;" version="1.1" viewBox="0 0 521 631" width="521px" zoomAndPan="magnify"><defs/><g><text fill="#000000" font-family="sans-serif" font-size="20" font-weight="bold" lengthAdjust="spacing" textLength="450" x="28.5" y="29.3359">Class Diagram - Register User - UC 1000.1</text><!--class AuthenticationService--><g id="elem_AuthenticationService"><rect codeLine="22" fill="#ADD8E6" height="40.6211" id="AuthenticationService" rx="2.5" ry="2.5" style="stroke:#000000;stroke-width:0.5;" width="155" x="120" y="51.5547"/><text fill="#000000" font-family="sans-serif" font-size="12" font-style="italic" lengthAdjust="spacing" textLength="52" x="171.5" y="68.1563">&#171;service&#187;</text><text fill="#000000" font-family="sans-serif" font-size="14" lengthAdjust="spacing" textLength="149" x="123" y="84.2227">AuthenticationService</text></g><!--class Session--><g id="elem_Session"><rect codeLine="23" fill="#ADD8E6" height="40.6211" id="Session" rx="2.5" ry="2.5" style="stroke:#000000;stroke-width:0.5;" width="58" x="168.5" y="152.5547"/><text fill="#000000" font-family="sans-serif" font-size="12" font-style="italic" lengthAdjust="spacing" textLength="42" x="176.5" y="169.1563">&#171;value&#187;</text><text fill="#000000" font-family="sans-serif" font-size="14" lengthAdjust="spacing" textLength="52" x="171.5" y="185.2227">Session</text></g><!--class Username--><g id="elem_Username"><rect codeLine="24" fill="#ADD8E6" height="54.7539" id="Username" rx="2.5" ry="2.5" style="stroke:#000000;stroke-width:0.5;" width="75" x="439" y="368.5547"/><text fill="#000000" font-family="sans-serif" font-size="12" font-style="italic" lengthAdjust="spacing" textLength="42" x="455.5" y="385.1563">&#171;value&#187;</text><text fill="#000000" font-family="sans-serif" font-size="12" font-style="italic" lengthAdjust="spacing" textLength="23" x="465" y="399.2891">&#171;id&#187;</text><text fill="#000000" font-family="sans-serif" font-size="14" lengthAdjust="spacing" textLength="69" x="442" y="415.3555">Username</text></g><!--class Password--><g id="elem_Password"><rect codeLine="25" fill="#ADD8E6" height="40.6211" id="Password" rx="2.5" ry="2.5" style="stroke:#000000;stroke-width:0.5;" width="71" x="7" y="375.5547"/><text fill="#000000" font-family="sans-serif" font-size="12" font-style="italic" lengthAdjust="spacing" textLength="42" x="21.5" y="392.1563">&#171;value&#187;</text><text fill="#000000" font-family="sans-serif" font-size="14" lengthAdjust="spacing" textLength="65" x="10" y="408.2227">Password</text></g><!--class SystemUser--><g id="elem_SystemUser"><rect codeLine="26" fill="#ADD8E6" height="54.7539" id="SystemUser" rx="2.5" ry="2.5" style="stroke:#000000;stroke-width:0.5;" width="99" x="214" y="253.5547"/><text fill="#000000" font-family="sans-serif" font-size="12" font-style="italic" lengthAdjust="spacing" textLength="97" x="215" y="270.1563">&#171;aggregate root&#187;</text><text fill="#000000" font-family="sans-serif" font-size="12" font-style="italic" lengthAdjust="spacing" textLength="43" x="242" y="284.2891">&#171;entity&#187;</text><text fill="#000000" font-family="sans-serif" font-size="14" lengthAdjust="spacing" textLength="79" x="224" y="300.3555">SystemUser</text></g><!--class Name--><g id="elem_Name"><rect codeLine="27" fill="#ADD8E6" height="40.6211" id="Name" rx="2.5" ry="2.5" style="stroke:#000000;stroke-width:0.5;" width="45" x="359" y="375.5547"/><text fill="#000000" font-family="sans-serif" font-size="12" font-style="italic" lengthAdjust="spacing" textLength="42" x="360.5" y="392.1563">&#171;value&#187;</text><text fill="#000000" font-family="sans-serif" font-size="14" lengthAdjust="spacing" textLength="39" x="362" y="408.2227">Name</text></g><!--class UserBuilder--><g id="elem_UserBuilder"><rect codeLine="28" fill="#ADD8E6" height="40.6211" id="UserBuilder" rx="2.5" ry="2.5" style="stroke:#000000;stroke-width:0.5;" width="85" x="262" y="152.5547"/><text fill="#000000" font-family="sans-serif" font-size="12" font-style="italic" lengthAdjust="spacing" textLength="51" x="279" y="169.1563">&#171;factory&#187;</text><text fill="#000000" font-family="sans-serif" font-size="14" lengthAdjust="spacing" textLength="79" x="265" y="185.2227">UserBuilder</text></g><!--class Email--><g id="elem_Email"><rect codeLine="29" fill="#ADD8E6" height="40.6211" id="Email" rx="2.5" ry="2.5" style="stroke:#000000;stroke-width:0.5;" width="44" x="113.5" y="375.5547"/><text fill="#000000" font-family="sans-serif" font-size="12" font-style="italic" lengthAdjust="spacing" textLength="42" x="114.5" y="392.1563">&#171;value&#187;</text><text fill="#000000" font-family="sans-serif" font-size="14" lengthAdjust="spacing" textLength="37" x="117" y="408.2227">Email</text></g><!--class RoleList--><g id="elem_RoleList"><rect codeLine="30" fill="#ADD8E6" height="40.6211" id="RoleList" rx="2.5" ry="2.5" style="stroke:#000000;stroke-width:0.5;" width="59" x="193" y="375.5547"/><text fill="#000000" font-family="sans-serif" font-size="12" font-style="italic" lengthAdjust="spacing" textLength="42" x="201.5" y="392.1563">&#171;value&#187;</text><text fill="#000000" font-family="sans-serif" font-size="14" lengthAdjust="spacing" textLength="53" x="196" y="408.2227">RoleList</text></g><!--class Role--><g id="elem_Role"><rect codeLine="31" fill="#ADD8E6" height="40.6211" id="Role" rx="2.5" ry="2.5" style="stroke:#000000;stroke-width:0.5;" width="44" x="192.5" y="483.5547"/><text fill="#000000" font-family="sans-serif" font-size="12" font-style="italic" lengthAdjust="spacing" textLength="42" x="193.5" y="500.1563">&#171;value&#187;</text><text fill="#000000" font-family="sans-serif" font-size="14" lengthAdjust="spacing" textLength="30" x="199.5" y="516.2227">Role</text></g><!--class RoleType--><g id="elem_RoleType"><rect codeLine="32" fill="#ADD8E6" height="40.6211" id="RoleType" rx="2.5" ry="2.5" style="stroke:#000000;stroke-width:0.5;" width="69" x="230" y="584.5547"/><text fill="#000000" font-family="sans-serif" font-size="12" font-style="italic" lengthAdjust="spacing" textLength="44" x="242.5" y="601.1563">&#171;enum&#187;</text><text fill="#000000" font-family="sans-serif" font-size="14" lengthAdjust="spacing" textLength="63" x="233" y="617.2227">RoleType</text></g><!--class ActionRight--><g id="elem_ActionRight"><rect codeLine="33" fill="#ADD8E6" height="40.6211" id="ActionRight" rx="2.5" ry="2.5" style="stroke:#000000;stroke-width:0.5;" width="86" x="271.5" y="483.5547"/><text fill="#000000" font-family="sans-serif" font-size="12" font-style="italic" lengthAdjust="spacing" textLength="44" x="292.5" y="500.1563">&#171;enum&#187;</text><text fill="#000000" font-family="sans-serif" font-size="14" lengthAdjust="spacing" textLength="80" x="274.5" y="516.2227">ActionRight</text></g><!--link AuthenticationService to Session--><g id="link_AuthenticationService_Session"><path codeLine="37" d="M197.5,92.6147 C197.5,109.8547 197.5,128.8647 197.5,146.1947 " fill="none" id="AuthenticationService-to-Session" style="stroke:#000000;stroke-width:1.0;stroke-dasharray:7.0,7.0;"/><polygon fill="#000000" points="197.5,152.1947,201.5,143.1947,197.5,147.1947,193.5,143.1947,197.5,152.1947" style="stroke:#000000;stroke-width:1.0;"/></g><!--link AuthenticationService to Username--><g id="link_AuthenticationService_Username"><path codeLine="38" d="M265.06,93.0047 C298.38,105.6447 337.19,124.9247 364.5,152.5547 C426.77,215.5447 457.0266,313.7109 469.1066,362.4509 " fill="none" id="AuthenticationService-to-Username" style="stroke:#000000;stroke-width:1.0;stroke-dasharray:7.0,7.0;"/><polygon fill="#000000" points="470.55,368.2747,472.2674,358.5767,469.3472,363.4215,464.5024,360.5013,470.55,368.2747" style="stroke:#000000;stroke-width:1.0;"/></g><!--link AuthenticationService to Password--><g id="link_AuthenticationService_Password"><path codeLine="39" d="M184.87,92.9547 C175.01,108.8247 161.24,131.7547 150.5,152.5547 C108.86,233.2347 69.5985,327.7819 52.6785,369.6419 " fill="none" id="AuthenticationService-to-Password" style="stroke:#000000;stroke-width:1.0;stroke-dasharray:7.0,7.0;"/><polygon fill="#000000" points="50.43,375.2047,57.5112,368.3595,52.3037,370.5691,50.0942,365.3616,50.43,375.2047" style="stroke:#000000;stroke-width:1.0;"/></g><!--link UserBuilder to SystemUser--><g id="link_UserBuilder_SystemUser"><path codeLine="40" d="M296.79,193.9947 C290.29,210.7847 283.1144,229.3487 275.9744,247.8087 " fill="none" id="UserBuilder-to-SystemUser" style="stroke:#000000;stroke-width:1.0;stroke-dasharray:7.0,7.0;"/><polygon fill="#000000" points="273.81,253.4047,280.7873,246.4536,275.6137,248.7414,273.326,243.5677,273.81,253.4047" style="stroke:#000000;stroke-width:1.0;"/></g><!--link SystemUser to ActionRight--><g id="link_SystemUser_ActionRight"><path codeLine="41" d="M269.65,308.7147 C280.01,353.6047 299.3499,437.4186 308.5599,477.2986 " fill="none" id="SystemUser-to-ActionRight" style="stroke:#000000;stroke-width:1.0;stroke-dasharray:7.0,7.0;"/><polygon fill="#000000" points="309.91,483.1447,311.7822,473.4754,308.7849,478.2729,303.9874,475.2756,309.91,483.1447" style="stroke:#000000;stroke-width:1.0;"/></g><!--link ActionRight to RoleType--><g id="link_ActionRight_RoleType"><path codeLine="42" d="M304.62,524.6147 C295.91,541.8547 285.9843,561.5087 277.2343,578.8387 " fill="none" id="ActionRight-to-RoleType" style="stroke:#000000;stroke-width:1.0;stroke-dasharray:7.0,7.0;"/><polygon fill="#000000" points="274.53,584.1947,282.1571,577.9635,276.7836,579.7313,275.0157,574.3578,274.53,584.1947" style="stroke:#000000;stroke-width:1.0;"/></g><!--link Session to SystemUser--><g id="link_Session_SystemUser"><path codeLine="44" d="M209.91,193.9947 C220.37,210.7847 232.2514,229.8496 243.7314,248.3096 " fill="none" id="Session-to-SystemUser" style="stroke:#000000;stroke-width:1.0;"/><polygon fill="#000000" points="246.9,253.4047,245.5439,243.6496,244.2595,249.1588,238.7504,247.8744,246.9,253.4047" style="stroke:#000000;stroke-width:1.0;"/></g><!--link SystemUser to Username--><g id="link_SystemUser_Username"><path codeLine="45" d="M313.44,308.5447 C351.68,328.8347 398.3297,353.5828 433.2197,372.0928 " fill="none" id="SystemUser-to-Username" style="stroke:#000000;stroke-width:1.0;"/><polygon fill="#000000" points="438.52,374.9047,432.4442,367.1533,434.1031,372.5614,428.6949,374.2203,438.52,374.9047" style="stroke:#000000;stroke-width:1.0;"/></g><!--link SystemUser to Password--><g id="link_SystemUser_Password"><path codeLine="46" d="M213.63,307.5547 C172.51,328.5847 120.5022,355.1732 83.7722,373.9532 " fill="none" id="SystemUser-to-Password" style="stroke:#000000;stroke-width:1.0;"/><polygon fill="#000000" points="78.43,376.6847,88.2643,376.149,82.8818,374.4085,84.6223,369.026,78.43,376.6847" style="stroke:#000000;stroke-width:1.0;"/></g><!--link SystemUser to Name--><g id="link_SystemUser_Name"><path codeLine="47" d="M291.46,308.8347 C312.73,329.1947 337.1771,352.6042 356.4171,371.0342 " fill="none" id="SystemUser-to-Name" style="stroke:#000000;stroke-width:1.0;"/><polygon fill="#000000" points="360.75,375.1847,357.0177,366.0704,357.1393,371.726,351.4837,371.8476,360.75,375.1847" style="stroke:#000000;stroke-width:1.0;"/></g><!--link SystemUser to Email--><g id="link_SystemUser_Email"><path codeLine="48" d="M233.17,308.8347 C209.95,329.3247 182.9785,353.1443 162.1085,371.5643 " fill="none" id="SystemUser-to-Email" style="stroke:#000000;stroke-width:1.0;"/><polygon fill="#000000" points="157.61,375.5347,167.0046,372.5781,161.3587,372.226,161.7108,366.5802,157.61,375.5347" style="stroke:#000000;stroke-width:1.0;"/></g><!--link SystemUser to RoleList--><g id="link_SystemUser_RoleList"><path codeLine="49" d="M253.78,308.8347 C246.4,329.1947 238.4346,351.1138 231.7546,369.5438 " fill="none" id="SystemUser-to-RoleList" style="stroke:#000000;stroke-width:1.0;"/><polygon fill="#000000" points="229.71,375.1847,236.5374,368.0864,231.4138,370.4839,229.0162,365.3603,229.71,375.1847" style="stroke:#000000;stroke-width:1.0;"/></g><!--link Role to RoleType--><g id="link_Role_RoleType"><path codeLine="50" d="M224.38,524.6147 C233.09,541.8547 243.0157,561.5087 251.7657,578.8387 " fill="none" id="Role-to-RoleType" style="stroke:#000000;stroke-width:1.0;"/><polygon fill="#000000" points="254.47,584.1947,253.9843,574.3578,252.2164,579.7313,246.8429,577.9635,254.47,584.1947" style="stroke:#000000;stroke-width:1.0;"/></g><!--link RoleList to Role--><g id="link_RoleList_Role"><path codeLine="51" d="M220.0907,428.9602 C218.6507,447.9102 217.8822,458.3018 216.4522,477.2218 " fill="none" id="RoleList-Role" style="stroke:#000000;stroke-width:1.0;"/><polygon fill="#000000" points="221,416.9947,216.5569,422.6744,220.0907,428.9602,224.5339,423.2805,221,416.9947" style="stroke:#000000;stroke-width:1.0;"/><polygon fill="#000000" points="216,483.2047,220.6669,474.5318,216.3768,478.2189,212.6897,473.9288,216,483.2047" style="stroke:#000000;stroke-width:1.0;"/></g><!--SRC=[VLBBJiCm4BpxAtn6QaaH9nH5QWgSgWerz0ECipXMdRYoDwqAuj-n7UA64Eg3vSpiOtOdA541JQtyW8Ux95ifPYrzb4mOLjCPtOAG5i7GdNNNZEvMT94aoNoHtlgKZ91Aba1hm4gNjllWqd05tPiX6ldM8bXYzx8vC5_smFYU2IZmx5eRu4W690yAFWbr9tU1mkYsALTQQKFNKbIOgnO2kpH6dpeYLowoIz6c13D6dtM3KrZXPg2BU_8r4610CPIwiPKy_EYOx1J0gSAHk5GdtLJB5YjeKFBGe01pbDmjFxNTAyj-uWgmrWKuviZSj17t9ZIiXWkHfhACz8kxJcx-Ftd5sNbO1mlJb0bXG31qgzSQVGal2SynUlEhmw1rtafLXXhlZACsbvIdcaarJjbg1Mltzz0fOX9yFHyy0KrRHtp9_QwstlaBvSxqBkVphD_UbOX-ZrT2-bsIuU2XUjmb6QpLCmEbPAZQS_rqXFJUpcR_rV9CL3Z2ewmHlfc83QQCmTuK4apeaI0j-dNJmoISRm00]--></g></svg>