<?xml version="1.0" encoding="us-ascii" standalone="no"?><svg xmlns="http://www.w3.org/2000/svg" xmlns:xlink="http://www.w3.org/1999/xlink" contentStyleType="text/css" height="667px" preserveAspectRatio="none" style="width:641px;height:667px;background:#FFFFFF;" version="1.1" viewBox="0 0 641 667" width="641px" zoomAndPan="magnify"><defs/><g><text fill="#000000" font-family="FG Virgil" font-size="20" font-weight="bold" lengthAdjust="spacing" textLength="437" x="104.25" y="34.3359">Sequence Diagram - Activate - UC 1000.3</text><rect fill="#FFFFFF" height="410.7031" style="stroke:#181818;stroke-width:1.0;" width="10" x="40.5" y="157.3535"/><rect fill="#FFFFFF" height="410.7031" style="stroke:#181818;stroke-width:1.0;" width="10" x="228.5" y="157.3535"/><rect fill="#FFFFFF" height="87.9316" style="stroke:#181818;stroke-width:1.0;" width="10" x="407.5" y="244.6406"/><rect fill="#FFFFFF" height="64.6211" style="stroke:#181818;stroke-width:1.0;" width="10" x="407.5" y="467.125"/><rect fill="#FFFFFF" height="29.3105" style="stroke:#181818;stroke-width:1.0;" width="10" x="554.5" y="273.9512"/><rect fill="#FFFFFF" height="71.6211" style="stroke:#181818;stroke-width:1.0;" width="10" x="554.5" y="496.4355"/><rect fill="none" height="91.2422" style="stroke:#000000;stroke-width:1.5;" width="292" x="10" y="347.5723"/><line style="stroke:#181818;stroke-width:0.5;stroke-dasharray:5.0,5.0;" x1="45" x2="45" y1="126.043" y2="586.0566"/><line style="stroke:#181818;stroke-width:0.5;stroke-dasharray:5.0,5.0;" x1="233" x2="233" y1="126.043" y2="586.0566"/><line style="stroke:#181818;stroke-width:0.5;stroke-dasharray:5.0,5.0;" x1="412.5" x2="412.5" y1="204.3418" y2="586.0566"/><line style="stroke:#181818;stroke-width:0.5;stroke-dasharray:5.0,5.0;" x1="559.5" x2="559.5" y1="126.043" y2="586.0566"/><text fill="#000000" font-family="FG Virgil" font-size="14" lengthAdjust="spacing" textLength="45" x="20" y="123.0898">Admin</text><ellipse cx="45.5" cy="58.0547" fill="#ADD8E6" rx="8" ry="8" style="stroke:#181818;stroke-width:0.5;"/><path d="M45.5,66.0547 L45.5,93.0547 M32.5,74.0547 L58.5,74.0547 M45.5,93.0547 L32.5,108.0547 M45.5,93.0547 L58.5,108.0547 " fill="none" style="stroke:#181818;stroke-width:0.5;"/><text fill="#000000" font-family="FG Virgil" font-size="14" lengthAdjust="spacing" textLength="45" x="20" y="598.5918">Admin</text><ellipse cx="45.5" cy="610.0449" fill="#ADD8E6" rx="8" ry="8" style="stroke:#181818;stroke-width:0.5;"/><path d="M45.5,618.0449 L45.5,645.0449 M32.5,626.0449 L58.5,626.0449 M45.5,645.0449 L32.5,660.0449 M45.5,645.0449 L58.5,660.0449 " fill="none" style="stroke:#181818;stroke-width:0.5;"/><rect fill="#E2E2F0" height="46.9766" rx="2.5" ry="2.5" style="stroke:#181818;stroke-width:0.5;" width="117" x="175" y="78.0664"/><text fill="#000000" font-family="FG Virgil" font-size="14" font-style="italic" lengthAdjust="spacing" textLength="101" x="183" y="98.6016">&#171;presentation&#187;</text><text fill="#000000" font-family="FG Virgil" font-size="14" lengthAdjust="spacing" textLength="103" x="182" y="115.0898">:ActivateUserUI</text><rect fill="#E2E2F0" height="46.9766" rx="2.5" ry="2.5" style="stroke:#181818;stroke-width:0.5;" width="117" x="175" y="585.0566"/><text fill="#000000" font-family="FG Virgil" font-size="14" font-style="italic" lengthAdjust="spacing" textLength="101" x="183" y="605.5918">&#171;presentation&#187;</text><text fill="#000000" font-family="FG Virgil" font-size="14" lengthAdjust="spacing" textLength="103" x="182" y="622.0801">:ActivateUserUI</text><rect fill="#E2E2F0" height="46.9766" rx="2.5" ry="2.5" style="stroke:#181818;stroke-width:0.5;" width="142" x="341.5" y="585.0566"/><text fill="#000000" font-family="FG Virgil" font-size="14" font-style="italic" lengthAdjust="spacing" textLength="90" x="367.5" y="605.5918">&#171;application&#187;</text><text fill="#000000" font-family="FG Virgil" font-size="14" lengthAdjust="spacing" textLength="128" x="348.5" y="622.0801">:ActivateController</text><rect fill="#E2E2F0" height="46.9766" rx="2.5" ry="2.5" style="stroke:#181818;stroke-width:0.5;" width="122" x="498.5" y="78.0664"/><text fill="#000000" font-family="FG Virgil" font-size="14" font-style="italic" lengthAdjust="spacing" textLength="84" x="517.5" y="98.6016">&#171;repository&#187;</text><text fill="#000000" font-family="FG Virgil" font-size="14" lengthAdjust="spacing" textLength="108" x="505.5" y="115.0898">:UserRepository</text><rect fill="#E2E2F0" height="46.9766" rx="2.5" ry="2.5" style="stroke:#181818;stroke-width:0.5;" width="122" x="498.5" y="585.0566"/><text fill="#000000" font-family="FG Virgil" font-size="14" font-style="italic" lengthAdjust="spacing" textLength="84" x="517.5" y="605.5918">&#171;repository&#187;</text><text fill="#000000" font-family="FG Virgil" font-size="14" lengthAdjust="spacing" textLength="108" x="505.5" y="622.0801">:UserRepository</text><rect fill="#FFFFFF" height="410.7031" style="stroke:#181818;stroke-width:1.0;" width="10" x="40.5" y="157.3535"/><rect fill="#FFFFFF" height="410.7031" style="stroke:#181818;stroke-width:1.0;" width="10" x="228.5" y="157.3535"/><rect fill="#FFFFFF" height="87.9316" style="stroke:#181818;stroke-width:1.0;" width="10" x="407.5" y="244.6406"/><rect fill="#FFFFFF" height="64.6211" style="stroke:#181818;stroke-width:1.0;" width="10" x="407.5" y="467.125"/><rect fill="#FFFFFF" height="29.3105" style="stroke:#181818;stroke-width:1.0;" width="10" x="554.5" y="273.9512"/><rect fill="#FFFFFF" height="71.6211" style="stroke:#181818;stroke-width:1.0;" width="10" x="554.5" y="496.4355"/><polygon fill="#181818" points="216.5,153.3535,226.5,157.3535,216.5,161.3535,220.5,157.3535" style="stroke:#181818;stroke-width:1.0;"/><line style="stroke:#181818;stroke-width:1.0;" x1="50.5" x2="222.5" y1="157.3535" y2="157.3535"/><text fill="#000000" font-family="FG Virgil" font-size="13" lengthAdjust="spacing" textLength="83" x="57.5" y="152.6113">List All Users</text><polygon fill="#181818" points="329.5,182.6641,339.5,186.6641,329.5,190.6641,333.5,186.6641" style="stroke:#181818;stroke-width:1.0;"/><line style="stroke:#181818;stroke-width:1.0;" x1="238.5" x2="335.5" y1="186.6641" y2="186.6641"/><text fill="#000000" font-family="FG Virgil" font-size="13" lengthAdjust="spacing" textLength="38" x="245.5" y="181.9219">create</text><rect fill="#E2E2F0" height="46.9766" rx="2.5" ry="2.5" style="stroke:#181818;stroke-width:0.5;" width="142" x="341.5" y="165.3535"/><text fill="#000000" font-family="FG Virgil" font-size="14" font-style="italic" lengthAdjust="spacing" textLength="90" x="367.5" y="185.8887">&#171;application&#187;</text><text fill="#000000" font-family="FG Virgil" font-size="14" lengthAdjust="spacing" textLength="128" x="348.5" y="202.377">:ActivateController</text><polygon fill="#181818" points="395.5,240.6406,405.5,244.6406,395.5,248.6406,399.5,244.6406" style="stroke:#181818;stroke-width:1.0;"/><line style="stroke:#181818;stroke-width:1.0;" x1="238.5" x2="401.5" y1="244.6406" y2="244.6406"/><text fill="#000000" font-family="FG Virgil" font-size="13" lengthAdjust="spacing" textLength="115" x="245.5" y="239.8984">deactivatedUsers()</text><polygon fill="#181818" points="542.5,269.9512,552.5,273.9512,542.5,277.9512,546.5,273.9512" style="stroke:#181818;stroke-width:1.0;"/><line style="stroke:#181818;stroke-width:1.0;" x1="417.5" x2="548.5" y1="273.9512" y2="273.9512"/><text fill="#000000" font-family="FG Virgil" font-size="13" lengthAdjust="spacing" textLength="116" x="424.5" y="269.209">findByActive(false)</text><polygon fill="#181818" points="428.5,299.2617,418.5,303.2617,428.5,307.2617,424.5,303.2617" style="stroke:#181818;stroke-width:1.0;"/><line style="stroke:#181818;stroke-width:1.0;stroke-dasharray:2.0,2.0;" x1="422.5" x2="558.5" y1="303.2617" y2="303.2617"/><text fill="#000000" font-family="FG Virgil" font-size="13" lengthAdjust="spacing" textLength="113" x="434.5" y="298.5195">Deactivated Users</text><polygon fill="#181818" points="249.5,328.5723,239.5,332.5723,249.5,336.5723,245.5,332.5723" style="stroke:#181818;stroke-width:1.0;"/><line style="stroke:#181818;stroke-width:1.0;stroke-dasharray:2.0,2.0;" x1="243.5" x2="411.5" y1="332.5723" y2="332.5723"/><text fill="#000000" font-family="FG Virgil" font-size="13" lengthAdjust="spacing" textLength="113" x="255.5" y="327.8301">Deactivated Users</text><path d="M10,347.5723 L84,347.5723 L84,354.8828 L74,364.8828 L10,364.8828 L10,347.5723 " fill="#EEEEEE" style="stroke:#000000;stroke-width:1.5;"/><rect fill="none" height="91.2422" style="stroke:#000000;stroke-width:1.5;" width="292" x="10" y="347.5723"/><text fill="#000000" font-family="FG Virgil" font-size="13" font-weight="bold" lengthAdjust="spacing" textLength="29" x="25" y="361.1406">loop</text><text fill="#000000" font-family="FG Virgil" font-size="11" font-weight="bold" lengthAdjust="spacing" textLength="71" x="99" y="360.207">[option != 0]</text><polygon fill="#181818" points="61.5,397.5039,51.5,401.5039,61.5,405.5039,57.5,401.5039" style="stroke:#181818;stroke-width:1.0;"/><line style="stroke:#181818;stroke-width:1.0;" x1="55.5" x2="227.5" y1="401.5039" y2="401.5039"/><text fill="#000000" font-family="FG Virgil" font-size="13" lengthAdjust="spacing" textLength="60" x="67.5" y="381.4512">Show List</text><text fill="#000000" font-family="FG Virgil" font-size="13" lengthAdjust="spacing" textLength="130" x="67.5" y="396.7617">of Deactivated Users</text><polygon fill="#181818" points="216.5,426.8145,226.5,430.8145,216.5,434.8145,220.5,430.8145" style="stroke:#181818;stroke-width:1.0;"/><line style="stroke:#181818;stroke-width:1.0;stroke-dasharray:2.0,2.0;" x1="50.5" x2="222.5" y1="430.8145" y2="430.8145"/><text fill="#000000" font-family="FG Virgil" font-size="13" lengthAdjust="spacing" textLength="154" x="57.5" y="426.0723">Enters option to activate</text><polygon fill="#181818" points="395.5,463.125,405.5,467.125,395.5,471.125,399.5,467.125" style="stroke:#181818;stroke-width:1.0;"/><line style="stroke:#181818;stroke-width:1.0;" x1="238.5" x2="401.5" y1="467.125" y2="467.125"/><text fill="#000000" font-family="FG Virgil" font-size="13" lengthAdjust="spacing" textLength="150" x="245.5" y="462.3828">activateUser(option - 1)</text><polygon fill="#181818" points="542.5,492.4355,552.5,496.4355,542.5,500.4355,546.5,496.4355" style="stroke:#181818;stroke-width:1.0;"/><line style="stroke:#181818;stroke-width:1.0;" x1="417.5" x2="548.5" y1="496.4355" y2="496.4355"/><text fill="#000000" font-family="FG Virgil" font-size="13" lengthAdjust="spacing" textLength="112" x="424.5" y="491.6934">activateUser(user)</text><line style="stroke:#181818;stroke-width:1.0;stroke-dasharray:2.0,2.0;" x1="564.5" x2="606.5" y1="530.7461" y2="530.7461"/><line style="stroke:#181818;stroke-width:1.0;stroke-dasharray:2.0,2.0;" x1="606.5" x2="606.5" y1="530.7461" y2="543.7461"/><line style="stroke:#181818;stroke-width:1.0;stroke-dasharray:2.0,2.0;" x1="559.5" x2="606.5" y1="543.7461" y2="543.7461"/><polygon fill="#181818" points="569.5,539.7461,559.5,543.7461,569.5,547.7461,565.5,543.7461" style="stroke:#181818;stroke-width:1.0;"/><text fill="#000000" font-family="FG Virgil" font-size="13" lengthAdjust="spacing" textLength="63" x="571.5" y="526.0039">save(user)</text><polygon fill="#181818" points="56.5,564.0566,46.5,568.0566,56.5,572.0566,52.5,568.0566" style="stroke:#181818;stroke-width:1.0;"/><line style="stroke:#181818;stroke-width:1.0;stroke-dasharray:2.0,2.0;" x1="50.5" x2="232.5" y1="568.0566" y2="568.0566"/><text fill="#000000" font-family="FG Virgil" font-size="13" lengthAdjust="spacing" textLength="87" x="62.5" y="563.3145">shows sucess</text><!--SRC=[VL91Rjim4Bpp5TlqOWTGghGtmHNW94rXeEYXXdhgXQNMCX6QL4cgWVlwBcbPP08hEXXUScPsTeTUUeMmSl8VLX_BUej_1jG2uK7opl835B0MNlxb7kblSm-tPLdUV5fz28IQCVSaTSy3y62q4Njh3WWxhXncLpqNJxp3hJzIAul2PtSjxlYW_AFH_ZidxkDN-2bj9rM6SNlUccUfkr6PSU6DXNLxa1gu2mwfVAzaj_U_rO2CQ5uAsNFjuQew3z0ujCtcAZ2Q3QnMlKM7sdClZQxh6T8z6RD6ARIHc4eIu7slfBZC3yr-O6-S96_7o4qbSUrK49MT9YXgCbR1D-ayh9M2eE72iAVzHn1BTRDXG1_DGiHaxFgw0c6H48nT15IqzBD86tiibX4uAITiF0zVDZY9fL4gs4dTtXtZld0H0rgEZIUz18_dgIoAElVra7oDmmTuSfiBiSdQQtlZ6Y-BvMhPcASxPKmFfW-1mhlFKBveCUunfb31Tc-UOrA_jDdDzJf_OxoZiI_Q4-BSnvjfJuc4kftBZcUlUJ5g572xPBCHiZVpUw4tqCzoDhjNuSM1CYN7wG6S51XxOzKiBPGKndqwsgS3DmXqZbrEF3kbfvzLKU8_]--></g></svg>