<?xml version="1.0" encoding="us-ascii" standalone="no"?><svg xmlns="http://www.w3.org/2000/svg" xmlns:xlink="http://www.w3.org/1999/xlink" contentStyleType="text/css" height="1119px" preserveAspectRatio="none" style="width:912px;height:1119px;background:#FFFFFF;" version="1.1" viewBox="0 0 912 1119" width="912px" zoomAndPan="magnify"><defs/><g><text fill="#000000" font-family="FG Virgil" font-size="20" font-weight="bold" lengthAdjust="spacing" textLength="492" x="209.25" y="34.3359">Sequence Diagram - Register User - UC 1000.1</text><rect fill="#FFFFFF" height="863.2695" style="stroke:#181818;stroke-width:1.0;" width="10" x="40.5" y="157.3535"/><rect fill="#FFFFFF" height="863.2695" style="stroke:#181818;stroke-width:1.0;" width="10" x="207.5" y="157.3535"/><rect fill="#FFFFFF" height="506.2559" style="stroke:#181818;stroke-width:1.0;" width="10" x="370.5" y="485.0566"/><rect fill="#FFFFFF" height="118.5527" style="stroke:#181818;stroke-width:1.0;" width="10" x="560.5" y="814.1387"/><rect fill="none" height="91.2422" style="stroke:#000000;stroke-width:1.5;" width="270" x="10" y="319.5723"/><line style="stroke:#181818;stroke-width:0.5;stroke-dasharray:5.0,5.0;" x1="45" x2="45" y1="126.043" y2="1038.623"/><line style="stroke:#181818;stroke-width:0.5;stroke-dasharray:5.0,5.0;" x1="212" x2="212" y1="126.043" y2="1038.623"/><line style="stroke:#181818;stroke-width:0.5;stroke-dasharray:5.0,5.0;" x1="375" x2="375" y1="204.3418" y2="1038.623"/><line style="stroke:#181818;stroke-width:0.5;stroke-dasharray:5.0,5.0;" x1="565" x2="565" y1="597.9766" y2="1038.623"/><line style="stroke:#181818;stroke-width:0.5;stroke-dasharray:5.0,5.0;" x1="734.5" x2="734.5" y1="126.043" y2="1038.623"/><line style="stroke:#181818;stroke-width:0.5;stroke-dasharray:5.0,5.0;" x1="845.5" x2="845.5" y1="126.043" y2="1038.623"/><text fill="#000000" font-family="FG Virgil" font-size="14" lengthAdjust="spacing" textLength="45" x="20" y="123.0898">Admin</text><ellipse cx="45.5" cy="58.0547" fill="#ADD8E6" rx="8" ry="8" style="stroke:#181818;stroke-width:0.5;"/><path d="M45.5,66.0547 L45.5,93.0547 M32.5,74.0547 L58.5,74.0547 M45.5,93.0547 L32.5,108.0547 M45.5,93.0547 L58.5,108.0547 " fill="none" style="stroke:#181818;stroke-width:0.5;"/><text fill="#000000" font-family="FG Virgil" font-size="14" lengthAdjust="spacing" textLength="45" x="20" y="1051.1582">Admin</text><ellipse cx="45.5" cy="1062.6113" fill="#ADD8E6" rx="8" ry="8" style="stroke:#181818;stroke-width:0.5;"/><path d="M45.5,1070.6113 L45.5,1097.6113 M32.5,1078.6113 L58.5,1078.6113 M45.5,1097.6113 L32.5,1112.6113 M45.5,1097.6113 L58.5,1112.6113 " fill="none" style="stroke:#181818;stroke-width:0.5;"/><rect fill="#E2E2F0" height="46.9766" rx="2.5" ry="2.5" style="stroke:#181818;stroke-width:0.5;" width="115" x="155" y="78.0664"/><text fill="#000000" font-family="FG Virgil" font-size="14" font-style="italic" lengthAdjust="spacing" textLength="101" x="162" y="98.6016">&#171;presentation&#187;</text><text fill="#000000" font-family="FG Virgil" font-size="14" lengthAdjust="spacing" textLength="77" x="174" y="115.0898">:AddUserUI</text><rect fill="#E2E2F0" height="46.9766" rx="2.5" ry="2.5" style="stroke:#181818;stroke-width:0.5;" width="115" x="155" y="1037.623"/><text fill="#000000" font-family="FG Virgil" font-size="14" font-style="italic" lengthAdjust="spacing" textLength="101" x="162" y="1058.1582">&#171;presentation&#187;</text><text fill="#000000" font-family="FG Virgil" font-size="14" lengthAdjust="spacing" textLength="77" x="174" y="1074.6465">:AddUserUI</text><rect fill="#E2E2F0" height="46.9766" rx="2.5" ry="2.5" style="stroke:#181818;stroke-width:0.5;" width="147" x="302" y="1037.623"/><text fill="#000000" font-family="FG Virgil" font-size="14" font-style="italic" lengthAdjust="spacing" textLength="90" x="330.5" y="1058.1582">&#171;application&#187;</text><text fill="#000000" font-family="FG Virgil" font-size="14" lengthAdjust="spacing" textLength="133" x="309" y="1074.6465">:AddUserController</text><rect fill="#E2E2F0" height="46.9766" rx="2.5" ry="2.5" style="stroke:#181818;stroke-width:0.5;" width="97" x="517" y="1037.623"/><text fill="#000000" font-family="FG Virgil" font-size="14" font-style="italic" lengthAdjust="spacing" textLength="63" x="534" y="1058.1582">&#171;builder&#187;</text><text fill="#000000" font-family="FG Virgil" font-size="14" lengthAdjust="spacing" textLength="83" x="524" y="1074.6465">:UserBuilder</text><rect fill="#E2E2F0" height="46.9766" rx="2.5" ry="2.5" style="stroke:#181818;stroke-width:0.5;" width="80" x="694.5" y="78.0664"/><text fill="#000000" font-family="FG Virgil" font-size="14" font-style="italic" lengthAdjust="spacing" textLength="66" x="701.5" y="98.6016">&#171;domain&#187;</text><text fill="#000000" font-family="FG Virgil" font-size="14" lengthAdjust="spacing" textLength="65" x="702" y="115.0898">user:User</text><rect fill="#E2E2F0" height="46.9766" rx="2.5" ry="2.5" style="stroke:#181818;stroke-width:0.5;" width="80" x="694.5" y="1037.623"/><text fill="#000000" font-family="FG Virgil" font-size="14" font-style="italic" lengthAdjust="spacing" textLength="66" x="701.5" y="1058.1582">&#171;domain&#187;</text><text fill="#000000" font-family="FG Virgil" font-size="14" lengthAdjust="spacing" textLength="65" x="702" y="1074.6465">user:User</text><rect fill="#E2E2F0" height="46.9766" rx="2.5" ry="2.5" style="stroke:#181818;stroke-width:0.5;" width="122" x="784.5" y="78.0664"/><text fill="#000000" font-family="FG Virgil" font-size="14" font-style="italic" lengthAdjust="spacing" textLength="84" x="803.5" y="98.6016">&#171;repository&#187;</text><text fill="#000000" font-family="FG Virgil" font-size="14" lengthAdjust="spacing" textLength="108" x="791.5" y="115.0898">:UserRepository</text><rect fill="#E2E2F0" height="46.9766" rx="2.5" ry="2.5" style="stroke:#181818;stroke-width:0.5;" width="122" x="784.5" y="1037.623"/><text fill="#000000" font-family="FG Virgil" font-size="14" font-style="italic" lengthAdjust="spacing" textLength="84" x="803.5" y="1058.1582">&#171;repository&#187;</text><text fill="#000000" font-family="FG Virgil" font-size="14" lengthAdjust="spacing" textLength="108" x="791.5" y="1074.6465">:UserRepository</text><rect fill="#FFFFFF" height="863.2695" style="stroke:#181818;stroke-width:1.0;" width="10" x="40.5" y="157.3535"/><rect fill="#FFFFFF" height="863.2695" style="stroke:#181818;stroke-width:1.0;" width="10" x="207.5" y="157.3535"/><rect fill="#FFFFFF" height="506.2559" style="stroke:#181818;stroke-width:1.0;" width="10" x="370.5" y="485.0566"/><rect fill="#FFFFFF" height="118.5527" style="stroke:#181818;stroke-width:1.0;" width="10" x="560.5" y="814.1387"/><polygon fill="#181818" points="195.5,153.3535,205.5,157.3535,195.5,161.3535,199.5,157.3535" style="stroke:#181818;stroke-width:1.0;"/><line style="stroke:#181818;stroke-width:1.0;" x1="50.5" x2="201.5" y1="157.3535" y2="157.3535"/><text fill="#000000" font-family="FG Virgil" font-size="13" lengthAdjust="spacing" textLength="57" x="57.5" y="152.6113">Add User</text><polygon fill="#181818" points="290,182.6641,300,186.6641,290,190.6641,294,186.6641" style="stroke:#181818;stroke-width:1.0;"/><line style="stroke:#181818;stroke-width:1.0;" x1="217.5" x2="296" y1="186.6641" y2="186.6641"/><text fill="#000000" font-family="FG Virgil" font-size="13" lengthAdjust="spacing" textLength="38" x="224.5" y="181.9219">create</text><rect fill="#E2E2F0" height="46.9766" rx="2.5" ry="2.5" style="stroke:#181818;stroke-width:0.5;" width="147" x="302" y="165.3535"/><text fill="#000000" font-family="FG Virgil" font-size="14" font-style="italic" lengthAdjust="spacing" textLength="90" x="330.5" y="185.8887">&#171;application&#187;</text><text fill="#000000" font-family="FG Virgil" font-size="14" lengthAdjust="spacing" textLength="133" x="309" y="202.377">:AddUserController</text><polygon fill="#181818" points="61.5,240.6406,51.5,244.6406,61.5,248.6406,57.5,244.6406" style="stroke:#181818;stroke-width:1.0;"/><line style="stroke:#181818;stroke-width:1.0;stroke-dasharray:2.0,2.0;" x1="55.5" x2="206.5" y1="244.6406" y2="244.6406"/><text fill="#000000" font-family="FG Virgil" font-size="13" lengthAdjust="spacing" textLength="133" x="67.5" y="239.8984">Ask user information</text><polygon fill="#181818" points="195.5,300.5723,205.5,304.5723,195.5,308.5723,199.5,304.5723" style="stroke:#181818;stroke-width:1.0;"/><line style="stroke:#181818;stroke-width:1.0;" x1="50.5" x2="201.5" y1="304.5723" y2="304.5723"/><text fill="#000000" font-family="FG Virgil" font-size="13" lengthAdjust="spacing" textLength="63" x="57.5" y="269.209">Password,</text><text fill="#000000" font-family="FG Virgil" font-size="13" lengthAdjust="spacing" textLength="72" x="57.5" y="284.5195">First Name,</text><text fill="#000000" font-family="FG Virgil" font-size="13" lengthAdjust="spacing" textLength="115" x="57.5" y="299.8301">Last Name, E-Mail</text><path d="M10,319.5723 L84,319.5723 L84,326.8828 L74,336.8828 L10,336.8828 L10,319.5723 " fill="#EEEEEE" style="stroke:#000000;stroke-width:1.5;"/><rect fill="none" height="91.2422" style="stroke:#000000;stroke-width:1.5;" width="270" x="10" y="319.5723"/><text fill="#000000" font-family="FG Virgil" font-size="13" font-weight="bold" lengthAdjust="spacing" textLength="29" x="25" y="333.1406">loop</text><text fill="#000000" font-family="FG Virgil" font-size="11" font-weight="bold" lengthAdjust="spacing" textLength="71" x="99" y="332.207">[option != 0]</text><polygon fill="#181818" points="61.5,369.5039,51.5,373.5039,61.5,377.5039,57.5,373.5039" style="stroke:#181818;stroke-width:1.0;"/><line style="stroke:#181818;stroke-width:1.0;" x1="55.5" x2="206.5" y1="373.5039" y2="373.5039"/><text fill="#000000" font-family="FG Virgil" font-size="13" lengthAdjust="spacing" textLength="60" x="67.5" y="353.4512">Show List</text><text fill="#000000" font-family="FG Virgil" font-size="13" lengthAdjust="spacing" textLength="85" x="67.5" y="368.7617">of Role Types</text><polygon fill="#181818" points="195.5,398.8145,205.5,402.8145,195.5,406.8145,199.5,402.8145" style="stroke:#181818;stroke-width:1.0;"/><line style="stroke:#181818;stroke-width:1.0;stroke-dasharray:2.0,2.0;" x1="50.5" x2="201.5" y1="402.8145" y2="402.8145"/><text fill="#000000" font-family="FG Virgil" font-size="13" lengthAdjust="spacing" textLength="61" x="57.5" y="398.0723">Role Type</text><polygon fill="#181818" points="358.5,481.0566,368.5,485.0566,358.5,489.0566,362.5,485.0566" style="stroke:#181818;stroke-width:1.0;"/><line style="stroke:#181818;stroke-width:1.0;" x1="217.5" x2="364.5" y1="485.0566" y2="485.0566"/><text fill="#000000" font-family="FG Virgil" font-size="13" lengthAdjust="spacing" textLength="120" x="224.5" y="434.3828">addUser(username,</text><text fill="#000000" font-family="FG Virgil" font-size="13" lengthAdjust="spacing" textLength="134" x="224.5" y="449.6934">password, firstName,</text><text fill="#000000" font-family="FG Virgil" font-size="13" lengthAdjust="spacing" textLength="105" x="224.5" y="465.0039">lastName, email,</text><text fill="#000000" font-family="FG Virgil" font-size="13" lengthAdjust="spacing" textLength="35" x="224.5" y="480.3145">roles)</text><path d="M337,498.0566 L337,553.0566 L560,553.0566 L560,508.0566 L550,498.0566 L337,498.0566 " fill="#FEFFDD" style="stroke:#181818;stroke-width:0.5;"/><path d="M550,498.0566 L550,508.0566 L560,508.0566 L550,498.0566 " fill="#FEFFDD" style="stroke:#181818;stroke-width:0.5;"/><text fill="#000000" font-family="FG Virgil" font-size="13" lengthAdjust="spacing" textLength="187" x="343" y="515.625">UserBuilder &#233; usado para criar</text><text fill="#000000" font-family="FG Virgil" font-size="13" lengthAdjust="spacing" textLength="198" x="343" y="530.9355">uma entidade do tipo User num</text><text fill="#000000" font-family="FG Virgil" font-size="13" lengthAdjust="spacing" textLength="84" x="343" y="546.2461">estado v&#225;lido</text><polygon fill="#181818" points="505,576.2988,515,580.2988,505,584.2988,509,580.2988" style="stroke:#181818;stroke-width:1.0;"/><line style="stroke:#181818;stroke-width:1.0;" x1="380.5" x2="511" y1="580.2988" y2="580.2988"/><text fill="#000000" font-family="FG Virgil" font-size="13" lengthAdjust="spacing" textLength="38" x="387.5" y="575.5566">create</text><rect fill="#E2E2F0" height="46.9766" rx="2.5" ry="2.5" style="stroke:#181818;stroke-width:0.5;" width="97" x="517" y="558.9883"/><text fill="#000000" font-family="FG Virgil" font-size="14" font-style="italic" lengthAdjust="spacing" textLength="63" x="534" y="579.5234">&#171;builder&#187;</text><text fill="#000000" font-family="FG Virgil" font-size="14" lengthAdjust="spacing" textLength="83" x="524" y="596.0117">:UserBuilder</text><polygon fill="#181818" points="553.5,634.2754,563.5,638.2754,553.5,642.2754,557.5,638.2754" style="stroke:#181818;stroke-width:1.0;"/><line style="stroke:#181818;stroke-width:1.0;" x1="380.5" x2="559.5" y1="638.2754" y2="638.2754"/><text fill="#000000" font-family="FG Virgil" font-size="13" lengthAdjust="spacing" textLength="158" x="387.5" y="633.5332">withUsername(username)</text><polygon fill="#181818" points="553.5,663.5859,563.5,667.5859,553.5,671.5859,557.5,667.5859" style="stroke:#181818;stroke-width:1.0;"/><line style="stroke:#181818;stroke-width:1.0;" x1="380.5" x2="559.5" y1="667.5859" y2="667.5859"/><text fill="#000000" font-family="FG Virgil" font-size="13" lengthAdjust="spacing" textLength="154" x="387.5" y="662.8438">withPassword(password)</text><polygon fill="#181818" points="553.5,692.8965,563.5,696.8965,553.5,700.8965,557.5,696.8965" style="stroke:#181818;stroke-width:1.0;"/><line style="stroke:#181818;stroke-width:1.0;" x1="380.5" x2="559.5" y1="696.8965" y2="696.8965"/><text fill="#000000" font-family="FG Virgil" font-size="13" lengthAdjust="spacing" textLength="161" x="387.5" y="692.1543">withFirstName(firstName)</text><polygon fill="#181818" points="553.5,722.207,563.5,726.207,553.5,730.207,557.5,726.207" style="stroke:#181818;stroke-width:1.0;"/><line style="stroke:#181818;stroke-width:1.0;" x1="380.5" x2="559.5" y1="726.207" y2="726.207"/><text fill="#000000" font-family="FG Virgil" font-size="13" lengthAdjust="spacing" textLength="156" x="387.5" y="721.4648">withLastName(lastName)</text><polygon fill="#181818" points="553.5,751.5176,563.5,755.5176,553.5,759.5176,557.5,755.5176" style="stroke:#181818;stroke-width:1.0;"/><line style="stroke:#181818;stroke-width:1.0;" x1="380.5" x2="559.5" y1="755.5176" y2="755.5176"/><text fill="#000000" font-family="FG Virgil" font-size="13" lengthAdjust="spacing" textLength="103" x="387.5" y="750.7754">withEmail(email)</text><polygon fill="#181818" points="553.5,780.8281,563.5,784.8281,553.5,788.8281,557.5,784.8281" style="stroke:#181818;stroke-width:1.0;"/><line style="stroke:#181818;stroke-width:1.0;" x1="380.5" x2="559.5" y1="784.8281" y2="784.8281"/><text fill="#000000" font-family="FG Virgil" font-size="13" lengthAdjust="spacing" textLength="100" x="387.5" y="780.0859">withRoles(roles)</text><polygon fill="#181818" points="548.5,810.1387,558.5,814.1387,548.5,818.1387,552.5,814.1387" style="stroke:#181818;stroke-width:1.0;"/><line style="stroke:#181818;stroke-width:1.0;" x1="380.5" x2="554.5" y1="814.1387" y2="814.1387"/><text fill="#000000" font-family="FG Virgil" font-size="13" lengthAdjust="spacing" textLength="74" x="387.5" y="809.3965">createUser()</text><polygon fill="#181818" points="722.5,870.0703,732.5,874.0703,722.5,878.0703,726.5,874.0703" style="stroke:#181818;stroke-width:1.0;"/><line style="stroke:#181818;stroke-width:1.0;" x1="570.5" x2="728.5" y1="874.0703" y2="874.0703"/><text fill="#000000" font-family="FG Virgil" font-size="13" lengthAdjust="spacing" textLength="111" x="577.5" y="838.707">create (username,</text><text fill="#000000" font-family="FG Virgil" font-size="13" lengthAdjust="spacing" textLength="134" x="577.5" y="854.0176">password, firstName,</text><text fill="#000000" font-family="FG Virgil" font-size="13" lengthAdjust="spacing" textLength="140" x="577.5" y="869.3281">lastName,email, roles)</text><polygon fill="#181818" points="581.5,899.3809,571.5,903.3809,581.5,907.3809,577.5,903.3809" style="stroke:#181818;stroke-width:1.0;"/><line style="stroke:#181818;stroke-width:1.0;stroke-dasharray:2.0,2.0;" x1="575.5" x2="733.5" y1="903.3809" y2="903.3809"/><text fill="#000000" font-family="FG Virgil" font-size="13" lengthAdjust="spacing" textLength="27" x="587.5" y="898.6387">user</text><polygon fill="#181818" points="391.5,928.6914,381.5,932.6914,391.5,936.6914,387.5,932.6914" style="stroke:#181818;stroke-width:1.0;"/><line style="stroke:#181818;stroke-width:1.0;stroke-dasharray:2.0,2.0;" x1="385.5" x2="564.5" y1="932.6914" y2="932.6914"/><text fill="#000000" font-family="FG Virgil" font-size="13" lengthAdjust="spacing" textLength="27" x="397.5" y="927.9492">user</text><polygon fill="#181818" points="833.5,958.002,843.5,962.002,833.5,966.002,837.5,962.002" style="stroke:#181818;stroke-width:1.0;"/><line style="stroke:#181818;stroke-width:1.0;" x1="380.5" x2="839.5" y1="962.002" y2="962.002"/><text fill="#000000" font-family="FG Virgil" font-size="13" lengthAdjust="spacing" textLength="63" x="387.5" y="957.2598">save(user)</text><polygon fill="#181818" points="228.5,987.3125,218.5,991.3125,228.5,995.3125,224.5,991.3125" style="stroke:#181818;stroke-width:1.0;"/><line style="stroke:#181818;stroke-width:1.0;stroke-dasharray:2.0,2.0;" x1="222.5" x2="374.5" y1="991.3125" y2="991.3125"/><text fill="#000000" font-family="FG Virgil" font-size="13" lengthAdjust="spacing" textLength="27" x="234.5" y="986.5703">user</text><polygon fill="#181818" points="56.5,1016.623,46.5,1020.623,56.5,1024.623,52.5,1020.623" style="stroke:#181818;stroke-width:1.0;"/><line style="stroke:#181818;stroke-width:1.0;stroke-dasharray:2.0,2.0;" x1="50.5" x2="211.5" y1="1020.623" y2="1020.623"/><text fill="#000000" font-family="FG Virgil" font-size="13" lengthAdjust="spacing" textLength="98" x="62.5" y="1015.8809">displayUserInfo</text><!--SRC=[ZLHDRnCn4BtlhnZA9Qq8f1nN8L9f6nIf8DGIJhrCrvF4gjTURATH-3SS-HtzOnrxlHyjYvezH7RclV7CcsTxwHN1rCdVb7-Sp6xervPqGN0XSMsnX35SqrewJnQMZd_6i3o7qybaylvq-Y6mPbdcxgMkCA1BeqsniQOaMA5or0jLMDpZccxydi-pLFXUJD0AjyhFZVRVaBdpB_1JshLKFOpRe30xgTSfSuQ5DnREH2are8Epk7shv7hZxzIMCgPvMSWAjOUZ_4o8KFzoSHJ0omLCfvKbHzgZbqRFPiFuSox96gN8HbwtPJvMbPB5C3rmFs-b4ecOriowgrSl6LicH5Q4NvWIkQtfLCJ5OFfhgeoJtFG-KhejqsoxOMfMIpEUSTiv2oRY98D-yW4zrSfbtNwvo80_reWfNSSd9paKbXZHXZaUoPpLtKDe0QHU6Lj6KIBisTdVqRcTiUBThPvBwpo4QVFc2firN8w_8iyzSfKn5PWgv88tds0I_-nAIqVVRCmEhjYYjzgiuDgmlNxiAt8jEfMGQcW1CKvQP8FTve2r0qQXBHrhksKhfWPW5UfFvIjCIo2UbWf0JaBkE6PkTUsIjwLfm_yhMddWqfD7-jw1nxyiAniVmYLW-ILQphujaIltKg0WuA2NbQcl9uSuJiu7piFZ7oM5QK_hkPTxJKUy6Ej_SVbE-iqoQT6ASdm0gPdwg57l4DAyqNVKAdq8xIgDOjJCv13IPPZQACxk47Xma1kb2R-2hvMDFkfIjuv8g3OGlcRodAH-1PhnGEV4LusOVDXpOVFLEVaoD1N6QpjSmVCByGmdw9yc1fGOpxfNANVuKFjcI6C-ArpEzenU_jwrwJq0J4ZtNqXNATm7ZHVy-6GzAhzalLt4Fm40]--></g></svg>