<?xml version="1.0" encoding="us-ascii" standalone="no"?><svg xmlns="http://www.w3.org/2000/svg" xmlns:xlink="http://www.w3.org/1999/xlink" contentStyleType="text/css" height="667px" preserveAspectRatio="none" style="width:690px;height:667px;background:#FFFFFF;" version="1.1" viewBox="0 0 690 667" width="690px" zoomAndPan="magnify"><defs/><g><text fill="#000000" font-family="FG Virgil" font-size="20" font-weight="bold" lengthAdjust="spacing" textLength="462" x="116" y="34.3359">Sequence Diagram - Deactivate - UC 1000.2</text><rect fill="#FFFFFF" height="410.7031" style="stroke:#181818;stroke-width:1.0;" width="10" x="40.5" y="157.3535"/><rect fill="#FFFFFF" height="410.7031" style="stroke:#181818;stroke-width:1.0;" width="10" x="243.5" y="157.3535"/><rect fill="#FFFFFF" height="87.9316" style="stroke:#181818;stroke-width:1.0;" width="10" x="437.5" y="244.6406"/><rect fill="#FFFFFF" height="64.6211" style="stroke:#181818;stroke-width:1.0;" width="10" x="437.5" y="467.125"/><rect fill="#FFFFFF" height="29.3105" style="stroke:#181818;stroke-width:1.0;" width="10" x="603" y="273.9512"/><rect fill="#FFFFFF" height="71.6211" style="stroke:#181818;stroke-width:1.0;" width="10" x="603" y="496.4355"/><rect fill="none" height="91.2422" style="stroke:#000000;stroke-width:1.5;" width="315" x="10" y="347.5723"/><line style="stroke:#181818;stroke-width:0.5;stroke-dasharray:5.0,5.0;" x1="45" x2="45" y1="126.043" y2="586.0566"/><line style="stroke:#181818;stroke-width:0.5;stroke-dasharray:5.0,5.0;" x1="248" x2="248" y1="126.043" y2="586.0566"/><line style="stroke:#181818;stroke-width:0.5;stroke-dasharray:5.0,5.0;" x1="442" x2="442" y1="204.3418" y2="586.0566"/><line style="stroke:#181818;stroke-width:0.5;stroke-dasharray:5.0,5.0;" x1="608" x2="608" y1="126.043" y2="586.0566"/><text fill="#000000" font-family="FG Virgil" font-size="14" lengthAdjust="spacing" textLength="45" x="20" y="123.0898">Admin</text><ellipse cx="45.5" cy="58.0547" fill="#ADD8E6" rx="8" ry="8" style="stroke:#181818;stroke-width:0.5;"/><path d="M45.5,66.0547 L45.5,93.0547 M32.5,74.0547 L58.5,74.0547 M45.5,93.0547 L32.5,108.0547 M45.5,93.0547 L58.5,108.0547 " fill="none" style="stroke:#181818;stroke-width:0.5;"/><text fill="#000000" font-family="FG Virgil" font-size="14" lengthAdjust="spacing" textLength="45" x="20" y="598.5918">Admin</text><ellipse cx="45.5" cy="610.0449" fill="#ADD8E6" rx="8" ry="8" style="stroke:#181818;stroke-width:0.5;"/><path d="M45.5,618.0449 L45.5,645.0449 M32.5,626.0449 L58.5,626.0449 M45.5,645.0449 L32.5,660.0449 M45.5,645.0449 L58.5,660.0449 " fill="none" style="stroke:#181818;stroke-width:0.5;"/><rect fill="#E2E2F0" height="46.9766" rx="2.5" ry="2.5" style="stroke:#181818;stroke-width:0.5;" width="133" x="182" y="78.0664"/><text fill="#000000" font-family="FG Virgil" font-size="14" font-style="italic" lengthAdjust="spacing" textLength="101" x="198" y="98.6016">&#171;presentation&#187;</text><text fill="#000000" font-family="FG Virgil" font-size="14" lengthAdjust="spacing" textLength="119" x="189" y="115.0898">:DeactivateUserUI</text><rect fill="#E2E2F0" height="46.9766" rx="2.5" ry="2.5" style="stroke:#181818;stroke-width:0.5;" width="133" x="182" y="585.0566"/><text fill="#000000" font-family="FG Virgil" font-size="14" font-style="italic" lengthAdjust="spacing" textLength="101" x="198" y="605.5918">&#171;presentation&#187;</text><text fill="#000000" font-family="FG Virgil" font-size="14" lengthAdjust="spacing" textLength="119" x="189" y="622.0801">:DeactivateUserUI</text><rect fill="#E2E2F0" height="46.9766" rx="2.5" ry="2.5" style="stroke:#181818;stroke-width:0.5;" width="189" x="348" y="585.0566"/><text fill="#000000" font-family="FG Virgil" font-size="14" font-style="italic" lengthAdjust="spacing" textLength="90" x="397.5" y="605.5918">&#171;application&#187;</text><text fill="#000000" font-family="FG Virgil" font-size="14" lengthAdjust="spacing" textLength="175" x="355" y="622.0801">:DeactivateUserController</text><rect fill="#E2E2F0" height="46.9766" rx="2.5" ry="2.5" style="stroke:#181818;stroke-width:0.5;" width="122" x="547" y="78.0664"/><text fill="#000000" font-family="FG Virgil" font-size="14" font-style="italic" lengthAdjust="spacing" textLength="84" x="566" y="98.6016">&#171;repository&#187;</text><text fill="#000000" font-family="FG Virgil" font-size="14" lengthAdjust="spacing" textLength="108" x="554" y="115.0898">:UserRepository</text><rect fill="#E2E2F0" height="46.9766" rx="2.5" ry="2.5" style="stroke:#181818;stroke-width:0.5;" width="122" x="547" y="585.0566"/><text fill="#000000" font-family="FG Virgil" font-size="14" font-style="italic" lengthAdjust="spacing" textLength="84" x="566" y="605.5918">&#171;repository&#187;</text><text fill="#000000" font-family="FG Virgil" font-size="14" lengthAdjust="spacing" textLength="108" x="554" y="622.0801">:UserRepository</text><rect fill="#FFFFFF" height="410.7031" style="stroke:#181818;stroke-width:1.0;" width="10" x="40.5" y="157.3535"/><rect fill="#FFFFFF" height="410.7031" style="stroke:#181818;stroke-width:1.0;" width="10" x="243.5" y="157.3535"/><rect fill="#FFFFFF" height="87.9316" style="stroke:#181818;stroke-width:1.0;" width="10" x="437.5" y="244.6406"/><rect fill="#FFFFFF" height="64.6211" style="stroke:#181818;stroke-width:1.0;" width="10" x="437.5" y="467.125"/><rect fill="#FFFFFF" height="29.3105" style="stroke:#181818;stroke-width:1.0;" width="10" x="603" y="273.9512"/><rect fill="#FFFFFF" height="71.6211" style="stroke:#181818;stroke-width:1.0;" width="10" x="603" y="496.4355"/><polygon fill="#181818" points="231.5,153.3535,241.5,157.3535,231.5,161.3535,235.5,157.3535" style="stroke:#181818;stroke-width:1.0;"/><line style="stroke:#181818;stroke-width:1.0;" x1="50.5" x2="237.5" y1="157.3535" y2="157.3535"/><text fill="#000000" font-family="FG Virgil" font-size="13" lengthAdjust="spacing" textLength="83" x="57.5" y="152.6113">List All Users</text><polygon fill="#181818" points="336,182.6641,346,186.6641,336,190.6641,340,186.6641" style="stroke:#181818;stroke-width:1.0;"/><line style="stroke:#181818;stroke-width:1.0;" x1="253.5" x2="342" y1="186.6641" y2="186.6641"/><text fill="#000000" font-family="FG Virgil" font-size="13" lengthAdjust="spacing" textLength="38" x="260.5" y="181.9219">create</text><rect fill="#E2E2F0" height="46.9766" rx="2.5" ry="2.5" style="stroke:#181818;stroke-width:0.5;" width="189" x="348" y="165.3535"/><text fill="#000000" font-family="FG Virgil" font-size="14" font-style="italic" lengthAdjust="spacing" textLength="90" x="397.5" y="185.8887">&#171;application&#187;</text><text fill="#000000" font-family="FG Virgil" font-size="14" lengthAdjust="spacing" textLength="175" x="355" y="202.377">:DeactivateUserController</text><polygon fill="#181818" points="425.5,240.6406,435.5,244.6406,425.5,248.6406,429.5,244.6406" style="stroke:#181818;stroke-width:1.0;"/><line style="stroke:#181818;stroke-width:1.0;" x1="253.5" x2="431.5" y1="244.6406" y2="244.6406"/><text fill="#000000" font-family="FG Virgil" font-size="13" lengthAdjust="spacing" textLength="100" x="260.5" y="239.8984">activatedUsers()</text><polygon fill="#181818" points="591,269.9512,601,273.9512,591,277.9512,595,273.9512" style="stroke:#181818;stroke-width:1.0;"/><line style="stroke:#181818;stroke-width:1.0;" x1="447.5" x2="597" y1="273.9512" y2="273.9512"/><text fill="#000000" font-family="FG Virgil" font-size="13" lengthAdjust="spacing" textLength="111" x="454.5" y="269.209">findByActive(true)</text><polygon fill="#181818" points="458.5,299.2617,448.5,303.2617,458.5,307.2617,454.5,303.2617" style="stroke:#181818;stroke-width:1.0;"/><line style="stroke:#181818;stroke-width:1.0;stroke-dasharray:2.0,2.0;" x1="452.5" x2="607" y1="303.2617" y2="303.2617"/><text fill="#000000" font-family="FG Virgil" font-size="13" lengthAdjust="spacing" textLength="98" x="464.5" y="298.5195">Activated Users</text><polygon fill="#181818" points="264.5,328.5723,254.5,332.5723,264.5,336.5723,260.5,332.5723" style="stroke:#181818;stroke-width:1.0;"/><line style="stroke:#181818;stroke-width:1.0;stroke-dasharray:2.0,2.0;" x1="258.5" x2="441.5" y1="332.5723" y2="332.5723"/><text fill="#000000" font-family="FG Virgil" font-size="13" lengthAdjust="spacing" textLength="98" x="270.5" y="327.8301">Activated Users</text><path d="M10,347.5723 L84,347.5723 L84,354.8828 L74,364.8828 L10,364.8828 L10,347.5723 " fill="#EEEEEE" style="stroke:#000000;stroke-width:1.5;"/><rect fill="none" height="91.2422" style="stroke:#000000;stroke-width:1.5;" width="315" x="10" y="347.5723"/><text fill="#000000" font-family="FG Virgil" font-size="13" font-weight="bold" lengthAdjust="spacing" textLength="29" x="25" y="361.1406">loop</text><text fill="#000000" font-family="FG Virgil" font-size="11" font-weight="bold" lengthAdjust="spacing" textLength="71" x="99" y="360.207">[option != 0]</text><polygon fill="#181818" points="61.5,397.5039,51.5,401.5039,61.5,405.5039,57.5,401.5039" style="stroke:#181818;stroke-width:1.0;"/><line style="stroke:#181818;stroke-width:1.0;" x1="55.5" x2="242.5" y1="401.5039" y2="401.5039"/><text fill="#000000" font-family="FG Virgil" font-size="13" lengthAdjust="spacing" textLength="60" x="67.5" y="381.4512">Show List</text><text fill="#000000" font-family="FG Virgil" font-size="13" lengthAdjust="spacing" textLength="115" x="67.5" y="396.7617">of Activated Users</text><polygon fill="#181818" points="231.5,426.8145,241.5,430.8145,231.5,434.8145,235.5,430.8145" style="stroke:#181818;stroke-width:1.0;"/><line style="stroke:#181818;stroke-width:1.0;stroke-dasharray:2.0,2.0;" x1="50.5" x2="237.5" y1="430.8145" y2="430.8145"/><text fill="#000000" font-family="FG Virgil" font-size="13" lengthAdjust="spacing" textLength="169" x="57.5" y="426.0723">Enters option to deactivate</text><polygon fill="#181818" points="425.5,463.125,435.5,467.125,425.5,471.125,429.5,467.125" style="stroke:#181818;stroke-width:1.0;"/><line style="stroke:#181818;stroke-width:1.0;" x1="253.5" x2="431.5" y1="467.125" y2="467.125"/><text fill="#000000" font-family="FG Virgil" font-size="13" lengthAdjust="spacing" textLength="165" x="260.5" y="462.3828">deactivateUser(option - 1)</text><polygon fill="#181818" points="591,492.4355,601,496.4355,591,500.4355,595,496.4355" style="stroke:#181818;stroke-width:1.0;"/><line style="stroke:#181818;stroke-width:1.0;" x1="447.5" x2="597" y1="496.4355" y2="496.4355"/><text fill="#000000" font-family="FG Virgil" font-size="13" lengthAdjust="spacing" textLength="127" x="454.5" y="491.6934">deactivateUser(user)</text><line style="stroke:#181818;stroke-width:1.0;stroke-dasharray:2.0,2.0;" x1="613" x2="655" y1="530.7461" y2="530.7461"/><line style="stroke:#181818;stroke-width:1.0;stroke-dasharray:2.0,2.0;" x1="655" x2="655" y1="530.7461" y2="543.7461"/><line style="stroke:#181818;stroke-width:1.0;stroke-dasharray:2.0,2.0;" x1="608" x2="655" y1="543.7461" y2="543.7461"/><polygon fill="#181818" points="618,539.7461,608,543.7461,618,547.7461,614,543.7461" style="stroke:#181818;stroke-width:1.0;"/><text fill="#000000" font-family="FG Virgil" font-size="13" lengthAdjust="spacing" textLength="63" x="620" y="526.0039">save(user)</text><polygon fill="#181818" points="56.5,564.0566,46.5,568.0566,56.5,572.0566,52.5,568.0566" style="stroke:#181818;stroke-width:1.0;"/><line style="stroke:#181818;stroke-width:1.0;stroke-dasharray:2.0,2.0;" x1="50.5" x2="247.5" y1="568.0566" y2="568.0566"/><text fill="#000000" font-family="FG Virgil" font-size="13" lengthAdjust="spacing" textLength="87" x="62.5" y="563.3145">shows sucess</text><!--SRC=[VL91Rjim4Bpp5TlqOWTGgkGek0AKf2aC53tKK4-ziD9Q9aAJB4arS5_V5IsBZ26R1m5BpipExiWBBn5MJlp3uY4lD_YdHzKWF0lUMRw739wHDrxyvHwfg9_WFi_pkuVLfu5ICkPUXJ9yWEwrqitEwZt2bak7oPFXpIllSECFrCnYuvEt5hUyb_v5A_-T4_VbA_mKjXComRWTR_MRKDsepCYIjb2rUw60EwX2-L6ARkT_onuPqRneXE7AmqqHHwWTsdfzCt3gDQnMng93vRaNMfNbLTeJ6RHQIhI17akIuSP8qSoh3DmVQBGJvF4GkB4ahfqAehBZ95b9zWhu9fo7IaeOD1oRSWWW5kjwpO0EJKJ4QEpsje368Y4OcmKKS99eGuV5Ci0ctOWCzyD9nYQfE4W1Mw7QnqCrS77XRO_BiUia5z7XFfPPLgQcgfEfSUu1tEAS39jydNiRDpWdbMeb4nxVfDO6j1cIX0-V8N_NO5nWM7y1cvr-2n7zKdext-bqnbH7Kr-K9yIfYzU9eKX3rLuAhNttNov6dGpkb-nYVkngU6UAFNsM5xCx2o-CbMWvJlaV5HYxicuMbqeAuquTxTI1wnjqZirddjpIVvzKGU8_]--></g></svg>