<?xml version="1.0" encoding="us-ascii" standalone="no"?><svg xmlns="http://www.w3.org/2000/svg" xmlns:xlink="http://www.w3.org/1999/xlink" contentStyleType="text/css" height="460px" preserveAspectRatio="none" style="width:511px;height:460px;background:#FFFFFF;" version="1.1" viewBox="0 0 511 460" width="511px" zoomAndPan="magnify"><defs/><g><text fill="#000000" font-family="FG Virgil" font-size="20" font-weight="bold" lengthAdjust="spacing" textLength="444" x="32.5" y="34.3359">Sequence Diagram - List User - UC 1000.4</text><rect fill="#FFFFFF" height="204.5293" style="stroke:#181818;stroke-width:1.0;" width="10" x="25.5" y="157.3535"/><rect fill="#FFFFFF" height="204.5293" style="stroke:#181818;stroke-width:1.0;" width="10" x="158.5" y="157.3535"/><rect fill="#FFFFFF" height="87.9316" style="stroke:#181818;stroke-width:1.0;" width="10" x="297" y="244.6406"/><rect fill="#FFFFFF" height="29.3105" style="stroke:#181818;stroke-width:1.0;" width="10" x="439" y="273.9512"/><line style="stroke:#181818;stroke-width:0.5;stroke-dasharray:5.0,5.0;" x1="30" x2="30" y1="126.043" y2="379.8828"/><line style="stroke:#181818;stroke-width:0.5;stroke-dasharray:5.0,5.0;" x1="163" x2="163" y1="126.043" y2="379.8828"/><line style="stroke:#181818;stroke-width:0.5;stroke-dasharray:5.0,5.0;" x1="302" x2="302" y1="204.3418" y2="379.8828"/><line style="stroke:#181818;stroke-width:0.5;stroke-dasharray:5.0,5.0;" x1="444" x2="444" y1="126.043" y2="379.8828"/><text fill="#000000" font-family="FG Virgil" font-size="14" lengthAdjust="spacing" textLength="45" x="5" y="123.0898">Admin</text><ellipse cx="30.5" cy="58.0547" fill="#ADD8E6" rx="8" ry="8" style="stroke:#181818;stroke-width:0.5;"/><path d="M30.5,66.0547 L30.5,93.0547 M17.5,74.0547 L43.5,74.0547 M30.5,93.0547 L17.5,108.0547 M30.5,93.0547 L43.5,108.0547 " fill="none" style="stroke:#181818;stroke-width:0.5;"/><text fill="#000000" font-family="FG Virgil" font-size="14" lengthAdjust="spacing" textLength="45" x="5" y="392.418">Admin</text><ellipse cx="30.5" cy="403.8711" fill="#ADD8E6" rx="8" ry="8" style="stroke:#181818;stroke-width:0.5;"/><path d="M30.5,411.8711 L30.5,438.8711 M17.5,419.8711 L43.5,419.8711 M30.5,438.8711 L17.5,453.8711 M30.5,438.8711 L43.5,453.8711 " fill="none" style="stroke:#181818;stroke-width:0.5;"/><rect fill="#E2E2F0" height="46.9766" rx="2.5" ry="2.5" style="stroke:#181818;stroke-width:0.5;" width="115" x="106" y="78.0664"/><text fill="#000000" font-family="FG Virgil" font-size="14" font-style="italic" lengthAdjust="spacing" textLength="101" x="113" y="98.6016">&#171;presentation&#187;</text><text fill="#000000" font-family="FG Virgil" font-size="14" lengthAdjust="spacing" textLength="72" x="127.5" y="115.0898">:ListUserUI</text><rect fill="#E2E2F0" height="46.9766" rx="2.5" ry="2.5" style="stroke:#181818;stroke-width:0.5;" width="115" x="106" y="378.8828"/><text fill="#000000" font-family="FG Virgil" font-size="14" font-style="italic" lengthAdjust="spacing" textLength="101" x="113" y="399.418">&#171;presentation&#187;</text><text fill="#000000" font-family="FG Virgil" font-size="14" lengthAdjust="spacing" textLength="72" x="127.5" y="415.9063">:ListUserUI</text><rect fill="#E2E2F0" height="46.9766" rx="2.5" ry="2.5" style="stroke:#181818;stroke-width:0.5;" width="142" x="231" y="378.8828"/><text fill="#000000" font-family="FG Virgil" font-size="14" font-style="italic" lengthAdjust="spacing" textLength="90" x="257" y="399.418">&#171;application&#187;</text><text fill="#000000" font-family="FG Virgil" font-size="14" lengthAdjust="spacing" textLength="128" x="238" y="415.9063">:ListUserController</text><rect fill="#E2E2F0" height="46.9766" rx="2.5" ry="2.5" style="stroke:#181818;stroke-width:0.5;" width="122" x="383" y="78.0664"/><text fill="#000000" font-family="FG Virgil" font-size="14" font-style="italic" lengthAdjust="spacing" textLength="84" x="402" y="98.6016">&#171;repository&#187;</text><text fill="#000000" font-family="FG Virgil" font-size="14" lengthAdjust="spacing" textLength="108" x="390" y="115.0898">:UserRepository</text><rect fill="#E2E2F0" height="46.9766" rx="2.5" ry="2.5" style="stroke:#181818;stroke-width:0.5;" width="122" x="383" y="378.8828"/><text fill="#000000" font-family="FG Virgil" font-size="14" font-style="italic" lengthAdjust="spacing" textLength="84" x="402" y="399.418">&#171;repository&#187;</text><text fill="#000000" font-family="FG Virgil" font-size="14" lengthAdjust="spacing" textLength="108" x="390" y="415.9063">:UserRepository</text><rect fill="#FFFFFF" height="204.5293" style="stroke:#181818;stroke-width:1.0;" width="10" x="25.5" y="157.3535"/><rect fill="#FFFFFF" height="204.5293" style="stroke:#181818;stroke-width:1.0;" width="10" x="158.5" y="157.3535"/><rect fill="#FFFFFF" height="87.9316" style="stroke:#181818;stroke-width:1.0;" width="10" x="297" y="244.6406"/><rect fill="#FFFFFF" height="29.3105" style="stroke:#181818;stroke-width:1.0;" width="10" x="439" y="273.9512"/><polygon fill="#181818" points="146.5,153.3535,156.5,157.3535,146.5,161.3535,150.5,157.3535" style="stroke:#181818;stroke-width:1.0;"/><line style="stroke:#181818;stroke-width:1.0;" x1="35.5" x2="152.5" y1="157.3535" y2="157.3535"/><text fill="#000000" font-family="FG Virgil" font-size="13" lengthAdjust="spacing" textLength="83" x="42.5" y="152.6113">List All Users</text><polygon fill="#181818" points="219,182.6641,229,186.6641,219,190.6641,223,186.6641" style="stroke:#181818;stroke-width:1.0;"/><line style="stroke:#181818;stroke-width:1.0;" x1="168.5" x2="225" y1="186.6641" y2="186.6641"/><text fill="#000000" font-family="FG Virgil" font-size="13" lengthAdjust="spacing" textLength="38" x="175.5" y="181.9219">create</text><rect fill="#E2E2F0" height="46.9766" rx="2.5" ry="2.5" style="stroke:#181818;stroke-width:0.5;" width="142" x="231" y="165.3535"/><text fill="#000000" font-family="FG Virgil" font-size="14" font-style="italic" lengthAdjust="spacing" textLength="90" x="257" y="185.8887">&#171;application&#187;</text><text fill="#000000" font-family="FG Virgil" font-size="14" lengthAdjust="spacing" textLength="128" x="238" y="202.377">:ListUserController</text><polygon fill="#181818" points="285,240.6406,295,244.6406,285,248.6406,289,244.6406" style="stroke:#181818;stroke-width:1.0;"/><line style="stroke:#181818;stroke-width:1.0;" x1="168.5" x2="291" y1="244.6406" y2="244.6406"/><text fill="#000000" font-family="FG Virgil" font-size="13" lengthAdjust="spacing" textLength="65" x="175.5" y="239.8984">elements()</text><polygon fill="#181818" points="427,269.9512,437,273.9512,427,277.9512,431,273.9512" style="stroke:#181818;stroke-width:1.0;"/><line style="stroke:#181818;stroke-width:1.0;" x1="307" x2="433" y1="273.9512" y2="273.9512"/><text fill="#000000" font-family="FG Virgil" font-size="13" lengthAdjust="spacing" textLength="50" x="314" y="269.209">findAll()</text><polygon fill="#181818" points="318,299.2617,308,303.2617,318,307.2617,314,303.2617" style="stroke:#181818;stroke-width:1.0;"/><line style="stroke:#181818;stroke-width:1.0;stroke-dasharray:2.0,2.0;" x1="312" x2="443" y1="303.2617" y2="303.2617"/><text fill="#000000" font-family="FG Virgil" font-size="13" lengthAdjust="spacing" textLength="80" x="324" y="298.5195">SystemUsers</text><polygon fill="#181818" points="179.5,328.5723,169.5,332.5723,179.5,336.5723,175.5,332.5723" style="stroke:#181818;stroke-width:1.0;"/><line style="stroke:#181818;stroke-width:1.0;stroke-dasharray:2.0,2.0;" x1="173.5" x2="301" y1="332.5723" y2="332.5723"/><text fill="#000000" font-family="FG Virgil" font-size="13" lengthAdjust="spacing" textLength="80" x="185.5" y="327.8301">SystemUsers</text><polygon fill="#181818" points="41.5,357.8828,31.5,361.8828,41.5,365.8828,37.5,361.8828" style="stroke:#181818;stroke-width:1.0;"/><line style="stroke:#181818;stroke-width:1.0;stroke-dasharray:2.0,2.0;" x1="35.5" x2="162.5" y1="361.8828" y2="361.8828"/><text fill="#000000" font-family="FG Virgil" font-size="13" lengthAdjust="spacing" textLength="99" x="47.5" y="357.1406">elementPrinter()</text><!--SRC=[TP1HIyCm58NVyoikyqM5wXIVIYcCoMGW8exw7jkxxh8qgKccp5_lJJRQE6QUUfFpdPvpFNc5K3ZwmVn-MgxmSuUwHdWasLhPGGRFv3nK3Yr_LtEucqwdDm_5RI1A8ToMT2-3iZFQr1jhEeIrL0wJfrxMMzdYok_vNnPhdxmrk9OxvHT6-nV9xE89ticsf1ADsyZ6V9DkZyv2rjvOc3KTQP0EPd6yKDHk_8VQeM3CKqszr1ucUMWG2bJBIL1NIoYAtg93xQKdeylo7s3EeQnH2cq4nv4DPDyhgi_pWNt3tZZYNFl8ZYEpTXWO5OVqMSd1yiEsPqh5ZRjGbBwanqD5CSxLKW0VxiBW6EpwEeVQ8Yk4E2l80HLstDnTNaN1u3XgudquIM4s6Ilai2RTS4hs47zTHb6y7ySiAzCKgxtps1rA1c63vop44EKqpd5TfpQfJr9eiAcMJCPT3ejujQGzMgwIiBpUP8h0Bm00]--></g></svg>