<?xml version="1.0" encoding="us-ascii" standalone="no"?><svg xmlns="http://www.w3.org/2000/svg" xmlns:xlink="http://www.w3.org/1999/xlink" contentStyleType="text/css" height="742px" preserveAspectRatio="none" style="width:631px;height:742px;background:#FFFFFF;" version="1.1" viewBox="0 0 631 742" width="631px" zoomAndPan="magnify"><defs/><g><text fill="#000000" font-family="sans-serif" font-size="20" font-weight="bold" lengthAdjust="spacing" textLength="284" x="166.5" y="29.3359">Code Interaction - US 2001</text><!--class ApplicationFileBot--><g id="elem_ApplicationFileBot"><rect codeLine="4" fill="#F1F1F1" height="476.6953" id="ApplicationFileBot" rx="2.5" ry="2.5" style="stroke:#181818;stroke-width:0.5;" width="617" x="7" y="258.9947"/><ellipse cx="271.75" cy="274.9947" fill="#F1F1F1" rx="11" ry="11" style="stroke:#181818;stroke-width:1.0;"/><path d="M271.2334,275.5577 Q269.3823,274.8521 268.7266,274.076 Q268.0708,273.2999 268.0708,271.9883 Q268.0708,270.3033 269.1499,269.3404 Q270.229,268.3775 272.1133,268.3775 Q272.9683,268.3775 273.8232,268.5726 Q274.6782,268.7676 275.5166,269.1495 L275.5166,271.5401 Q274.728,270.9839 273.9146,270.6934 Q273.1011,270.4029 272.3042,270.4029 Q271.416,270.4029 270.9429,270.7598 Q270.4697,271.1168 270.4697,271.7808 Q270.4697,272.2955 270.8142,272.6317 Q271.1587,272.9678 272.2544,273.3746 L273.3086,273.773 Q274.8027,274.3209 275.5083,275.2256 Q276.2139,276.1304 276.2139,277.5084 Q276.2139,279.3843 275.1057,280.3099 Q273.9976,281.2354 271.7563,281.2354 Q270.835,281.2354 269.9094,281.0154 Q268.9839,280.7955 268.1206,280.3638 L268.1206,277.8321 Q269.1001,278.5294 270.0173,278.8697 Q270.9346,279.21 271.8311,279.21 Q272.7358,279.21 273.2339,278.7991 Q273.7319,278.3882 273.7319,277.6495 Q273.7319,277.0933 273.3999,276.6741 Q273.0679,276.2549 272.437,276.0142 Z " fill="#000000"/><text fill="#000000" font-family="sans-serif" font-size="14" lengthAdjust="spacing" textLength="79" x="292.25" y="280.2857">us_2001b.c</text><line style="stroke:#181818;stroke-width:0.5;" x1="8" x2="623" y1="290.9947" y2="290.9947"/><rect fill="none" height="6" style="stroke:#C82930;stroke-width:1.0;" width="6" x="15" y="301.7388"/><text fill="#000000" font-family="sans-serif" font-size="14" lengthAdjust="spacing" textLength="131" x="27" y="308.5298">NUM_WORKERS: int</text><rect fill="none" height="6" style="stroke:#C82930;stroke-width:1.0;" width="6" x="15" y="318.2271"/><text fill="#000000" font-family="sans-serif" font-size="14" lengthAdjust="spacing" textLength="203" x="27" y="325.0181">EXTENDED_PATH_LENGTH: int</text><rect fill="none" height="6" style="stroke:#C82930;stroke-width:1.0;" width="6" x="15" y="334.7154"/><text fill="#000000" font-family="sans-serif" font-size="14" lengthAdjust="spacing" textLength="175" x="27" y="341.5064">INPUT_DIRECTORY: string</text><rect fill="none" height="6" style="stroke:#C82930;stroke-width:1.0;" width="6" x="15" y="351.2037"/><text fill="#000000" font-family="sans-serif" font-size="14" lengthAdjust="spacing" textLength="191" x="27" y="357.9947">OUTPUT_DIRECTORY: string</text><rect fill="none" height="6" style="stroke:#C82930;stroke-width:1.0;" width="6" x="15" y="367.692"/><text fill="#000000" font-family="sans-serif" font-size="14" lengthAdjust="spacing" textLength="99" x="27" y="374.483">MAX_FILES: int</text><rect fill="none" height="6" style="stroke:#C82930;stroke-width:1.0;" width="6" x="15" y="384.1802"/><text fill="#000000" font-family="sans-serif" font-size="14" lengthAdjust="spacing" textLength="125" x="27" y="390.9713">SHM_NAME: string</text><rect fill="none" height="6" style="stroke:#C82930;stroke-width:1.0;" width="6" x="15" y="400.6685"/><text fill="#000000" font-family="sans-serif" font-size="14" lengthAdjust="spacing" textLength="123" x="27" y="407.4595">SEM_NAME: string</text><rect fill="none" height="6" style="stroke:#C82930;stroke-width:1.0;" width="6" x="15" y="417.1568"/><text fill="#000000" font-family="sans-serif" font-size="14" lengthAdjust="spacing" textLength="129" x="27" y="423.9478">FILE_QUEUE: string</text><rect fill="none" height="6" style="stroke:#C82930;stroke-width:1.0;" width="6" x="15" y="433.6451"/><text fill="#000000" font-family="sans-serif" font-size="14" lengthAdjust="spacing" textLength="94" x="27" y="440.4361">running: bool</text><rect fill="none" height="6" style="stroke:#C82930;stroke-width:1.0;" width="6" x="15" y="450.1334"/><text fill="#000000" font-family="sans-serif" font-size="14" lengthAdjust="spacing" textLength="154" x="27" y="456.9244">sigusr1_received: bool</text><text fill="#000000" font-family="sans-serif" font-size="14" lengthAdjust="spacing" textLength="4" x="27" y="473.4127">&#160;</text><text fill="#000000" font-family="sans-serif" font-size="14" lengthAdjust="spacing" textLength="158" x="27" y="489.9009">struct "shared_data_t" {</text><rect fill="none" height="6" style="stroke:#C82930;stroke-width:1.0;" width="6" x="15" y="499.5982"/><text fill="#000000" font-family="sans-serif" font-size="14" lengthAdjust="spacing" textLength="374" x="27" y="506.3892">file_paths[MAX_FILES][EXTENDED_PATH_LENGTH]: char</text><rect fill="none" height="6" style="stroke:#C82930;stroke-width:1.0;" width="6" x="15" y="516.0865"/><text fill="#000000" font-family="sans-serif" font-size="14" lengthAdjust="spacing" textLength="93" x="27" y="522.8775">file_count: int</text><rect fill="none" height="6" style="stroke:#C82930;stroke-width:1.0;" width="6" x="15" y="532.5748"/><text fill="#000000" font-family="sans-serif" font-size="14" lengthAdjust="spacing" textLength="142" x="27" y="539.3658">processed_count: int</text><rect fill="none" height="6" style="stroke:#C82930;stroke-width:1.0;" width="6" x="15" y="549.063"/><text fill="#000000" font-family="sans-serif" font-size="14" lengthAdjust="spacing" textLength="460" x="27" y="555.8541">final_directory_paths[MAX_FILES][EXTENDED_PATH_LENGTH]: char }</text><line style="stroke:#181818;stroke-width:0.5;" x1="8" x2="623" y1="562.8072" y2="562.8072"/><ellipse cx="18" cy="576.5513" fill="#84BE84" rx="3" ry="3" style="stroke:#038048;stroke-width:1.0;"/><text fill="#000000" font-family="sans-serif" font-size="14" lengthAdjust="spacing" textLength="349" x="27" y="580.3423">extract_job_reference(file_path: const char*): char*</text><ellipse cx="18" cy="593.0396" fill="#84BE84" rx="3" ry="3" style="stroke:#038048;stroke-width:1.0;"/><text fill="#000000" font-family="sans-serif" font-size="14" lengthAdjust="spacing" textLength="345" x="27" y="596.8306">extract_application_number(path: const char*): int</text><ellipse cx="18" cy="609.5279" fill="#84BE84" rx="3" ry="3" style="stroke:#038048;stroke-width:1.0;"/><text fill="#000000" font-family="sans-serif" font-size="14" lengthAdjust="spacing" textLength="209" x="27" y="613.3189">mkdir_p(path: const char*): int</text><ellipse cx="18" cy="626.0162" fill="#84BE84" rx="3" ry="3" style="stroke:#038048;stroke-width:1.0;"/><text fill="#000000" font-family="sans-serif" font-size="14" lengthAdjust="spacing" textLength="486" x="27" y="629.8072">copy_file(source_path: const char*, destination_path: const char*): void</text><ellipse cx="18" cy="642.5045" fill="#84BE84" rx="3" ry="3" style="stroke:#038048;stroke-width:1.0;"/><text fill="#000000" font-family="sans-serif" font-size="14" lengthAdjust="spacing" textLength="591" x="27" y="646.2955">monitor_directory(directory: const char*, shm: shared_data_t*, sem_excl: sem_t*): void</text><ellipse cx="18" cy="658.9927" fill="#84BE84" rx="3" ry="3" style="stroke:#038048;stroke-width:1.0;"/><text fill="#000000" font-family="sans-serif" font-size="14" lengthAdjust="spacing" textLength="310" x="27" y="662.7838">generate_report(outputDir: const char*): void</text><ellipse cx="18" cy="675.481" fill="#84BE84" rx="3" ry="3" style="stroke:#038048;stroke-width:1.0;"/><text fill="#000000" font-family="sans-serif" font-size="14" lengthAdjust="spacing" textLength="209" x="27" y="679.272">handle_signal(signal: int): void</text><ellipse cx="18" cy="691.9693" fill="#84BE84" rx="3" ry="3" style="stroke:#038048;stroke-width:1.0;"/><text fill="#000000" font-family="sans-serif" font-size="14" lengthAdjust="spacing" textLength="200" x="27" y="695.7603">setup_signal_handlers(): void</text><ellipse cx="18" cy="708.4576" fill="#84BE84" rx="3" ry="3" style="stroke:#038048;stroke-width:1.0;"/><text fill="#000000" font-family="sans-serif" font-size="14" lengthAdjust="spacing" textLength="535" x="27" y="712.2486">process_file(shm: shared_data_t*, sem_excl: sem_t*, sem_queue: sem_t*): void</text><ellipse cx="18" cy="724.9459" fill="#84BE84" rx="3" ry="3" style="stroke:#038048;stroke-width:1.0;"/><text fill="#000000" font-family="sans-serif" font-size="14" lengthAdjust="spacing" textLength="70" x="27" y="728.7369">main(): int</text></g><!--class UnitTests--><g id="elem_UnitTests"><rect codeLine="37" fill="#F1F1F1" height="130.4414" id="UnitTests" rx="2.5" ry="2.5" style="stroke:#181818;stroke-width:0.5;" width="305" x="163" y="51.5547"/><ellipse cx="285.25" cy="67.5547" fill="#F1F1F1" rx="11" ry="11" style="stroke:#181818;stroke-width:1.0;"/><path d="M284.7334,68.1177 Q282.8823,67.4121 282.2266,66.636 Q281.5708,65.8599 281.5708,64.5483 Q281.5708,62.8633 282.6499,61.9004 Q283.729,60.9375 285.6133,60.9375 Q286.4683,60.9375 287.3232,61.1326 Q288.1782,61.3276 289.0166,61.7095 L289.0166,64.1001 Q288.228,63.5439 287.4146,63.2534 Q286.6011,62.9629 285.8042,62.9629 Q284.916,62.9629 284.4429,63.3198 Q283.9697,63.6768 283.9697,64.3408 Q283.9697,64.8555 284.3142,65.1917 Q284.6587,65.5278 285.7544,65.9346 L286.8086,66.333 Q288.3027,66.8809 289.0083,67.7856 Q289.7139,68.6904 289.7139,70.0684 Q289.7139,71.9443 288.6057,72.8699 Q287.4976,73.7954 285.2563,73.7954 Q284.335,73.7954 283.4094,73.5754 Q282.4839,73.3555 281.6206,72.9238 L281.6206,70.3921 Q282.6001,71.0894 283.5173,71.4297 Q284.4346,71.77 285.3311,71.77 Q286.2358,71.77 286.7339,71.3591 Q287.2319,70.9482 287.2319,70.2095 Q287.2319,69.6533 286.8999,69.2341 Q286.5679,68.8149 285.937,68.5742 Z " fill="#000000"/><text fill="#000000" font-family="sans-serif" font-size="14" lengthAdjust="spacing" textLength="52" x="305.75" y="72.8457">utests.c</text><line style="stroke:#181818;stroke-width:0.5;" x1="164" x2="467" y1="83.5547" y2="83.5547"/><line style="stroke:#181818;stroke-width:0.5;" x1="164" x2="467" y1="91.5547" y2="91.5547"/><ellipse cx="174" cy="105.2988" fill="#84BE84" rx="3" ry="3" style="stroke:#038048;stroke-width:1.0;"/><text fill="#000000" font-family="sans-serif" font-size="14" lengthAdjust="spacing" textLength="279" x="183" y="109.0898">test_extract_application_number(): char*</text><ellipse cx="174" cy="121.7871" fill="#84BE84" rx="3" ry="3" style="stroke:#038048;stroke-width:1.0;"/><text fill="#000000" font-family="sans-serif" font-size="14" lengthAdjust="spacing" textLength="236" x="183" y="125.5781">test_extract_job_reference(): char*</text><ellipse cx="174" cy="138.2754" fill="#84BE84" rx="3" ry="3" style="stroke:#038048;stroke-width:1.0;"/><text fill="#000000" font-family="sans-serif" font-size="14" lengthAdjust="spacing" textLength="143" x="183" y="142.0664">test_mkdir_p(): char*</text><ellipse cx="174" cy="154.7637" fill="#84BE84" rx="3" ry="3" style="stroke:#038048;stroke-width:1.0;"/><text fill="#000000" font-family="sans-serif" font-size="14" lengthAdjust="spacing" textLength="110" x="183" y="158.5547">all_tests(): char*</text><ellipse cx="174" cy="171.252" fill="#84BE84" rx="3" ry="3" style="stroke:#038048;stroke-width:1.0;"/><text fill="#000000" font-family="sans-serif" font-size="14" lengthAdjust="spacing" textLength="216" x="183" y="175.043">main(argc: int, argv: char**): int</text></g><!--link UnitTests to ApplicationFileBot--><g id="link_UnitTests_ApplicationFileBot"><path codeLine="45" d="M315.5,182.4247 C315.5,204.6047 315.5,224.8847 315.5,252.6547 " fill="none" id="UnitTests-to-ApplicationFileBot" style="stroke:#181818;stroke-width:1.0;stroke-dasharray:7.0,7.0;"/><polygon fill="#181818" points="315.5,258.6547,319.5,249.6547,315.5,253.6547,311.5,249.6547,315.5,258.6547" style="stroke:#181818;stroke-width:1.0;"/><text fill="#000000" font-family="sans-serif" font-size="13" lengthAdjust="spacing" textLength="31" x="316.5" y="225.563">tests</text></g><!--SRC=[bLHTRzem57tdLrWyPT0osiUeGc8b7MW5EaYqJbLb6US2teATsTUetTJ_FYU4ZsGHs_mI-vxxUNnY59W0kJ7Y9_ZNtTwjYe6C989c78MIv994StBTxLxTlCzyUes6GMqvagOrDBClEhn9c27zD4q4PrdGdKZWWqBogq7SkYIJQ4o_J6UVWjdS9q9YOGuUms0o20RqeHyEwNqm-HWEJ_7Hv24AwM0q2sx3wUohJrnb8LS5Eet2S_2u_qZlHlT1gU9yEAQJ_ZYe-Cw3MdCMJZz7GLG5j9NIdNooK2efR4QihD5NL0C7iOMu07DqpvXPCmqnZHaoYiq3FKj75qqPhitJeUldfpfsddt2NOxJEAwinDCPKwqu6EFg_04jXMG9ZONh4PL-_Q-QvAsHhInHcy0BPlgWtzJ23Rm43PA3TvZ3HIXfC8zhlTl5jogXx2WNAkrc0Tgh2zqttoQRxwvnclx5YwlqbMQDU4PPpMlwkI0n67HCvANhicsLYFT5bHIEgYDdtc5NIMhM6wUIqmlEZB2XyC8JFzzX9VaAfFlD41o5gTBeAOkfnO7GPnfQCnaxbftQt5Lwkqy-VzdD0DgqyAAx66syiayXb8AjVsb_P_bXmKBzH1icf5VSnzl9Iu6ESLEy4v5ZDCpEXVxR94Ff6LrK55HoBokmpdElcmh6aeJcRLM1V0QcLpmVuuAuxRRmQ1r7EqxHwVHgtZu_BsuQlm40]--></g></svg>