<?xml version="1.0" encoding="us-ascii" standalone="no"?><svg xmlns="http://www.w3.org/2000/svg" xmlns:xlink="http://www.w3.org/1999/xlink" contentStyleType="text/css" height="434px" preserveAspectRatio="none" style="width:499px;height:434px;background:#FFFFFF;" version="1.1" viewBox="0 0 499 434" width="499px" zoomAndPan="magnify"><defs/><g><text fill="#000000" font-family="sans-serif" font-size="20" font-weight="bold" lengthAdjust="spacing" textLength="297" x="102.5" y="34.3359">Sequence Diagram US 2001b</text><rect fill="#FFFFFF" height="177.8633" style="stroke:#181818;stroke-width:1.0;" width="10" x="151.5" y="157.3535"/><rect fill="#FFFFFF" height="29.3105" style="stroke:#181818;stroke-width:1.0;" width="10" x="314.5" y="210.9746"/><rect fill="#FFFFFF" height="29.3105" style="stroke:#181818;stroke-width:1.0;" width="10" x="446.5" y="269.5957"/><rect fill="none" height="134.5527" style="stroke:#000000;stroke-width:1.5;" width="396" x="97" y="172.3535"/><line style="stroke:#181818;stroke-width:0.5;stroke-dasharray:5.0,5.0;" x1="23" x2="23" y1="126.043" y2="353.2168"/><line style="stroke:#181818;stroke-width:0.5;stroke-dasharray:5.0,5.0;" x1="156" x2="156" y1="126.043" y2="353.2168"/><line style="stroke:#181818;stroke-width:0.5;stroke-dasharray:5.0,5.0;" x1="319" x2="319" y1="126.043" y2="353.2168"/><line style="stroke:#181818;stroke-width:0.5;stroke-dasharray:5.0,5.0;" x1="451" x2="451" y1="126.043" y2="353.2168"/><text fill="#000000" font-family="sans-serif" font-size="14" lengthAdjust="spacing" textLength="31" x="5" y="123.0898">User</text><ellipse cx="23.5" cy="58.0547" fill="#E2E2F0" rx="8" ry="8" style="stroke:#181818;stroke-width:0.5;"/><path d="M23.5,66.0547 L23.5,93.0547 M10.5,74.0547 L36.5,74.0547 M23.5,93.0547 L10.5,108.0547 M23.5,93.0547 L36.5,108.0547 " fill="none" style="stroke:#181818;stroke-width:0.5;"/><text fill="#000000" font-family="sans-serif" font-size="14" lengthAdjust="spacing" textLength="31" x="5" y="365.752">User</text><ellipse cx="23.5" cy="377.2051" fill="#E2E2F0" rx="8" ry="8" style="stroke:#181818;stroke-width:0.5;"/><path d="M23.5,385.2051 L23.5,412.2051 M10.5,393.2051 L36.5,393.2051 M23.5,412.2051 L10.5,427.2051 M23.5,412.2051 L36.5,427.2051 " fill="none" style="stroke:#181818;stroke-width:0.5;"/><rect fill="#E2E2F0" height="30.4883" rx="2.5" ry="2.5" style="stroke:#181818;stroke-width:0.5;" width="99" x="107" y="94.5547"/><text fill="#000000" font-family="sans-serif" font-size="14" lengthAdjust="spacing" textLength="85" x="114" y="115.0898">Processo Pai</text><rect fill="#E2E2F0" height="30.4883" rx="2.5" ry="2.5" style="stroke:#181818;stroke-width:0.5;" width="99" x="107" y="352.2168"/><text fill="#000000" font-family="sans-serif" font-size="14" lengthAdjust="spacing" textLength="85" x="114" y="372.752">Processo Pai</text><rect fill="#E2E2F0" height="30.4883" rx="2.5" ry="2.5" style="stroke:#181818;stroke-width:0.5;" width="181" x="229" y="94.5547"/><text fill="#000000" font-family="sans-serif" font-size="14" lengthAdjust="spacing" textLength="167" x="236" y="115.0898">Processo Filho (Monitor)</text><rect fill="#E2E2F0" height="30.4883" rx="2.5" ry="2.5" style="stroke:#181818;stroke-width:0.5;" width="181" x="229" y="352.2168"/><text fill="#000000" font-family="sans-serif" font-size="14" lengthAdjust="spacing" textLength="167" x="236" y="372.752">Processo Filho (Monitor)</text><rect fill="#E2E2F0" height="30.4883" rx="2.5" ry="2.5" style="stroke:#181818;stroke-width:0.5;" width="63" x="420" y="94.5547"/><text fill="#000000" font-family="sans-serif" font-size="14" lengthAdjust="spacing" textLength="49" x="427" y="115.0898">Worker</text><rect fill="#E2E2F0" height="30.4883" rx="2.5" ry="2.5" style="stroke:#181818;stroke-width:0.5;" width="63" x="420" y="352.2168"/><text fill="#000000" font-family="sans-serif" font-size="14" lengthAdjust="spacing" textLength="49" x="427" y="372.752">Worker</text><rect fill="#FFFFFF" height="177.8633" style="stroke:#181818;stroke-width:1.0;" width="10" x="151.5" y="157.3535"/><rect fill="#FFFFFF" height="29.3105" style="stroke:#181818;stroke-width:1.0;" width="10" x="314.5" y="210.9746"/><rect fill="#FFFFFF" height="29.3105" style="stroke:#181818;stroke-width:1.0;" width="10" x="446.5" y="269.5957"/><polygon fill="#181818" points="139.5,153.3535,149.5,157.3535,139.5,161.3535,143.5,157.3535" style="stroke:#181818;stroke-width:1.0;"/><line style="stroke:#181818;stroke-width:1.0;" x1="23.5" x2="145.5" y1="157.3535" y2="157.3535"/><text fill="#000000" font-family="sans-serif" font-size="13" lengthAdjust="spacing" textLength="92" x="30.5" y="152.6113">Iniciar sistema</text><path d="M97,172.3535 L171,172.3535 L171,179.6641 L161,189.6641 L97,189.6641 L97,172.3535 " fill="#EEEEEE" style="stroke:#000000;stroke-width:1.5;"/><rect fill="none" height="134.5527" style="stroke:#000000;stroke-width:1.5;" width="396" x="97" y="172.3535"/><text fill="#000000" font-family="sans-serif" font-size="13" font-weight="bold" lengthAdjust="spacing" textLength="29" x="112" y="185.9219">loop</text><text fill="#000000" font-family="sans-serif" font-size="11" font-weight="bold" lengthAdjust="spacing" textLength="93" x="186" y="184.9883">[Monitoramento]</text><polygon fill="#181818" points="302.5,206.9746,312.5,210.9746,302.5,214.9746,306.5,210.9746" style="stroke:#181818;stroke-width:1.0;"/><line style="stroke:#181818;stroke-width:1.0;" x1="161.5" x2="308.5" y1="210.9746" y2="210.9746"/><text fill="#000000" font-family="sans-serif" font-size="13" lengthAdjust="spacing" textLength="119" x="168.5" y="206.2324">Monitorar diret&#243;rio</text><polygon fill="#181818" points="172.5,236.2852,162.5,240.2852,172.5,244.2852,168.5,240.2852" style="stroke:#181818;stroke-width:1.0;"/><line style="stroke:#181818;stroke-width:1.0;stroke-dasharray:2.0,2.0;" x1="166.5" x2="318.5" y1="240.2852" y2="240.2852"/><text fill="#000000" font-family="sans-serif" font-size="13" lengthAdjust="spacing" textLength="129" x="178.5" y="235.543">Arquivos detectados</text><polygon fill="#181818" points="434.5,265.5957,444.5,269.5957,434.5,273.5957,438.5,269.5957" style="stroke:#181818;stroke-width:1.0;"/><line style="stroke:#181818;stroke-width:1.0;" x1="161.5" x2="440.5" y1="269.5957" y2="269.5957"/><text fill="#000000" font-family="sans-serif" font-size="13" lengthAdjust="spacing" textLength="96" x="168.5" y="264.8535">Enviar arquivos</text><polygon fill="#181818" points="172.5,294.9063,162.5,298.9063,172.5,302.9063,168.5,298.9063" style="stroke:#181818;stroke-width:1.0;"/><line style="stroke:#181818;stroke-width:1.0;stroke-dasharray:2.0,2.0;" x1="166.5" x2="450.5" y1="298.9063" y2="298.9063"/><text fill="#000000" font-family="sans-serif" font-size="13" lengthAdjust="spacing" textLength="161" x="178.5" y="294.1641">Processamento conclu&#237;do</text><polygon fill="#181818" points="144.5,331.2168,154.5,335.2168,144.5,339.2168,148.5,335.2168" style="stroke:#181818;stroke-width:1.0;"/><line style="stroke:#181818;stroke-width:1.0;" x1="23.5" x2="150.5" y1="335.2168" y2="335.2168"/><text fill="#000000" font-family="sans-serif" font-size="13" lengthAdjust="spacing" textLength="104" x="30.5" y="330.4746">Encerrar sistema</text><!--SRC=[ZPBFJiCm3CRlUGfh9pXCb1shgH8IG-A0D6cQE9l40eisxfoq1zw94u-m5wDj2cet9f5J_dp-_BEToB4aM0V-e7oL5JiwDEGjmJtZgs85-nsiikpsPNtJImfZq4PHs0TIKwD6jboZZx3OgbWAGM2Bl00Cy7FHdIye7xXy4xXw4i-Tv_KiQdYRnpsBlfCEghGrfiU0PJ7DbSEZxq9G8N28L65Fp2r6cX6PKgI6CJLMvACOwDP4CpKUSF9VlO9ZfNZyKavXPpaI_zGnLRiyfRtJGyEj170KoKPq4eOmH__m72bJEtBO-BOl74VBETdOi_ukRSzPnaDg1rZnjcoEdqvEWKOhykx223RT5rATpE2FQlefV0C0]--></g></svg>