<?xml version="1.0" encoding="us-ascii" standalone="no"?><svg xmlns="http://www.w3.org/2000/svg" xmlns:xlink="http://www.w3.org/1999/xlink" contentStyleType="text/css" height="828px" preserveAspectRatio="none" style="width:1505px;height:828px;background:#FFFFFF;" version="1.1" viewBox="0 0 1505 828" width="1505px" zoomAndPan="magnify"><defs/><g><text fill="#000000" font-family="FG Virgil" font-size="20" font-weight="bold" lengthAdjust="spacing" textLength="284" x="609.5" y="34.3359">Sequence Diagram US 1011</text><rect fill="#FFFFFF" height="593.5215" style="stroke:#181818;stroke-width:1.0;" width="10" x="67" y="136.043"/><rect fill="#FFFFFF" height="556.9004" style="stroke:#181818;stroke-width:1.0;" width="10" x="380" y="172.6641"/><rect fill="#FFFFFF" height="87.9316" style="stroke:#181818;stroke-width:1.0;" width="10" x="838" y="260.5957"/><rect fill="#FFFFFF" height="263.7949" style="stroke:#181818;stroke-width:1.0;" width="10" x="838" y="436.459"/><rect fill="#FFFFFF" height="29.3105" style="stroke:#181818;stroke-width:1.0;" width="10" x="1053" y="583.0117"/><rect fill="#FFFFFF" height="29.3105" style="stroke:#181818;stroke-width:1.0;" width="10" x="1231.5" y="289.9063"/><rect fill="#FFFFFF" height="29.3105" style="stroke:#181818;stroke-width:1.0;" width="10" x="1416.5" y="465.7695"/><rect fill="#FFFFFF" height="29.3105" style="stroke:#181818;stroke-width:1.0;" width="10" x="1416.5" y="641.6328"/><line style="stroke:#181818;stroke-width:0.5;stroke-dasharray:5.0,5.0;" x1="72" x2="72" y1="126.043" y2="747.5645"/><line style="stroke:#181818;stroke-width:0.5;stroke-dasharray:5.0,5.0;" x1="385" x2="385" y1="126.043" y2="747.5645"/><line style="stroke:#181818;stroke-width:0.5;stroke-dasharray:5.0,5.0;" x1="843" x2="843" y1="126.043" y2="747.5645"/><line style="stroke:#181818;stroke-width:0.5;stroke-dasharray:5.0,5.0;" x1="1058" x2="1058" y1="126.043" y2="747.5645"/><line style="stroke:#181818;stroke-width:0.5;stroke-dasharray:5.0,5.0;" x1="1236" x2="1236" y1="126.043" y2="747.5645"/><line style="stroke:#181818;stroke-width:0.5;stroke-dasharray:5.0,5.0;" x1="1421" x2="1421" y1="126.043" y2="747.5645"/><text fill="#000000" font-family="FG Virgil" font-size="14" lengthAdjust="spacing" textLength="128" x="5" y="123.0898">LanguageEngineer</text><ellipse cx="72" cy="58.0547" fill="#ADD8E6" rx="8" ry="8" style="stroke:#181818;stroke-width:0.5;"/><path d="M72,66.0547 L72,93.0547 M59,74.0547 L85,74.0547 M72,93.0547 L59,108.0547 M72,93.0547 L85,108.0547 " fill="none" style="stroke:#181818;stroke-width:0.5;"/><text fill="#000000" font-family="FG Virgil" font-size="14" lengthAdjust="spacing" textLength="128" x="5" y="760.0996">LanguageEngineer</text><ellipse cx="72" cy="771.5527" fill="#ADD8E6" rx="8" ry="8" style="stroke:#181818;stroke-width:0.5;"/><path d="M72,779.5527 L72,806.5527 M59,787.5527 L85,787.5527 M72,806.5527 L59,821.5527 M72,806.5527 L85,821.5527 " fill="none" style="stroke:#181818;stroke-width:0.5;"/><rect fill="#E2E2F0" height="46.9766" rx="2.5" ry="2.5" style="stroke:#181818;stroke-width:0.5;" width="176" x="297" y="78.0664"/><text fill="#000000" font-family="FG Virgil" font-size="14" font-style="italic" lengthAdjust="spacing" textLength="101" x="334.5" y="98.6016">&#171;presentation&#187;</text><text fill="#000000" font-family="FG Virgil" font-size="14" lengthAdjust="spacing" textLength="162" x="304" y="115.0898">:SelectInterviewModelUI</text><rect fill="#E2E2F0" height="46.9766" rx="2.5" ry="2.5" style="stroke:#181818;stroke-width:0.5;" width="176" x="297" y="746.5645"/><text fill="#000000" font-family="FG Virgil" font-size="14" font-style="italic" lengthAdjust="spacing" textLength="101" x="334.5" y="767.0996">&#171;presentation&#187;</text><text fill="#000000" font-family="FG Virgil" font-size="14" lengthAdjust="spacing" textLength="162" x="304" y="783.5879">:SelectInterviewModelUI</text><rect fill="#E2E2F0" height="46.9766" rx="2.5" ry="2.5" style="stroke:#181818;stroke-width:0.5;" width="232" x="727" y="78.0664"/><text fill="#000000" font-family="FG Virgil" font-size="14" font-style="italic" lengthAdjust="spacing" textLength="90" x="798" y="98.6016">&#171;application&#187;</text><text fill="#000000" font-family="FG Virgil" font-size="14" lengthAdjust="spacing" textLength="218" x="734" y="115.0898">:SelectInterviewModelController</text><rect fill="#E2E2F0" height="46.9766" rx="2.5" ry="2.5" style="stroke:#181818;stroke-width:0.5;" width="232" x="727" y="746.5645"/><text fill="#000000" font-family="FG Virgil" font-size="14" font-style="italic" lengthAdjust="spacing" textLength="90" x="798" y="767.0996">&#171;application&#187;</text><text fill="#000000" font-family="FG Virgil" font-size="14" lengthAdjust="spacing" textLength="218" x="734" y="783.5879">:SelectInterviewModelController</text><rect fill="#E2E2F0" height="46.9766" rx="2.5" ry="2.5" style="stroke:#181818;stroke-width:0.5;" width="142" x="987" y="78.0664"/><text fill="#000000" font-family="FG Virgil" font-size="14" font-style="italic" lengthAdjust="spacing" textLength="66" x="1025" y="98.6016">&#171;domain&#187;</text><text fill="#000000" font-family="FG Virgil" font-size="14" lengthAdjust="spacing" textLength="128" x="994" y="115.0898">interview:Interview</text><rect fill="#E2E2F0" height="46.9766" rx="2.5" ry="2.5" style="stroke:#181818;stroke-width:0.5;" width="142" x="987" y="746.5645"/><text fill="#000000" font-family="FG Virgil" font-size="14" font-style="italic" lengthAdjust="spacing" textLength="66" x="1025" y="767.0996">&#171;domain&#187;</text><text fill="#000000" font-family="FG Virgil" font-size="14" lengthAdjust="spacing" textLength="128" x="994" y="783.5879">interview:Interview</text><rect fill="#E2E2F0" height="46.9766" rx="2.5" ry="2.5" style="stroke:#181818;stroke-width:0.5;" width="195" x="1139" y="78.0664"/><text fill="#000000" font-family="FG Virgil" font-size="14" font-style="italic" lengthAdjust="spacing" textLength="84" x="1194.5" y="98.6016">&#171;repository&#187;</text><text fill="#000000" font-family="FG Virgil" font-size="14" lengthAdjust="spacing" textLength="181" x="1146" y="115.0898">:InterviewModelRepository</text><rect fill="#E2E2F0" height="46.9766" rx="2.5" ry="2.5" style="stroke:#181818;stroke-width:0.5;" width="195" x="1139" y="746.5645"/><text fill="#000000" font-family="FG Virgil" font-size="14" font-style="italic" lengthAdjust="spacing" textLength="84" x="1194.5" y="767.0996">&#171;repository&#187;</text><text fill="#000000" font-family="FG Virgil" font-size="14" lengthAdjust="spacing" textLength="181" x="1146" y="783.5879">:InterviewModelRepository</text><rect fill="#E2E2F0" height="46.9766" rx="2.5" ry="2.5" style="stroke:#181818;stroke-width:0.5;" width="155" x="1344" y="78.0664"/><text fill="#000000" font-family="FG Virgil" font-size="14" font-style="italic" lengthAdjust="spacing" textLength="84" x="1379.5" y="98.6016">&#171;repository&#187;</text><text fill="#000000" font-family="FG Virgil" font-size="14" lengthAdjust="spacing" textLength="141" x="1351" y="115.0898">:InterviewRepositoru</text><rect fill="#E2E2F0" height="46.9766" rx="2.5" ry="2.5" style="stroke:#181818;stroke-width:0.5;" width="155" x="1344" y="746.5645"/><text fill="#000000" font-family="FG Virgil" font-size="14" font-style="italic" lengthAdjust="spacing" textLength="84" x="1379.5" y="767.0996">&#171;repository&#187;</text><text fill="#000000" font-family="FG Virgil" font-size="14" lengthAdjust="spacing" textLength="141" x="1351" y="783.5879">:InterviewRepositoru</text><rect fill="#FFFFFF" height="593.5215" style="stroke:#181818;stroke-width:1.0;" width="10" x="67" y="136.043"/><rect fill="#FFFFFF" height="556.9004" style="stroke:#181818;stroke-width:1.0;" width="10" x="380" y="172.6641"/><rect fill="#FFFFFF" height="87.9316" style="stroke:#181818;stroke-width:1.0;" width="10" x="838" y="260.5957"/><rect fill="#FFFFFF" height="263.7949" style="stroke:#181818;stroke-width:1.0;" width="10" x="838" y="436.459"/><rect fill="#FFFFFF" height="29.3105" style="stroke:#181818;stroke-width:1.0;" width="10" x="1053" y="583.0117"/><rect fill="#FFFFFF" height="29.3105" style="stroke:#181818;stroke-width:1.0;" width="10" x="1231.5" y="289.9063"/><rect fill="#FFFFFF" height="29.3105" style="stroke:#181818;stroke-width:1.0;" width="10" x="1416.5" y="465.7695"/><rect fill="#FFFFFF" height="29.3105" style="stroke:#181818;stroke-width:1.0;" width="10" x="1416.5" y="641.6328"/><polygon fill="#181818" points="368,168.6641,378,172.6641,368,176.6641,372,172.6641" style="stroke:#181818;stroke-width:1.0;"/><line style="stroke:#181818;stroke-width:1.0;" x1="77" x2="374" y1="172.6641" y2="172.6641"/><text fill="#000000" font-family="FG Virgil" font-size="13" lengthAdjust="spacing" textLength="211" x="84" y="152.6113">Asks to select an Interview Model</text><text fill="#000000" font-family="FG Virgil" font-size="13" lengthAdjust="spacing" textLength="168" x="84" y="167.9219">to be used for an Interview</text><polygon fill="#181818" points="88,197.9746,78,201.9746,88,205.9746,84,201.9746" style="stroke:#181818;stroke-width:1.0;"/><line style="stroke:#181818;stroke-width:1.0;stroke-dasharray:2.0,2.0;" x1="82" x2="379" y1="201.9746" y2="201.9746"/><text fill="#000000" font-family="FG Virgil" font-size="13" lengthAdjust="spacing" textLength="166" x="94" y="197.2324">Asks for the Interview's ID</text><polygon fill="#181818" points="368,227.2852,378,231.2852,368,235.2852,372,231.2852" style="stroke:#181818;stroke-width:1.0;"/><line style="stroke:#181818;stroke-width:1.0;" x1="77" x2="374" y1="231.2852" y2="231.2852"/><text fill="#000000" font-family="FG Virgil" font-size="13" lengthAdjust="spacing" textLength="166" x="84" y="226.543">Provides the Interview's ID</text><polygon fill="#181818" points="826,256.5957,836,260.5957,826,264.5957,830,260.5957" style="stroke:#181818;stroke-width:1.0;"/><line style="stroke:#181818;stroke-width:1.0;" x1="390" x2="832" y1="260.5957" y2="260.5957"/><text fill="#000000" font-family="FG Virgil" font-size="13" lengthAdjust="spacing" textLength="165" x="397" y="255.8535">findInterviewByID(Long id)</text><polygon fill="#181818" points="1219.5,285.9063,1229.5,289.9063,1219.5,293.9063,1223.5,289.9063" style="stroke:#181818;stroke-width:1.0;"/><line style="stroke:#181818;stroke-width:1.0;" x1="848" x2="1225.5" y1="289.9063" y2="289.9063"/><text fill="#000000" font-family="FG Virgil" font-size="13" lengthAdjust="spacing" textLength="73" x="855" y="285.1641">findByID(id)</text><polygon fill="#181818" points="859,315.2168,849,319.2168,859,323.2168,855,319.2168" style="stroke:#181818;stroke-width:1.0;"/><line style="stroke:#181818;stroke-width:1.0;stroke-dasharray:2.0,2.0;" x1="853" x2="1235.5" y1="319.2168" y2="319.2168"/><text fill="#000000" font-family="FG Virgil" font-size="13" lengthAdjust="spacing" textLength="57" x="865" y="314.4746">interview</text><polygon fill="#181818" points="401,344.5273,391,348.5273,401,352.5273,397,348.5273" style="stroke:#181818;stroke-width:1.0;"/><line style="stroke:#181818;stroke-width:1.0;stroke-dasharray:2.0,2.0;" x1="395" x2="842" y1="348.5273" y2="348.5273"/><text fill="#000000" font-family="FG Virgil" font-size="13" lengthAdjust="spacing" textLength="57" x="407" y="343.7852">interview</text><polygon fill="#181818" points="88,373.8379,78,377.8379,88,381.8379,84,377.8379" style="stroke:#181818;stroke-width:1.0;"/><line style="stroke:#181818;stroke-width:1.0;stroke-dasharray:2.0,2.0;" x1="82" x2="379" y1="377.8379" y2="377.8379"/><text fill="#000000" font-family="FG Virgil" font-size="13" lengthAdjust="spacing" textLength="279" x="94" y="373.0957">Asks for Interview Model Specification name</text><polygon fill="#181818" points="368,403.1484,378,407.1484,368,411.1484,372,407.1484" style="stroke:#181818;stroke-width:1.0;"/><line style="stroke:#181818;stroke-width:1.0;" x1="77" x2="374" y1="407.1484" y2="407.1484"/><text fill="#000000" font-family="FG Virgil" font-size="13" lengthAdjust="spacing" textLength="279" x="84" y="402.4063">Provides Interview Model Specification name</text><polygon fill="#181818" points="826,432.459,836,436.459,826,440.459,830,436.459" style="stroke:#181818;stroke-width:1.0;"/><line style="stroke:#181818;stroke-width:1.0;" x1="390" x2="832" y1="436.459" y2="436.459"/><text fill="#000000" font-family="FG Virgil" font-size="13" lengthAdjust="spacing" textLength="253" x="397" y="431.7168">findInterviewModelByName(String name)</text><polygon fill="#181818" points="1404.5,461.7695,1414.5,465.7695,1404.5,469.7695,1408.5,465.7695" style="stroke:#181818;stroke-width:1.0;"/><line style="stroke:#181818;stroke-width:1.0;" x1="848" x2="1410.5" y1="465.7695" y2="465.7695"/><text fill="#000000" font-family="FG Virgil" font-size="13" lengthAdjust="spacing" textLength="158" x="855" y="461.0273">findByName(String name)</text><polygon fill="#181818" points="859,491.0801,849,495.0801,859,499.0801,855,495.0801" style="stroke:#181818;stroke-width:1.0;"/><line style="stroke:#181818;stroke-width:1.0;stroke-dasharray:2.0,2.0;" x1="853" x2="1420.5" y1="495.0801" y2="495.0801"/><text fill="#000000" font-family="FG Virgil" font-size="13" lengthAdjust="spacing" textLength="95" x="865" y="490.3379">interviewModel</text><polygon fill="#181818" points="401,520.3906,391,524.3906,401,528.3906,397,524.3906" style="stroke:#181818;stroke-width:1.0;"/><line style="stroke:#181818;stroke-width:1.0;stroke-dasharray:2.0,2.0;" x1="395" x2="837" y1="524.3906" y2="524.3906"/><text fill="#000000" font-family="FG Virgil" font-size="13" lengthAdjust="spacing" textLength="95" x="407" y="519.6484">interviewModel</text><polygon fill="#181818" points="826,549.7012,836,553.7012,826,557.7012,830,553.7012" style="stroke:#181818;stroke-width:1.0;"/><line style="stroke:#181818;stroke-width:1.0;" x1="390" x2="832" y1="553.7012" y2="553.7012"/><text fill="#000000" font-family="FG Virgil" font-size="13" lengthAdjust="spacing" textLength="424" x="397" y="548.959">associateInterviewModelToInterview(String interviewName, Long id)</text><polygon fill="#181818" points="1041,579.0117,1051,583.0117,1041,587.0117,1045,583.0117" style="stroke:#181818;stroke-width:1.0;"/><line style="stroke:#181818;stroke-width:1.0;" x1="848" x2="1047" y1="583.0117" y2="583.0117"/><text fill="#000000" font-family="FG Virgil" font-size="13" lengthAdjust="spacing" textLength="186" x="855" y="578.2695">updateInterviewModel(plugin)</text><polygon fill="#181818" points="859,608.3223,849,612.3223,859,616.3223,855,612.3223" style="stroke:#181818;stroke-width:1.0;"/><line style="stroke:#181818;stroke-width:1.0;stroke-dasharray:2.0,2.0;" x1="853" x2="1057" y1="612.3223" y2="612.3223"/><text fill="#000000" font-family="FG Virgil" font-size="13" lengthAdjust="spacing" textLength="57" x="865" y="607.5801">interview</text><polygon fill="#181818" points="1404.5,637.6328,1414.5,641.6328,1404.5,645.6328,1408.5,641.6328" style="stroke:#181818;stroke-width:1.0;"/><line style="stroke:#181818;stroke-width:1.0;" x1="848" x2="1410.5" y1="641.6328" y2="641.6328"/><text fill="#000000" font-family="FG Virgil" font-size="13" lengthAdjust="spacing" textLength="93" x="855" y="636.8906">save(interview)</text><polygon fill="#181818" points="859,666.9434,849,670.9434,859,674.9434,855,670.9434" style="stroke:#181818;stroke-width:1.0;"/><line style="stroke:#181818;stroke-width:1.0;stroke-dasharray:2.0,2.0;" x1="853" x2="1420.5" y1="670.9434" y2="670.9434"/><text fill="#000000" font-family="FG Virgil" font-size="13" lengthAdjust="spacing" textLength="57" x="865" y="666.2012">interview</text><polygon fill="#181818" points="401,696.2539,391,700.2539,401,704.2539,397,700.2539" style="stroke:#181818;stroke-width:1.0;"/><line style="stroke:#181818;stroke-width:1.0;stroke-dasharray:2.0,2.0;" x1="395" x2="842" y1="700.2539" y2="700.2539"/><text fill="#000000" font-family="FG Virgil" font-size="13" lengthAdjust="spacing" textLength="57" x="407" y="695.5117">interview</text><polygon fill="#181818" points="83,725.5645,73,729.5645,83,733.5645,79,729.5645" style="stroke:#181818;stroke-width:1.0;"/><line style="stroke:#181818;stroke-width:1.0;stroke-dasharray:2.0,2.0;" x1="77" x2="384" y1="729.5645" y2="729.5645"/><text fill="#000000" font-family="FG Virgil" font-size="13" lengthAdjust="spacing" textLength="232" x="89" y="724.8223">Displays Operation Success Message</text><!--SRC=[jPLHRzem4CVV-HIdxc5C6bhPOuIGsh5EaSesBMLFUt6J8rWOsxCTAlRfTqweupH0QRNv0M5y_z-TxsyRnvr0c5Z-1vEFbzCCVrSeSuGPPwLX6rXaCBuSZoSVVCHqCB1hBZNpAnibLRuoQeEmPC9YjAHPlcObPcv7R8EvYzOANB9Ak1ibtLT6sfily9ERaeiengvOeHwuBFVa0SkTCd3BP5aHzxCikKGqm2nSrIjl12zNxbvKE222updNJ3guI38Kb3wL3isMuyDS5IWMwOLNBbAOJBH1Yz8nnvMSJiyGVwAwZH82JGrffmHZMWkU7sJnHqWISBL-fZQCIz8MzPTU2TtaFr0hosd3krgSpjiV2672v3Wc2Ag6S1pWUywtp67Jui40Q3JT7asfUGbSsRK5fy3MRG8c8QI1kjnVabRl4IgB1In968VKl91ZaJO9_5Ya8yfGfzedyLgtmbRybagV1K6dgkz6RNc1zfI0hAVerhi4bbmM8VXwbyw6jugE7o_U1L6ejTMrDViHdGMYn-Oq_1eR4plKEBxBzQDZzUX9yU5mTNK5dW6FYzvty00kGXtQlU_d0SkU70V8DEPykRyX8EdsFsFX2m3FM5hhhtV-nHbcplYdnSjVxsxVtEFihiydRJx7vNelnwr-ZTCDCexkzvDPgt9EARfDlLDX_hZxWFKjUG-zczHlP_CC9b3fefTWg4L5x_sHTZRAVYVt3-lBhyeXu0dlBTlYC53_c-V_rkvNNkmPjrgmdOLl6arp1xCgpz5QcDC7_JCtoWZgt_LesloL_0K0]--></g></svg>