<?xml version="1.0" encoding="us-ascii" standalone="no"?><svg xmlns="http://www.w3.org/2000/svg" xmlns:xlink="http://www.w3.org/1999/xlink" contentStyleType="text/css" height="1294px" preserveAspectRatio="none" style="width:2124px;height:1294px;background:#FFFFFF;" version="1.1" viewBox="0 0 2124 1294" width="2124px" zoomAndPan="magnify"><defs/><g><text fill="#000000" font-family="FG Virgil" font-size="20" font-weight="bold" lengthAdjust="spacing" textLength="284" x="919" y="34.3359">Sequence Diagram US 1002</text><rect fill="#FFFFFF" height="1059.7324" style="stroke:#181818;stroke-width:1.0;" width="10" x="66.5" y="136.043"/><rect fill="#FFFFFF" height="1038.4219" style="stroke:#181818;stroke-width:1.0;" width="10" x="470.5" y="157.3535"/><rect fill="#FFFFFF" height="979.8008" style="stroke:#181818;stroke-width:1.0;" width="10" x="930.5" y="186.6641"/><rect fill="#FFFFFF" height="734.0742" style="stroke:#181818;stroke-width:1.0;" width="10" x="1183.5" y="461.7012"/><rect fill="#FFFFFF" height="29.3105" style="stroke:#181818;stroke-width:1.0;" width="10" x="1582.5" y="931.9805"/><rect fill="#FFFFFF" height="175.8633" style="stroke:#181818;stroke-width:1.0;" width="10" x="1715" y="1019.9121"/><rect fill="#FFFFFF" height="146.5527" style="stroke:#181818;stroke-width:1.0;" width="10" x="1866.5" y="1049.2227"/><rect fill="#FFFFFF" height="117.2422" style="stroke:#181818;stroke-width:1.0;" width="10" x="2029" y="1078.5332"/><line style="stroke:#181818;stroke-width:0.5;stroke-dasharray:5.0,5.0;" x1="71" x2="71" y1="126.043" y2="1213.7754"/><line style="stroke:#181818;stroke-width:0.5;stroke-dasharray:5.0,5.0;" x1="475" x2="475" y1="126.043" y2="1213.7754"/><line style="stroke:#181818;stroke-width:0.5;stroke-dasharray:5.0,5.0;" x1="935" x2="935" y1="126.043" y2="1213.7754"/><line style="stroke:#181818;stroke-width:0.5;stroke-dasharray:5.0,5.0;" x1="1188" x2="1188" y1="126.043" y2="1213.7754"/><line style="stroke:#181818;stroke-width:0.5;stroke-dasharray:5.0,5.0;" x1="1587" x2="1587" y1="126.043" y2="1213.7754"/><line style="stroke:#181818;stroke-width:0.5;stroke-dasharray:5.0,5.0;" x1="1720" x2="1720" y1="126.043" y2="1213.7754"/><line style="stroke:#181818;stroke-width:0.5;stroke-dasharray:5.0,5.0;" x1="1871" x2="1871" y1="126.043" y2="1213.7754"/><line style="stroke:#181818;stroke-width:0.5;stroke-dasharray:5.0,5.0;" x1="2034" x2="2034" y1="126.043" y2="1213.7754"/><text fill="#000000" font-family="FG Virgil" font-size="14" lengthAdjust="spacing" textLength="127" x="5" y="123.0898">CustomerManager</text><ellipse cx="71.5" cy="58.0547" fill="#E3E3E3" rx="8" ry="8" style="stroke:#181818;stroke-width:0.5;"/><path d="M71.5,66.0547 L71.5,93.0547 M58.5,74.0547 L84.5,74.0547 M71.5,93.0547 L58.5,108.0547 M71.5,93.0547 L84.5,108.0547 " fill="none" style="stroke:#181818;stroke-width:0.5;"/><text fill="#000000" font-family="FG Virgil" font-size="14" lengthAdjust="spacing" textLength="127" x="5" y="1226.3105">CustomerManager</text><ellipse cx="71.5" cy="1237.7637" fill="#E3E3E3" rx="8" ry="8" style="stroke:#181818;stroke-width:0.5;"/><path d="M71.5,1245.7637 L71.5,1272.7637 M58.5,1253.7637 L84.5,1253.7637 M71.5,1272.7637 L58.5,1287.7637 M71.5,1272.7637 L84.5,1287.7637 " fill="none" style="stroke:#181818;stroke-width:0.5;"/><rect fill="#E3E3E3" height="46.9766" rx="2.5" ry="2.5" style="stroke:#181818;stroke-width:0.5;" width="169" x="391" y="78.0664"/><text fill="#000000" font-family="FG Virgil" font-size="14" font-style="italic" lengthAdjust="spacing" textLength="101" x="425" y="98.6016">&#171;presentation&#187;</text><text fill="#000000" font-family="FG Virgil" font-size="14" lengthAdjust="spacing" textLength="155" x="398" y="115.0898">:RegisterJobOpeningUI</text><rect fill="#E3E3E3" height="46.9766" rx="2.5" ry="2.5" style="stroke:#181818;stroke-width:0.5;" width="169" x="391" y="1212.7754"/><text fill="#000000" font-family="FG Virgil" font-size="14" font-style="italic" lengthAdjust="spacing" textLength="101" x="425" y="1233.3105">&#171;presentation&#187;</text><text fill="#000000" font-family="FG Virgil" font-size="14" lengthAdjust="spacing" textLength="155" x="398" y="1249.7988">:RegisterJobOpeningUI</text><rect fill="#E3E3E3" height="46.9766" rx="2.5" ry="2.5" style="stroke:#181818;stroke-width:0.5;" width="225" x="823" y="78.0664"/><text fill="#000000" font-family="FG Virgil" font-size="14" font-style="italic" lengthAdjust="spacing" textLength="90" x="890.5" y="98.6016">&#171;application&#187;</text><text fill="#000000" font-family="FG Virgil" font-size="14" lengthAdjust="spacing" textLength="211" x="830" y="115.0898">:RegisterJobOpeningController</text><rect fill="#E3E3E3" height="46.9766" rx="2.5" ry="2.5" style="stroke:#181818;stroke-width:0.5;" width="225" x="823" y="1212.7754"/><text fill="#000000" font-family="FG Virgil" font-size="14" font-style="italic" lengthAdjust="spacing" textLength="90" x="890.5" y="1233.3105">&#171;application&#187;</text><text fill="#000000" font-family="FG Virgil" font-size="14" lengthAdjust="spacing" textLength="211" x="830" y="1249.7988">:RegisterJobOpeningController</text><rect fill="#E3E3E3" height="46.9766" rx="2.5" ry="2.5" style="stroke:#181818;stroke-width:0.5;" width="147" x="1115" y="78.0664"/><text fill="#000000" font-family="FG Virgil" font-size="14" font-style="italic" lengthAdjust="spacing" textLength="63" x="1157" y="98.6016">&#171;builder&#187;</text><text fill="#000000" font-family="FG Virgil" font-size="14" lengthAdjust="spacing" textLength="133" x="1122" y="115.0898">:JobOpeningBuilder</text><rect fill="#E3E3E3" height="46.9766" rx="2.5" ry="2.5" style="stroke:#181818;stroke-width:0.5;" width="147" x="1115" y="1212.7754"/><text fill="#000000" font-family="FG Virgil" font-size="14" font-style="italic" lengthAdjust="spacing" textLength="63" x="1157" y="1233.3105">&#171;builder&#187;</text><text fill="#000000" font-family="FG Virgil" font-size="14" lengthAdjust="spacing" textLength="133" x="1122" y="1249.7988">:JobOpeningBuilder</text><rect fill="#E3E3E3" height="46.9766" rx="2.5" ry="2.5" style="stroke:#181818;stroke-width:0.5;" width="99" x="1538" y="78.0664"/><text fill="#000000" font-family="FG Virgil" font-size="14" font-style="italic" lengthAdjust="spacing" textLength="66" x="1554.5" y="98.6016">&#171;domain&#187;</text><text fill="#000000" font-family="FG Virgil" font-size="14" lengthAdjust="spacing" textLength="85" x="1545" y="115.0898">:JobOpening</text><rect fill="#E3E3E3" height="46.9766" rx="2.5" ry="2.5" style="stroke:#181818;stroke-width:0.5;" width="99" x="1538" y="1212.7754"/><text fill="#000000" font-family="FG Virgil" font-size="14" font-style="italic" lengthAdjust="spacing" textLength="66" x="1554.5" y="1233.3105">&#171;domain&#187;</text><text fill="#000000" font-family="FG Virgil" font-size="14" lengthAdjust="spacing" textLength="85" x="1545" y="1249.7988">:JobOpening</text><rect fill="#E3E3E3" height="46.9766" rx="2.5" ry="2.5" style="stroke:#181818;stroke-width:0.5;" width="146" x="1647" y="78.0664"/><text fill="#000000" font-family="FG Virgil" font-size="14" font-style="italic" lengthAdjust="spacing" textLength="88" x="1676" y="98.6016">&#171;framework&#187;</text><text fill="#000000" font-family="FG Virgil" font-size="14" lengthAdjust="spacing" textLength="132" x="1654" y="115.0898">PersistenceContext</text><rect fill="#E3E3E3" height="46.9766" rx="2.5" ry="2.5" style="stroke:#181818;stroke-width:0.5;" width="146" x="1647" y="1212.7754"/><text fill="#000000" font-family="FG Virgil" font-size="14" font-style="italic" lengthAdjust="spacing" textLength="88" x="1676" y="1233.3105">&#171;framework&#187;</text><text fill="#000000" font-family="FG Virgil" font-size="14" lengthAdjust="spacing" textLength="132" x="1654" y="1249.7988">PersistenceContext</text><rect fill="#E3E3E3" height="46.9766" rx="2.5" ry="2.5" style="stroke:#181818;stroke-width:0.5;" width="137" x="1803" y="78.0664"/><text fill="#000000" font-family="FG Virgil" font-size="14" font-style="italic" lengthAdjust="spacing" textLength="88" x="1827.5" y="98.6016">&#171;framework&#187;</text><text fill="#000000" font-family="FG Virgil" font-size="14" lengthAdjust="spacing" textLength="123" x="1810" y="115.0898">RepositoryFactory</text><rect fill="#E3E3E3" height="46.9766" rx="2.5" ry="2.5" style="stroke:#181818;stroke-width:0.5;" width="137" x="1803" y="1212.7754"/><text fill="#000000" font-family="FG Virgil" font-size="14" font-style="italic" lengthAdjust="spacing" textLength="88" x="1827.5" y="1233.3105">&#171;framework&#187;</text><text fill="#000000" font-family="FG Virgil" font-size="14" lengthAdjust="spacing" textLength="123" x="1810" y="1249.7988">RepositoryFactory</text><rect fill="#E3E3E3" height="46.9766" rx="2.5" ry="2.5" style="stroke:#181818;stroke-width:0.5;" width="168" x="1950" y="78.0664"/><text fill="#000000" font-family="FG Virgil" font-size="14" font-style="italic" lengthAdjust="spacing" textLength="84" x="1992" y="98.6016">&#171;repository&#187;</text><text fill="#000000" font-family="FG Virgil" font-size="14" lengthAdjust="spacing" textLength="154" x="1957" y="115.0898">JobOpeningRepository</text><rect fill="#E3E3E3" height="46.9766" rx="2.5" ry="2.5" style="stroke:#181818;stroke-width:0.5;" width="168" x="1950" y="1212.7754"/><text fill="#000000" font-family="FG Virgil" font-size="14" font-style="italic" lengthAdjust="spacing" textLength="84" x="1992" y="1233.3105">&#171;repository&#187;</text><text fill="#000000" font-family="FG Virgil" font-size="14" lengthAdjust="spacing" textLength="154" x="1957" y="1249.7988">JobOpeningRepository</text><rect fill="#FFFFFF" height="1059.7324" style="stroke:#181818;stroke-width:1.0;" width="10" x="66.5" y="136.043"/><rect fill="#FFFFFF" height="1038.4219" style="stroke:#181818;stroke-width:1.0;" width="10" x="470.5" y="157.3535"/><rect fill="#FFFFFF" height="979.8008" style="stroke:#181818;stroke-width:1.0;" width="10" x="930.5" y="186.6641"/><rect fill="#FFFFFF" height="734.0742" style="stroke:#181818;stroke-width:1.0;" width="10" x="1183.5" y="461.7012"/><rect fill="#FFFFFF" height="29.3105" style="stroke:#181818;stroke-width:1.0;" width="10" x="1582.5" y="931.9805"/><rect fill="#FFFFFF" height="175.8633" style="stroke:#181818;stroke-width:1.0;" width="10" x="1715" y="1019.9121"/><rect fill="#FFFFFF" height="146.5527" style="stroke:#181818;stroke-width:1.0;" width="10" x="1866.5" y="1049.2227"/><rect fill="#FFFFFF" height="117.2422" style="stroke:#181818;stroke-width:1.0;" width="10" x="2029" y="1078.5332"/><polygon fill="#181818" points="458.5,153.3535,468.5,157.3535,458.5,161.3535,462.5,157.3535" style="stroke:#181818;stroke-width:1.0;"/><line style="stroke:#181818;stroke-width:1.0;" x1="76.5" x2="464.5" y1="157.3535" y2="157.3535"/><text fill="#000000" font-family="FG Virgil" font-size="13" lengthAdjust="spacing" textLength="219" x="83.5" y="152.6113">Asks to register a new job opening</text><polygon fill="#181818" points="918.5,182.6641,928.5,186.6641,918.5,190.6641,922.5,186.6641" style="stroke:#181818;stroke-width:1.0;"/><line style="stroke:#181818;stroke-width:1.0;" x1="480.5" x2="924.5" y1="186.6641" y2="186.6641"/><text fill="#000000" font-family="FG Virgil" font-size="13" lengthAdjust="spacing" textLength="38" x="487.5" y="181.9219">create</text><polygon fill="#181818" points="87.5,257.9063,77.5,261.9063,87.5,265.9063,83.5,261.9063" style="stroke:#181818;stroke-width:1.0;"/><line style="stroke:#181818;stroke-width:1.0;stroke-dasharray:2.0,2.0;" x1="81.5" x2="469.5" y1="261.9063" y2="261.9063"/><text fill="#000000" font-family="FG Virgil" font-size="13" lengthAdjust="spacing" textLength="183" x="93.5" y="211.2324">Ask Job Opening information</text><text fill="#000000" font-family="FG Virgil" font-size="13" lengthAdjust="spacing" textLength="305" x="93.5" y="226.543">(jobReference, company, contractType, function,</text><text fill="#000000" font-family="FG Virgil" font-size="13" lengthAdjust="spacing" textLength="366" x="97.5" y="241.8535">address, mode, vacancies, requirements, interview, phaseEnum,</text><text fill="#000000" font-family="FG Virgil" font-size="13" lengthAdjust="spacing" textLength="222" x="97.5" y="257.1641">startDate, endDate, jobApplication)</text><polygon fill="#181818" points="458.5,317.8379,468.5,321.8379,458.5,325.8379,462.5,321.8379" style="stroke:#181818;stroke-width:1.0;"/><line style="stroke:#181818;stroke-width:1.0;" x1="76.5" x2="464.5" y1="321.8379" y2="321.8379"/><text fill="#000000" font-family="FG Virgil" font-size="13" lengthAdjust="spacing" textLength="342" x="83.5" y="286.4746">Types jobReference, company, contractType, function,</text><text fill="#000000" font-family="FG Virgil" font-size="13" lengthAdjust="spacing" textLength="362" x="87.5" y="301.7852">address, mode, vacancies, requirements,interview, phaseEnum,</text><text fill="#000000" font-family="FG Virgil" font-size="13" lengthAdjust="spacing" textLength="338" x="87.5" y="317.0957">startDate, endDate, jobApplication of the job opening</text><polygon fill="#181818" points="918.5,377.7695,928.5,381.7695,918.5,385.7695,922.5,381.7695" style="stroke:#181818;stroke-width:1.0;"/><line style="stroke:#181818;stroke-width:1.0;" x1="480.5" x2="924.5" y1="381.7695" y2="381.7695"/><text fill="#000000" font-family="FG Virgil" font-size="13" lengthAdjust="spacing" textLength="426" x="487.5" y="346.4063">registerJobOpening(jobReference, company, contractType, function,</text><text fill="#000000" font-family="FG Virgil" font-size="13" lengthAdjust="spacing" textLength="366" x="491.5" y="361.7168">address, mode, vacancies, requirements, interview, phaseEnum,</text><text fill="#000000" font-family="FG Virgil" font-size="13" lengthAdjust="spacing" textLength="222" x="491.5" y="377.0273">startDate, endDate, jobApplication)</text><path d="M1193,394.7695 L1193,434.7695 L1442,434.7695 L1442,404.7695 L1432,394.7695 L1193,394.7695 " fill="#FAFAFA" style="stroke:#181818;stroke-width:0.5;"/><path d="M1432,394.7695 L1432,404.7695 L1442,404.7695 L1432,394.7695 " fill="#FAFAFA" style="stroke:#181818;stroke-width:0.5;"/><text fill="#000000" font-family="FG Virgil" font-size="13" lengthAdjust="spacing" textLength="224" x="1199" y="412.3379">JobOpeningBuilder is used to create</text><text fill="#000000" font-family="FG Virgil" font-size="13" lengthAdjust="spacing" textLength="158" x="1199" y="427.6484">a valid JobOpening entity</text><polygon fill="#181818" points="1171.5,457.7012,1181.5,461.7012,1171.5,465.7012,1175.5,461.7012" style="stroke:#181818;stroke-width:1.0;"/><line style="stroke:#181818;stroke-width:1.0;" x1="940.5" x2="1177.5" y1="461.7012" y2="461.7012"/><text fill="#000000" font-family="FG Virgil" font-size="13" lengthAdjust="spacing" textLength="38" x="947.5" y="456.959">create</text><polygon fill="#181818" points="1171.5,487.0117,1181.5,491.0117,1171.5,495.0117,1175.5,491.0117" style="stroke:#181818;stroke-width:1.0;"/><line style="stroke:#181818;stroke-width:1.0;" x1="940.5" x2="1177.5" y1="491.0117" y2="491.0117"/><text fill="#000000" font-family="FG Virgil" font-size="13" lengthAdjust="spacing" textLength="197" x="947.5" y="486.2695">withJobReference(jobReference)</text><polygon fill="#181818" points="1171.5,516.3223,1181.5,520.3223,1171.5,524.3223,1175.5,520.3223" style="stroke:#181818;stroke-width:1.0;"/><line style="stroke:#181818;stroke-width:1.0;" x1="940.5" x2="1177.5" y1="520.3223" y2="520.3223"/><text fill="#000000" font-family="FG Virgil" font-size="13" lengthAdjust="spacing" textLength="151" x="947.5" y="515.5801">withCompany(company)</text><polygon fill="#181818" points="1171.5,545.6328,1181.5,549.6328,1171.5,553.6328,1175.5,549.6328" style="stroke:#181818;stroke-width:1.0;"/><line style="stroke:#181818;stroke-width:1.0;" x1="940.5" x2="1177.5" y1="549.6328" y2="549.6328"/><text fill="#000000" font-family="FG Virgil" font-size="13" lengthAdjust="spacing" textLength="201" x="947.5" y="544.8906">withContractType(contractType)</text><polygon fill="#181818" points="1171.5,574.9434,1181.5,578.9434,1171.5,582.9434,1175.5,578.9434" style="stroke:#181818;stroke-width:1.0;"/><line style="stroke:#181818;stroke-width:1.0;" x1="940.5" x2="1177.5" y1="578.9434" y2="578.9434"/><text fill="#000000" font-family="FG Virgil" font-size="13" lengthAdjust="spacing" textLength="143" x="947.5" y="574.2012">withFunction(function)</text><polygon fill="#181818" points="1171.5,604.2539,1181.5,608.2539,1171.5,612.2539,1175.5,608.2539" style="stroke:#181818;stroke-width:1.0;"/><line style="stroke:#181818;stroke-width:1.0;" x1="940.5" x2="1177.5" y1="608.2539" y2="608.2539"/><text fill="#000000" font-family="FG Virgil" font-size="13" lengthAdjust="spacing" textLength="135" x="947.5" y="603.5117">withAddress(address)</text><polygon fill="#181818" points="1171.5,633.5645,1181.5,637.5645,1171.5,641.5645,1175.5,637.5645" style="stroke:#181818;stroke-width:1.0;"/><line style="stroke:#181818;stroke-width:1.0;" x1="940.5" x2="1177.5" y1="637.5645" y2="637.5645"/><text fill="#000000" font-family="FG Virgil" font-size="13" lengthAdjust="spacing" textLength="104" x="947.5" y="632.8223">withMode(mode)</text><polygon fill="#181818" points="1171.5,662.875,1181.5,666.875,1171.5,670.875,1175.5,666.875" style="stroke:#181818;stroke-width:1.0;"/><line style="stroke:#181818;stroke-width:1.0;" x1="940.5" x2="1177.5" y1="666.875" y2="666.875"/><text fill="#000000" font-family="FG Virgil" font-size="13" lengthAdjust="spacing" textLength="219" x="947.5" y="662.1328">withJobApplication(jobApplication)</text><polygon fill="#181818" points="1171.5,692.1855,1181.5,696.1855,1171.5,700.1855,1175.5,696.1855" style="stroke:#181818;stroke-width:1.0;"/><line style="stroke:#181818;stroke-width:1.0;" x1="940.5" x2="1177.5" y1="696.1855" y2="696.1855"/><text fill="#000000" font-family="FG Virgil" font-size="13" lengthAdjust="spacing" textLength="149" x="947.5" y="691.4434">withInterview(interview)</text><polygon fill="#181818" points="1171.5,721.4961,1181.5,725.4961,1171.5,729.4961,1175.5,725.4961" style="stroke:#181818;stroke-width:1.0;"/><line style="stroke:#181818;stroke-width:1.0;" x1="940.5" x2="1177.5" y1="725.4961" y2="725.4961"/><text fill="#000000" font-family="FG Virgil" font-size="13" lengthAdjust="spacing" textLength="158" x="947.5" y="720.7539">withVacancies(vacancies)</text><polygon fill="#181818" points="1171.5,750.8066,1181.5,754.8066,1171.5,758.8066,1175.5,754.8066" style="stroke:#181818;stroke-width:1.0;"/><line style="stroke:#181818;stroke-width:1.0;" x1="940.5" x2="1177.5" y1="754.8066" y2="754.8066"/><text fill="#000000" font-family="FG Virgil" font-size="13" lengthAdjust="spacing" textLength="204" x="947.5" y="750.0645">withRequirements(requirements)</text><polygon fill="#181818" points="1171.5,780.1172,1181.5,784.1172,1171.5,788.1172,1175.5,784.1172" style="stroke:#181818;stroke-width:1.0;"/><line style="stroke:#181818;stroke-width:1.0;" x1="940.5" x2="1177.5" y1="784.1172" y2="784.1172"/><text fill="#000000" font-family="FG Virgil" font-size="13" lengthAdjust="spacing" textLength="108" x="947.5" y="779.375">withPhase(phaseEnum)</text><polygon fill="#181818" points="1171.5,809.4277,1181.5,813.4277,1171.5,817.4277,1175.5,813.4277" style="stroke:#181818;stroke-width:1.0;"/><line style="stroke:#181818;stroke-width:1.0;" x1="940.5" x2="1177.5" y1="813.4277" y2="813.4277"/><text fill="#000000" font-family="FG Virgil" font-size="13" lengthAdjust="spacing" textLength="151" x="947.5" y="808.6855">withStartDate(startDate)</text><polygon fill="#181818" points="1171.5,838.7383,1181.5,842.7383,1171.5,846.7383,1175.5,842.7383" style="stroke:#181818;stroke-width:1.0;"/><line style="stroke:#181818;stroke-width:1.0;" x1="940.5" x2="1177.5" y1="842.7383" y2="842.7383"/><text fill="#000000" font-family="FG Virgil" font-size="13" lengthAdjust="spacing" textLength="139" x="947.5" y="837.9961">withEndDate(endDate)</text><polygon fill="#181818" points="1171.5,868.0488,1181.5,872.0488,1171.5,876.0488,1175.5,872.0488" style="stroke:#181818;stroke-width:1.0;"/><line style="stroke:#181818;stroke-width:1.0;" x1="940.5" x2="1177.5" y1="872.0488" y2="872.0488"/><text fill="#000000" font-family="FG Virgil" font-size="13" lengthAdjust="spacing" textLength="40" x="947.5" y="867.3066">build()</text><polygon fill="#181818" points="1570.5,927.9805,1580.5,931.9805,1570.5,935.9805,1574.5,931.9805" style="stroke:#181818;stroke-width:1.0;"/><line style="stroke:#181818;stroke-width:1.0;" x1="1193.5" x2="1576.5" y1="931.9805" y2="931.9805"/><text fill="#000000" font-family="FG Virgil" font-size="13" lengthAdjust="spacing" textLength="337" x="1200.5" y="896.6172">build(jobReference, company, contractType, function,</text><text fill="#000000" font-family="FG Virgil" font-size="13" lengthAdjust="spacing" textLength="366" x="1204.5" y="911.9277">address, mode, vacancies, requirements, interview, phaseEnum,</text><text fill="#000000" font-family="FG Virgil" font-size="13" lengthAdjust="spacing" textLength="222" x="1204.5" y="927.2383">startDate, endDate, jobApplication)</text><polygon fill="#181818" points="1204.5,957.291,1194.5,961.291,1204.5,965.291,1200.5,961.291" style="stroke:#181818;stroke-width:1.0;"/><line style="stroke:#181818;stroke-width:1.0;stroke-dasharray:2.0,2.0;" x1="1198.5" x2="1586.5" y1="961.291" y2="961.291"/><text fill="#000000" font-family="FG Virgil" font-size="13" lengthAdjust="spacing" textLength="73" x="1210.5" y="956.5488">jobOpening</text><polygon fill="#181818" points="951.5,986.6016,941.5,990.6016,951.5,994.6016,947.5,990.6016" style="stroke:#181818;stroke-width:1.0;"/><line style="stroke:#181818;stroke-width:1.0;stroke-dasharray:2.0,2.0;" x1="945.5" x2="1182.5" y1="990.6016" y2="990.6016"/><text fill="#000000" font-family="FG Virgil" font-size="13" lengthAdjust="spacing" textLength="73" x="957.5" y="985.8594">jobOpening</text><polygon fill="#181818" points="1703,1015.9121,1713,1019.9121,1703,1023.9121,1707,1019.9121" style="stroke:#181818;stroke-width:1.0;"/><line style="stroke:#181818;stroke-width:1.0;" x1="940.5" x2="1709" y1="1019.9121" y2="1019.9121"/><text fill="#000000" font-family="FG Virgil" font-size="13" lengthAdjust="spacing" textLength="83" x="947.5" y="1015.1699">repositories()</text><polygon fill="#181818" points="1854.5,1045.2227,1864.5,1049.2227,1854.5,1053.2227,1858.5,1049.2227" style="stroke:#181818;stroke-width:1.0;"/><line style="stroke:#181818;stroke-width:1.0;" x1="1725" x2="1860.5" y1="1049.2227" y2="1049.2227"/><text fill="#000000" font-family="FG Virgil" font-size="13" lengthAdjust="spacing" textLength="46" x="1732" y="1044.4805">create()</text><polygon fill="#181818" points="2017,1074.5332,2027,1078.5332,2017,1082.5332,2021,1078.5332" style="stroke:#181818;stroke-width:1.0;"/><line style="stroke:#181818;stroke-width:1.0;" x1="1876.5" x2="2023" y1="1078.5332" y2="1078.5332"/><text fill="#000000" font-family="FG Virgil" font-size="13" lengthAdjust="spacing" textLength="46" x="1883.5" y="1073.791">create()</text><polygon fill="#181818" points="2017,1103.8438,2027,1107.8438,2017,1111.8438,2021,1107.8438" style="stroke:#181818;stroke-width:1.0;"/><line style="stroke:#181818;stroke-width:1.0;" x1="940.5" x2="2023" y1="1107.8438" y2="1107.8438"/><text fill="#000000" font-family="FG Virgil" font-size="13" lengthAdjust="spacing" textLength="109" x="947.5" y="1103.1016">save(jobOpening)</text><polygon fill="#181818" points="951.5,1133.1543,941.5,1137.1543,951.5,1141.1543,947.5,1137.1543" style="stroke:#181818;stroke-width:1.0;"/><line style="stroke:#181818;stroke-width:1.0;stroke-dasharray:2.0,2.0;" x1="945.5" x2="2028" y1="1137.1543" y2="1137.1543"/><text fill="#000000" font-family="FG Virgil" font-size="13" lengthAdjust="spacing" textLength="73" x="957.5" y="1132.4121">jobOpening</text><polygon fill="#181818" points="491.5,1162.4648,481.5,1166.4648,491.5,1170.4648,487.5,1166.4648" style="stroke:#181818;stroke-width:1.0;"/><line style="stroke:#181818;stroke-width:1.0;stroke-dasharray:2.0,2.0;" x1="485.5" x2="934.5" y1="1166.4648" y2="1166.4648"/><text fill="#000000" font-family="FG Virgil" font-size="13" lengthAdjust="spacing" textLength="73" x="497.5" y="1161.7227">jobOpening</text><polygon fill="#181818" points="82.5,1191.7754,72.5,1195.7754,82.5,1199.7754,78.5,1195.7754" style="stroke:#181818;stroke-width:1.0;"/><line style="stroke:#181818;stroke-width:1.0;stroke-dasharray:2.0,2.0;" x1="76.5" x2="474.5" y1="1195.7754" y2="1195.7754"/><text fill="#000000" font-family="FG Virgil" font-size="13" lengthAdjust="spacing" textLength="171" x="88.5" y="1191.0332">Sucess/Insuccess message</text><!--SRC=[pLPDRzim3BtxLn0zkK2ATZq6GO2iNOOKw5OaIq-zg3QJgB4bJvAJPRz-b3_bs4dd0GEQGs2BV4yq-IZHS1CXZ3J_ZSFRc_42VwOe0eHxpjQAnR1SmAURczlHjVKOUvwdjrmap9fYAMImKJ96C2f5nvAmOClMk307ubOO6CSMuegbaPbAORunWaw_mZDNQnuvFdh3GhddOWqh5cdqF1OOgU0krOPsKuzC4Bi2fc5Y3HwX30zumeI1Y-4SrrmRL0_ozNk2WcYMimlhl9p1Q9Ger2WCCroAyVXTw1t5gMGKeSeewbUYOaaIyQ2RgMRudF8eBE2jLM9vpP_EC6JGUnapBiW_p1wEt9zGQHivbSw6YByCUQuebxYNQdlaFCT4Qaw9Eqopn1xE-DPHr2XoLzKB-Tloy1qpM9GZ-uUhCILy21EzrM0aoI1FBJ0Gk8St-Geo9wxXova7zACw4RXEzH02XMJFZ9LpRVSg5C6opRDjRUnG10zShAIAirh1Y_1f-pckKDc43I2GCNtimJuG9-tmuv3GyYeLWGKCNWImC2JXw06fFYJJZWLC11nfGL7BS8KnYOhUE2LVxJZk1v1ic4QBrOOIUayn3m15c3zG09DQFfVP5pJoPaFGyB_Y_BSmGQx0RB1Hl1CLKwrE-fWvjpyXIKwAhpV6Vc2hHuSTRSirf1f3A-nScoGgHX56F7IyQMl3pQ7Qo3azA5rjreRG6s9l-VRWt7EpUN1otoZ4PK-YkxniVb6-_l2wsBvR-Rv4qq8dVYcOlWIJN5n-8RA-y4UIf6zrUTc_4eu8_LEQ_3koMQbyl-g1lXJFPLVvLN_rfPWxtUYxhTcNwCbshv_rS5_eekntl-hylXHVydF2BywBFl3i3lThHDk7WCKDNdf_sEEmEdJoWAlr8lwh4pbugzOgH8Ydk3eIrBX0cdpUYL9qJ3tsvYb64wlfZgzgWogV3ZxQfJqkbUTq5ttBkt9fypGowSnNv_Yx0EygjS6jsIwx0mfRbseT__DryOvtpQQNjXeS9RJdDW8LKziY3KZXrpEXqy0-GKn_DEjxdaFGKK37siw_O-nCNbkbtT4wgpIeEc_vrDkvJNbRUty0]--></g></svg>