<?xml version="1.0" encoding="us-ascii" standalone="no"?><svg xmlns="http://www.w3.org/2000/svg" xmlns:xlink="http://www.w3.org/1999/xlink" contentStyleType="text/css" height="545.4px" preserveAspectRatio="none" style="width:1333px;height:545px;background:#FFFFFF;" version="1.1" viewBox="0 0 1333 545" width="1333.8px" zoomAndPan="magnify"><defs/><g><text fill="#000000" font-family="FG Virgil" font-size="12" font-weight="bold" lengthAdjust="spacing" textLength="136.2" x="599.85" y="19.8633">Sequence Diagram 1019</text><rect fill="#FFFFFF" height="412.0453" style="stroke:#181818;stroke-width:0.6;" width="6" x="36.9" y="80.3906"/><rect fill="#FFFFFF" height="394.3313" style="stroke:#181818;stroke-width:0.6;" width="6" x="321.9" y="92.7047"/><rect fill="#FFFFFF" height="301.4203" style="stroke:#181818;stroke-width:0.6;" width="6" x="488.1" y="143.5875"/><rect fill="#FFFFFF" height="267.1922" style="stroke:#181818;stroke-width:0.6;" width="6" x="664.8" y="160.7016"/><rect fill="#FFFFFF" height="17.1141" style="stroke:#181818;stroke-width:0.6;" width="6" x="987.6" y="211.5844"/><rect fill="#FFFFFF" height="17.1141" style="stroke:#181818;stroke-width:0.6;" width="6" x="1095.3" y="274.0406"/><rect fill="#FFFFFF" height="50.8828" style="stroke:#181818;stroke-width:0.6;" width="6" x="1187.1" y="322.3828"/><rect fill="none" height="173.6813" style="stroke:#000000;stroke-width:0.8999999999999999;" width="763.8" x="566.7" y="237.6984"/><rect fill="none" height="155.3672" style="stroke:#000000;stroke-width:0.8999999999999999;" width="751.8" x="572.7" y="251.8125"/><rect fill="none" height="102.825" style="stroke:#000000;stroke-width:0.8999999999999999;" width="739.8" x="578.7" y="300.1547"/><line style="stroke:#181818;stroke-width:0.3;stroke-dasharray:5.0,5.0;" x1="39.6" x2="39.6" y1="74.3906" y2="497.8359"/><line style="stroke:#181818;stroke-width:0.3;stroke-dasharray:5.0,5.0;" x1="324.9" x2="324.9" y1="74.3906" y2="497.8359"/><line style="stroke:#181818;stroke-width:0.3;stroke-dasharray:5.0,5.0;" x1="491.1" x2="491.1" y1="120.3891" y2="497.8359"/><line style="stroke:#181818;stroke-width:0.3;stroke-dasharray:5.0,5.0;" x1="667.5" x2="667.5" y1="74.3906" y2="497.8359"/><line style="stroke:#181818;stroke-width:0.3;stroke-dasharray:5.0,5.0;" x1="893.4" x2="893.4" y1="188.3859" y2="497.8359"/><line style="stroke:#181818;stroke-width:0.3;stroke-dasharray:5.0,5.0;" x1="990.6" x2="990.6" y1="74.3906" y2="497.8359"/><line style="stroke:#181818;stroke-width:0.3;stroke-dasharray:5.0,5.0;" x1="1098" x2="1098" y1="74.3906" y2="497.8359"/><line style="stroke:#181818;stroke-width:0.3;stroke-dasharray:5.0,5.0;" x1="1189.8" x2="1189.8" y1="74.3906" y2="497.8359"/><line style="stroke:#181818;stroke-width:0.3;stroke-dasharray:5.0,5.0;" x1="1270.5" x2="1270.5" y1="350.0672" y2="497.8359"/><text fill="#000000" font-family="FG Virgil" font-size="8.4" lengthAdjust="spacing" textLength="70.2" x="3" y="72.6105">CustomerManager</text><ellipse cx="39.9" cy="34.1062" fill="#ADD8E6" rx="4.8" ry="4.8" style="stroke:#181818;stroke-width:0.3;"/><path d="M39.9,38.9063 L39.9,55.1062 M32.1,43.7063 L47.7,43.7063 M39.9,55.1062 L32.1,64.1063 M39.9,55.1062 L47.7,64.1063 " fill="none" style="stroke:#181818;stroke-width:0.3;"/><text fill="#000000" font-family="FG Virgil" font-size="8.4" lengthAdjust="spacing" textLength="70.2" x="3" y="504.8402">CustomerManager</text><ellipse cx="39.9" cy="511.7203" fill="#ADD8E6" rx="4.8" ry="4.8" style="stroke:#181818;stroke-width:0.3;"/><path d="M39.9,516.5203 L39.9,532.7203 M32.1,521.3203 L47.7,521.3203 M39.9,532.7203 L32.1,541.7203 M39.9,532.7203 L47.7,541.7203 " fill="none" style="stroke:#181818;stroke-width:0.3;"/><rect fill="#E2E2F0" height="27.1688" rx="1.5" ry="1.5" style="stroke:#181818;stroke-width:0.3;" width="145.2" x="252.3" y="46.6219"/><text fill="#000000" font-family="FG Virgil" font-size="8.4" font-style="italic" lengthAdjust="spacing" textLength="57" x="296.4" y="58.4262">&#171;presentation&#187;</text><text fill="#000000" font-family="FG Virgil" font-size="8.4" lengthAdjust="spacing" textLength="136.8" x="256.5" y="67.8105">:ListCandidatesByInterviewGradesUI</text><rect fill="#E2E2F0" height="27.1688" rx="1.5" ry="1.5" style="stroke:#181818;stroke-width:0.3;" width="145.2" x="252.3" y="497.2359"/><text fill="#000000" font-family="FG Virgil" font-size="8.4" font-style="italic" lengthAdjust="spacing" textLength="57" x="296.4" y="509.0402">&#171;presentation&#187;</text><text fill="#000000" font-family="FG Virgil" font-size="8.4" lengthAdjust="spacing" textLength="136.8" x="256.5" y="518.4246">:ListCandidatesByInterviewGradesUI</text><rect fill="#E2E2F0" height="27.1688" rx="1.5" ry="1.5" style="stroke:#181818;stroke-width:0.3;" width="175.2" x="403.5" y="497.2359"/><text fill="#000000" font-family="FG Virgil" font-size="8.4" font-style="italic" lengthAdjust="spacing" textLength="50.4" x="465.9" y="509.0402">&#171;application&#187;</text><text fill="#000000" font-family="FG Virgil" font-size="8.4" lengthAdjust="spacing" textLength="166.8" x="407.7" y="518.4246">:ListCandidatesByInterviewsGradeController</text><rect fill="#E2E2F0" height="27.1688" rx="1.5" ry="1.5" style="stroke:#181818;stroke-width:0.3;" width="166.2" x="584.7" y="46.6219"/><text fill="#000000" font-family="FG Virgil" font-size="8.4" font-style="italic" lengthAdjust="spacing" textLength="36" x="649.8" y="58.4262">&#171;service&#187;</text><text fill="#000000" font-family="FG Virgil" font-size="8.4" lengthAdjust="spacing" textLength="157.8" x="588.9" y="67.8105">:ListCandidatesByInterviewsGradeService</text><rect fill="#E2E2F0" height="27.1688" rx="1.5" ry="1.5" style="stroke:#181818;stroke-width:0.3;" width="166.2" x="584.7" y="497.2359"/><text fill="#000000" font-family="FG Virgil" font-size="8.4" font-style="italic" lengthAdjust="spacing" textLength="36" x="649.8" y="509.0402">&#171;service&#187;</text><text fill="#000000" font-family="FG Virgil" font-size="8.4" lengthAdjust="spacing" textLength="157.8" x="588.9" y="518.4246">:ListCandidatesByInterviewsGradeService</text><rect fill="#E2E2F0" height="27.1688" rx="1.5" ry="1.5" style="stroke:#181818;stroke-width:0.3;" width="85.2" x="850.8" y="497.2359"/><text fill="#000000" font-family="FG Virgil" font-size="8.4" font-style="italic" lengthAdjust="spacing" textLength="36" x="875.4" y="509.0402">&#171;service&#187;</text><text fill="#000000" font-family="FG Virgil" font-size="8.4" lengthAdjust="spacing" textLength="76.8" x="855" y="518.4246">:InterviewModel_Ex1</text><rect fill="#E2E2F0" height="27.1688" rx="1.5" ry="1.5" style="stroke:#181818;stroke-width:0.3;" width="97.2" x="942" y="46.6219"/><text fill="#000000" font-family="FG Virgil" font-size="8.4" font-style="italic" lengthAdjust="spacing" textLength="47.4" x="966.9" y="58.4262">&#171;repository&#187;</text><text fill="#000000" font-family="FG Virgil" font-size="8.4" lengthAdjust="spacing" textLength="88.8" x="946.2" y="67.8105">:JobOpeningRepository</text><rect fill="#E2E2F0" height="27.1688" rx="1.5" ry="1.5" style="stroke:#181818;stroke-width:0.3;" width="97.2" x="942" y="497.2359"/><text fill="#000000" font-family="FG Virgil" font-size="8.4" font-style="italic" lengthAdjust="spacing" textLength="47.4" x="966.9" y="509.0402">&#171;repository&#187;</text><text fill="#000000" font-family="FG Virgil" font-size="8.4" lengthAdjust="spacing" textLength="88.8" x="946.2" y="518.4246">:JobOpeningRepository</text><rect fill="#E2E2F0" height="27.1688" rx="1.5" ry="1.5" style="stroke:#181818;stroke-width:0.3;" width="106.2" x="1045.2" y="46.6219"/><text fill="#000000" font-family="FG Virgil" font-size="8.4" font-style="italic" lengthAdjust="spacing" textLength="47.4" x="1074.6" y="58.4262">&#171;repository&#187;</text><text fill="#000000" font-family="FG Virgil" font-size="8.4" lengthAdjust="spacing" textLength="97.8" x="1049.4" y="67.8105">:JobApplicationRepository</text><rect fill="#E2E2F0" height="27.1688" rx="1.5" ry="1.5" style="stroke:#181818;stroke-width:0.3;" width="106.2" x="1045.2" y="497.2359"/><text fill="#000000" font-family="FG Virgil" font-size="8.4" font-style="italic" lengthAdjust="spacing" textLength="47.4" x="1074.6" y="509.0402">&#171;repository&#187;</text><text fill="#000000" font-family="FG Virgil" font-size="8.4" lengthAdjust="spacing" textLength="97.8" x="1049.4" y="518.4246">:JobApplicationRepository</text><rect fill="#E2E2F0" height="27.1688" rx="1.5" ry="1.5" style="stroke:#181818;stroke-width:0.3;" width="65.4" x="1157.4" y="46.6219"/><text fill="#000000" font-family="FG Virgil" font-size="8.4" font-style="italic" lengthAdjust="spacing" textLength="30" x="1175.1" y="58.4262">&#171;entity&#187;</text><text fill="#000000" font-family="FG Virgil" font-size="8.4" lengthAdjust="spacing" textLength="57" x="1161.6" y="67.8105">:JobApplication</text><rect fill="#E2E2F0" height="27.1688" rx="1.5" ry="1.5" style="stroke:#181818;stroke-width:0.3;" width="65.4" x="1157.4" y="497.2359"/><text fill="#000000" font-family="FG Virgil" font-size="8.4" font-style="italic" lengthAdjust="spacing" textLength="30" x="1175.1" y="509.0402">&#171;entity&#187;</text><text fill="#000000" font-family="FG Virgil" font-size="8.4" lengthAdjust="spacing" textLength="57" x="1161.6" y="518.4246">:JobApplication</text><rect fill="#E2E2F0" height="27.1688" rx="1.5" ry="1.5" style="stroke:#181818;stroke-width:0.3;" width="83.4" x="1229.1" y="497.2359"/><text fill="#000000" font-family="FG Virgil" font-size="8.4" font-style="italic" lengthAdjust="spacing" textLength="21.6" x="1260" y="509.0402">&#171;dto&#187;</text><text fill="#000000" font-family="FG Virgil" font-size="8.4" lengthAdjust="spacing" textLength="75" x="1233.3" y="518.4246">:JobApplicationDTO</text><rect fill="#FFFFFF" height="412.0453" style="stroke:#181818;stroke-width:0.6;" width="6" x="36.9" y="80.3906"/><rect fill="#FFFFFF" height="394.3313" style="stroke:#181818;stroke-width:0.6;" width="6" x="321.9" y="92.7047"/><rect fill="#FFFFFF" height="301.4203" style="stroke:#181818;stroke-width:0.6;" width="6" x="488.1" y="143.5875"/><rect fill="#FFFFFF" height="267.1922" style="stroke:#181818;stroke-width:0.6;" width="6" x="664.8" y="160.7016"/><rect fill="#FFFFFF" height="17.1141" style="stroke:#181818;stroke-width:0.6;" width="6" x="987.6" y="211.5844"/><rect fill="#FFFFFF" height="17.1141" style="stroke:#181818;stroke-width:0.6;" width="6" x="1095.3" y="274.0406"/><rect fill="#FFFFFF" height="50.8828" style="stroke:#181818;stroke-width:0.6;" width="6" x="1187.1" y="322.3828"/><polygon fill="#181818" points="314.7,90.3047,320.7,92.7047,314.7,95.1047,317.1,92.7047" style="stroke:#181818;stroke-width:0.6;"/><line style="stroke:#181818;stroke-width:0.6;" x1="42.9" x2="318.3" y1="92.7047" y2="92.7047"/><text fill="#000000" font-family="FG Virgil" font-size="7.8" lengthAdjust="spacing" textLength="205.2" x="47.1" y="89.8518">Asks to see a ordered list of Candidates by interview points</text><polygon fill="#181818" points="396.3,107.4188,402.3,109.8188,396.3,112.2188,398.7,109.8188" style="stroke:#181818;stroke-width:0.6;"/><line style="stroke:#181818;stroke-width:0.6;" x1="327.9" x2="399.9" y1="109.8188" y2="109.8188"/><text fill="#000000" font-family="FG Virgil" font-size="7.8" lengthAdjust="spacing" textLength="21.6" x="332.1" y="106.9658">create</text><rect fill="#E2E2F0" height="27.1688" rx="1.5" ry="1.5" style="stroke:#181818;stroke-width:0.3;" width="175.2" x="403.5" y="97.5047"/><text fill="#000000" font-family="FG Virgil" font-size="8.4" font-style="italic" lengthAdjust="spacing" textLength="50.4" x="465.9" y="109.309">&#171;application&#187;</text><text fill="#000000" font-family="FG Virgil" font-size="8.4" lengthAdjust="spacing" textLength="166.8" x="407.7" y="118.6934">:ListCandidatesByInterviewsGradeController</text><polygon fill="#181818" points="480.9,141.1875,486.9,143.5875,480.9,145.9875,483.3,143.5875" style="stroke:#181818;stroke-width:0.6;"/><line style="stroke:#181818;stroke-width:0.6;" x1="327.9" x2="484.5" y1="143.5875" y2="143.5875"/><text fill="#000000" font-family="FG Virgil" font-size="7.8" lengthAdjust="spacing" textLength="111.6" x="332.1" y="140.7346">allCandidatesByInterviewGrade()</text><polygon fill="#181818" points="657.6,158.3016,663.6,160.7016,657.6,163.1016,660,160.7016" style="stroke:#181818;stroke-width:0.6;"/><line style="stroke:#181818;stroke-width:0.6;" x1="494.1" x2="661.2" y1="160.7016" y2="160.7016"/><text fill="#000000" font-family="FG Virgil" font-size="7.8" lengthAdjust="spacing" textLength="111.6" x="498.3" y="157.8486">allCandidatesByInterviewGrade()</text><polygon fill="#181818" points="843.6,175.4156,849.6,177.8156,843.6,180.2156,846,177.8156" style="stroke:#181818;stroke-width:0.6;"/><line style="stroke:#181818;stroke-width:0.6;" x1="670.8" x2="847.2" y1="177.8156" y2="177.8156"/><text fill="#000000" font-family="FG Virgil" font-size="7.8" lengthAdjust="spacing" textLength="21.6" x="675" y="174.9627">create</text><rect fill="#E2E2F0" height="27.1688" rx="1.5" ry="1.5" style="stroke:#181818;stroke-width:0.3;" width="85.2" x="850.8" y="165.5016"/><text fill="#000000" font-family="FG Virgil" font-size="8.4" font-style="italic" lengthAdjust="spacing" textLength="36" x="875.4" y="177.3059">&#171;service&#187;</text><text fill="#000000" font-family="FG Virgil" font-size="8.4" lengthAdjust="spacing" textLength="76.8" x="855" y="186.6902">:InterviewModel_Ex1</text><polygon fill="#181818" points="980.4,209.1844,986.4,211.5844,980.4,213.9844,982.8,211.5844" style="stroke:#181818;stroke-width:0.6;"/><line style="stroke:#181818;stroke-width:0.6;" x1="670.8" x2="984" y1="211.5844" y2="211.5844"/><text fill="#000000" font-family="FG Virgil" font-size="7.8" lengthAdjust="spacing" textLength="173.4" x="675" y="208.7314">findJobOpeningsByPhase(PhaseType.ANALYSIS)</text><polygon fill="#181818" points="677.4,226.2984,671.4,228.6984,677.4,231.0984,675,228.6984" style="stroke:#181818;stroke-width:0.6;"/><line style="stroke:#181818;stroke-width:0.6;stroke-dasharray:2.0,2.0;" x1="673.8" x2="990" y1="228.6984" y2="228.6984"/><text fill="#000000" font-family="FG Virgil" font-size="7.8" lengthAdjust="spacing" textLength="67.2" x="681" y="225.8455">List&lt;JobOpenings&gt;</text><path d="M566.7,237.6984 L610.5,237.6984 L610.5,241.6125 L604.5,247.6125 L566.7,247.6125 L566.7,237.6984 " fill="#EEEEEE" style="stroke:#000000;stroke-width:0.8999999999999999;"/><rect fill="none" height="173.6813" style="stroke:#000000;stroke-width:0.8999999999999999;" width="763.8" x="566.7" y="237.6984"/><text fill="#000000" font-family="FG Virgil" font-size="7.8" font-weight="bold" lengthAdjust="spacing" textLength="16.8" x="575.7" y="245.3596">loop</text><text fill="#000000" font-family="FG Virgil" font-size="6.6" font-weight="bold" lengthAdjust="spacing" textLength="69.6" x="619.5" y="244.8732">[foreach jobOpening]</text><path d="M572.7,251.8125 L609.3,251.8125 L609.3,255.7266 L603.3,261.7266 L572.7,261.7266 L572.7,251.8125 " fill="#EEEEEE" style="stroke:#000000;stroke-width:0.8999999999999999;"/><rect fill="none" height="155.3672" style="stroke:#000000;stroke-width:0.8999999999999999;" width="751.8" x="572.7" y="251.8125"/><text fill="#000000" font-family="FG Virgil" font-size="7.8" font-weight="bold" lengthAdjust="spacing" textLength="9.6" x="581.7" y="259.4736">alt</text><text fill="#000000" font-family="FG Virgil" font-size="6.6" font-weight="bold" lengthAdjust="spacing" textLength="140.4" x="618.3" y="258.9873">[jobOpening.jobReference = jobReference]</text><polygon fill="#181818" points="1088.1,271.6406,1094.1,274.0406,1088.1,276.4406,1090.5,274.0406" style="stroke:#181818;stroke-width:0.6;"/><line style="stroke:#181818;stroke-width:0.6;" x1="670.8" x2="1091.7" y1="274.0406" y2="274.0406"/><text fill="#000000" font-family="FG Virgil" font-size="7.8" lengthAdjust="spacing" textLength="25.8" x="675" y="271.1877">findAll()</text><polygon fill="#181818" points="677.4,288.7547,671.4,291.1547,677.4,293.5547,675,291.1547" style="stroke:#181818;stroke-width:0.6;"/><line style="stroke:#181818;stroke-width:0.6;stroke-dasharray:2.0,2.0;" x1="673.8" x2="1097.7" y1="291.1547" y2="291.1547"/><text fill="#000000" font-family="FG Virgil" font-size="7.8" lengthAdjust="spacing" textLength="76.8" x="681" y="288.3018">List&lt;JobApplications&gt;</text><path d="M578.7,300.1547 L622.5,300.1547 L622.5,304.0687 L616.5,310.0687 L578.7,310.0687 L578.7,300.1547 " fill="#EEEEEE" style="stroke:#000000;stroke-width:0.8999999999999999;"/><rect fill="none" height="102.825" style="stroke:#000000;stroke-width:0.8999999999999999;" width="739.8" x="578.7" y="300.1547"/><text fill="#000000" font-family="FG Virgil" font-size="7.8" font-weight="bold" lengthAdjust="spacing" textLength="16.8" x="587.7" y="307.8158">loop</text><text fill="#000000" font-family="FG Virgil" font-size="6.6" font-weight="bold" lengthAdjust="spacing" textLength="71.4" x="631.5" y="307.3295">[foreach applications]</text><polygon fill="#181818" points="1179.9,319.9828,1185.9,322.3828,1179.9,324.7828,1182.3,322.3828" style="stroke:#181818;stroke-width:0.6;"/><line style="stroke:#181818;stroke-width:0.6;" x1="670.8" x2="1183.5" y1="322.3828" y2="322.3828"/><text fill="#000000" font-family="FG Virgil" font-size="7.8" lengthAdjust="spacing" textLength="23.4" x="675" y="319.5299">toDto()</text><polygon fill="#181818" points="1221.9,337.0969,1227.9,339.4969,1221.9,341.8969,1224.3,339.4969" style="stroke:#181818;stroke-width:0.6;"/><line style="stroke:#181818;stroke-width:0.6;" x1="1193.1" x2="1225.5" y1="339.4969" y2="339.4969"/><text fill="#000000" font-family="FG Virgil" font-size="7.8" lengthAdjust="spacing" textLength="21.6" x="1197.3" y="336.6439">create</text><rect fill="#E2E2F0" height="27.1688" rx="1.5" ry="1.5" style="stroke:#181818;stroke-width:0.3;" width="83.4" x="1229.1" y="327.1828"/><text fill="#000000" font-family="FG Virgil" font-size="8.4" font-style="italic" lengthAdjust="spacing" textLength="21.6" x="1260" y="338.9871">&#171;dto&#187;</text><text fill="#000000" font-family="FG Virgil" font-size="8.4" lengthAdjust="spacing" textLength="75" x="1233.3" y="348.3715">:JobApplicationDTO</text><polygon fill="#181818" points="677.4,370.8656,671.4,373.2656,677.4,375.6656,675,373.2656" style="stroke:#181818;stroke-width:0.6;"/><line style="stroke:#181818;stroke-width:0.6;stroke-dasharray:2.0,2.0;" x1="673.8" x2="1189.5" y1="373.2656" y2="373.2656"/><text fill="#000000" font-family="FG Virgil" font-size="7.8" lengthAdjust="spacing" textLength="66" x="681" y="370.4127">JobApplicationDTO</text><line style="stroke:#181818;stroke-width:0.6;" x1="670.8" x2="696" y1="390.3797" y2="390.3797"/><line style="stroke:#181818;stroke-width:0.6;" x1="696" x2="696" y1="390.3797" y2="398.1797"/><line style="stroke:#181818;stroke-width:0.6;" x1="671.4" x2="696" y1="398.1797" y2="398.1797"/><polygon fill="#181818" points="677.4,395.7797,671.4,398.1797,677.4,400.5797,675,398.1797" style="stroke:#181818;stroke-width:0.6;"/><text fill="#000000" font-family="FG Virgil" font-size="7.8" lengthAdjust="spacing" textLength="211.2" x="675" y="387.5268">getCandidateJustification(jobReference,application,evaluator);</text><polygon fill="#181818" points="500.7,425.4938,494.7,427.8938,500.7,430.2938,498.3,427.8938" style="stroke:#181818;stroke-width:0.6;"/><line style="stroke:#181818;stroke-width:0.6;stroke-dasharray:2.0,2.0;" x1="497.1" x2="667.2" y1="427.8938" y2="427.8938"/><text fill="#000000" font-family="FG Virgil" font-size="7.8" lengthAdjust="spacing" textLength="61.2" x="504.3" y="425.0408">jobApplicationList</text><polygon fill="#181818" points="334.5,442.6078,328.5,445.0078,334.5,447.4078,332.1,445.0078" style="stroke:#181818;stroke-width:0.6;"/><line style="stroke:#181818;stroke-width:0.6;" x1="330.9" x2="490.5" y1="445.0078" y2="445.0078"/><text fill="#000000" font-family="FG Virgil" font-size="7.8" lengthAdjust="spacing" textLength="61.2" x="338.1" y="442.1549">jobApplicationList</text><line style="stroke:#181818;stroke-width:0.6;" x1="327.9" x2="353.1" y1="462.1219" y2="462.1219"/><line style="stroke:#181818;stroke-width:0.6;" x1="353.1" x2="353.1" y1="462.1219" y2="469.9219"/><line style="stroke:#181818;stroke-width:0.6;" x1="328.5" x2="353.1" y1="469.9219" y2="469.9219"/><polygon fill="#181818" points="334.5,467.5219,328.5,469.9219,334.5,472.3219,332.1,469.9219" style="stroke:#181818;stroke-width:0.6;"/><text fill="#000000" font-family="FG Virgil" font-size="7.8" lengthAdjust="spacing" textLength="62.4" x="332.1" y="459.2689">displayInformation</text><polygon fill="#181818" points="49.5,484.6359,43.5,487.0359,49.5,489.4359,47.1,487.0359" style="stroke:#181818;stroke-width:0.6;"/><line style="stroke:#181818;stroke-width:0.6;stroke-dasharray:2.0,2.0;" x1="45.9" x2="324.3" y1="487.0359" y2="487.0359"/><text fill="#000000" font-family="FG Virgil" font-size="7.8" lengthAdjust="spacing" textLength="264.6" x="53.1" y="484.183">display the ordered list of Candidates by interview points in descending order</text><!--SRC=[dPNTRzem4C3V_LUSkeSnr4AxjsKCYRLhHTMFgPH9UvhSv4BSEdPcctRihzybG790jgxb0Ta-t- - -dQ22HXXuzHkZzuV32VwSeuaHJfISEPd3qU7HXq6_50-5U9k5K4JzVg6b2VDSzsARz_s3CeMakxqiv5hKMyYjiN7cR8wGIksHYGePFyWPJiA2Z3kC0vCbcCgv3gVMX2j9kgTdy4svcU9edyd4FYapMv65Z8DrS3ptWSovIsc8xa1w65M2DrhDid2dvoW845Ii2ee0zg8BvSEnD8bAP43_UJ4s0TsZmgSp9nFqq_5U2PcEOJ0e77eqGGPbpN3ulnnVWOuf66UrHbVncYrnPL5e5RyAEoatCLRCrPg0VhdQWTNAbpP1_UFBhwDASVVu7unpUtTTeA7Cts1XlQBaBYfAcu0uhjwqeKPDw5kurq7Mdh0ZKgUYgV2SwidjTOisdH8W2PQqgoPJZrI8PLE9PMiT3ClsY63a7pm42nuH95YNeCC4D1KGR0fD4U5k0MgTSYWihNr3deu5qOZPj4Yt6q7iaAGxeWYardzltywx1jme2TPzH5ltpGjOAnKXrhg4sUqYvZU_sDOeKQfCqWZ8-DTCUknK_xUB0dkZgz75zybumhne0mdHseS7JPpLI0sOhQ58y1ccjhQ0r58iSGRtzHLg21tOlaVB6qofxkK3-WduLfG_bWNcN0Hbz2EjUOgP-VOuI6qT2UlNpMWOP2C4zkBuhT8mLaJTV19iPpFbx8BOchGT0arFjmjGjy7sVLQLNSsjid2xtESQCCFcfJodxu1ALzSxl0xxBFPzV9HwBYa_xpvMzK530qk9gXPKs-QWDhWnVXJP_OPdPKMut_MWR8xSTFoS8flMrT2NEedozEMbmQH2vgjKb58IBz-Y-Wg435_u1j41VNfzJ36NtzLAcRj4BzCV]--></g></svg>