<?xml version="1.0" encoding="us-ascii" standalone="no"?><svg xmlns="http://www.w3.org/2000/svg" xmlns:xlink="http://www.w3.org/1999/xlink" contentStyleType="text/css" height="939px" preserveAspectRatio="none" style="width:1626px;height:939px;background:#FFFFFF;" version="1.1" viewBox="0 0 1626 939" width="1626px" zoomAndPan="magnify"><defs/><g><text fill="#000000" font-family="FG Virgil" font-size="20" font-weight="bold" lengthAdjust="spacing" textLength="401" x="611.75" y="36.582">Sequence Diagram US 2004 - True Version</text><rect fill="#FFFFFF" height="706.3535" style="stroke:#181818;stroke-width:1.0;" width="10" x="31.5" y="141.2227"/><rect fill="#FFFFFF" height="218.6973" style="stroke:#181818;stroke-width:1.0;" width="10" x="245.5" y="181.8047"/><rect fill="#FFFFFF" height="156.4551" style="stroke:#181818;stroke-width:1.0;" width="10" x="245.5" y="431.793"/><rect fill="#FFFFFF" height="31.291" style="stroke:#181818;stroke-width:1.0;" width="10" x="245.5" y="619.5391"/><rect fill="#FFFFFF" height="156.4551" style="stroke:#181818;stroke-width:1.0;" width="10" x="245.5" y="682.1211"/><rect fill="#FFFFFF" height="93.873" style="stroke:#181818;stroke-width:1.0;" width="10" x="759.5" y="275.3379"/><rect fill="#FFFFFF" height="93.873" style="stroke:#181818;stroke-width:1.0;" width="10" x="759.5" y="463.084"/><rect fill="#FFFFFF" height="93.873" style="stroke:#181818;stroke-width:1.0;" width="10" x="759.5" y="713.4121"/><rect fill="#FFFFFF" height="31.291" style="stroke:#181818;stroke-width:1.0;" width="10" x="1089.5" y="306.6289"/><rect fill="#FFFFFF" height="31.291" style="stroke:#181818;stroke-width:1.0;" width="10" x="1269" y="494.375"/><rect fill="#FFFFFF" height="31.291" style="stroke:#181818;stroke-width:1.0;" width="10" x="1491.5" y="744.7031"/><line style="stroke:#181818;stroke-width:0.5;stroke-dasharray:5.0,5.0;" x1="36" x2="36" y1="131.2227" y2="856.5762"/><line style="stroke:#181818;stroke-width:0.5;stroke-dasharray:5.0,5.0;" x1="250" x2="250" y1="131.2227" y2="856.5762"/><line style="stroke:#181818;stroke-width:0.5;stroke-dasharray:5.0,5.0;" x1="764" x2="764" y1="230.9258" y2="856.5762"/><line style="stroke:#181818;stroke-width:0.5;stroke-dasharray:5.0,5.0;" x1="1094.5" x2="1094.5" y1="131.2227" y2="856.5762"/><line style="stroke:#181818;stroke-width:0.5;stroke-dasharray:5.0,5.0;" x1="1273.5" x2="1273.5" y1="131.2227" y2="856.5762"/><line style="stroke:#181818;stroke-width:0.5;stroke-dasharray:5.0,5.0;" x1="1496.5" x2="1496.5" y1="131.2227" y2="856.5762"/><text fill="#000000" font-family="FG Virgil" font-size="14" lengthAdjust="spacing" textLength="57" x="5" y="127.709">Operator</text><ellipse cx="36.5" cy="61.1016" fill="#ADD8E6" rx="8" ry="8" style="stroke:#181818;stroke-width:0.5;"/><path d="M36.5,69.1016 L36.5,96.1016 M23.5,77.1016 L49.5,77.1016 M36.5,96.1016 L23.5,111.1016 M36.5,96.1016 L49.5,111.1016 " fill="none" style="stroke:#181818;stroke-width:0.5;"/><text fill="#000000" font-family="FG Virgil" font-size="14" lengthAdjust="spacing" textLength="57" x="5" y="870.6836">Operator</text><ellipse cx="36.5" cy="882.6973" fill="#ADD8E6" rx="8" ry="8" style="stroke:#181818;stroke-width:0.5;"/><path d="M36.5,890.6973 L36.5,917.6973 M23.5,898.6973 L49.5,898.6973 M36.5,917.6973 L23.5,932.6973 M36.5,917.6973 L49.5,932.6973 " fill="none" style="stroke:#181818;stroke-width:0.5;"/><rect fill="#E2E2F0" height="51.2422" rx="2.5" ry="2.5" style="stroke:#181818;stroke-width:0.5;" width="185" x="158" y="78.9805"/><text fill="#000000" font-family="FG Virgil" font-size="14" font-style="italic" lengthAdjust="spacing" textLength="95" x="203" y="101.0879">&#171;presentation&#187;</text><text fill="#000000" font-family="FG Virgil" font-size="14" lengthAdjust="spacing" textLength="171" x="165" y="119.709">:UploadRequirementsFileUI</text><rect fill="#E2E2F0" height="51.2422" rx="2.5" ry="2.5" style="stroke:#181818;stroke-width:0.5;" width="185" x="158" y="855.5762"/><text fill="#000000" font-family="FG Virgil" font-size="14" font-style="italic" lengthAdjust="spacing" textLength="95" x="203" y="877.6836">&#171;presentation&#187;</text><text fill="#000000" font-family="FG Virgil" font-size="14" lengthAdjust="spacing" textLength="171" x="165" y="896.3047">:UploadRequirementsFileUI</text><rect fill="#E2E2F0" height="51.2422" rx="2.5" ry="2.5" style="stroke:#181818;stroke-width:0.5;" width="147" x="691" y="855.5762"/><text fill="#000000" font-family="FG Virgil" font-size="14" font-style="italic" lengthAdjust="spacing" textLength="84" x="722.5" y="877.6836">&#171;application&#187;</text><text fill="#000000" font-family="FG Virgil" font-size="14" lengthAdjust="spacing" textLength="133" x="698" y="896.3047">:UploadFileController</text><rect fill="#E2E2F0" height="51.2422" rx="2.5" ry="2.5" style="stroke:#181818;stroke-width:0.5;" width="162" x="1013.5" y="78.9805"/><text fill="#000000" font-family="FG Virgil" font-size="14" font-style="italic" lengthAdjust="spacing" textLength="79" x="1055" y="101.0879">&#171;repository&#187;</text><text fill="#000000" font-family="FG Virgil" font-size="14" lengthAdjust="spacing" textLength="148" x="1020.5" y="119.709">:JobOpeningRepository</text><rect fill="#E2E2F0" height="51.2422" rx="2.5" ry="2.5" style="stroke:#181818;stroke-width:0.5;" width="162" x="1013.5" y="855.5762"/><text fill="#000000" font-family="FG Virgil" font-size="14" font-style="italic" lengthAdjust="spacing" textLength="79" x="1055" y="877.6836">&#171;repository&#187;</text><text fill="#000000" font-family="FG Virgil" font-size="14" lengthAdjust="spacing" textLength="148" x="1020.5" y="896.3047">:JobOpeningRepository</text><rect fill="#E2E2F0" height="51.2422" rx="2.5" ry="2.5" style="stroke:#181818;stroke-width:0.5;" width="177" x="1185.5" y="78.9805"/><text fill="#000000" font-family="FG Virgil" font-size="14" font-style="italic" lengthAdjust="spacing" textLength="79" x="1234.5" y="101.0879">&#171;repository&#187;</text><text fill="#000000" font-family="FG Virgil" font-size="14" lengthAdjust="spacing" textLength="163" x="1192.5" y="119.709">:JobApplicationRepository</text><rect fill="#E2E2F0" height="51.2422" rx="2.5" ry="2.5" style="stroke:#181818;stroke-width:0.5;" width="177" x="1185.5" y="855.5762"/><text fill="#000000" font-family="FG Virgil" font-size="14" font-style="italic" lengthAdjust="spacing" textLength="79" x="1234.5" y="877.6836">&#171;repository&#187;</text><text fill="#000000" font-family="FG Virgil" font-size="14" lengthAdjust="spacing" textLength="163" x="1192.5" y="896.3047">:JobApplicationRepository</text><rect fill="#E2E2F0" height="51.2422" rx="2.5" ry="2.5" style="stroke:#181818;stroke-width:0.5;" width="248" x="1372.5" y="78.9805"/><text fill="#000000" font-family="FG Virgil" font-size="14" font-style="italic" lengthAdjust="spacing" textLength="62" x="1465.5" y="101.0879">&#171;domain&#187;</text><text fill="#000000" font-family="FG Virgil" font-size="14" lengthAdjust="spacing" textLength="234" x="1379.5" y="119.709">:RequirementSpecificationModel_Ex1</text><rect fill="#E2E2F0" height="51.2422" rx="2.5" ry="2.5" style="stroke:#181818;stroke-width:0.5;" width="248" x="1372.5" y="855.5762"/><text fill="#000000" font-family="FG Virgil" font-size="14" font-style="italic" lengthAdjust="spacing" textLength="62" x="1465.5" y="877.6836">&#171;domain&#187;</text><text fill="#000000" font-family="FG Virgil" font-size="14" lengthAdjust="spacing" textLength="234" x="1379.5" y="896.3047">:RequirementSpecificationModel_Ex1</text><rect fill="#FFFFFF" height="706.3535" style="stroke:#181818;stroke-width:1.0;" width="10" x="31.5" y="141.2227"/><rect fill="#FFFFFF" height="218.6973" style="stroke:#181818;stroke-width:1.0;" width="10" x="245.5" y="181.8047"/><rect fill="#FFFFFF" height="156.4551" style="stroke:#181818;stroke-width:1.0;" width="10" x="245.5" y="431.793"/><rect fill="#FFFFFF" height="31.291" style="stroke:#181818;stroke-width:1.0;" width="10" x="245.5" y="619.5391"/><rect fill="#FFFFFF" height="156.4551" style="stroke:#181818;stroke-width:1.0;" width="10" x="245.5" y="682.1211"/><rect fill="#FFFFFF" height="93.873" style="stroke:#181818;stroke-width:1.0;" width="10" x="759.5" y="275.3379"/><rect fill="#FFFFFF" height="93.873" style="stroke:#181818;stroke-width:1.0;" width="10" x="759.5" y="463.084"/><rect fill="#FFFFFF" height="93.873" style="stroke:#181818;stroke-width:1.0;" width="10" x="759.5" y="713.4121"/><rect fill="#FFFFFF" height="31.291" style="stroke:#181818;stroke-width:1.0;" width="10" x="1089.5" y="306.6289"/><rect fill="#FFFFFF" height="31.291" style="stroke:#181818;stroke-width:1.0;" width="10" x="1269" y="494.375"/><rect fill="#FFFFFF" height="31.291" style="stroke:#181818;stroke-width:1.0;" width="10" x="1491.5" y="744.7031"/><polygon fill="#181818" points="233.5,177.8047,243.5,181.8047,233.5,185.8047,237.5,181.8047" style="stroke:#181818;stroke-width:1.0;"/><line style="stroke:#181818;stroke-width:1.0;" x1="41.5" x2="239.5" y1="181.8047" y2="181.8047"/><text fill="#000000" font-family="FG Virgil" font-size="13" lengthAdjust="spacing" textLength="169" x="48.5" y="159.251">asks to upload a text file with</text><text fill="#000000" font-family="FG Virgil" font-size="13" lengthAdjust="spacing" textLength="168" x="48.5" y="176.542">the data fields (requirements)</text><polygon fill="#181818" points="679,209.0957,689,213.0957,679,217.0957,683,213.0957" style="stroke:#181818;stroke-width:1.0;"/><line style="stroke:#181818;stroke-width:1.0;" x1="255.5" x2="685" y1="213.0957" y2="213.0957"/><text fill="#000000" font-family="FG Virgil" font-size="13" lengthAdjust="spacing" textLength="36" x="262.5" y="207.833">create</text><rect fill="#E2E2F0" height="51.2422" rx="2.5" ry="2.5" style="stroke:#181818;stroke-width:0.5;" width="147" x="691" y="189.8047"/><text fill="#000000" font-family="FG Virgil" font-size="14" font-style="italic" lengthAdjust="spacing" textLength="84" x="722.5" y="211.9121">&#171;application&#187;</text><text fill="#000000" font-family="FG Virgil" font-size="14" lengthAdjust="spacing" textLength="133" x="698" y="230.5332">:UploadFileController</text><polygon fill="#181818" points="747.5,271.3379,757.5,275.3379,747.5,279.3379,751.5,275.3379" style="stroke:#181818;stroke-width:1.0;"/><line style="stroke:#181818;stroke-width:1.0;" x1="255.5" x2="753.5" y1="275.3379" y2="275.3379"/><text fill="#000000" font-family="FG Virgil" font-size="13" lengthAdjust="spacing" textLength="174" x="262.5" y="270.0752">getAllScreeningJobOpenings()</text><polygon fill="#181818" points="1077.5,302.6289,1087.5,306.6289,1077.5,310.6289,1081.5,306.6289" style="stroke:#181818;stroke-width:1.0;"/><line style="stroke:#181818;stroke-width:1.0;" x1="769.5" x2="1083.5" y1="306.6289" y2="306.6289"/><text fill="#000000" font-family="FG Virgil" font-size="13" lengthAdjust="spacing" textLength="301" x="776.5" y="301.3662">findJobOpeningsByPhase(PhaseType.SCREENING)</text><polygon fill="#181818" points="780.5,333.9199,770.5,337.9199,780.5,341.9199,776.5,337.9199" style="stroke:#181818;stroke-width:1.0;"/><line style="stroke:#181818;stroke-width:1.0;stroke-dasharray:2.0,2.0;" x1="774.5" x2="1093.5" y1="337.9199" y2="337.9199"/><text fill="#000000" font-family="FG Virgil" font-size="13" lengthAdjust="spacing" textLength="105" x="786.5" y="332.6572">List&lt;JobOpening&gt;</text><polygon fill="#181818" points="266.5,365.2109,256.5,369.2109,266.5,373.2109,262.5,369.2109" style="stroke:#181818;stroke-width:1.0;"/><line style="stroke:#181818;stroke-width:1.0;stroke-dasharray:2.0,2.0;" x1="260.5" x2="763.5" y1="369.2109" y2="369.2109"/><text fill="#000000" font-family="FG Virgil" font-size="13" lengthAdjust="spacing" textLength="86" x="272.5" y="363.9482">jobOpeningList</text><polygon fill="#181818" points="52.5,396.502,42.5,400.502,52.5,404.502,48.5,400.502" style="stroke:#181818;stroke-width:1.0;"/><line style="stroke:#181818;stroke-width:1.0;stroke-dasharray:2.0,2.0;" x1="46.5" x2="249.5" y1="400.502" y2="400.502"/><text fill="#000000" font-family="FG Virgil" font-size="13" lengthAdjust="spacing" textLength="174" x="58.5" y="395.2393">asks to select the job opening</text><polygon fill="#181818" points="233.5,427.793,243.5,431.793,233.5,435.793,237.5,431.793" style="stroke:#181818;stroke-width:1.0;"/><line style="stroke:#181818;stroke-width:1.0;" x1="41.5" x2="239.5" y1="431.793" y2="431.793"/><text fill="#000000" font-family="FG Virgil" font-size="13" lengthAdjust="spacing" textLength="134" x="48.5" y="426.5303">selects the job opening</text><polygon fill="#181818" points="747.5,459.084,757.5,463.084,747.5,467.084,751.5,463.084" style="stroke:#181818;stroke-width:1.0;"/><line style="stroke:#181818;stroke-width:1.0;" x1="255.5" x2="753.5" y1="463.084" y2="463.084"/><text fill="#000000" font-family="FG Virgil" font-size="13" lengthAdjust="spacing" textLength="485" x="262.5" y="457.8213">getJobApplicationsByJobReference(selectedJobOpening.toDTO().getJobReference())</text><polygon fill="#181818" points="1257,490.375,1267,494.375,1257,498.375,1261,494.375" style="stroke:#181818;stroke-width:1.0;"/><line style="stroke:#181818;stroke-width:1.0;" x1="769.5" x2="1263" y1="494.375" y2="494.375"/><text fill="#000000" font-family="FG Virgil" font-size="13" lengthAdjust="spacing" textLength="197" x="776.5" y="489.1123">findByJobReference(jobReference)</text><polygon fill="#181818" points="780.5,521.666,770.5,525.666,780.5,529.666,776.5,525.666" style="stroke:#181818;stroke-width:1.0;"/><line style="stroke:#181818;stroke-width:1.0;stroke-dasharray:2.0,2.0;" x1="774.5" x2="1273" y1="525.666" y2="525.666"/><text fill="#000000" font-family="FG Virgil" font-size="13" lengthAdjust="spacing" textLength="121" x="786.5" y="520.4033">List&lt;JobApplication&gt;</text><polygon fill="#181818" points="266.5,552.957,256.5,556.957,266.5,560.957,262.5,556.957" style="stroke:#181818;stroke-width:1.0;"/><line style="stroke:#181818;stroke-width:1.0;stroke-dasharray:2.0,2.0;" x1="260.5" x2="763.5" y1="556.957" y2="556.957"/><text fill="#000000" font-family="FG Virgil" font-size="13" lengthAdjust="spacing" textLength="109" x="272.5" y="551.6943">jobApplicationsList</text><polygon fill="#181818" points="52.5,584.248,42.5,588.248,52.5,592.248,48.5,588.248" style="stroke:#181818;stroke-width:1.0;"/><line style="stroke:#181818;stroke-width:1.0;stroke-dasharray:2.0,2.0;" x1="46.5" x2="249.5" y1="588.248" y2="588.248"/><text fill="#000000" font-family="FG Virgil" font-size="13" lengthAdjust="spacing" textLength="180" x="58.5" y="582.9854">asks to select a job application</text><polygon fill="#181818" points="233.5,615.5391,243.5,619.5391,233.5,623.5391,237.5,619.5391" style="stroke:#181818;stroke-width:1.0;"/><line style="stroke:#181818;stroke-width:1.0;" x1="41.5" x2="239.5" y1="619.5391" y2="619.5391"/><text fill="#000000" font-family="FG Virgil" font-size="13" lengthAdjust="spacing" textLength="151" x="48.5" y="614.2764">selects the job application</text><polygon fill="#181818" points="52.5,646.8301,42.5,650.8301,52.5,654.8301,48.5,650.8301" style="stroke:#181818;stroke-width:1.0;"/><line style="stroke:#181818;stroke-width:1.0;stroke-dasharray:2.0,2.0;" x1="46.5" x2="249.5" y1="650.8301" y2="650.8301"/><text fill="#000000" font-family="FG Virgil" font-size="13" lengthAdjust="spacing" textLength="153" x="58.5" y="645.5674">asks for the path of the file</text><polygon fill="#181818" points="233.5,678.1211,243.5,682.1211,233.5,686.1211,237.5,682.1211" style="stroke:#181818;stroke-width:1.0;"/><line style="stroke:#181818;stroke-width:1.0;" x1="41.5" x2="239.5" y1="682.1211" y2="682.1211"/><text fill="#000000" font-family="FG Virgil" font-size="13" lengthAdjust="spacing" textLength="154" x="48.5" y="676.8584">provides the path of the file</text><polygon fill="#181818" points="747.5,709.4121,757.5,713.4121,747.5,717.4121,751.5,713.4121" style="stroke:#181818;stroke-width:1.0;"/><line style="stroke:#181818;stroke-width:1.0;" x1="255.5" x2="753.5" y1="713.4121" y2="713.4121"/><text fill="#000000" font-family="FG Virgil" font-size="13" lengthAdjust="spacing" textLength="201" x="262.5" y="708.1494">verifyRequirementsSyntax(filePath)</text><polygon fill="#181818" points="1479.5,740.7031,1489.5,744.7031,1479.5,748.7031,1483.5,744.7031" style="stroke:#181818;stroke-width:1.0;"/><line style="stroke:#181818;stroke-width:1.0;" x1="769.5" x2="1485.5" y1="744.7031" y2="744.7031"/><text fill="#000000" font-family="FG Virgil" font-size="13" lengthAdjust="spacing" textLength="165" x="776.5" y="739.4404">isFileSyntaxCorrect(filePath)</text><polygon fill="#181818" points="780.5,771.9941,770.5,775.9941,780.5,779.9941,776.5,775.9941" style="stroke:#181818;stroke-width:1.0;"/><line style="stroke:#181818;stroke-width:1.0;stroke-dasharray:2.0,2.0;" x1="774.5" x2="1495.5" y1="775.9941" y2="775.9941"/><text fill="#000000" font-family="FG Virgil" font-size="13" lengthAdjust="spacing" textLength="27" x="786.5" y="770.7314">false</text><polygon fill="#181818" points="266.5,803.2852,256.5,807.2852,266.5,811.2852,262.5,807.2852" style="stroke:#181818;stroke-width:1.0;"/><line style="stroke:#181818;stroke-width:1.0;stroke-dasharray:2.0,2.0;" x1="260.5" x2="763.5" y1="807.2852" y2="807.2852"/><text fill="#000000" font-family="FG Virgil" font-size="13" lengthAdjust="spacing" textLength="132" x="272.5" y="802.0225">File syntax is incorrect</text><polygon fill="#181818" points="52.5,834.5762,42.5,838.5762,52.5,842.5762,48.5,838.5762" style="stroke:#181818;stroke-width:1.0;"/><line style="stroke:#181818;stroke-width:1.0;stroke-dasharray:2.0,2.0;" x1="46.5" x2="249.5" y1="838.5762" y2="838.5762"/><text fill="#000000" font-family="FG Virgil" font-size="13" lengthAdjust="spacing" textLength="135" x="58.5" y="833.3135">displays error message</text><!--SRC=[dPLVJzim5CNVyocksCCA4Yr3UuggIen_whG1QYXFaoQJt3G69_Pi5yW-_QwJhhc4ZB6zL8sTyxlNvpYsbruXJ9tyYV7XmIp17skiKeGJALPMbB1CuF3Wu2FimxLT8zoWTL9NqqaGpABeVU6zYISJeqJbrwKQfxgSk7jP6K7gSU5B5MqVeTILJWkhIuHSA8TioeZqNgmmyJMrOp7rR2x3NAoLFzELln2aFJk76sbNagDT8JBzAAlLXXo9r6iBbmQj27-4WwDcv9sIgyBVgZL6fFGobOPQXvruQPGMsO8Ca1PBhBmxamgNyvsWNSvXEZKM7OqBJmxCPeFo83ccFgrM2cqZJRUFX136A9aE4pxhMsgteZKiq6WdgTkw8UXsrD8e8UnsSeXmr1NeKLZflvEO3Od1LEORvLUTeVf- -lIXGTgmMwmCRn4kqwMGOLd1U_aWFBQMHwtn-xFWOaowUmTUmxen30HuVFAGat7mA7q1tofV86J22nf4bJaOMHRARaTVpYCY4hUpU6ylXjGYpRwOYc65_aYfXEORFpk_tOXHEqN4eYCKYo6crggC0JxLLuLmE6f-hsk3u-HuSNfwCRyuPsX6Y7Ye-xr6lqZdfnrz5cKuoE3zDVR6SBTL1GWNidK5Q-Zz9fSk48UAlZi8xXFbTo6E8CDPbl56uLv8NakeYU7vHYNtQ621ETfmzenQB39_nrwVN5-ETiUjjdjrzot1zNP-6rwlvXrxOCoUDEf_H7zAZgtkMNfztd22t9l_ZL4qYR1w_n8ab_N3x5NCYH9aHj2tg_FcV_YONojdh7wG6RfXuUkxvu4EdBpcntHIqvdyD0hQAsAzOKUmSoi6sPppBUHOst3t3B6O9kBdNdy7jDSFMpmN3iGTYeDhgbCh8AkqxU5DcMVIqSrREq1hoTuIdQDBj6VzBm00]--></g></svg>