<?xml version="1.0" encoding="us-ascii" standalone="no"?><svg xmlns="http://www.w3.org/2000/svg" xmlns:xlink="http://www.w3.org/1999/xlink" contentStyleType="text/css" height="1296px" preserveAspectRatio="none" style="width:1728px;height:1296px;background:#FFFFFF;" version="1.1" viewBox="0 0 1728 1296" width="1728px" zoomAndPan="magnify"><defs/><g><text fill="#000000" font-family="FG Virgil" font-size="20" font-weight="bold" lengthAdjust="spacing" textLength="401" x="662.75" y="36.582">Sequence Diagram US 2004 - True Version</text><rect fill="#FFFFFF" height="1063.2148" style="stroke:#181818;stroke-width:1.0;" width="10" x="31.5" y="141.2227"/><rect fill="#FFFFFF" height="218.6973" style="stroke:#181818;stroke-width:1.0;" width="10" x="245.5" y="181.8047"/><rect fill="#FFFFFF" height="156.4551" style="stroke:#181818;stroke-width:1.0;" width="10" x="245.5" y="431.793"/><rect fill="#FFFFFF" height="31.291" style="stroke:#181818;stroke-width:1.0;" width="10" x="245.5" y="619.5391"/><rect fill="#FFFFFF" height="513.3164" style="stroke:#181818;stroke-width:1.0;" width="10" x="245.5" y="682.1211"/><rect fill="#FFFFFF" height="93.873" style="stroke:#181818;stroke-width:1.0;" width="10" x="759.5" y="275.3379"/><rect fill="#FFFFFF" height="93.873" style="stroke:#181818;stroke-width:1.0;" width="10" x="759.5" y="463.084"/><rect fill="#FFFFFF" height="93.873" style="stroke:#181818;stroke-width:1.0;" width="10" x="759.5" y="713.4121"/><rect fill="#FFFFFF" height="325.5703" style="stroke:#181818;stroke-width:1.0;" width="10" x="759.5" y="838.5762"/><rect fill="#FFFFFF" height="31.291" style="stroke:#181818;stroke-width:1.0;" width="10" x="1093.5" y="306.6289"/><rect fill="#FFFFFF" height="31.291" style="stroke:#181818;stroke-width:1.0;" width="10" x="1273" y="494.375"/><rect fill="#FFFFFF" height="31.291" style="stroke:#181818;stroke-width:1.0;" width="10" x="1273" y="1101.5645"/><rect fill="#FFFFFF" height="31.291" style="stroke:#181818;stroke-width:1.0;" width="10" x="1495.5" y="744.7031"/><rect fill="#FFFFFF" height="93.873" style="stroke:#181818;stroke-width:1.0;" width="10" x="1673.5" y="932.1094"/><line style="stroke:#181818;stroke-width:0.5;stroke-dasharray:5.0,5.0;" x1="36" x2="36" y1="131.2227" y2="1213.4375"/><line style="stroke:#181818;stroke-width:0.5;stroke-dasharray:5.0,5.0;" x1="250" x2="250" y1="131.2227" y2="1213.4375"/><line style="stroke:#181818;stroke-width:0.5;stroke-dasharray:5.0,5.0;" x1="764" x2="764" y1="230.9258" y2="1213.4375"/><line style="stroke:#181818;stroke-width:0.5;stroke-dasharray:5.0,5.0;" x1="1098.5" x2="1098.5" y1="131.2227" y2="1213.4375"/><line style="stroke:#181818;stroke-width:0.5;stroke-dasharray:5.0,5.0;" x1="1277.5" x2="1277.5" y1="131.2227" y2="1213.4375"/><line style="stroke:#181818;stroke-width:0.5;stroke-dasharray:5.0,5.0;" x1="1500.5" x2="1500.5" y1="131.2227" y2="1213.4375"/><line style="stroke:#181818;stroke-width:0.5;stroke-dasharray:5.0,5.0;" x1="1678.5" x2="1678.5" y1="887.6973" y2="1213.4375"/><text fill="#000000" font-family="FG Virgil" font-size="14" lengthAdjust="spacing" textLength="57" x="5" y="127.709">Operator</text><ellipse cx="36.5" cy="61.1016" fill="#ADD8E6" rx="8" ry="8" style="stroke:#181818;stroke-width:0.5;"/><path d="M36.5,69.1016 L36.5,96.1016 M23.5,77.1016 L49.5,77.1016 M36.5,96.1016 L23.5,111.1016 M36.5,96.1016 L49.5,111.1016 " fill="none" style="stroke:#181818;stroke-width:0.5;"/><text fill="#000000" font-family="FG Virgil" font-size="14" lengthAdjust="spacing" textLength="57" x="5" y="1227.5449">Operator</text><ellipse cx="36.5" cy="1239.5586" fill="#ADD8E6" rx="8" ry="8" style="stroke:#181818;stroke-width:0.5;"/><path d="M36.5,1247.5586 L36.5,1274.5586 M23.5,1255.5586 L49.5,1255.5586 M36.5,1274.5586 L23.5,1289.5586 M36.5,1274.5586 L49.5,1289.5586 " fill="none" style="stroke:#181818;stroke-width:0.5;"/><rect fill="#E2E2F0" height="51.2422" rx="2.5" ry="2.5" style="stroke:#181818;stroke-width:0.5;" width="185" x="158" y="78.9805"/><text fill="#000000" font-family="FG Virgil" font-size="14" font-style="italic" lengthAdjust="spacing" textLength="95" x="203" y="101.0879">&#171;presentation&#187;</text><text fill="#000000" font-family="FG Virgil" font-size="14" lengthAdjust="spacing" textLength="171" x="165" y="119.709">:UploadRequirementsFileUI</text><rect fill="#E2E2F0" height="51.2422" rx="2.5" ry="2.5" style="stroke:#181818;stroke-width:0.5;" width="185" x="158" y="1212.4375"/><text fill="#000000" font-family="FG Virgil" font-size="14" font-style="italic" lengthAdjust="spacing" textLength="95" x="203" y="1234.5449">&#171;presentation&#187;</text><text fill="#000000" font-family="FG Virgil" font-size="14" lengthAdjust="spacing" textLength="171" x="165" y="1253.166">:UploadRequirementsFileUI</text><rect fill="#E2E2F0" height="51.2422" rx="2.5" ry="2.5" style="stroke:#181818;stroke-width:0.5;" width="147" x="691" y="1212.4375"/><text fill="#000000" font-family="FG Virgil" font-size="14" font-style="italic" lengthAdjust="spacing" textLength="84" x="722.5" y="1234.5449">&#171;application&#187;</text><text fill="#000000" font-family="FG Virgil" font-size="14" lengthAdjust="spacing" textLength="133" x="698" y="1253.166">:UploadFileController</text><rect fill="#E2E2F0" height="51.2422" rx="2.5" ry="2.5" style="stroke:#181818;stroke-width:0.5;" width="162" x="1017.5" y="78.9805"/><text fill="#000000" font-family="FG Virgil" font-size="14" font-style="italic" lengthAdjust="spacing" textLength="79" x="1059" y="101.0879">&#171;repository&#187;</text><text fill="#000000" font-family="FG Virgil" font-size="14" lengthAdjust="spacing" textLength="148" x="1024.5" y="119.709">:JobOpeningRepository</text><rect fill="#E2E2F0" height="51.2422" rx="2.5" ry="2.5" style="stroke:#181818;stroke-width:0.5;" width="162" x="1017.5" y="1212.4375"/><text fill="#000000" font-family="FG Virgil" font-size="14" font-style="italic" lengthAdjust="spacing" textLength="79" x="1059" y="1234.5449">&#171;repository&#187;</text><text fill="#000000" font-family="FG Virgil" font-size="14" lengthAdjust="spacing" textLength="148" x="1024.5" y="1253.166">:JobOpeningRepository</text><rect fill="#E2E2F0" height="51.2422" rx="2.5" ry="2.5" style="stroke:#181818;stroke-width:0.5;" width="177" x="1189.5" y="78.9805"/><text fill="#000000" font-family="FG Virgil" font-size="14" font-style="italic" lengthAdjust="spacing" textLength="79" x="1238.5" y="101.0879">&#171;repository&#187;</text><text fill="#000000" font-family="FG Virgil" font-size="14" lengthAdjust="spacing" textLength="163" x="1196.5" y="119.709">:JobApplicationRepository</text><rect fill="#E2E2F0" height="51.2422" rx="2.5" ry="2.5" style="stroke:#181818;stroke-width:0.5;" width="177" x="1189.5" y="1212.4375"/><text fill="#000000" font-family="FG Virgil" font-size="14" font-style="italic" lengthAdjust="spacing" textLength="79" x="1238.5" y="1234.5449">&#171;repository&#187;</text><text fill="#000000" font-family="FG Virgil" font-size="14" lengthAdjust="spacing" textLength="163" x="1196.5" y="1253.166">:JobApplicationRepository</text><rect fill="#E2E2F0" height="51.2422" rx="2.5" ry="2.5" style="stroke:#181818;stroke-width:0.5;" width="248" x="1376.5" y="78.9805"/><text fill="#000000" font-family="FG Virgil" font-size="14" font-style="italic" lengthAdjust="spacing" textLength="62" x="1469.5" y="101.0879">&#171;domain&#187;</text><text fill="#000000" font-family="FG Virgil" font-size="14" lengthAdjust="spacing" textLength="234" x="1383.5" y="119.709">:RequirementSpecificationModel_Ex1</text><rect fill="#E2E2F0" height="51.2422" rx="2.5" ry="2.5" style="stroke:#181818;stroke-width:0.5;" width="248" x="1376.5" y="1212.4375"/><text fill="#000000" font-family="FG Virgil" font-size="14" font-style="italic" lengthAdjust="spacing" textLength="62" x="1469.5" y="1234.5449">&#171;domain&#187;</text><text fill="#000000" font-family="FG Virgil" font-size="14" lengthAdjust="spacing" textLength="234" x="1383.5" y="1253.166">:RequirementSpecificationModel_Ex1</text><rect fill="#E2E2F0" height="51.2422" rx="2.5" ry="2.5" style="stroke:#181818;stroke-width:0.5;" width="88" x="1634.5" y="1212.4375"/><text fill="#000000" font-family="FG Virgil" font-size="14" font-style="italic" lengthAdjust="spacing" textLength="60" x="1648.5" y="1234.5449">&#171;service&#187;</text><text fill="#000000" font-family="FG Virgil" font-size="14" lengthAdjust="spacing" textLength="74" x="1641.5" y="1253.166">:FileService</text><rect fill="#FFFFFF" height="1063.2148" style="stroke:#181818;stroke-width:1.0;" width="10" x="31.5" y="141.2227"/><rect fill="#FFFFFF" height="218.6973" style="stroke:#181818;stroke-width:1.0;" width="10" x="245.5" y="181.8047"/><rect fill="#FFFFFF" height="156.4551" style="stroke:#181818;stroke-width:1.0;" width="10" x="245.5" y="431.793"/><rect fill="#FFFFFF" height="31.291" style="stroke:#181818;stroke-width:1.0;" width="10" x="245.5" y="619.5391"/><rect fill="#FFFFFF" height="513.3164" style="stroke:#181818;stroke-width:1.0;" width="10" x="245.5" y="682.1211"/><rect fill="#FFFFFF" height="93.873" style="stroke:#181818;stroke-width:1.0;" width="10" x="759.5" y="275.3379"/><rect fill="#FFFFFF" height="93.873" style="stroke:#181818;stroke-width:1.0;" width="10" x="759.5" y="463.084"/><rect fill="#FFFFFF" height="93.873" style="stroke:#181818;stroke-width:1.0;" width="10" x="759.5" y="713.4121"/><rect fill="#FFFFFF" height="325.5703" style="stroke:#181818;stroke-width:1.0;" width="10" x="759.5" y="838.5762"/><rect fill="#FFFFFF" height="31.291" style="stroke:#181818;stroke-width:1.0;" width="10" x="1093.5" y="306.6289"/><rect fill="#FFFFFF" height="31.291" style="stroke:#181818;stroke-width:1.0;" width="10" x="1273" y="494.375"/><rect fill="#FFFFFF" height="31.291" style="stroke:#181818;stroke-width:1.0;" width="10" x="1273" y="1101.5645"/><rect fill="#FFFFFF" height="31.291" style="stroke:#181818;stroke-width:1.0;" width="10" x="1495.5" y="744.7031"/><rect fill="#FFFFFF" height="93.873" style="stroke:#181818;stroke-width:1.0;" width="10" x="1673.5" y="932.1094"/><polygon fill="#181818" points="233.5,177.8047,243.5,181.8047,233.5,185.8047,237.5,181.8047" style="stroke:#181818;stroke-width:1.0;"/><line style="stroke:#181818;stroke-width:1.0;" x1="41.5" x2="239.5" y1="181.8047" y2="181.8047"/><text fill="#000000" font-family="FG Virgil" font-size="13" lengthAdjust="spacing" textLength="169" x="48.5" y="159.251">asks to upload a text file with</text><text fill="#000000" font-family="FG Virgil" font-size="13" lengthAdjust="spacing" textLength="168" x="48.5" y="176.542">the data fields (requirements)</text><polygon fill="#181818" points="679,209.0957,689,213.0957,679,217.0957,683,213.0957" style="stroke:#181818;stroke-width:1.0;"/><line style="stroke:#181818;stroke-width:1.0;" x1="255.5" x2="685" y1="213.0957" y2="213.0957"/><text fill="#000000" font-family="FG Virgil" font-size="13" lengthAdjust="spacing" textLength="36" x="262.5" y="207.833">create</text><rect fill="#E2E2F0" height="51.2422" rx="2.5" ry="2.5" style="stroke:#181818;stroke-width:0.5;" width="147" x="691" y="189.8047"/><text fill="#000000" font-family="FG Virgil" font-size="14" font-style="italic" lengthAdjust="spacing" textLength="84" x="722.5" y="211.9121">&#171;application&#187;</text><text fill="#000000" font-family="FG Virgil" font-size="14" lengthAdjust="spacing" textLength="133" x="698" y="230.5332">:UploadFileController</text><polygon fill="#181818" points="747.5,271.3379,757.5,275.3379,747.5,279.3379,751.5,275.3379" style="stroke:#181818;stroke-width:1.0;"/><line style="stroke:#181818;stroke-width:1.0;" x1="255.5" x2="753.5" y1="275.3379" y2="275.3379"/><text fill="#000000" font-family="FG Virgil" font-size="13" lengthAdjust="spacing" textLength="174" x="262.5" y="270.0752">getAllScreeningJobOpenings()</text><polygon fill="#181818" points="1081.5,302.6289,1091.5,306.6289,1081.5,310.6289,1085.5,306.6289" style="stroke:#181818;stroke-width:1.0;"/><line style="stroke:#181818;stroke-width:1.0;" x1="769.5" x2="1087.5" y1="306.6289" y2="306.6289"/><text fill="#000000" font-family="FG Virgil" font-size="13" lengthAdjust="spacing" textLength="301" x="776.5" y="301.3662">findJobOpeningsByPhase(PhaseType.SCREENING)</text><polygon fill="#181818" points="780.5,333.9199,770.5,337.9199,780.5,341.9199,776.5,337.9199" style="stroke:#181818;stroke-width:1.0;"/><line style="stroke:#181818;stroke-width:1.0;stroke-dasharray:2.0,2.0;" x1="774.5" x2="1097.5" y1="337.9199" y2="337.9199"/><text fill="#000000" font-family="FG Virgil" font-size="13" lengthAdjust="spacing" textLength="105" x="786.5" y="332.6572">List&lt;JobOpening&gt;</text><polygon fill="#181818" points="266.5,365.2109,256.5,369.2109,266.5,373.2109,262.5,369.2109" style="stroke:#181818;stroke-width:1.0;"/><line style="stroke:#181818;stroke-width:1.0;stroke-dasharray:2.0,2.0;" x1="260.5" x2="763.5" y1="369.2109" y2="369.2109"/><text fill="#000000" font-family="FG Virgil" font-size="13" lengthAdjust="spacing" textLength="86" x="272.5" y="363.9482">jobOpeningList</text><polygon fill="#181818" points="52.5,396.502,42.5,400.502,52.5,404.502,48.5,400.502" style="stroke:#181818;stroke-width:1.0;"/><line style="stroke:#181818;stroke-width:1.0;stroke-dasharray:2.0,2.0;" x1="46.5" x2="249.5" y1="400.502" y2="400.502"/><text fill="#000000" font-family="FG Virgil" font-size="13" lengthAdjust="spacing" textLength="174" x="58.5" y="395.2393">asks to select the job opening</text><polygon fill="#181818" points="233.5,427.793,243.5,431.793,233.5,435.793,237.5,431.793" style="stroke:#181818;stroke-width:1.0;"/><line style="stroke:#181818;stroke-width:1.0;" x1="41.5" x2="239.5" y1="431.793" y2="431.793"/><text fill="#000000" font-family="FG Virgil" font-size="13" lengthAdjust="spacing" textLength="134" x="48.5" y="426.5303">selects the job opening</text><polygon fill="#181818" points="747.5,459.084,757.5,463.084,747.5,467.084,751.5,463.084" style="stroke:#181818;stroke-width:1.0;"/><line style="stroke:#181818;stroke-width:1.0;" x1="255.5" x2="753.5" y1="463.084" y2="463.084"/><text fill="#000000" font-family="FG Virgil" font-size="13" lengthAdjust="spacing" textLength="485" x="262.5" y="457.8213">getJobApplicationsByJobReference(selectedJobOpening.toDTO().getJobReference())</text><polygon fill="#181818" points="1261,490.375,1271,494.375,1261,498.375,1265,494.375" style="stroke:#181818;stroke-width:1.0;"/><line style="stroke:#181818;stroke-width:1.0;" x1="769.5" x2="1267" y1="494.375" y2="494.375"/><text fill="#000000" font-family="FG Virgil" font-size="13" lengthAdjust="spacing" textLength="197" x="776.5" y="489.1123">findByJobReference(jobReference)</text><polygon fill="#181818" points="780.5,521.666,770.5,525.666,780.5,529.666,776.5,525.666" style="stroke:#181818;stroke-width:1.0;"/><line style="stroke:#181818;stroke-width:1.0;stroke-dasharray:2.0,2.0;" x1="774.5" x2="1277" y1="525.666" y2="525.666"/><text fill="#000000" font-family="FG Virgil" font-size="13" lengthAdjust="spacing" textLength="121" x="786.5" y="520.4033">List&lt;JobApplication&gt;</text><polygon fill="#181818" points="266.5,552.957,256.5,556.957,266.5,560.957,262.5,556.957" style="stroke:#181818;stroke-width:1.0;"/><line style="stroke:#181818;stroke-width:1.0;stroke-dasharray:2.0,2.0;" x1="260.5" x2="763.5" y1="556.957" y2="556.957"/><text fill="#000000" font-family="FG Virgil" font-size="13" lengthAdjust="spacing" textLength="109" x="272.5" y="551.6943">jobApplicationsList</text><polygon fill="#181818" points="52.5,584.248,42.5,588.248,52.5,592.248,48.5,588.248" style="stroke:#181818;stroke-width:1.0;"/><line style="stroke:#181818;stroke-width:1.0;stroke-dasharray:2.0,2.0;" x1="46.5" x2="249.5" y1="588.248" y2="588.248"/><text fill="#000000" font-family="FG Virgil" font-size="13" lengthAdjust="spacing" textLength="180" x="58.5" y="582.9854">asks to select a job application</text><polygon fill="#181818" points="233.5,615.5391,243.5,619.5391,233.5,623.5391,237.5,619.5391" style="stroke:#181818;stroke-width:1.0;"/><line style="stroke:#181818;stroke-width:1.0;" x1="41.5" x2="239.5" y1="619.5391" y2="619.5391"/><text fill="#000000" font-family="FG Virgil" font-size="13" lengthAdjust="spacing" textLength="151" x="48.5" y="614.2764">selects the job application</text><polygon fill="#181818" points="52.5,646.8301,42.5,650.8301,52.5,654.8301,48.5,650.8301" style="stroke:#181818;stroke-width:1.0;"/><line style="stroke:#181818;stroke-width:1.0;stroke-dasharray:2.0,2.0;" x1="46.5" x2="249.5" y1="650.8301" y2="650.8301"/><text fill="#000000" font-family="FG Virgil" font-size="13" lengthAdjust="spacing" textLength="153" x="58.5" y="645.5674">asks for the path of the file</text><polygon fill="#181818" points="233.5,678.1211,243.5,682.1211,233.5,686.1211,237.5,682.1211" style="stroke:#181818;stroke-width:1.0;"/><line style="stroke:#181818;stroke-width:1.0;" x1="41.5" x2="239.5" y1="682.1211" y2="682.1211"/><text fill="#000000" font-family="FG Virgil" font-size="13" lengthAdjust="spacing" textLength="154" x="48.5" y="676.8584">provides the path of the file</text><polygon fill="#181818" points="747.5,709.4121,757.5,713.4121,747.5,717.4121,751.5,713.4121" style="stroke:#181818;stroke-width:1.0;"/><line style="stroke:#181818;stroke-width:1.0;" x1="255.5" x2="753.5" y1="713.4121" y2="713.4121"/><text fill="#000000" font-family="FG Virgil" font-size="13" lengthAdjust="spacing" textLength="201" x="262.5" y="708.1494">verifyRequirementsSyntax(filePath)</text><polygon fill="#181818" points="1483.5,740.7031,1493.5,744.7031,1483.5,748.7031,1487.5,744.7031" style="stroke:#181818;stroke-width:1.0;"/><line style="stroke:#181818;stroke-width:1.0;" x1="769.5" x2="1489.5" y1="744.7031" y2="744.7031"/><text fill="#000000" font-family="FG Virgil" font-size="13" lengthAdjust="spacing" textLength="165" x="776.5" y="739.4404">isFileSyntaxCorrect(filePath)</text><polygon fill="#181818" points="780.5,771.9941,770.5,775.9941,780.5,779.9941,776.5,775.9941" style="stroke:#181818;stroke-width:1.0;"/><line style="stroke:#181818;stroke-width:1.0;stroke-dasharray:2.0,2.0;" x1="774.5" x2="1499.5" y1="775.9941" y2="775.9941"/><text fill="#000000" font-family="FG Virgil" font-size="13" lengthAdjust="spacing" textLength="22" x="786.5" y="770.7314">true</text><polygon fill="#181818" points="266.5,803.2852,256.5,807.2852,266.5,811.2852,262.5,807.2852" style="stroke:#181818;stroke-width:1.0;"/><line style="stroke:#181818;stroke-width:1.0;stroke-dasharray:2.0,2.0;" x1="260.5" x2="763.5" y1="807.2852" y2="807.2852"/><text fill="#000000" font-family="FG Virgil" font-size="13" lengthAdjust="spacing" textLength="22" x="272.5" y="802.0225">true</text><polygon fill="#181818" points="747.5,834.5762,757.5,838.5762,747.5,842.5762,751.5,838.5762" style="stroke:#181818;stroke-width:1.0;"/><line style="stroke:#181818;stroke-width:1.0;" x1="255.5" x2="753.5" y1="838.5762" y2="838.5762"/><text fill="#000000" font-family="FG Virgil" font-size="13" lengthAdjust="spacing" textLength="456" x="262.5" y="833.3135">uploadRequirementsFile(filePath, selectedJobOpening, selectedJobApplication)</text><polygon fill="#181818" points="1622.5,865.8672,1632.5,869.8672,1622.5,873.8672,1626.5,869.8672" style="stroke:#181818;stroke-width:1.0;"/><line style="stroke:#181818;stroke-width:1.0;" x1="769.5" x2="1628.5" y1="869.8672" y2="869.8672"/><text fill="#000000" font-family="FG Virgil" font-size="13" lengthAdjust="spacing" textLength="44" x="776.5" y="864.6045">create()</text><rect fill="#E2E2F0" height="51.2422" rx="2.5" ry="2.5" style="stroke:#181818;stroke-width:0.5;" width="88" x="1634.5" y="846.5762"/><text fill="#000000" font-family="FG Virgil" font-size="14" font-style="italic" lengthAdjust="spacing" textLength="60" x="1648.5" y="868.6836">&#171;service&#187;</text><text fill="#000000" font-family="FG Virgil" font-size="14" lengthAdjust="spacing" textLength="74" x="1641.5" y="887.3047">:FileService</text><polygon fill="#181818" points="1661.5,928.1094,1671.5,932.1094,1661.5,936.1094,1665.5,932.1094" style="stroke:#181818;stroke-width:1.0;"/><line style="stroke:#181818;stroke-width:1.0;" x1="769.5" x2="1667.5" y1="932.1094" y2="932.1094"/><text fill="#000000" font-family="FG Virgil" font-size="13" lengthAdjust="spacing" textLength="322" x="776.5" y="926.8467">createDirectoryIfNotExistsJPRequirements(JobOpening)</text><polygon fill="#181818" points="1661.5,959.4004,1671.5,963.4004,1661.5,967.4004,1665.5,963.4004" style="stroke:#181818;stroke-width:1.0;"/><line style="stroke:#181818;stroke-width:1.0;" x1="769.5" x2="1667.5" y1="963.4004" y2="963.4004"/><text fill="#000000" font-family="FG Virgil" font-size="13" lengthAdjust="spacing" textLength="512" x="776.5" y="958.1377">createDirectoryIfNotExistsJARequirements(selectedJobOpening, selectedJobApplication)</text><polygon fill="#181818" points="1661.5,990.6914,1671.5,994.6914,1661.5,998.6914,1665.5,994.6914" style="stroke:#181818;stroke-width:1.0;"/><line style="stroke:#181818;stroke-width:1.0;" x1="769.5" x2="1667.5" y1="994.6914" y2="994.6914"/><text fill="#000000" font-family="FG Virgil" font-size="13" lengthAdjust="spacing" textLength="463" x="776.5" y="989.4287">moveFileJARequirements(filePath, selectedJobOpening, selectedJobApplication)</text><polygon fill="#181818" points="780.5,1021.9824,770.5,1025.9824,780.5,1029.9824,776.5,1025.9824" style="stroke:#181818;stroke-width:1.0;"/><line style="stroke:#181818;stroke-width:1.0;stroke-dasharray:2.0,2.0;" x1="774.5" x2="1677.5" y1="1025.9824" y2="1025.9824"/><text fill="#000000" font-family="FG Virgil" font-size="13" lengthAdjust="spacing" textLength="71" x="786.5" y="1020.7197">newFilePath</text><line style="stroke:#181818;stroke-width:1.0;" x1="769.5" x2="811.5" y1="1057.2734" y2="1057.2734"/><line style="stroke:#181818;stroke-width:1.0;" x1="811.5" x2="811.5" y1="1057.2734" y2="1070.2734"/><line style="stroke:#181818;stroke-width:1.0;" x1="770.5" x2="811.5" y1="1070.2734" y2="1070.2734"/><polygon fill="#181818" points="780.5,1066.2734,770.5,1070.2734,780.5,1074.2734,776.5,1070.2734" style="stroke:#181818;stroke-width:1.0;"/><text fill="#000000" font-family="FG Virgil" font-size="13" lengthAdjust="spacing" textLength="310" x="776.5" y="1052.0107">saveFileJobApp(selectedJobApplication, newFilePath)</text><polygon fill="#181818" points="1261,1097.5645,1271,1101.5645,1261,1105.5645,1265,1101.5645" style="stroke:#181818;stroke-width:1.0;"/><line style="stroke:#181818;stroke-width:1.0;" x1="769.5" x2="1267" y1="1101.5645" y2="1101.5645"/><text fill="#000000" font-family="FG Virgil" font-size="13" lengthAdjust="spacing" textLength="93" x="776.5" y="1096.3018">save(fileJobApp)</text><polygon fill="#181818" points="780.5,1128.8555,770.5,1132.8555,780.5,1136.8555,776.5,1132.8555" style="stroke:#181818;stroke-width:1.0;"/><line style="stroke:#181818;stroke-width:1.0;stroke-dasharray:2.0,2.0;" x1="774.5" x2="1277" y1="1132.8555" y2="1132.8555"/><text fill="#000000" font-family="FG Virgil" font-size="13" lengthAdjust="spacing" textLength="64" x="786.5" y="1127.5928">FileJobApp</text><polygon fill="#181818" points="266.5,1160.1465,256.5,1164.1465,266.5,1168.1465,262.5,1164.1465" style="stroke:#181818;stroke-width:1.0;"/><line style="stroke:#181818;stroke-width:1.0;stroke-dasharray:2.0,2.0;" x1="260.5" x2="763.5" y1="1164.1465" y2="1164.1465"/><text fill="#000000" font-family="FG Virgil" font-size="13" lengthAdjust="spacing" textLength="59" x="272.5" y="1158.8838">fileJobApp</text><polygon fill="#181818" points="52.5,1191.4375,42.5,1195.4375,52.5,1199.4375,48.5,1195.4375" style="stroke:#181818;stroke-width:1.0;"/><line style="stroke:#181818;stroke-width:1.0;stroke-dasharray:2.0,2.0;" x1="46.5" x2="249.5" y1="1195.4375" y2="1195.4375"/><text fill="#000000" font-family="FG Virgil" font-size="13" lengthAdjust="spacing" textLength="158" x="58.5" y="1190.1748">displays operation success</text><!--SRC=[fPRVRzem4CVVyrTOtSEWQg6RzXGX9DP2HRNH2agV9arkSW6tJfpPXiB- -fqTIewG_g1xGSJEztFd-zhdM64bi8uHVo7yUjQTm9y5P16m2y5dcgTiEc5Vpyw-iLDsgnV0xa0ReR9EsmcwGV1vRcqUjjkvv9bTfB8LgRHj7aMMSrItvZQLmVQHfIfJqLoh55Z2fG4obVFeaSzWOjUOZeR8ahaO4hwGTg0oE-Ae7LooEw5dWgBDdCVgIMIp3JdWaLMQNUUWkVl33UlvaKzIpERsNYuWGAKLaSWnTNOKJdEfU3p60WWDAMJM38I4wV38QQT3rkda6WoESuiLw7PhvKvoZdbg9ILeBussZuZWUIv5L4-uKlUORePh64EkZC1irvwWYb6DeuZGsyawGgyCKA6Gq6-JI1acEKGYsIX_gXZax_xgYqTgjrkqS6yXBbOf5_lBSYMPW5wA2Bme4Mx3TKmnXAzxhyIIMoWi2WgZJhkkwY5A7WspYYryWHbd5bQse3m9EsU_CZi75dFBSH1aR5X34nER9Nqw3928tDAIu-EGHHfmTcygP3EmFIadEE_hN_fZ6eHQAW9YDQA8RI6cbiK4y7rzC-S66lxtTfr3Qt8-xlT7mz4bGHD2G3V1QINH7yBOJadl1Z7KCcX-lhmXUzYg78GAoRfSQV1zxqjfY069vvIvwYFbEH15OC69b-56OVOahpdaRTZTs5Wz71X30jhrgaQ11LBVbbKNjzUDPglGbgystsDSvQGKvbLYFf07mgn8W-gXUyaviheTzwgyUWTfRJvg8_UEa7Y764bbLJCh4HEaE5dEyUognFztX_crSBbMIn63gHU-ldkMsA2IDMthapNsy5N3QM-GzOuTGVfSo8I_5mh8kTBkhgfZ4Kr0-sHr1rYyLkdQgQx6xUhh5NjtsOlQAssRxGdRFpaxOsHVlUVSE6xPKB57xay_Jru8LpUyUOR9IDd-2ZUjkRgXcJRAd4XiR_Y1sDuEzf0brmLArH9S5IlOZzNKtsBL7P71qs13eqxNB9sg3D_avKCqwYEUK7ZphRRda7vX1UG_sboPs87DBQaLljZJOc7mItJjFvcq1pEpY28mfj9U_W40]--></g></svg>