<?xml version="1.0" encoding="us-ascii" standalone="no"?><svg xmlns="http://www.w3.org/2000/svg" xmlns:xlink="http://www.w3.org/1999/xlink" contentStyleType="text/css" height="1772px" preserveAspectRatio="none" style="width:1055px;height:1772px;background:#FFFFFF;" version="1.1" viewBox="0 0 1055 1772" width="1055px" zoomAndPan="magnify"><defs/><g><text fill="#000000" font-family="FG Virgil" font-size="20" font-weight="bold" lengthAdjust="spacing" textLength="240" x="408.75" y="36.582">Sequence Diagram - 1010</text><rect fill="#FFFFFF" height="1538.2305" style="stroke:#181818;stroke-width:1.0;" width="10" x="76.5" y="141.2227"/><rect fill="#FFFFFF" height="1514.9395" style="stroke:#181818;stroke-width:1.0;" width="10" x="390.5" y="164.5137"/><rect fill="#FFFFFF" height="1474.6484" style="stroke:#181818;stroke-width:1.0;" width="10" x="637.5" y="205.8047"/><rect fill="#FFFFFF" height="447.0742" style="stroke:#181818;stroke-width:1.0;" width="10" x="848.5" y="289.3379"/><rect fill="#FFFFFF" height="785.5859" style="stroke:#181818;stroke-width:1.0;" width="10" x="848.5" y="894.8672"/><rect fill="#FFFFFF" height="723.0039" style="stroke:#181818;stroke-width:1.0;" width="10" x="986.5" y="957.4492"/><rect fill="#FFFFFF" height="456.0449" style="stroke:#181818;stroke-width:1.0;" width="10" x="991.5" y="1224.4082"/><rect fill="#FFFFFF" height="189.0859" style="stroke:#181818;stroke-width:1.0;" width="10" x="996.5" y="1491.3672"/><rect fill="none" height="64.582" style="stroke:#000000;stroke-width:1.5;" width="934.5" x="10" y="679.8301"/><rect fill="none" height="851.459" style="stroke:#000000;stroke-width:1.5;" width="1038.5" x="10" y="820.9941"/><line style="stroke:#181818;stroke-width:0.5;stroke-dasharray:5.0,5.0;" x1="81" x2="81" y1="131.2227" y2="1689.4531"/><line style="stroke:#181818;stroke-width:0.5;stroke-dasharray:5.0,5.0;" x1="395.5" x2="395.5" y1="131.2227" y2="1689.4531"/><line style="stroke:#181818;stroke-width:0.5;stroke-dasharray:5.0,5.0;" x1="642.5" x2="642.5" y1="213.6348" y2="1689.4531"/><line style="stroke:#181818;stroke-width:0.5;stroke-dasharray:5.0,5.0;" x1="853.5" x2="853.5" y1="131.2227" y2="1689.4531"/><line style="stroke:#181818;stroke-width:0.5;stroke-dasharray:5.0,5.0;" x1="991.5" x2="991.5" y1="131.2227" y2="1689.4531"/><text fill="#000000" font-family="FG Virgil" font-size="14" lengthAdjust="spacing" textLength="117" x="20" y="127.709">CustomerManager</text><ellipse cx="81.5" cy="61.1016" fill="#ADD8E6" rx="8" ry="8" style="stroke:#181818;stroke-width:0.5;"/><path d="M81.5,69.1016 L81.5,96.1016 M68.5,77.1016 L94.5,77.1016 M81.5,96.1016 L68.5,111.1016 M81.5,96.1016 L94.5,111.1016 " fill="none" style="stroke:#181818;stroke-width:0.5;"/><text fill="#000000" font-family="FG Virgil" font-size="14" lengthAdjust="spacing" textLength="117" x="20" y="1703.5605">CustomerManager</text><ellipse cx="81.5" cy="1715.5742" fill="#ADD8E6" rx="8" ry="8" style="stroke:#181818;stroke-width:0.5;"/><path d="M81.5,1723.5742 L81.5,1750.5742 M68.5,1731.5742 L94.5,1731.5742 M81.5,1750.5742 L68.5,1765.5742 M81.5,1750.5742 L94.5,1765.5742 " fill="none" style="stroke:#181818;stroke-width:0.5;"/><rect fill="#E2E2F0" height="51.2422" rx="2.5" ry="2.5" style="stroke:#181818;stroke-width:0.5;" width="128" x="331.5" y="78.9805"/><text fill="#000000" font-family="FG Virgil" font-size="14" font-style="italic" lengthAdjust="spacing" textLength="95" x="348" y="101.0879">&#171;presentation&#187;</text><text fill="#000000" font-family="FG Virgil" font-size="14" lengthAdjust="spacing" textLength="114" x="338.5" y="119.709">:ManagePhasesUI</text><rect fill="#E2E2F0" height="51.2422" rx="2.5" ry="2.5" style="stroke:#181818;stroke-width:0.5;" width="128" x="331.5" y="1688.4531"/><text fill="#000000" font-family="FG Virgil" font-size="14" font-style="italic" lengthAdjust="spacing" textLength="95" x="348" y="1710.5605">&#171;presentation&#187;</text><text fill="#000000" font-family="FG Virgil" font-size="14" lengthAdjust="spacing" textLength="114" x="338.5" y="1729.1816">:ManagePhasesUI</text><rect fill="#E2E2F0" height="51.2422" rx="2.5" ry="2.5" style="stroke:#181818;stroke-width:0.5;" width="178" x="553.5" y="1688.4531"/><text fill="#000000" font-family="FG Virgil" font-size="14" font-style="italic" lengthAdjust="spacing" textLength="84" x="600.5" y="1710.5605">&#171;application&#187;</text><text fill="#000000" font-family="FG Virgil" font-size="14" lengthAdjust="spacing" textLength="164" x="560.5" y="1729.1816">:ManagePhasesController</text><rect fill="#E2E2F0" height="51.2422" rx="2.5" ry="2.5" style="stroke:#181818;stroke-width:0.5;" width="162" x="772.5" y="78.9805"/><text fill="#000000" font-family="FG Virgil" font-size="14" font-style="italic" lengthAdjust="spacing" textLength="79" x="814" y="101.0879">&#171;repository&#187;</text><text fill="#000000" font-family="FG Virgil" font-size="14" lengthAdjust="spacing" textLength="148" x="779.5" y="119.709">:JobOpeningRepository</text><rect fill="#E2E2F0" height="51.2422" rx="2.5" ry="2.5" style="stroke:#181818;stroke-width:0.5;" width="162" x="772.5" y="1688.4531"/><text fill="#000000" font-family="FG Virgil" font-size="14" font-style="italic" lengthAdjust="spacing" textLength="79" x="814" y="1710.5605">&#171;repository&#187;</text><text fill="#000000" font-family="FG Virgil" font-size="14" lengthAdjust="spacing" textLength="148" x="779.5" y="1729.1816">:JobOpeningRepository</text><rect fill="#E2E2F0" height="51.2422" rx="2.5" ry="2.5" style="stroke:#181818;stroke-width:0.5;" width="94" x="944.5" y="78.9805"/><text fill="#000000" font-family="FG Virgil" font-size="14" font-style="italic" lengthAdjust="spacing" textLength="50" x="966.5" y="101.0879">&#171;entity&#187;</text><text fill="#000000" font-family="FG Virgil" font-size="14" lengthAdjust="spacing" textLength="80" x="951.5" y="119.709">:JobOpening</text><rect fill="#E2E2F0" height="51.2422" rx="2.5" ry="2.5" style="stroke:#181818;stroke-width:0.5;" width="94" x="944.5" y="1688.4531"/><text fill="#000000" font-family="FG Virgil" font-size="14" font-style="italic" lengthAdjust="spacing" textLength="50" x="966.5" y="1710.5605">&#171;entity&#187;</text><text fill="#000000" font-family="FG Virgil" font-size="14" lengthAdjust="spacing" textLength="80" x="951.5" y="1729.1816">:JobOpening</text><rect fill="#FFFFFF" height="1538.2305" style="stroke:#181818;stroke-width:1.0;" width="10" x="76.5" y="141.2227"/><rect fill="#FFFFFF" height="1514.9395" style="stroke:#181818;stroke-width:1.0;" width="10" x="390.5" y="164.5137"/><rect fill="#FFFFFF" height="1474.6484" style="stroke:#181818;stroke-width:1.0;" width="10" x="637.5" y="205.8047"/><rect fill="#FFFFFF" height="447.0742" style="stroke:#181818;stroke-width:1.0;" width="10" x="848.5" y="289.3379"/><rect fill="#FFFFFF" height="785.5859" style="stroke:#181818;stroke-width:1.0;" width="10" x="848.5" y="894.8672"/><rect fill="#FFFFFF" height="723.0039" style="stroke:#181818;stroke-width:1.0;" width="10" x="986.5" y="957.4492"/><rect fill="#FFFFFF" height="456.0449" style="stroke:#181818;stroke-width:1.0;" width="10" x="991.5" y="1224.4082"/><rect fill="#FFFFFF" height="189.0859" style="stroke:#181818;stroke-width:1.0;" width="10" x="996.5" y="1491.3672"/><polygon fill="#181818" points="378.5,160.5137,388.5,164.5137,378.5,168.5137,382.5,164.5137" style="stroke:#181818;stroke-width:1.0;"/><line style="stroke:#181818;stroke-width:1.0;" x1="86.5" x2="384.5" y1="164.5137" y2="164.5137"/><text fill="#000000" font-family="FG Virgil" font-size="13" lengthAdjust="spacing" textLength="115" x="93.5" y="159.251">List all job openings</text><polygon fill="#181818" points="541.5,191.8047,551.5,195.8047,541.5,199.8047,545.5,195.8047" style="stroke:#181818;stroke-width:1.0;"/><line style="stroke:#181818;stroke-width:1.0;" x1="400.5" x2="547.5" y1="195.8047" y2="195.8047"/><text fill="#000000" font-family="FG Virgil" font-size="13" lengthAdjust="spacing" textLength="44" x="407.5" y="190.542">create()</text><rect fill="#E2E2F0" height="51.2422" rx="2.5" ry="2.5" style="stroke:#181818;stroke-width:0.5;" width="178" x="553.5" y="172.5137"/><text fill="#000000" font-family="FG Virgil" font-size="14" font-style="italic" lengthAdjust="spacing" textLength="84" x="600.5" y="194.6211">&#171;application&#187;</text><text fill="#000000" font-family="FG Virgil" font-size="14" lengthAdjust="spacing" textLength="164" x="560.5" y="213.2422">:ManagePhasesController</text><polygon fill="#181818" points="625.5,254.0469,635.5,258.0469,625.5,262.0469,629.5,258.0469" style="stroke:#181818;stroke-width:1.0;"/><line style="stroke:#181818;stroke-width:1.0;" x1="400.5" x2="631.5" y1="258.0469" y2="258.0469"/><text fill="#000000" font-family="FG Virgil" font-size="13" lengthAdjust="spacing" textLength="101" x="407.5" y="252.7842">getJobOpenings()</text><polygon fill="#181818" points="836.5,285.3379,846.5,289.3379,836.5,293.3379,840.5,289.3379" style="stroke:#181818;stroke-width:1.0;"/><line style="stroke:#181818;stroke-width:1.0;" x1="647.5" x2="842.5" y1="289.3379" y2="289.3379"/><text fill="#000000" font-family="FG Virgil" font-size="13" lengthAdjust="spacing" textLength="43" x="654.5" y="284.0752">findAll()</text><polygon fill="#181818" points="658.5,316.6289,648.5,320.6289,658.5,324.6289,654.5,320.6289" style="stroke:#181818;stroke-width:1.0;"/><line style="stroke:#181818;stroke-width:1.0;stroke-dasharray:2.0,2.0;" x1="652.5" x2="847.5" y1="320.6289" y2="320.6289"/><text fill="#000000" font-family="FG Virgil" font-size="13" lengthAdjust="spacing" textLength="75" x="664.5" y="315.3662">JobOpenings</text><polygon fill="#181818" points="411.5,347.9199,401.5,351.9199,411.5,355.9199,407.5,351.9199" style="stroke:#181818;stroke-width:1.0;"/><line style="stroke:#181818;stroke-width:1.0;stroke-dasharray:2.0,2.0;" x1="405.5" x2="636.5" y1="351.9199" y2="351.9199"/><text fill="#000000" font-family="FG Virgil" font-size="13" lengthAdjust="spacing" textLength="75" x="417.5" y="346.6572">JobOpenings</text><polygon fill="#181818" points="97.5,379.2109,87.5,383.2109,97.5,387.2109,93.5,383.2109" style="stroke:#181818;stroke-width:1.0;"/><line style="stroke:#181818;stroke-width:1.0;stroke-dasharray:2.0,2.0;" x1="91.5" x2="389.5" y1="383.2109" y2="383.2109"/><text fill="#000000" font-family="FG Virgil" font-size="13" lengthAdjust="spacing" textLength="167" x="103.5" y="377.9482">Asks to select a JobOpening</text><polygon fill="#181818" points="378.5,410.502,388.5,414.502,378.5,418.502,382.5,414.502" style="stroke:#181818;stroke-width:1.0;"/><line style="stroke:#181818;stroke-width:1.0;" x1="86.5" x2="384.5" y1="414.502" y2="414.502"/><text fill="#000000" font-family="FG Virgil" font-size="13" lengthAdjust="spacing" textLength="127" x="93.5" y="409.2393">Selects a JobOpening</text><polygon fill="#181818" points="625.5,441.793,635.5,445.793,625.5,449.793,629.5,445.793" style="stroke:#181818;stroke-width:1.0;"/><line style="stroke:#181818;stroke-width:1.0;" x1="400.5" x2="631.5" y1="445.793" y2="445.793"/><text fill="#000000" font-family="FG Virgil" font-size="13" lengthAdjust="spacing" textLength="180" x="407.5" y="440.5303">getCurrentPhase(jobReference)</text><polygon fill="#181818" points="836.5,473.084,846.5,477.084,836.5,481.084,840.5,477.084" style="stroke:#181818;stroke-width:1.0;"/><line style="stroke:#181818;stroke-width:1.0;" x1="647.5" x2="842.5" y1="477.084" y2="477.084"/><text fill="#000000" font-family="FG Virgil" font-size="13" lengthAdjust="spacing" textLength="177" x="654.5" y="471.8213">findByReference(jobReference)</text><polygon fill="#181818" points="658.5,504.375,648.5,508.375,658.5,512.375,654.5,508.375" style="stroke:#181818;stroke-width:1.0;"/><line style="stroke:#181818;stroke-width:1.0;stroke-dasharray:2.0,2.0;" x1="652.5" x2="847.5" y1="508.375" y2="508.375"/><text fill="#000000" font-family="FG Virgil" font-size="13" lengthAdjust="spacing" textLength="65" x="664.5" y="503.1123">jobOpening</text><polygon fill="#181818" points="411.5,535.666,401.5,539.666,411.5,543.666,407.5,539.666" style="stroke:#181818;stroke-width:1.0;"/><line style="stroke:#181818;stroke-width:1.0;stroke-dasharray:2.0,2.0;" x1="405.5" x2="636.5" y1="539.666" y2="539.666"/><text fill="#000000" font-family="FG Virgil" font-size="13" lengthAdjust="spacing" textLength="77" x="417.5" y="534.4033">currentPhase</text><polygon fill="#181818" points="625.5,566.957,635.5,570.957,625.5,574.957,629.5,570.957" style="stroke:#181818;stroke-width:1.0;"/><line style="stroke:#181818;stroke-width:1.0;" x1="400.5" x2="631.5" y1="570.957" y2="570.957"/><text fill="#000000" font-family="FG Virgil" font-size="13" lengthAdjust="spacing" textLength="213" x="407.5" y="565.6943">getJobOpeningPhases(jobReference)</text><polygon fill="#181818" points="836.5,598.248,846.5,602.248,836.5,606.248,840.5,602.248" style="stroke:#181818;stroke-width:1.0;"/><line style="stroke:#181818;stroke-width:1.0;" x1="647.5" x2="842.5" y1="602.248" y2="602.248"/><text fill="#000000" font-family="FG Virgil" font-size="13" lengthAdjust="spacing" textLength="177" x="654.5" y="596.9854">findByReference(jobReference)</text><polygon fill="#181818" points="658.5,629.5391,648.5,633.5391,658.5,637.5391,654.5,633.5391" style="stroke:#181818;stroke-width:1.0;"/><line style="stroke:#181818;stroke-width:1.0;stroke-dasharray:2.0,2.0;" x1="652.5" x2="847.5" y1="633.5391" y2="633.5391"/><text fill="#000000" font-family="FG Virgil" font-size="13" lengthAdjust="spacing" textLength="65" x="664.5" y="628.2764">jobOpening</text><polygon fill="#181818" points="411.5,660.8301,401.5,664.8301,411.5,668.8301,407.5,664.8301" style="stroke:#181818;stroke-width:1.0;"/><line style="stroke:#181818;stroke-width:1.0;stroke-dasharray:2.0,2.0;" x1="405.5" x2="636.5" y1="664.8301" y2="664.8301"/><text fill="#000000" font-family="FG Virgil" font-size="13" lengthAdjust="spacing" textLength="109" x="417.5" y="659.5674">jobOpeningPhases</text><path d="M10,679.8301 L71,679.8301 L71,689.1211 L61,699.1211 L10,699.1211 L10,679.8301 " fill="#EEEEEE" style="stroke:#000000;stroke-width:1.5;"/><rect fill="none" height="64.582" style="stroke:#000000;stroke-width:1.5;" width="934.5" x="10" y="679.8301"/><text fill="#000000" font-family="FG Virgil" font-size="13" font-weight="bold" lengthAdjust="spacing" textLength="16" x="25" y="694.8584">alt</text><text fill="#000000" font-family="FG Virgil" font-size="11" font-weight="bold" lengthAdjust="spacing" textLength="163" x="86" y="693.7002">[jobOpeningPhases is empty]</text><polygon fill="#181818" points="97.5,718.4121,87.5,722.4121,97.5,726.4121,93.5,722.4121" style="stroke:#181818;stroke-width:1.0;"/><line style="stroke:#181818;stroke-width:1.0;stroke-dasharray:2.0,2.0;" x1="91.5" x2="389.5" y1="722.4121" y2="722.4121"/><text fill="#000000" font-family="FG Virgil" font-size="13" lengthAdjust="spacing" textLength="280" x="103.5" y="717.1494">"No Phases Found! Please Setup Phases First!"</text><polygon fill="#181818" points="658.5,732.4121,648.5,736.4121,658.5,740.4121,654.5,736.4121" style="stroke:#181818;stroke-width:1.0;"/><line style="stroke:#181818;stroke-width:1.0;stroke-dasharray:2.0,2.0;" x1="652.5" x2="852.5" y1="736.4121" y2="736.4121"/><polygon fill="#181818" points="97.5,770.7031,87.5,774.7031,97.5,778.7031,93.5,774.7031" style="stroke:#181818;stroke-width:1.0;"/><line style="stroke:#181818;stroke-width:1.0;stroke-dasharray:2.0,2.0;" x1="91.5" x2="389.5" y1="774.7031" y2="774.7031"/><text fill="#000000" font-family="FG Virgil" font-size="13" lengthAdjust="spacing" textLength="178" x="103.5" y="769.4404">Asks if wants to change phase</text><polygon fill="#181818" points="378.5,801.9941,388.5,805.9941,378.5,809.9941,382.5,805.9941" style="stroke:#181818;stroke-width:1.0;"/><line style="stroke:#181818;stroke-width:1.0;" x1="86.5" x2="384.5" y1="805.9941" y2="805.9941"/><text fill="#000000" font-family="FG Virgil" font-size="13" lengthAdjust="spacing" textLength="58" x="93.5" y="800.7314">Responds</text><path d="M10,820.9941 L71,820.9941 L71,830.2852 L61,840.2852 L10,840.2852 L10,820.9941 " fill="#EEEEEE" style="stroke:#000000;stroke-width:1.5;"/><rect fill="none" height="851.459" style="stroke:#000000;stroke-width:1.5;" width="1038.5" x="10" y="820.9941"/><text fill="#000000" font-family="FG Virgil" font-size="13" font-weight="bold" lengthAdjust="spacing" textLength="16" x="25" y="836.0225">alt</text><text fill="#000000" font-family="FG Virgil" font-size="11" font-weight="bold" lengthAdjust="spacing" textLength="149" x="86" y="834.8643">[response is "Next Phase"]</text><polygon fill="#181818" points="625.5,859.5762,635.5,863.5762,625.5,867.5762,629.5,863.5762" style="stroke:#181818;stroke-width:1.0;"/><line style="stroke:#181818;stroke-width:1.0;" x1="400.5" x2="631.5" y1="863.5762" y2="863.5762"/><text fill="#000000" font-family="FG Virgil" font-size="13" lengthAdjust="spacing" textLength="145" x="407.5" y="858.3135">nextPhase(jobReference)</text><polygon fill="#181818" points="836.5,890.8672,846.5,894.8672,836.5,898.8672,840.5,894.8672" style="stroke:#181818;stroke-width:1.0;"/><line style="stroke:#181818;stroke-width:1.0;" x1="647.5" x2="842.5" y1="894.8672" y2="894.8672"/><text fill="#000000" font-family="FG Virgil" font-size="13" lengthAdjust="spacing" textLength="177" x="654.5" y="889.6045">findByReference(jobReference)</text><polygon fill="#181818" points="658.5,922.1582,648.5,926.1582,658.5,930.1582,654.5,926.1582" style="stroke:#181818;stroke-width:1.0;"/><line style="stroke:#181818;stroke-width:1.0;stroke-dasharray:2.0,2.0;" x1="652.5" x2="847.5" y1="926.1582" y2="926.1582"/><text fill="#000000" font-family="FG Virgil" font-size="13" lengthAdjust="spacing" textLength="65" x="664.5" y="920.8955">jobOpening</text><polygon fill="#181818" points="974.5,953.4492,984.5,957.4492,974.5,961.4492,978.5,957.4492" style="stroke:#181818;stroke-width:1.0;"/><line style="stroke:#181818;stroke-width:1.0;" x1="647.5" x2="980.5" y1="957.4492" y2="957.4492"/><text fill="#000000" font-family="FG Virgil" font-size="13" lengthAdjust="spacing" textLength="70" x="654.5" y="952.1865">nextPhase()</text><polygon fill="#181818" points="658.5,984.7402,648.5,988.7402,658.5,992.7402,654.5,988.7402" style="stroke:#181818;stroke-width:1.0;"/><line style="stroke:#181818;stroke-width:1.0;stroke-dasharray:2.0,2.0;" x1="652.5" x2="985.5" y1="988.7402" y2="988.7402"/><text fill="#000000" font-family="FG Virgil" font-size="13" lengthAdjust="spacing" textLength="140" x="664.5" y="983.4775">isOperationSuccessfully</text><polygon fill="#181818" points="836.5,1016.0313,846.5,1020.0313,836.5,1024.0313,840.5,1020.0313" style="stroke:#181818;stroke-width:1.0;"/><line style="stroke:#181818;stroke-width:1.0;" x1="647.5" x2="842.5" y1="1020.0313" y2="1020.0313"/><text fill="#000000" font-family="FG Virgil" font-size="13" lengthAdjust="spacing" textLength="99" x="654.5" y="1014.7686">save(jobOpening)</text><polygon fill="#181818" points="658.5,1047.3223,648.5,1051.3223,658.5,1055.3223,654.5,1051.3223" style="stroke:#181818;stroke-width:1.0;"/><line style="stroke:#181818;stroke-width:1.0;stroke-dasharray:2.0,2.0;" x1="652.5" x2="847.5" y1="1051.3223" y2="1051.3223"/><text fill="#000000" font-family="FG Virgil" font-size="13" lengthAdjust="spacing" textLength="65" x="664.5" y="1046.0596">jobOpening</text><polygon fill="#181818" points="411.5,1078.6133,401.5,1082.6133,411.5,1086.6133,407.5,1082.6133" style="stroke:#181818;stroke-width:1.0;"/><line style="stroke:#181818;stroke-width:1.0;stroke-dasharray:2.0,2.0;" x1="405.5" x2="636.5" y1="1082.6133" y2="1082.6133"/><text fill="#000000" font-family="FG Virgil" font-size="13" lengthAdjust="spacing" textLength="77" x="417.5" y="1077.3506">currentPhase</text><line style="stroke:#000000;stroke-width:1.0;stroke-dasharray:2.0,2.0;" x1="10" x2="1048.5" y1="1091.6133" y2="1091.6133"/><text fill="#000000" font-family="FG Virgil" font-size="11" font-weight="bold" lengthAdjust="spacing" textLength="174" x="15" y="1103.4834">[response is "Previous Phase"]</text><polygon fill="#181818" points="625.5,1126.5352,635.5,1130.5352,625.5,1134.5352,629.5,1130.5352" style="stroke:#181818;stroke-width:1.0;"/><line style="stroke:#181818;stroke-width:1.0;" x1="400.5" x2="631.5" y1="1130.5352" y2="1130.5352"/><text fill="#000000" font-family="FG Virgil" font-size="13" lengthAdjust="spacing" textLength="167" x="407.5" y="1125.2725">previousPhase(jobReference)</text><polygon fill="#181818" points="836.5,1157.8262,846.5,1161.8262,836.5,1165.8262,840.5,1161.8262" style="stroke:#181818;stroke-width:1.0;"/><line style="stroke:#181818;stroke-width:1.0;" x1="647.5" x2="842.5" y1="1161.8262" y2="1161.8262"/><text fill="#000000" font-family="FG Virgil" font-size="13" lengthAdjust="spacing" textLength="177" x="654.5" y="1156.5635">findByReference(jobReference)</text><polygon fill="#181818" points="658.5,1189.1172,648.5,1193.1172,658.5,1197.1172,654.5,1193.1172" style="stroke:#181818;stroke-width:1.0;"/><line style="stroke:#181818;stroke-width:1.0;stroke-dasharray:2.0,2.0;" x1="652.5" x2="847.5" y1="1193.1172" y2="1193.1172"/><text fill="#000000" font-family="FG Virgil" font-size="13" lengthAdjust="spacing" textLength="65" x="664.5" y="1187.8545">jobOpening</text><polygon fill="#181818" points="979.5,1220.4082,989.5,1224.4082,979.5,1228.4082,983.5,1224.4082" style="stroke:#181818;stroke-width:1.0;"/><line style="stroke:#181818;stroke-width:1.0;" x1="647.5" x2="985.5" y1="1224.4082" y2="1224.4082"/><text fill="#000000" font-family="FG Virgil" font-size="13" lengthAdjust="spacing" textLength="92" x="654.5" y="1219.1455">previousPhase()</text><polygon fill="#181818" points="658.5,1251.6992,648.5,1255.6992,658.5,1259.6992,654.5,1255.6992" style="stroke:#181818;stroke-width:1.0;"/><line style="stroke:#181818;stroke-width:1.0;stroke-dasharray:2.0,2.0;" x1="652.5" x2="990.5" y1="1255.6992" y2="1255.6992"/><text fill="#000000" font-family="FG Virgil" font-size="13" lengthAdjust="spacing" textLength="140" x="664.5" y="1250.4365">isOperationSuccessfully</text><polygon fill="#181818" points="836.5,1282.9902,846.5,1286.9902,836.5,1290.9902,840.5,1286.9902" style="stroke:#181818;stroke-width:1.0;"/><line style="stroke:#181818;stroke-width:1.0;" x1="647.5" x2="842.5" y1="1286.9902" y2="1286.9902"/><text fill="#000000" font-family="FG Virgil" font-size="13" lengthAdjust="spacing" textLength="99" x="654.5" y="1281.7275">save(jobOpening)</text><polygon fill="#181818" points="658.5,1314.2813,648.5,1318.2813,658.5,1322.2813,654.5,1318.2813" style="stroke:#181818;stroke-width:1.0;"/><line style="stroke:#181818;stroke-width:1.0;stroke-dasharray:2.0,2.0;" x1="652.5" x2="847.5" y1="1318.2813" y2="1318.2813"/><text fill="#000000" font-family="FG Virgil" font-size="13" lengthAdjust="spacing" textLength="65" x="664.5" y="1313.0186">jobOpening</text><polygon fill="#181818" points="411.5,1345.5723,401.5,1349.5723,411.5,1353.5723,407.5,1349.5723" style="stroke:#181818;stroke-width:1.0;"/><line style="stroke:#181818;stroke-width:1.0;stroke-dasharray:2.0,2.0;" x1="405.5" x2="636.5" y1="1349.5723" y2="1349.5723"/><text fill="#000000" font-family="FG Virgil" font-size="13" lengthAdjust="spacing" textLength="77" x="417.5" y="1344.3096">currentPhase</text><line style="stroke:#000000;stroke-width:1.0;stroke-dasharray:2.0,2.0;" x1="10" x2="1048.5" y1="1358.5723" y2="1358.5723"/><text fill="#000000" font-family="FG Virgil" font-size="11" font-weight="bold" lengthAdjust="spacing" textLength="158" x="15" y="1370.4424">[response is "Start Phases"]</text><polygon fill="#181818" points="625.5,1393.4941,635.5,1397.4941,625.5,1401.4941,629.5,1397.4941" style="stroke:#181818;stroke-width:1.0;"/><line style="stroke:#181818;stroke-width:1.0;stroke-dasharray:2.0,2.0;" x1="400.5" x2="631.5" y1="1397.4941" y2="1397.4941"/><text fill="#000000" font-family="FG Virgil" font-size="13" lengthAdjust="spacing" textLength="153" x="407.5" y="1392.2314">startPhases(jobReference)</text><polygon fill="#181818" points="836.5,1424.7852,846.5,1428.7852,836.5,1432.7852,840.5,1428.7852" style="stroke:#181818;stroke-width:1.0;"/><line style="stroke:#181818;stroke-width:1.0;" x1="647.5" x2="842.5" y1="1428.7852" y2="1428.7852"/><text fill="#000000" font-family="FG Virgil" font-size="13" lengthAdjust="spacing" textLength="177" x="654.5" y="1423.5225">findByReference(jobReference)</text><polygon fill="#181818" points="658.5,1456.0762,648.5,1460.0762,658.5,1464.0762,654.5,1460.0762" style="stroke:#181818;stroke-width:1.0;"/><line style="stroke:#181818;stroke-width:1.0;stroke-dasharray:2.0,2.0;" x1="652.5" x2="847.5" y1="1460.0762" y2="1460.0762"/><text fill="#000000" font-family="FG Virgil" font-size="13" lengthAdjust="spacing" textLength="65" x="664.5" y="1454.8135">jobOpening</text><polygon fill="#181818" points="984.5,1487.3672,994.5,1491.3672,984.5,1495.3672,988.5,1491.3672" style="stroke:#181818;stroke-width:1.0;"/><line style="stroke:#181818;stroke-width:1.0;" x1="647.5" x2="990.5" y1="1491.3672" y2="1491.3672"/><text fill="#000000" font-family="FG Virgil" font-size="13" lengthAdjust="spacing" textLength="78" x="654.5" y="1486.1045">startPhases()</text><polygon fill="#181818" points="658.5,1518.6582,648.5,1522.6582,658.5,1526.6582,654.5,1522.6582" style="stroke:#181818;stroke-width:1.0;"/><line style="stroke:#181818;stroke-width:1.0;stroke-dasharray:2.0,2.0;" x1="652.5" x2="995.5" y1="1522.6582" y2="1522.6582"/><text fill="#000000" font-family="FG Virgil" font-size="13" lengthAdjust="spacing" textLength="140" x="664.5" y="1517.3955">isOperationSuccessfully</text><polygon fill="#181818" points="836.5,1549.9492,846.5,1553.9492,836.5,1557.9492,840.5,1553.9492" style="stroke:#181818;stroke-width:1.0;"/><line style="stroke:#181818;stroke-width:1.0;" x1="647.5" x2="842.5" y1="1553.9492" y2="1553.9492"/><text fill="#000000" font-family="FG Virgil" font-size="13" lengthAdjust="spacing" textLength="99" x="654.5" y="1548.6865">save(jobOpening)</text><polygon fill="#181818" points="658.5,1581.2402,648.5,1585.2402,658.5,1589.2402,654.5,1585.2402" style="stroke:#181818;stroke-width:1.0;"/><line style="stroke:#181818;stroke-width:1.0;stroke-dasharray:2.0,2.0;" x1="652.5" x2="847.5" y1="1585.2402" y2="1585.2402"/><text fill="#000000" font-family="FG Virgil" font-size="13" lengthAdjust="spacing" textLength="65" x="664.5" y="1579.9775">jobOpening</text><polygon fill="#181818" points="411.5,1612.5313,401.5,1616.5313,411.5,1620.5313,407.5,1616.5313" style="stroke:#181818;stroke-width:1.0;"/><line style="stroke:#181818;stroke-width:1.0;stroke-dasharray:2.0,2.0;" x1="405.5" x2="636.5" y1="1616.5313" y2="1616.5313"/><text fill="#000000" font-family="FG Virgil" font-size="13" lengthAdjust="spacing" textLength="77" x="417.5" y="1611.2686">currentPhase</text><line style="stroke:#000000;stroke-width:1.0;stroke-dasharray:2.0,2.0;" x1="10" x2="1048.5" y1="1625.5313" y2="1625.5313"/><text fill="#000000" font-family="FG Virgil" font-size="11" font-weight="bold" lengthAdjust="spacing" textLength="163" x="15" y="1637.4014">[response is "Cancel Action"]</text><polygon fill="#181818" points="97.5,1660.4531,87.5,1664.4531,97.5,1668.4531,93.5,1664.4531" style="stroke:#181818;stroke-width:1.0;"/><line style="stroke:#181818;stroke-width:1.0;stroke-dasharray:2.0,2.0;" x1="91.5" x2="389.5" y1="1664.4531" y2="1664.4531"/><text fill="#000000" font-family="FG Virgil" font-size="13" lengthAdjust="spacing" textLength="179" x="103.5" y="1659.1904">"Action cancelled by the user."</text><!--SRC=[xLPDRzim3BtxLx3UOMs1DEsEHc2Woz0XmzOL2RAxOZEnMaNo9BbTzkj7owwj9Cx7rlOstnG-aezFJr8ijm9XWZyBb0d29yuMcYsX1zzpbFsXK0RXBcC6JM0TT63uRum-NCOTELUNLvU3VWc8W-1zPcqUzVkvOD8MIt6Hg6NVF72PCq9VP7OfWcO9IoLLaccrH9WpOT0BvInvO0kSs1MrrvXOBvRYd1N2tYXfRndbtdo67rmlk5_QP2nLJrmkwie1IwpIC2oCfNRw6vDKNGCpSEq2xmHVP7Oc2WoeWEK9psa22ACAMQan7OLbndG4Wq6kqQ2qp78butXFqf1eQYK4QfVSBga8otF1a-uQNzIit0uQOOovCfnOhbo5hW3LqirYJwcD0fH6Ct1RffGAyKTciL8ag7JfnJHk15-viS24W7ir0rKb6ozbEWe2e8-aeOnsnlFp21AD13azSu0ceyLq9aQmGDiIDPJkSENdIKWvNN94CESolHQYxlhyDTsxaje6NT5UB_RPUTGwU16uLAqBD1rHq6aRmRLvC60L61JaS61UGeDtqAhSnC5CDuxgnXlo3GkjQNkT3KzfuyOuHrsUtdLHFDhnRZ4_hfhqFRMEKEv-ctkdU8d7FZZ68zLnwo1th5_sZzXvx7eRX3Q6yplN9-b-Wsyr6XDsAmBS02vpk_Bss9MftHFUglgMXXjLoFG4xWJIadnYYxm9SMtiITZKq1JKqYrHfgsmRLtdIZw79xeyd3sJZCa5Gkvsel7ayzKmHfChcPfc3kr-81x4Fxp5NxQY4gwDiIwR95INJNSuv2NRUDnLSCZJXpR-46T_v8EyTh3Pui0DHRHxJIP5ag0nyqA8rL-BQDYZKwuEdRs96hLxjayvqdEzxg4xZOzS5UQmZ_8QUVoLznfMUXk3hC_otoJF9kdsoCJIFvxwpWitBqo_goc1Ev-ArpN7lygmsnG- -xRFFZkym0elii5hp7xyzWyP2I_AXuc62NSzc5KO4WSMcC9i1JP3A0pgYx1z4rFq_zXwArVe3m00]--></g></svg>